mtllib material.mtl
usemtl Body_MAT
v 0.06086700 -0.05182300 0.15545900
v 0.05517400 -0.03916800 0.15662400
v 0.04744000 -0.02888600 0.15129600
v 0.04744000 -0.02888600 0.15129600
v 0.03767000 -0.01087600 0.13962300
v 0.03767000 -0.01087600 0.13962300
v 0.04988200 -0.00767300 0.13077800
v 0.06299300 -0.06346100 0.14811300
v 0.06299300 -0.06346100 0.14811300
v 0.06638300 -0.05037700 0.15146400
v 0.06638300 -0.05037700 0.15146400
v 0.06638300 -0.05037700 0.15146400
v 0.06472800 -0.03666200 0.14970400
v 0.06472800 -0.03666200 0.14970400
v 0.05847200 -0.02599200 0.14330600
v 0.05847200 -0.02599200 0.14330600
v 0.05847200 -0.02599200 0.14330600
v 0.05885700 -0.01100500 0.11869500
v 0.06218900 -0.01998000 0.10661200
v 0.07043600 -0.05188200 0.14600700
v 0.07043600 -0.05188200 0.14600700
v 0.07174900 -0.03926900 0.14025200
v 0.06658000 -0.02900200 0.13239100
v 0.06658000 -0.02900200 0.13239100
v 0.05898600 -0.03219200 0.09776700
v 0.05898600 -0.03219200 0.09776700
v 0.05010600 -0.04437000 0.09452900
v 0.07194100 -0.05593500 0.14054900
v 0.07194100 -0.05593500 0.14054900
v 0.07435600 -0.04629000 0.13079900
v 0.07435600 -0.04629000 0.13079900
v 0.06959000 -0.03711000 0.12147600
v 0.06959000 -0.03711000 0.12147600
v 0.03792800 -0.05325000 0.09776700
v 0.03792800 -0.05325000 0.09776700
v 0.02571500 -0.05645300 0.10661200
v 0.07049500 -0.06145100 0.13655400
v 0.07185000 -0.05584400 0.12388000
v 0.07185000 -0.05584400 0.12388000
v 0.06669600 -0.04814200 0.11348600
v 0.06669600 -0.04814200 0.11348600
v 0.01674100 -0.05312100 0.11869500
v 0.01340800 -0.04414700 0.13077800
v 0.06648400 -0.06695200 0.13509200
v 0.06490300 -0.06537100 0.12134700
v 0.05867400 -0.05914200 0.11056100
v 0.01661200 -0.03193400 0.13962300
v 0.01661200 -0.03193400 0.13962300
v 0.02549200 -0.01975600 0.14286000
v 0.06098300 -0.07096300 0.13655400
v 0.05537600 -0.07231800 0.12388000
v 0.05537600 -0.07231800 0.12388000
v 0.04767300 -0.06716400 0.11348600
v 0.04767300 -0.06716400 0.11348600
v 0.03525000 -0.03571800 0.15655600
v 0.03525000 -0.03571800 0.15655600
v 0.02637000 -0.04789600 0.15331900
v 0.02637000 -0.04789600 0.15331900
v 0.02637000 -0.04789600 0.15331900
v 0.05546700 -0.07241000 0.14054900
v 0.05546700 -0.07241000 0.14054900
v 0.04582200 -0.07482400 0.13079900
v 0.04582200 -0.07482400 0.13079900
v 0.03664100 -0.07005800 0.12147600
v 0.03664100 -0.07005800 0.12147600
v 0.02316700 -0.06010900 0.14447400
v 0.02316700 -0.06010900 0.14447400
v 0.02649900 -0.06908300 0.13239100
v 0.02649900 -0.06908300 0.13239100
v 0.05141400 -0.07090400 0.14600700
v 0.05141400 -0.07090400 0.14600700
v 0.03880100 -0.07221700 0.14025200
v 0.02853400 -0.06704800 0.13239100
v 0.02853400 -0.06704800 0.13239100
v 0.03547300 -0.07241600 0.12030800
v 0.03547300 -0.07241600 0.12030800
v 0.04768600 -0.06921200 0.11146300
v 0.04768600 -0.06921200 0.11146300
v 0.04768600 -0.06921200 0.11146300
v 0.04990800 -0.06685100 0.15146400
v 0.04990800 -0.06685100 0.15146400
v 0.04990800 -0.06685100 0.15146400
v 0.03619400 -0.06519600 0.14970400
v 0.03619400 -0.06519600 0.14970400
v 0.02552400 -0.05894100 0.14330600
v 0.02552400 -0.05894100 0.14330600
v 0.02552400 -0.05894100 0.14330600
v 0.05986400 -0.06033200 0.10822500
v 0.05986400 -0.06033200 0.10822500
v 0.06874400 -0.04815400 0.11146300
v 0.06874400 -0.04815400 0.11146300
v 0.06874400 -0.04815400 0.11146300
v 0.05135500 -0.06133500 0.15545900
v 0.03870000 -0.05564200 0.15662400
v 0.02841800 -0.04790900 0.15129600
v 0.02841800 -0.04790900 0.15129600
v 0.07194700 -0.03594200 0.12030800
v 0.07194700 -0.03594200 0.12030800
v 0.06861500 -0.02696700 0.13239100
v 0.06861500 -0.02696700 0.13239100
v 0.05536600 -0.05583400 0.15692200
v 0.04564700 -0.04611500 0.15915700
v 0.03644000 -0.03690800 0.15422100
v 0.03644000 -0.03690800 0.15422100
v 0.05964000 -0.02363500 0.14447300
v 0.05964000 -0.02363500 0.14447300
v 0.04742800 -0.02683800 0.15331900
v 0.04742800 -0.02683800 0.15331900
v 0.04742800 -0.02683800 0.15331900
v -0.06078700 0.05092000 0.15534600
v -0.05509500 0.03826500 0.15651100
v -0.04736100 0.02798200 0.15118300
v -0.04736100 0.02798200 0.15118300
v -0.03809700 0.01137900 0.14062700
v -0.03809700 0.01137900 0.14062700
v -0.05031000 0.00817500 0.13178200
v -0.06291400 0.06255800 0.14800000
v -0.06291400 0.06255800 0.14800000
v -0.06630300 0.04947300 0.15135100
v -0.06630300 0.04947300 0.15135100
v -0.06630300 0.04947300 0.15135100
v -0.06464900 0.03575900 0.14959200
v -0.06464900 0.03575900 0.14959200
v -0.05839300 0.02508900 0.14319300
v -0.05839300 0.02508900 0.14319300
v -0.05839300 0.02508900 0.14319300
v -0.05928500 0.01150800 0.11969900
v -0.06261700 0.02048200 0.10761600
v -0.07035700 0.05097800 0.14589400
v -0.07035700 0.05097800 0.14589400
v -0.07167000 0.03836600 0.14013900
v -0.06650000 0.02809900 0.13227800
v -0.06650000 0.02809900 0.13227800
v -0.05941400 0.03269500 0.09877100
v -0.05941400 0.03269500 0.09877100
v -0.05053300 0.04487300 0.09553400
v -0.07186200 0.05503200 0.14043600
v -0.07186200 0.05503200 0.14043600
v -0.07427700 0.04538700 0.13068600
v -0.07427700 0.04538700 0.13068600
v -0.06951100 0.03620600 0.12136300
v -0.06951100 0.03620600 0.12136300
v -0.03835500 0.05375300 0.09877100
v -0.03835500 0.05375300 0.09877100
v -0.02614300 0.05695600 0.10761600
v -0.07041500 0.06054800 0.13644100
v -0.07177100 0.05494100 0.12376700
v -0.07177100 0.05494100 0.12376700
v -0.06661700 0.04723800 0.11337300
v -0.06661700 0.04723800 0.11337300
v -0.01716800 0.05362400 0.11969900
v -0.01383600 0.04464900 0.13178200
v -0.06640400 0.06604800 0.13497900
v -0.06482400 0.06446800 0.12123400
v -0.05859500 0.05823900 0.11044800
v -0.01703900 0.03243700 0.14062700
v -0.01703900 0.03243700 0.14062700
v -0.02591900 0.02025900 0.14386500
v -0.06090400 0.07005900 0.13644100
v -0.05529700 0.07141500 0.12376700
v -0.05529700 0.07141500 0.12376700
v -0.04759400 0.06626100 0.11337300
v -0.04759400 0.06626100 0.11337300
v -0.03517100 0.03481500 0.15644300
v -0.03517100 0.03481500 0.15644300
v -0.02629100 0.04699300 0.15320600
v -0.02629100 0.04699300 0.15320600
v -0.02629100 0.04699300 0.15320600
v -0.05538800 0.07150600 0.14043600
v -0.05538800 0.07150600 0.14043600
v -0.04574300 0.07392100 0.13068600
v -0.04574300 0.07392100 0.13068600
v -0.03656200 0.06915500 0.12136300
v -0.03656200 0.06915500 0.12136300
v -0.02308700 0.05920500 0.14436100
v -0.02308700 0.05920500 0.14436100
v -0.02642000 0.06818000 0.13227800
v -0.02642000 0.06818000 0.13227800
v -0.05133400 0.07000100 0.14589400
v -0.05133400 0.07000100 0.14589400
v -0.03872100 0.07131400 0.14013900
v -0.02845500 0.06614500 0.13227800
v -0.02845500 0.06614500 0.13227800
v -0.03539400 0.07151200 0.12019500
v -0.03539400 0.07151200 0.12019500
v -0.04760700 0.06830900 0.11135000
v -0.04760700 0.06830900 0.11135000
v -0.04760700 0.06830900 0.11135000
v -0.04982900 0.06594800 0.15135100
v -0.04982900 0.06594800 0.15135100
v -0.04982900 0.06594800 0.15135100
v -0.03611500 0.06429300 0.14959200
v -0.03611500 0.06429300 0.14959200
v -0.02544500 0.05803700 0.14319300
v -0.02544500 0.05803700 0.14319300
v -0.02544500 0.05803700 0.14319300
v -0.05978500 0.05942900 0.10811200
v -0.05978500 0.05942900 0.10811200
v -0.06866500 0.04725100 0.11135000
v -0.06866500 0.04725100 0.11135000
v -0.06866500 0.04725100 0.11135000
v -0.05127600 0.06043100 0.15534600
v -0.03862100 0.05473900 0.15651100
v -0.02833800 0.04700500 0.15118300
v -0.02833800 0.04700500 0.15118300
v -0.07186800 0.03503800 0.12019500
v -0.07186800 0.03503800 0.12019500
v -0.06853600 0.02606400 0.13227800
v -0.06853600 0.02606400 0.13227800
v -0.05528700 0.05493100 0.15680900
v -0.04556800 0.04521200 0.15904400
v -0.03636000 0.03600400 0.15410800
v -0.03636000 0.03600400 0.15410800
v -0.05956100 0.02273100 0.14436100
v -0.05956100 0.02273100 0.14436100
v -0.04734900 0.02593500 0.15320600
v -0.04734900 0.02593500 0.15320600
v -0.04734900 0.02593500 0.15320600
v -0.05133200 -0.06127900 0.15534600
v -0.03867700 -0.05558600 0.15651100
v -0.02839500 -0.04785200 0.15118300
v -0.02839500 -0.04785200 0.15118300
v -0.00918700 -0.03765000 0.13855900
v -0.00918700 -0.03765000 0.13855900
v -0.00598400 -0.04986300 0.12971400
v -0.06297000 -0.06340500 0.14800000
v -0.06297000 -0.06340500 0.14800000
v -0.04988500 -0.06679500 0.15135100
v -0.04988500 -0.06679500 0.15135100
v -0.04988500 -0.06679500 0.15135100
v -0.03617100 -0.06514000 0.14959200
v -0.03617100 -0.06514000 0.14959200
v -0.02550100 -0.05888400 0.14319300
v -0.02550100 -0.05888400 0.14319300
v -0.02550100 -0.05888400 0.14319300
v -0.00931600 -0.05883700 0.11763100
v -0.01829100 -0.06217000 0.10554800
v -0.05139000 -0.07084800 0.14589400
v -0.05139000 -0.07084800 0.14589400
v -0.03877800 -0.07216100 0.14013900
v -0.02851100 -0.06699200 0.13227800
v -0.02851100 -0.06699200 0.13227800
v -0.03050400 -0.05896600 0.09670300
v -0.03050400 -0.05896600 0.09670300
v -0.04268100 -0.05008600 0.09346500
v -0.05544400 -0.07235300 0.14043600
v -0.05544400 -0.07235300 0.14043600
v -0.04579900 -0.07476800 0.13068700
v -0.04579900 -0.07476800 0.13068700
v -0.03661800 -0.07000200 0.12136300
v -0.03661800 -0.07000200 0.12136300
v -0.05156200 -0.03790800 0.09670300
v -0.05156200 -0.03790800 0.09670300
v -0.05476500 -0.02569600 0.10554800
v -0.06096000 -0.07090700 0.13644100
v -0.05535300 -0.07226200 0.12376700
v -0.05535300 -0.07226200 0.12376700
v -0.04765000 -0.06710800 0.11337300
v -0.04765000 -0.06710800 0.11337300
v -0.05143300 -0.01672100 0.11763100
v -0.04245800 -0.01338900 0.12971400
v -0.06646000 -0.06689600 0.13497900
v -0.06488000 -0.06531500 0.12123400
v -0.05865100 -0.05908600 0.11044800
v -0.03024600 -0.01659200 0.13855900
v -0.03024600 -0.01659200 0.13855900
v -0.01806800 -0.02547200 0.14179700
v -0.07047100 -0.06139500 0.13644100
v -0.07182700 -0.05578800 0.12376700
v -0.07182700 -0.05578800 0.12376700
v -0.06667300 -0.04808600 0.11337300
v -0.06667300 -0.04808600 0.11337300
v -0.03522700 -0.03566200 0.15644400
v -0.03522700 -0.03566200 0.15644400
v -0.04740500 -0.02678200 0.15320600
v -0.04740500 -0.02678200 0.15320600
v -0.04740500 -0.02678200 0.15320600
v -0.07191800 -0.05587900 0.14043600
v -0.07191800 -0.05587900 0.14043600
v -0.07433300 -0.04623400 0.13068600
v -0.07433300 -0.04623400 0.13068600
v -0.06956700 -0.03705300 0.12136300
v -0.06956700 -0.03705300 0.12136300
v -0.05961700 -0.02357900 0.14436100
v -0.05961700 -0.02357900 0.14436100
v -0.06859200 -0.02691100 0.13227800
v -0.06859200 -0.02691100 0.13227800
v -0.07041300 -0.05182600 0.14589400
v -0.07041300 -0.05182600 0.14589400
v -0.07172600 -0.03921300 0.14013900
v -0.06655700 -0.02894600 0.13227800
v -0.06655700 -0.02894600 0.13227800
v -0.07192400 -0.03588600 0.12019500
v -0.07192400 -0.03588600 0.12019500
v -0.06872100 -0.04809800 0.11135000
v -0.06872100 -0.04809800 0.11135000
v -0.06872100 -0.04809800 0.11135000
v -0.06636000 -0.05032100 0.15135100
v -0.06636000 -0.05032100 0.15135100
v -0.06636000 -0.05032100 0.15135100
v -0.06470500 -0.03660600 0.14959200
v -0.06470500 -0.03660600 0.14959200
v -0.05844900 -0.02593600 0.14319300
v -0.05844900 -0.02593600 0.14319300
v -0.05844900 -0.02593600 0.14319300
v -0.05984100 -0.06027600 0.10811200
v -0.05984100 -0.06027600 0.10811200
v -0.04766300 -0.06915600 0.11135000
v -0.04766300 -0.06915600 0.11135000
v -0.04766300 -0.06915600 0.11135000
v -0.06084400 -0.05176700 0.15534600
v -0.05515100 -0.03911200 0.15651100
v -0.04741700 -0.02883000 0.15118300
v -0.04741700 -0.02883000 0.15118300
v -0.03545000 -0.07235900 0.12019500
v -0.03545000 -0.07235900 0.12019500
v -0.02647600 -0.06902700 0.13227800
v -0.02647600 -0.06902700 0.13227800
v -0.05534300 -0.05577800 0.15680900
v -0.04562400 -0.04605900 0.15904400
v -0.03641600 -0.03685200 0.15410800
v -0.03641600 -0.03685200 0.15410800
v -0.02314300 -0.06005200 0.14436100
v -0.02314300 -0.06005200 0.14436100
v -0.02634700 -0.04784000 0.15320600
v -0.02634700 -0.04784000 0.15320600
v -0.02634700 -0.04784000 0.15320600
v -0.05692600 -0.05704500 0.08674900
v -0.05692600 -0.05704500 0.08674900
v -0.02089100 -0.07785000 0.08674900
v -0.02089100 -0.07785000 0.08674900
v -0.02089100 -0.07785000 0.08674900
v 0.02071900 -0.07785000 0.08674900
v 0.02071900 -0.07785000 0.08674900
v 0.05675400 -0.05704500 0.08674900
v 0.05675400 -0.05704500 0.08674900
v 0.07755900 -0.02101000 0.08674900
v 0.07755900 -0.02101000 0.08674900
v 0.07755900 -0.02101000 0.08674900
v 0.07755900 0.02060000 0.08674900
v 0.07755900 0.02060000 0.08674900
v 0.05675400 0.05663500 0.08674900
v 0.05675400 0.05663500 0.08674900
v 0.02071900 0.07744000 0.08674900
v 0.02071900 0.07744000 0.08674900
v 0.02071900 0.07744000 0.08674900
v -0.02089100 0.07744000 0.08674900
v -0.02089100 0.07744000 0.08674900
v -0.05692600 0.05663500 0.08674900
v -0.05692600 0.05663500 0.08674900
v -0.07773100 0.02060000 0.08674900
v -0.07773100 0.02060000 0.08674900
v -0.07773100 0.02060000 0.08674900
v -0.07773100 -0.02100900 0.08674900
v -0.07773100 -0.02100900 0.08674900
v -0.06146100 -0.06157900 0.10047500
v -0.06146100 -0.06157900 0.10047500
v -0.02255000 -0.08404400 0.10047500
v -0.02255000 -0.08404400 0.10047500
v -0.02255000 -0.08404400 0.10047500
v -0.02255000 -0.08404400 0.10047500
v 0.02237900 -0.08404400 0.10047500
v 0.02237900 -0.08404400 0.10047500
v 0.02237900 -0.08404400 0.10047500
v 0.06128900 -0.06157900 0.10047500
v 0.06128900 -0.06157900 0.10047500
v 0.08375400 -0.02266900 0.10047500
v 0.08375400 -0.02266900 0.10047500
v 0.08375400 -0.02266900 0.10047500
v 0.08375400 -0.02266900 0.10047500
v 0.08375400 0.02226000 0.10047500
v 0.08375400 0.02226000 0.10047500
v 0.08375400 0.02226000 0.10047500
v 0.06128900 0.06117000 0.10047500
v 0.06128900 0.06117000 0.10047500
v 0.02237900 0.08363500 0.10047500
v 0.02237900 0.08363500 0.10047500
v 0.02237900 0.08363500 0.10047500
v 0.02237900 0.08363500 0.10047500
v -0.02255000 0.08363500 0.10047500
v -0.02255000 0.08363500 0.10047500
v -0.02255000 0.08363500 0.10047500
v -0.06146100 0.06117000 0.10047500
v -0.06146100 0.06117000 0.10047500
v -0.08392500 0.02226000 0.10047500
v -0.08392500 0.02226000 0.10047500
v -0.08392500 0.02226000 0.10047500
v -0.08392500 0.02226000 0.10047500
v -0.08392500 -0.02266900 0.10047500
v -0.08392500 -0.02266900 0.10047500
v -0.08392500 -0.02266900 0.10047500
v -0.03161700 -0.03173600 0.15349800
v -0.03161700 -0.03173600 0.15349800
v -0.01162700 -0.04327700 0.15349800
v -0.01162700 -0.04327700 0.15349800
v -0.01162700 -0.04327700 0.15349800
v 0.01145500 -0.04327700 0.15349800
v 0.01145500 -0.04327700 0.15349800
v 0.01145500 -0.04327700 0.15349800
v 0.03144500 -0.03173600 0.15349800
v 0.03144500 -0.03173600 0.15349800
v 0.04298600 -0.01174600 0.15349800
v 0.04298600 -0.01174600 0.15349800
v 0.04298600 -0.01174600 0.15349800
v 0.04298600 0.01133700 0.15349800
v 0.04298600 0.01133700 0.15349800
v 0.04298600 0.01133700 0.15349800
v 0.03144500 0.03132600 0.15349800
v 0.03144500 0.03132600 0.15349800
v 0.01145500 0.04286800 0.15349800
v 0.01145500 0.04286800 0.15349800
v 0.01145500 0.04286800 0.15349800
v -0.01162700 0.04286800 0.15349800
v -0.01162700 0.04286800 0.15349800
v -0.01162700 0.04286800 0.15349800
v -0.03161700 0.03132600 0.15349800
v -0.03161700 0.03132600 0.15349800
v -0.04315800 0.01133700 0.15349800
v -0.04315800 0.01133700 0.15349800
v -0.04315800 0.01133700 0.15349800
v -0.04315800 -0.01174600 0.15349800
v -0.04315800 -0.01174600 0.15349800
v -0.04315800 -0.01174600 0.15349800
v 0.05141100 0.06037500 0.15545900
v 0.03875600 0.05468300 0.15662400
v 0.02847400 0.04694900 0.15129600
v 0.02847400 0.04694900 0.15129600
v 0.00954100 0.03684600 0.13889000
v 0.00954100 0.03684600 0.13889000
v 0.00633700 0.04905800 0.13004400
v 0.06304900 0.06250200 0.14811300
v 0.06304900 0.06250200 0.14811300
v 0.04996500 0.06589100 0.15146400
v 0.04996500 0.06589100 0.15146400
v 0.04996500 0.06589100 0.15146400
v 0.03625000 0.06423700 0.14970400
v 0.03625000 0.06423700 0.14970400
v 0.02558000 0.05798100 0.14330600
v 0.02558000 0.05798100 0.14330600
v 0.02558000 0.05798100 0.14330600
v 0.00967000 0.05803300 0.11796200
v 0.01864400 0.06136500 0.10587900
v 0.05147000 0.06994500 0.14600700
v 0.05147000 0.06994500 0.14600700
v 0.03885700 0.07125800 0.14025200
v 0.02859000 0.06608800 0.13239100
v 0.02859000 0.06608800 0.13239100
v 0.03085700 0.05816200 0.09703400
v 0.03085700 0.05816200 0.09703400
v 0.04303500 0.04928200 0.09379600
v 0.05552300 0.07145000 0.14054900
v 0.05552300 0.07145000 0.14054900
v 0.04587800 0.07386500 0.13079900
v 0.04587800 0.07386500 0.13079900
v 0.03669700 0.06909900 0.12147600
v 0.03669700 0.06909900 0.12147600
v 0.05191500 0.03710400 0.09703400
v 0.05191500 0.03710400 0.09703400
v 0.05511800 0.02489100 0.10587900
v 0.06103900 0.07000300 0.13655400
v 0.05543200 0.07135900 0.12387900
v 0.05543200 0.07135900 0.12387900
v 0.04773000 0.06620500 0.11348600
v 0.04773000 0.06620500 0.11348600
v 0.05178600 0.01591700 0.11796200
v 0.04281100 0.01258400 0.13004400
v 0.06654000 0.06599200 0.13509200
v 0.06495900 0.06441200 0.12134700
v 0.05873000 0.05818300 0.11056100
v 0.03059900 0.01578800 0.13889000
v 0.03059900 0.01578800 0.13889000
v 0.01842100 0.02466800 0.14212700
v 0.07055100 0.06049200 0.13655400
v 0.07190600 0.05488500 0.12387900
v 0.07190600 0.05488500 0.12387900
v 0.06675200 0.04718200 0.11348600
v 0.06675200 0.04718200 0.11348600
v 0.03530600 0.03475900 0.15655600
v 0.03530600 0.03475900 0.15655600
v 0.04748400 0.02587800 0.15331900
v 0.04748400 0.02587800 0.15331900
v 0.04748400 0.02587800 0.15331900
v 0.07199700 0.05497600 0.14054900
v 0.07199700 0.05497600 0.14054900
v 0.07441200 0.04533100 0.13079900
v 0.07441200 0.04533100 0.13079900
v 0.06964600 0.03615000 0.12147600
v 0.06964600 0.03615000 0.12147600
v 0.05969600 0.02267500 0.14447300
v 0.05969600 0.02267500 0.14447300
v 0.06867100 0.02600700 0.13239100
v 0.06867100 0.02600700 0.13239100
v 0.07049200 0.05092200 0.14600700
v 0.07049200 0.05092200 0.14600700
v 0.07180500 0.03830900 0.14025200
v 0.06663600 0.02804300 0.13239100
v 0.06663600 0.02804300 0.13239100
v 0.07200300 0.03498200 0.12030800
v 0.07200300 0.03498200 0.12030800
v 0.06880000 0.04719500 0.11146300
v 0.06880000 0.04719500 0.11146300
v 0.06880000 0.04719500 0.11146300
v 0.06643900 0.04941700 0.15146400
v 0.06643900 0.04941700 0.15146400
v 0.06643900 0.04941700 0.15146400
v 0.06478400 0.03570300 0.14970400
v 0.06478400 0.03570300 0.14970400
v 0.05852800 0.02503300 0.14330600
v 0.05852800 0.02503300 0.14330600
v 0.05852800 0.02503300 0.14330600
v 0.05992000 0.05937300 0.10822500
v 0.05992000 0.05937300 0.10822500
v 0.04774200 0.06825300 0.11146300
v 0.04774200 0.06825300 0.11146300
v 0.04774200 0.06825300 0.11146300
v 0.06092300 0.05086400 0.15545900
v 0.05523000 0.03820900 0.15662400
v 0.04749600 0.02792600 0.15129600
v 0.04749600 0.02792600 0.15129600
v 0.03553000 0.07145600 0.12030800
v 0.03553000 0.07145600 0.12030800
v 0.02655500 0.06812400 0.13239100
v 0.02655500 0.06812400 0.13239100
v 0.05542200 0.05487500 0.15692200
v 0.04570300 0.04515600 0.15915700
v 0.03649600 0.03594800 0.15422100
v 0.03649600 0.03594800 0.15422100
v 0.02322300 0.05914900 0.14447300
v 0.02322300 0.05914900 0.14447300
v 0.02642600 0.04693700 0.15331900
v 0.02642600 0.04693700 0.15331900
v 0.02642600 0.04693700 0.15331900
vn 0.48390000 -0.10850000 0.86830000
vn 0.27300000 0.34640000 0.89750000
vn 0.48170000 -0.10210000 0.87040000
vn 0.48170000 -0.10210000 0.87040000
vn 0.06620000 0.67280000 0.73690000
vn 0.06620000 0.67280000 0.73690000
vn 0.50300000 0.71900000 0.47960000
vn 0.57380000 -0.57380000 0.58440000
vn 0.57380000 -0.57380000 0.58440000
vn 0.70170000 -0.05140000 0.71070000
vn 0.70170000 -0.05140000 0.71070000
vn 0.70170000 -0.05140000 0.71070000
vn 0.63220000 0.44070000 0.63730000
vn 0.63220000 0.44070000 0.63730000
vn 0.70190000 -0.04430000 0.71090000
vn 0.70190000 -0.04430000 0.71090000
vn 0.70190000 -0.04430000 0.71090000
vn 0.80430000 0.58440000 0.10800000
vn 0.90700000 0.30710000 -0.28830000
vn 0.86160000 -0.11080000 0.49530000
vn 0.86160000 -0.11080000 0.49530000
vn 0.89620000 0.34270000 0.28190000
vn 0.86370000 -0.10440000 0.49300000
vn 0.86370000 -0.10440000 0.49300000
vn 0.78380000 -0.05180000 -0.61880000
vn 0.78380000 -0.05180000 -0.61880000
vn 0.45060000 -0.40650000 -0.79480000
vn 0.92100000 -0.27080000 0.27990000
vn 0.92100000 -0.27080000 0.27990000
vn 0.99420000 0.07870000 -0.07350000
vn 0.99420000 0.07870000 -0.07350000
vn 0.92380000 -0.26620000 0.27520000
vn 0.92380000 -0.26620000 0.27520000
vn -0.01330000 -0.65580000 -0.75480000
vn -0.01330000 -0.65580000 -0.75480000
vn -0.47470000 -0.72200000 -0.50330000
vn 0.86390000 -0.48850000 0.12220000
vn 0.90000000 -0.28060000 -0.33370000
vn 0.90000000 -0.28060000 -0.33370000
vn 0.86610000 -0.48640000 0.11570000
vn 0.86610000 -0.48640000 0.11570000
vn -0.80140000 -0.58730000 -0.11340000
vn -0.90630000 -0.29060000 0.30700000
vn 0.70560000 -0.70560000 0.06450000
vn 0.63880000 -0.63880000 -0.42890000
vn 0.70590000 -0.70590000 0.05730000
vn -0.75950000 0.08870000 0.64450000
vn -0.75950000 0.08870000 0.64450000
vn -0.39950000 0.44400000 0.80210000
vn 0.48850000 -0.86390000 0.12220000
vn 0.28060000 -0.90000000 -0.33370000
vn 0.28060000 -0.90000000 -0.33370000
vn 0.48640000 -0.86610000 0.11570000
vn 0.48640000 -0.86610000 0.11570000
vn 0.03570000 -0.06940000 0.99700000
vn 0.03570000 -0.06940000 0.99700000
vn -0.22320000 -0.36170000 0.90520000
vn -0.22320000 -0.36170000 0.90520000
vn -0.22320000 -0.36170000 0.90520000
vn 0.27080000 -0.92100000 0.27990000
vn 0.27080000 -0.92100000 0.27990000
vn -0.07870000 -0.99420000 -0.07350000
vn -0.07870000 -0.99420000 -0.07350000
vn 0.26620000 -0.92380000 0.27520000
vn 0.26620000 -0.92380000 0.27520000
vn -0.32740000 -0.67190000 0.66430000
vn -0.32740000 -0.67190000 0.66430000
vn -0.24370000 -0.90770000 0.34150000
vn -0.24370000 -0.90770000 0.34150000
vn 0.11080000 -0.86160000 0.49530000
vn 0.11080000 -0.86160000 0.49530000
vn -0.34270000 -0.89620000 0.28190000
vn 0.10440000 -0.86370000 0.49300000
vn 0.10440000 -0.86370000 0.49300000
vn 0.00380000 -0.99950000 0.03050000
vn 0.00380000 -0.99950000 0.03050000
vn 0.34210000 -0.92270000 -0.17750000
vn 0.34210000 -0.92270000 -0.17750000
vn 0.34210000 -0.92270000 -0.17750000
vn 0.05140000 -0.70170000 0.71070000
vn 0.05140000 -0.70170000 0.71070000
vn 0.05140000 -0.70170000 0.71070000
vn -0.44070000 -0.63220000 0.63730000
vn -0.44070000 -0.63220000 0.63730000
vn 0.04430000 -0.70190000 0.71090000
vn 0.04430000 -0.70190000 0.71090000
vn 0.04430000 -0.70190000 0.71090000
vn 0.67200000 -0.70550000 -0.22520000
vn 0.67200000 -0.70550000 -0.22520000
vn 0.90270000 -0.41640000 -0.10840000
vn 0.90270000 -0.41640000 -0.10840000
vn 0.90270000 -0.41640000 -0.10840000
vn 0.10850000 -0.48390000 0.86830000
vn -0.34640000 -0.27300000 0.89750000
vn 0.10210000 -0.48170000 0.87040000
vn 0.10210000 -0.48170000 0.87040000
vn 0.98240000 -0.13470000 0.12930000
vn 0.98240000 -0.13470000 0.12930000
vn 0.90250000 0.07590000 0.42400000
vn 0.90250000 0.07590000 0.42400000
vn 0.26680000 -0.26680000 0.92610000
vn -0.08520000 0.08520000 0.99270000
vn 0.26220000 -0.26220000 0.92870000
vn 0.26220000 -0.26220000 0.92870000
vn 0.68320000 0.17100000 0.71000000
vn 0.68320000 0.17100000 0.71000000
vn 0.36930000 0.12270000 0.92120000
vn 0.36930000 0.12270000 0.92120000
vn 0.36930000 0.12270000 0.92120000
vn -0.48390000 0.10850000 0.86830000
vn -0.27300000 -0.34640000 0.89750000
vn -0.48170000 0.10210000 0.87040000
vn -0.48170000 0.10210000 0.87040000
vn -0.06180000 -0.67480000 0.73540000
vn -0.06180000 -0.67480000 0.73540000
vn -0.49660000 -0.72630000 0.47520000
vn -0.57380000 0.57380000 0.58440000
vn -0.57380000 0.57380000 0.58440000
vn -0.70170000 0.05140000 0.71070000
vn -0.70170000 0.05140000 0.71070000
vn -0.70170000 0.05140000 0.71070000
vn -0.63220000 -0.44070000 0.63730000
vn -0.63220000 -0.44070000 0.63730000
vn -0.70190000 0.04430000 0.71090000
vn -0.70190000 0.04430000 0.71090000
vn -0.70190000 0.04430000 0.71090000
vn -0.79810000 -0.59410000 0.10060000
vn -0.90110000 -0.31550000 -0.29760000
vn -0.86160000 0.11080000 0.49530000
vn -0.86160000 0.11080000 0.49530000
vn -0.89620000 -0.34270000 0.28190000
vn -0.86370000 0.10440000 0.49300000
vn -0.86370000 0.10440000 0.49300000
vn -0.77800000 0.04700000 -0.62650000
vn -0.77800000 0.04700000 -0.62650000
vn -0.44650000 0.40550000 -0.79760000
vn -0.92100000 0.27080000 0.27990000
vn -0.92100000 0.27080000 0.27990000
vn -0.99420000 -0.07870000 -0.07350000
vn -0.99420000 -0.07870000 -0.07350000
vn -0.92380000 0.26620000 0.27520000
vn -0.92380000 0.26620000 0.27520000
vn 0.01340000 0.65870000 -0.75230000
vn 0.01340000 0.65870000 -0.75230000
vn 0.47090000 0.72880000 -0.49700000
vn -0.86390000 0.48850000 0.12220000
vn -0.90000000 0.28060000 -0.33370000
vn -0.90000000 0.28060000 -0.33370000
vn -0.86610000 0.48640000 0.11570000
vn -0.86610000 0.48640000 0.11570000
vn 0.79570000 0.59650000 -0.10510000
vn 0.90040000 0.29970000 0.31540000
vn -0.70560000 0.70560000 0.06450000
vn -0.63880000 0.63880000 -0.42890000
vn -0.70590000 0.70590000 0.05730000
vn 0.75540000 -0.08170000 0.65010000
vn 0.75540000 -0.08170000 0.65010000
vn 0.39950000 -0.44080000 0.80380000
vn -0.48850000 0.86390000 0.12220000
vn -0.28060000 0.90000000 -0.33370000
vn -0.28060000 0.90000000 -0.33370000
vn -0.48640000 0.86610000 0.11570000
vn -0.48640000 0.86610000 0.11570000
vn -0.03850000 0.06980000 0.99680000
vn -0.03850000 0.06980000 0.99680000
vn 0.21810000 0.36310000 0.90590000
vn 0.21810000 0.36310000 0.90590000
vn 0.21810000 0.36310000 0.90590000
vn -0.27080000 0.92100000 0.27990000
vn -0.27080000 0.92100000 0.27990000
vn 0.07870000 0.99420000 -0.07350000
vn 0.07870000 0.99420000 -0.07350000
vn -0.26620000 0.92380000 0.27520000
vn -0.26620000 0.92380000 0.27520000
vn 0.32110000 0.67310000 0.66620000
vn 0.32110000 0.67310000 0.66620000
vn 0.23780000 0.90830000 0.34420000
vn 0.23780000 0.90830000 0.34420000
vn -0.11080000 0.86160000 0.49530000
vn -0.11080000 0.86160000 0.49530000
vn 0.34270000 0.89620000 0.28190000
vn -0.10440000 0.86370000 0.49300000
vn -0.10440000 0.86370000 0.49300000
vn -0.00830000 0.99940000 0.03320000
vn -0.00830000 0.99940000 0.03320000
vn -0.34450000 0.92210000 -0.17630000
vn -0.34450000 0.92210000 -0.17630000
vn -0.34450000 0.92210000 -0.17630000
vn -0.05140000 0.70170000 0.71070000
vn -0.05140000 0.70170000 0.71070000
vn -0.05140000 0.70170000 0.71070000
vn 0.44070000 0.63220000 0.63730000
vn 0.44070000 0.63220000 0.63730000
vn -0.04430000 0.70190000 0.71090000
vn -0.04430000 0.70190000 0.71090000
vn -0.04430000 0.70190000 0.71090000
vn -0.67300000 0.70410000 -0.22660000
vn -0.67300000 0.70410000 -0.22660000
vn -0.90360000 0.41350000 -0.11230000
vn -0.90360000 0.41350000 -0.11230000
vn -0.90360000 0.41350000 -0.11230000
vn -0.10850000 0.48390000 0.86830000
vn 0.34640000 0.27300000 0.89750000
vn -0.10210000 0.48170000 0.87040000
vn -0.10210000 0.48170000 0.87040000
vn -0.98370000 0.12960000 0.12480000
vn -0.98370000 0.12960000 0.12480000
vn -0.90340000 -0.08200000 0.42080000
vn -0.90340000 -0.08200000 0.42080000
vn -0.26680000 0.26680000 0.92610000
vn 0.08520000 -0.08520000 0.99270000
vn -0.26220000 0.26220000 0.92870000
vn -0.26220000 0.26220000 0.92870000
vn -0.68340000 -0.17590000 0.70850000
vn -0.68340000 -0.17590000 0.70850000
vn -0.37000000 -0.12470000 0.92060000
vn -0.37000000 -0.12470000 0.92060000
vn -0.37000000 -0.12470000 0.92060000
vn -0.10850000 -0.48390000 0.86830000
vn 0.34640000 -0.27300000 0.89750000
vn -0.10210000 -0.48170000 0.87040000
vn -0.10210000 -0.48170000 0.87040000
vn 0.67120000 -0.06950000 0.73800000
vn 0.67120000 -0.06950000 0.73800000
vn 0.71360000 -0.50770000 0.48280000
vn -0.57380000 -0.57380000 0.58440000
vn -0.57380000 -0.57380000 0.58440000
vn -0.05140000 -0.70170000 0.71070000
vn -0.05140000 -0.70170000 0.71070000
vn -0.05140000 -0.70170000 0.71070000
vn 0.44070000 -0.63220000 0.63730000
vn 0.44070000 -0.63220000 0.63730000
vn -0.04430000 -0.70190000 0.71090000
vn -0.04430000 -0.70190000 0.71090000
vn -0.04430000 -0.70190000 0.71090000
vn 0.57710000 -0.80870000 0.11350000
vn 0.30080000 -0.91120000 -0.28150000
vn -0.11080000 -0.86160000 0.49530000
vn -0.11080000 -0.86160000 0.49530000
vn 0.34270000 -0.89620000 0.28190000
vn -0.10440000 -0.86370000 0.49300000
vn -0.10440000 -0.86370000 0.49300000
vn -0.05540000 -0.78800000 -0.61310000
vn -0.05540000 -0.78800000 -0.61310000
vn -0.40730000 -0.45360000 -0.79270000
vn -0.27080000 -0.92100000 0.27990000
vn -0.27080000 -0.92100000 0.27990000
vn 0.07870000 -0.99420000 -0.07350000
vn 0.07870000 -0.99420000 -0.07350000
vn -0.26620000 -0.92380000 0.27520000
vn -0.26620000 -0.92380000 0.27520000
vn -0.65370000 0.01310000 -0.75670000
vn -0.65370000 0.01310000 -0.75670000
vn -0.71700000 0.47740000 -0.50790000
vn -0.48850000 -0.86390000 0.12220000
vn -0.28060000 -0.90000000 -0.33370000
vn -0.28060000 -0.90000000 -0.33370000
vn -0.48640000 -0.86610000 0.11570000
vn -0.48640000 -0.86610000 0.11570000
vn -0.58040000 0.80550000 -0.11960000
vn -0.28390000 0.91040000 0.30090000
vn -0.70560000 -0.70560000 0.06450000
vn -0.63880000 -0.63880000 -0.42890000
vn -0.70590000 -0.70590000 0.05730000
vn 0.09370000 0.76240000 0.64020000
vn 0.09370000 0.76240000 0.64020000
vn 0.44630000 0.39940000 0.80080000
vn -0.86390000 -0.48850000 0.12220000
vn -0.90000000 -0.28060000 -0.33370000
vn -0.90000000 -0.28060000 -0.33370000
vn -0.86610000 -0.48640000 0.11570000
vn -0.86610000 -0.48640000 0.11570000
vn -0.06910000 -0.03360000 0.99700000
vn -0.06910000 -0.03360000 0.99700000
vn -0.36080000 0.22700000 0.90460000
vn -0.36080000 0.22700000 0.90460000
vn -0.36080000 0.22700000 0.90460000
vn -0.92100000 -0.27080000 0.27990000
vn -0.92100000 -0.27080000 0.27990000
vn -0.99420000 0.07870000 -0.07350000
vn -0.99420000 0.07870000 -0.07350000
vn -0.92380000 -0.26620000 0.27520000
vn -0.92380000 -0.26620000 0.27520000
vn -0.67110000 0.33200000 0.66290000
vn -0.67110000 0.33200000 0.66290000
vn -0.90730000 0.24810000 0.33940000
vn -0.90730000 0.24810000 0.33940000
vn -0.86160000 -0.11080000 0.49530000
vn -0.86160000 -0.11080000 0.49530000
vn -0.89620000 0.34270000 0.28190000
vn -0.86370000 -0.10440000 0.49300000
vn -0.86370000 -0.10440000 0.49300000
vn -0.99960000 -0.00050000 0.02850000
vn -0.99960000 -0.00050000 0.02850000
vn -0.92320000 -0.34030000 -0.17850000
vn -0.92320000 -0.34030000 -0.17850000
vn -0.92320000 -0.34030000 -0.17850000
vn -0.70170000 -0.05140000 0.71070000
vn -0.70170000 -0.05140000 0.71070000
vn -0.70170000 -0.05140000 0.71070000
vn -0.63220000 0.44070000 0.63730000
vn -0.63220000 0.44070000 0.63730000
vn -0.70190000 -0.04430000 0.71090000
vn -0.70190000 -0.04430000 0.71090000
vn -0.70190000 -0.04430000 0.71090000
vn -0.70650000 -0.67130000 -0.22420000
vn -0.70650000 -0.67130000 -0.22420000
vn -0.41860000 -0.90200000 -0.10550000
vn -0.41860000 -0.90200000 -0.10550000
vn -0.41860000 -0.90200000 -0.10550000
vn -0.48390000 -0.10850000 0.86830000
vn -0.27300000 0.34640000 0.89750000
vn -0.48170000 -0.10210000 0.87040000
vn -0.48170000 -0.10210000 0.87040000
vn -0.13840000 -0.98150000 0.13270000
vn -0.13840000 -0.98150000 0.13270000
vn 0.07140000 -0.90180000 0.42630000
vn 0.07140000 -0.90180000 0.42630000
vn -0.26680000 -0.26680000 0.92610000
vn 0.08520000 0.08520000 0.99270000
vn -0.26220000 -0.26220000 0.92870000
vn -0.26220000 -0.26220000 0.92870000
vn 0.16740000 -0.68300000 0.71100000
vn 0.16740000 -0.68300000 0.71100000
vn 0.12110000 -0.36870000 0.92160000
vn 0.12110000 -0.36870000 0.92160000
vn 0.12110000 -0.36870000 0.92160000
vn -0.64060000 -0.64060000 -0.42330000
vn -0.00000000 -0.00000000 -1.00000000
vn -0.00000000 -0.00000000 -1.00000000
vn -0.23450000 -0.87510000 -0.42330000
vn -0.23450000 -0.87510000 -0.42330000
vn -0.00000000 -0.00000000 -1.00000000
vn 0.23450000 -0.87510000 -0.42330000
vn 0.64060000 -0.64060000 -0.42330000
vn -0.00000000 -0.00000000 -1.00000000
vn 0.87510000 -0.23450000 -0.42330000
vn 0.87510000 -0.23450000 -0.42330000
vn -0.00000000 -0.00000000 -1.00000000
vn -0.00000000 -0.00000000 -1.00000000
vn 0.87510000 0.23450000 -0.42330000
vn -0.00000000 -0.00000000 -1.00000000
vn 0.64060000 0.64060000 -0.42330000
vn -0.00000000 -0.00000000 -1.00000000
vn 0.23450000 0.87510000 -0.42330000
vn 0.23450000 0.87510000 -0.42330000
vn -0.00000000 -0.00000000 -1.00000000
vn -0.23450000 0.87510000 -0.42330000
vn -0.64060000 0.64060000 -0.42330000
vn -0.00000000 -0.00000000 -1.00000000
vn -0.87510000 0.23450000 -0.42330000
vn -0.87510000 0.23450000 -0.42330000
vn -0.00000000 -0.00000000 -1.00000000
vn -0.87510000 -0.23450000 -0.42330000
vn -0.00000000 -0.00000000 -1.00000000
vn -0.55320000 -0.55320000 0.62280000
vn -0.64060000 -0.64060000 -0.42330000
vn -0.23450000 -0.87510000 -0.42330000
vn -0.20250000 -0.75570000 0.62280000
vn -0.23450000 -0.87510000 -0.42330000
vn -0.20250000 -0.75570000 0.62280000
vn 0.20250000 -0.75570000 0.62280000
vn 0.20250000 -0.75570000 0.62280000
vn 0.23450000 -0.87510000 -0.42330000
vn 0.55320000 -0.55320000 0.62280000
vn 0.64060000 -0.64060000 -0.42330000
vn 0.87510000 -0.23450000 -0.42330000
vn 0.75570000 -0.20250000 0.62280000
vn 0.75570000 -0.20250000 0.62280000
vn 0.87510000 -0.23450000 -0.42330000
vn 0.87510000 0.23450000 -0.42330000
vn 0.75570000 0.20250000 0.62280000
vn 0.75570000 0.20250000 0.62280000
vn 0.55320000 0.55320000 0.62280000
vn 0.64060000 0.64060000 -0.42330000
vn 0.23450000 0.87510000 -0.42330000
vn 0.20250000 0.75570000 0.62280000
vn 0.23450000 0.87510000 -0.42330000
vn 0.20250000 0.75570000 0.62280000
vn -0.23450000 0.87510000 -0.42330000
vn -0.20250000 0.75570000 0.62280000
vn -0.20250000 0.75570000 0.62280000
vn -0.55320000 0.55320000 0.62280000
vn -0.64060000 0.64060000 -0.42330000
vn -0.75570000 0.20250000 0.62280000
vn -0.75570000 0.20250000 0.62280000
vn -0.87510000 0.23450000 -0.42330000
vn -0.87510000 0.23450000 -0.42330000
vn -0.75570000 -0.20250000 0.62280000
vn -0.87510000 -0.23450000 -0.42330000
vn -0.75570000 -0.20250000 0.62280000
vn -0.00000000 -0.00000000 1.00000000
vn -0.55320000 -0.55320000 0.62280000
vn -0.20250000 -0.75570000 0.62280000
vn -0.20250000 -0.75570000 0.62280000
vn -0.00000000 -0.00000000 1.00000000
vn 0.20250000 -0.75570000 0.62280000
vn 0.20250000 -0.75570000 0.62280000
vn -0.00000000 -0.00000000 1.00000000
vn -0.00000000 -0.00000000 1.00000000
vn 0.55320000 -0.55320000 0.62280000
vn -0.00000000 -0.00000000 1.00000000
vn 0.75570000 -0.20250000 0.62280000
vn 0.75570000 -0.20250000 0.62280000
vn 0.75570000 0.20250000 0.62280000
vn 0.75570000 0.20250000 0.62280000
vn -0.00000000 -0.00000000 1.00000000
vn -0.00000000 -0.00000000 1.00000000
vn 0.55320000 0.55320000 0.62280000
vn -0.00000000 -0.00000000 1.00000000
vn 0.20250000 0.75570000 0.62280000
vn 0.20250000 0.75570000 0.62280000
vn -0.20250000 0.75570000 0.62280000
vn -0.20250000 0.75570000 0.62280000
vn -0.00000000 -0.00000000 1.00000000
vn -0.55320000 0.55320000 0.62280000
vn -0.00000000 -0.00000000 1.00000000
vn -0.75570000 0.20250000 0.62280000
vn -0.75570000 0.20250000 0.62280000
vn -0.00000000 -0.00000000 1.00000000
vn -0.00000000 -0.00000000 1.00000000
vn -0.75570000 -0.20250000 0.62280000
vn -0.75570000 -0.20250000 0.62280000
vn 0.10850000 0.48390000 0.86830000
vn -0.34640000 0.27300000 0.89750000
vn 0.10210000 0.48170000 0.87040000
vn 0.10210000 0.48170000 0.87040000
vn -0.67150000 0.06880000 0.73780000
vn -0.67150000 0.06880000 0.73780000
vn -0.71480000 0.50660000 0.48210000
vn 0.57380000 0.57380000 0.58440000
vn 0.57380000 0.57380000 0.58440000
vn 0.05140000 0.70170000 0.71070000
vn 0.05140000 0.70170000 0.71070000
vn 0.05140000 0.70170000 0.71070000
vn -0.44070000 0.63220000 0.63730000
vn -0.44070000 0.63220000 0.63730000
vn 0.04430000 0.70190000 0.71090000
vn 0.04430000 0.70190000 0.71090000
vn 0.04430000 0.70190000 0.71090000
vn -0.57870000 0.80780000 0.11230000
vn -0.30220000 0.91030000 -0.28300000
vn 0.11080000 0.86160000 0.49530000
vn 0.11080000 0.86160000 0.49530000
vn -0.34270000 0.89620000 0.28190000
vn 0.10440000 0.86370000 0.49300000
vn 0.10440000 0.86370000 0.49300000
vn 0.05460000 0.78710000 -0.61440000
vn 0.05460000 0.78710000 -0.61440000
vn 0.40710000 0.45300000 -0.79320000
vn 0.27080000 0.92100000 0.27990000
vn 0.27080000 0.92100000 0.27990000
vn -0.07870000 0.99420000 -0.07350000
vn -0.07870000 0.99420000 -0.07350000
vn 0.26620000 0.92380000 0.27520000
vn 0.26620000 0.92380000 0.27520000
vn 0.65410000 -0.01320000 -0.75630000
vn 0.65410000 -0.01320000 -0.75630000
vn 0.71810000 -0.47680000 -0.50690000
vn 0.48850000 0.86390000 0.12220000
vn 0.28060000 0.90000000 -0.33370000
vn 0.28060000 0.90000000 -0.33370000
vn 0.48640000 0.86610000 0.11570000
vn 0.48640000 0.86610000 0.11570000
vn 0.58190000 -0.80460000 -0.11820000
vn 0.28530000 -0.90950000 0.30220000
vn 0.70560000 0.70560000 0.06450000
vn 0.63880000 0.63880000 -0.42890000
vn 0.70590000 0.70590000 0.05730000
vn -0.09260000 -0.76180000 0.64120000
vn -0.09260000 -0.76180000 0.64120000
vn -0.44580000 -0.39940000 0.80110000
vn 0.86390000 0.48850000 0.12220000
vn 0.90000000 0.28060000 -0.33370000
vn 0.90000000 0.28060000 -0.33370000
vn 0.86610000 0.48640000 0.11570000
vn 0.86610000 0.48640000 0.11570000
vn 0.06920000 0.03400000 0.99700000
vn 0.06920000 0.03400000 0.99700000
vn 0.36100000 -0.22610000 0.90470000
vn 0.36100000 -0.22610000 0.90470000
vn 0.36100000 -0.22610000 0.90470000
vn 0.92100000 0.27080000 0.27990000
vn 0.92100000 0.27080000 0.27990000
vn 0.99420000 -0.07870000 -0.07350000
vn 0.99420000 -0.07870000 -0.07350000
vn 0.92380000 0.26620000 0.27520000
vn 0.92380000 0.26620000 0.27520000
vn 0.67130000 -0.33100000 0.66320000
vn 0.67130000 -0.33100000 0.66320000
vn 0.90740000 -0.24720000 0.33990000
vn 0.90740000 -0.24720000 0.33990000
vn 0.86160000 0.11080000 0.49530000
vn 0.86160000 0.11080000 0.49530000
vn 0.89620000 -0.34270000 0.28190000
vn 0.86370000 0.10440000 0.49300000
vn 0.86370000 0.10440000 0.49300000
vn 0.99960000 0.00120000 0.02900000
vn 0.99960000 0.00120000 0.02900000
vn 0.92310000 0.34070000 -0.17830000
vn 0.92310000 0.34070000 -0.17830000
vn 0.92310000 0.34070000 -0.17830000
vn 0.70170000 0.05140000 0.71070000
vn 0.70170000 0.05140000 0.71070000
vn 0.70170000 0.05140000 0.71070000
vn 0.63220000 -0.44070000 0.63730000
vn 0.63220000 -0.44070000 0.63730000
vn 0.70190000 0.04430000 0.71090000
vn 0.70190000 0.04430000 0.71090000
vn 0.70190000 0.04430000 0.71090000
vn 0.70630000 0.67140000 -0.22440000
vn 0.70630000 0.67140000 -0.22440000
vn 0.41810000 0.90220000 -0.10610000
vn 0.41810000 0.90220000 -0.10610000
vn 0.41810000 0.90220000 -0.10610000
vn 0.48390000 0.10850000 0.86830000
vn 0.27300000 -0.34640000 0.89750000
vn 0.48170000 0.10210000 0.87040000
vn 0.48170000 0.10210000 0.87040000
vn 0.13760000 0.98170000 0.13190000
vn 0.13760000 0.98170000 0.13190000
vn -0.07240000 0.90190000 0.42580000
vn -0.07240000 0.90190000 0.42580000
vn 0.26680000 0.26680000 0.92610000
vn -0.08520000 -0.08520000 0.99270000
vn 0.26220000 0.26220000 0.92870000
vn 0.26220000 0.26220000 0.92870000
vn -0.16820000 0.68300000 0.71080000
vn -0.16820000 0.68300000 0.71080000
vn -0.12150000 0.36880000 0.92150000
vn -0.12150000 0.36880000 0.92150000
vn -0.12150000 0.36880000 0.92150000
vt 0.73870800 0.53836100
vt 0.73020100 0.54894000
vt 0.72034100 0.55677400
vt 0.39280000 0.54411400
vt 0.61171600 0.87918400
vt 0.60719300 0.68584300
vt 0.60708700 0.69660700
vt 0.74358300 0.52787000
vt 0.38646700 0.55610800
vt 0.74358300 0.54108200
vt 0.39220900 0.54572400
vt 0.85630900 0.35692600
vt 0.84658100 0.35219900
vt 0.73864500 0.55365300
vt 0.83337400 0.35046700
vt 0.38714900 0.53300900
vt 0.73009200 0.56221600
vt 0.60704800 0.71120100
vt 0.60708700 0.72571500
vt 0.85629200 0.36351800
vt 0.38731500 0.54284000
vt 0.84655000 0.36361600
vt 0.83333900 0.36365100
vt 0.37736100 0.52724100
vt 0.54293700 0.83498600
vt 0.60719300 0.73625900
vt 0.54065300 0.82043200
vt 0.85630900 0.37007300
vt 0.38166400 0.54339700
vt 0.84658100 0.37497000
vt 0.37419400 0.53323800
vt 0.83337400 0.37676200
vt 0.36605900 0.52835500
vt 0.54293700 0.80587700
vt 0.76327000 0.51138300
vt 0.76320000 0.52190300
vt 0.37677000 0.54724500
vt 0.36571800 0.53990400
vt 0.84666400 0.38322000
vt 0.35627100 0.53605200
vt 0.83347000 0.38628700
vt 0.76317500 0.53640700
vt 0.76320000 0.55101000
vt 0.37394500 0.55335500
vt 0.36082400 0.55048600
vt 0.35062000 0.54827000
vt 0.61171600 0.85007500
vt 0.76327000 0.56179800
vt 0.60943200 0.86462900
vt 0.37394500 0.56008700
vt 0.85085800 0.79948900
vt 0.36082400 0.56214700
vt 0.83767000 0.79641700
vt 0.35062000 0.56173600
vt 0.39505600 0.55807800
vt 0.62724800 0.86034100
vt 0.78553900 0.56221600
vt 0.62953200 0.84578700
vt 0.38880100 0.57160300
vt 0.86050400 0.81263500
vt 0.37677000 0.56564000
vt 0.85080300 0.80771900
vt 0.36571800 0.57176400
vt 0.35627100 0.57284100
vt 0.83760700 0.80592000
vt 0.37796600 0.58012400
vt 0.78546900 0.55142800
vt 0.36545400 0.58135700
vt 0.78544300 0.53682500
vt 0.38166400 0.56852400
vt 0.86049200 0.81918600
vt 0.85078300 0.81906600
vt 0.83758400 0.81902200
vt 0.36605900 0.57860900
vt 0.78546900 0.52232000
vt 0.35461900 0.57497200
vt 0.78553900 0.51180100
vt 0.34836300 0.56267900
vt 0.52512100 0.80158900
vt 0.86050400 0.82578200
vt 0.38731500 0.56796700
vt 0.73200800 0.52145500
vt 0.85080300 0.83049000
vt 0.71859700 0.51965900
vt 0.83760700 0.83221400
vt 0.70694200 0.52296300
vt 0.37736100 0.57749500
vt 0.34836300 0.54777200
vt 0.52283700 0.81614400
vt 0.52512100 0.83069900
vt 0.62953200 0.73574400
vt 0.35461900 0.53424700
vt 0.73202500 0.52702900
vt 0.71862600 0.52931400
vt 0.38714900 0.56979800
vt 0.70697600 0.53411100
vt 0.36545400 0.52572600
vt 0.62942600 0.72519900
vt 0.37796500 0.52449300
vt 0.62938700 0.71068500
vt 0.73447700 0.53321700
vt 0.72287300 0.54003100
vt 0.71188000 0.54648600
vt 0.39280000 0.55758000
vt 0.38880100 0.53087800
vt 0.62942600 0.69609100
vt 0.62953200 0.68532700
vt 0.62953200 0.87489600
vt 0.39505600 0.54317100
vt 0.37344700 0.71788400
vt 0.36004700 0.71560000
vt 0.34839700 0.71080300
vt 0.21255600 0.58877100
vt 0.76964400 0.01017000
vt 0.87251900 0.20203100
vt 0.76953800 0.02093300
vt 0.20622300 0.60076500
vt 0.38500500 0.71704400
vt 0.85954800 0.67920000
vt 0.37343000 0.72345800
vt 0.21196500 0.59038100
vt 0.36001800 0.72525500
vt 0.84982000 0.67447100
vt 0.34836300 0.72195100
vt 0.20690500 0.57766600
vt 0.83661400 0.67274000
vt 0.76949900 0.03552700
vt 0.76953800 0.05004100
vt 0.20707100 0.58749700
vt 0.85953100 0.68579100
vt 0.84979000 0.68588800
vt 0.83657900 0.68592300
vt 0.19711700 0.57189800
vt 0.76964400 0.06058700
vt 0.10073300 0.87464600
vt 0.09844900 0.86009200
vt 0.85954800 0.69234700
vt 0.20142000 0.58805400
vt 0.19395100 0.57789500
vt 0.84982000 0.69724300
vt 0.18581500 0.57301200
vt 0.83661400 0.69903400
vt 0.10073300 0.84553700
vt 0.80522700 0.51138300
vt 0.80515600 0.52190200
vt 0.19652700 0.59190200
vt 0.18547400 0.58456100
vt 0.84990300 0.70549300
vt 0.83670900 0.70856100
vt 0.17602700 0.58070900
vt 0.80513100 0.53640600
vt 0.80515600 0.55100900
vt 0.19370100 0.59801200
vt 0.18058000 0.59514300
vt 0.17037600 0.59292700
vt 0.80522700 0.56179800
vt 0.87251900 0.17292200
vt 0.87023500 0.18747600
vt 0.19370100 0.60474400
vt 0.18058000 0.60680400
vt 0.85085900 0.74414500
vt 0.83767100 0.74107300
vt 0.17037600 0.60639300
vt 0.88672600 0.18381000
vt 0.21481200 0.60273500
vt 0.88901000 0.16925500
vt 0.82578500 0.56211000
vt 0.20855600 0.61626000
vt 0.86050500 0.75729100
vt 0.19652700 0.61029700
vt 0.85080400 0.75237300
vt 0.18547400 0.61642100
vt 0.17602700 0.61749800
vt 0.83760800 0.75057400
vt 0.82571400 0.55132100
vt 0.19772100 0.62478100
vt 0.82568800 0.53671800
vt 0.18521000 0.62601400
vt 0.20142000 0.61318100
vt 0.86049300 0.76384200
vt 0.85078400 0.76372000
vt 0.18581500 0.62326600
vt 0.83758400 0.76367600
vt 0.17437500 0.61962900
vt 0.82571400 0.52221400
vt 0.16812000 0.60733600
vt 0.08424200 0.84187100
vt 0.82578500 0.51169500
vt 0.86050500 0.77043700
vt 0.20707100 0.61262400
vt 0.38500500 0.70383200
vt 0.38006600 0.69126000
vt 0.85080400 0.77514400
vt 0.37151300 0.68269800
vt 0.83760800 0.77686800
vt 0.19711700 0.62215200
vt 0.16812000 0.59242900
vt 0.08195800 0.85642500
vt 0.79026100 0.06019100
vt 0.17437500 0.57890400
vt 0.08424200 0.87098000
vt 0.38012900 0.70655300
vt 0.37162200 0.69597400
vt 0.36176300 0.68814000
vt 0.20690500 0.61445500
vt 0.18521000 0.57038300
vt 0.79015600 0.04964500
vt 0.19772100 0.56915000
vt 0.79011700 0.03513100
vt 0.37589900 0.71169700
vt 0.36429500 0.70488300
vt 0.35330200 0.69842700
vt 0.21255600 0.60223700
vt 0.20855600 0.57553500
vt 0.79015600 0.02053800
vt 0.88901000 0.19836500
vt 0.79026100 0.00977500
vt 0.21481200 0.58782800
vt 0.72231400 0.20444200
vt 0.70891500 0.20215800
vt 0.69726500 0.19736000
vt 0.12639400 0.59359700
vt 0.86028700 0.61569100
vt 0.72610300 0.01039100
vt 0.72599600 0.02115400
vt 0.12006200 0.60559800
vt 0.73387200 0.20360100
vt 0.72229700 0.21001600
vt 0.12580400 0.59521200
vt 0.14371900 0.80775500
vt 0.13398900 0.80302600
vt 0.70888600 0.21181200
vt 0.12074300 0.58249300
vt 0.12078300 0.80129400
vt 0.69723100 0.20850800
vt 0.72595600 0.03574700
vt 0.72599600 0.05026200
vt 0.14370100 0.81434600
vt 0.12091000 0.59232900
vt 0.13395800 0.81444300
vt 0.11095500 0.57672600
vt 0.12074700 0.81447700
vt 0.86791700 0.04370100
vt 0.72610300 0.06080800
vt 0.86563200 0.02914600
vt 0.11525900 0.59288600
vt 0.14371900 0.82090200
vt 0.10778900 0.58272700
vt 0.13398900 0.82579800
vt 0.09965300 0.57784200
vt 0.12078300 0.82758900
vt 0.86791700 0.01459200
vt 0.72605000 0.08035700
vt 0.72598100 0.09087500
vt 0.11036500 0.59673600
vt 0.09931300 0.58939400
vt 0.13407300 0.83404800
vt 0.12088000 0.83711500
vt 0.08986600 0.58554000
vt 0.72595600 0.10537800
vt 0.72598100 0.11998200
vt 0.10754000 0.60284500
vt 0.09441900 0.59997600
vt 0.08421500 0.59775900
vt 0.86028700 0.58658200
vt 0.72605000 0.13077100
vt 0.85800300 0.60113700
vt 0.10754000 0.60957800
vt 0.09441900 0.61163700
vt 0.80834700 0.83412300
vt 0.08421500 0.61122400
vt 0.79515900 0.83105100
vt 0.87694700 0.59632000
vt 0.12865000 0.60756000
vt 0.87923100 0.58176500
vt 0.74977600 0.13127800
vt 0.12239500 0.62108600
vt 0.81799300 0.84726900
vt 0.11036500 0.61512900
vt 0.09931300 0.62125300
vt 0.80829300 0.84235200
vt 0.08986600 0.62232800
vt 0.79509700 0.84055200
vt 0.11156000 0.62960800
vt 0.74970700 0.12048800
vt 0.74968200 0.10588500
vt 0.09904900 0.63084300
vt 0.81798100 0.85382000
vt 0.11525900 0.61801300
vt 0.80827300 0.85369800
vt 0.79507500 0.85365400
vt 0.09965300 0.62809500
vt 0.08821400 0.62445900
vt 0.74970700 0.09138100
vt 0.84897300 0.00977500
vt 0.74977600 0.08086300
vt 0.08195800 0.61216700
vt 0.81799300 0.86041600
vt 0.12091000 0.61745500
vt 0.73387200 0.19038900
vt 0.72893400 0.17781800
vt 0.80829300 0.86512300
vt 0.79509700 0.86684600
vt 0.72038100 0.16925500
vt 0.11095500 0.62697900
vt 0.84668900 0.02432900
vt 0.08195800 0.59726100
vt 0.84897300 0.03888400
vt 0.08821400 0.58373500
vt 0.74990800 0.06019100
vt 0.72899700 0.19311000
vt 0.72049000 0.18253100
vt 0.12074300 0.61928100
vt 0.71063000 0.17469800
vt 0.74980000 0.04964500
vt 0.09904900 0.57521300
vt 0.11156000 0.57397800
vt 0.74976100 0.03513100
vt 0.72476600 0.19825400
vt 0.71316200 0.19144000
vt 0.12639400 0.60706200
vt 0.70216900 0.18498500
vt 0.74980000 0.02053700
vt 0.12239500 0.58036200
vt 0.87923100 0.61087400
vt 0.74990800 0.00977500
vt 0.12865000 0.59265400
vt 0.49269200 0.18769100
vt 0.00979600 0.10600500
vt 0.03017600 0.14122800
vt 0.16867600 0.54417900
vt 0.49284000 0.14842700
vt 0.06547500 0.16156400
vt 0.16826900 0.51535600
vt 0.16812000 0.47604700
vt 0.10623500 0.16156400
vt 0.49325000 0.12031000
vt 0.16826900 0.43678400
vt 0.14153500 0.14122800
vt 0.16191500 0.10600500
vt 0.49284100 0.09149200
vt 0.16191500 0.06533300
vt 0.49269200 0.05218400
vt 0.14153500 0.03011000
vt 0.08251400 0.54900800
vt 0.49284100 0.01292000
vt 0.10623500 0.00977500
vt 0.08210700 0.52018400
vt 0.08195800 0.48087500
vt 0.06547500 0.00977500
vt 0.08210700 0.44161300
vt 0.49324500 0.25581700
vt 0.03017600 0.03011000
vt 0.49284000 0.22699900
vt 0.00979600 0.06533300
vt 0.50604700 0.18767800
vt 0.50604700 0.18767800
vt 0.50620700 0.14528100
vt 0.50620700 0.14528100
vt 0.18207500 0.54960100
vt 0.18150600 0.04082800
vt 0.21262700 0.00977500
vt 0.18163600 0.51847800
vt 0.18163600 0.51847800
vt 0.18147500 0.47603200
vt 0.18147500 0.47603200
vt 0.18163600 0.43363700
vt 0.29765200 0.00977500
vt 0.18163600 0.43363700
vt 0.50664900 0.12573200
vt 0.50620800 0.09461500
vt 0.32877300 0.04082800
vt 0.50620800 0.09461500
vt 0.50604600 0.05217100
vt 0.50604600 0.05217100
vt 0.09591300 0.55442900
vt 0.32877300 0.12566900
vt 0.50620800 0.00977500
vt 0.50620800 0.00977500
vt 0.09547400 0.52330600
vt 0.09547400 0.52330600
vt 0.29765200 0.15672200
vt 0.09531300 0.48086100
vt 0.09531300 0.48086100
vt 0.21262800 0.15672200
vt 0.09547400 0.43846600
vt 0.09547400 0.43846600
vt 0.50664500 0.26123900
vt 0.18150600 0.12566900
vt 0.50620700 0.23012200
vt 0.50620700 0.23012200
vt 0.21145900 0.08324800
vt 0.55856400 0.18776200
vt 0.55864600 0.16598100
vt 0.21731100 0.06145500
vt 0.21731100 0.06145500
vt 0.23407700 0.49792900
vt 0.23329900 0.04550200
vt 0.23329900 0.04550200
vt 0.25514000 0.03966200
vt 0.23399400 0.47612300
vt 0.27698000 0.04550200
vt 0.27698000 0.04550200
vt 0.23407700 0.45434300
vt 0.55865100 0.07406000
vt 0.29296900 0.06145500
vt 0.29296900 0.06145500
vt 0.29882100 0.08324800
vt 0.55856800 0.05225500
vt 0.29296900 0.10504200
vt 0.29296900 0.10504200
vt 0.55865100 0.03047400
vt 0.14791500 0.50275700
vt 0.27698000 0.12099500
vt 0.27698000 0.12099500
vt 0.14783200 0.48095100
vt 0.25514000 0.12683500
vt 0.23329900 0.12099500
vt 0.14791500 0.45917100
vt 0.23329900 0.12099500
vt 0.21731100 0.10504200
vt 0.55864600 0.20956700
vt 0.21731100 0.10504200
vt 0.57589800 0.72051400
vt 0.56249900 0.71823000
vt 0.55084900 0.71343200
vt 0.47084300 0.54409800
vt 0.21467600 0.70708000
vt 0.86275900 0.44501800
vt 0.21456800 0.71784300
vt 0.46450700 0.55609800
vt 0.58745600 0.71967300
vt 0.57588100 0.72608800
vt 0.58550000 0.80805000
vt 0.47025000 0.54571300
vt 0.57577100 0.80332100
vt 0.56247000 0.72788400
vt 0.46519200 0.53299400
vt 0.55081500 0.72458100
vt 0.56256400 0.80158900
vt 0.21452900 0.73243600
vt 0.21456800 0.74695100
vt 0.58548200 0.81464100
vt 0.46535600 0.54282900
vt 0.57574000 0.81473800
vt 0.45540300 0.52722700
vt 0.56252900 0.81477200
vt 0.87982600 0.11416200
vt 0.21467600 0.75749700
vt 0.87754200 0.09960700
vt 0.45970400 0.54338700
vt 0.58550000 0.82119700
vt 0.45223500 0.53322700
vt 0.57577100 0.82609300
vt 0.44410100 0.52834200
vt 0.56256400 0.82788400
vt 0.87982600 0.08505300
vt 0.74724200 0.58176500
vt 0.74717300 0.59228300
vt 0.45481000 0.54723600
vt 0.44375800 0.53989400
vt 0.57585500 0.83434300
vt 0.56266100 0.83741000
vt 0.43431200 0.53604000
vt 0.74714800 0.60678600
vt 0.74717300 0.62139000
vt 0.45198500 0.55334500
vt 0.43886400 0.55047600
vt 0.42866100 0.54825900
vt 0.74724200 0.63218000
vt 0.86275900 0.41590900
vt 0.86047500 0.43046400
vt 0.45198500 0.56007800
vt 0.85864900 0.51445600
vt 0.43886400 0.56213700
vt 0.84546100 0.51138300
vt 0.42866100 0.56172400
vt 0.47310000 0.55806100
vt 0.87916000 0.42576800
vt 0.46684400 0.57158700
vt 0.88144400 0.41121300
vt 0.77063400 0.63266600
vt 0.45481000 0.56563000
vt 0.86829400 0.52760200
vt 0.85859500 0.52268400
vt 0.44375800 0.57175300
vt 0.43431200 0.57282800
vt 0.84539900 0.52088500
vt 0.45600800 0.58010900
vt 0.77056500 0.62187600
vt 0.44349600 0.58134300
vt 0.77054000 0.60727300
vt 0.86828300 0.53415300
vt 0.45970400 0.56851300
vt 0.85857500 0.53403000
vt 0.84537600 0.53398600
vt 0.44410100 0.57859500
vt 0.43266000 0.57495900
vt 0.77056500 0.59276900
vt 0.77063400 0.58225100
vt 0.86114000 0.08035700
vt 0.42640400 0.56266700
vt 0.86829400 0.54074800
vt 0.58745600 0.70646100
vt 0.46535600 0.56795600
vt 0.58251800 0.69389000
vt 0.85859500 0.54545500
vt 0.84539900 0.54717800
vt 0.45540300 0.57748000
vt 0.57396500 0.68532700
vt 0.85885600 0.09491100
vt 0.42640400 0.54776100
vt 0.23814500 0.75690400
vt 0.43266000 0.53423500
vt 0.86114000 0.10946600
vt 0.58258100 0.70918300
vt 0.57407400 0.69860300
vt 0.46519200 0.56978200
vt 0.56421400 0.69077000
vt 0.44349600 0.52571300
vt 0.23803700 0.74635700
vt 0.23799800 0.73184300
vt 0.45600800 0.52447900
vt 0.57835000 0.71432600
vt 0.56674600 0.70751200
vt 0.55575300 0.70105700
vt 0.47084300 0.55756400
vt 0.23803700 0.71725000
vt 0.46684400 0.53086300
vt 0.88144400 0.44032200
vt 0.47310000 0.54315500
vt 0.23814500 0.70648700
f 101/101/101 8/8/8 1/1/1
f 102/102/102 101/101/101 1/1/1
f 1/1/1 2/2/2 102/102/102
f 103/103/103 102/102/102 2/2/2
f 2/2/2 3/3/3 103/103/103
f 2/2/2 1/1/1 10/10/10
f 10/10/10 14/14/14 2/2/2
f 3/3/3 2/2/2 14/14/14
f 14/14/14 17/17/17 3/3/3
f 1/1/1 8/8/8 10/10/10
f 13/13/13 12/12/12 20/20/20
f 20/20/20 22/22/22 13/13/13
f 15/15/15 13/13/13 22/22/22
f 22/22/22 23/23/23 15/15/15
f 11/11/11 9/9/9 21/21/21
f 22/22/22 20/20/20 28/28/28
f 28/28/28 30/30/30 22/22/22
f 23/23/23 22/22/22 30/30/30
f 30/30/30 32/32/32 23/23/23
f 21/21/21 9/9/9 29/29/29
f 107/107/107 106/106/106 7/7/7
f 7/7/7 6/6/6 107/107/107
f 32/32/32 30/30/30 39/39/39
f 39/39/39 41/41/41 32/32/32
f 29/29/29 9/9/9 37/37/37
f 75/75/75 69/69/69 42/42/42
f 42/42/42 36/36/36 75/75/75
f 58/58/58 56/56/56 49/49/49
f 49/49/49 47/47/47 58/58/58
f 31/31/31 29/29/29 37/37/37
f 37/37/37 38/38/38 31/31/31
f 100/100/100 98/98/98 19/19/19
f 19/19/19 18/18/18 100/100/100
f 40/40/40 38/38/38 45/45/45
f 45/45/45 46/46/46 40/40/40
f 37/37/37 9/9/9 44/44/44
f 67/67/67 57/57/57 48/48/48
f 48/48/48 43/43/43 67/67/67
f 90/90/90 89/89/89 27/27/27
f 27/27/27 25/25/25 90/90/90
f 38/38/38 37/37/37 44/44/44
f 44/44/44 45/45/45 38/38/38
f 56/56/56 108/108/108 5/5/5
f 5/5/5 49/49/49 56/56/56
f 46/46/46 45/45/45 52/52/52
f 52/52/52 54/54/54 46/46/46
f 44/44/44 9/9/9 50/50/50
f 77/77/77 75/75/75 36/36/36
f 36/36/36 35/35/35 77/77/77
f 106/106/106 100/100/100 18/18/18
f 18/18/18 7/7/7 106/106/106
f 45/45/45 44/44/44 50/50/50
f 50/50/50 52/52/52 45/45/45
f 69/69/69 67/67/67 43/43/43
f 43/43/43 42/42/42 69/69/69
f 53/53/53 51/51/51 62/62/62
f 62/62/62 65/65/65 53/53/53
f 50/50/50 9/9/9 61/61/61
f 98/98/98 91/91/91 26/26/26
f 26/26/26 19/19/19 98/98/98
f 89/89/89 79/79/79 34/34/34
f 34/34/34 27/27/27 89/89/89
f 52/52/52 50/50/50 61/61/61
f 61/61/61 63/63/63 52/52/52
f 65/65/65 62/62/62 72/72/72
f 72/72/72 73/73/73 65/65/65
f 61/61/61 9/9/9 70/70/70
f 4/4/4 16/16/16 105/105/105
f 105/105/105 109/109/109 4/4/4
f 64/64/64 74/74/74 68/68/68
f 68/68/68 76/76/76 64/64/64
f 62/62/62 60/60/60 71/71/71
f 71/71/71 72/72/72 62/62/62
f 33/33/33 40/40/40 92/92/92
f 92/92/92 97/97/97 33/33/33
f 70/70/70 9/9/9 81/81/81
f 54/54/54 64/64/64 76/76/76
f 76/76/76 78/78/78 54/54/54
f 24/24/24 33/33/33 97/97/97
f 97/97/97 99/99/99 24/24/24
f 72/72/72 71/71/71 80/80/80
f 80/80/80 83/83/83 72/72/72
f 87/87/87 95/95/95 59/59/59
f 59/59/59 66/66/66 87/87/87
f 73/73/73 72/72/72 83/83/83
f 83/83/83 85/85/85 73/73/73
f 40/40/40 46/46/46 88/88/88
f 88/88/88 92/92/92 40/40/40
f 74/74/74 87/87/87 66/66/66
f 66/66/66 68/68/68 74/74/74
f 84/84/84 82/82/82 93/93/93
f 93/93/93 94/94/94 84/84/84
f 95/95/95 104/104/104 55/55/55
f 55/55/55 59/59/59 95/95/95
f 86/86/86 84/84/84 94/94/94
f 94/94/94 96/96/96 86/86/86
f 82/82/82 8/8/8 93/93/93
f 16/16/16 24/24/24 99/99/99
f 99/99/99 105/105/105 16/16/16
f 46/46/46 54/54/54 78/78/78
f 78/78/78 88/88/88 46/46/46
f 94/94/94 93/93/93 101/101/101
f 101/101/101 102/102/102 94/94/94
f 104/104/104 4/4/4 109/109/109
f 109/109/109 55/55/55 104/104/104
f 96/96/96 94/94/94 102/102/102
f 102/102/102 103/103/103 96/96/96
f 93/93/93 8/8/8 101/101/101
f 210/210/210 118/118/118 110/110/110
f 211/211/211 210/210/210 110/110/110
f 110/110/110 111/111/111 211/211/211
f 212/212/212 211/211/211 111/111/111
f 111/111/111 112/112/112 212/212/212
f 111/111/111 110/110/110 120/120/120
f 120/120/120 122/122/122 111/111/111
f 112/112/112 111/111/111 122/122/122
f 122/122/122 124/124/124 112/112/112
f 110/110/110 118/118/118 120/120/120
f 123/123/123 119/119/119 130/130/130
f 130/130/130 131/131/131 123/123/123
f 126/126/126 123/123/123 131/131/131
f 131/131/131 132/132/132 126/126/126
f 121/121/121 117/117/117 129/129/129
f 131/131/131 130/130/130 137/137/137
f 137/137/137 140/140/140 131/131/131
f 132/132/132 131/131/131 140/140/140
f 140/140/140 142/142/142 132/132/132
f 129/129/129 117/117/117 138/138/138
f 217/217/217 215/215/215 116/116/116
f 116/116/116 114/114/114 217/217/217
f 142/142/142 140/140/140 148/148/148
f 148/148/148 149/149/149 142/142/142
f 138/138/138 117/117/117 146/146/146
f 185/185/185 177/177/177 151/151/151
f 151/151/151 145/145/145 185/185/185
f 166/166/166 164/164/164 158/158/158
f 158/158/158 157/157/157 166/166/166
f 139/139/139 138/138/138 146/146/146
f 146/146/146 147/147/147 139/139/139
f 209/209/209 207/207/207 128/128/128
f 128/128/128 127/127/127 209/209/209
f 150/150/150 147/147/147 154/154/154
f 154/154/154 155/155/155 150/150/150
f 146/146/146 117/117/117 153/153/153
f 175/175/175 167/167/167 156/156/156
f 156/156/156 152/152/152 175/175/175
f 201/201/201 198/198/198 136/136/136
f 136/136/136 135/135/135 201/201/201
f 147/147/147 146/146/146 153/153/153
f 153/153/153 154/154/154 147/147/147
f 164/164/164 216/216/216 115/115/115
f 115/115/115 158/158/158 164/164/164
f 155/155/155 154/154/154 160/160/160
f 160/160/160 163/163/163 155/155/155
f 153/153/153 117/117/117 159/159/159
f 188/188/188 185/185/185 145/145/145
f 145/145/145 144/144/144 188/188/188
f 215/215/215 209/209/209 127/127/127
f 127/127/127 116/116/116 215/215/215
f 154/154/154 153/153/153 159/159/159
f 159/159/159 160/160/160 154/154/154
f 177/177/177 175/175/175 152/152/152
f 152/152/152 151/151/151 177/177/177
f 162/162/162 161/161/161 171/171/171
f 171/171/171 174/174/174 162/162/162
f 159/159/159 117/117/117 170/170/170
f 207/207/207 199/199/199 134/134/134
f 134/134/134 128/128/128 207/207/207
f 198/198/198 187/187/187 143/143/143
f 143/143/143 136/136/136 198/198/198
f 160/160/160 159/159/159 170/170/170
f 170/170/170 172/172/172 160/160/160
f 174/174/174 171/171/171 181/181/181
f 181/181/181 183/183/183 174/174/174
f 170/170/170 117/117/117 179/179/179
f 113/113/113 125/125/125 214/214/214
f 214/214/214 218/218/218 113/113/113
f 173/173/173 182/182/182 178/178/178
f 178/178/178 184/184/184 173/173/173
f 171/171/171 169/169/169 180/180/180
f 180/180/180 181/181/181 171/171/171
f 141/141/141 150/150/150 200/200/200
f 200/200/200 206/206/206 141/141/141
f 179/179/179 117/117/117 190/190/190
f 163/163/163 173/173/173 184/184/184
f 184/184/184 186/186/186 163/163/163
f 133/133/133 141/141/141 206/206/206
f 206/206/206 208/208/208 133/133/133
f 181/181/181 180/180/180 189/189/189
f 189/189/189 193/193/193 181/181/181
f 196/196/196 205/205/205 168/168/168
f 168/168/168 176/176/176 196/196/196
f 183/183/183 181/181/181 193/193/193
f 193/193/193 195/195/195 183/183/183
f 150/150/150 155/155/155 197/197/197
f 197/197/197 200/200/200 150/150/150
f 182/182/182 196/196/196 176/176/176
f 176/176/176 178/178/178 182/182/182
f 192/192/192 191/191/191 202/202/202
f 202/202/202 203/203/203 192/192/192
f 205/205/205 213/213/213 165/165/165
f 165/165/165 168/168/168 205/205/205
f 194/194/194 192/192/192 203/203/203
f 203/203/203 204/204/204 194/194/194
f 191/191/191 118/118/118 202/202/202
f 125/125/125 133/133/133 208/208/208
f 208/208/208 214/214/214 125/125/125
f 155/155/155 163/163/163 186/186/186
f 186/186/186 197/197/197 155/155/155
f 203/203/203 202/202/202 210/210/210
f 210/210/210 211/211/211 203/203/203
f 213/213/213 113/113/113 218/218/218
f 218/218/218 165/165/165 213/213/213
f 204/204/204 203/203/203 211/211/211
f 211/211/211 212/212/212 204/204/204
f 202/202/202 118/118/118 210/210/210
f 319/319/319 227/227/227 219/219/219
f 320/320/320 319/319/319 219/219/219
f 219/219/219 220/220/220 320/320/320
f 322/322/322 320/320/320 220/220/220
f 220/220/220 221/221/221 322/322/322
f 220/220/220 219/219/219 228/228/228
f 228/228/228 232/232/232 220/220/220
f 221/221/221 220/220/220 232/232/232
f 232/232/232 235/235/235 221/221/221
f 219/219/219 227/227/227 228/228/228
f 231/231/231 230/230/230 238/238/238
f 238/238/238 240/240/240 231/231/231
f 234/234/234 231/231/231 240/240/240
f 240/240/240 242/242/242 234/234/234
f 229/229/229 226/226/226 239/239/239
f 240/240/240 238/238/238 247/247/247
f 247/247/247 249/249/249 240/240/240
f 242/242/242 240/240/240 249/249/249
f 249/249/249 251/251/251 242/242/242
f 239/239/239 226/226/226 246/246/246
f 326/326/326 323/323/323 225/225/225
f 225/225/225 224/224/224 326/326/326
f 251/251/251 249/249/249 257/257/257
f 257/257/257 258/258/258 251/251/251
f 246/246/246 226/226/226 255/255/255
f 294/294/294 286/286/286 260/260/260
f 260/260/260 254/254/254 294/294/294
f 275/275/275 273/273/273 267/267/267
f 267/267/267 265/265/265 275/275/275
f 248/248/248 246/246/246 255/255/255
f 255/255/255 256/256/256 248/248/248
f 318/318/318 315/315/315 237/237/237
f 237/237/237 236/236/236 318/318/318
f 259/259/259 256/256/256 263/263/263
f 263/263/263 264/264/264 259/259/259
f 255/255/255 226/226/226 262/262/262
f 285/285/285 276/276/276 266/266/266
f 266/266/266 261/261/261 285/285/285
f 308/308/308 306/306/306 245/245/245
f 245/245/245 243/243/243 308/308/308
f 256/256/256 255/255/255 262/262/262
f 262/262/262 263/263/263 256/256/256
f 273/273/273 325/325/325 223/223/223
f 223/223/223 267/267/267 273/273/273
f 264/264/264 263/263/263 269/269/269
f 269/269/269 271/271/271 264/264/264
f 262/262/262 226/226/226 268/268/268
f 296/296/296 294/294/294 254/254/254
f 254/254/254 253/253/253 296/296/296
f 323/323/323 318/318/318 236/236/236
f 236/236/236 225/225/225 323/323/323
f 263/263/263 262/262/262 268/268/268
f 268/268/268 269/269/269 263/263/263
f 286/286/286 285/285/285 261/261/261
f 261/261/261 260/260/260 286/286/286
f 272/272/272 270/270/270 281/281/281
f 281/281/281 283/283/283 272/272/272
f 268/268/268 226/226/226 279/279/279
f 315/315/315 310/310/310 244/244/244
f 244/244/244 237/237/237 315/315/315
f 306/306/306 295/295/295 252/252/252
f 252/252/252 245/245/245 306/306/306
f 269/269/269 268/268/268 279/279/279
f 279/279/279 280/280/280 269/269/269
f 283/283/283 281/281/281 290/290/290
f 290/290/290 291/291/291 283/283/283
f 279/279/279 226/226/226 289/289/289
f 222/222/222 233/233/233 324/324/324
f 324/324/324 327/327/327 222/222/222
f 282/282/282 292/292/292 287/287/287
f 287/287/287 293/293/293 282/282/282
f 281/281/281 278/278/278 288/288/288
f 288/288/288 290/290/290 281/281/281
f 250/250/250 259/259/259 309/309/309
f 309/309/309 316/316/316 250/250/250
f 289/289/289 226/226/226 299/299/299
f 271/271/271 282/282/282 293/293/293
f 293/293/293 297/297/297 271/271/271
f 241/241/241 250/250/250 316/316/316
f 316/316/316 317/317/317 241/241/241
f 290/290/290 288/288/288 298/298/298
f 298/298/298 302/302/302 290/290/290
f 305/305/305 313/313/313 277/277/277
f 277/277/277 284/284/284 305/305/305
f 291/291/291 290/290/290 302/302/302
f 302/302/302 303/303/303 291/291/291
f 259/259/259 264/264/264 307/307/307
f 307/307/307 309/309/309 259/259/259
f 292/292/292 305/305/305 284/284/284
f 284/284/284 287/287/287 292/292/292
f 301/301/301 300/300/300 311/311/311
f 311/311/311 312/312/312 301/301/301
f 313/313/313 321/321/321 274/274/274
f 274/274/274 277/277/277 313/313/313
f 304/304/304 301/301/301 312/312/312
f 312/312/312 314/314/314 304/304/304
f 300/300/300 227/227/227 311/311/311
f 233/233/233 241/241/241 317/317/317
f 317/317/317 324/324/324 233/233/233
f 264/264/264 271/271/271 297/297/297
f 297/297/297 307/307/307 264/264/264
f 312/312/312 311/311/311 319/319/319
f 319/319/319 320/320/320 312/312/312
f 321/321/321 222/222/222 327/327/327
f 327/327/327 274/274/274 321/321/321
f 314/314/314 312/312/312 320/320/320
f 320/320/320 322/322/322 314/314/314
f 311/311/311 227/227/227 319/319/319
f 334/334/334 335/335/335 366/366/366
f 366/366/366 364/364/364 334/334/334
f 349/349/349 351/351/351 387/387/387
f 387/387/387 384/384/384 349/349/349
f 343/343/343 346/346/346 378/378/378
f 378/378/378 375/375/375 343/343/343
f 335/335/335 338/338/338 367/367/367
f 367/367/367 366/366/366 335/335/335
f 352/352/352 354/354/354 390/390/390
f 390/390/390 388/388/388 352/352/352
f 328/328/328 332/332/332 358/358/358
f 358/358/358 357/357/357 328/328/328
f 345/345/345 348/348/348 380/380/380
f 380/380/380 376/376/376 345/345/345
f 337/337/337 341/341/341 371/371/371
f 371/371/371 370/370/370 337/337/337
f 354/354/354 328/328/328 357/357/357
f 357/357/357 390/390/390 354/354/354
f 331/331/331 334/334/334 364/364/364
f 364/364/364 360/360/360 331/331/331
f 348/348/348 349/349/349 384/384/384
f 384/384/384 380/380/380 348/348/348
f 341/341/341 343/343/343 375/375/375
f 375/375/375 371/371/371 341/341/341
f 377/377/377 382/382/382 414/414/414
f 414/414/414 411/411/411 377/377/377
f 368/368/368 372/372/372 406/406/406
f 406/406/406 403/403/403 368/368/368
f 391/391/391 356/356/356 393/393/393
f 393/393/393 422/422/422 391/391/391
f 361/361/361 362/362/362 398/398/398
f 398/398/398 395/395/395 361/361/361
f 381/381/381 383/383/383 416/416/416
f 416/416/416 413/413/413 381/381/381
f 373/373/373 374/374/374 409/409/409
f 409/409/409 405/405/405 373/373/373
f 363/363/363 365/365/365 401/401/401
f 401/401/401 397/397/397 363/363/363
f 383/383/383 386/386/386 419/419/419
f 419/419/419 416/416/416 383/383/383
f 374/374/374 379/379/379 412/412/412
f 412/412/412 409/409/409 374/374/374
f 365/365/365 369/369/369 404/404/404
f 404/404/404 401/401/401 365/365/365
f 385/385/385 389/389/389 423/423/423
f 423/423/423 418/418/418 385/385/385
f 356/356/356 359/359/359 394/394/394
f 394/394/394 393/393/393 356/356/356
f 396/396/396 399/399/399 400/400/400
f 396/396/396 400/400/400 402/402/402
f 396/396/396 402/402/402 407/407/407
f 396/396/396 407/407/407 408/408/408
f 396/396/396 408/408/408 410/410/410
f 396/396/396 410/410/410 415/415/415
f 396/396/396 415/415/415 417/417/417
f 396/396/396 417/417/417 420/420/420
f 396/396/396 420/420/420 421/421/421
f 396/396/396 421/421/421 392/392/392
f 330/330/330 329/329/329 355/355/355
f 330/330/330 355/355/355 353/353/353
f 330/330/330 353/353/353 350/350/350
f 330/330/330 350/350/350 347/347/347
f 330/330/330 347/347/347 344/344/344
f 330/330/330 344/344/344 342/342/342
f 330/330/330 342/342/342 340/340/340
f 330/330/330 340/340/340 339/339/339
f 330/330/330 339/339/339 336/336/336
f 330/330/330 336/336/336 333/333/333
f 524/524/524 432/432/432 424/424/424
f 525/525/525 524/524/524 424/424/424
f 424/424/424 425/425/425 525/525/525
f 526/526/526 525/525/525 425/425/425
f 425/425/425 426/426/426 526/526/526
f 425/425/425 424/424/424 433/433/433
f 433/433/433 437/437/437 425/425/425
f 426/426/426 425/425/425 437/437/437
f 437/437/437 439/439/439 426/426/426
f 424/424/424 432/432/432 433/433/433
f 436/436/436 434/434/434 443/443/443
f 443/443/443 445/445/445 436/436/436
f 440/440/440 436/436/436 445/445/445
f 445/445/445 447/447/447 440/440/440
f 435/435/435 431/431/431 444/444/444
f 445/445/445 443/443/443 452/452/452
f 452/452/452 454/454/454 445/445/445
f 447/447/447 445/445/445 454/454/454
f 454/454/454 456/456/456 447/447/447
f 444/444/444 431/431/431 451/451/451
f 532/532/532 528/528/528 430/430/430
f 430/430/430 428/428/428 532/532/532
f 456/456/456 454/454/454 462/462/462
f 462/462/462 463/463/463 456/456/456
f 451/451/451 431/431/431 460/460/460
f 499/499/499 492/492/492 465/465/465
f 465/465/465 459/459/459 499/499/499
f 481/481/481 479/479/479 472/472/472
f 472/472/472 471/471/471 481/481/481
f 453/453/453 451/451/451 460/460/460
f 460/460/460 461/461/461 453/453/453
f 522/522/522 521/521/521 442/442/442
f 442/442/442 441/441/441 522/522/522
f 464/464/464 461/461/461 468/468/468
f 468/468/468 469/469/469 464/464/464
f 460/460/460 431/431/431 467/467/467
f 490/490/490 482/482/482 470/470/470
f 470/470/470 466/466/466 490/490/490
f 515/515/515 511/511/511 450/450/450
f 450/450/450 448/448/448 515/515/515
f 461/461/461 460/460/460 467/467/467
f 467/467/467 468/468/468 461/461/461
f 479/479/479 530/530/530 429/429/429
f 429/429/429 472/472/472 479/479/479
f 469/469/469 468/468/468 475/475/475
f 475/475/475 477/477/477 469/469/469
f 467/467/467 431/431/431 473/473/473
f 500/500/500 499/499/499 459/459/459
f 459/459/459 458/458/458 500/500/500
f 528/528/528 522/522/522 441/441/441
f 441/441/441 430/430/430 528/528/528
f 468/468/468 467/467/467 473/473/473
f 473/473/473 475/475/475 468/468/468
f 492/492/492 490/490/490 466/466/466
f 466/466/466 465/465/465 492/492/492
f 476/476/476 474/474/474 485/485/485
f 485/485/485 488/488/488 476/476/476
f 473/473/473 431/431/431 483/483/483
f 521/521/521 513/513/513 449/449/449
f 449/449/449 442/442/442 521/521/521
f 511/511/511 501/501/501 457/457/457
f 457/457/457 450/450/450 511/511/511
f 475/475/475 473/473/473 483/483/483
f 483/483/483 486/486/486 475/475/475
f 488/488/488 485/485/485 495/495/495
f 495/495/495 496/496/496 488/488/488
f 483/483/483 431/431/431 494/494/494
f 427/427/427 438/438/438 529/529/529
f 529/529/529 531/531/531 427/427/427
f 487/487/487 497/497/497 491/491/491
f 491/491/491 498/498/498 487/487/487
f 485/485/485 484/484/484 493/493/493
f 493/493/493 495/495/495 485/485/485
f 455/455/455 464/464/464 514/514/514
f 514/514/514 520/520/520 455/455/455
f 494/494/494 431/431/431 505/505/505
f 477/477/477 487/487/487 498/498/498
f 498/498/498 502/502/502 477/477/477
f 446/446/446 455/455/455 520/520/520
f 520/520/520 523/523/523 446/446/446
f 495/495/495 493/493/493 503/503/503
f 503/503/503 507/507/507 495/495/495
f 509/509/509 518/518/518 480/480/480
f 480/480/480 489/489/489 509/509/509
f 496/496/496 495/495/495 507/507/507
f 507/507/507 508/508/508 496/496/496
f 464/464/464 469/469/469 512/512/512
f 512/512/512 514/514/514 464/464/464
f 497/497/497 509/509/509 489/489/489
f 489/489/489 491/491/491 497/497/497
f 506/506/506 504/504/504 516/516/516
f 516/516/516 517/517/517 506/506/506
f 518/518/518 527/527/527 478/478/478
f 478/478/478 480/480/480 518/518/518
f 510/510/510 506/506/506 517/517/517
f 517/517/517 519/519/519 510/510/510
f 504/504/504 432/432/432 516/516/516
f 438/438/438 446/446/446 523/523/523
f 523/523/523 529/529/529 438/438/438
f 469/469/469 477/477/477 502/502/502
f 502/502/502 512/512/512 469/469/469
f 517/517/517 516/516/516 524/524/524
f 524/524/524 525/525/525 517/517/517
f 527/527/527 427/427/427 531/531/531
f 531/531/531 478/478/478 527/527/527
f 519/519/519 517/517/517 525/525/525
f 525/525/525 526/526/526 519/519/519
f 516/516/516 432/432/432 524/524/524

