mtllib material.mtl
usemtl Leg.BR.001_MAT
v 0.13546600 -0.12403000 0.23991800
v 0.13546600 -0.12403000 0.23991800
v 0.13546600 -0.12403000 0.23991800
v 0.13324800 -0.12181200 0.23361200
v 0.13324800 -0.12181200 0.23361200
v 0.13290600 -0.12146800 0.22658500
v 0.13290600 -0.12146800 0.22658500
v 0.13449100 -0.12305200 0.21990800
v 0.13449100 -0.12305200 0.21990800
v 0.13776200 -0.12632200 0.21459700
v 0.13776200 -0.12632200 0.21459700
v 0.13776200 -0.12632200 0.21459700
v 0.14222200 -0.13078100 0.21146000
v 0.14222200 -0.13078100 0.21146000
v 0.14719100 -0.13574800 0.21097500
v 0.14719100 -0.13574800 0.21097500
v 0.15191300 -0.14046900 0.21321600
v 0.15191300 -0.14046900 0.21321600
v 0.15566900 -0.14422500 0.21784100
v 0.15566900 -0.14422500 0.21784100
v 0.15566900 -0.14422500 0.21784100
v 0.15788700 -0.14644300 0.22414700
v 0.15788700 -0.14644300 0.22414700
v 0.15823000 -0.14678600 0.23117300
v 0.15823000 -0.14678600 0.23117300
v 0.15664500 -0.14520200 0.23785100
v 0.15664500 -0.14520200 0.23785100
v 0.15337300 -0.14193200 0.24316200
v 0.15337300 -0.14193200 0.24316200
v 0.15337300 -0.14193200 0.24316200
v 0.14891400 -0.13747400 0.24629900
v 0.14891400 -0.13747400 0.24629900
v 0.14394400 -0.13250600 0.24678400
v 0.14394400 -0.13250600 0.24678400
v 0.13922200 -0.12778500 0.24454300
v 0.13922200 -0.12778500 0.24454300
v 0.13460700 -0.12330900 0.23306300
v 0.13460700 -0.12330900 0.23306300
v 0.13460700 -0.12330900 0.23306300
v 0.13656800 -0.12527000 0.23863800
v 0.13656800 -0.12527000 0.23863800
v 0.13430400 -0.12300500 0.22685100
v 0.13430400 -0.12300500 0.22685100
v 0.13430400 -0.12300500 0.22685100
v 0.13570500 -0.12440600 0.22094800
v 0.13570500 -0.12440600 0.22094800
v 0.13859700 -0.12729700 0.21625200
v 0.13859700 -0.12729700 0.21625200
v 0.14254000 -0.13123800 0.21347900
v 0.14254000 -0.13123800 0.21347900
v 0.14254000 -0.13123800 0.21347900
v 0.14693300 -0.13563000 0.21305000
v 0.14693300 -0.13563000 0.21305000
v 0.14693300 -0.13563000 0.21305000
v 0.15110800 -0.13980400 0.21503100
v 0.15110800 -0.13980400 0.21503100
v 0.15442900 -0.14312400 0.21912100
v 0.15442900 -0.14312400 0.21912100
v 0.15639000 -0.14508500 0.22469600
v 0.15639000 -0.14508500 0.22469600
v 0.15639000 -0.14508500 0.22469600
v 0.15669300 -0.14538800 0.23090700
v 0.15669300 -0.14538800 0.23090700
v 0.15669300 -0.14538800 0.23090700
v 0.15529100 -0.14398800 0.23681100
v 0.15529100 -0.14398800 0.23681100
v 0.15239900 -0.14109700 0.24150600
v 0.15239900 -0.14109700 0.24150600
v 0.14845600 -0.13715500 0.24427900
v 0.14845600 -0.13715500 0.24427900
v 0.14845600 -0.13715500 0.24427900
v 0.14406300 -0.13276300 0.24470800
v 0.14406300 -0.13276300 0.24470800
v 0.14406300 -0.13276300 0.24470800
v 0.13988900 -0.12859000 0.24272700
v 0.13988900 -0.12859000 0.24272700
v 0.13625200 -0.12326400 0.23275600
v 0.13625200 -0.12326400 0.23275600
v 0.13625200 -0.12326400 0.23275600
v 0.13806900 -0.12508100 0.23792100
v 0.13806900 -0.12508100 0.23792100
v 0.13597100 -0.12298300 0.22700000
v 0.13597100 -0.12298300 0.22700000
v 0.13597100 -0.12298300 0.22700000
v 0.13727000 -0.12428000 0.22153100
v 0.13727000 -0.12428000 0.22153100
v 0.13994900 -0.12695900 0.21718000
v 0.13994900 -0.12695900 0.21718000
v 0.14360200 -0.13061000 0.21461100
v 0.14360200 -0.13061000 0.21461100
v 0.14360200 -0.13061000 0.21461100
v 0.14767300 -0.13468000 0.21421300
v 0.14767300 -0.13468000 0.21421300
v 0.14767300 -0.13468000 0.21421300
v 0.15154100 -0.13854700 0.21604900
v 0.15154100 -0.13854700 0.21604900
v 0.15461700 -0.14162300 0.21983800
v 0.15461700 -0.14162300 0.21983800
v 0.15643400 -0.14344000 0.22500300
v 0.15643400 -0.14344000 0.22500300
v 0.15643400 -0.14344000 0.22500300
v 0.15671500 -0.14372100 0.23075900
v 0.15671500 -0.14372100 0.23075900
v 0.15671500 -0.14372100 0.23075900
v 0.15541600 -0.14242300 0.23622800
v 0.15541600 -0.14242300 0.23622800
v 0.15273700 -0.13974500 0.24057900
v 0.15273700 -0.13974500 0.24057900
v 0.14908400 -0.13609300 0.24314800
v 0.14908400 -0.13609300 0.24314800
v 0.14908400 -0.13609300 0.24314800
v 0.14501300 -0.13202400 0.24354500
v 0.14501300 -0.13202400 0.24354500
v 0.14501300 -0.13202400 0.24354500
v 0.14114500 -0.12815700 0.24171000
v 0.14114500 -0.12815700 0.24171000
v 0.13286800 -0.12662900 0.23991700
v 0.13286800 -0.12662900 0.23991700
v 0.13065000 -0.12441100 0.23361100
v 0.13030700 -0.12406800 0.22658500
v 0.13189200 -0.12565200 0.21990800
v 0.13516400 -0.12892200 0.21459600
v 0.13516400 -0.12892200 0.21459600
v 0.13962300 -0.13338000 0.21145900
v 0.14459200 -0.13834800 0.21097400
v 0.14459200 -0.13834800 0.21097400
v 0.14459200 -0.13834800 0.21097400
v 0.14931400 -0.14306900 0.21321500
v 0.14931400 -0.14306900 0.21321500
v 0.15307000 -0.14682400 0.21784100
v 0.15307000 -0.14682400 0.21784100
v 0.15307000 -0.14682400 0.21784100
v 0.15528900 -0.14904200 0.22414700
v 0.15528900 -0.14904200 0.22414700
v 0.15563100 -0.14938500 0.23117300
v 0.15563100 -0.14938500 0.23117300
v 0.15404600 -0.14780100 0.23785000
v 0.15404600 -0.14780100 0.23785000
v 0.15404600 -0.14780100 0.23785000
v 0.15077500 -0.14453100 0.24316200
v 0.15077500 -0.14453100 0.24316200
v 0.14631500 -0.14007300 0.24629900
v 0.14134600 -0.13510500 0.24678400
v 0.13662400 -0.13038400 0.24454300
v 0.17117100 -0.16350000 0.19401600
v 0.17117100 -0.16350000 0.19401600
v 0.17117100 -0.16350000 0.19401600
v 0.17233100 -0.16466100 0.20227400
v 0.17233100 -0.16466100 0.20227400
v 0.17563800 -0.16796800 0.20927600
v 0.17563800 -0.16796800 0.20927600
v 0.17563800 -0.16796800 0.20927600
v 0.17427700 -0.16039300 0.19401600
v 0.17427700 -0.16039300 0.19401600
v 0.17544000 -0.16155500 0.18575900
v 0.17544000 -0.16155500 0.18575900
v 0.17874900 -0.16486200 0.17875800
v 0.17874900 -0.16486200 0.17875800
v 0.17874900 -0.16486200 0.17875800
v 0.18370100 -0.16981200 0.17408200
v 0.18370100 -0.16981200 0.17408200
v 0.18954100 -0.17565100 0.17244000
v 0.18954100 -0.17565100 0.17244000
v 0.19538100 -0.18148900 0.17408400
v 0.19538100 -0.18148900 0.17408400
v 0.20033100 -0.18643900 0.17876300
v 0.20033100 -0.18643900 0.17876300
v 0.20033100 -0.18643900 0.17876300
v 0.20363800 -0.18974500 0.18576500
v 0.20363800 -0.18974500 0.18576500
v 0.20479900 -0.19090600 0.19402300
v 0.20479900 -0.19090600 0.19402300
v 0.20363600 -0.18974400 0.20228100
v 0.20363600 -0.18974400 0.20228100
v 0.20032700 -0.18643700 0.20928100
v 0.20032700 -0.18643700 0.20928100
v 0.20032700 -0.18643700 0.20928100
v 0.19537500 -0.18148700 0.21395700
v 0.19537500 -0.18148700 0.21395700
v 0.18953500 -0.17564800 0.21559900
v 0.18953500 -0.17564800 0.21559900
v 0.18369500 -0.16981000 0.21395500
v 0.18369500 -0.16981000 0.21395500
v 0.17874500 -0.16486100 0.20927600
v 0.17874500 -0.16486100 0.20927600
v 0.17874500 -0.16486100 0.20927600
v 0.17543800 -0.16155400 0.20227400
v 0.17543800 -0.16155400 0.20227400
v 0.17699100 -0.16327200 0.18671600
v 0.17699100 -0.16327200 0.18671600
v 0.17699100 -0.16327200 0.18671600
v 0.17596300 -0.16224500 0.19401700
v 0.17596300 -0.16224500 0.19401700
v 0.17991700 -0.16619600 0.18052800
v 0.17991700 -0.16619600 0.18052800
v 0.18429500 -0.17057200 0.17639300
v 0.18429500 -0.17057200 0.17639300
v 0.18429500 -0.17057200 0.17639300
v 0.18945800 -0.17573400 0.17494200
v 0.18945800 -0.17573400 0.17494200
v 0.19462100 -0.18089500 0.17639500
v 0.19462100 -0.18089500 0.17639500
v 0.19462100 -0.18089500 0.17639500
v 0.19899700 -0.18527100 0.18053200
v 0.19899700 -0.18527100 0.18053200
v 0.20192100 -0.18819400 0.18672200
v 0.20192100 -0.18819400 0.18672200
v 0.20192100 -0.18819400 0.18672200
v 0.20294700 -0.18922100 0.19402300
v 0.20294700 -0.18922100 0.19402300
v 0.20191800 -0.18819300 0.20132300
v 0.20191800 -0.18819300 0.20132300
v 0.20191800 -0.18819300 0.20132300
v 0.19899300 -0.18526900 0.20751100
v 0.19899300 -0.18526900 0.20751100
v 0.19461500 -0.18089300 0.21164600
v 0.19461500 -0.18089300 0.21164600
v 0.19461500 -0.18089300 0.21164600
v 0.18945200 -0.17573100 0.21309700
v 0.18945200 -0.17573100 0.21309700
v 0.18428900 -0.17057000 0.21164400
v 0.18428900 -0.17057000 0.21164400
v 0.18428900 -0.17057000 0.21164400
v 0.17991300 -0.16619400 0.20750700
v 0.17991300 -0.16619400 0.20750700
v 0.17698900 -0.16327100 0.20131700
v 0.17698900 -0.16327100 0.20131700
v 0.17698900 -0.16327100 0.20131700
v 0.17891700 -0.16317700 0.18725300
v 0.17891700 -0.16317700 0.18725300
v 0.17891700 -0.16317700 0.18725300
v 0.17796400 -0.16222500 0.19401700
v 0.17796400 -0.16222500 0.19401700
v 0.18162800 -0.16588700 0.18151900
v 0.18162800 -0.16588700 0.18151900
v 0.18568400 -0.16994100 0.17768800
v 0.18568400 -0.16994100 0.17768800
v 0.18568400 -0.16994100 0.17768800
v 0.19046800 -0.17472400 0.17634400
v 0.19046800 -0.17472400 0.17634400
v 0.19525100 -0.17950600 0.17769000
v 0.19525100 -0.17950600 0.17769000
v 0.19525100 -0.17950600 0.17769000
v 0.19930600 -0.18356000 0.18152300
v 0.19930600 -0.18356000 0.18152300
v 0.20201500 -0.18626900 0.18725800
v 0.20201500 -0.18626900 0.18725800
v 0.20201500 -0.18626900 0.18725800
v 0.20296500 -0.18721900 0.19402200
v 0.20296500 -0.18721900 0.19402200
v 0.20201300 -0.18626800 0.20078600
v 0.20201300 -0.18626800 0.20078600
v 0.20201300 -0.18626800 0.20078600
v 0.19930200 -0.18355800 0.20652000
v 0.19930200 -0.18355800 0.20652000
v 0.19524600 -0.17950400 0.21035100
v 0.19524600 -0.17950400 0.21035100
v 0.19524600 -0.17950400 0.21035100
v 0.19046200 -0.17472100 0.21169600
v 0.19046200 -0.17472100 0.21169600
v 0.18567900 -0.16993900 0.21034900
v 0.18567900 -0.16993900 0.21034900
v 0.18567900 -0.16993900 0.21034900
v 0.18162400 -0.16588500 0.20651600
v 0.18162400 -0.16588500 0.20651600
v 0.17891500 -0.16317600 0.20078100
v 0.17891500 -0.16317600 0.20078100
v 0.17891500 -0.16317600 0.20078100
v 0.17233400 -0.16466200 0.18575800
v 0.17564300 -0.16797000 0.17875800
v 0.17564300 -0.16797000 0.17875800
v 0.18059500 -0.17292000 0.17408200
v 0.18643500 -0.17875800 0.17244000
v 0.19227500 -0.18459700 0.17408400
v 0.19722500 -0.18954600 0.17876300
v 0.19722500 -0.18954600 0.17876300
v 0.20053200 -0.19285300 0.18576400
v 0.20169200 -0.19401300 0.19402300
v 0.20052900 -0.19285200 0.20228000
v 0.19722000 -0.18954400 0.20928000
v 0.19722000 -0.18954400 0.20928000
v 0.19226900 -0.18459400 0.21395700
v 0.18642800 -0.17875500 0.21559800
v 0.18058800 -0.17291700 0.21395400
v 0.18058800 -0.17291700 0.21395400
v 0.18058800 -0.17291700 0.21395400
v 0.12924400 -0.13025400 0.23991700
v 0.12924400 -0.13025400 0.23991700
v 0.12302100 -0.13647900 0.23991600
v 0.12302100 -0.13647900 0.23991600
v 0.12302100 -0.13647900 0.23991600
v 0.12702500 -0.12803600 0.23361100
v 0.12080200 -0.13426100 0.23361000
v 0.12080200 -0.13426100 0.23361000
v 0.12668300 -0.12769300 0.22658500
v 0.12046000 -0.13391800 0.22658400
v 0.12046000 -0.13391800 0.22658400
v 0.12826800 -0.12927700 0.21990700
v 0.12204500 -0.13550200 0.21990700
v 0.12204500 -0.13550200 0.21990700
v 0.13153900 -0.13254700 0.21459600
v 0.13153900 -0.13254700 0.21459600
v 0.12531600 -0.13877200 0.21459500
v 0.12531600 -0.13877200 0.21459500
v 0.12531600 -0.13877200 0.21459500
v 0.13599900 -0.13700500 0.21145900
v 0.12977600 -0.14323000 0.21145800
v 0.12977600 -0.14323000 0.21145800
v 0.14096800 -0.14197300 0.21097400
v 0.14096800 -0.14197300 0.21097400
v 0.13474500 -0.14819800 0.21097400
v 0.13474500 -0.14819800 0.21097400
v 0.13946700 -0.15291900 0.21321400
v 0.13946700 -0.15291900 0.21321400
v 0.14322300 -0.15667400 0.21784000
v 0.14322300 -0.15667400 0.21784000
v 0.14322300 -0.15667400 0.21784000
v 0.14544100 -0.15889200 0.22414600
v 0.14544100 -0.15889200 0.22414600
v 0.14578400 -0.15923500 0.23117200
v 0.14578400 -0.15923500 0.23117200
v 0.15042200 -0.15142700 0.23785000
v 0.15042200 -0.15142700 0.23785000
v 0.14419900 -0.15765100 0.23784900
v 0.14419900 -0.15765100 0.23784900
v 0.14715000 -0.14815700 0.24316100
v 0.14715000 -0.14815700 0.24316100
v 0.14092800 -0.15438100 0.24316100
v 0.14092800 -0.15438100 0.24316100
v 0.14092800 -0.15438100 0.24316100
v 0.14269100 -0.14369800 0.24629800
v 0.13646800 -0.14992300 0.24629800
v 0.13646800 -0.14992300 0.24629800
v 0.13772200 -0.13873100 0.24678300
v 0.13149900 -0.14495500 0.24678300
v 0.13149900 -0.14495500 0.24678300
v 0.13300000 -0.13401000 0.24454200
v 0.12677700 -0.14023400 0.24454200
v 0.12677700 -0.14023400 0.24454200
v 0.12230000 -0.13561900 0.23306200
v 0.12230000 -0.13561900 0.23306200
v 0.12230000 -0.13561900 0.23306200
v 0.12426100 -0.13758000 0.23863700
v 0.12426100 -0.13758000 0.23863700
v 0.12199700 -0.13531600 0.22685000
v 0.12199700 -0.13531600 0.22685000
v 0.12199700 -0.13531600 0.22685000
v 0.12339800 -0.13671600 0.22094700
v 0.12339800 -0.13671600 0.22094700
v 0.12629100 -0.13960700 0.21625100
v 0.12629100 -0.13960700 0.21625100
v 0.13023300 -0.14354800 0.21347800
v 0.13023300 -0.14354800 0.21347800
v 0.13023300 -0.14354800 0.21347800
v 0.13462700 -0.14794000 0.21304900
v 0.13462700 -0.14794000 0.21304900
v 0.13462700 -0.14794000 0.21304900
v 0.13880100 -0.15211400 0.21503000
v 0.13880100 -0.15211400 0.21503000
v 0.14212200 -0.15543400 0.21911900
v 0.14212200 -0.15543400 0.21911900
v 0.14408300 -0.15739500 0.22469400
v 0.14408300 -0.15739500 0.22469400
v 0.14408300 -0.15739500 0.22469400
v 0.14438600 -0.15769800 0.23090600
v 0.14438600 -0.15769800 0.23090600
v 0.14438600 -0.15769800 0.23090600
v 0.14298400 -0.15629800 0.23680900
v 0.14298400 -0.15629800 0.23680900
v 0.14009200 -0.15340700 0.24150500
v 0.14009200 -0.15340700 0.24150500
v 0.13614900 -0.14946500 0.24427800
v 0.13614900 -0.14946500 0.24427800
v 0.13614900 -0.14946500 0.24427800
v 0.13175600 -0.14507400 0.24470700
v 0.13175600 -0.14507400 0.24470700
v 0.13175600 -0.14507400 0.24470700
v 0.12758200 -0.14090000 0.24272600
v 0.12758200 -0.14090000 0.24272600
v 0.12225600 -0.13726400 0.23275400
v 0.12225600 -0.13726400 0.23275400
v 0.12225600 -0.13726400 0.23275400
v 0.12407200 -0.13908100 0.23792000
v 0.12407200 -0.13908100 0.23792000
v 0.12197500 -0.13698300 0.22699900
v 0.12197500 -0.13698300 0.22699900
v 0.12197500 -0.13698300 0.22699900
v 0.12327300 -0.13828000 0.22152900
v 0.12327300 -0.13828000 0.22152900
v 0.12595300 -0.14095900 0.21717900
v 0.12595300 -0.14095900 0.21717900
v 0.12960600 -0.14461100 0.21460900
v 0.12960600 -0.14461100 0.21460900
v 0.12960600 -0.14461100 0.21460900
v 0.13367600 -0.14868000 0.21421200
v 0.13367600 -0.14868000 0.21421200
v 0.13367600 -0.14868000 0.21421200
v 0.13754400 -0.15254700 0.21604800
v 0.13754400 -0.15254700 0.21604800
v 0.14062100 -0.15562300 0.21983600
v 0.14062100 -0.15562300 0.21983600
v 0.14243800 -0.15744000 0.22500200
v 0.14243800 -0.15744000 0.22500200
v 0.14243800 -0.15744000 0.22500200
v 0.14271800 -0.15772100 0.23075700
v 0.14271800 -0.15772100 0.23075700
v 0.14271800 -0.15772100 0.23075700
v 0.14142000 -0.15642400 0.23622700
v 0.14142000 -0.15642400 0.23622700
v 0.13874000 -0.15374500 0.24057700
v 0.13874000 -0.15374500 0.24057700
v 0.13508700 -0.15009300 0.24314700
v 0.13508700 -0.15009300 0.24314700
v 0.13508700 -0.15009300 0.24314700
v 0.13101700 -0.14602400 0.24354400
v 0.13101700 -0.14602400 0.24354400
v 0.13101700 -0.14602400 0.24354400
v 0.12714900 -0.14215700 0.24170900
v 0.12714900 -0.14215700 0.24170900
v 0.12561900 -0.13388000 0.23991700
v 0.12561900 -0.13388000 0.23991700
v 0.12340100 -0.13166200 0.23361100
v 0.12305800 -0.13131800 0.22658400
v 0.12464300 -0.13290200 0.21990700
v 0.12791500 -0.13617200 0.21459600
v 0.12791500 -0.13617200 0.21459600
v 0.13237500 -0.14063100 0.21145900
v 0.13734400 -0.14559800 0.21097400
v 0.13734400 -0.14559800 0.21097400
v 0.13734400 -0.14559800 0.21097400
v 0.14206600 -0.15031900 0.21321500
v 0.14206600 -0.15031900 0.21321500
v 0.14582200 -0.15407500 0.21784000
v 0.14582200 -0.15407500 0.21784000
v 0.14582200 -0.15407500 0.21784000
v 0.14804000 -0.15629300 0.22414600
v 0.14804000 -0.15629300 0.22414600
v 0.14838300 -0.15663600 0.23117300
v 0.14838300 -0.15663600 0.23117300
v 0.14679800 -0.15505200 0.23785000
v 0.14679800 -0.15505200 0.23785000
v 0.14679800 -0.15505200 0.23785000
v 0.14352600 -0.15178200 0.24316100
v 0.14352600 -0.15178200 0.24316100
v 0.13906600 -0.14732400 0.24629800
v 0.13409700 -0.14235600 0.24678300
v 0.12937500 -0.13763500 0.24454200
v 0.16250500 -0.17216800 0.19401500
v 0.16250500 -0.17216800 0.19401500
v 0.16250500 -0.17216800 0.19401500
v 0.16366600 -0.17332900 0.20227300
v 0.16366600 -0.17332900 0.20227300
v 0.16697300 -0.17663600 0.20927500
v 0.16697300 -0.17663600 0.20927500
v 0.16697300 -0.17663600 0.20927500
v 0.16683800 -0.16783400 0.19401600
v 0.16683800 -0.16783400 0.19401600
v 0.15939900 -0.17527500 0.19401500
v 0.15939900 -0.17527500 0.19401500
v 0.16800100 -0.16899600 0.18575800
v 0.16056200 -0.17643700 0.18575700
v 0.16056200 -0.17643700 0.18575700
v 0.17131000 -0.17230400 0.17875800
v 0.17131000 -0.17230400 0.17875800
v 0.16387100 -0.17974500 0.17875700
v 0.16387100 -0.17974500 0.17875700
v 0.16387100 -0.17974500 0.17875700
v 0.17626200 -0.17725400 0.17408100
v 0.16882300 -0.18469500 0.17408000
v 0.16882300 -0.18469500 0.17408000
v 0.18210200 -0.18309200 0.17244000
v 0.17466300 -0.19053300 0.17243900
v 0.17466300 -0.19053300 0.17243900
v 0.18794200 -0.18893000 0.17408400
v 0.18050300 -0.19637200 0.17408300
v 0.18050300 -0.19637200 0.17408300
v 0.19289200 -0.19388000 0.17876300
v 0.19289200 -0.19388000 0.17876300
v 0.18545300 -0.20132100 0.17876200
v 0.18545300 -0.20132100 0.17876200
v 0.18545300 -0.20132100 0.17876200
v 0.18876000 -0.20462800 0.18576300
v 0.18876000 -0.20462800 0.18576300
v 0.18992100 -0.20578900 0.19402200
v 0.18992100 -0.20578900 0.19402200
v 0.18875800 -0.20462700 0.20227900
v 0.18875800 -0.20462700 0.20227900
v 0.18544800 -0.20131900 0.20927900
v 0.18544800 -0.20131900 0.20927900
v 0.18544800 -0.20131900 0.20927900
v 0.18793600 -0.18892800 0.21395700
v 0.18049700 -0.19636900 0.21395600
v 0.18049700 -0.19636900 0.21395600
v 0.18209500 -0.18308900 0.21559800
v 0.17465600 -0.19053100 0.21559700
v 0.17465600 -0.19053100 0.21559700
v 0.17625600 -0.17725100 0.21395400
v 0.17625600 -0.17725100 0.21395400
v 0.16881700 -0.18469200 0.21395300
v 0.16881700 -0.18469200 0.21395300
v 0.16386600 -0.17974300 0.20927500
v 0.16386600 -0.17974300 0.20927500
v 0.16386600 -0.17974300 0.20927500
v 0.16055900 -0.17643600 0.20227300
v 0.16055900 -0.17643600 0.20227300
v 0.16227900 -0.17798800 0.18671500
v 0.16227900 -0.17798800 0.18671500
v 0.16227900 -0.17798800 0.18671500
v 0.16125100 -0.17696100 0.19401500
v 0.16125100 -0.17696100 0.19401500
v 0.16520500 -0.18091200 0.18052600
v 0.16520500 -0.18091200 0.18052600
v 0.16958200 -0.18528800 0.17639200
v 0.16958200 -0.18528800 0.17639200
v 0.16958200 -0.18528800 0.17639200
v 0.17474600 -0.19045000 0.17494100
v 0.17474600 -0.19045000 0.17494100
v 0.17990900 -0.19561200 0.17639400
v 0.17990900 -0.19561200 0.17639400
v 0.17990900 -0.19561200 0.17639400
v 0.18428500 -0.19998700 0.18053000
v 0.18428500 -0.19998700 0.18053000
v 0.18720900 -0.20291100 0.18672000
v 0.18720900 -0.20291100 0.18672000
v 0.18720900 -0.20291100 0.18672000
v 0.18823400 -0.20393700 0.19402100
v 0.18823400 -0.20393700 0.19402100
v 0.18720600 -0.20291000 0.20132200
v 0.18720600 -0.20291000 0.20132200
v 0.18720600 -0.20291000 0.20132200
v 0.18428100 -0.19998500 0.20751000
v 0.18428100 -0.19998500 0.20751000
v 0.17990300 -0.19560900 0.21164500
v 0.17990300 -0.19560900 0.21164500
v 0.17990300 -0.19560900 0.21164500
v 0.17474000 -0.19044800 0.21309600
v 0.17474000 -0.19044800 0.21309600
v 0.16957700 -0.18528600 0.21164200
v 0.16957700 -0.18528600 0.21164200
v 0.16957700 -0.18528600 0.21164200
v 0.16520100 -0.18091100 0.20750600
v 0.16520100 -0.18091100 0.20750600
v 0.16227700 -0.17798700 0.20131600
v 0.16227700 -0.17798700 0.20131600
v 0.16227700 -0.17798700 0.20131600
v 0.16218500 -0.17991400 0.18725100
v 0.16218500 -0.17991400 0.18725100
v 0.16218500 -0.17991400 0.18725100
v 0.16123200 -0.17896200 0.19401500
v 0.16123200 -0.17896200 0.19401500
v 0.16489600 -0.18262300 0.18151700
v 0.16489600 -0.18262300 0.18151700
v 0.16895200 -0.18667800 0.17768700
v 0.16895200 -0.18667800 0.17768700
v 0.16895200 -0.18667800 0.17768700
v 0.17373600 -0.19146000 0.17634200
v 0.17373600 -0.19146000 0.17634200
v 0.17851900 -0.19624200 0.17768900
v 0.17851900 -0.19624200 0.17768900
v 0.17851900 -0.19624200 0.17768900
v 0.18257400 -0.20029700 0.18152100
v 0.18257400 -0.20029700 0.18152100
v 0.18528300 -0.20300500 0.18725600
v 0.18528300 -0.20300500 0.18725600
v 0.18528300 -0.20300500 0.18725600
v 0.18623300 -0.20395600 0.19402100
v 0.18623300 -0.20395600 0.19402100
v 0.18528100 -0.20300400 0.20078500
v 0.18528100 -0.20300400 0.20078500
v 0.18528100 -0.20300400 0.20078500
v 0.18257000 -0.20029500 0.20651900
v 0.18257000 -0.20029500 0.20651900
v 0.17851400 -0.19624000 0.21035000
v 0.17851400 -0.19624000 0.21035000
v 0.17851400 -0.19624000 0.21035000
v 0.17373000 -0.19145800 0.21169400
v 0.17373000 -0.19145800 0.21169400
v 0.16894700 -0.18667600 0.21034700
v 0.16894700 -0.18667600 0.21034700
v 0.16894700 -0.18667600 0.21034700
v 0.16489200 -0.18262200 0.20651500
v 0.16489200 -0.18262200 0.20651500
v 0.16218300 -0.17991300 0.20078000
v 0.16218300 -0.17991300 0.20078000
v 0.16218300 -0.17991300 0.20078000
v 0.16366800 -0.17333000 0.18575700
v 0.16697700 -0.17663800 0.17875700
v 0.16697700 -0.17663800 0.17875700
v 0.17192900 -0.18158700 0.17408100
v 0.17776900 -0.18742600 0.17243900
v 0.18360900 -0.19326400 0.17408300
v 0.18856000 -0.19821400 0.17876200
v 0.18856000 -0.19821400 0.17876200
v 0.19186700 -0.20152000 0.18576400
v 0.19302700 -0.20268100 0.19402200
v 0.19186400 -0.20151900 0.20228000
v 0.18855500 -0.19821200 0.20928000
v 0.18855500 -0.19821200 0.20928000
v 0.18360300 -0.19326200 0.21395600
v 0.17776300 -0.18742300 0.21559800
v 0.17192300 -0.18158500 0.21395400
v 0.17192300 -0.18158500 0.21395400
v 0.17192300 -0.18158500 0.21395400
v 0.19736000 -0.19834700 0.19402200
v 0.19619900 -0.19718700 0.18576400
v 0.19288800 -0.19387800 0.20928000
v 0.19288800 -0.19387800 0.20928000
v 0.19619700 -0.19718500 0.20228000
vn -0.55960000 0.55940000 0.61150000
vn -0.55960000 0.55940000 0.61150000
vn 0.73250000 0.68020000 -0.02860000
vn -0.68250000 0.68230000 0.26220000
vn 0.73830000 0.67440000 -0.01220000
vn 0.73910000 0.67350000 0.00600000
vn -0.70150000 0.70130000 -0.12710000
vn -0.61370000 0.61350000 -0.49700000
vn 0.73500000 0.67760000 0.02340000
vn 0.72650000 0.68610000 0.03720000
vn -0.43240000 0.43240000 -0.79120000
vn -0.43240000 0.43240000 -0.79120000
vn 0.71490000 0.69770000 0.04530000
vn -0.18540000 0.18540000 -0.96500000
vn 0.08990000 -0.08980000 -0.99190000
vn 0.70200000 0.71060000 0.04660000
vn 0.68970000 0.72290000 0.04080000
vn 0.35150000 -0.35130000 -0.86780000
vn 0.55960000 -0.55940000 -0.61150000
vn 0.55960000 -0.55940000 -0.61150000
vn 0.68000000 0.73270000 0.02880000
vn 0.68250000 -0.68230000 -0.26220000
vn 0.67420000 0.73840000 0.01240000
vn 0.70150000 -0.70130000 0.12710000
vn 0.67330000 0.73930000 -0.00590000
vn 0.67740000 0.73520000 -0.02330000
vn 0.61370000 -0.61350000 0.49700000
vn 0.43240000 -0.43240000 0.79120000
vn 0.43240000 -0.43240000 0.79120000
vn 0.68590000 0.72670000 -0.03710000
vn 0.18540000 -0.18540000 0.96500000
vn 0.69750000 0.71510000 -0.04520000
vn -0.08990000 0.08980000 0.99190000
vn 0.71040000 0.70220000 -0.04650000
vn -0.35150000 0.35130000 0.86780000
vn 0.72270000 0.68990000 -0.04060000
vn 0.00800000 0.98230000 0.18720000
vn 0.00800000 0.98230000 0.18720000
vn 0.73830000 0.67440000 -0.01220000
vn 0.09580000 0.89460000 0.43650000
vn 0.73250000 0.68020000 -0.02860000
vn 0.73910000 0.67350000 0.00600000
vn -0.00550000 0.99590000 -0.09070000
vn -0.00550000 0.99590000 -0.09070000
vn 0.73500000 0.67760000 0.02340000
vn 0.05720000 0.93320000 -0.35470000
vn 0.18650000 0.80390000 -0.56470000
vn 0.72650000 0.68610000 0.03720000
vn 0.36290000 0.62760000 -0.68880000
vn 0.71490000 0.69770000 0.04530000
vn 0.36290000 0.62760000 -0.68880000
vn 0.70200000 0.71060000 0.04660000
vn 0.55940000 0.43120000 -0.70790000
vn 0.55940000 0.43120000 -0.70790000
vn 0.74610000 0.24450000 -0.61930000
vn 0.68970000 0.72290000 0.04080000
vn 0.68000000 0.73270000 0.02880000
vn 0.89460000 0.09610000 -0.43640000
vn 0.98230000 0.00830000 -0.18710000
vn 0.98230000 0.00830000 -0.18710000
vn 0.67420000 0.73840000 0.01240000
vn 0.67330000 0.73930000 -0.00590000
vn 0.99590000 -0.00520000 0.09080000
vn 0.99590000 -0.00520000 0.09080000
vn 0.67740000 0.73520000 -0.02330000
vn 0.93320000 0.05740000 0.35480000
vn 0.80380000 0.18670000 0.56480000
vn 0.68590000 0.72670000 -0.03710000
vn 0.69750000 0.71510000 -0.04520000
vn 0.62750000 0.36300000 0.68890000
vn 0.62750000 0.36300000 0.68890000
vn 0.71040000 0.70220000 -0.04650000
vn 0.43100000 0.55940000 0.70800000
vn 0.43100000 0.55940000 0.70800000
vn 0.72270000 0.68990000 -0.04060000
vn 0.24430000 0.74610000 0.61940000
vn 0.00800000 0.98230000 0.18720000
vn 0.00800000 0.98230000 0.18720000
vn 0.70700000 0.70720000 0.00010000
vn 0.09580000 0.89460000 0.43650000
vn 0.70700000 0.70720000 0.00010000
vn -0.00550000 0.99590000 -0.09070000
vn -0.00550000 0.99590000 -0.09070000
vn 0.70700000 0.70720000 0.00010000
vn 0.05720000 0.93320000 -0.35470000
vn 0.70700000 0.70720000 0.00010000
vn 0.70700000 0.70720000 0.00010000
vn 0.18650000 0.80390000 -0.56470000
vn 0.36290000 0.62760000 -0.68880000
vn 0.36290000 0.62760000 -0.68880000
vn 0.70700000 0.70720000 0.00010000
vn 0.55940000 0.43120000 -0.70790000
vn 0.55940000 0.43120000 -0.70790000
vn 0.70700000 0.70720000 0.00010000
vn 0.74610000 0.24450000 -0.61930000
vn 0.70700000 0.70720000 0.00010000
vn 0.89460000 0.09610000 -0.43640000
vn 0.70700000 0.70720000 0.00010000
vn 0.98230000 0.00830000 -0.18710000
vn 0.98230000 0.00830000 -0.18710000
vn 0.70700000 0.70720000 0.00010000
vn 0.70700000 0.70720000 0.00010000
vn 0.99590000 -0.00520000 0.09080000
vn 0.99590000 -0.00520000 0.09080000
vn 0.70700000 0.70720000 0.00010000
vn 0.93320000 0.05740000 0.35480000
vn 0.80380000 0.18670000 0.56480000
vn 0.70700000 0.70720000 0.00010000
vn 0.62750000 0.36300000 0.68890000
vn 0.62750000 0.36300000 0.68890000
vn 0.70700000 0.70720000 0.00010000
vn 0.43100000 0.55940000 0.70800000
vn 0.43100000 0.55940000 0.70800000
vn 0.70700000 0.70720000 0.00010000
vn 0.70700000 0.70720000 0.00010000
vn 0.24430000 0.74610000 0.61940000
vn -0.55960000 0.55940000 0.61150000
vn -0.55960000 0.55940000 0.61150000
vn -0.68250000 0.68230000 0.26220000
vn -0.70150000 0.70130000 -0.12710000
vn -0.61370000 0.61350000 -0.49700000
vn -0.43240000 0.43240000 -0.79120000
vn -0.43240000 0.43240000 -0.79120000
vn -0.18540000 0.18540000 -0.96500000
vn 0.69840000 0.71490000 0.03430000
vn -0.29740000 0.29740000 -0.90720000
vn 0.04330000 -0.04320000 -0.99810000
vn 0.69460000 0.71890000 0.02710000
vn 0.35150000 -0.35130000 -0.86780000
vn 0.55960000 -0.55940000 -0.61150000
vn 0.55960000 -0.55940000 -0.61150000
vn 0.68740000 0.72610000 0.01540000
vn 0.68840000 0.72510000 0.01590000
vn 0.68250000 -0.68230000 -0.26220000
vn 0.70150000 -0.70130000 0.12710000
vn 0.68440000 0.72910000 -0.00270000
vn 0.58910000 -0.58890000 0.55330000
vn 0.38710000 -0.38710000 0.83680000
vn 0.68170000 0.73160000 -0.01170000
vn 0.43240000 -0.43240000 0.79120000
vn 0.43240000 -0.43240000 0.79120000
vn 0.18540000 -0.18540000 0.96500000
vn -0.08990000 0.08980000 0.99190000
vn -0.35150000 0.35130000 0.86780000
vn -0.29740000 0.29740000 -0.90720000
vn 0.68890000 0.72470000 0.01650000
vn -0.70560000 0.70550000 -0.06630000
vn 0.68740000 0.72610000 0.01540000
vn -0.65340000 0.65320000 0.38250000
vn 0.68850000 0.72510000 0.01590000
vn -0.50020000 0.50000000 0.70700000
vn -0.50020000 0.50000000 0.70700000
vn -0.70720000 0.70700000 -0.00020000
vn 0.73940000 0.67330000 0.00010000
vn 0.73690000 0.67580000 0.01800000
vn -0.65330000 0.65320000 -0.38280000
vn -0.50000000 0.49990000 -0.70720000
vn 0.72970000 0.68300000 0.03320000
vn -0.50000000 0.49990000 -0.70720000
vn -0.27050000 0.27050000 -0.92390000
vn 0.71890000 0.69370000 0.04340000
vn 0.70620000 0.70640000 0.04700000
vn 0.00020000 -0.00010000 -1.00000000
vn 0.27080000 -0.27060000 -0.92380000
vn 0.69350000 0.71910000 0.04340000
vn 0.50020000 -0.50000000 -0.70700000
vn 0.50020000 -0.50000000 -0.70700000
vn 0.68280000 0.72990000 0.03320000
vn 0.65340000 -0.65320000 -0.38250000
vn 0.67560000 0.73710000 0.01800000
vn 0.67300000 0.73960000 0.00010000
vn 0.70720000 -0.70700000 0.00020000
vn 0.67560000 0.73710000 -0.01790000
vn 0.65330000 -0.65320000 0.38280000
vn 0.50000000 -0.49990000 0.70720000
vn 0.68280000 0.72990000 -0.03310000
vn 0.50000000 -0.49990000 0.70720000
vn 0.69350000 0.71910000 -0.04330000
vn 0.27050000 -0.27050000 0.92390000
vn 0.70620000 0.70640000 -0.04690000
vn -0.00020000 0.00010000 1.00000000
vn -0.27080000 0.27060000 0.92380000
vn 0.71890000 0.69370000 -0.04330000
vn -0.50020000 0.50000000 0.70700000
vn -0.50020000 0.50000000 0.70700000
vn 0.72970000 0.68300000 -0.03310000
vn -0.65340000 0.65320000 0.38250000
vn 0.73690000 0.67580000 -0.01790000
vn 0.73690000 0.67580000 0.01800000
vn 0.02890000 0.96150000 -0.27320000
vn 0.02890000 0.96150000 -0.27320000
vn -0.00960000 1.00000000 -0.00010000
vn 0.73940000 0.67330000 0.00010000
vn 0.13830000 0.85210000 -0.50470000
vn 0.72970000 0.68300000 0.03320000
vn 0.71890000 0.69370000 0.04340000
vn 0.30210000 0.68840000 -0.65940000
vn 0.30210000 0.68840000 -0.65940000
vn 0.70620000 0.70640000 0.04700000
vn 0.49530000 0.49530000 -0.71370000
vn 0.69350000 0.71910000 0.04340000
vn 0.68850000 0.30220000 -0.65930000
vn 0.68850000 0.30220000 -0.65930000
vn 0.68280000 0.72990000 0.03320000
vn 0.85220000 0.13850000 -0.50460000
vn 0.96160000 0.02910000 -0.27300000
vn 0.67560000 0.73710000 0.01800000
vn 0.96160000 0.02910000 -0.27300000
vn 0.67300000 0.73960000 0.00010000
vn 1.00000000 -0.00930000 0.00020000
vn 0.67560000 0.73710000 -0.01790000
vn 0.96150000 0.02910000 0.27330000
vn 0.96150000 0.02910000 0.27330000
vn 0.68280000 0.72990000 -0.03310000
vn 0.85200000 0.13850000 0.50480000
vn 0.69350000 0.71910000 -0.04330000
vn 0.68820000 0.30220000 0.65950000
vn 0.68820000 0.30220000 0.65950000
vn 0.70620000 0.70640000 -0.04690000
vn 0.49510000 0.49540000 0.71380000
vn 0.71890000 0.69370000 -0.04330000
vn 0.30190000 0.68850000 0.65940000
vn 0.30190000 0.68850000 0.65940000
vn 0.72970000 0.68300000 -0.03310000
vn 0.13820000 0.85220000 0.50470000
vn 0.02880000 0.96160000 0.27310000
vn 0.73690000 0.67580000 -0.01790000
vn 0.02880000 0.96160000 0.27310000
vn 0.02890000 0.96150000 -0.27320000
vn 0.70700000 0.70720000 0.00010000
vn 0.02890000 0.96150000 -0.27320000
vn -0.00960000 1.00000000 -0.00010000
vn 0.70700000 0.70720000 0.00010000
vn 0.70700000 0.70720000 0.00010000
vn 0.13830000 0.85210000 -0.50470000
vn 0.70700000 0.70720000 0.00010000
vn 0.30210000 0.68840000 -0.65940000
vn 0.30210000 0.68840000 -0.65940000
vn 0.70700000 0.70720000 0.00010000
vn 0.49530000 0.49530000 -0.71370000
vn 0.68850000 0.30220000 -0.65930000
vn 0.70700000 0.70720000 0.00010000
vn 0.68850000 0.30220000 -0.65930000
vn 0.70700000 0.70720000 0.00010000
vn 0.85220000 0.13850000 -0.50460000
vn 0.96160000 0.02910000 -0.27300000
vn 0.96160000 0.02910000 -0.27300000
vn 0.70700000 0.70720000 0.00010000
vn 0.70700000 0.70720000 0.00010000
vn 1.00000000 -0.00930000 0.00020000
vn 0.96150000 0.02910000 0.27330000
vn 0.96150000 0.02910000 0.27330000
vn 0.70700000 0.70720000 0.00010000
vn 0.70700000 0.70720000 0.00010000
vn 0.85200000 0.13850000 0.50480000
vn 0.70700000 0.70720000 0.00010000
vn 0.68820000 0.30220000 0.65950000
vn 0.68820000 0.30220000 0.65950000
vn 0.70700000 0.70720000 0.00010000
vn 0.49510000 0.49540000 0.71380000
vn 0.30190000 0.68850000 0.65940000
vn 0.70700000 0.70720000 0.00010000
vn 0.30190000 0.68850000 0.65940000
vn 0.13820000 0.85220000 0.50470000
vn 0.70700000 0.70720000 0.00010000
vn 0.70700000 0.70720000 0.00010000
vn 0.02880000 0.96160000 0.27310000
vn 0.02880000 0.96160000 0.27310000
vn -0.65330000 0.65320000 -0.38280000
vn -0.50000000 0.49990000 -0.70720000
vn -0.50000000 0.49990000 -0.70720000
vn -0.27050000 0.27050000 -0.92390000
vn 0.00020000 -0.00010000 -1.00000000
vn 0.27080000 -0.27060000 -0.92380000
vn 0.50020000 -0.50000000 -0.70700000
vn 0.50020000 -0.50000000 -0.70700000
vn 0.65340000 -0.65320000 -0.38250000
vn 0.70720000 -0.70700000 0.00020000
vn 0.65330000 -0.65320000 0.38280000
vn 0.50000000 -0.49990000 0.70720000
vn 0.50000000 -0.49990000 0.70720000
vn 0.27050000 -0.27050000 0.92390000
vn -0.00020000 0.00010000 1.00000000
vn -0.22700000 0.22680000 0.94710000
vn 0.68880000 0.72480000 0.01290000
vn 0.38710000 -0.38710000 0.83680000
vn -0.55960000 0.55940000 0.61150000
vn -0.55960000 0.55940000 0.61150000
vn -0.55960000 0.55940000 0.61150000
vn -0.55960000 0.55940000 0.61150000
vn -0.68000000 -0.73270000 -0.02880000
vn -0.68250000 0.68230000 0.26220000
vn -0.68250000 0.68230000 0.26220000
vn -0.67420000 -0.73840000 -0.01240000
vn -0.70150000 0.70130000 -0.12710000
vn -0.67330000 -0.73930000 0.00590000
vn -0.70150000 0.70130000 -0.12710000
vn -0.61370000 0.61350000 -0.49700000
vn -0.61370000 0.61350000 -0.49700000
vn -0.67740000 -0.73520000 0.02330000
vn -0.43240000 0.43240000 -0.79120000
vn -0.43240000 0.43240000 -0.79120000
vn -0.43240000 0.43240000 -0.79120000
vn -0.43240000 0.43240000 -0.79120000
vn -0.68590000 -0.72670000 0.03710000
vn -0.18540000 0.18540000 -0.96500000
vn -0.69750000 -0.71510000 0.04520000
vn -0.18540000 0.18540000 -0.96500000
vn -0.29740000 0.29740000 -0.90720000
vn -0.04870000 0.04870000 -0.99760000
vn 0.08990000 -0.08980000 -0.99190000
vn -0.71050000 -0.70220000 0.04650000
vn -0.72270000 -0.68990000 0.04070000
vn 0.35150000 -0.35130000 -0.86780000
vn 0.55960000 -0.55940000 -0.61150000
vn 0.55960000 -0.55940000 -0.61150000
vn -0.73250000 -0.68020000 0.02860000
vn 0.68250000 -0.68230000 -0.26220000
vn -0.73820000 -0.67440000 0.01220000
vn 0.70150000 -0.70130000 0.12710000
vn -0.73910000 -0.67350000 -0.00600000
vn 0.38710000 -0.38710000 0.83680000
vn 0.53330000 -0.53320000 0.65670000
vn 0.61370000 -0.61350000 0.49700000
vn -0.73500000 -0.67760000 -0.02340000
vn 0.43240000 -0.43240000 0.79120000
vn 0.43240000 -0.43240000 0.79120000
vn 0.43240000 -0.43240000 0.79120000
vn 0.43240000 -0.43240000 0.79120000
vn -0.72650000 -0.68610000 -0.03720000
vn 0.18540000 -0.18540000 0.96500000
vn 0.18540000 -0.18540000 0.96500000
vn -0.71490000 -0.69770000 -0.04540000
vn -0.08990000 0.08980000 0.99190000
vn -0.70200000 -0.71060000 -0.04660000
vn -0.08990000 0.08980000 0.99190000
vn -0.35150000 0.35130000 0.86780000
vn -0.68970000 -0.72290000 -0.04080000
vn -0.35150000 0.35130000 0.86780000
vn -0.98230000 -0.00830000 0.18710000
vn -0.98230000 -0.00830000 0.18710000
vn -0.67420000 -0.73840000 -0.01240000
vn -0.68000000 -0.73270000 -0.02880000
vn -0.89460000 -0.09610000 0.43640000
vn -0.99590000 0.00520000 -0.09080000
vn -0.99590000 0.00520000 -0.09080000
vn -0.67330000 -0.73930000 0.00590000
vn -0.67740000 -0.73520000 0.02330000
vn -0.93320000 -0.05740000 -0.35480000
vn -0.80380000 -0.18670000 -0.56480000
vn -0.68590000 -0.72670000 0.03710000
vn -0.62750000 -0.36300000 -0.68890000
vn -0.62750000 -0.36300000 -0.68890000
vn -0.69750000 -0.71510000 0.04520000
vn -0.43100000 -0.55940000 -0.70800000
vn -0.43100000 -0.55940000 -0.70800000
vn -0.71050000 -0.70220000 0.04650000
vn -0.72270000 -0.68990000 0.04070000
vn -0.24430000 -0.74610000 -0.61940000
vn -0.73250000 -0.68020000 0.02860000
vn -0.09570000 -0.89460000 -0.43650000
vn -0.00800000 -0.98230000 -0.18720000
vn -0.73820000 -0.67440000 0.01220000
vn -0.00800000 -0.98230000 -0.18720000
vn -0.73910000 -0.67350000 -0.00600000
vn 0.00550000 -0.99590000 0.09070000
vn 0.00550000 -0.99590000 0.09070000
vn -0.05720000 -0.93320000 0.35470000
vn -0.73500000 -0.67760000 -0.02340000
vn -0.18650000 -0.80390000 0.56470000
vn -0.72650000 -0.68610000 -0.03720000
vn -0.71490000 -0.69770000 -0.04540000
vn -0.36290000 -0.62760000 0.68880000
vn -0.36290000 -0.62760000 0.68880000
vn -0.55940000 -0.43120000 0.70790000
vn -0.55940000 -0.43120000 0.70790000
vn -0.70200000 -0.71060000 -0.04660000
vn -0.74610000 -0.24450000 0.61930000
vn -0.68970000 -0.72290000 -0.04080000
vn -0.98230000 -0.00830000 0.18710000
vn -0.70700000 -0.70720000 -0.00010000
vn -0.98230000 -0.00830000 0.18710000
vn -0.89460000 -0.09610000 0.43640000
vn -0.70700000 -0.70720000 -0.00010000
vn -0.99590000 0.00520000 -0.09080000
vn -0.70700000 -0.70720000 -0.00010000
vn -0.99590000 0.00520000 -0.09080000
vn -0.70700000 -0.70720000 -0.00010000
vn -0.93320000 -0.05740000 -0.35480000
vn -0.70700000 -0.70720000 -0.00010000
vn -0.80380000 -0.18670000 -0.56480000
vn -0.70700000 -0.70720000 -0.00010000
vn -0.62750000 -0.36300000 -0.68890000
vn -0.62750000 -0.36300000 -0.68890000
vn -0.43100000 -0.55940000 -0.70800000
vn -0.70700000 -0.70720000 -0.00010000
vn -0.43100000 -0.55940000 -0.70800000
vn -0.24430000 -0.74610000 -0.61940000
vn -0.70700000 -0.70720000 -0.00010000
vn -0.70700000 -0.70720000 -0.00010000
vn -0.09570000 -0.89460000 -0.43650000
vn -0.70700000 -0.70720000 -0.00010000
vn -0.00800000 -0.98230000 -0.18720000
vn -0.00800000 -0.98230000 -0.18720000
vn 0.00550000 -0.99590000 0.09070000
vn 0.00550000 -0.99590000 0.09070000
vn -0.70700000 -0.70720000 -0.00010000
vn -0.05720000 -0.93320000 0.35470000
vn -0.70700000 -0.70720000 -0.00010000
vn -0.70700000 -0.70720000 -0.00010000
vn -0.18650000 -0.80390000 0.56470000
vn -0.70700000 -0.70720000 -0.00010000
vn -0.36290000 -0.62760000 0.68880000
vn -0.36290000 -0.62760000 0.68880000
vn -0.55940000 -0.43120000 0.70790000
vn -0.55940000 -0.43120000 0.70790000
vn -0.70700000 -0.70720000 -0.00010000
vn -0.74610000 -0.24450000 0.61930000
vn -0.70700000 -0.70720000 -0.00010000
vn -0.55960000 0.55940000 0.61150000
vn -0.55960000 0.55940000 0.61150000
vn -0.68250000 0.68230000 0.26220000
vn -0.70150000 0.70130000 -0.12710000
vn -0.61370000 0.61350000 -0.49700000
vn -0.43240000 0.43240000 -0.79120000
vn -0.43240000 0.43240000 -0.79120000
vn -0.18540000 0.18540000 -0.96500000
vn -0.29740000 0.29740000 -0.90720000
vn 0.04330000 -0.04320000 -0.99810000
vn -0.71470000 -0.69860000 0.03420000
vn -0.71870000 -0.69480000 0.02700000
vn 0.35150000 -0.35130000 -0.86780000
vn 0.55960000 -0.55940000 -0.61150000
vn 0.55960000 -0.55940000 -0.61150000
vn -0.72590000 -0.68760000 0.01530000
vn -0.72500000 -0.68860000 0.01580000
vn 0.68250000 -0.68230000 -0.26220000
vn -0.72890000 -0.68460000 -0.00280000
vn 0.70150000 -0.70130000 0.12710000
vn 0.58910000 -0.58890000 0.55330000
vn -0.73140000 -0.68190000 -0.01190000
vn 0.38710000 -0.38710000 0.83680000
vn 0.43240000 -0.43240000 0.79120000
vn 0.43240000 -0.43240000 0.79120000
vn 0.18540000 -0.18540000 0.96500000
vn -0.08990000 0.08980000 0.99190000
vn -0.35150000 0.35130000 0.86780000
vn -0.72450000 -0.68910000 0.01640000
vn -0.70560000 0.70550000 -0.06630000
vn -0.29740000 0.29740000 -0.90720000
vn -0.72590000 -0.68760000 0.01530000
vn -0.65340000 0.65320000 0.38250000
vn -0.50020000 0.50000000 0.70700000
vn -0.50020000 0.50000000 0.70700000
vn -0.72490000 -0.68870000 0.01580000
vn -0.29740000 0.29740000 -0.90720000
vn -0.69360000 0.69340000 -0.19520000
vn -0.70720000 0.70700000 -0.00020000
vn -0.67300000 -0.73960000 -0.00010000
vn -0.65330000 0.65320000 -0.38280000
vn -0.65330000 0.65320000 -0.38280000
vn -0.67560000 -0.73710000 0.01790000
vn -0.50000000 0.49990000 -0.70720000
vn -0.50000000 0.49990000 -0.70720000
vn -0.50000000 0.49990000 -0.70720000
vn -0.50000000 0.49990000 -0.70720000
vn -0.68280000 -0.72990000 0.03310000
vn -0.27050000 0.27050000 -0.92390000
vn -0.69350000 -0.71910000 0.04330000
vn -0.27050000 0.27050000 -0.92390000
vn 0.00020000 -0.00010000 -1.00000000
vn 0.00020000 -0.00010000 -1.00000000
vn -0.70620000 -0.70640000 0.04690000
vn 0.27080000 -0.27060000 -0.92380000
vn 0.27080000 -0.27060000 -0.92380000
vn -0.71890000 -0.69370000 0.04330000
vn 0.50020000 -0.50000000 -0.70700000
vn 0.50020000 -0.50000000 -0.70700000
vn 0.50020000 -0.50000000 -0.70700000
vn 0.50020000 -0.50000000 -0.70700000
vn -0.72970000 -0.68300000 0.03310000
vn 0.65340000 -0.65320000 -0.38250000
vn -0.73690000 -0.67580000 0.01790000
vn 0.70720000 -0.70700000 0.00020000
vn -0.73940000 -0.67330000 -0.00010000
vn 0.65330000 -0.65320000 0.38280000
vn -0.73690000 -0.67580000 -0.01800000
vn -0.72970000 -0.68300000 -0.03320000
vn 0.50000000 -0.49990000 0.70720000
vn 0.50000000 -0.49990000 0.70720000
vn 0.27050000 -0.27050000 0.92390000
vn 0.27050000 -0.27050000 0.92390000
vn -0.71890000 -0.69370000 -0.04340000
vn -0.00020000 0.00010000 1.00000000
vn -0.70620000 -0.70640000 -0.04700000
vn -0.00020000 0.00010000 1.00000000
vn -0.13810000 0.13800000 0.98080000
vn 0.38710000 -0.38710000 0.83680000
vn -0.27080000 0.27060000 0.92380000
vn -0.69350000 -0.71910000 -0.04340000
vn -0.50020000 0.50000000 0.70700000
vn -0.50020000 0.50000000 0.70700000
vn -0.68280000 -0.72990000 -0.03320000
vn -0.65340000 0.65320000 0.38250000
vn -0.67560000 -0.73710000 -0.01800000
vn -0.96150000 -0.02910000 -0.27330000
vn -0.67560000 -0.73710000 0.01790000
vn -0.96150000 -0.02910000 -0.27330000
vn -0.67300000 -0.73960000 -0.00010000
vn -1.00000000 0.00930000 -0.00020000
vn -0.68280000 -0.72990000 0.03310000
vn -0.85200000 -0.13850000 -0.50480000
vn -0.68820000 -0.30220000 -0.65950000
vn -0.69350000 -0.71910000 0.04330000
vn -0.68820000 -0.30220000 -0.65950000
vn -0.49510000 -0.49540000 -0.71380000
vn -0.70620000 -0.70640000 0.04690000
vn -0.30190000 -0.68850000 -0.65940000
vn -0.30190000 -0.68850000 -0.65940000
vn -0.71890000 -0.69370000 0.04330000
vn -0.13820000 -0.85220000 -0.50470000
vn -0.72970000 -0.68300000 0.03310000
vn -0.73690000 -0.67580000 0.01790000
vn -0.02880000 -0.96160000 -0.27310000
vn -0.02880000 -0.96160000 -0.27310000
vn 0.00960000 -1.00000000 0.00010000
vn -0.73940000 -0.67330000 -0.00010000
vn -0.73690000 -0.67580000 -0.01800000
vn -0.02890000 -0.96150000 0.27320000
vn -0.02890000 -0.96150000 0.27320000
vn -0.13830000 -0.85210000 0.50470000
vn -0.72970000 -0.68300000 -0.03320000
vn -0.71890000 -0.69370000 -0.04340000
vn -0.30210000 -0.68840000 0.65940000
vn -0.30210000 -0.68840000 0.65940000
vn -0.49530000 -0.49530000 0.71370000
vn -0.70620000 -0.70640000 -0.04700000
vn -0.68850000 -0.30220000 0.65930000
vn -0.68850000 -0.30220000 0.65930000
vn -0.69350000 -0.71910000 -0.04340000
vn -0.68280000 -0.72990000 -0.03320000
vn -0.85220000 -0.13850000 0.50460000
vn -0.67560000 -0.73710000 -0.01800000
vn -0.96160000 -0.02910000 0.27300000
vn -0.96160000 -0.02910000 0.27300000
vn -0.96150000 -0.02910000 -0.27330000
vn -0.96150000 -0.02910000 -0.27330000
vn -0.70700000 -0.70720000 -0.00010000
vn -1.00000000 0.00930000 -0.00020000
vn -0.70700000 -0.70720000 -0.00010000
vn -0.70700000 -0.70720000 -0.00010000
vn -0.85200000 -0.13850000 -0.50480000
vn -0.68820000 -0.30220000 -0.65950000
vn -0.68820000 -0.30220000 -0.65950000
vn -0.70700000 -0.70720000 -0.00010000
vn -0.49510000 -0.49540000 -0.71380000
vn -0.70700000 -0.70720000 -0.00010000
vn -0.30190000 -0.68850000 -0.65940000
vn -0.70700000 -0.70720000 -0.00010000
vn -0.30190000 -0.68850000 -0.65940000
vn -0.13820000 -0.85220000 -0.50470000
vn -0.70700000 -0.70720000 -0.00010000
vn -0.70700000 -0.70720000 -0.00010000
vn -0.02880000 -0.96160000 -0.27310000
vn -0.02880000 -0.96160000 -0.27310000
vn -0.70700000 -0.70720000 -0.00010000
vn 0.00960000 -1.00000000 0.00010000
vn -0.02890000 -0.96150000 0.27320000
vn -0.02890000 -0.96150000 0.27320000
vn -0.70700000 -0.70720000 -0.00010000
vn -0.70700000 -0.70720000 -0.00010000
vn -0.13830000 -0.85210000 0.50470000
vn -0.30210000 -0.68840000 0.65940000
vn -0.70700000 -0.70720000 -0.00010000
vn -0.30210000 -0.68840000 0.65940000
vn -0.49530000 -0.49530000 0.71370000
vn -0.70700000 -0.70720000 -0.00010000
vn -0.68850000 -0.30220000 0.65930000
vn -0.70700000 -0.70720000 -0.00010000
vn -0.68850000 -0.30220000 0.65930000
vn -0.70700000 -0.70720000 -0.00010000
vn -0.85220000 -0.13850000 0.50460000
vn -0.70700000 -0.70720000 -0.00010000
vn -0.96160000 -0.02910000 0.27300000
vn -0.96160000 -0.02910000 0.27300000
vn -0.65330000 0.65320000 -0.38280000
vn -0.50000000 0.49990000 -0.70720000
vn -0.50000000 0.49990000 -0.70720000
vn -0.27050000 0.27050000 -0.92390000
vn 0.00020000 -0.00010000 -1.00000000
vn 0.27080000 -0.27060000 -0.92380000
vn 0.50020000 -0.50000000 -0.70700000
vn 0.50020000 -0.50000000 -0.70700000
vn 0.65340000 -0.65320000 -0.38250000
vn 0.70720000 -0.70700000 0.00020000
vn 0.65330000 -0.65320000 0.38280000
vn 0.50000000 -0.49990000 0.70720000
vn 0.50000000 -0.49990000 0.70720000
vn 0.27050000 -0.27050000 0.92390000
vn -0.00020000 0.00010000 1.00000000
vn -0.72460000 -0.68900000 0.01280000
vn 0.38710000 -0.38710000 0.83680000
vn -0.22700000 0.22680000 0.94710000
vn 0.70720000 -0.70700000 0.00020000
vn 0.65340000 -0.65320000 -0.38250000
vn 0.50000000 -0.49990000 0.70720000
vn 0.50000000 -0.49990000 0.70720000
vn 0.65330000 -0.65320000 0.38280000
vt 0.57978000 0.90633600
vt 0.87731300 0.90114100
vt 0.77791300 0.74370700
vt 0.57977300 0.91254200
vt 0.77153900 0.74107300
vt 0.76464100 0.74107300
vt 0.57977200 0.91941600
vt 0.57977800 0.92591100
vt 0.75826700 0.74370700
vt 0.75338900 0.74857500
vt 0.57978800 0.93103900
vt 0.79974400 0.72152400
vt 0.75074900 0.75493600
vt 0.79974400 0.71536000
vt 0.79974400 0.70849200
vt 0.75074900 0.76182000
vt 0.75338900 0.76818000
vt 0.79974400 0.70196500
vt 0.79974400 0.69677300
vt 0.86048300 0.48936000
vt 0.75826700 0.77304800
vt 0.86047600 0.48324100
vt 0.76464100 0.77568300
vt 0.86047500 0.47638000
vt 0.77153900 0.77568300
vt 0.77791300 0.77304800
vt 0.86048000 0.46982300
vt 0.87731300 0.92589200
vt 0.86048900 0.46456700
vt 0.78279100 0.76818000
vt 0.87731300 0.91972900
vt 0.78543100 0.76182000
vt 0.87731300 0.91286100
vt 0.78543100 0.75493500
vt 0.87731300 0.90633400
vt 0.78279100 0.74857500
vt 0.77114100 0.74307900
vt 0.32700400 0.65583500
vt 0.77114100 0.74307900
vt 0.77677500 0.74540800
vt 0.77677500 0.74540800
vt 0.76504200 0.74307900
vt 0.32700400 0.64975800
vt 0.76504200 0.74307900
vt 0.75940700 0.74540800
vt 0.75940700 0.74540800
vt 0.75509500 0.74971200
vt 0.75509500 0.74971200
vt 0.75276100 0.75533500
vt 0.75276100 0.75533500
vt 0.98570800 0.15437500
vt 0.75276100 0.76142100
vt 0.98570800 0.16044600
vt 0.75276100 0.76142100
vt 0.75509500 0.76704400
vt 0.75509500 0.76704400
vt 0.75940700 0.77134800
vt 0.75940700 0.77134800
vt 0.76504200 0.77367700
vt 0.14416300 0.98416000
vt 0.76504200 0.77367700
vt 0.77114100 0.77367700
vt 0.77114100 0.77367700
vt 0.14416300 0.99022500
vt 0.77677500 0.77134700
vt 0.77677500 0.77134700
vt 0.78108800 0.76704400
vt 0.78108800 0.76704400
vt 0.78342200 0.76142100
vt 0.98535800 0.19353800
vt 0.78342200 0.76142100
vt 0.78342200 0.75533400
vt 0.98535800 0.19961000
vt 0.78342200 0.75533400
vt 0.78108800 0.74971200
vt 0.78108800 0.74971200
vt 0.32583100 0.65555000
vt 0.77090000 0.74420200
vt 0.77090000 0.74420200
vt 0.77612100 0.74636000
vt 0.77612100 0.74636000
vt 0.32583100 0.64991900
vt 0.76524900 0.74420200
vt 0.76524900 0.74420200
vt 0.76002900 0.74636000
vt 0.76002900 0.74636000
vt 0.75603300 0.75034700
vt 0.75603300 0.75034700
vt 0.75387000 0.75555700
vt 0.98687800 0.15467500
vt 0.75387000 0.75555700
vt 0.75387000 0.76119600
vt 0.98687800 0.16030100
vt 0.75387000 0.76119600
vt 0.75603300 0.76640600
vt 0.75603300 0.76640600
vt 0.76002900 0.77039400
vt 0.76002900 0.77039400
vt 0.76524900 0.77255100
vt 0.14533000 0.98447700
vt 0.76524900 0.77255100
vt 0.77090000 0.77255100
vt 0.14533000 0.99009600
vt 0.77090000 0.77255100
vt 0.77612100 0.77039300
vt 0.77612100 0.77039300
vt 0.78011600 0.76640600
vt 0.78011600 0.76640600
vt 0.78227900 0.76119600
vt 0.98652800 0.19383900
vt 0.78227900 0.76119600
vt 0.98652800 0.19946400
vt 0.78227900 0.75555700
vt 0.78227900 0.75555700
vt 0.78011600 0.75034700
vt 0.78011600 0.75034700
vt 0.88091300 0.90114100
vt 0.57618000 0.90633600
vt 0.57617300 0.91254200
vt 0.57617200 0.91941600
vt 0.57617700 0.92591100
vt 0.80334400 0.72152400
vt 0.57618700 0.93103900
vt 0.80334400 0.71536000
vt 0.30882400 0.78010000
vt 0.80334400 0.70849200
vt 0.80334400 0.70849200
vt 0.30394600 0.77523200
vt 0.80334400 0.70196500
vt 0.80334400 0.69677300
vt 0.86408400 0.48936000
vt 0.29757200 0.77259700
vt 0.29067300 0.77259700
vt 0.86407600 0.48324100
vt 0.86407500 0.47638000
vt 0.28430000 0.77523200
vt 0.86408000 0.46982300
vt 0.72587200 0.73783400
vt 0.27942200 0.78010000
vt 0.88091300 0.92589200
vt 0.86409000 0.46456700
vt 0.88091300 0.91972900
vt 0.88091300 0.91286100
vt 0.88091300 0.90633400
vt 0.80236200 0.67274000
vt 0.30774900 0.74070000
vt 0.57883900 0.87196000
vt 0.29979100 0.74285900
vt 0.57884200 0.86386700
vt 0.29161100 0.74181400
vt 0.72685400 0.70897600
vt 0.57885300 0.85696000
vt 0.58314300 0.87196100
vt 0.02640200 0.68164500
vt 0.01878300 0.68479500
vt 0.58314600 0.88000900
vt 0.03041000 0.86640600
vt 0.01295200 0.69061400
vt 0.58315700 0.88678700
vt 0.03041000 0.87324900
vt 0.00979600 0.69821800
vt 0.00979600 0.70644700
vt 0.03041000 0.88132000
vt 0.03041000 0.88939200
vt 0.01295200 0.71405100
vt 0.03041000 0.89623500
vt 0.12076100 0.88649100
vt 0.01878300 0.71987000
vt 0.12075100 0.87971300
vt 0.02640200 0.72302000
vt 0.03464900 0.72302000
vt 0.12074700 0.87166500
vt 0.04226900 0.71987100
vt 0.12075100 0.86357100
vt 0.12076100 0.85666400
vt 0.04810000 0.71405100
vt 0.73115800 0.67914600
vt 0.05125600 0.70644800
vt 0.73115800 0.68598900
vt 0.05125600 0.69821800
vt 0.73115800 0.69406100
vt 0.73115800 0.70213300
vt 0.04810000 0.69061400
vt 0.73115800 0.70897600
vt 0.58315700 0.85696000
vt 0.04226900 0.68479500
vt 0.58314600 0.86386700
vt 0.03464900 0.68164500
vt 0.02014600 0.68682800
vt 0.02014600 0.68682800
vt 0.32583400 0.29200200
vt 0.32583100 0.28488600
vt 0.02688200 0.68404400
vt 0.01499100 0.69197200
vt 0.01499100 0.69197200
vt 0.01220100 0.69869500
vt 0.96583200 0.67665600
vt 0.01220100 0.69869500
vt 0.01220100 0.70597000
vt 0.96583200 0.66952000
vt 0.01499100 0.71269200
vt 0.96583200 0.66238400
vt 0.01499100 0.71269200
vt 0.02014600 0.71783700
vt 0.02014600 0.71783700
vt 0.02688200 0.72062200
vt 0.02688200 0.72062200
vt 0.58491900 0.96485900
vt 0.03417300 0.72062200
vt 0.58491600 0.95774400
vt 0.04090900 0.71783800
vt 0.04090900 0.71783800
vt 0.58491900 0.95058800
vt 0.04606400 0.71269300
vt 0.04606400 0.71269300
vt 0.04885500 0.70597100
vt 0.04885500 0.70597100
vt 0.80332800 0.14878800
vt 0.04885500 0.69869500
vt 0.80332800 0.14165200
vt 0.04606400 0.69197300
vt 0.80332800 0.13451600
vt 0.04606400 0.69197300
vt 0.04090900 0.68682800
vt 0.04090900 0.68682800
vt 0.32583400 0.27773100
vt 0.03417300 0.68404400
vt 0.03417300 0.68404400
vt 0.32723600 0.29146000
vt 0.02088900 0.68796800
vt 0.02088900 0.68796800
vt 0.32723300 0.28486700
vt 0.02713000 0.68538800
vt 0.01611200 0.69273500
vt 0.01611200 0.69273500
vt 0.01352700 0.69896300
vt 0.96443300 0.67613200
vt 0.01352700 0.69896300
vt 0.01352700 0.70570400
vt 0.96443300 0.66952000
vt 0.01611200 0.71193200
vt 0.01611200 0.71193200
vt 0.96443300 0.66290800
vt 0.02088900 0.71669900
vt 0.02088900 0.71669900
vt 0.58352200 0.96431700
vt 0.02713000 0.71927900
vt 0.02713000 0.71927900
vt 0.03388500 0.71927900
vt 0.58351900 0.95772400
vt 0.04012600 0.71669900
vt 0.58352200 0.95109500
vt 0.04012600 0.71669900
vt 0.04490300 0.71193300
vt 0.04490300 0.71193300
vt 0.04748800 0.70570500
vt 0.80192900 0.14826400
vt 0.04748800 0.70570500
vt 0.04748800 0.69896300
vt 0.80192900 0.14165200
vt 0.80192900 0.13504000
vt 0.04490300 0.69273500
vt 0.04490300 0.69273500
vt 0.04012600 0.68796800
vt 0.04012600 0.68796800
vt 0.03388500 0.68538800
vt 0.32723600 0.27823700
vt 0.03388500 0.68538800
vt 0.57884200 0.88000900
vt 0.02610600 0.86640600
vt 0.57885300 0.88678600
vt 0.02610600 0.87324900
vt 0.02610600 0.88132000
vt 0.02610600 0.88939200
vt 0.02610600 0.89623500
vt 0.12506500 0.88649100
vt 0.12505500 0.87971300
vt 0.12505100 0.87166500
vt 0.12505500 0.86357100
vt 0.12506500 0.85666500
vt 0.72685400 0.67914600
vt 0.72685400 0.68598900
vt 0.72685400 0.69406100
vt 0.72685400 0.70213300
vt 0.28445300 0.73772500
vt 0.72685400 0.70213300
vt 0.57115800 0.90633600
vt 0.88593500 0.90114100
vt 0.89455700 0.90114100
vt 0.56253600 0.90633600
vt 0.42904400 0.75110900
vt 0.57115100 0.91254200
vt 0.56252900 0.91254200
vt 0.43392200 0.74624200
vt 0.57115100 0.91941600
vt 0.44029600 0.74360700
vt 0.56252900 0.91941600
vt 0.57115600 0.92591100
vt 0.56253400 0.92591100
vt 0.44719500 0.74360800
vt 0.80836600 0.72152400
vt 0.57116600 0.93103900
vt 0.81698800 0.72152300
vt 0.56254400 0.93103900
vt 0.45356800 0.74624200
vt 0.80836600 0.71536000
vt 0.45844600 0.75111000
vt 0.81698800 0.71536000
vt 0.80836600 0.70849200
vt 0.80836600 0.70849200
vt 0.81698800 0.70849200
vt 0.46108600 0.75747100
vt 0.46108600 0.76435500
vt 0.81698800 0.70196500
vt 0.81698800 0.69677300
vt 0.87772700 0.48936000
vt 0.45844600 0.77071500
vt 0.87772000 0.48324100
vt 0.45356800 0.77558300
vt 0.87771900 0.47638000
vt 0.44719500 0.77821700
vt 0.72085000 0.73783400
vt 0.86910100 0.46982300
vt 0.87772300 0.46982300
vt 0.44029600 0.77821700
vt 0.86911100 0.46456700
vt 0.88593500 0.92589200
vt 0.87773300 0.46456700
vt 0.89455700 0.92589200
vt 0.43392200 0.77558200
vt 0.88593500 0.91972900
vt 0.89455700 0.91972900
vt 0.42904400 0.77071400
vt 0.88593500 0.91286100
vt 0.42640400 0.76435400
vt 0.89455700 0.91286100
vt 0.88593500 0.90633400
vt 0.42640400 0.75747000
vt 0.89455700 0.90633400
vt 0.43506000 0.74794300
vt 0.98114200 0.44291600
vt 0.43506000 0.74794300
vt 0.43074700 0.75224600
vt 0.43074700 0.75224600
vt 0.44069400 0.74561400
vt 0.98114200 0.43683900
vt 0.44069400 0.74561400
vt 0.44679300 0.74561400
vt 0.44679300 0.74561400
vt 0.45242800 0.74794300
vt 0.45242800 0.74794300
vt 0.45674100 0.75224700
vt 0.87848300 0.97930400
vt 0.45674100 0.75224700
vt 0.87848300 0.98537600
vt 0.45907400 0.75787000
vt 0.45907400 0.75787000
vt 0.45907500 0.76395600
vt 0.45907500 0.76395600
vt 0.45674100 0.76957900
vt 0.45674100 0.76957900
vt 0.99020400 0.60530200
vt 0.45242800 0.77388300
vt 0.45242800 0.77388300
vt 0.44679300 0.77621200
vt 0.99020400 0.61136800
vt 0.44679300 0.77621200
vt 0.44069400 0.77621100
vt 0.44069400 0.77621100
vt 0.43506000 0.77388200
vt 0.43506000 0.77388200
vt 0.43074700 0.76957800
vt 0.98754000 0.22982200
vt 0.43074700 0.76957800
vt 0.98754000 0.23589400
vt 0.42841300 0.76395500
vt 0.42841300 0.76395500
vt 0.42841300 0.75786900
vt 0.42841300 0.75786900
vt 0.98231000 0.44263100
vt 0.43571400 0.74889300
vt 0.43571400 0.74889300
vt 0.43171800 0.75288000
vt 0.43171800 0.75288000
vt 0.98231000 0.43700100
vt 0.44093500 0.74673500
vt 0.44093500 0.74673500
vt 0.44658600 0.74673500
vt 0.44658600 0.74673500
vt 0.45180600 0.74889300
vt 0.45180600 0.74889300
vt 0.45580200 0.75288100
vt 0.45580200 0.75288100
vt 0.87731300 0.97960500
vt 0.45796500 0.75809100
vt 0.45796500 0.75809100
vt 0.87731300 0.98523000
vt 0.45796500 0.76373000
vt 0.45796500 0.76373000
vt 0.45580200 0.76894000
vt 0.45580200 0.76894000
vt 0.45180600 0.77292700
vt 0.45180600 0.77292700
vt 0.98903100 0.60561800
vt 0.44658600 0.77508500
vt 0.98903100 0.61123800
vt 0.44658600 0.77508500
vt 0.44093500 0.77508400
vt 0.44093500 0.77508400
vt 0.43571400 0.77292600
vt 0.43571400 0.77292600
vt 0.43171800 0.76893900
vt 0.98637000 0.23012300
vt 0.43171800 0.76893900
vt 0.98637000 0.23574800
vt 0.42955600 0.76372900
vt 0.42955600 0.76372900
vt 0.42955600 0.75809000
vt 0.42955600 0.75809000
vt 0.89095600 0.90114100
vt 0.56613600 0.90633600
vt 0.56613000 0.91254200
vt 0.56612900 0.91941600
vt 0.56613400 0.92591100
vt 0.81338700 0.72152400
vt 0.56614400 0.93103900
vt 0.81338700 0.71536000
vt 0.81338700 0.70849200
vt 0.81338700 0.70849200
vt 0.16573800 0.76657800
vt 0.17115700 0.76231600
vt 0.81338700 0.70196500
vt 0.87412700 0.48936000
vt 0.81338700 0.69677300
vt 0.17779700 0.76044800
vt 0.18464800 0.76125700
vt 0.87412000 0.48324100
vt 0.19066700 0.76462100
vt 0.87411800 0.47638000
vt 0.87412300 0.46982300
vt 0.19493700 0.77002700
vt 0.71582900 0.73783400
vt 0.87413300 0.46456700
vt 0.89095600 0.92589200
vt 0.89095600 0.91972900
vt 0.89095600 0.91286100
vt 0.89095600 0.90633400
vt 0.17145200 0.72757600
vt 0.56683300 0.87196000
vt 0.81436900 0.67274000
vt 0.17910100 0.73065300
vt 0.56683600 0.86386600
vt 0.56684600 0.85696000
vt 0.71484700 0.70897600
vt 0.18734800 0.73057500
vt 0.80836600 0.67274000
vt 0.57283600 0.87196000
vt 0.56252900 0.87196000
vt 0.09856500 0.65039200
vt 0.57283900 0.88000900
vt 0.56253200 0.88000800
vt 0.10681200 0.65039200
vt 0.02010300 0.86640600
vt 0.57285000 0.88678600
vt 0.00979600 0.86640600
vt 0.56254200 0.88678600
vt 0.11443100 0.65354100
vt 0.02010300 0.87324900
vt 0.12026300 0.65936100
vt 0.00979600 0.87324900
vt 0.02010300 0.88132000
vt 0.00979600 0.88132000
vt 0.12341900 0.66696400
vt 0.02010300 0.88939200
vt 0.00979600 0.88939200
vt 0.12341900 0.67519400
vt 0.02010300 0.89623500
vt 0.13106800 0.88649100
vt 0.14137500 0.88649200
vt 0.00979600 0.89623500
vt 0.12026300 0.68279800
vt 0.14136500 0.87971400
vt 0.11443100 0.68861700
vt 0.14136100 0.87166600
vt 0.10681200 0.69176700
vt 0.14136500 0.86357200
vt 0.09856500 0.69176700
vt 0.09094600 0.68861700
vt 0.14137500 0.85666500
vt 0.71054300 0.67914600
vt 0.72085000 0.68598900
vt 0.71054300 0.68598900
vt 0.08511400 0.68279700
vt 0.72085000 0.69406100
vt 0.08195800 0.67519400
vt 0.71054300 0.69406100
vt 0.72085000 0.70213300
vt 0.72085000 0.70213300
vt 0.71054300 0.70213300
vt 0.08195800 0.66696400
vt 0.56254200 0.85695900
vt 0.71054300 0.70897600
vt 0.08511400 0.65936100
vt 0.56253200 0.86386600
vt 0.09094600 0.65354100
vt 0.96797900 0.74845100
vt 0.10633200 0.65279000
vt 0.10633200 0.65279000
vt 0.09904100 0.65279000
vt 0.96797600 0.74133500
vt 0.11306800 0.65557500
vt 0.11306800 0.65557500
vt 0.11822400 0.66071900
vt 0.11822400 0.66071900
vt 0.96458500 0.28926400
vt 0.96458500 0.29640000
vt 0.12101400 0.66744200
vt 0.96458500 0.30353600
vt 0.12101400 0.67471700
vt 0.12101400 0.67471700
vt 0.11822400 0.68143900
vt 0.11822400 0.68143900
vt 0.11306800 0.68658400
vt 0.11306800 0.68658400
vt 0.32583400 0.19054200
vt 0.32583100 0.18342700
vt 0.10633200 0.68936800
vt 0.09904100 0.68936800
vt 0.32583400 0.17627100
vt 0.09904100 0.68936800
vt 0.09230500 0.68658400
vt 0.09230500 0.68658400
vt 0.08715000 0.68143900
vt 0.08715000 0.68143900
vt 0.25913600 0.74030800
vt 0.25913600 0.74744400
vt 0.08436000 0.67471700
vt 0.25913600 0.75458100
vt 0.08436000 0.66744100
vt 0.08436000 0.66744100
vt 0.08715000 0.66071900
vt 0.08715000 0.66071900
vt 0.09230500 0.65557400
vt 0.09230500 0.65557400
vt 0.96797900 0.73418000
vt 0.96658300 0.74790800
vt 0.10608400 0.65413300
vt 0.10608400 0.65413300
vt 0.96658000 0.74131600
vt 0.09932900 0.65413300
vt 0.11232500 0.65671300
vt 0.11232500 0.65671300
vt 0.96318600 0.28978900
vt 0.11710200 0.66148000
vt 0.11710200 0.66148000
vt 0.96318600 0.29640000
vt 0.11968700 0.66770800
vt 0.11968700 0.67444900
vt 0.11968700 0.67444900
vt 0.96318600 0.30301200
vt 0.11710200 0.68067700
vt 0.11710200 0.68067700
vt 0.11232500 0.68544400
vt 0.11232500 0.68544400
vt 0.32723600 0.19000000
vt 0.10608400 0.68802400
vt 0.32723300 0.18340800
vt 0.32723600 0.17677800
vt 0.09932900 0.68802400
vt 0.09932900 0.68802400
vt 0.09308800 0.68544400
vt 0.09308800 0.68544400
vt 0.08831100 0.68067700
vt 0.08831100 0.68067700
vt 0.25773600 0.74083300
vt 0.25773600 0.74744400
vt 0.08572600 0.67444900
vt 0.25773600 0.75405600
vt 0.08572600 0.66770700
vt 0.08572600 0.66770700
vt 0.08831100 0.66147900
vt 0.08831100 0.66147900
vt 0.09308800 0.65671300
vt 0.96658300 0.73468600
vt 0.09308800 0.65671300
vt 0.56683600 0.88000800
vt 0.01410000 0.86640600
vt 0.56684600 0.88678600
vt 0.01410000 0.87324900
vt 0.01410000 0.88132000
vt 0.01410000 0.88939200
vt 0.13707100 0.88649100
vt 0.01410000 0.89623500
vt 0.13706100 0.87971400
vt 0.13705700 0.87166500
vt 0.13706100 0.86357200
vt 0.13707100 0.85666500
vt 0.71484700 0.67914600
vt 0.71484700 0.68598900
vt 0.71484700 0.69406100
vt 0.19493700 0.72735400
vt 0.71484700 0.70213300
vt 0.71484700 0.70213300
vt 0.13105400 0.87166500
vt 0.13105800 0.87971400
vt 0.72085000 0.67914600
vt 0.13106800 0.85666500
vt 0.13105800 0.86357200
f 118/118/118 1/1/1 4/4/4
f 4/4/4 119/119/119 118/118/118
f 119/119/119 4/4/4 7/7/7
f 7/7/7 120/120/120 119/119/119
f 120/120/120 7/7/7 8/8/8
f 8/8/8 121/121/121 120/120/120
f 121/121/121 8/8/8 11/11/11
f 11/11/11 123/123/123 121/121/121
f 122/122/122 12/12/12 14/14/14
f 14/14/14 124/124/124 122/122/122
f 124/124/124 14/14/14 15/15/15
f 15/15/15 127/127/127 124/124/124
f 127/127/127 15/15/15 18/18/18
f 18/18/18 129/129/129 127/127/127
f 129/129/129 18/18/18 19/19/19
f 19/19/19 130/130/130 129/129/129
f 131/131/131 20/20/20 22/22/22
f 22/22/22 134/134/134 131/131/131
f 134/134/134 22/22/22 24/24/24
f 24/24/24 135/135/135 134/134/134
f 135/135/135 24/24/24 27/27/27
f 27/27/27 137/137/137 135/135/135
f 137/137/137 27/27/27 29/29/29
f 29/29/29 141/141/141 137/137/137
f 140/140/140 28/28/28 31/31/31
f 31/31/31 142/142/142 140/140/140
f 142/142/142 31/31/31 33/33/33
f 33/33/33 143/143/143 142/142/142
f 36/36/36 34/34/34 72/72/72
f 72/72/72 75/75/75 36/36/36
f 143/143/143 33/33/33 35/35/35
f 35/35/35 144/144/144 143/143/143
f 144/144/144 35/35/35 2/2/2
f 2/2/2 117/117/117 144/144/144
f 337/337/337 144/144/144 117/117/117
f 117/117/117 288/288/288 337/337/337
f 67/67/67 66/66/66 106/106/106
f 106/106/106 107/107/107 67/67/67
f 9/9/9 6/6/6 42/42/42
f 42/42/42 45/45/45 9/9/9
f 21/21/21 17/17/17 56/56/56
f 56/56/56 57/57/57 21/21/21
f 5/5/5 3/3/3 41/41/41
f 41/41/41 39/39/39 5/5/5
f 32/32/32 30/30/30 68/68/68
f 68/68/68 69/69/69 32/32/32
f 16/16/16 13/13/13 50/50/50
f 50/50/50 52/52/52 16/16/16
f 26/26/26 25/25/25 62/62/62
f 62/62/62 65/65/65 26/26/26
f 3/3/3 36/36/36 75/75/75
f 75/75/75 41/41/41 3/3/3
f 10/10/10 9/9/9 45/45/45
f 45/45/45 48/48/48 10/10/10
f 23/23/23 21/21/21 57/57/57
f 57/57/57 61/61/61 23/23/23
f 34/34/34 32/32/32 69/69/69
f 69/69/69 72/72/72 34/34/34
f 6/6/6 5/5/5 39/39/39
f 39/39/39 42/42/42 6/6/6
f 17/17/17 16/16/16 52/52/52
f 52/52/52 56/56/56 17/17/17
f 30/30/30 26/26/26 65/65/65
f 65/65/65 68/68/68 30/30/30
f 13/13/13 10/10/10 48/48/48
f 48/48/48 50/50/50 13/13/13
f 25/25/25 23/23/23 61/61/61
f 61/61/61 62/62/62 25/25/25
f 79/79/79 81/81/81 115/115/115
f 79/79/79 115/115/115 114/114/114
f 79/79/79 114/114/114 111/111/111
f 79/79/79 111/111/111 108/108/108
f 79/79/79 108/108/108 105/105/105
f 79/79/79 105/105/105 102/102/102
f 79/79/79 102/102/102 101/101/101
f 79/79/79 101/101/101 98/98/98
f 79/79/79 98/98/98 96/96/96
f 79/79/79 96/96/96 94/94/94
f 79/79/79 94/94/94 91/91/91
f 79/79/79 91/91/91 87/87/87
f 79/79/79 87/87/87 86/86/86
f 79/79/79 86/86/86 84/84/84
f 49/49/49 47/47/47 88/88/88
f 88/88/88 89/89/89 49/49/49
f 71/71/71 67/67/67 107/107/107
f 107/107/107 109/109/109 71/71/71
f 53/53/53 51/51/51 90/90/90
f 90/90/90 93/93/93 53/53/53
f 73/73/73 70/70/70 110/110/110
f 110/110/110 112/112/112 73/73/73
f 55/55/55 54/54/54 92/92/92
f 92/92/92 95/95/95 55/55/55
f 76/76/76 74/74/74 113/113/113
f 113/113/113 116/116/116 76/76/76
f 58/58/58 55/55/55 95/95/95
f 95/95/95 97/97/97 58/58/58
f 37/37/37 40/40/40 80/80/80
f 80/80/80 78/78/78 37/37/37
f 40/40/40 76/76/76 116/116/116
f 116/116/116 80/80/80 40/40/40
f 59/59/59 58/58/58 97/97/97
f 97/97/97 99/99/99 59/59/59
f 43/43/43 38/38/38 77/77/77
f 77/77/77 82/82/82 43/43/43
f 64/64/64 60/60/60 100/100/100
f 100/100/100 103/103/103 64/64/64
f 46/46/46 44/44/44 83/83/83
f 83/83/83 85/85/85 46/46/46
f 66/66/66 63/63/63 104/104/104
f 104/104/104 106/106/106 66/66/66
f 47/47/47 46/46/46 85/85/85
f 85/85/85 88/88/88 47/47/47
f 334/334/334 143/143/143 144/144/144
f 144/144/144 337/337/337 334/334/334
f 331/331/331 142/142/142 143/143/143
f 143/143/143 334/334/334 331/331/331
f 327/327/327 140/140/140 142/142/142
f 142/142/142 331/331/331 327/327/327
f 323/323/323 137/137/137 141/141/141
f 141/141/141 326/326/326 323/323/323
f 133/133/133 136/136/136 285/285/285
f 285/285/285 150/150/150 133/133/133
f 309/309/309 126/126/126 145/145/145
f 145/145/145 456/456/456 309/309/309
f 125/125/125 128/128/128 146/146/146
f 136/136/136 139/139/139 285/285/285
f 128/128/128 132/132/132 148/148/148
f 148/148/148 146/146/146 128/128/128
f 306/306/306 124/124/124 127/127/127
f 127/127/127 310/310/310 306/306/306
f 301/301/301 122/122/122 124/124/124
f 124/124/124 306/306/306 301/301/301
f 298/298/298 121/121/121 123/123/123
f 123/123/123 302/302/302 298/298/298
f 295/295/295 120/120/120 121/121/121
f 121/121/121 298/298/298 295/295/295
f 292/292/292 119/119/119 120/120/120
f 120/120/120 295/295/295 292/292/292
f 287/287/287 118/118/118 119/119/119
f 119/119/119 292/292/292 287/287/287
f 132/132/132 133/133/133 150/150/150
f 150/150/150 148/148/148 132/132/132
f 138/138/138 322/322/322 498/498/498
f 498/498/498 286/286/286 138/138/138
f 147/147/147 153/153/153 156/156/156
f 156/156/156 269/269/269 147/147/147
f 269/269/269 156/156/156 159/159/159
f 159/159/159 271/271/271 269/269/269
f 270/270/270 157/157/157 160/160/160
f 160/160/160 272/272/272 270/270/270
f 272/272/272 160/160/160 163/163/163
f 163/163/163 273/273/273 272/272/272
f 273/273/273 163/163/163 164/164/164
f 164/164/164 274/274/274 273/273/273
f 274/274/274 164/164/164 166/166/166
f 166/166/166 275/275/275 274/274/274
f 276/276/276 167/167/167 169/169/169
f 169/169/169 277/277/277 276/276/276
f 277/277/277 169/169/169 172/172/172
f 172/172/172 278/278/278 277/277/277
f 278/278/278 172/172/172 174/174/174
f 174/174/174 279/279/279 278/278/278
f 279/279/279 174/174/174 175/175/175
f 175/175/175 280/280/280 279/279/279
f 281/281/281 177/177/177 179/179/179
f 179/179/179 282/282/282 281/281/281
f 282/282/282 179/179/179 181/181/181
f 181/181/181 283/283/283 282/282/282
f 283/283/283 181/181/181 182/182/182
f 182/182/182 284/284/284 283/283/283
f 284/284/284 182/182/182 184/184/184
f 184/184/184 151/151/151 284/284/284
f 188/188/188 186/186/186 224/224/224
f 224/224/224 227/227/227 188/188/188
f 152/152/152 185/185/185 187/187/187
f 187/187/187 149/149/149 152/152/152
f 149/149/149 187/187/187 153/153/153
f 153/153/153 147/147/147 149/149/149
f 220/220/220 218/218/218 257/257/257
f 257/257/257 260/260/260 220/220/220
f 161/161/161 158/158/158 195/195/195
f 195/195/195 196/196/196 161/161/161
f 171/171/171 170/170/170 207/207/207
f 207/207/207 209/209/209 171/171/171
f 155/155/155 154/154/154 193/193/193
f 193/193/193 189/189/189 155/155/155
f 183/183/183 180/180/180 219/219/219
f 219/219/219 221/221/221 183/183/183
f 168/168/168 165/165/165 201/201/201
f 201/201/201 204/204/204 168/168/168
f 178/178/178 176/176/176 214/214/214
f 214/214/214 216/216/216 178/178/178
f 154/154/154 188/188/188 227/227/227
f 227/227/227 193/193/193 154/154/154
f 162/162/162 161/161/161 196/196/196
f 196/196/196 199/199/199 162/162/162
f 173/173/173 171/171/171 209/209/209
f 209/209/209 211/211/211 173/173/173
f 186/186/186 183/183/183 221/221/221
f 221/221/221 224/224/224 186/186/186
f 158/158/158 155/155/155 189/189/189
f 189/189/189 195/195/195 158/158/158
f 170/170/170 168/168/168 204/204/204
f 204/204/204 207/207/207 170/170/170
f 180/180/180 178/178/178 216/216/216
f 216/216/216 219/219/219 180/180/180
f 165/165/165 162/162/162 199/199/199
f 199/199/199 201/201/201 165/165/165
f 176/176/176 173/173/173 211/211/211
f 211/211/211 214/214/214 176/176/176
f 230/230/230 233/233/233 266/266/266
f 230/230/230 266/266/266 265/265/265
f 230/230/230 265/265/265 262/262/262
f 230/230/230 262/262/262 259/259/259
f 230/230/230 259/259/259 256/256/256
f 230/230/230 256/256/256 254/254/254
f 230/230/230 254/254/254 253/253/253
f 230/230/230 253/253/253 249/249/249
f 230/230/230 249/249/249 248/248/248
f 230/230/230 248/248/248 244/244/244
f 230/230/230 244/244/244 242/242/242
f 230/230/230 242/242/242 239/239/239
f 230/230/230 239/239/239 236/236/236
f 230/230/230 236/236/236 234/234/234
f 202/202/202 200/200/200 240/240/240
f 240/240/240 243/243/243 202/202/202
f 222/222/222 220/220/220 260/260/260
f 260/260/260 261/261/261 222/222/222
f 205/205/205 203/203/203 241/241/241
f 241/241/241 245/245/245 205/205/205
f 225/225/225 223/223/223 263/263/263
f 263/263/263 264/264/264 225/225/225
f 206/206/206 205/205/205 245/245/245
f 245/245/245 247/247/247 206/206/206
f 228/228/228 225/225/225 264/264/264
f 264/264/264 268/268/268 228/228/228
f 210/210/210 208/208/208 246/246/246
f 246/246/246 250/250/250 210/210/210
f 191/191/191 192/192/192 232/232/232
f 232/232/232 229/229/229 191/191/191
f 192/192/192 226/226/226 267/267/267
f 267/267/267 232/232/232 192/192/192
f 213/213/213 210/210/210 250/250/250
f 250/250/250 252/252/252 213/213/213
f 194/194/194 190/190/190 231/231/231
f 231/231/231 235/235/235 194/194/194
f 215/215/215 212/212/212 251/251/251
f 251/251/251 255/255/255 215/215/215
f 198/198/198 194/194/194 235/235/235
f 235/235/235 238/238/238 198/198/198
f 217/217/217 215/215/215 255/255/255
f 255/255/255 258/258/258 217/217/217
f 200/200/200 197/197/197 237/237/237
f 237/237/237 240/240/240 200/200/200
f 494/494/494 283/283/283 284/284/284
f 284/284/284 497/497/497 494/494/494
f 491/491/491 282/282/282 283/283/283
f 283/283/283 494/494/494 491/491/491
f 277/277/277 278/278/278 604/604/604
f 604/604/604 605/605/605 277/277/277
f 474/474/474 274/274/274 275/275/275
f 275/275/275 477/477/477 474/474/474
f 471/471/471 273/273/273 274/274/274
f 274/274/274 474/474/474 471/471/471
f 468/468/468 272/272/272 273/273/273
f 273/273/273 471/471/471 468/468/468
f 463/463/463 270/270/270 272/272/272
f 272/272/272 468/468/468 463/463/463
f 460/460/460 269/269/269 271/271/271
f 271/271/271 464/464/464 460/460/460
f 457/457/457 147/147/147 269/269/269
f 269/269/269 460/460/460 457/457/457
f 276/276/276 277/277/277 605/605/605
f 605/605/605 478/478/478 276/276/276
f 491/491/491 606/606/606 281/281/281
f 281/281/281 282/282/282 491/491/491
f 279/279/279 280/280/280 607/607/607
f 607/607/607 608/608/608 279/279/279
f 278/278/278 279/279/279 608/608/608
f 608/608/608 604/604/604 278/278/278
f 421/421/421 422/422/422 293/293/293
f 293/293/293 290/290/290 421/421/421
f 422/422/422 423/423/423 297/297/297
f 297/297/297 293/293/293 422/422/422
f 423/423/423 424/424/424 299/299/299
f 299/299/299 297/297/297 423/423/423
f 424/424/424 426/426/426 304/304/304
f 304/304/304 299/299/299 424/424/424
f 425/425/425 427/427/427 308/308/308
f 308/308/308 303/303/303 425/425/425
f 427/427/427 429/429/429 311/311/311
f 311/311/311 308/308/308 427/427/427
f 429/429/429 432/432/432 314/314/314
f 314/314/314 311/311/311 429/429/429
f 432/432/432 434/434/434 315/315/315
f 315/315/315 314/314/314 432/432/432
f 433/433/433 437/437/437 318/318/318
f 318/318/318 316/316/316 433/433/433
f 437/437/437 439/439/439 320/320/320
f 320/320/320 318/318/318 437/437/437
f 439/439/439 440/440/440 324/324/324
f 324/324/324 320/320/320 439/439/439
f 440/440/440 443/443/443 328/328/328
f 328/328/328 324/324/324 440/440/440
f 444/444/444 445/445/445 332/332/332
f 332/332/332 329/329/329 444/444/444
f 445/445/445 446/446/446 336/336/336
f 336/336/336 332/332/332 445/445/445
f 338/338/338 379/379/379 377/377/377
f 377/377/377 335/335/335 338/338/338
f 446/446/446 447/447/447 339/339/339
f 339/339/339 336/336/336 446/446/446
f 447/447/447 420/420/420 289/289/289
f 289/289/289 339/339/339 447/447/447
f 337/337/337 288/288/288 420/420/420
f 420/420/420 447/447/447 337/337/337
f 370/370/370 411/411/411 408/408/408
f 408/408/408 368/368/368 370/370/370
f 300/300/300 348/348/348 347/347/347
f 347/347/347 296/296/296 300/300/300
f 317/317/317 360/360/360 358/358/358
f 358/358/358 313/313/313 317/317/317
f 294/294/294 342/342/342 343/343/343
f 343/343/343 291/291/291 294/294/294
f 333/333/333 372/372/372 371/371/371
f 371/371/371 330/330/330 333/333/333
f 312/312/312 357/357/357 354/354/354
f 354/354/354 307/307/307 312/312/312
f 325/325/325 369/369/369 365/365/365
f 365/365/365 321/321/321 325/325/325
f 291/291/291 343/343/343 379/379/379
f 379/379/379 338/338/338 291/291/291
f 305/305/305 351/351/351 348/348/348
f 348/348/348 300/300/300 305/305/305
f 319/319/319 363/363/363 360/360/360
f 360/360/360 317/317/317 319/319/319
f 335/335/335 377/377/377 372/372/372
f 372/372/372 333/333/333 335/335/335
f 296/296/296 347/347/347 342/342/342
f 342/342/342 294/294/294 296/296/296
f 313/313/313 358/358/358 357/357/357
f 357/357/357 312/312/312 313/313/313
f 330/330/330 371/371/371 369/369/369
f 369/369/369 325/325/325 330/330/330
f 307/307/307 354/354/354 351/351/351
f 351/351/351 305/305/305 307/307/307
f 321/321/321 365/365/365 363/363/363
f 363/363/363 319/319/319 321/321/321
f 381/381/381 386/386/386 388/388/388
f 381/381/381 388/388/388 390/390/390
f 381/381/381 390/390/390 392/392/392
f 381/381/381 392/392/392 396/396/396
f 381/381/381 396/396/396 399/399/399
f 381/381/381 399/399/399 400/400/400
f 381/381/381 400/400/400 402/402/402
f 381/381/381 402/402/402 407/407/407
f 381/381/381 407/407/407 409/409/409
f 381/381/381 409/409/409 410/410/410
f 381/381/381 410/410/410 412/412/412
f 381/381/381 412/412/412 417/417/417
f 381/381/381 417/417/417 419/419/419
f 381/381/381 419/419/419 384/384/384
f 352/352/352 393/393/393 391/391/391
f 391/391/391 350/350/350 352/352/352
f 374/374/374 414/414/414 411/411/411
f 411/411/411 370/370/370 374/374/374
f 355/355/355 397/397/397 394/394/394
f 394/394/394 353/353/353 355/355/355
f 375/375/375 415/415/415 413/413/413
f 413/413/413 373/373/373 375/375/375
f 359/359/359 398/398/398 395/395/395
f 395/395/395 356/356/356 359/359/359
f 378/378/378 418/418/418 416/416/416
f 416/416/416 376/376/376 378/378/378
f 361/361/361 401/401/401 398/398/398
f 398/398/398 359/359/359 361/361/361
f 340/340/340 382/382/382 383/383/383
f 383/383/383 344/344/344 340/340/340
f 344/344/344 383/383/383 418/418/418
f 418/418/418 378/378/378 344/344/344
f 364/364/364 403/403/403 401/401/401
f 401/401/401 361/361/361 364/364/364
f 346/346/346 385/385/385 380/380/380
f 380/380/380 341/341/341 346/346/346
f 366/366/366 406/406/406 404/404/404
f 404/404/404 362/362/362 366/366/366
f 349/349/349 389/389/389 387/387/387
f 387/387/387 345/345/345 349/349/349
f 368/368/368 408/408/408 405/405/405
f 405/405/405 367/367/367 368/368/368
f 350/350/350 391/391/391 389/389/389
f 389/389/389 349/349/349 350/350/350
f 334/334/334 337/337/337 447/447/447
f 447/447/447 446/446/446 334/334/334
f 331/331/331 334/334/334 446/446/446
f 446/446/446 445/445/445 331/331/331
f 327/327/327 331/331/331 445/445/445
f 445/445/445 444/444/444 327/327/327
f 323/323/323 326/326/326 443/443/443
f 443/443/443 440/440/440 323/323/323
f 436/436/436 455/455/455 601/601/601
f 601/601/601 438/438/438 436/436/436
f 309/309/309 456/456/456 450/450/450
f 450/450/450 428/428/428 309/309/309
f 430/430/430 448/448/448 431/431/431
f 438/438/438 601/601/601 441/441/441
f 431/431/431 448/448/448 451/451/451
f 451/451/451 435/435/435 431/431/431
f 306/306/306 310/310/310 429/429/429
f 429/429/429 427/427/427 306/306/306
f 301/301/301 306/306/306 427/427/427
f 427/427/427 425/425/425 301/301/301
f 298/298/298 302/302/302 426/426/426
f 426/426/426 424/424/424 298/298/298
f 295/295/295 298/298/298 424/424/424
f 424/424/424 423/423/423 295/295/295
f 292/292/292 295/295/295 423/423/423
f 423/423/423 422/422/422 292/292/292
f 287/287/287 292/292/292 422/422/422
f 422/422/422 421/421/421 287/287/287
f 435/435/435 451/451/451 455/455/455
f 455/455/455 436/436/436 435/435/435
f 442/442/442 602/602/602 498/498/498
f 498/498/498 322/322/322 442/442/442
f 449/449/449 586/586/586 461/461/461
f 461/461/461 458/458/458 449/449/449
f 586/586/586 588/588/588 466/466/466
f 466/466/466 461/461/461 586/586/586
f 587/587/587 589/589/589 470/470/470
f 470/470/470 465/465/465 587/587/587
f 589/589/589 590/590/590 472/472/472
f 472/472/472 470/470/470 589/589/589
f 590/590/590 591/591/591 475/475/475
f 475/475/475 472/472/472 590/590/590
f 591/591/591 593/593/593 480/480/480
f 480/480/480 475/475/475 591/591/591
f 592/592/592 594/594/594 482/482/482
f 482/482/482 479/479/479 592/592/592
f 594/594/594 595/595/595 484/484/484
f 484/484/484 482/482/482 594/594/594
f 595/595/595 596/596/596 486/486/486
f 486/486/486 484/484/484 595/595/595
f 596/596/596 597/597/597 489/489/489
f 489/489/489 486/486/486 596/596/596
f 598/598/598 599/599/599 492/492/492
f 492/492/492 490/490/490 598/598/598
f 599/599/599 600/600/600 496/496/496
f 496/496/496 492/492/492 599/599/599
f 600/600/600 603/603/603 499/499/499
f 499/499/499 496/496/496 600/600/600
f 603/603/603 454/454/454 502/502/502
f 502/502/502 499/499/499 603/603/603
f 505/505/505 543/543/543 541/541/541
f 541/541/541 503/503/503 505/505/505
f 453/453/453 452/452/452 504/504/504
f 504/504/504 501/501/501 453/453/453
f 452/452/452 449/449/449 458/458/458
f 458/458/458 504/504/504 452/452/452
f 536/536/536 576/576/576 575/575/575
f 575/575/575 535/535/535 536/536/536
f 469/469/469 514/514/514 511/511/511
f 511/511/511 467/467/467 469/469/469
f 485/485/485 527/527/527 523/523/523
f 523/523/523 483/483/483 485/485/485
f 462/462/462 507/507/507 509/509/509
f 509/509/509 459/459/459 462/462/462
f 500/500/500 540/540/540 537/537/537
f 537/537/537 495/495/495 500/500/500
f 481/481/481 522/522/522 520/520/520
f 520/520/520 476/476/476 481/481/481
f 493/493/493 533/533/533 532/532/532
f 532/532/532 488/488/488 493/493/493
f 459/459/459 509/509/509 543/543/543
f 543/543/543 505/505/505 459/459/459
f 473/473/473 517/517/517 514/514/514
f 514/514/514 469/469/469 473/473/473
f 487/487/487 528/528/528 527/527/527
f 527/527/527 485/485/485 487/487/487
f 503/503/503 541/541/541 540/540/540
f 540/540/540 500/500/500 503/503/503
f 467/467/467 511/511/511 507/507/507
f 507/507/507 462/462/462 467/467/467
f 483/483/483 523/523/523 522/522/522
f 522/522/522 481/481/481 483/483/483
f 495/495/495 537/537/537 533/533/533
f 533/533/533 493/493/493 495/495/495
f 476/476/476 520/520/520 517/517/517
f 517/517/517 473/473/473 476/476/476
f 488/488/488 532/532/532 528/528/528
f 528/528/528 487/487/487 488/488/488
f 548/548/548 551/551/551 555/555/555
f 548/548/548 555/555/555 557/557/557
f 548/548/548 557/557/557 559/559/559
f 548/548/548 559/559/559 562/562/562
f 548/548/548 562/562/562 563/563/563
f 548/548/548 563/563/563 566/566/566
f 548/548/548 566/566/566 570/570/570
f 548/548/548 570/570/570 571/571/571
f 548/548/548 571/571/571 574/574/574
f 548/548/548 574/574/574 577/577/577
f 548/548/548 577/577/577 579/579/579
f 548/548/548 579/579/579 581/581/581
f 548/548/548 581/581/581 583/583/583
f 548/548/548 583/583/583 550/550/550
f 518/518/518 560/560/560 556/556/556
f 556/556/556 516/516/516 518/518/518
f 538/538/538 578/578/578 576/576/576
f 576/576/576 536/536/536 538/538/538
f 521/521/521 561/561/561 558/558/558
f 558/558/558 519/519/519 521/521/521
f 542/542/542 582/582/582 580/580/580
f 580/580/580 539/539/539 542/542/542
f 524/524/524 564/564/564 561/561/561
f 561/561/561 521/521/521 524/524/524
f 544/544/544 585/585/585 582/582/582
f 582/582/582 542/542/542 544/544/544
f 526/526/526 567/567/567 565/565/565
f 565/565/565 525/525/525 526/526/526
f 506/506/506 546/546/546 549/549/549
f 549/549/549 510/510/510 506/506/506
f 510/510/510 549/549/549 584/584/584
f 584/584/584 545/545/545 510/510/510
f 529/529/529 568/568/568 567/567/567
f 567/567/567 526/526/526 529/529/529
f 512/512/512 552/552/552 547/547/547
f 547/547/547 508/508/508 512/512/512
f 531/531/531 572/572/572 569/569/569
f 569/569/569 530/530/530 531/531/531
f 513/513/513 554/554/554 552/552/552
f 552/552/552 512/512/512 513/513/513
f 534/534/534 573/573/573 572/572/572
f 572/572/572 531/531/531 534/534/534
f 516/516/516 556/556/556 553/553/553
f 553/553/553 515/515/515 516/516/516
f 494/494/494 497/497/497 603/603/603
f 603/603/603 600/600/600 494/494/494
f 491/491/491 494/494/494 600/600/600
f 600/600/600 599/599/599 491/491/491
f 594/594/594 605/605/605 604/604/604
f 604/604/604 595/595/595 594/594/594
f 474/474/474 477/477/477 593/593/593
f 593/593/593 591/591/591 474/474/474
f 471/471/471 474/474/474 591/591/591
f 591/591/591 590/590/590 471/471/471
f 468/468/468 471/471/471 590/590/590
f 590/590/590 589/589/589 468/468/468
f 463/463/463 468/468/468 589/589/589
f 589/589/589 587/587/587 463/463/463
f 460/460/460 464/464/464 588/588/588
f 588/588/588 586/586/586 460/460/460
f 457/457/457 460/460/460 586/586/586
f 586/586/586 449/449/449 457/457/457
f 592/592/592 478/478/478 605/605/605
f 605/605/605 594/594/594 592/592/592
f 491/491/491 599/599/599 598/598/598
f 598/598/598 606/606/606 491/491/491
f 596/596/596 608/608/608 607/607/607
f 607/607/607 597/597/597 596/596/596
f 595/595/595 604/604/604 608/608/608
f 608/608/608 596/596/596 595/595/595

