mtllib material.mtl
usemtl Leg.BL.002_MAT
v -0.19224900 -0.19916400 0.16301500
v -0.19224900 -0.19916400 0.16301500
v -0.19224900 -0.19916400 0.16301500
v -0.18855000 -0.20286400 0.16301400
v -0.18855000 -0.20286400 0.16301400
v -0.18855000 -0.20286400 0.16301400
v -0.19629000 -0.20363500 0.16800400
v -0.19629000 -0.20363500 0.16800400
v -0.19629000 -0.20363500 0.16800400
v -0.19280700 -0.20712000 0.16800300
v -0.19280700 -0.20712000 0.16800300
v -0.19280700 -0.20712000 0.16800300
v -0.19923200 -0.20672000 0.17324800
v -0.19923200 -0.20672000 0.17324800
v -0.19582100 -0.21013300 0.17324800
v -0.19582100 -0.21013300 0.17324800
v -0.20135700 -0.20905900 0.17922300
v -0.20135700 -0.20905900 0.17922300
v -0.19805300 -0.21236500 0.17922300
v -0.19805300 -0.21236500 0.17922300
v -0.20261400 -0.21053200 0.18570000
v -0.20261400 -0.21053200 0.18570000
v -0.19941800 -0.21373000 0.18569900
v -0.19941800 -0.21373000 0.18569900
v -0.20294700 -0.21108900 0.19242800
v -0.20294700 -0.21108900 0.19242800
v -0.19986200 -0.21417600 0.19242700
v -0.19986200 -0.21417600 0.19242700
v -0.20222100 -0.21083200 0.19915000
v -0.20222100 -0.21083200 0.19915000
v -0.19937000 -0.21368500 0.19914900
v -0.19937000 -0.21368500 0.19914900
v -0.20063900 -0.20959600 0.20560700
v -0.20063900 -0.20959600 0.20560700
v -0.19796000 -0.21227700 0.20560700
v -0.19796000 -0.21227700 0.20560700
v -0.19836500 -0.20732400 0.21155100
v -0.19836500 -0.20732400 0.21155100
v -0.19568600 -0.21000500 0.21155100
v -0.19568600 -0.21000500 0.21155100
v -0.19522800 -0.20436300 0.21675400
v -0.19522800 -0.20436300 0.21675400
v -0.19522800 -0.20436300 0.21675400
v -0.19263500 -0.20695700 0.21675400
v -0.19263500 -0.20695700 0.21675400
v -0.19263500 -0.20695700 0.21675400
v -0.19134600 -0.20082800 0.22101600
v -0.19134600 -0.20082800 0.22101600
v -0.18892500 -0.20324900 0.22101500
v -0.18892500 -0.20324900 0.22101500
v -0.18700200 -0.19672100 0.22417200
v -0.18700200 -0.19672100 0.22417200
v -0.18469900 -0.19902600 0.22417200
v -0.18469900 -0.19902600 0.22417200
v -0.18449600 -0.19432000 0.22611700
v -0.18449600 -0.19432000 0.22611700
v -0.18449600 -0.19432000 0.22611700
v -0.18449600 -0.19432000 0.22611700
v -0.18224500 -0.19657300 0.22611700
v -0.18224500 -0.19657300 0.22611700
v -0.18224500 -0.19657300 0.22611700
v -0.18202000 -0.19633800 0.17025000
v -0.18202000 -0.19633800 0.17025000
v -0.18202000 -0.19633800 0.17025000
v -0.18493100 -0.19924900 0.17247600
v -0.18493100 -0.19924900 0.17247600
v -0.18747900 -0.20179600 0.17546200
v -0.18747900 -0.20179600 0.17546200
v -0.18747900 -0.20179600 0.17546200
v -0.18956600 -0.20388200 0.17909400
v -0.18956600 -0.20388200 0.17909400
v -0.19111200 -0.20542800 0.18323200
v -0.19111200 -0.20542800 0.18323200
v -0.19205700 -0.20637300 0.18771700
v -0.19205700 -0.20637300 0.18771700
v -0.19236500 -0.20668200 0.19237600
v -0.19236500 -0.20668200 0.19237600
v -0.19202400 -0.20634200 0.19703100
v -0.19202400 -0.20634200 0.19703100
v -0.19104800 -0.20536700 0.20150200
v -0.19104800 -0.20536700 0.20150200
v -0.18947300 -0.20379400 0.20561900
v -0.18947300 -0.20379400 0.20561900
v -0.18736000 -0.20168300 0.20922200
v -0.18736000 -0.20168300 0.20922200
v -0.18736000 -0.20168300 0.20922200
v -0.18479100 -0.19911600 0.21217300
v -0.18479100 -0.19911600 0.21217300
v -0.18186400 -0.19619100 0.21435900
v -0.18186400 -0.19619100 0.21435900
v -0.17869200 -0.19302000 0.21569600
v -0.17869200 -0.19302000 0.21569600
v -0.17869200 -0.19302000 0.21569600
v -0.25888300 -0.26210200 0.08030000
v -0.25888300 -0.26210200 0.08030000
v -0.25110000 -0.25289200 0.00272800
v -0.25110000 -0.25289200 0.00272800
v -0.25110000 -0.25289200 0.00272800
v -0.26049800 -0.26291700 0.05124100
v -0.26049800 -0.26291700 0.05124100
v -0.25779100 -0.25974500 0.02575800
v -0.25779100 -0.25974500 0.02575800
v -0.25259400 -0.25701100 0.11338400
v -0.25259400 -0.25701100 0.11338400
v -0.24366400 -0.24919300 0.13923900
v -0.24366400 -0.24919300 0.13923900
v -0.23232400 -0.23901600 0.16350100
v -0.23232400 -0.23901600 0.16350100
v -0.21894300 -0.22675600 0.18504400
v -0.21894300 -0.22675600 0.18504400
v -0.20238800 -0.21212000 0.22594700
v -0.20238800 -0.21212000 0.22594700
v -0.20238800 -0.21212000 0.22594700
v -0.18984000 -0.20007300 0.23442500
v -0.18984000 -0.20007300 0.23442500
v -0.18984000 -0.20007300 0.23442500
v -0.18444900 -0.19434700 0.22920400
v -0.18444900 -0.19434700 0.22920400
v -0.18444900 -0.19434700 0.22920400
v -0.25038500 -0.25233700 0.02725400
v -0.25038500 -0.25233700 0.02725400
v -0.24844400 -0.25081400 0.05060400
v -0.24844400 -0.25081400 0.05060400
v -0.24333000 -0.24639500 0.07549100
v -0.24333000 -0.24639500 0.07549100
v -0.23363200 -0.23771900 0.10229400
v -0.23363200 -0.23771900 0.10229400
v -0.22045200 -0.22576200 0.12774500
v -0.22045200 -0.22576200 0.12774500
v -0.20750900 -0.21388000 0.14643700
v -0.20750900 -0.21388000 0.14643700
v -0.20750900 -0.21388000 0.14643700
v -0.19851600 -0.20554200 0.15670500
v -0.19851600 -0.20554200 0.15670500
v -0.19678500 -0.20164300 0.18771700
v -0.19678500 -0.20164300 0.18771700
v -0.19709300 -0.20195100 0.19237700
v -0.19709300 -0.20195100 0.19237700
v -0.19429500 -0.19915200 0.17909500
v -0.19429500 -0.19915200 0.17909500
v -0.19429500 -0.19915200 0.17909500
v -0.19420100 -0.19906300 0.20562000
v -0.19420100 -0.19906300 0.20562000
v -0.19208900 -0.19695200 0.20922300
v -0.19208900 -0.19695200 0.20922300
v -0.19208900 -0.19695200 0.20922300
v -0.19208900 -0.19695200 0.20922300
v -0.19675200 -0.20161200 0.19703200
v -0.19675200 -0.20161200 0.19703200
v -0.19584000 -0.20069700 0.18323300
v -0.19584000 -0.20069700 0.18323300
v -0.19577600 -0.20063600 0.20150300
v -0.19577600 -0.20063600 0.20150300
v -0.19260900 -0.19746800 0.18863700
v -0.19260900 -0.19746800 0.18863700
v -0.19059200 -0.19545500 0.20260700
v -0.19059200 -0.19545500 0.20260700
v -0.19284900 -0.19770900 0.19227300
v -0.19284900 -0.19770900 0.19227300
v -0.19066500 -0.19552400 0.18190800
v -0.19066500 -0.19552400 0.18190800
v -0.19066500 -0.19552400 0.18190800
v -0.18894300 -0.19380800 0.20541900
v -0.18894300 -0.19380800 0.20541900
v -0.18894300 -0.19380800 0.20541900
v -0.19258300 -0.19744400 0.19590600
v -0.19258300 -0.19744400 0.19590600
v -0.19187100 -0.19673100 0.18513700
v -0.19187100 -0.19673100 0.18513700
v -0.19182100 -0.19668300 0.19939500
v -0.19182100 -0.19668300 0.19939500
v -0.19937400 -0.19203600 0.16301600
v -0.19937400 -0.19203600 0.16301600
v -0.19937400 -0.19203600 0.16301600
v -0.20307200 -0.18833500 0.16301700
v -0.20307200 -0.18833500 0.16301700
v -0.20307200 -0.18833500 0.16301700
v -0.20384600 -0.19607500 0.16800500
v -0.20384600 -0.19607500 0.16800500
v -0.20384600 -0.19607500 0.16800500
v -0.20732900 -0.19259000 0.16800600
v -0.20732900 -0.19259000 0.16800600
v -0.20732900 -0.19259000 0.16800600
v -0.20693100 -0.19901700 0.17325000
v -0.20693100 -0.19901700 0.17325000
v -0.21034300 -0.19560400 0.17325000
v -0.21034300 -0.19560400 0.17325000
v -0.20927100 -0.20114100 0.17922500
v -0.20927100 -0.20114100 0.17922500
v -0.21257500 -0.19783600 0.17922500
v -0.21257500 -0.19783600 0.17922500
v -0.21074400 -0.20239800 0.18570100
v -0.21074400 -0.20239800 0.18570100
v -0.21393900 -0.19920100 0.18570200
v -0.21393900 -0.19920100 0.18570200
v -0.21130000 -0.20273300 0.19242900
v -0.21130000 -0.20273300 0.19242900
v -0.21438400 -0.19964600 0.19243000
v -0.21438400 -0.19964600 0.19243000
v -0.21104100 -0.20200800 0.19915100
v -0.21104100 -0.20200800 0.19915100
v -0.21389200 -0.19915600 0.19915200
v -0.21389200 -0.19915600 0.19915200
v -0.20980300 -0.20042700 0.20560900
v -0.20980300 -0.20042700 0.20560900
v -0.21248200 -0.19774700 0.20560900
v -0.21248200 -0.19774700 0.20560900
v -0.20752900 -0.19815600 0.21155300
v -0.20752900 -0.19815600 0.21155300
v -0.21020800 -0.19547500 0.21155300
v -0.21020800 -0.19547500 0.21155300
v -0.20456400 -0.19502100 0.21675600
v -0.20456400 -0.19502100 0.21675600
v -0.20456400 -0.19502100 0.21675600
v -0.20715700 -0.19242700 0.21675600
v -0.20715700 -0.19242700 0.21675600
v -0.20715700 -0.19242700 0.21675600
v -0.20102700 -0.19114200 0.22101700
v -0.20102700 -0.19114200 0.22101700
v -0.20344700 -0.18872000 0.22101800
v -0.20344700 -0.18872000 0.22101800
v -0.19691700 -0.18680100 0.22417400
v -0.19691700 -0.18680100 0.22417400
v -0.19922100 -0.18449600 0.22417400
v -0.19922100 -0.18449600 0.22417400
v -0.19451500 -0.18429600 0.22611900
v -0.19451500 -0.18429600 0.22611900
v -0.19451500 -0.18429600 0.22611900
v -0.19451500 -0.18429600 0.22611900
v -0.19676700 -0.18204400 0.22611900
v -0.19676700 -0.18204400 0.22611900
v -0.19676700 -0.18204400 0.22611900
v -0.19654200 -0.18180900 0.17025200
v -0.19654200 -0.18180900 0.17025200
v -0.19654200 -0.18180900 0.17025200
v -0.19945300 -0.18471900 0.17247800
v -0.19945300 -0.18471900 0.17247800
v -0.20200100 -0.18726700 0.17546500
v -0.20200100 -0.18726700 0.17546500
v -0.20200100 -0.18726700 0.17546500
v -0.20408800 -0.18935300 0.17909700
v -0.20408800 -0.18935300 0.17909700
v -0.20563400 -0.19089900 0.18323400
v -0.20563400 -0.19089900 0.18323400
v -0.20657900 -0.19184400 0.18771900
v -0.20657900 -0.19184400 0.18771900
v -0.20688700 -0.19215300 0.19237800
v -0.20688700 -0.19215300 0.19237800
v -0.20654600 -0.19181300 0.19703300
v -0.20654600 -0.19181300 0.19703300
v -0.20556900 -0.19083800 0.20150500
v -0.20556900 -0.19083800 0.20150500
v -0.20399500 -0.18926400 0.20562100
v -0.20399500 -0.18926400 0.20562100
v -0.20188200 -0.18715400 0.20922400
v -0.20188200 -0.18715400 0.20922400
v -0.20188200 -0.18715400 0.20922400
v -0.19931300 -0.18458600 0.21217600
v -0.19931300 -0.18458600 0.21217600
v -0.19638600 -0.18166100 0.21436100
v -0.19638600 -0.18166100 0.21436100
v -0.19321400 -0.17849100 0.21569800
v -0.19321400 -0.17849100 0.21569800
v -0.19321400 -0.17849100 0.21569800
v -0.26236100 -0.25862200 0.08030000
v -0.26236100 -0.25862200 0.08030000
v -0.25316000 -0.25083100 0.00272800
v -0.25316000 -0.25083100 0.00272800
v -0.25316000 -0.25083100 0.00272800
v -0.26318200 -0.26023200 0.05124100
v -0.26318200 -0.26023200 0.05124100
v -0.26001300 -0.25752200 0.02575900
v -0.26001300 -0.25752200 0.02575900
v -0.25726000 -0.25234200 0.11338500
v -0.25726000 -0.25234200 0.11338500
v -0.24943300 -0.24342100 0.13924000
v -0.24943300 -0.24342100 0.13924000
v -0.23924700 -0.23209000 0.16350200
v -0.23924700 -0.23209000 0.16350200
v -0.22697600 -0.21871900 0.18504600
v -0.22697600 -0.21871900 0.18504600
v -0.21232400 -0.20217900 0.22594900
v -0.21232400 -0.20217900 0.22594900
v -0.21232400 -0.20217900 0.22594900
v -0.20026900 -0.18963800 0.23442700
v -0.20026900 -0.18963800 0.23442700
v -0.20026900 -0.18963800 0.23442700
v -0.19454100 -0.18424900 0.22920600
v -0.19454100 -0.18424900 0.22920600
v -0.19454100 -0.18424900 0.22920600
v -0.25260100 -0.25012000 0.02725400
v -0.25260100 -0.25012000 0.02725400
v -0.25107200 -0.24818400 0.05060500
v -0.25107200 -0.24818400 0.05060500
v -0.24664700 -0.24307700 0.07549200
v -0.24664700 -0.24307700 0.07549200
v -0.23796100 -0.23338800 0.10229500
v -0.23796100 -0.23338800 0.10229500
v -0.22599200 -0.22021900 0.12774600
v -0.22599200 -0.22021900 0.12774600
v -0.21410100 -0.20728500 0.14643800
v -0.21410100 -0.20728500 0.14643800
v -0.21410100 -0.20728500 0.14643800
v -0.20575600 -0.19829800 0.15670600
v -0.20575600 -0.19829800 0.15670600
v -0.19581100 -0.19560000 0.16301600
v -0.18949500 -0.18929800 0.22920500
v -0.18949500 -0.18929800 0.22920500
v -0.25149300 -0.25122800 0.02725400
v -0.24975800 -0.24949900 0.05060400
v -0.24654900 -0.24630700 0.13924000
v -0.25492700 -0.25467600 0.11338400
v -0.24498900 -0.24473600 0.07549100
v -0.23578500 -0.23555300 0.16350100
v -0.23579600 -0.23555300 0.10229500
v -0.22295900 -0.22273800 0.18504500
v -0.22322200 -0.22299000 0.12774600
v -0.20735600 -0.20714900 0.22594800
v -0.20735600 -0.20714900 0.22594800
v -0.26062200 -0.26036200 0.08030000
v -0.21080500 -0.21058300 0.14643800
v -0.21080500 -0.21058300 0.14643800
v -0.19505400 -0.19485600 0.23442600
v -0.19505400 -0.19485600 0.23442600
v -0.26184000 -0.26157500 0.05124100
v -0.20213600 -0.20192000 0.15670600
v -0.25890200 -0.25863300 0.02575800
v -0.25213000 -0.25186100 0.00272800
v -0.25213000 -0.25186100 0.00272800
v -0.18950600 -0.18930800 0.22611800
v -0.18950600 -0.18930800 0.22611800
v -0.18595300 -0.18575600 0.21569700
v -0.18595300 -0.18575600 0.21569700
v -0.18928100 -0.18907400 0.17025100
v -0.18928100 -0.18907400 0.17025100
v -0.19219200 -0.19198400 0.17247700
v -0.19474000 -0.19453100 0.17546300
v -0.19474000 -0.19453100 0.17546300
v -0.19682700 -0.19661800 0.17909500
v -0.19682700 -0.19661800 0.17909500
v -0.19462100 -0.19441800 0.20922300
v -0.19462100 -0.19441800 0.20922300
v -0.19205200 -0.19185100 0.21217400
v -0.18912500 -0.18892600 0.21436000
v -0.20185100 -0.19657500 0.18771800
v -0.20185100 -0.19657500 0.18771800
v -0.20215900 -0.19688400 0.19237800
v -0.20215900 -0.19688400 0.19237800
v -0.19936000 -0.19408400 0.17909600
v -0.19936000 -0.19408400 0.17909600
v -0.19936000 -0.19408400 0.17909600
v -0.19926600 -0.19399500 0.20562000
v -0.19926600 -0.19399500 0.20562000
v -0.19715400 -0.19188400 0.20922400
v -0.19715400 -0.19188400 0.20922400
v -0.19715400 -0.19188400 0.20922400
v -0.19715400 -0.19188400 0.20922400
v -0.20181800 -0.19654400 0.19703300
v -0.20181800 -0.19654400 0.19703300
v -0.20090600 -0.19563000 0.18323300
v -0.20090600 -0.19563000 0.18323300
v -0.20084100 -0.19556800 0.20150400
v -0.20084100 -0.19556800 0.20150400
v -0.19440400 -0.19419700 0.18513700
v -0.19319800 -0.19299100 0.18190800
v -0.19319800 -0.19299100 0.18190800
v -0.19514100 -0.19493500 0.18863700
v -0.19538200 -0.19517500 0.19227300
v -0.19511600 -0.19491000 0.19590600
v -0.19435400 -0.19414900 0.19939500
v -0.19312500 -0.19292100 0.20260800
v -0.19147600 -0.19127400 0.20542000
v -0.19147600 -0.19127400 0.20542000
v -0.19767400 -0.19240100 0.18863800
v -0.19767400 -0.19240100 0.18863800
v -0.19565700 -0.19038700 0.20260800
v -0.19565700 -0.19038700 0.20260800
v -0.19791400 -0.19264100 0.19227400
v -0.19791400 -0.19264100 0.19227400
v -0.19573000 -0.19045700 0.18190900
v -0.19573000 -0.19045700 0.18190900
v -0.19573000 -0.19045700 0.18190900
v -0.19400900 -0.18874000 0.20542000
v -0.19400900 -0.18874000 0.20542000
v -0.19400900 -0.18874000 0.20542000
v -0.19764800 -0.19237600 0.19590600
v -0.19764800 -0.19237600 0.19590600
v -0.19693600 -0.19166300 0.18513800
v -0.19693600 -0.19166300 0.18513800
v -0.19688600 -0.19161500 0.19939600
v -0.19688600 -0.19161500 0.19939600
vn -0.45140000 -0.45110000 -0.76990000
vn 0.70760000 -0.70620000 -0.02250000
vn 0.42680000 0.42670000 -0.79730000
vn 0.70690000 -0.70730000 -0.00010000
vn -0.45140000 -0.45110000 -0.76990000
vn 0.43620000 0.43610000 -0.78710000
vn -0.50180000 -0.50140000 -0.70490000
vn -0.50180000 -0.50140000 -0.70490000
vn 0.70760000 -0.70620000 -0.02250000
vn -0.50260000 -0.50220000 -0.70370000
vn -0.50260000 -0.50220000 -0.70370000
vn 0.70690000 -0.70730000 -0.00010000
vn 0.70760000 -0.70620000 -0.02250000
vn -0.58960000 -0.58920000 -0.55250000
vn -0.59000000 -0.58960000 -0.55150000
vn 0.70690000 -0.70730000 -0.00010000
vn 0.70760000 -0.70620000 -0.02250000
vn -0.65440000 -0.65400000 -0.37950000
vn 0.70690000 -0.70730000 -0.00010000
vn -0.65480000 -0.65440000 -0.37820000
vn -0.69420000 -0.69380000 -0.19170000
vn 0.70760000 -0.70620000 -0.02250000
vn 0.70690000 -0.70730000 -0.00010000
vn -0.69440000 -0.69400000 -0.19030000
vn 0.70680000 -0.70680000 -0.02930000
vn -0.70730000 -0.70690000 0.00260000
vn -0.70730000 -0.70690000 0.00490000
vn 0.70690000 -0.70730000 -0.00010000
vn 0.70630000 -0.70710000 -0.03390000
vn -0.69340000 -0.69310000 0.19730000
vn -0.69300000 -0.69270000 0.19990000
vn 0.70690000 -0.70730000 -0.00010000
vn 0.70630000 -0.70710000 -0.03390000
vn -0.65240000 -0.65210000 0.38610000
vn 0.70690000 -0.70730000 -0.00010000
vn -0.65210000 -0.65180000 0.38720000
vn -0.58630000 -0.58610000 0.55910000
vn 0.70630000 -0.70710000 -0.03390000
vn 0.70690000 -0.70730000 -0.00010000
vn -0.58610000 -0.58590000 0.55960000
vn -0.49850000 -0.49840000 0.70930000
vn -0.49850000 -0.49840000 0.70930000
vn 0.70630000 -0.70710000 -0.03390000
vn -0.49760000 -0.49750000 0.71050000
vn 0.70690000 -0.70730000 -0.00010000
vn -0.49760000 -0.49750000 0.71050000
vn -0.39110000 -0.39110000 0.83310000
vn 0.70600000 -0.70730000 -0.03640000
vn 0.70690000 -0.70730000 -0.00010000
vn -0.39000000 -0.39000000 0.83420000
vn 0.70580000 -0.70740000 -0.03740000
vn -0.33790000 -0.33790000 0.87840000
vn -0.33810000 -0.33800000 0.87830000
vn 0.70690000 -0.70730000 -0.00010000
vn 0.63720000 0.63680000 0.43430000
vn 0.70580000 -0.70740000 -0.03740000
vn 0.70730000 0.70690000 -0.00490000
vn -0.34580000 -0.34570000 0.87230000
vn -0.34580000 -0.34570000 0.87230000
vn 0.63720000 0.63680000 0.43430000
vn 0.70690000 -0.70730000 -0.00010000
vn 0.70690000 -0.70730000 -0.00010000
vn 0.43620000 0.43610000 -0.78710000
vn 0.33650000 0.33620000 0.87960000
vn 0.39590000 0.39550000 0.82880000
vn 0.70690000 -0.70730000 -0.00010000
vn 0.50260000 0.50220000 0.70370000
vn 0.50260000 0.50220000 0.70370000
vn 0.70690000 -0.70730000 -0.00010000
vn 0.70690000 -0.70730000 -0.00010000
vn 0.59000000 0.58960000 0.55150000
vn 0.65480000 0.65440000 0.37820000
vn 0.70690000 -0.70730000 -0.00010000
vn 0.70690000 -0.70730000 -0.00010000
vn 0.69440000 0.69400000 0.19030000
vn 0.70690000 -0.70730000 -0.00010000
vn 0.70730000 0.70690000 -0.00490000
vn 0.69300000 0.69270000 -0.19990000
vn 0.70690000 -0.70730000 -0.00010000
vn 0.70690000 -0.70730000 -0.00010000
vn 0.65210000 0.65180000 -0.38720000
vn 0.70690000 -0.70730000 -0.00010000
vn 0.58610000 0.58590000 -0.55960000
vn 0.70690000 -0.70730000 -0.00010000
vn 0.49760000 0.49750000 -0.71050000
vn 0.49760000 0.49750000 -0.71050000
vn 0.39000000 0.39000000 -0.83420000
vn 0.70690000 -0.70730000 -0.00010000
vn 0.70690000 -0.70730000 -0.00010000
vn 0.26740000 0.26740000 -0.92570000
vn 0.70690000 -0.70730000 -0.00010000
vn 0.20190000 0.20200000 -0.95830000
vn 0.63720000 0.63680000 0.43430000
vn 0.70670000 -0.70710000 -0.02290000
vn -0.69930000 -0.69900000 0.14950000
vn 0.70760000 -0.70660000 -0.00470000
vn 0.12560000 0.12570000 -0.98410000
vn 0.12560000 0.12570000 -0.98410000
vn 0.70790000 -0.70610000 -0.01640000
vn -0.70640000 -0.70600000 -0.05020000
vn 0.70800000 -0.70620000 -0.00910000
vn -0.68030000 -0.67990000 -0.27370000
vn 0.70470000 -0.70900000 -0.02770000
vn -0.66780000 -0.66750000 0.32940000
vn -0.62200000 -0.62180000 0.47590000
vn 0.70260000 -0.71090000 -0.03020000
vn 0.70090000 -0.71260000 -0.03080000
vn -0.57100000 -0.57080000 0.59000000
vn -0.58560000 -0.58540000 0.56070000
vn 0.70400000 -0.70960000 -0.02870000
vn 0.70610000 -0.70720000 -0.03500000
vn -0.62250000 -0.62230000 0.47460000
vn -0.30980000 -0.30980000 0.89890000
vn -0.30980000 -0.30980000 0.89890000
vn 0.70580000 -0.70740000 -0.03740000
vn 0.39140000 0.39100000 0.83300000
vn 0.39140000 0.39100000 0.83300000
vn 0.70580000 -0.70740000 -0.03740000
vn 0.70730000 0.70690000 -0.00490000
vn 0.70800000 -0.70620000 -0.00920000
vn 0.70550000 0.70520000 -0.07070000
vn 0.70790000 -0.70610000 -0.01650000
vn 0.69520000 0.69480000 -0.18420000
vn 0.66210000 0.66180000 -0.35150000
vn 0.70670000 -0.70710000 -0.02300000
vn 0.60960000 0.60930000 -0.50710000
vn 0.70460000 -0.70910000 -0.02780000
vn 0.70230000 -0.71120000 -0.03040000
vn 0.54850000 0.54830000 -0.63120000
vn 0.48510000 0.48500000 -0.72760000
vn 0.48510000 0.48500000 -0.72760000
vn 0.70070000 -0.71280000 -0.03070000
vn 0.70430000 -0.70950000 -0.02620000
vn 0.43120000 0.43110000 -0.79260000
vn 0.69440000 0.69400000 0.19030000
vn 0.70690000 -0.70730000 -0.00010000
vn 0.70730000 0.70690000 -0.00490000
vn 0.70690000 -0.70730000 -0.00010000
vn 0.70690000 -0.70730000 -0.00010000
vn 0.57690000 0.57650000 0.57860000
vn 0.33990000 0.33990000 -0.87690000
vn 0.70690000 -0.70730000 -0.00010000
vn 0.58610000 0.58590000 -0.55960000
vn 0.48090000 0.48080000 -0.73320000
vn 0.48090000 0.48080000 -0.73320000
vn 0.45980000 0.45940000 0.76000000
vn 0.70690000 -0.70730000 -0.00010000
vn 0.70690000 -0.70730000 -0.00010000
vn 0.69300000 0.69270000 -0.19990000
vn 0.65480000 0.65440000 0.37820000
vn 0.70690000 -0.70730000 -0.00010000
vn 0.70690000 -0.70730000 -0.00010000
vn 0.65210000 0.65180000 -0.38720000
vn 0.69440000 0.69400000 0.19030000
vn 0.70690000 -0.70730000 -0.00010000
vn 0.58610000 0.58590000 -0.55960000
vn 0.70690000 -0.70730000 -0.00010000
vn 0.70690000 -0.70730000 -0.00010000
vn 0.70730000 0.70690000 -0.00490000
vn 0.70690000 -0.70730000 -0.00010000
vn 0.33990000 0.33990000 -0.87690000
vn 0.62540000 0.62500000 0.46710000
vn 0.70690000 -0.70730000 -0.00010000
vn 0.54450000 0.54430000 -0.63810000
vn 0.45980000 0.45940000 0.76000000
vn 0.70690000 -0.70730000 -0.00010000
vn 0.69300000 0.69270000 -0.19990000
vn 0.65480000 0.65440000 0.37820000
vn 0.70690000 -0.70730000 -0.00010000
vn 0.65210000 0.65180000 -0.38720000
vn 0.70690000 -0.70730000 -0.00010000
vn 0.42680000 0.42670000 -0.79730000
vn -0.70590000 0.70800000 -0.02230000
vn -0.45140000 -0.45110000 -0.76990000
vn -0.70690000 0.70730000 0.00010000
vn -0.45140000 -0.45110000 -0.76990000
vn 0.43620000 0.43610000 -0.78710000
vn -0.70590000 0.70800000 -0.02230000
vn -0.50180000 -0.50140000 -0.70490000
vn -0.50180000 -0.50140000 -0.70490000
vn -0.50260000 -0.50220000 -0.70370000
vn -0.50260000 -0.50220000 -0.70370000
vn -0.70690000 0.70730000 0.00010000
vn -0.58960000 -0.58920000 -0.55250000
vn -0.70590000 0.70800000 -0.02230000
vn -0.70690000 0.70730000 0.00010000
vn -0.59000000 -0.58960000 -0.55150000
vn -0.70590000 0.70800000 -0.02230000
vn -0.65440000 -0.65400000 -0.37950000
vn -0.70690000 0.70730000 0.00010000
vn -0.65480000 -0.65440000 -0.37820000
vn -0.69420000 -0.69380000 -0.19170000
vn -0.70590000 0.70800000 -0.02230000
vn -0.69440000 -0.69400000 -0.19030000
vn -0.70690000 0.70730000 0.00010000
vn -0.70640000 0.70720000 -0.02910000
vn -0.70730000 -0.70690000 0.00260000
vn -0.70730000 -0.70690000 0.00490000
vn -0.70690000 0.70730000 0.00010000
vn -0.69340000 -0.69310000 0.19730000
vn -0.70680000 0.70660000 -0.03370000
vn -0.70690000 0.70730000 0.00010000
vn -0.69300000 -0.69270000 0.19990000
vn -0.70680000 0.70660000 -0.03370000
vn -0.65240000 -0.65210000 0.38610000
vn -0.70690000 0.70730000 0.00010000
vn -0.65210000 -0.65180000 0.38720000
vn -0.58630000 -0.58610000 0.55910000
vn -0.70680000 0.70660000 -0.03370000
vn -0.70690000 0.70730000 0.00010000
vn -0.58610000 -0.58590000 0.55960000
vn -0.49850000 -0.49840000 0.70930000
vn -0.49850000 -0.49840000 0.70930000
vn -0.70680000 0.70660000 -0.03370000
vn -0.49760000 -0.49750000 0.71050000
vn -0.49760000 -0.49750000 0.71050000
vn -0.70690000 0.70730000 0.00010000
vn -0.39110000 -0.39110000 0.83310000
vn -0.70700000 0.70630000 -0.03610000
vn -0.70690000 0.70730000 0.00010000
vn -0.39000000 -0.39000000 0.83420000
vn -0.33790000 -0.33790000 0.87840000
vn -0.70700000 0.70620000 -0.03710000
vn -0.33800000 -0.33800000 0.87830000
vn -0.70690000 0.70730000 0.00010000
vn 0.63720000 0.63670000 0.43430000
vn -0.70700000 0.70620000 -0.03710000
vn 0.70730000 0.70690000 -0.00490000
vn -0.34570000 -0.34570000 0.87230000
vn -0.70690000 0.70730000 0.00010000
vn -0.34570000 -0.34570000 0.87230000
vn 0.63720000 0.63670000 0.43430000
vn 0.43620000 0.43610000 -0.78710000
vn -0.70690000 0.70730000 0.00010000
vn 0.33650000 0.33620000 0.87960000
vn 0.39590000 0.39550000 0.82880000
vn -0.70690000 0.70730000 0.00010000
vn 0.50260000 0.50220000 0.70370000
vn 0.50260000 0.50220000 0.70370000
vn -0.70690000 0.70730000 0.00010000
vn 0.59000000 0.58960000 0.55150000
vn -0.70690000 0.70730000 0.00010000
vn -0.70690000 0.70730000 0.00010000
vn 0.65480000 0.65440000 0.37820000
vn 0.69440000 0.69400000 0.19030000
vn -0.70690000 0.70730000 0.00010000
vn 0.70730000 0.70690000 -0.00490000
vn -0.70690000 0.70730000 0.00010000
vn -0.70690000 0.70730000 0.00010000
vn 0.69300000 0.69270000 -0.19990000
vn 0.65210000 0.65180000 -0.38720000
vn -0.70690000 0.70730000 0.00010000
vn -0.70690000 0.70730000 0.00010000
vn 0.58610000 0.58590000 -0.55960000
vn -0.70690000 0.70730000 0.00010000
vn 0.49760000 0.49750000 -0.71050000
vn 0.49760000 0.49750000 -0.71050000
vn -0.70690000 0.70730000 0.00010000
vn 0.39000000 0.39000000 -0.83420000
vn 0.26740000 0.26740000 -0.92570000
vn -0.70690000 0.70730000 0.00010000
vn 0.20190000 0.20200000 -0.95830000
vn 0.63720000 0.63670000 0.43430000
vn -0.70690000 0.70730000 0.00010000
vn -0.69930000 -0.69900000 0.14950000
vn -0.70680000 0.70710000 -0.02260000
vn -0.70620000 0.70800000 -0.00440000
vn 0.12560000 0.12570000 -0.98410000
vn 0.12560000 0.12570000 -0.98410000
vn -0.70640000 -0.70600000 -0.05020000
vn -0.70570000 0.70830000 -0.01620000
vn -0.70580000 0.70830000 -0.00880000
vn -0.68030000 -0.67990000 -0.27370000
vn -0.66780000 -0.66750000 0.32940000
vn -0.70860000 0.70500000 -0.02740000
vn -0.71060000 0.70300000 -0.02990000
vn -0.62200000 -0.62180000 0.47590000
vn -0.57100000 -0.57080000 0.59000000
vn -0.71220000 0.70130000 -0.03050000
vn -0.58560000 -0.58540000 0.56070000
vn -0.70930000 0.70430000 -0.02850000
vn -0.62250000 -0.62230000 0.47460000
vn -0.30980000 -0.30980000 0.89890000
vn -0.70690000 0.70650000 -0.03470000
vn -0.70700000 0.70620000 -0.03710000
vn -0.30980000 -0.30980000 0.89890000
vn 0.39140000 0.39100000 0.83300000
vn 0.39140000 0.39100000 0.83300000
vn -0.70700000 0.70620000 -0.03710000
vn 0.70730000 0.70690000 -0.00490000
vn 0.70550000 0.70520000 -0.07070000
vn -0.70580000 0.70830000 -0.00900000
vn 0.69520000 0.69480000 -0.18420000
vn -0.70570000 0.70830000 -0.01630000
vn -0.70680000 0.70710000 -0.02270000
vn 0.66210000 0.66180000 -0.35150000
vn -0.70870000 0.70500000 -0.02750000
vn 0.60960000 0.60930000 -0.50710000
vn 0.54850000 0.54840000 -0.63120000
vn -0.71090000 0.70270000 -0.03010000
vn 0.48510000 0.48500000 -0.72760000
vn 0.48510000 0.48500000 -0.72760000
vn -0.71250000 0.70110000 -0.03050000
vn 0.43120000 0.43110000 -0.79260000
vn -0.70910000 0.70460000 -0.02590000
vn 0.42210000 0.42200000 -0.80230000
vn 0.70730000 0.70690000 -0.00490000
vn 0.39140000 0.39100000 0.83300000
vn 0.70550000 0.70520000 -0.07050000
vn 0.69530000 0.69490000 -0.18350000
vn -0.62240000 -0.62220000 0.47490000
vn -0.66820000 -0.66790000 0.32790000
vn 0.66240000 0.66220000 -0.35030000
vn -0.57150000 -0.57130000 0.58900000
vn 0.61000000 0.60980000 -0.50600000
vn -0.58490000 -0.58470000 0.56220000
vn 0.54910000 0.54890000 -0.63020000
vn -0.30980000 -0.30980000 0.89890000
vn -0.62250000 -0.62230000 0.47460000
vn -0.69950000 -0.69910000 0.14830000
vn 0.48570000 0.48560000 -0.72680000
vn 0.48570000 0.48560000 -0.72680000
vn 0.39140000 0.39100000 0.83300000
vn -0.30980000 -0.30980000 0.89890000
vn -0.70640000 -0.70600000 -0.05130000
vn 0.43130000 0.43120000 -0.79250000
vn -0.68020000 -0.67980000 -0.27430000
vn 0.12570000 0.12580000 -0.98410000
vn 0.12570000 0.12580000 -0.98410000
vn 0.70730000 0.70690000 -0.00490000
vn 0.63720000 0.63680000 0.43430000
vn 0.20190000 0.20200000 -0.95830000
vn 0.63720000 0.63680000 0.43430000
vn 0.33650000 0.33620000 0.87960000
vn 0.43620000 0.43610000 -0.78710000
vn 0.39590000 0.39550000 0.82880000
vn 0.50260000 0.50220000 0.70370000
vn 0.50260000 0.50220000 0.70370000
vn 0.33990000 0.33990000 -0.87690000
vn 0.54900000 0.54860000 0.63060000
vn 0.45980000 0.45940000 0.76000000
vn 0.44600000 0.44590000 -0.77610000
vn 0.39000000 0.39000000 -0.83420000
vn 0.26740000 0.26740000 -0.92570000
vn 0.69440000 0.69400000 0.19030000
vn -0.70690000 0.70730000 0.00010000
vn -0.70690000 0.70730000 0.00010000
vn 0.70730000 0.70690000 -0.00490000
vn 0.33990000 0.33990000 -0.87690000
vn 0.57690000 0.57650000 0.57860000
vn -0.70690000 0.70730000 0.00010000
vn -0.70690000 0.70730000 0.00010000
vn 0.58610000 0.58590000 -0.55960000
vn 0.48090000 0.48080000 -0.73320000
vn 0.48090000 0.48080000 -0.73320000
vn -0.70690000 0.70730000 0.00010000
vn 0.45980000 0.45940000 0.76000000
vn -0.70690000 0.70730000 0.00010000
vn 0.69300000 0.69270000 -0.19990000
vn 0.65480000 0.65440000 0.37820000
vn -0.70690000 0.70730000 0.00010000
vn 0.65210000 0.65180000 -0.38720000
vn -0.70690000 0.70730000 0.00010000
vn 0.65480000 0.65440000 0.37820000
vn 0.62540000 0.62500000 0.46710000
vn 0.33990000 0.33990000 -0.87690000
vn 0.69440000 0.69400000 0.19030000
vn 0.70730000 0.70690000 -0.00490000
vn 0.69300000 0.69270000 -0.19990000
vn 0.65210000 0.65180000 -0.38720000
vn 0.58610000 0.58590000 -0.55960000
vn 0.54450000 0.54430000 -0.63810000
vn 0.45980000 0.45940000 0.76000000
vn -0.70690000 0.70730000 0.00010000
vn 0.69440000 0.69400000 0.19030000
vn 0.58610000 0.58590000 -0.55960000
vn -0.70690000 0.70730000 0.00010000
vn 0.70730000 0.70690000 -0.00490000
vn -0.70690000 0.70730000 0.00010000
vn -0.70690000 0.70730000 0.00010000
vn 0.62540000 0.62500000 0.46710000
vn 0.33990000 0.33990000 -0.87690000
vn 0.54450000 0.54430000 -0.63810000
vn 0.45980000 0.45940000 0.76000000
vn -0.70690000 0.70730000 0.00010000
vn -0.70690000 0.70730000 0.00010000
vn 0.69300000 0.69270000 -0.19990000
vn -0.70690000 0.70730000 0.00010000
vn 0.65480000 0.65440000 0.37820000
vn -0.70690000 0.70730000 0.00010000
vn 0.65210000 0.65180000 -0.38720000
vt 0.90394800 0.60240500
vt 0.23407700 0.35115100
vt 0.90394800 0.60240500
vt 0.29797300 0.59501400
vt 0.89882200 0.60240500
vt 0.89882200 0.60240500
vt 0.91265800 0.73418000
vt 0.90364900 0.59649800
vt 0.22662500 0.35289600
vt 0.89882200 0.59649800
vt 0.91748500 0.73418800
vt 0.29160500 0.59925800
vt 0.22060200 0.35563100
vt 0.91275800 0.73922700
vt 0.91748500 0.73923500
vt 0.28692400 0.60392800
vt 0.21522900 0.35948600
vt 0.91290300 0.74500800
vt 0.28324700 0.60942000
vt 0.91748100 0.74501600
vt 0.91304600 0.75130200
vt 0.21071500 0.36431300
vt 0.28071300 0.61552200
vt 0.91747400 0.75130900
vt 0.20723100 0.36992700
vt 0.91319000 0.75786600
vt 0.91746500 0.75787300
vt 0.27942200 0.62200000
vt 0.20491400 0.37610900
vt 0.91350100 0.76444800
vt 0.91745200 0.76445500
vt 0.27942200 0.62860400
vt 0.20385000 0.38262500
vt 0.91372500 0.77079600
vt 0.28071300 0.63508200
vt 0.91743700 0.77080300
vt 0.91370900 0.77666500
vt 0.20407900 0.38922600
vt 0.28324700 0.64118500
vt 0.91742100 0.77667100
vt 0.91381000 0.78183000
vt 0.96252300 0.15437500
vt 0.20559500 0.39565400
vt 0.96611600 0.15437500
vt 0.28692400 0.64667600
vt 0.91740300 0.78183600
vt 0.96276200 0.15948100
vt 0.20834000 0.40166200
vt 0.29160500 0.65134700
vt 0.96611600 0.15948100
vt 0.21220700 0.40702300
vt 0.96292400 0.16530600
vt 0.96611600 0.16530600
vt 0.29710900 0.65501700
vt 0.28244500 0.92161900
vt 0.21440400 0.41023300
vt 0.28244500 0.92161900
vt 0.96299600 0.16868800
vt 0.96611600 0.16868800
vt 0.28244500 0.91850600
vt 0.30029400 0.65725600
vt 0.30623900 0.60297600
vt 0.89882200 0.61139400
vt 0.25224400 0.95759300
vt 0.25628700 0.95759300
vt 0.30200400 0.60472700
vt 0.86856900 0.28078800
vt 0.25983000 0.95759300
vt 0.29819300 0.60726700
vt 0.29495100 0.61050100
vt 0.86856300 0.28436500
vt 0.86855900 0.28842900
vt 0.29240400 0.61430400
vt 0.29065000 0.61853000
vt 0.86855600 0.29282500
vt 0.28975600 0.62301600
vt 0.86855500 0.29738300
vt 0.86855600 0.30192900
vt 0.28975600 0.62758900
vt 0.29065000 0.63207500
vt 0.86855900 0.30628700
vt 0.29240400 0.63630100
vt 0.86856300 0.31029000
vt 0.29495100 0.64010400
vt 0.86856900 0.31378400
vt 0.43837800 0.92775800
vt 0.43483400 0.92775800
vt 0.29819300 0.64333900
vt 0.30200400 0.64588000
vt 0.43079100 0.92775800
vt 0.30623900 0.64763000
vt 0.42640400 0.92775800
vt 0.29269900 0.91851600
vt 0.18973400 0.23892900
vt 0.67331200 0.08536200
vt 0.23407700 0.17627100
vt 0.67230200 0.00977500
vt 0.70334500 0.14970600
vt 0.20088800 0.21275300
vt 0.67276400 0.05693100
vt 0.21563900 0.19226200
vt 0.67243400 0.03210400
vt 0.18238000 0.27137700
vt 0.67411900 0.11784300
vt 0.67486000 0.14333000
vt 0.18150600 0.29915000
vt 0.18428500 0.32699400
vt 0.67563000 0.16732200
vt 0.67636300 0.18871200
vt 0.19080700 0.35372800
vt 0.19233800 0.39910700
vt 0.67763900 0.22909300
vt 0.93837500 0.45543000
vt 0.93871600 0.47238900
vt 0.20390300 0.41408800
vt 0.93871600 0.47238900
vt 0.93848300 0.48009800
vt 0.21307200 0.41294100
vt 0.27942200 0.92156900
vt 0.22417600 0.19812700
vt 0.70345100 0.12574200
vt 0.21615000 0.21962700
vt 0.70373200 0.10294200
vt 0.70419400 0.07867800
vt 0.21121900 0.24433600
vt 0.70486900 0.05259900
vt 0.21094100 0.27344000
vt 0.21544700 0.30343800
vt 0.70567200 0.02788500
vt 0.90431700 0.58176500
vt 0.70636500 0.00977500
vt 0.22270500 0.32742500
vt 0.22898400 0.34173800
vt 0.90386700 0.59369500
vt 0.87510800 0.29282500
vt 0.94270000 0.24315500
vt 0.87510700 0.29738300
vt 0.94359400 0.23866900
vt 0.93839900 0.25118300
vt 0.87511500 0.28436500
vt 0.60785600 0.17244400
vt 0.94094600 0.22538300
vt 0.87511500 0.31029000
vt 0.43837800 0.93429600
vt 0.87512100 0.31378400
vt 0.90169900 0.48936000
vt 0.93839900 0.22158000
vt 0.94359400 0.23409500
vt 0.87510800 0.30192900
vt 0.87511100 0.28843000
vt 0.94094500 0.24738000
vt 0.94270000 0.22960900
vt 0.87511100 0.30628700
vt 0.94486700 0.51798500
vt 0.93703900 0.24166700
vt 0.94487000 0.53161400
vt 0.93567000 0.22779900
vt 0.93773700 0.23816600
vt 0.94486600 0.52154200
vt 0.93368200 0.24793200
vt 0.60284300 0.17244400
vt 0.94487400 0.51138300
vt 0.93368200 0.22483100
vt 0.94487500 0.53434100
vt 0.89732500 0.48936000
vt 0.93773700 0.23459700
vt 0.94486600 0.52509000
vt 0.94487000 0.51455500
vt 0.93567000 0.24496400
vt 0.94486800 0.52849000
vt 0.93703900 0.23109600
vt 0.91382000 0.60240500
vt 0.47310000 0.33006200
vt 0.91382000 0.60240500
vt 0.61577500 0.66577800
vt 0.91894500 0.60240500
vt 0.91894500 0.60240500
vt 0.46564700 0.32831700
vt 0.25500400 0.91796500
vt 0.91411800 0.59649800
vt 0.91894500 0.59649800
vt 0.25983000 0.91796500
vt 0.60940800 0.66153300
vt 0.25509400 0.91291800
vt 0.45962300 0.32558100
vt 0.60472700 0.65686300
vt 0.25982200 0.91291800
vt 0.45425000 0.32172500
vt 0.25523700 0.90713700
vt 0.60104900 0.65137100
vt 0.25981500 0.90713700
vt 0.25538200 0.90084400
vt 0.44973500 0.31689800
vt 0.25981100 0.90084400
vt 0.59851600 0.64526900
vt 0.44625100 0.31128500
vt 0.25553500 0.89428000
vt 0.25980900 0.89428000
vt 0.59722400 0.63879200
vt 0.25586000 0.88769800
vt 0.44393300 0.30510300
vt 0.59722400 0.63218700
vt 0.25981000 0.88769800
vt 0.44286900 0.29858800
vt 0.25610200 0.88135000
vt 0.59851600 0.62570900
vt 0.25981400 0.88135000
vt 0.25610800 0.87548200
vt 0.44309800 0.29198700
vt 0.60104900 0.61960700
vt 0.25982000 0.87548200
vt 0.73337700 0.95852000
vt 0.25623600 0.87031700
vt 0.44461400 0.28555900
vt 0.25982900 0.87031700
vt 0.73697000 0.95852000
vt 0.60472700 0.61411500
vt 0.73361600 0.95341400
vt 0.44735900 0.27955200
vt 0.60940800 0.60944500
vt 0.73697000 0.95341400
vt 0.73377800 0.94758900
vt 0.45122600 0.27419300
vt 0.73697000 0.94758900
vt 0.61491200 0.60577600
vt 0.28244500 0.93547200
vt 0.45342300 0.27098300
vt 0.28244500 0.93547200
vt 0.73385000 0.94420600
vt 0.61809700 0.60353600
vt 0.73697000 0.94420600
vt 0.28244500 0.93858500
vt 0.91894500 0.61139400
vt 0.62404200 0.65781600
vt 0.25224400 0.93751400
vt 0.25628700 0.93751400
vt 0.61980700 0.65606600
vt 0.25983000 0.93751400
vt 0.88869200 0.28078900
vt 0.61599500 0.65352500
vt 0.88868600 0.28436600
vt 0.61275300 0.65029100
vt 0.61020700 0.64648800
vt 0.88868200 0.28843000
vt 0.88867900 0.29282600
vt 0.60845200 0.64226200
vt 0.88867800 0.29738400
vt 0.60755800 0.63777600
vt 0.60755800 0.63320200
vt 0.88867900 0.30192900
vt 0.88868200 0.30628700
vt 0.60845200 0.62871600
vt 0.61020700 0.62449100
vt 0.88868600 0.31029000
vt 0.61275300 0.62068800
vt 0.88869200 0.31378500
vt 0.43837800 0.94783700
vt 0.61599500 0.61745400
vt 0.43483400 0.94783700
vt 0.43079100 0.94783700
vt 0.61980700 0.61491300
vt 0.42640400 0.94783700
vt 0.29269900 0.93859500
vt 0.62404200 0.61316300
vt 0.66849200 0.08536200
vt 0.42875700 0.44227100
vt 0.47310000 0.50493000
vt 0.70049100 0.14970600
vt 0.66944700 0.00977500
vt 0.66904500 0.05693100
vt 0.43991100 0.46844600
vt 0.45466200 0.48893800
vt 0.66935600 0.03210400
vt 0.66765400 0.11784300
vt 0.42140200 0.40982400
vt 0.42052700 0.38205300
vt 0.66686700 0.14333000
vt 0.66603700 0.16732200
vt 0.42330600 0.35421200
vt 0.66523300 0.18871200
vt 0.42982700 0.32748100
vt 0.66387000 0.22909300
vt 0.92460600 0.45543000
vt 0.43135600 0.28210600
vt 0.44292000 0.26712700
vt 0.92426400 0.47238900
vt 0.92426400 0.47238900
vt 0.92449800 0.48009800
vt 0.45209100 0.26827500
vt 0.27942200 0.93552300
vt 0.70038000 0.12574200
vt 0.46320000 0.48307400
vt 0.70008900 0.10294200
vt 0.45517400 0.46157400
vt 0.45024400 0.43686600
vt 0.69959800 0.07867800
vt 0.44996500 0.40776500
vt 0.69887000 0.05259900
vt 0.69799500 0.02788500
vt 0.45447000 0.37777000
vt 0.69723100 0.00977500
vt 0.91345100 0.58176500
vt 0.46172700 0.35378500
vt 0.91390100 0.59369500
vt 0.46800600 0.33947400
vt 0.90888400 0.60240500
vt 0.27942200 0.92854600
vt 0.93149000 0.48009800
vt 0.70191600 0.12574200
vt 0.70191000 0.10294200
vt 0.67086400 0.14333000
vt 0.67088700 0.11784300
vt 0.70189600 0.07867800
vt 0.67083400 0.16732200
vt 0.70187000 0.05259900
vt 0.67079800 0.18871200
vt 0.70183300 0.02788500
vt 0.93149000 0.45543000
vt 0.67075500 0.22909300
vt 0.67090200 0.08536200
vt 0.90888400 0.58176500
vt 0.70179800 0.00977500
vt 0.93149000 0.47238900
vt 0.93149000 0.47238900
vt 0.67090400 0.05693100
vt 0.90888400 0.59369500
vt 0.67089500 0.03210400
vt 0.67087500 0.00977500
vt 0.70191800 0.14970600
vt 0.28244500 0.92854600
vt 0.28244500 0.92854600
vt 0.42640400 0.93779700
vt 0.29269900 0.92855600
vt 0.25224400 0.94755300
vt 0.90888400 0.61139400
vt 0.25628700 0.94755300
vt 0.25983000 0.94755300
vt 0.87863100 0.28078900
vt 0.60785600 0.17594600
vt 0.87862500 0.28436500
vt 0.90169900 0.48585900
vt 0.43837800 0.93779700
vt 0.43483400 0.93779700
vt 0.43079100 0.93779700
vt 0.88212700 0.29282500
vt 0.93797100 0.75575400
vt 0.93707600 0.75126800
vt 0.88212600 0.29738400
vt 0.60785600 0.17944800
vt 0.88213400 0.28436600
vt 0.94227200 0.76378300
vt 0.93972500 0.73798300
vt 0.88213400 0.31029000
vt 0.88214000 0.31378400
vt 0.43837800 0.94129900
vt 0.94227200 0.73418000
vt 0.90169900 0.48235700
vt 0.93707600 0.74669400
vt 0.88212700 0.30192900
vt 0.88213000 0.28843000
vt 0.93972500 0.75998000
vt 0.88213000 0.30628700
vt 0.93797100 0.74220800
vt 0.94838000 0.51455600
vt 0.94838400 0.51138400
vt 0.60284300 0.17594600
vt 0.94837700 0.51798600
vt 0.94837500 0.52154300
vt 0.94837500 0.52509000
vt 0.94837700 0.52849100
vt 0.94838000 0.53161500
vt 0.94838400 0.53434200
vt 0.89732500 0.48585900
vt 0.94363200 0.75426700
vt 0.95188600 0.51798700
vt 0.95188900 0.53161600
vt 0.94500100 0.74039800
vt 0.95188500 0.52154400
vt 0.94293400 0.75076600
vt 0.94698800 0.76053200
vt 0.95189300 0.51138500
vt 0.60284300 0.17944800
vt 0.95189300 0.53434300
vt 0.89732500 0.48235700
vt 0.94698800 0.73743100
vt 0.94293400 0.74719700
vt 0.95188500 0.52509100
vt 0.94500100 0.75756400
vt 0.95188900 0.51455700
vt 0.94363200 0.74369600
vt 0.95188600 0.52849200
f 1/1/1 5/5/5 10/10/10
f 10/10/10 8/8/8 1/1/1
f 7/7/7 11/11/11 15/15/15
f 15/15/15 14/14/14 7/7/7
f 14/14/14 15/15/15 20/20/20
f 20/20/20 18/18/18 14/14/14
f 18/18/18 20/20/20 24/24/24
f 24/24/24 21/21/21 18/18/18
f 21/21/21 24/24/24 27/27/27
f 27/27/27 26/26/26 21/21/21
f 26/26/26 27/27/27 31/31/31
f 31/31/31 30/30/30 26/26/26
f 30/30/30 31/31/31 36/36/36
f 36/36/36 34/34/34 30/30/30
f 34/34/34 36/36/36 40/40/40
f 40/40/40 37/37/37 34/34/34
f 37/37/37 40/40/40 46/46/46
f 46/46/46 41/41/41 37/37/37
f 42/42/42 44/44/44 50/50/50
f 50/50/50 47/47/47 42/42/42
f 47/47/47 50/50/50 53/53/53
f 53/53/53 52/52/52 47/47/47
f 52/52/52 53/53/53 59/59/59
f 59/59/59 58/58/58 52/52/52
f 23/23/23 19/19/19 73/73/73
f 73/73/73 74/74/74 23/23/23
f 62/62/62 66/66/66 4/4/4
f 45/45/45 39/39/39 82/82/82
f 82/82/82 84/84/84 45/45/45
f 28/28/28 23/23/23 74/74/74
f 74/74/74 76/76/76 28/28/28
f 12/12/12 4/4/4 66/66/66
f 66/66/66 69/69/69 12/12/12
f 49/49/49 45/45/45 84/84/84
f 84/84/84 88/88/88 49/49/49
f 32/32/32 28/28/28 76/76/76
f 76/76/76 79/79/79 32/32/32
f 16/16/16 12/12/12 69/69/69
f 69/69/69 70/70/70 16/16/16
f 54/54/54 49/49/49 88/88/88
f 88/88/88 89/89/89 54/54/54
f 35/35/35 32/32/32 79/79/79
f 79/79/79 80/80/80 35/35/35
f 19/19/19 16/16/16 70/70/70
f 70/70/70 73/73/73 19/19/19
f 61/61/61 54/54/54 89/89/89
f 89/89/89 91/91/91 61/61/61
f 39/39/39 35/35/35 80/80/80
f 80/80/80 82/82/82 39/39/39
f 2/2/2 9/9/9 13/13/13
f 2/2/2 13/13/13 17/17/17
f 2/2/2 17/17/17 22/22/22
f 2/2/2 22/22/22 25/25/25
f 2/2/2 25/25/25 110/110/110
f 2/2/2 110/110/110 133/133/133
f 306/306/306 3/3/3 134/134/134
f 134/134/134 326/326/326 306/306/306
f 96/96/96 120/120/120 101/101/101
f 101/101/101 120/120/120 122/122/122
f 122/122/122 99/99/99 101/101/101
f 99/99/99 122/122/122 125/125/125
f 125/125/125 94/94/94 99/99/99
f 94/94/94 125/125/125 127/127/127
f 127/127/127 103/103/103 94/94/94
f 103/103/103 127/127/127 128/128/128
f 128/128/128 106/106/106 103/103/103
f 106/106/106 128/128/128 132/132/132
f 132/132/132 107/107/107 106/106/106
f 107/107/107 132/132/132 133/133/133
f 133/133/133 110/110/110 107/107/107
f 25/25/25 29/29/29 33/33/33
f 25/25/25 33/33/33 38/38/38
f 25/25/25 38/38/38 43/43/43
f 25/25/25 43/43/43 48/48/48
f 25/25/25 48/48/48 111/111/111
f 25/25/25 111/111/111 110/110/110
f 51/51/51 56/56/56 118/118/118
f 51/51/51 118/118/118 115/115/115
f 51/51/51 115/115/115 111/111/111
f 51/51/51 111/111/111 48/48/48
f 102/102/102 100/100/100 325/325/325
f 325/325/325 327/327/327 102/102/102
f 121/121/121 98/98/98 329/329/329
f 329/329/329 309/309/309 121/121/121
f 97/97/97 102/102/102 327/327/327
f 327/327/327 328/328/328 97/97/97
f 116/116/116 117/117/117 308/308/308
f 308/308/308 323/323/323 116/116/116
f 134/134/134 130/130/130 321/321/321
f 321/321/321 326/326/326 134/134/134
f 100/100/100 95/95/95 320/320/320
f 320/320/320 325/325/325 100/100/100
f 113/113/113 114/114/114 324/324/324
f 324/324/324 318/318/318 113/113/113
f 131/131/131 129/129/129 317/317/317
f 317/317/317 322/322/322 131/131/131
f 95/95/95 104/104/104 312/312/312
f 312/312/312 320/320/320 95/95/95
f 109/109/109 112/112/112 319/319/319
f 319/319/319 316/316/316 109/109/109
f 129/129/129 126/126/126 315/315/315
f 315/315/315 317/317/317 129/129/129
f 108/108/108 109/109/109 316/316/316
f 316/316/316 314/314/314 108/108/108
f 126/126/126 124/124/124 313/313/313
f 313/313/313 315/315/315 126/126/126
f 105/105/105 108/108/108 314/314/314
f 314/314/314 311/311/311 105/105/105
f 124/124/124 123/123/123 310/310/310
f 310/310/310 313/313/313 124/124/124
f 104/104/104 105/105/105 311/311/311
f 311/311/311 312/312/312 104/104/104
f 123/123/123 121/121/121 309/309/309
f 309/309/309 310/310/310 123/123/123
f 55/55/55 60/60/60 93/93/93
f 55/55/55 93/93/93 333/333/333
f 333/333/333 331/331/331 55/55/55
f 57/57/57 330/330/330 307/307/307
f 307/307/307 119/119/119 57/57/57
f 306/306/306 335/335/335 3/3/3
f 3/3/3 335/335/335 63/63/63
f 63/63/63 6/6/6 3/3/3
f 341/341/341 146/146/146 165/165/165
f 165/165/165 373/373/373 341/341/341
f 71/71/71 67/67/67 338/338/338
f 71/71/71 338/338/338 340/340/340
f 71/71/71 340/340/340 140/140/140
f 151/151/151 139/139/139 160/160/160
f 160/160/160 169/169/169 151/151/151
f 152/152/152 148/148/148 166/166/166
f 166/166/166 171/171/171 152/152/152
f 141/141/141 339/339/339 366/366/366
f 366/366/366 161/161/161 141/141/141
f 87/87/87 86/86/86 144/144/144
f 87/87/87 144/144/144 342/342/342
f 87/87/87 342/342/342 343/343/343
f 136/136/136 151/151/151 169/169/169
f 169/169/169 155/155/155 136/136/136
f 142/142/142 152/152/152 171/171/171
f 171/171/171 157/157/157 142/142/142
f 90/90/90 87/87/87 343/343/343
f 343/343/343 344/344/344 90/90/90
f 68/68/68 65/65/65 336/336/336
f 336/336/336 337/337/337 68/68/68
f 138/138/138 136/136/136 155/155/155
f 155/155/155 158/158/158 138/138/138
f 65/65/65 64/64/64 334/334/334
f 334/334/334 336/336/336 65/65/65
f 92/92/92 90/90/90 344/344/344
f 344/344/344 332/332/332 92/92/92
f 83/83/83 81/81/81 153/153/153
f 153/153/153 143/143/143 83/83/83
f 75/75/75 72/72/72 150/150/150
f 150/150/150 135/135/135 75/75/75
f 81/81/81 78/78/78 149/149/149
f 149/149/149 153/153/153 81/81/81
f 72/72/72 71/71/71 140/140/140
f 140/140/140 150/150/150 72/72/72
f 78/78/78 77/77/77 137/137/137
f 137/137/137 149/149/149 78/78/78
f 85/85/85 83/83/83 143/143/143
f 143/143/143 145/145/145 85/85/85
f 77/77/77 75/75/75 135/135/135
f 135/135/135 137/137/137 77/77/77
f 159/159/159 154/154/154 367/367/367
f 367/367/367 368/368/368 159/159/159
f 164/164/164 156/156/156 371/371/371
f 371/371/371 372/372/372 164/164/164
f 167/167/167 159/159/159 368/368/368
f 368/368/368 369/369/369 167/167/167
f 168/168/168 162/162/162 365/365/365
f 365/365/365 364/364/364 168/168/168
f 170/170/170 167/167/167 369/369/369
f 369/369/369 370/370/370 170/170/170
f 154/154/154 168/168/168 364/364/364
f 364/364/364 367/367/367 154/154/154
f 156/156/156 170/170/170 370/370/370
f 370/370/370 371/371/371 156/156/156
f 148/148/148 138/138/138 158/158/158
f 158/158/158 166/166/166 148/148/148
f 147/147/147 142/142/142 157/157/157
f 157/157/157 163/163/163 147/147/147
f 174/174/174 180/180/180 181/181/181
f 181/181/181 176/176/176 174/174/174
f 179/179/179 184/184/184 187/187/187
f 187/187/187 182/182/182 179/179/179
f 184/184/184 189/189/189 191/191/191
f 191/191/191 187/187/187 184/184/184
f 189/189/189 192/192/192 194/194/194
f 194/194/194 191/191/191 189/189/189
f 192/192/192 197/197/197 198/198/198
f 198/198/198 194/194/194 192/192/192
f 197/197/197 200/200/200 203/203/203
f 203/203/203 198/198/198 197/197/197
f 200/200/200 205/205/205 207/207/207
f 207/207/207 203/203/203 200/200/200
f 205/205/205 208/208/208 211/211/211
f 211/211/211 207/207/207 205/205/205
f 208/208/208 213/213/213 215/215/215
f 215/215/215 211/211/211 208/208/208
f 212/212/212 218/218/218 221/221/221
f 221/221/221 216/216/216 212/212/212
f 218/218/218 222/222/222 224/224/224
f 224/224/224 221/221/221 218/218/218
f 222/222/222 229/229/229 231/231/231
f 231/231/231 224/224/224 222/222/222
f 195/195/195 246/246/246 243/243/243
f 243/243/243 190/190/190 195/195/195
f 234/234/234 175/175/175 237/237/237
f 217/217/217 255/255/255 253/253/253
f 253/253/253 210/210/210 217/217/217
f 199/199/199 248/248/248 246/246/246
f 246/246/246 195/195/195 199/199/199
f 183/183/183 240/240/240 237/237/237
f 237/237/237 175/175/175 183/183/183
f 220/220/220 258/258/258 255/255/255
f 255/255/255 217/217/217 220/220/220
f 202/202/202 249/249/249 248/248/248
f 248/248/248 199/199/199 202/202/202
f 186/186/186 242/242/242 240/240/240
f 240/240/240 183/183/183 186/186/186
f 225/225/225 261/261/261 258/258/258
f 258/258/258 220/220/220 225/225/225
f 206/206/206 252/252/252 249/249/249
f 249/249/249 202/202/202 206/206/206
f 190/190/190 243/243/243 242/242/242
f 242/242/242 186/186/186 190/190/190
f 230/230/230 264/264/264 261/261/261
f 261/261/261 225/225/225 230/230/230
f 210/210/210 253/253/253 252/252/252
f 252/252/252 206/206/206 210/210/210
f 173/173/173 305/305/305 281/281/281
f 173/173/173 281/281/281 196/196/196
f 173/173/173 196/196/196 193/193/193
f 173/173/173 193/193/193 188/188/188
f 173/173/173 188/188/188 185/185/185
f 173/173/173 185/185/185 178/178/178
f 306/306/306 326/326/326 304/304/304
f 304/304/304 172/172/172 306/306/306
f 267/267/267 272/272/272 292/292/292
f 272/272/272 271/271/271 294/294/294
f 294/294/294 292/292/292 272/272/272
f 271/271/271 266/266/266 295/295/295
f 295/295/295 294/294/294 271/271/271
f 266/266/266 275/275/275 297/297/297
f 297/297/297 295/295/295 266/266/266
f 275/275/275 276/276/276 300/300/300
f 300/300/300 297/297/297 275/275/275
f 276/276/276 279/279/279 303/303/303
f 303/303/303 300/300/300 276/276/276
f 279/279/279 281/281/281 305/305/305
f 305/305/305 303/303/303 279/279/279
f 196/196/196 281/281/281 284/284/284
f 196/196/196 284/284/284 219/219/219
f 196/196/196 219/219/219 214/214/214
f 196/196/196 214/214/214 209/209/209
f 196/196/196 209/209/209 204/204/204
f 196/196/196 204/204/204 201/201/201
f 223/223/223 219/219/219 284/284/284
f 223/223/223 284/284/284 285/285/285
f 223/223/223 285/285/285 289/289/289
f 223/223/223 289/289/289 227/227/227
f 273/273/273 327/327/327 325/325/325
f 325/325/325 270/270/270 273/273/273
f 291/291/291 309/309/309 329/329/329
f 329/329/329 268/268/268 291/291/291
f 269/269/269 328/328/328 327/327/327
f 327/327/327 273/273/273 269/269/269
f 287/287/287 323/323/323 308/308/308
f 308/308/308 288/288/288 287/287/287
f 304/304/304 326/326/326 321/321/321
f 321/321/321 302/302/302 304/304/304
f 270/270/270 325/325/325 320/320/320
f 320/320/320 265/265/265 270/270/270
f 283/283/283 318/318/318 324/324/324
f 324/324/324 286/286/286 283/283/283
f 301/301/301 322/322/322 317/317/317
f 317/317/317 299/299/299 301/301/301
f 265/265/265 320/320/320 312/312/312
f 312/312/312 274/274/274 265/265/265
f 280/280/280 316/316/316 319/319/319
f 319/319/319 282/282/282 280/280/280
f 299/299/299 317/317/317 315/315/315
f 315/315/315 298/298/298 299/299/299
f 278/278/278 314/314/314 316/316/316
f 316/316/316 280/280/280 278/278/278
f 298/298/298 315/315/315 313/313/313
f 313/313/313 296/296/296 298/298/298
f 277/277/277 311/311/311 314/314/314
f 314/314/314 278/278/278 277/277/277
f 296/296/296 313/313/313 310/310/310
f 310/310/310 293/293/293 296/296/296
f 274/274/274 312/312/312 311/311/311
f 311/311/311 277/277/277 274/274/274
f 293/293/293 310/310/310 309/309/309
f 309/309/309 291/291/291 293/293/293
f 226/226/226 263/263/263 232/232/232
f 226/226/226 331/331/331 333/333/333
f 333/333/333 263/263/263 226/226/226
f 228/228/228 290/290/290 307/307/307
f 307/307/307 330/330/330 228/228/228
f 306/306/306 172/172/172 335/335/335
f 172/172/172 177/177/177 233/233/233
f 233/233/233 335/335/335 172/172/172
f 341/341/341 373/373/373 384/384/384
f 384/384/384 357/357/357 341/341/341
f 241/241/241 350/350/350 340/340/340
f 241/241/241 340/340/340 338/338/338
f 241/241/241 338/338/338 239/239/239
f 361/361/361 388/388/388 380/380/380
f 380/380/380 351/351/351 361/361/361
f 363/363/363 390/390/390 386/386/386
f 386/386/386 358/358/358 363/363/363
f 349/349/349 382/382/382 366/366/366
f 366/366/366 339/339/339 349/349/349
f 259/259/259 343/343/343 342/342/342
f 259/259/259 342/342/342 355/355/355
f 259/259/259 355/355/355 257/257/257
f 346/346/346 374/374/374 388/388/388
f 388/388/388 361/361/361 346/346/346
f 352/352/352 377/377/377 390/390/390
f 390/390/390 363/363/363 352/352/352
f 260/260/260 344/344/344 343/343/343
f 343/343/343 259/259/259 260/260/260
f 238/238/238 337/337/337 336/336/336
f 336/336/336 236/236/236 238/238/238
f 347/347/347 379/379/379 374/374/374
f 374/374/374 346/346/346 347/347/347
f 236/236/236 336/336/336 334/334/334
f 334/334/334 235/235/235 236/236/236
f 262/262/262 332/332/332 344/344/344
f 344/344/344 260/260/260 262/262/262
f 254/254/254 353/353/353 362/362/362
f 362/362/362 251/251/251 254/254/254
f 245/245/245 345/345/345 360/360/360
f 360/360/360 244/244/244 245/245/245
f 251/251/251 362/362/362 359/359/359
f 359/359/359 250/250/250 251/251/251
f 244/244/244 360/360/360 350/350/350
f 350/350/350 241/241/241 244/244/244
f 250/250/250 359/359/359 348/348/348
f 348/348/348 247/247/247 250/250/250
f 256/256/256 354/354/354 353/353/353
f 353/353/353 254/254/254 256/256/256
f 247/247/247 348/348/348 345/345/345
f 345/345/345 245/245/245 247/247/247
f 378/378/378 368/368/368 367/367/367
f 367/367/367 375/375/375 378/378/378
f 383/383/383 372/372/372 371/371/371
f 371/371/371 376/376/376 383/383/383
f 387/387/387 369/369/369 368/368/368
f 368/368/368 378/378/378 387/387/387
f 389/389/389 364/364/364 365/365/365
f 365/365/365 381/381/381 389/389/389
f 391/391/391 370/370/370 369/369/369
f 369/369/369 387/387/387 391/391/391
f 375/375/375 367/367/367 364/364/364
f 364/364/364 389/389/389 375/375/375
f 376/376/376 371/371/371 370/370/370
f 370/370/370 391/391/391 376/376/376
f 358/358/358 386/386/386 379/379/379
f 379/379/379 347/347/347 358/358/358
f 356/356/356 385/385/385 377/377/377
f 377/377/377 352/352/352 356/356/356

