mtllib material.mtl
usemtl Leg.FR.001_MAT
v 0.12427800 0.13564500 0.23876800
v 0.12427800 0.13564500 0.23876800
v 0.12427800 0.13564500 0.23876800
v 0.12204300 0.13341000 0.23247500
v 0.12204300 0.13341000 0.23247500
v 0.12167900 0.13304700 0.22545000
v 0.12167900 0.13304700 0.22545000
v 0.12324400 0.13461400 0.21876400
v 0.12324400 0.13461400 0.21876400
v 0.12649900 0.13787100 0.21343500
v 0.12649900 0.13787100 0.21343500
v 0.12649900 0.13787100 0.21343500
v 0.13094800 0.14232300 0.21027300
v 0.13094800 0.14232300 0.21027300
v 0.13591300 0.14729100 0.20976000
v 0.13591300 0.14729100 0.20976000
v 0.14064000 0.15202000 0.21197400
v 0.14064000 0.15202000 0.21197400
v 0.14440800 0.15578900 0.21657900
v 0.14440800 0.15578900 0.21657900
v 0.14440800 0.15578900 0.21657900
v 0.14664400 0.15802500 0.22287200
v 0.14664400 0.15802500 0.22287200
v 0.14700700 0.15838700 0.22989700
v 0.14700700 0.15838700 0.22989700
v 0.14544200 0.15682000 0.23658300
v 0.14544200 0.15682000 0.23658300
v 0.14218800 0.15356300 0.24191200
v 0.14218800 0.15356300 0.24191200
v 0.14218800 0.15356300 0.24191200
v 0.13773900 0.14911200 0.24507400
v 0.13773900 0.14911200 0.24507400
v 0.13277300 0.14414300 0.24558700
v 0.13277300 0.14414300 0.24558700
v 0.12804600 0.13941500 0.24337300
v 0.12804600 0.13941500 0.24337300
v 0.12353800 0.13476700 0.23191800
v 0.12353800 0.13476700 0.23191800
v 0.12353800 0.13476700 0.23191800
v 0.12551500 0.13674400 0.23748200
v 0.12551500 0.13674400 0.23748200
v 0.12321700 0.13444700 0.22570800
v 0.12321700 0.13444700 0.22570800
v 0.12321700 0.13444700 0.22570800
v 0.12460000 0.13583200 0.21979700
v 0.12460000 0.13583200 0.21979700
v 0.12747800 0.13871100 0.21508500
v 0.12747800 0.13871100 0.21508500
v 0.13141100 0.14264700 0.21229000
v 0.13141100 0.14264700 0.21229000
v 0.13141100 0.14264700 0.21229000
v 0.13580100 0.14703900 0.21183700
v 0.13580100 0.14703900 0.21183700
v 0.13580100 0.14703900 0.21183700
v 0.13998000 0.15122000 0.21379400
v 0.13998000 0.15122000 0.21379400
v 0.14331100 0.15455200 0.21786500
v 0.14331100 0.15455200 0.21786500
v 0.14528700 0.15652900 0.22342900
v 0.14528700 0.15652900 0.22342900
v 0.14528700 0.15652900 0.22342900
v 0.14560800 0.15684900 0.22963900
v 0.14560800 0.15684900 0.22963900
v 0.14560800 0.15684900 0.22963900
v 0.14422500 0.15546400 0.23555000
v 0.14422500 0.15546400 0.23555000
v 0.14134800 0.15258400 0.24026200
v 0.14134800 0.15258400 0.24026200
v 0.13741500 0.14864900 0.24305700
v 0.13741500 0.14864900 0.24305700
v 0.13741500 0.14864900 0.24305700
v 0.13302500 0.14425600 0.24351000
v 0.13302500 0.14425600 0.24351000
v 0.13302500 0.14425600 0.24351000
v 0.12884600 0.14007600 0.24155300
v 0.12884600 0.14007600 0.24155300
v 0.12349200 0.13641100 0.23160600
v 0.12349200 0.13641100 0.23160600
v 0.12349200 0.13641100 0.23160600
v 0.12532300 0.13824200 0.23676200
v 0.12532300 0.13824200 0.23676200
v 0.12319400 0.13611400 0.22585200
v 0.12319400 0.13611400 0.22585200
v 0.12319400 0.13611400 0.22585200
v 0.12447600 0.13739800 0.22037600
v 0.12447600 0.13739800 0.22037600
v 0.12714200 0.14006600 0.21601000
v 0.12714200 0.14006600 0.21601000
v 0.13078600 0.14371200 0.21342000
v 0.13078600 0.14371200 0.21342000
v 0.13078600 0.14371200 0.21342000
v 0.13485400 0.14778200 0.21300000
v 0.13485400 0.14778200 0.21300000
v 0.13485400 0.14778200 0.21300000
v 0.13872500 0.15165500 0.21481400
v 0.13872500 0.15165500 0.21481400
v 0.14181200 0.15474300 0.21858600
v 0.14181200 0.15474300 0.21858600
v 0.14364300 0.15657400 0.22374100
v 0.14364300 0.15657400 0.22374100
v 0.14364300 0.15657400 0.22374100
v 0.14394100 0.15687100 0.22949500
v 0.14394100 0.15687100 0.22949500
v 0.14394100 0.15687100 0.22949500
v 0.14265900 0.15558700 0.23497100
v 0.14265900 0.15558700 0.23497100
v 0.13999300 0.15291900 0.23933700
v 0.13999300 0.15291900 0.23933700
v 0.13634900 0.14927300 0.24192700
v 0.13634900 0.14927300 0.24192700
v 0.13634900 0.14927300 0.24192700
v 0.13228200 0.14520300 0.24234700
v 0.13228200 0.14520300 0.24234700
v 0.13228200 0.14520300 0.24234700
v 0.12841000 0.14133000 0.24053300
v 0.12841000 0.14133000 0.24053300
v 0.12687800 0.13304700 0.23876800
v 0.12687800 0.13304700 0.23876800
v 0.12464200 0.13081100 0.23247400
v 0.12427900 0.13044900 0.22545000
v 0.12584400 0.13201600 0.21876400
v 0.12909800 0.13527300 0.21343400
v 0.12909800 0.13527300 0.21343400
v 0.13354700 0.13972500 0.21027200
v 0.13851300 0.14469300 0.20975900
v 0.13851300 0.14469300 0.20975900
v 0.13851300 0.14469300 0.20975900
v 0.14324000 0.14942200 0.21197400
v 0.14324000 0.14942200 0.21197400
v 0.14700800 0.15319100 0.21657800
v 0.14700800 0.15319100 0.21657800
v 0.14700800 0.15319100 0.21657800
v 0.14924300 0.15542700 0.22287200
v 0.14924300 0.15542700 0.22287200
v 0.14960600 0.15578900 0.22989600
v 0.14960600 0.15578900 0.22989600
v 0.14804200 0.15422200 0.23658200
v 0.14804200 0.15422200 0.23658200
v 0.14804200 0.15422200 0.23658200
v 0.14478700 0.15096500 0.24191200
v 0.14478700 0.15096500 0.24191200
v 0.14033800 0.14651300 0.24507400
v 0.13537300 0.14154500 0.24558700
v 0.13064600 0.13681600 0.24337200
v 0.16361400 0.17122700 0.19265600
v 0.16361400 0.17122700 0.19265600
v 0.16361400 0.17122700 0.19265600
v 0.16479800 0.17241100 0.20090800
v 0.16479800 0.17241100 0.20090800
v 0.16812400 0.17573700 0.20789100
v 0.16812400 0.17573700 0.20789100
v 0.16812400 0.17573700 0.20789100
v 0.16050600 0.17433300 0.19265700
v 0.16050600 0.17433300 0.19265700
v 0.16164400 0.17547400 0.18439300
v 0.16164400 0.17547400 0.18439300
v 0.16493200 0.17876400 0.17737400
v 0.16493200 0.17876400 0.17737400
v 0.16493200 0.17876400 0.17737400
v 0.16986800 0.18370300 0.17267000
v 0.16986800 0.18370300 0.17267000
v 0.17570100 0.18954000 0.17099600
v 0.17570100 0.18954000 0.17099600
v 0.18154300 0.19538500 0.17260700
v 0.18154300 0.19538500 0.17260700
v 0.18650500 0.20034800 0.17725800
v 0.18650500 0.20034800 0.17725800
v 0.18650500 0.20034800 0.17725800
v 0.18983100 0.20367500 0.18424100
v 0.18983100 0.20367500 0.18424100
v 0.19101600 0.20485900 0.19249300
v 0.19101600 0.20485900 0.19249300
v 0.18987700 0.20371800 0.20075700
v 0.18987700 0.20371800 0.20075700
v 0.18659000 0.20042800 0.20777500
v 0.18659000 0.20042800 0.20777500
v 0.18659000 0.20042800 0.20777500
v 0.18165400 0.19548900 0.21248000
v 0.18165400 0.19548900 0.21248000
v 0.17582100 0.18965200 0.21415400
v 0.17582100 0.18965200 0.21415400
v 0.16997900 0.18380700 0.21254200
v 0.16997900 0.18380700 0.21254200
v 0.16501700 0.17884300 0.20789100
v 0.16501700 0.17884300 0.20789100
v 0.16501700 0.17884300 0.20789100
v 0.16169000 0.17551700 0.20090800
v 0.16169000 0.17551700 0.20090800
v 0.16336400 0.17702800 0.18534100
v 0.16336400 0.17702800 0.18534100
v 0.16336400 0.17702800 0.18534100
v 0.16235800 0.17602000 0.19264700
v 0.16235800 0.17602000 0.19264700
v 0.16627000 0.17993700 0.17913600
v 0.16627000 0.17993700 0.17913600
v 0.17063400 0.18430300 0.17497700
v 0.17063400 0.18430300 0.17497700
v 0.17063400 0.18430300 0.17497700
v 0.17579100 0.18946300 0.17349700
v 0.17579100 0.18946300 0.17349700
v 0.18095600 0.19463100 0.17492200
v 0.18095600 0.19463100 0.17492200
v 0.18095600 0.19463100 0.17492200
v 0.18534300 0.19901900 0.17903400
v 0.18534300 0.19901900 0.17903400
v 0.18828300 0.20196000 0.18520700
v 0.18828300 0.20196000 0.18520700
v 0.18828300 0.20196000 0.18520700
v 0.18933000 0.20300600 0.19250200
v 0.18933000 0.20300600 0.19250200
v 0.18832400 0.20199800 0.19980800
v 0.18832400 0.20199800 0.19980800
v 0.18832400 0.20199800 0.19980800
v 0.18541800 0.19908900 0.20601300
v 0.18541800 0.19908900 0.20601300
v 0.18105400 0.19472200 0.21017200
v 0.18105400 0.19472200 0.21017200
v 0.18105400 0.19472200 0.21017200
v 0.17589700 0.18956300 0.21165200
v 0.17589700 0.18956300 0.21165200
v 0.17073200 0.18439500 0.21022800
v 0.17073200 0.18439500 0.21022800
v 0.17073200 0.18439500 0.21022800
v 0.16634500 0.18000700 0.20611600
v 0.16634500 0.18000700 0.20611600
v 0.16340500 0.17706600 0.19994200
v 0.16340500 0.17706600 0.19994200
v 0.16340500 0.17706600 0.19994200
v 0.16327100 0.17895500 0.18587300
v 0.16327100 0.17895500 0.18587300
v 0.16327100 0.17895500 0.18587300
v 0.16233800 0.17802100 0.19264200
v 0.16233800 0.17802100 0.19264200
v 0.16596300 0.18165000 0.18012400
v 0.16596300 0.18165000 0.18012400
v 0.17000700 0.18569600 0.17627000
v 0.17000700 0.18569600 0.17627000
v 0.17000700 0.18569600 0.17627000
v 0.17478500 0.19047700 0.17489900
v 0.17478500 0.19047700 0.17489900
v 0.17957000 0.19526400 0.17621900
v 0.17957000 0.19526400 0.17621900
v 0.17957000 0.19526400 0.17621900
v 0.18363500 0.19933000 0.18002900
v 0.18363500 0.19933000 0.18002900
v 0.18635900 0.20205500 0.18574800
v 0.18635900 0.20205500 0.18574800
v 0.18635900 0.20205500 0.18574800
v 0.18732900 0.20302500 0.19250800
v 0.18732900 0.20302500 0.19250800
v 0.18639700 0.20209100 0.19927700
v 0.18639700 0.20209100 0.19927700
v 0.18639700 0.20209100 0.19927700
v 0.18370400 0.19939500 0.20502600
v 0.18370400 0.19939500 0.20502600
v 0.17966100 0.19534900 0.20887900
v 0.17966100 0.19534900 0.20887900
v 0.17966100 0.19534900 0.20887900
v 0.17488300 0.19056900 0.21025100
v 0.17488300 0.19056900 0.21025100
v 0.17009700 0.18578100 0.20893100
v 0.17009700 0.18578100 0.20893100
v 0.17009700 0.18578100 0.20893100
v 0.16603300 0.18171500 0.20512100
v 0.16603300 0.18171500 0.20512100
v 0.16330800 0.17899000 0.19940100
v 0.16330800 0.17899000 0.19940100
v 0.16330800 0.17899000 0.19940100
v 0.16475200 0.17236800 0.18439200
v 0.16803900 0.17565800 0.17737400
v 0.16803900 0.17565800 0.17737400
v 0.17297500 0.18059700 0.17266900
v 0.17880900 0.18643400 0.17099500
v 0.18465100 0.19227900 0.17260600
v 0.18961300 0.19724200 0.17725700
v 0.18961300 0.19724200 0.17725700
v 0.19293900 0.20056900 0.18424000
v 0.19412300 0.20175200 0.19249200
v 0.19298500 0.20061200 0.20075600
v 0.18969800 0.19732200 0.20777500
v 0.18969800 0.19732200 0.20777500
v 0.18476200 0.19238300 0.21247900
v 0.17892900 0.18654600 0.21415300
v 0.17308600 0.18070100 0.21254200
v 0.17308600 0.18070100 0.21254200
v 0.17308600 0.18070100 0.21254200
v 0.13050400 0.12942300 0.23876700
v 0.13050400 0.12942300 0.23876700
v 0.13672900 0.12320100 0.23876600
v 0.13672900 0.12320100 0.23876600
v 0.13672900 0.12320100 0.23876600
v 0.12826800 0.12718700 0.23247400
v 0.13449300 0.12096500 0.23247200
v 0.13449300 0.12096500 0.23247200
v 0.12790500 0.12682500 0.22544900
v 0.13413000 0.12060300 0.22544800
v 0.13413000 0.12060300 0.22544800
v 0.12947000 0.12839200 0.21876300
v 0.13569500 0.12217000 0.21876200
v 0.13569500 0.12217000 0.21876200
v 0.13272400 0.13164900 0.21343300
v 0.13272400 0.13164900 0.21343300
v 0.13894900 0.12542700 0.21343200
v 0.13894900 0.12542700 0.21343200
v 0.13894900 0.12542700 0.21343200
v 0.13717300 0.13610100 0.21027200
v 0.14339800 0.12987900 0.21027000
v 0.14339800 0.12987900 0.21027000
v 0.14213900 0.14106900 0.20975900
v 0.14213900 0.14106900 0.20975900
v 0.14836400 0.13484700 0.20975800
v 0.14836400 0.13484700 0.20975800
v 0.15309100 0.13957600 0.21197200
v 0.15309100 0.13957600 0.21197200
v 0.15685900 0.14334500 0.21657700
v 0.15685900 0.14334500 0.21657700
v 0.15685900 0.14334500 0.21657700
v 0.15909400 0.14558100 0.22287000
v 0.15909400 0.14558100 0.22287000
v 0.15945800 0.14594300 0.22989400
v 0.15945800 0.14594300 0.22989400
v 0.15166700 0.15059800 0.23658200
v 0.15166700 0.15059800 0.23658200
v 0.15789300 0.14437600 0.23658000
v 0.15789300 0.14437600 0.23658000
v 0.14841300 0.14734100 0.24191100
v 0.14841300 0.14734100 0.24191100
v 0.15463800 0.14111900 0.24191000
v 0.15463800 0.14111900 0.24191000
v 0.15463800 0.14111900 0.24191000
v 0.14396400 0.14289000 0.24507300
v 0.15019000 0.13666700 0.24507200
v 0.15019000 0.13666700 0.24507200
v 0.13899800 0.13792100 0.24558600
v 0.14522400 0.13169900 0.24558500
v 0.14522400 0.13169900 0.24558500
v 0.13427200 0.13319200 0.24337200
v 0.14049700 0.12697000 0.24337000
v 0.14049700 0.12697000 0.24337000
v 0.13585000 0.12246200 0.23191600
v 0.13585000 0.12246200 0.23191600
v 0.13585000 0.12246200 0.23191600
v 0.13782600 0.12443800 0.23748000
v 0.13782600 0.12443800 0.23748000
v 0.13552900 0.12214100 0.22570600
v 0.13552900 0.12214100 0.22570600
v 0.13552900 0.12214100 0.22570600
v 0.13691200 0.12352700 0.21979500
v 0.13691200 0.12352700 0.21979500
v 0.13978900 0.12640600 0.21508300
v 0.13978900 0.12640600 0.21508300
v 0.14372200 0.13034200 0.21228800
v 0.14372200 0.13034200 0.21228800
v 0.14372200 0.13034200 0.21228800
v 0.14811200 0.13473400 0.21183400
v 0.14811200 0.13473400 0.21183400
v 0.14811200 0.13473400 0.21183400
v 0.15229100 0.13891500 0.21379200
v 0.15229100 0.13891500 0.21379200
v 0.15562200 0.14224700 0.21786300
v 0.15562200 0.14224700 0.21786300
v 0.15759900 0.14422300 0.22342700
v 0.15759900 0.14422300 0.22342700
v 0.15759900 0.14422300 0.22342700
v 0.15792000 0.14454400 0.22963700
v 0.15792000 0.14454400 0.22963700
v 0.15792000 0.14454400 0.22963700
v 0.15653700 0.14315800 0.23554800
v 0.15653700 0.14315800 0.23554800
v 0.15365900 0.14027900 0.24025900
v 0.15365900 0.14027900 0.24025900
v 0.14972600 0.13634300 0.24305500
v 0.14972600 0.13634300 0.24305500
v 0.14972600 0.13634300 0.24305500
v 0.14533600 0.13195100 0.24350800
v 0.14533600 0.13195100 0.24350800
v 0.14533600 0.13195100 0.24350800
v 0.14115800 0.12777000 0.24155100
v 0.14115800 0.12777000 0.24155100
v 0.13749400 0.12241600 0.23160400
v 0.13749400 0.12241600 0.23160400
v 0.13749400 0.12241600 0.23160400
v 0.13932500 0.12424800 0.23675900
v 0.13932500 0.12424800 0.23675900
v 0.13719600 0.12212000 0.22585000
v 0.13719600 0.12212000 0.22585000
v 0.13719600 0.12212000 0.22585000
v 0.13847800 0.12340300 0.22037300
v 0.13847800 0.12340300 0.22037300
v 0.14114400 0.12607100 0.21600800
v 0.14114400 0.12607100 0.21600800
v 0.14478800 0.12971700 0.21341800
v 0.14478800 0.12971700 0.21341800
v 0.14478800 0.12971700 0.21341800
v 0.14885600 0.13378700 0.21299800
v 0.14885600 0.13378700 0.21299800
v 0.14885600 0.13378700 0.21299800
v 0.15272700 0.13766100 0.21481200
v 0.15272700 0.13766100 0.21481200
v 0.15581400 0.14074800 0.21858300
v 0.15581400 0.14074800 0.21858300
v 0.15764500 0.14257900 0.22373800
v 0.15764500 0.14257900 0.22373800
v 0.15764500 0.14257900 0.22373800
v 0.15794300 0.14287600 0.22949200
v 0.15794300 0.14287600 0.22949200
v 0.15794300 0.14287600 0.22949200
v 0.15666100 0.14159300 0.23496900
v 0.15666100 0.14159300 0.23496900
v 0.15399500 0.13892500 0.23933400
v 0.15399500 0.13892500 0.23933400
v 0.15035100 0.13527800 0.24192400
v 0.15035100 0.13527800 0.24192400
v 0.15035100 0.13527800 0.24192400
v 0.14628300 0.13120900 0.24234400
v 0.14628300 0.13120900 0.24234400
v 0.14628300 0.13120900 0.24234400
v 0.14241200 0.12733500 0.24053100
v 0.14241200 0.12733500 0.24053100
v 0.13412900 0.12579900 0.23876600
v 0.13412900 0.12579900 0.23876600
v 0.13189400 0.12356300 0.23247300
v 0.13153100 0.12320100 0.22544800
v 0.13309500 0.12476800 0.21876200
v 0.13635000 0.12802500 0.21343300
v 0.13635000 0.12802500 0.21343300
v 0.14079900 0.13247700 0.21027100
v 0.14576400 0.13744500 0.20975800
v 0.14576400 0.13744500 0.20975800
v 0.14576400 0.13744500 0.20975800
v 0.15049100 0.14217400 0.21197300
v 0.15049100 0.14217400 0.21197300
v 0.15425900 0.14594300 0.21657700
v 0.15425900 0.14594300 0.21657700
v 0.15425900 0.14594300 0.21657700
v 0.15649500 0.14817900 0.22287000
v 0.15649500 0.14817900 0.22287000
v 0.15685800 0.14854100 0.22989500
v 0.15685800 0.14854100 0.22989500
v 0.15529300 0.14697400 0.23658100
v 0.15529300 0.14697400 0.23658100
v 0.15529300 0.14697400 0.23658100
v 0.15203900 0.14371700 0.24191100
v 0.15203900 0.14371700 0.24191100
v 0.14759000 0.13926600 0.24507200
v 0.14262400 0.13429700 0.24558500
v 0.13789800 0.12956800 0.24337100
v 0.17228300 0.16256300 0.19265500
v 0.17228300 0.16256300 0.19265500
v 0.17228300 0.16256300 0.19265500
v 0.17346700 0.16374600 0.20090600
v 0.17346700 0.16374600 0.20090600
v 0.17679300 0.16707300 0.20788900
v 0.17679300 0.16707300 0.20788900
v 0.17679300 0.16707300 0.20788900
v 0.16794800 0.16689500 0.19265600
v 0.16794800 0.16689500 0.19265600
v 0.17539000 0.15945700 0.19265400
v 0.17539000 0.15945700 0.19265400
v 0.16908700 0.16803600 0.18439100
v 0.17652900 0.16059700 0.18439000
v 0.17652900 0.16059700 0.18439000
v 0.17237400 0.17132600 0.17737300
v 0.17237400 0.17132600 0.17737300
v 0.17981600 0.16388800 0.17737200
v 0.17981600 0.16388800 0.17737200
v 0.17981600 0.16388800 0.17737200
v 0.17731000 0.17626500 0.17266800
v 0.18475200 0.16882700 0.17266700
v 0.18475200 0.16882700 0.17266700
v 0.18314300 0.18210200 0.17099400
v 0.19058500 0.17466300 0.17099300
v 0.19058500 0.17466300 0.17099300
v 0.18898500 0.18794700 0.17260600
v 0.19642700 0.18050800 0.17260400
v 0.19642700 0.18050800 0.17260400
v 0.19394700 0.19291000 0.17725700
v 0.19394700 0.19291000 0.17725700
v 0.20138900 0.18547200 0.17725500
v 0.20138900 0.18547200 0.17725500
v 0.20138900 0.18547200 0.17725500
v 0.20471600 0.18879900 0.18423800
v 0.20471600 0.18879900 0.18423800
v 0.20590000 0.18998200 0.19249000
v 0.20590000 0.18998200 0.19249000
v 0.20476200 0.18884200 0.20075400
v 0.20476200 0.18884200 0.20075400
v 0.20147400 0.18555100 0.20777300
v 0.20147400 0.18555100 0.20777300
v 0.20147400 0.18555100 0.20777300
v 0.18909600 0.18805000 0.21247800
v 0.19653800 0.18061200 0.21247700
v 0.19653800 0.18061200 0.21247700
v 0.18326300 0.18221400 0.21415200
v 0.19070500 0.17477600 0.21415100
v 0.19070500 0.17477600 0.21415100
v 0.17742100 0.17636900 0.21254100
v 0.17742100 0.17636900 0.21254100
v 0.18486300 0.16893100 0.21254000
v 0.18486300 0.16893100 0.21254000
v 0.17990100 0.16396700 0.20788900
v 0.17990100 0.16396700 0.20788900
v 0.17990100 0.16396700 0.20788900
v 0.17657500 0.16064000 0.20090600
v 0.17657500 0.16064000 0.20090600
v 0.17808200 0.16231700 0.18533900
v 0.17808200 0.16231700 0.18533900
v 0.17808200 0.16231700 0.18533900
v 0.17707600 0.16130900 0.19264500
v 0.17707600 0.16130900 0.19264500
v 0.18098800 0.16522600 0.17913400
v 0.18098800 0.16522600 0.17913400
v 0.18535200 0.16959300 0.17497500
v 0.18535200 0.16959300 0.17497500
v 0.18535200 0.16959300 0.17497500
v 0.19050900 0.17475300 0.17349500
v 0.19050900 0.17475300 0.17349500
v 0.19567400 0.17992000 0.17491900
v 0.19567400 0.17992000 0.17491900
v 0.19567400 0.17992000 0.17491900
v 0.20006100 0.18430900 0.17903100
v 0.20006100 0.18430900 0.17903100
v 0.20300100 0.18725000 0.18520400
v 0.20300100 0.18725000 0.18520400
v 0.20300100 0.18725000 0.18520400
v 0.20404800 0.18829600 0.19249900
v 0.20404800 0.18829600 0.19249900
v 0.20304200 0.18728800 0.19980600
v 0.20304200 0.18728800 0.19980600
v 0.20304200 0.18728800 0.19980600
v 0.20013600 0.18437900 0.20601000
v 0.20013600 0.18437900 0.20601000
v 0.19577200 0.18001200 0.21016900
v 0.19577200 0.18001200 0.21016900
v 0.19577200 0.18001200 0.21016900
v 0.19061500 0.17485200 0.21164900
v 0.19061500 0.17485200 0.21164900
v 0.18545000 0.16968500 0.21022500
v 0.18545000 0.16968500 0.21022500
v 0.18545000 0.16968500 0.21022500
v 0.18106300 0.16529700 0.20611300
v 0.18106300 0.16529700 0.20611300
v 0.17812300 0.16235500 0.19994000
v 0.17812300 0.16235500 0.19994000
v 0.17812300 0.16235500 0.19994000
v 0.18000900 0.16222500 0.18587000
v 0.18000900 0.16222500 0.18587000
v 0.18000900 0.16222500 0.18587000
v 0.17907700 0.16129100 0.19263900
v 0.17907700 0.16129100 0.19263900
v 0.18270200 0.16492000 0.18012100
v 0.18270200 0.16492000 0.18012100
v 0.18674500 0.16896600 0.17626700
v 0.18674500 0.16896600 0.17626700
v 0.18674500 0.16896600 0.17626700
v 0.19152300 0.17374700 0.17489600
v 0.19152300 0.17374700 0.17489600
v 0.19630900 0.17853400 0.17621600
v 0.19630900 0.17853400 0.17621600
v 0.19630900 0.17853400 0.17621600
v 0.20037300 0.18260000 0.18002600
v 0.20037300 0.18260000 0.18002600
v 0.20309800 0.18532500 0.18574600
v 0.20309800 0.18532500 0.18574600
v 0.20309800 0.18532500 0.18574600
v 0.20406800 0.18629500 0.19250500
v 0.20406800 0.18629500 0.19250500
v 0.20313500 0.18536100 0.19927400
v 0.20313500 0.18536100 0.19927400
v 0.20313500 0.18536100 0.19927400
v 0.20044300 0.18266500 0.20502300
v 0.20044300 0.18266500 0.20502300
v 0.19639900 0.17862000 0.20887600
v 0.19639900 0.17862000 0.20887600
v 0.19639900 0.17862000 0.20887600
v 0.19162100 0.17383900 0.21024800
v 0.19162100 0.17383900 0.21024800
v 0.18683600 0.16905100 0.20892800
v 0.18683600 0.16905100 0.20892800
v 0.18683600 0.16905100 0.20892800
v 0.18277100 0.16498500 0.20511800
v 0.18277100 0.16498500 0.20511800
v 0.18004700 0.16226000 0.19939800
v 0.18004700 0.16226000 0.19939800
v 0.18004700 0.16226000 0.19939800
v 0.17342100 0.16370300 0.18439100
v 0.17670800 0.16699400 0.17737200
v 0.17670800 0.16699400 0.17737200
v 0.18164400 0.17193300 0.17266800
v 0.18747700 0.17776900 0.17099400
v 0.19332000 0.18361400 0.17260500
v 0.19828200 0.18857800 0.17725600
v 0.19828200 0.18857800 0.17725600
v 0.20160800 0.19190500 0.18423900
v 0.20279200 0.19308800 0.19249000
v 0.20165400 0.19194800 0.20075500
v 0.19836700 0.18865700 0.20777300
v 0.19836700 0.18865700 0.20777300
v 0.19343100 0.18371800 0.21247800
v 0.18759700 0.17788200 0.21415200
v 0.18175500 0.17203700 0.21254000
v 0.18175500 0.17203700 0.21254000
v 0.18175500 0.17203700 0.21254000
v 0.19845800 0.19742000 0.19249100
v 0.19727400 0.19623700 0.18424000
v 0.19403200 0.19299000 0.20777400
v 0.19403200 0.19299000 0.20777400
v 0.19731900 0.19628000 0.20075500
vn -0.55760000 -0.55800000 0.61460000
vn -0.55760000 -0.55800000 0.61460000
vn -0.68030000 0.73230000 -0.02870000
vn -0.68140000 -0.68180000 0.26600000
vn -0.67450000 0.73810000 -0.01240000
vn -0.67360000 0.73910000 0.00590000
vn -0.70160000 -0.70190000 -0.12320000
vn -0.61490000 -0.61510000 -0.49360000
vn -0.67770000 0.73500000 0.02330000
vn -0.43460000 -0.43470000 -0.78880000
vn -0.43460000 -0.43470000 -0.78880000
vn -0.68610000 0.72650000 0.03710000
vn -0.69770000 0.71500000 0.04530000
vn -0.18810000 -0.18800000 -0.96400000
vn 0.08700000 0.08720000 -0.99240000
vn -0.71060000 0.70210000 0.04670000
vn -0.72290000 0.68980000 0.04090000
vn 0.34880000 0.34920000 -0.86970000
vn 0.55760000 0.55800000 -0.61460000
vn 0.55760000 0.55800000 -0.61460000
vn -0.73270000 0.68000000 0.02900000
vn 0.68140000 0.68180000 -0.26600000
vn -0.73850000 0.67420000 0.01260000
vn -0.73940000 0.67320000 -0.00570000
vn 0.70160000 0.70190000 0.12320000
vn -0.73540000 0.67730000 -0.02300000
vn 0.61490000 0.61510000 0.49360000
vn -0.72690000 0.68570000 -0.03690000
vn 0.43460000 0.43470000 0.78880000
vn 0.43460000 0.43470000 0.78880000
vn -0.71530000 0.69730000 -0.04510000
vn 0.18810000 0.18800000 0.96400000
vn -0.08700000 -0.08720000 0.99240000
vn -0.70240000 0.71020000 -0.04640000
vn -0.34880000 -0.34920000 0.86970000
vn -0.69010000 0.72250000 -0.04070000
vn -0.98180000 0.00840000 0.18990000
vn -0.67450000 0.73810000 -0.01240000
vn -0.98180000 0.00840000 0.18990000
vn -0.89340000 0.09690000 0.43880000
vn -0.68030000 0.73230000 -0.02870000
vn -0.67360000 0.73910000 0.00590000
vn -0.99610000 -0.00590000 -0.08780000
vn -0.99610000 -0.00590000 -0.08780000
vn -0.93420000 0.05610000 -0.35220000
vn -0.67770000 0.73500000 0.02330000
vn -0.68610000 0.72650000 0.03710000
vn -0.80560000 0.18490000 -0.56290000
vn -0.69770000 0.71500000 0.04530000
vn -0.62960000 0.36090000 -0.68800000
vn -0.62960000 0.36090000 -0.68800000
vn -0.71060000 0.70210000 0.04670000
vn -0.43330000 0.55740000 -0.70820000
vn -0.43330000 0.55740000 -0.70820000
vn -0.72290000 0.68980000 0.04090000
vn -0.24640000 0.74430000 -0.62070000
vn -0.09740000 0.89340000 -0.43860000
vn -0.73270000 0.68000000 0.02900000
vn -0.00900000 0.98180000 -0.18980000
vn -0.00900000 0.98180000 -0.18980000
vn -0.73850000 0.67420000 0.01260000
vn -0.73940000 0.67320000 -0.00570000
vn 0.00540000 0.99610000 0.08800000
vn 0.00540000 0.99610000 0.08800000
vn -0.73540000 0.67730000 -0.02300000
vn -0.05650000 0.93420000 0.35240000
vn -0.18520000 0.80540000 0.56310000
vn -0.72690000 0.68570000 -0.03690000
vn -0.71530000 0.69730000 -0.04510000
vn -0.36110000 0.62930000 0.68810000
vn -0.36110000 0.62930000 0.68810000
vn -0.70240000 0.71020000 -0.04640000
vn -0.55750000 0.43290000 0.70840000
vn -0.55750000 0.43290000 0.70840000
vn -0.74440000 0.24590000 0.62090000
vn -0.69010000 0.72250000 -0.04070000
vn -0.70730000 0.70690000 0.00010000
vn -0.98180000 0.00840000 0.18990000
vn -0.98180000 0.00840000 0.18990000
vn -0.89340000 0.09690000 0.43880000
vn -0.70730000 0.70690000 0.00010000
vn -0.70730000 0.70690000 0.00010000
vn -0.99610000 -0.00590000 -0.08780000
vn -0.99610000 -0.00590000 -0.08780000
vn -0.93420000 0.05610000 -0.35220000
vn -0.70730000 0.70690000 0.00010000
vn -0.70730000 0.70690000 0.00010000
vn -0.80560000 0.18490000 -0.56290000
vn -0.62960000 0.36090000 -0.68800000
vn -0.62960000 0.36090000 -0.68800000
vn -0.70730000 0.70690000 0.00010000
vn -0.43330000 0.55740000 -0.70820000
vn -0.70730000 0.70690000 0.00010000
vn -0.43330000 0.55740000 -0.70820000
vn -0.24640000 0.74430000 -0.62070000
vn -0.70730000 0.70690000 0.00010000
vn -0.70730000 0.70690000 0.00010000
vn -0.09740000 0.89340000 -0.43860000
vn -0.00900000 0.98180000 -0.18980000
vn -0.00900000 0.98180000 -0.18980000
vn -0.70730000 0.70690000 0.00010000
vn -0.70730000 0.70690000 0.00010000
vn 0.00540000 0.99610000 0.08800000
vn 0.00540000 0.99610000 0.08800000
vn -0.05650000 0.93420000 0.35240000
vn -0.70730000 0.70690000 0.00010000
vn -0.18520000 0.80540000 0.56310000
vn -0.70730000 0.70690000 0.00010000
vn -0.36110000 0.62930000 0.68810000
vn -0.36110000 0.62930000 0.68810000
vn -0.70730000 0.70690000 0.00010000
vn -0.70730000 0.70690000 0.00010000
vn -0.55750000 0.43290000 0.70840000
vn -0.55750000 0.43290000 0.70840000
vn -0.74440000 0.24590000 0.62090000
vn -0.70730000 0.70690000 0.00010000
vn -0.55760000 -0.55800000 0.61460000
vn -0.55760000 -0.55800000 0.61460000
vn -0.68140000 -0.68180000 0.26600000
vn -0.70160000 -0.70190000 -0.12320000
vn -0.61490000 -0.61510000 -0.49360000
vn -0.43460000 -0.43470000 -0.78880000
vn -0.43460000 -0.43470000 -0.78880000
vn -0.18810000 -0.18800000 -0.96400000
vn -0.71490000 0.69840000 0.03440000
vn 0.04040000 0.04060000 -0.99840000
vn -0.30000000 -0.29990000 -0.90560000
vn -0.71890000 0.69460000 0.02720000
vn 0.34880000 0.34920000 -0.86970000
vn -0.72620000 0.68730000 0.01560000
vn 0.55760000 0.55800000 -0.61460000
vn 0.55760000 0.55800000 -0.61460000
vn -0.72520000 0.68840000 0.01610000
vn 0.68140000 0.68180000 -0.26600000
vn 0.70160000 0.70190000 0.12320000
vn -0.72920000 0.68430000 -0.00250000
vn 0.38940000 0.38950000 0.83470000
vn 0.59040000 0.59060000 0.55000000
vn -0.73170000 0.68160000 -0.01150000
vn 0.43460000 0.43470000 0.78880000
vn 0.43460000 0.43470000 0.78880000
vn 0.18810000 0.18800000 0.96400000
vn -0.08700000 -0.08720000 0.99240000
vn -0.34880000 -0.34920000 0.86970000
vn -0.70560000 -0.70590000 -0.06240000
vn -0.30000000 -0.29990000 -0.90560000
vn -0.72470000 0.68880000 0.01670000
vn -0.72620000 0.68730000 0.01560000
vn -0.65200000 -0.65250000 0.38620000
vn -0.72510000 0.68840000 0.01610000
vn -0.49790000 -0.49830000 0.70980000
vn -0.49790000 -0.49830000 0.70980000
vn -0.70690000 -0.70730000 0.00380000
vn -0.67330000 0.73930000 -0.00010000
vn -0.65420000 -0.65440000 -0.37920000
vn -0.67580000 0.73680000 0.01790000
vn -0.68300000 0.72970000 0.03320000
vn -0.50180000 -0.50200000 -0.70440000
vn -0.50180000 -0.50200000 -0.70440000
vn -0.69370000 0.71900000 0.04340000
vn -0.27310000 -0.27310000 -0.92240000
vn -0.70640000 0.70630000 0.04710000
vn -0.00280000 -0.00260000 -1.00000000
vn 0.26800000 0.26830000 -0.92530000
vn -0.71910000 0.69360000 0.04350000
vn 0.49790000 0.49830000 -0.70980000
vn -0.72990000 0.68280000 0.03340000
vn 0.49790000 0.49830000 -0.70980000
vn 0.65200000 0.65240000 -0.38620000
vn -0.73710000 0.67550000 0.01820000
vn -0.73970000 0.67300000 0.00030000
vn 0.70690000 0.70730000 -0.00380000
vn 0.65420000 0.65440000 0.37920000
vn -0.73720000 0.67540000 -0.01770000
vn -0.73010000 0.68260000 -0.03290000
vn 0.50180000 0.50200000 0.70440000
vn 0.50180000 0.50200000 0.70440000
vn -0.71930000 0.69330000 -0.04320000
vn 0.27310000 0.27310000 0.92240000
vn 0.00280000 0.00260000 1.00000000
vn -0.70660000 0.70600000 -0.04680000
vn -0.26800000 -0.26830000 0.92530000
vn -0.69390000 0.71870000 -0.04330000
vn -0.49790000 -0.49830000 0.70980000
vn -0.68320000 0.72950000 -0.03320000
vn -0.49790000 -0.49830000 0.70980000
vn -0.65200000 -0.65250000 0.38620000
vn -0.67590000 0.73680000 -0.01800000
vn -0.96230000 0.02800000 -0.27050000
vn -0.96230000 0.02800000 -0.27050000
vn -0.67580000 0.73680000 0.01790000
vn -0.67330000 0.73930000 -0.00010000
vn -0.99990000 -0.00970000 0.00280000
vn -0.68300000 0.72970000 0.03320000
vn -0.85360000 0.13680000 -0.50270000
vn -0.69370000 0.71900000 0.04340000
vn -0.69030000 0.30020000 -0.65830000
vn -0.69030000 0.30020000 -0.65830000
vn -0.70640000 0.70630000 0.04710000
vn -0.49740000 0.49330000 -0.71370000
vn -0.30410000 0.68660000 -0.66040000
vn -0.71910000 0.69360000 0.04350000
vn -0.30410000 0.68660000 -0.66040000
vn -0.14000000 0.85080000 -0.50650000
vn -0.72990000 0.68280000 0.03340000
vn -0.73710000 0.67550000 0.01820000
vn -0.03000000 0.96080000 -0.27560000
vn -0.03000000 0.96080000 -0.27560000
vn -0.73970000 0.67300000 0.00030000
vn 0.00920000 1.00000000 -0.00260000
vn -0.73720000 0.67540000 -0.01770000
vn -0.02850000 0.96220000 0.27070000
vn -0.02850000 0.96220000 0.27070000
vn -0.13720000 0.85340000 0.50290000
vn -0.73010000 0.68260000 -0.03290000
vn -0.30050000 0.69000000 0.65850000
vn -0.71930000 0.69330000 -0.04320000
vn -0.30050000 0.69000000 0.65850000
vn -0.49340000 0.49700000 0.71380000
vn -0.70660000 0.70600000 -0.04680000
vn -0.68660000 0.30360000 0.66060000
vn -0.68660000 0.30360000 0.66060000
vn -0.69390000 0.71870000 -0.04330000
vn -0.85080000 0.13950000 0.50670000
vn -0.68320000 0.72950000 -0.03320000
vn -0.96080000 0.02940000 0.27570000
vn -0.67590000 0.73680000 -0.01800000
vn -0.96080000 0.02940000 0.27570000
vn -0.70730000 0.70690000 0.00010000
vn -0.96230000 0.02800000 -0.27050000
vn -0.96230000 0.02800000 -0.27050000
vn -0.70730000 0.70690000 0.00010000
vn -0.99990000 -0.00970000 0.00280000
vn -0.85360000 0.13680000 -0.50270000
vn -0.70730000 0.70690000 0.00010000
vn -0.69030000 0.30020000 -0.65830000
vn -0.69030000 0.30020000 -0.65830000
vn -0.70730000 0.70690000 0.00010000
vn -0.70730000 0.70690000 0.00010000
vn -0.49740000 0.49330000 -0.71370000
vn -0.30410000 0.68660000 -0.66040000
vn -0.70730000 0.70690000 0.00010000
vn -0.30410000 0.68660000 -0.66040000
vn -0.14000000 0.85080000 -0.50650000
vn -0.70730000 0.70690000 0.00010000
vn -0.03000000 0.96080000 -0.27560000
vn -0.03000000 0.96080000 -0.27560000
vn -0.70730000 0.70690000 0.00010000
vn 0.00920000 1.00000000 -0.00260000
vn -0.70730000 0.70690000 0.00010000
vn -0.70730000 0.70690000 0.00010000
vn -0.02850000 0.96220000 0.27070000
vn -0.02850000 0.96220000 0.27070000
vn -0.13720000 0.85340000 0.50290000
vn -0.70730000 0.70690000 0.00010000
vn -0.70730000 0.70690000 0.00010000
vn -0.30050000 0.69000000 0.65850000
vn -0.30050000 0.69000000 0.65850000
vn -0.49340000 0.49700000 0.71380000
vn -0.70730000 0.70690000 0.00010000
vn -0.68660000 0.30360000 0.66060000
vn -0.68660000 0.30360000 0.66060000
vn -0.70730000 0.70690000 0.00010000
vn -0.70730000 0.70690000 0.00010000
vn -0.85080000 0.13950000 0.50670000
vn -0.70730000 0.70690000 0.00010000
vn -0.96080000 0.02940000 0.27570000
vn -0.96080000 0.02940000 0.27570000
vn -0.65420000 -0.65440000 -0.37920000
vn -0.50180000 -0.50200000 -0.70440000
vn -0.50180000 -0.50200000 -0.70440000
vn -0.27310000 -0.27310000 -0.92240000
vn -0.00280000 -0.00260000 -1.00000000
vn 0.26800000 0.26830000 -0.92530000
vn 0.49790000 0.49830000 -0.70980000
vn 0.49790000 0.49830000 -0.70980000
vn 0.65200000 0.65240000 -0.38620000
vn 0.70690000 0.70730000 -0.00380000
vn 0.65420000 0.65440000 0.37920000
vn 0.50180000 0.50200000 0.70440000
vn 0.50180000 0.50200000 0.70440000
vn 0.27310000 0.27310000 0.92240000
vn 0.00280000 0.00260000 1.00000000
vn -0.72490000 0.68880000 0.01310000
vn -0.22410000 -0.22440000 0.94840000
vn 0.38940000 0.38950000 0.83470000
vn -0.55760000 -0.55800000 0.61460000
vn -0.55760000 -0.55800000 0.61460000
vn -0.55760000 -0.55800000 0.61460000
vn -0.55760000 -0.55800000 0.61460000
vn 0.73270000 -0.68000000 -0.02900000
vn -0.68140000 -0.68180000 0.26600000
vn -0.68140000 -0.68180000 0.26600000
vn 0.73850000 -0.67420000 -0.01260000
vn -0.70160000 -0.70190000 -0.12320000
vn 0.73940000 -0.67320000 0.00570000
vn -0.70160000 -0.70190000 -0.12320000
vn -0.61490000 -0.61510000 -0.49360000
vn -0.61490000 -0.61510000 -0.49360000
vn 0.73540000 -0.67730000 0.02300000
vn -0.43460000 -0.43470000 -0.78880000
vn -0.43460000 -0.43470000 -0.78880000
vn -0.43460000 -0.43470000 -0.78880000
vn -0.43460000 -0.43470000 -0.78880000
vn 0.72690000 -0.68580000 0.03690000
vn -0.18810000 -0.18800000 -0.96400000
vn 0.71530000 -0.69730000 0.04510000
vn -0.18810000 -0.18800000 -0.96400000
vn -0.05160000 -0.05140000 -0.99730000
vn -0.30000000 -0.29990000 -0.90560000
vn 0.70240000 -0.71020000 0.04640000
vn 0.08700000 0.08720000 -0.99240000
vn 0.34880000 0.34920000 -0.86970000
vn 0.69010000 -0.72250000 0.04070000
vn 0.55760000 0.55800000 -0.61460000
vn 0.55760000 0.55800000 -0.61460000
vn 0.68040000 -0.73230000 0.02870000
vn 0.67450000 -0.73810000 0.01240000
vn 0.68140000 0.68180000 -0.26600000
vn 0.70160000 0.70190000 0.12320000
vn 0.67360000 -0.73910000 -0.00590000
vn 0.53500000 0.53520000 0.65370000
vn 0.38940000 0.38950000 0.83470000
vn 0.61490000 0.61510000 0.49360000
vn 0.67770000 -0.73500000 -0.02330000
vn 0.43460000 0.43470000 0.78880000
vn 0.43460000 0.43470000 0.78880000
vn 0.43460000 0.43470000 0.78880000
vn 0.43460000 0.43470000 0.78880000
vn 0.68610000 -0.72650000 -0.03710000
vn 0.18810000 0.18800000 0.96400000
vn 0.69770000 -0.71500000 -0.04540000
vn 0.18810000 0.18800000 0.96400000
vn -0.08700000 -0.08720000 0.99240000
vn 0.71060000 -0.70210000 -0.04670000
vn -0.08700000 -0.08720000 0.99240000
vn -0.34880000 -0.34920000 0.86970000
vn -0.34880000 -0.34920000 0.86970000
vn 0.72290000 -0.68980000 -0.04090000
vn 0.00900000 -0.98180000 0.18980000
vn 0.73850000 -0.67420000 -0.01260000
vn 0.00900000 -0.98180000 0.18980000
vn 0.73270000 -0.68000000 -0.02900000
vn 0.09740000 -0.89340000 0.43860000
vn -0.00540000 -0.99610000 -0.08800000
vn -0.00540000 -0.99610000 -0.08800000
vn 0.73940000 -0.67320000 0.00570000
vn 0.05650000 -0.93420000 -0.35240000
vn 0.73540000 -0.67730000 0.02300000
vn 0.72690000 -0.68580000 0.03690000
vn 0.18520000 -0.80540000 -0.56310000
vn 0.36110000 -0.62930000 -0.68810000
vn 0.71530000 -0.69730000 0.04510000
vn 0.36110000 -0.62930000 -0.68810000
vn 0.55750000 -0.43290000 -0.70840000
vn 0.70240000 -0.71020000 0.04640000
vn 0.55750000 -0.43290000 -0.70840000
vn 0.74440000 -0.24590000 -0.62090000
vn 0.69010000 -0.72250000 0.04070000
vn 0.89340000 -0.09690000 -0.43880000
vn 0.68040000 -0.73230000 0.02870000
vn 0.98180000 -0.00850000 -0.18990000
vn 0.98180000 -0.00850000 -0.18990000
vn 0.67450000 -0.73810000 0.01240000
vn 0.99610000 0.00590000 0.08780000
vn 0.67360000 -0.73910000 -0.00590000
vn 0.99610000 0.00590000 0.08780000
vn 0.93420000 -0.05610000 0.35220000
vn 0.67770000 -0.73500000 -0.02330000
vn 0.68610000 -0.72650000 -0.03710000
vn 0.80560000 -0.18490000 0.56290000
vn 0.62960000 -0.36090000 0.68800000
vn 0.62960000 -0.36090000 0.68800000
vn 0.69770000 -0.71500000 -0.04540000
vn 0.43330000 -0.55740000 0.70820000
vn 0.71060000 -0.70210000 -0.04670000
vn 0.43330000 -0.55740000 0.70820000
vn 0.72290000 -0.68980000 -0.04090000
vn 0.24640000 -0.74430000 0.62070000
vn 0.70730000 -0.70690000 -0.00010000
vn 0.00900000 -0.98180000 0.18980000
vn 0.00900000 -0.98180000 0.18980000
vn 0.09740000 -0.89340000 0.43860000
vn 0.70730000 -0.70690000 -0.00010000
vn 0.70730000 -0.70690000 -0.00010000
vn -0.00540000 -0.99610000 -0.08800000
vn -0.00540000 -0.99610000 -0.08800000
vn 0.05650000 -0.93420000 -0.35240000
vn 0.70730000 -0.70690000 -0.00010000
vn 0.18520000 -0.80540000 -0.56310000
vn 0.70730000 -0.70690000 -0.00010000
vn 0.70730000 -0.70690000 -0.00010000
vn 0.36110000 -0.62930000 -0.68810000
vn 0.36110000 -0.62930000 -0.68810000
vn 0.70730000 -0.70690000 -0.00010000
vn 0.55750000 -0.43290000 -0.70840000
vn 0.55750000 -0.43290000 -0.70840000
vn 0.70730000 -0.70690000 -0.00010000
vn 0.74440000 -0.24590000 -0.62090000
vn 0.89340000 -0.09690000 -0.43880000
vn 0.70730000 -0.70690000 -0.00010000
vn 0.98180000 -0.00850000 -0.18990000
vn 0.70730000 -0.70690000 -0.00010000
vn 0.98180000 -0.00850000 -0.18990000
vn 0.99610000 0.00590000 0.08780000
vn 0.70730000 -0.70690000 -0.00010000
vn 0.99610000 0.00590000 0.08780000
vn 0.93420000 -0.05610000 0.35220000
vn 0.70730000 -0.70690000 -0.00010000
vn 0.70730000 -0.70690000 -0.00010000
vn 0.80560000 -0.18490000 0.56290000
vn 0.70730000 -0.70690000 -0.00010000
vn 0.62960000 -0.36090000 0.68800000
vn 0.62960000 -0.36090000 0.68800000
vn 0.43330000 -0.55740000 0.70820000
vn 0.43330000 -0.55740000 0.70820000
vn 0.70730000 -0.70690000 -0.00010000
vn 0.70730000 -0.70690000 -0.00010000
vn 0.24640000 -0.74430000 0.62070000
vn -0.55760000 -0.55800000 0.61460000
vn -0.55760000 -0.55800000 0.61460000
vn -0.68140000 -0.68180000 0.26600000
vn -0.70160000 -0.70190000 -0.12320000
vn -0.61490000 -0.61510000 -0.49360000
vn -0.43460000 -0.43470000 -0.78880000
vn -0.43460000 -0.43470000 -0.78880000
vn -0.18810000 -0.18800000 -0.96400000
vn -0.30000000 -0.29990000 -0.90560000
vn 0.69880000 -0.71450000 0.03420000
vn 0.04040000 0.04060000 -0.99840000
vn 0.34880000 0.34920000 -0.86970000
vn 0.69500000 -0.71850000 0.02700000
vn 0.68770000 -0.72580000 0.01530000
vn 0.55760000 0.55800000 -0.61460000
vn 0.55760000 0.55800000 -0.61460000
vn 0.68140000 0.68180000 -0.26600000
vn 0.68870000 -0.72480000 0.01590000
vn 0.68460000 -0.72890000 -0.00270000
vn 0.70160000 0.70190000 0.12320000
vn 0.59040000 0.59060000 0.55000000
vn 0.38940000 0.38950000 0.83470000
vn 0.68190000 -0.73130000 -0.01180000
vn 0.43460000 0.43470000 0.78880000
vn 0.43460000 0.43470000 0.78880000
vn 0.18810000 0.18800000 0.96400000
vn -0.08700000 -0.08720000 0.99240000
vn -0.34880000 -0.34920000 0.86970000
vn -0.70560000 -0.70590000 -0.06240000
vn 0.68920000 -0.72440000 0.01640000
vn -0.30000000 -0.29990000 -0.90560000
vn 0.68770000 -0.72580000 0.01530000
vn -0.65200000 -0.65240000 0.38620000
vn -0.49790000 -0.49830000 0.70980000
vn -0.49790000 -0.49830000 0.70980000
vn 0.68880000 -0.72480000 0.01580000
vn -0.30000000 -0.29990000 -0.90560000
vn -0.69390000 -0.69420000 -0.19140000
vn 0.73970000 -0.67300000 -0.00030000
vn -0.70690000 -0.70730000 0.00380000
vn -0.65420000 -0.65440000 -0.37920000
vn -0.65420000 -0.65440000 -0.37920000
vn 0.73720000 -0.67540000 0.01770000
vn -0.50180000 -0.50200000 -0.70440000
vn -0.50180000 -0.50200000 -0.70440000
vn -0.50180000 -0.50200000 -0.70440000
vn 0.73010000 -0.68260000 0.03290000
vn -0.50180000 -0.50200000 -0.70440000
vn -0.27310000 -0.27310000 -0.92240000
vn 0.71930000 -0.69330000 0.04320000
vn -0.27310000 -0.27310000 -0.92240000
vn -0.00280000 -0.00260000 -1.00000000
vn -0.00280000 -0.00260000 -1.00000000
vn 0.70660000 -0.70600000 0.04680000
vn 0.26800000 0.26830000 -0.92530000
vn 0.69390000 -0.71870000 0.04330000
vn 0.26800000 0.26830000 -0.92530000
vn 0.49790000 0.49830000 -0.70980000
vn 0.49790000 0.49830000 -0.70980000
vn 0.49790000 0.49830000 -0.70980000
vn 0.49790000 0.49830000 -0.70980000
vn 0.68320000 -0.72950000 0.03320000
vn 0.65200000 0.65240000 -0.38620000
vn 0.67590000 -0.73680000 0.01800000
vn 0.70690000 0.70730000 -0.00380000
vn 0.67330000 -0.73930000 0.00010000
vn 0.65420000 0.65440000 0.37920000
vn 0.67580000 -0.73680000 -0.01790000
vn 0.68300000 -0.72970000 -0.03320000
vn 0.50180000 0.50200000 0.70440000
vn 0.50180000 0.50200000 0.70440000
vn 0.27310000 0.27310000 0.92240000
vn 0.27310000 0.27310000 0.92240000
vn 0.69370000 -0.71900000 -0.04340000
vn 0.00280000 0.00260000 1.00000000
vn 0.70640000 -0.70630000 -0.04700000
vn 0.00280000 0.00260000 1.00000000
vn -0.13520000 -0.13540000 0.98150000
vn 0.38940000 0.38950000 0.83470000
vn -0.26800000 -0.26830000 0.92530000
vn 0.71910000 -0.69360000 -0.04350000
vn -0.49790000 -0.49830000 0.70980000
vn -0.49790000 -0.49830000 0.70980000
vn 0.72990000 -0.68280000 -0.03340000
vn 0.73710000 -0.67550000 -0.01820000
vn -0.65200000 -0.65240000 0.38620000
vn 0.02850000 -0.96220000 -0.27070000
vn 0.73720000 -0.67540000 0.01770000
vn 0.02850000 -0.96220000 -0.27070000
vn 0.73970000 -0.67300000 -0.00030000
vn -0.00920000 -1.00000000 0.00260000
vn 0.13720000 -0.85340000 -0.50290000
vn 0.73010000 -0.68260000 0.03290000
vn 0.71930000 -0.69330000 0.04320000
vn 0.30050000 -0.69000000 -0.65850000
vn 0.30050000 -0.69000000 -0.65850000
vn 0.49340000 -0.49700000 -0.71380000
vn 0.70660000 -0.70600000 0.04680000
vn 0.68660000 -0.30360000 -0.66060000
vn 0.68660000 -0.30360000 -0.66060000
vn 0.69390000 -0.71870000 0.04330000
vn 0.85080000 -0.13950000 -0.50670000
vn 0.68320000 -0.72950000 0.03320000
vn 0.67590000 -0.73680000 0.01800000
vn 0.96080000 -0.02940000 -0.27570000
vn 0.96080000 -0.02940000 -0.27570000
vn 0.99990000 0.00970000 -0.00280000
vn 0.67330000 -0.73930000 0.00010000
vn 0.67580000 -0.73680000 -0.01790000
vn 0.96230000 -0.02800000 0.27050000
vn 0.96230000 -0.02800000 0.27050000
vn 0.85360000 -0.13680000 0.50270000
vn 0.68300000 -0.72970000 -0.03320000
vn 0.69370000 -0.71900000 -0.04340000
vn 0.69030000 -0.30020000 0.65830000
vn 0.69030000 -0.30020000 0.65830000
vn 0.49740000 -0.49330000 0.71370000
vn 0.70640000 -0.70630000 -0.04700000
vn 0.30410000 -0.68660000 0.66040000
vn 0.30410000 -0.68660000 0.66040000
vn 0.71910000 -0.69360000 -0.04350000
vn 0.72990000 -0.68280000 -0.03340000
vn 0.14000000 -0.85080000 0.50650000
vn 0.73710000 -0.67550000 -0.01820000
vn 0.03000000 -0.96080000 0.27560000
vn 0.03000000 -0.96080000 0.27560000
vn 0.02850000 -0.96220000 -0.27070000
vn 0.02850000 -0.96220000 -0.27070000
vn 0.70730000 -0.70690000 -0.00010000
vn -0.00920000 -1.00000000 0.00260000
vn 0.70730000 -0.70690000 -0.00010000
vn 0.70730000 -0.70690000 -0.00010000
vn 0.13720000 -0.85340000 -0.50290000
vn 0.30050000 -0.69000000 -0.65850000
vn 0.70730000 -0.70690000 -0.00010000
vn 0.30050000 -0.69000000 -0.65850000
vn 0.49340000 -0.49700000 -0.71380000
vn 0.70730000 -0.70690000 -0.00010000
vn 0.68660000 -0.30360000 -0.66060000
vn 0.70730000 -0.70690000 -0.00010000
vn 0.68660000 -0.30360000 -0.66060000
vn 0.85080000 -0.13950000 -0.50670000
vn 0.70730000 -0.70690000 -0.00010000
vn 0.70730000 -0.70690000 -0.00010000
vn 0.96080000 -0.02940000 -0.27570000
vn 0.96080000 -0.02940000 -0.27570000
vn 0.70730000 -0.70690000 -0.00010000
vn 0.99990000 0.00970000 -0.00280000
vn 0.96230000 -0.02800000 0.27050000
vn 0.96230000 -0.02800000 0.27050000
vn 0.70730000 -0.70690000 -0.00010000
vn 0.85360000 -0.13680000 0.50270000
vn 0.70730000 -0.70690000 -0.00010000
vn 0.70730000 -0.70690000 -0.00010000
vn 0.69030000 -0.30020000 0.65830000
vn 0.69030000 -0.30020000 0.65830000
vn 0.49740000 -0.49330000 0.71370000
vn 0.70730000 -0.70690000 -0.00010000
vn 0.30410000 -0.68660000 0.66040000
vn 0.70730000 -0.70690000 -0.00010000
vn 0.30410000 -0.68660000 0.66040000
vn 0.70730000 -0.70690000 -0.00010000
vn 0.14000000 -0.85080000 0.50650000
vn 0.70730000 -0.70690000 -0.00010000
vn 0.03000000 -0.96080000 0.27560000
vn 0.03000000 -0.96080000 0.27560000
vn -0.65420000 -0.65440000 -0.37920000
vn -0.50180000 -0.50200000 -0.70440000
vn -0.50180000 -0.50200000 -0.70440000
vn -0.27310000 -0.27310000 -0.92240000
vn -0.00280000 -0.00260000 -1.00000000
vn 0.26800000 0.26830000 -0.92530000
vn 0.49790000 0.49830000 -0.70980000
vn 0.49790000 0.49830000 -0.70980000
vn 0.65200000 0.65240000 -0.38620000
vn 0.70690000 0.70730000 -0.00380000
vn 0.65420000 0.65440000 0.37920000
vn 0.50180000 0.50200000 0.70440000
vn 0.50180000 0.50200000 0.70440000
vn 0.27310000 0.27310000 0.92240000
vn 0.00280000 0.00260000 1.00000000
vn -0.22410000 -0.22440000 0.94840000
vn 0.68910000 -0.72450000 0.01280000
vn 0.38940000 0.38950000 0.83470000
vn 0.70690000 0.70730000 -0.00380000
vn 0.65200000 0.65240000 -0.38620000
vn 0.50180000 0.50200000 0.70440000
vn 0.50180000 0.50200000 0.70440000
vn 0.65420000 0.65440000 0.37920000
vt 0.91981700 0.82728800
vt 0.71054300 0.89990700
vt 0.58286000 0.77453800
vt 0.91982300 0.82108200
vt 0.58550000 0.76817900
vt 0.58550000 0.76129500
vt 0.91982400 0.81420800
vt 0.91981900 0.80771200
vt 0.58286000 0.75493500
vt 0.91981000 0.80258400
vt 0.25164800 0.56915000
vt 0.57798100 0.75006800
vt 0.57160700 0.74743300
vt 0.25164800 0.57531300
vt 0.25164800 0.58218100
vt 0.56470800 0.74743300
vt 0.55833400 0.75006700
vt 0.25164800 0.58870800
vt 0.25164800 0.59390000
vt 0.60944000 0.92352600
vt 0.55345500 0.75493500
vt 0.60943300 0.91740700
vt 0.55081500 0.76129400
vt 0.55081500 0.76817800
vt 0.60943200 0.91054600
vt 0.55345500 0.77453800
vt 0.60943700 0.90398900
vt 0.55833400 0.77940500
vt 0.60944600 0.89873300
vt 0.71054300 0.92465700
vt 0.56470800 0.78204000
vt 0.71054300 0.91849400
vt 0.71054300 0.91162600
vt 0.57160700 0.78204000
vt 0.71054300 0.90509900
vt 0.57798100 0.77940600
vt 0.58348900 0.76778100
vt 0.58348900 0.76778100
vt 0.78091900 0.96458500
vt 0.58115500 0.77340400
vt 0.58115500 0.77340400
vt 0.58348900 0.76169600
vt 0.58348900 0.76169600
vt 0.78091900 0.95850800
vt 0.58115500 0.75607300
vt 0.58115500 0.75607300
vt 0.57684200 0.75177000
vt 0.57684200 0.75177000
vt 0.57120700 0.74944100
vt 0.57120700 0.74944100
vt 0.98990800 0.89751100
vt 0.56510800 0.74944100
vt 0.56510800 0.74944100
vt 0.98990800 0.89143900
vt 0.55947200 0.75176900
vt 0.55947200 0.75176900
vt 0.55515900 0.75607300
vt 0.55515900 0.75607300
vt 0.55282500 0.76169500
vt 0.50821600 0.98385400
vt 0.55282500 0.76169500
vt 0.55282500 0.76778100
vt 0.55282500 0.76778100
vt 0.50821600 0.98991900
vt 0.55515900 0.77340300
vt 0.55515900 0.77340300
vt 0.55947200 0.77770600
vt 0.55947200 0.77770600
vt 0.56510800 0.78003500
vt 0.98534700 0.26151500
vt 0.56510800 0.78003500
vt 0.57120700 0.78003500
vt 0.57120700 0.78003500
vt 0.98534700 0.25544300
vt 0.57684200 0.77770700
vt 0.57684200 0.77770700
vt 0.58236400 0.76754100
vt 0.77974600 0.96430000
vt 0.58236400 0.76754100
vt 0.58020200 0.77275000
vt 0.58020200 0.77275000
vt 0.58236400 0.76190200
vt 0.58236400 0.76190200
vt 0.77974600 0.95866900
vt 0.58020200 0.75669300
vt 0.58020200 0.75669300
vt 0.57620600 0.75270600
vt 0.57620600 0.75270600
vt 0.98873700 0.89721000
vt 0.57098500 0.75054800
vt 0.57098500 0.75054800
vt 0.56533300 0.75054800
vt 0.56533300 0.75054800
vt 0.98873700 0.89158400
vt 0.56011200 0.75270600
vt 0.56011200 0.75270600
vt 0.55611600 0.75669300
vt 0.55611600 0.75669300
vt 0.55395300 0.76190200
vt 0.50938400 0.98417000
vt 0.55395300 0.76190200
vt 0.55395300 0.76754000
vt 0.55395300 0.76754000
vt 0.50938400 0.98979000
vt 0.55611600 0.77275000
vt 0.55611600 0.77275000
vt 0.56011200 0.77673700
vt 0.56011200 0.77673700
vt 0.98417600 0.26121400
vt 0.56533300 0.77889500
vt 0.56533300 0.77889500
vt 0.57098400 0.77889500
vt 0.57098400 0.77889500
vt 0.98417700 0.25558900
vt 0.57620600 0.77673700
vt 0.57620600 0.77673700
vt 0.71414400 0.89990700
vt 0.92341700 0.82728800
vt 0.92342400 0.82108200
vt 0.92342400 0.81420800
vt 0.92342000 0.80771200
vt 0.24804700 0.56915000
vt 0.92341000 0.80258400
vt 0.24804700 0.57531300
vt 0.74390800 0.44242400
vt 0.24804700 0.58218100
vt 0.24804700 0.58218100
vt 0.74932700 0.44668500
vt 0.24804700 0.58870800
vt 0.75596700 0.44855300
vt 0.61304000 0.92352600
vt 0.24804700 0.59390000
vt 0.76281800 0.44774300
vt 0.61303400 0.91740700
vt 0.61303300 0.91054600
vt 0.76883600 0.44437800
vt 0.71222700 0.58176500
vt 0.61303700 0.90398900
vt 0.77310600 0.43897200
vt 0.61304600 0.89873300
vt 0.71414400 0.92465700
vt 0.71414400 0.91849400
vt 0.71414400 0.91162600
vt 0.71414400 0.90509900
vt 0.88654500 0.23658100
vt 0.24902900 0.61793300
vt 0.74962100 0.48142300
vt 0.75727000 0.47834500
vt 0.88654900 0.22848700
vt 0.76551600 0.47842200
vt 0.88655800 0.22158100
vt 0.71124600 0.61062300
vt 0.89085000 0.23658100
vt 0.68285200 0.46507200
vt 0.89085300 0.24462900
vt 0.68600800 0.47267400
vt 0.69184000 0.47849300
vt 0.89086200 0.25140700
vt 0.87731300 0.88159200
vt 0.69946000 0.48164200
vt 0.87731300 0.87474900
vt 0.70770800 0.48164200
vt 0.87731300 0.86667700
vt 0.87731300 0.85860600
vt 0.71532800 0.47849300
vt 0.87731300 0.85176300
vt 0.72116000 0.47267400
vt 0.64950400 0.89373300
vt 0.64949500 0.88695600
vt 0.72431700 0.46507200
vt 0.72431700 0.45684200
vt 0.64949100 0.87890700
vt 0.64949500 0.87081400
vt 0.72116000 0.44924000
vt 0.71532800 0.44342100
vt 0.64950400 0.86390700
vt 0.70694200 0.64045200
vt 0.70770800 0.44027200
vt 0.70694200 0.63360900
vt 0.70694200 0.62553800
vt 0.69946000 0.44027200
vt 0.70694200 0.61746600
vt 0.69184000 0.44342100
vt 0.89086200 0.22158100
vt 0.68600800 0.44924000
vt 0.70694200 0.61062300
vt 0.89085300 0.22848700
vt 0.68285200 0.45684300
vt 0.68804600 0.47131400
vt 0.32583400 0.39346100
vt 0.68804600 0.47131400
vt 0.68525500 0.46459300
vt 0.32583100 0.38634600
vt 0.69320200 0.47645900
vt 0.69320200 0.47645900
vt 0.69993800 0.47924300
vt 0.40681300 0.69695600
vt 0.69993800 0.47924300
vt 0.70723000 0.47924300
vt 0.40681300 0.68982000
vt 0.71396700 0.47645900
vt 0.71396700 0.47645900
vt 0.40681300 0.68268400
vt 0.71912300 0.47131400
vt 0.71912300 0.47131400
vt 0.72191300 0.46459300
vt 0.96944000 0.61136800
vt 0.72191300 0.46459300
vt 0.72191300 0.45731800
vt 0.96943700 0.60425200
vt 0.71912300 0.45059700
vt 0.71912300 0.45059700
vt 0.96944000 0.59709700
vt 0.71396700 0.44545200
vt 0.71396700 0.44545200
vt 0.32723000 0.63020800
vt 0.70723000 0.44266800
vt 0.70723000 0.44266800
vt 0.32723000 0.62307200
vt 0.69993800 0.44266800
vt 0.32723000 0.61593600
vt 0.69320200 0.44545200
vt 0.69320200 0.44545200
vt 0.68804600 0.45059700
vt 0.68804600 0.45059700
vt 0.32583400 0.37919000
vt 0.68525500 0.45731800
vt 0.68525500 0.45731800
vt 0.68918800 0.47057300
vt 0.68918800 0.47057300
vt 0.32723600 0.39291900
vt 0.68660300 0.46434600
vt 0.32723300 0.38632600
vt 0.69396500 0.47534000
vt 0.69396500 0.47534000
vt 0.40541300 0.69643100
vt 0.70020700 0.47791900
vt 0.70020700 0.47791900
vt 0.70696300 0.47791900
vt 0.40541300 0.68982000
vt 0.40541300 0.68320800
vt 0.71320500 0.47534000
vt 0.71320500 0.47534000
vt 0.71798200 0.47057300
vt 0.71798200 0.47057300
vt 0.72056700 0.46434600
vt 0.96804300 0.61082500
vt 0.72056700 0.46434600
vt 0.96804000 0.60423300
vt 0.72056700 0.45760500
vt 0.71798200 0.45137800
vt 0.96804300 0.59760300
vt 0.71798200 0.45137800
vt 0.71320500 0.44661100
vt 0.71320500 0.44661100
vt 0.70696300 0.44403200
vt 0.32583100 0.62968400
vt 0.70696300 0.44403200
vt 0.32583100 0.62307200
vt 0.70020700 0.44403200
vt 0.69396500 0.44661100
vt 0.32583100 0.61646100
vt 0.69396500 0.44661100
vt 0.68918800 0.45137800
vt 0.68918800 0.45137800
vt 0.68660300 0.45760500
vt 0.32723600 0.37969700
vt 0.68660300 0.45760500
vt 0.88654900 0.24462900
vt 0.88161700 0.88159200
vt 0.88655800 0.25140700
vt 0.88161700 0.87474900
vt 0.88161700 0.86667700
vt 0.88161700 0.85860600
vt 0.65380800 0.89373300
vt 0.88161700 0.85176300
vt 0.65379900 0.88695600
vt 0.65379500 0.87890800
vt 0.65379900 0.87081400
vt 0.71124600 0.64045200
vt 0.65380800 0.86390700
vt 0.71124600 0.63360900
vt 0.71124600 0.62553800
vt 0.77310600 0.48164200
vt 0.71124600 0.61746600
vt 0.71124600 0.61746600
vt 0.92843900 0.82728800
vt 0.71916500 0.89990700
vt 0.72778700 0.89990700
vt 0.93706100 0.82728800
vt 0.03696200 0.74520300
vt 0.92844500 0.82108200
vt 0.93706700 0.82108200
vt 0.04184100 0.75007100
vt 0.92844600 0.81420800
vt 0.04448100 0.75643000
vt 0.93706800 0.81420800
vt 0.92844100 0.80771200
vt 0.93706300 0.80771200
vt 0.04448100 0.76331400
vt 0.92843200 0.80258400
vt 0.24302600 0.56915000
vt 0.23440400 0.56915000
vt 0.93705400 0.80258400
vt 0.04184100 0.76967400
vt 0.24302600 0.57531300
vt 0.03696200 0.77454100
vt 0.23440400 0.57531300
vt 0.24302600 0.58218100
vt 0.24302600 0.58218100
vt 0.03058800 0.77717600
vt 0.23440400 0.58218100
vt 0.23440400 0.58870800
vt 0.02368900 0.77717600
vt 0.23440400 0.59390000
vt 0.62668400 0.92352600
vt 0.01731500 0.77454200
vt 0.01243600 0.76967500
vt 0.62667700 0.91740700
vt 0.62667600 0.91054600
vt 0.00979600 0.76331500
vt 0.61805900 0.90398900
vt 0.71724900 0.58176500
vt 0.62668000 0.90398900
vt 0.00979600 0.75643100
vt 0.61806800 0.89873300
vt 0.71916500 0.92465700
vt 0.62669000 0.89873300
vt 0.72778700 0.92465700
vt 0.01243600 0.75007200
vt 0.71916500 0.91849400
vt 0.01731500 0.74520400
vt 0.72778700 0.91849400
vt 0.71916500 0.91162600
vt 0.02368900 0.74256900
vt 0.72778700 0.91162600
vt 0.71916500 0.90509900
vt 0.72778700 0.90509900
vt 0.03058800 0.74256900
vt 0.04013600 0.75120600
vt 0.04013600 0.75120600
vt 0.98114200 0.41729000
vt 0.03582300 0.74690200
vt 0.03582300 0.74690200
vt 0.98114200 0.41121300
vt 0.04247000 0.75682800
vt 0.04247000 0.75682800
vt 0.04247000 0.76291400
vt 0.04247000 0.76291400
vt 0.04013600 0.76853600
vt 0.04013600 0.76853600
vt 0.03582300 0.77283900
vt 0.03582300 0.77283900
vt 0.63754500 0.98281800
vt 0.03018800 0.77516900
vt 0.03018800 0.77516900
vt 0.63754500 0.97674700
vt 0.02408800 0.77516900
vt 0.02408800 0.77516900
vt 0.01845300 0.77284000
vt 0.01845300 0.77284000
vt 0.71171600 0.98294200
vt 0.01414000 0.76853700
vt 0.01414000 0.76853700
vt 0.01180600 0.76291500
vt 0.01180600 0.76291500
vt 0.71171600 0.98900700
vt 0.01180600 0.75682900
vt 0.01180600 0.75682900
vt 0.01414000 0.75120600
vt 0.01414000 0.75120600
vt 0.01845300 0.74690300
vt 0.21569900 0.97728500
vt 0.01845300 0.74690300
vt 0.21569900 0.98335600
vt 0.02408800 0.74457400
vt 0.02408800 0.74457400
vt 0.03018800 0.74457400
vt 0.03018800 0.74457400
vt 0.03918400 0.75185900
vt 0.03918400 0.75185900
vt 0.98231000 0.41700500
vt 0.03518800 0.74787200
vt 0.03518800 0.74787200
vt 0.04134700 0.75706800
vt 0.98231000 0.41137400
vt 0.04134700 0.75706800
vt 0.04134700 0.76270700
vt 0.04134700 0.76270700
vt 0.03918400 0.76791600
vt 0.03918400 0.76791600
vt 0.03518800 0.77190300
vt 0.03518800 0.77190300
vt 0.63871600 0.98251800
vt 0.02996700 0.77406100
vt 0.02996700 0.77406100
vt 0.63871600 0.97689200
vt 0.02431500 0.77406100
vt 0.02431500 0.77406100
vt 0.01909400 0.77190400
vt 0.01909400 0.77190400
vt 0.01509800 0.76791700
vt 0.01509800 0.76791700
vt 0.71054300 0.98325800
vt 0.71054300 0.98887800
vt 0.01293500 0.76270800
vt 0.01293500 0.76270800
vt 0.01293500 0.75706900
vt 0.01293500 0.75706900
vt 0.01509800 0.75185900
vt 0.01509800 0.75185900
vt 0.01909400 0.74787200
vt 0.01909400 0.74787200
vt 0.21452900 0.97758500
vt 0.21452900 0.98321100
vt 0.02431500 0.74571400
vt 0.02431500 0.74571400
vt 0.02996700 0.74571400
vt 0.02996700 0.74571400
vt 0.93346100 0.82728800
vt 0.72418700 0.89990700
vt 0.93346700 0.82108200
vt 0.93346800 0.81420800
vt 0.93346300 0.80771200
vt 0.93345300 0.80258400
vt 0.23800400 0.56915000
vt 0.23800400 0.57531300
vt 0.23800400 0.58218100
vt 0.08195800 0.75053900
vt 0.23800400 0.58218100
vt 0.23800400 0.58870800
vt 0.08737700 0.74627800
vt 0.09401700 0.74440900
vt 0.23800400 0.59390000
vt 0.62308400 0.92352600
vt 0.62307700 0.91740700
vt 0.10086800 0.74521900
vt 0.10688700 0.74858200
vt 0.62307600 0.91054600
vt 0.62308000 0.90398900
vt 0.72227100 0.58176500
vt 0.11115700 0.75398900
vt 0.62308900 0.89873300
vt 0.72418700 0.92465700
vt 0.72418700 0.91849400
vt 0.72418700 0.91162600
vt 0.72418700 0.90509900
vt 0.87453900 0.23658100
vt 0.08767200 0.71153700
vt 0.23702300 0.61793300
vt 0.09532000 0.71461400
vt 0.87454300 0.22848700
vt 0.72325200 0.61062300
vt 0.87455200 0.22158000
vt 0.10356700 0.71453700
vt 0.24302600 0.61793300
vt 0.88054200 0.23658100
vt 0.27942200 0.70160500
vt 0.87023500 0.23658000
vt 0.88054600 0.24462900
vt 0.87023900 0.24462900
vt 0.27942200 0.69337600
vt 0.88055500 0.25140700
vt 0.88762000 0.88159200
vt 0.89792700 0.88159200
vt 0.28257800 0.68577400
vt 0.87024800 0.25140700
vt 0.88762000 0.87474900
vt 0.28841000 0.67995500
vt 0.89792700 0.87474900
vt 0.88762000 0.86667700
vt 0.89792700 0.86667800
vt 0.29603000 0.67680500
vt 0.88762000 0.85860600
vt 0.30427800 0.67680500
vt 0.89792700 0.85860600
vt 0.88762000 0.85176300
vt 0.65981100 0.89373300
vt 0.67011800 0.89373400
vt 0.89792700 0.85176300
vt 0.31189800 0.67995400
vt 0.67010900 0.88695600
vt 0.31773000 0.68577300
vt 0.67010600 0.87890800
vt 0.32088600 0.69337600
vt 0.67010900 0.87081400
vt 0.32088600 0.70160500
vt 0.31773000 0.70920800
vt 0.72755600 0.64045200
vt 0.67011800 0.86390700
vt 0.71724900 0.63360900
vt 0.72755600 0.63360900
vt 0.31189800 0.71502700
vt 0.71724900 0.62553800
vt 0.30427800 0.71817600
vt 0.72755600 0.62553800
vt 0.71724900 0.61746600
vt 0.71724900 0.61746600
vt 0.72755600 0.61746600
vt 0.29603000 0.71817600
vt 0.72755600 0.61062300
vt 0.87024800 0.22158000
vt 0.28841000 0.71502700
vt 0.28257800 0.70920800
vt 0.87023900 0.22848700
vt 0.56392800 0.96485900
vt 0.28182500 0.69385500
vt 0.28182500 0.69385500
vt 0.28182500 0.70113000
vt 0.56392500 0.95774400
vt 0.28461600 0.68713400
vt 0.28461600 0.68713400
vt 0.28977200 0.68198900
vt 0.32723000 0.44683000
vt 0.28977200 0.68198900
vt 0.32723000 0.45396600
vt 0.29650800 0.67920500
vt 0.32723000 0.46110200
vt 0.30380000 0.67920500
vt 0.30380000 0.67920500
vt 0.31053700 0.68198900
vt 0.31053700 0.68198900
vt 0.31569300 0.68713300
vt 0.31569300 0.68713300
vt 0.32583400 0.42728100
vt 0.32583100 0.42016600
vt 0.31848300 0.69385500
vt 0.31848300 0.70113000
vt 0.31848300 0.70113000
vt 0.32583400 0.41301000
vt 0.31569300 0.70785100
vt 0.31569300 0.70785100
vt 0.31053700 0.71299500
vt 0.31053700 0.71299500
vt 0.32723000 0.54829400
vt 0.32723000 0.55543000
vt 0.30380000 0.71577900
vt 0.32723000 0.56256600
vt 0.29650800 0.71578000
vt 0.29650800 0.71578000
vt 0.28977200 0.71299600
vt 0.28977200 0.71299600
vt 0.28461600 0.70785100
vt 0.28461600 0.70785100
vt 0.56392800 0.95058800
vt 0.28317100 0.69410200
vt 0.56253100 0.96431700
vt 0.28317100 0.69410200
vt 0.56252900 0.95772400
vt 0.28317100 0.70084300
vt 0.28575700 0.68787500
vt 0.28575700 0.68787500
vt 0.32583100 0.44735400
vt 0.29053400 0.68310800
vt 0.29053400 0.68310800
vt 0.32583100 0.45396600
vt 0.29677500 0.68052900
vt 0.32583100 0.46057800
vt 0.30353100 0.68052900
vt 0.30353100 0.68052900
vt 0.30977300 0.68310800
vt 0.30977300 0.68310800
vt 0.31455000 0.68787400
vt 0.31455000 0.68787400
vt 0.32723600 0.42673900
vt 0.31713600 0.69410200
vt 0.32723300 0.42014600
vt 0.32723600 0.41351600
vt 0.31713600 0.70084200
vt 0.31713600 0.70084200
vt 0.31455000 0.70707000
vt 0.31455000 0.70707000
vt 0.30977300 0.71183600
vt 0.32583100 0.54881800
vt 0.30977300 0.71183600
vt 0.32583100 0.55543000
vt 0.30353100 0.71441600
vt 0.32583100 0.56204200
vt 0.29677500 0.71441600
vt 0.29677500 0.71441600
vt 0.29053400 0.71183700
vt 0.29053400 0.71183700
vt 0.28575700 0.70707000
vt 0.56253100 0.95109500
vt 0.28575700 0.70707000
vt 0.87454300 0.24462900
vt 0.89362300 0.88159200
vt 0.87455200 0.25140700
vt 0.89362300 0.87474900
vt 0.89362300 0.86667700
vt 0.89362300 0.85860600
vt 0.66581400 0.89373400
vt 0.89362300 0.85176300
vt 0.66580500 0.88695600
vt 0.66580200 0.87890800
vt 0.66580500 0.87081400
vt 0.66581400 0.86390700
vt 0.72325200 0.64045200
vt 0.72325200 0.63360900
vt 0.72325200 0.62553800
vt 0.72325200 0.61746600
vt 0.11115700 0.71131600
vt 0.72325200 0.61746600
vt 0.65979800 0.87890800
vt 0.65980200 0.88695600
vt 0.65981100 0.86390700
vt 0.71724900 0.64045200
vt 0.65980200 0.87081400
f 118/118/118 1/1/1 4/4/4
f 4/4/4 119/119/119 118/118/118
f 119/119/119 4/4/4 7/7/7
f 7/7/7 120/120/120 119/119/119
f 120/120/120 7/7/7 8/8/8
f 8/8/8 121/121/121 120/120/120
f 121/121/121 8/8/8 10/10/10
f 10/10/10 123/123/123 121/121/121
f 122/122/122 11/11/11 14/14/14
f 14/14/14 124/124/124 122/122/122
f 124/124/124 14/14/14 15/15/15
f 15/15/15 126/126/126 124/124/124
f 126/126/126 15/15/15 18/18/18
f 18/18/18 129/129/129 126/126/126
f 129/129/129 18/18/18 19/19/19
f 19/19/19 132/132/132 129/129/129
f 131/131/131 20/20/20 22/22/22
f 22/22/22 134/134/134 131/131/131
f 134/134/134 22/22/22 25/25/25
f 25/25/25 135/135/135 134/134/134
f 135/135/135 25/25/25 27/27/27
f 27/27/27 138/138/138 135/135/135
f 138/138/138 27/27/27 29/29/29
f 29/29/29 140/140/140 138/138/138
f 141/141/141 30/30/30 32/32/32
f 32/32/32 142/142/142 141/141/141
f 142/142/142 32/32/32 33/33/33
f 33/33/33 143/143/143 142/142/142
f 36/36/36 34/34/34 72/72/72
f 72/72/72 76/76/76 36/36/36
f 143/143/143 33/33/33 35/35/35
f 35/35/35 144/144/144 143/143/143
f 144/144/144 35/35/35 2/2/2
f 2/2/2 117/117/117 144/144/144
f 337/337/337 144/144/144 117/117/117
f 117/117/117 288/288/288 337/337/337
f 67/67/67 66/66/66 105/105/105
f 105/105/105 107/107/107 67/67/67
f 9/9/9 6/6/6 42/42/42
f 42/42/42 46/46/46 9/9/9
f 21/21/21 17/17/17 55/55/55
f 55/55/55 58/58/58 21/21/21
f 5/5/5 3/3/3 41/41/41
f 41/41/41 38/38/38 5/5/5
f 31/31/31 28/28/28 68/68/68
f 68/68/68 69/69/69 31/31/31
f 16/16/16 13/13/13 49/49/49
f 49/49/49 52/52/52 16/16/16
f 26/26/26 24/24/24 62/62/62
f 62/62/62 65/65/65 26/26/26
f 3/3/3 36/36/36 76/76/76
f 76/76/76 41/41/41 3/3/3
f 12/12/12 9/9/9 46/46/46
f 46/46/46 47/47/47 12/12/12
f 23/23/23 21/21/21 58/58/58
f 58/58/58 61/61/61 23/23/23
f 34/34/34 31/31/31 69/69/69
f 69/69/69 72/72/72 34/34/34
f 6/6/6 5/5/5 38/38/38
f 38/38/38 42/42/42 6/6/6
f 17/17/17 16/16/16 52/52/52
f 52/52/52 55/55/55 17/17/17
f 28/28/28 26/26/26 65/65/65
f 65/65/65 68/68/68 28/28/28
f 13/13/13 12/12/12 47/47/47
f 47/47/47 49/49/49 13/13/13
f 24/24/24 23/23/23 61/61/61
f 61/61/61 62/62/62 24/24/24
f 77/77/77 81/81/81 116/116/116
f 77/77/77 116/116/116 112/112/112
f 77/77/77 112/112/112 111/111/111
f 77/77/77 111/111/111 108/108/108
f 77/77/77 108/108/108 106/106/106
f 77/77/77 106/106/106 102/102/102
f 77/77/77 102/102/102 101/101/101
f 77/77/77 101/101/101 97/97/97
f 77/77/77 97/97/97 96/96/96
f 77/77/77 96/96/96 93/93/93
f 77/77/77 93/93/93 91/91/91
f 77/77/77 91/91/91 87/87/87
f 77/77/77 87/87/87 86/86/86
f 77/77/77 86/86/86 82/82/82
f 50/50/50 48/48/48 88/88/88
f 88/88/88 90/90/90 50/50/50
f 71/71/71 67/67/67 107/107/107
f 107/107/107 110/110/110 71/71/71
f 54/54/54 51/51/51 89/89/89
f 89/89/89 94/94/94 54/54/54
f 74/74/74 70/70/70 109/109/109
f 109/109/109 114/114/114 74/74/74
f 56/56/56 53/53/53 92/92/92
f 92/92/92 95/95/95 56/56/56
f 75/75/75 73/73/73 113/113/113
f 113/113/113 115/115/115 75/75/75
f 57/57/57 56/56/56 95/95/95
f 95/95/95 98/98/98 57/57/57
f 37/37/37 40/40/40 80/80/80
f 80/80/80 79/79/79 37/37/37
f 40/40/40 75/75/75 115/115/115
f 115/115/115 80/80/80 40/40/40
f 59/59/59 57/57/57 98/98/98
f 98/98/98 99/99/99 59/59/59
f 44/44/44 39/39/39 78/78/78
f 78/78/78 84/84/84 44/44/44
f 64/64/64 60/60/60 100/100/100
f 100/100/100 104/104/104 64/64/64
f 45/45/45 43/43/43 83/83/83
f 83/83/83 85/85/85 45/45/45
f 66/66/66 63/63/63 103/103/103
f 103/103/103 105/105/105 66/66/66
f 48/48/48 45/45/45 85/85/85
f 85/85/85 88/88/88 48/48/48
f 334/334/334 143/143/143 144/144/144
f 144/144/144 337/337/337 334/334/334
f 331/331/331 142/142/142 143/143/143
f 143/143/143 334/334/334 331/331/331
f 327/327/327 141/141/141 142/142/142
f 142/142/142 331/331/331 327/327/327
f 322/322/322 138/138/138 140/140/140
f 140/140/140 326/326/326 322/322/322
f 133/133/133 136/136/136 284/284/284
f 284/284/284 150/150/150 133/133/133
f 310/310/310 127/127/127 146/146/146
f 146/146/146 456/456/456 310/310/310
f 125/125/125 128/128/128 147/147/147
f 136/136/136 139/139/139 284/284/284
f 128/128/128 130/130/130 148/148/148
f 148/148/148 147/147/147 128/128/128
f 306/306/306 124/124/124 126/126/126
f 126/126/126 309/309/309 306/306/306
f 302/302/302 122/122/122 124/124/124
f 124/124/124 306/306/306 302/302/302
f 298/298/298 121/121/121 123/123/123
f 123/123/123 301/301/301 298/298/298
f 295/295/295 120/120/120 121/121/121
f 121/121/121 298/298/298 295/295/295
f 292/292/292 119/119/119 120/120/120
f 120/120/120 295/295/295 292/292/292
f 287/287/287 118/118/118 119/119/119
f 119/119/119 292/292/292 287/287/287
f 130/130/130 133/133/133 150/150/150
f 150/150/150 148/148/148 130/130/130
f 137/137/137 323/323/323 498/498/498
f 498/498/498 286/286/286 137/137/137
f 145/145/145 153/153/153 155/155/155
f 155/155/155 269/269/269 145/145/145
f 269/269/269 155/155/155 158/158/158
f 158/158/158 271/271/271 269/269/269
f 270/270/270 159/159/159 161/161/161
f 161/161/161 272/272/272 270/270/270
f 272/272/272 161/161/161 163/163/163
f 163/163/163 273/273/273 272/272/272
f 273/273/273 163/163/163 164/164/164
f 164/164/164 274/274/274 273/273/273
f 274/274/274 164/164/164 166/166/166
f 166/166/166 276/276/276 274/274/274
f 275/275/275 168/168/168 169/169/169
f 169/169/169 277/277/277 275/275/275
f 277/277/277 169/169/169 172/172/172
f 172/172/172 278/278/278 277/277/277
f 278/278/278 172/172/172 173/173/173
f 173/173/173 279/279/279 278/278/278
f 279/279/279 173/173/173 176/176/176
f 176/176/176 281/281/281 279/279/279
f 280/280/280 177/177/177 179/179/179
f 179/179/179 282/282/282 280/280/280
f 282/282/282 179/179/179 180/180/180
f 180/180/180 283/283/283 282/282/282
f 283/283/283 180/180/180 182/182/182
f 182/182/182 285/285/285 283/283/283
f 285/285/285 182/182/182 186/186/186
f 186/186/186 152/152/152 285/285/285
f 188/188/188 185/185/185 225/225/225
f 225/225/225 227/227/227 188/188/188
f 151/151/151 184/184/184 187/187/187
f 187/187/187 149/149/149 151/151/151
f 149/149/149 187/187/187 153/153/153
f 153/153/153 145/145/145 149/149/149
f 219/219/219 216/216/216 257/257/257
f 257/257/257 259/259/259 219/219/219
f 160/160/160 157/157/157 194/194/194
f 194/194/194 196/196/196 160/160/160
f 171/171/171 170/170/170 206/206/206
f 206/206/206 209/209/209 171/171/171
f 156/156/156 154/154/154 192/192/192
f 192/192/192 191/191/191 156/156/156
f 183/183/183 181/181/181 220/220/220
f 220/220/220 223/223/223 183/183/183
f 167/167/167 165/165/165 202/202/202
f 202/202/202 205/205/205 167/167/167
f 178/178/178 175/175/175 215/215/215
f 215/215/215 217/217/217 178/178/178
f 154/154/154 188/188/188 227/227/227
f 227/227/227 192/192/192 154/154/154
f 162/162/162 160/160/160 196/196/196
f 196/196/196 199/199/199 162/162/162
f 174/174/174 171/171/171 209/209/209
f 209/209/209 211/211/211 174/174/174
f 185/185/185 183/183/183 223/223/223
f 223/223/223 225/225/225 185/185/185
f 157/157/157 156/156/156 191/191/191
f 191/191/191 194/194/194 157/157/157
f 170/170/170 167/167/167 205/205/205
f 205/205/205 206/206/206 170/170/170
f 181/181/181 178/178/178 217/217/217
f 217/217/217 220/220/220 181/181/181
f 165/165/165 162/162/162 199/199/199
f 199/199/199 202/202/202 165/165/165
f 175/175/175 174/174/174 211/211/211
f 211/211/211 215/215/215 175/175/175
f 229/229/229 232/232/232 266/266/266
f 229/229/229 266/266/266 264/264/264
f 229/229/229 264/264/264 263/263/263
f 229/229/229 263/263/263 260/260/260
f 229/229/229 260/260/260 256/256/256
f 229/229/229 256/256/256 255/255/255
f 229/229/229 255/255/255 251/251/251
f 229/229/229 251/251/251 250/250/250
f 229/229/229 250/250/250 248/248/248
f 229/229/229 248/248/248 245/245/245
f 229/229/229 245/245/245 242/242/242
f 229/229/229 242/242/242 239/239/239
f 229/229/229 239/239/239 238/238/238
f 229/229/229 238/238/238 235/235/235
f 203/203/203 200/200/200 240/240/240
f 240/240/240 241/241/241 203/203/203
f 221/221/221 219/219/219 259/259/259
f 259/259/259 262/262/262 221/221/221
f 204/204/204 201/201/201 243/243/243
f 243/243/243 244/244/244 204/204/204
f 224/224/224 222/222/222 261/261/261
f 261/261/261 265/265/265 224/224/224
f 208/208/208 204/204/204 244/244/244
f 244/244/244 246/246/246 208/208/208
f 228/228/228 224/224/224 265/265/265
f 265/265/265 268/268/268 228/228/228
f 210/210/210 207/207/207 247/247/247
f 247/247/247 249/249/249 210/210/210
f 190/190/190 193/193/193 233/233/233
f 233/233/233 231/231/231 190/190/190
f 193/193/193 226/226/226 267/267/267
f 267/267/267 233/233/233 193/193/193
f 213/213/213 210/210/210 249/249/249
f 249/249/249 252/252/252 213/213/213
f 195/195/195 189/189/189 230/230/230
f 230/230/230 234/234/234 195/195/195
f 214/214/214 212/212/212 253/253/253
f 253/253/253 254/254/254 214/214/214
f 198/198/198 195/195/195 234/234/234
f 234/234/234 237/237/237 198/198/198
f 218/218/218 214/214/214 254/254/254
f 254/254/254 258/258/258 218/218/218
f 200/200/200 197/197/197 236/236/236
f 236/236/236 240/240/240 200/200/200
f 494/494/494 283/283/283 285/285/285
f 285/285/285 497/497/497 494/494/494
f 491/491/491 282/282/282 283/283/283
f 283/283/283 494/494/494 491/491/491
f 277/277/277 278/278/278 604/604/604
f 604/604/604 605/605/605 277/277/277
f 474/474/474 274/274/274 276/276/276
f 276/276/276 477/477/477 474/474/474
f 471/471/471 273/273/273 274/274/274
f 274/274/274 474/474/474 471/471/471
f 468/468/468 272/272/272 273/273/273
f 273/273/273 471/471/471 468/468/468
f 464/464/464 270/270/270 272/272/272
f 272/272/272 468/468/468 464/464/464
f 460/460/460 269/269/269 271/271/271
f 271/271/271 463/463/463 460/460/460
f 457/457/457 145/145/145 269/269/269
f 269/269/269 460/460/460 457/457/457
f 275/275/275 277/277/277 605/605/605
f 605/605/605 478/478/478 275/275/275
f 491/491/491 607/607/607 280/280/280
f 280/280/280 282/282/282 491/491/491
f 279/279/279 281/281/281 606/606/606
f 606/606/606 608/608/608 279/279/279
f 278/278/278 279/279/279 608/608/608
f 608/608/608 604/604/604 278/278/278
f 420/420/420 422/422/422 293/293/293
f 293/293/293 290/290/290 420/420/420
f 422/422/422 423/423/423 297/297/297
f 297/297/297 293/293/293 422/422/422
f 423/423/423 424/424/424 299/299/299
f 299/299/299 297/297/297 423/423/423
f 424/424/424 425/425/425 304/304/304
f 304/304/304 299/299/299 424/424/424
f 426/426/426 427/427/427 308/308/308
f 308/308/308 303/303/303 426/426/426
f 427/427/427 430/430/430 312/312/312
f 312/312/312 308/308/308 427/427/427
f 430/430/430 431/431/431 313/313/313
f 313/313/313 312/312/312 430/430/430
f 431/431/431 434/434/434 315/315/315
f 315/315/315 313/313/313 431/431/431
f 435/435/435 436/436/436 319/319/319
f 319/319/319 316/316/316 435/435/435
f 436/436/436 439/439/439 320/320/320
f 320/320/320 319/319/319 436/436/436
f 439/439/439 440/440/440 324/324/324
f 324/324/324 320/320/320 439/439/439
f 440/440/440 443/443/443 328/328/328
f 328/328/328 324/324/324 440/440/440
f 444/444/444 445/445/445 333/333/333
f 333/333/333 329/329/329 444/444/444
f 445/445/445 446/446/446 336/336/336
f 336/336/336 333/333/333 445/445/445
f 339/339/339 378/378/378 376/376/376
f 376/376/376 335/335/335 339/339/339
f 446/446/446 447/447/447 338/338/338
f 338/338/338 336/336/336 446/446/446
f 447/447/447 421/421/421 289/289/289
f 289/289/289 338/338/338 447/447/447
f 337/337/337 288/288/288 421/421/421
f 421/421/421 447/447/447 337/337/337
f 371/371/371 411/411/411 408/408/408
f 408/408/408 368/368/368 371/371/371
f 300/300/300 349/349/349 347/347/347
f 347/347/347 296/296/296 300/300/300
f 317/317/317 361/361/361 359/359/359
f 359/359/359 314/314/314 317/317/317
f 294/294/294 341/341/341 343/343/343
f 343/343/343 291/291/291 294/294/294
f 332/332/332 374/374/374 370/370/370
f 370/370/370 330/330/330 332/332/332
f 311/311/311 356/356/356 353/353/353
f 353/353/353 307/307/307 311/311/311
f 325/325/325 369/369/369 366/366/366
f 366/366/366 321/321/321 325/325/325
f 291/291/291 343/343/343 378/378/378
f 378/378/378 339/339/339 291/291/291
f 305/305/305 350/350/350 349/349/349
f 349/349/349 300/300/300 305/305/305
f 318/318/318 364/364/364 361/361/361
f 361/361/361 317/317/317 318/318/318
f 335/335/335 376/376/376 374/374/374
f 374/374/374 332/332/332 335/335/335
f 296/296/296 347/347/347 341/341/341
f 341/341/341 294/294/294 296/296/296
f 314/314/314 359/359/359 356/356/356
f 356/356/356 311/311/311 314/314/314
f 330/330/330 370/370/370 369/369/369
f 369/369/369 325/325/325 330/330/330
f 307/307/307 353/353/353 350/350/350
f 350/350/350 305/305/305 307/307/307
f 321/321/321 366/366/366 364/364/364
f 364/364/364 318/318/318 321/321/321
f 380/380/380 385/385/385 389/389/389
f 380/380/380 389/389/389 391/391/391
f 380/380/380 391/391/391 392/392/392
f 380/380/380 392/392/392 395/395/395
f 380/380/380 395/395/395 398/398/398
f 380/380/380 398/398/398 401/401/401
f 380/380/380 401/401/401 403/403/403
f 380/380/380 403/403/403 406/406/406
f 380/380/380 406/406/406 409/409/409
f 380/380/380 409/409/409 410/410/410
f 380/380/380 410/410/410 412/412/412
f 380/380/380 412/412/412 417/417/417
f 380/380/380 417/417/417 418/418/418
f 380/380/380 418/418/418 384/384/384
f 352/352/352 393/393/393 390/390/390
f 390/390/390 351/351/351 352/352/352
f 372/372/372 413/413/413 411/411/411
f 411/411/411 371/371/371 372/372/372
f 357/357/357 397/397/397 394/394/394
f 394/394/394 354/354/354 357/357/357
f 375/375/375 415/415/415 414/414/414
f 414/414/414 373/373/373 375/375/375
f 358/358/358 399/399/399 396/396/396
f 396/396/396 355/355/355 358/358/358
f 379/379/379 419/419/419 416/416/416
f 416/416/416 377/377/377 379/379/379
f 360/360/360 400/400/400 399/399/399
f 399/399/399 358/358/358 360/360/360
f 340/340/340 381/381/381 383/383/383
f 383/383/383 344/344/344 340/340/340
f 344/344/344 383/383/383 419/419/419
f 419/419/419 379/379/379 344/344/344
f 363/363/363 402/402/402 400/400/400
f 400/400/400 360/360/360 363/363/363
f 345/345/345 386/386/386 382/382/382
f 382/382/382 342/342/342 345/345/345
f 367/367/367 405/405/405 404/404/404
f 404/404/404 362/362/362 367/367/367
f 348/348/348 388/388/388 387/387/387
f 387/387/387 346/346/346 348/348/348
f 368/368/368 408/408/408 407/407/407
f 407/407/407 365/365/365 368/368/368
f 351/351/351 390/390/390 388/388/388
f 388/388/388 348/348/348 351/351/351
f 334/334/334 337/337/337 447/447/447
f 447/447/447 446/446/446 334/334/334
f 331/331/331 334/334/334 446/446/446
f 446/446/446 445/445/445 331/331/331
f 327/327/327 331/331/331 445/445/445
f 445/445/445 444/444/444 327/327/327
f 322/322/322 326/326/326 443/443/443
f 443/443/443 440/440/440 322/322/322
f 437/437/437 455/455/455 602/602/602
f 602/602/602 438/438/438 437/437/437
f 310/310/310 456/456/456 450/450/450
f 450/450/450 428/428/428 310/310/310
f 429/429/429 449/449/449 432/432/432
f 438/438/438 602/602/602 442/442/442
f 432/432/432 449/449/449 451/451/451
f 451/451/451 433/433/433 432/432/432
f 306/306/306 309/309/309 430/430/430
f 430/430/430 427/427/427 306/306/306
f 302/302/302 306/306/306 427/427/427
f 427/427/427 426/426/426 302/302/302
f 298/298/298 301/301/301 425/425/425
f 425/425/425 424/424/424 298/298/298
f 295/295/295 298/298/298 424/424/424
f 424/424/424 423/423/423 295/295/295
f 292/292/292 295/295/295 423/423/423
f 423/423/423 422/422/422 292/292/292
f 287/287/287 292/292/292 422/422/422
f 422/422/422 420/420/420 287/287/287
f 433/433/433 451/451/451 455/455/455
f 455/455/455 437/437/437 433/433/433
f 441/441/441 603/603/603 498/498/498
f 498/498/498 323/323/323 441/441/441
f 448/448/448 586/586/586 461/461/461
f 461/461/461 459/459/459 448/448/448
f 586/586/586 588/588/588 467/467/467
f 467/467/467 461/461/461 586/586/586
f 587/587/587 589/589/589 470/470/470
f 470/470/470 465/465/465 587/587/587
f 589/589/589 590/590/590 472/472/472
f 472/472/472 470/470/470 589/589/589
f 590/590/590 591/591/591 476/476/476
f 476/476/476 472/472/472 590/590/590
f 591/591/591 593/593/593 480/480/480
f 480/480/480 476/476/476 591/591/591
f 592/592/592 594/594/594 482/482/482
f 482/482/482 479/479/479 592/592/592
f 594/594/594 595/595/595 484/484/484
f 484/484/484 482/482/482 594/594/594
f 595/595/595 596/596/596 486/486/486
f 486/486/486 484/484/484 595/595/595
f 596/596/596 597/597/597 490/490/490
f 490/490/490 486/486/486 596/596/596
f 598/598/598 599/599/599 492/492/492
f 492/492/492 489/489/489 598/598/598
f 599/599/599 600/600/600 496/496/496
f 496/496/496 492/492/492 599/599/599
f 600/600/600 601/601/601 499/499/499
f 499/499/499 496/496/496 600/600/600
f 601/601/601 453/453/453 501/501/501
f 501/501/501 499/499/499 601/601/601
f 504/504/504 543/543/543 541/541/541
f 541/541/541 503/503/503 504/504/504
f 454/454/454 452/452/452 505/505/505
f 505/505/505 502/502/502 454/454/454
f 452/452/452 448/448/448 459/459/459
f 459/459/459 505/505/505 452/452/452
f 536/536/536 576/576/576 574/574/574
f 574/574/574 535/535/535 536/536/536
f 469/469/469 513/513/513 512/512/512
f 512/512/512 466/466/466 469/469/469
f 485/485/485 527/527/527 523/523/523
f 523/523/523 483/483/483 485/485/485
f 462/462/462 507/507/507 509/509/509
f 509/509/509 458/458/458 462/462/462
f 500/500/500 540/540/540 537/537/537
f 537/537/537 495/495/495 500/500/500
f 481/481/481 522/522/522 520/520/520
f 520/520/520 475/475/475 481/481/481
f 493/493/493 533/533/533 532/532/532
f 532/532/532 488/488/488 493/493/493
f 458/458/458 509/509/509 543/543/543
f 543/543/543 504/504/504 458/458/458
f 473/473/473 517/517/517 513/513/513
f 513/513/513 469/469/469 473/473/473
f 487/487/487 528/528/528 527/527/527
f 527/527/527 485/485/485 487/487/487
f 503/503/503 541/541/541 540/540/540
f 540/540/540 500/500/500 503/503/503
f 466/466/466 512/512/512 507/507/507
f 507/507/507 462/462/462 466/466/466
f 483/483/483 523/523/523 522/522/522
f 522/522/522 481/481/481 483/483/483
f 495/495/495 537/537/537 533/533/533
f 533/533/533 493/493/493 495/495/495
f 475/475/475 520/520/520 517/517/517
f 517/517/517 473/473/473 475/475/475
f 488/488/488 532/532/532 528/528/528
f 528/528/528 487/487/487 488/488/488
f 548/548/548 551/551/551 554/554/554
f 548/548/548 554/554/554 557/557/557
f 548/548/548 557/557/557 559/559/559
f 548/548/548 559/559/559 562/562/562
f 548/548/548 562/562/562 563/563/563
f 548/548/548 563/563/563 566/566/566
f 548/548/548 566/566/566 570/570/570
f 548/548/548 570/570/570 572/572/572
f 548/548/548 572/572/572 573/573/573
f 548/548/548 573/573/573 577/577/577
f 548/548/548 577/577/577 579/579/579
f 548/548/548 579/579/579 581/581/581
f 548/548/548 581/581/581 583/583/583
f 548/548/548 583/583/583 550/550/550
f 518/518/518 558/558/558 556/556/556
f 556/556/556 516/516/516 518/518/518
f 538/538/538 578/578/578 576/576/576
f 576/576/576 536/536/536 538/538/538
f 521/521/521 561/561/561 560/560/560
f 560/560/560 519/519/519 521/521/521
f 542/542/542 582/582/582 580/580/580
f 580/580/580 539/539/539 542/542/542
f 524/524/524 564/564/564 561/561/561
f 561/561/561 521/521/521 524/524/524
f 544/544/544 585/585/585 582/582/582
f 582/582/582 542/542/542 544/544/544
f 526/526/526 567/567/567 565/565/565
f 565/565/565 525/525/525 526/526/526
f 506/506/506 547/547/547 549/549/549
f 549/549/549 510/510/510 506/506/506
f 510/510/510 549/549/549 584/584/584
f 584/584/584 545/545/545 510/510/510
f 530/530/530 568/568/568 567/567/567
f 567/567/567 526/526/526 530/530/530
f 511/511/511 552/552/552 546/546/546
f 546/546/546 508/508/508 511/511/511
f 531/531/531 571/571/571 569/569/569
f 569/569/569 529/529/529 531/531/531
f 515/515/515 555/555/555 552/552/552
f 552/552/552 511/511/511 515/515/515
f 534/534/534 575/575/575 571/571/571
f 571/571/571 531/531/531 534/534/534
f 516/516/516 556/556/556 553/553/553
f 553/553/553 514/514/514 516/516/516
f 494/494/494 497/497/497 601/601/601
f 601/601/601 600/600/600 494/494/494
f 491/491/491 494/494/494 600/600/600
f 600/600/600 599/599/599 491/491/491
f 594/594/594 605/605/605 604/604/604
f 604/604/604 595/595/595 594/594/594
f 474/474/474 477/477/477 593/593/593
f 593/593/593 591/591/591 474/474/474
f 471/471/471 474/474/474 591/591/591
f 591/591/591 590/590/590 471/471/471
f 468/468/468 471/471/471 590/590/590
f 590/590/590 589/589/589 468/468/468
f 464/464/464 468/468/468 589/589/589
f 589/589/589 587/587/587 464/464/464
f 460/460/460 463/463/463 588/588/588
f 588/588/588 586/586/586 460/460/460
f 457/457/457 460/460/460 586/586/586
f 586/586/586 448/448/448 457/457/457
f 592/592/592 478/478/478 605/605/605
f 605/605/605 594/594/594 592/592/592
f 491/491/491 599/599/599 598/598/598
f 598/598/598 607/607/607 491/491/491
f 596/596/596 608/608/608 606/606/606
f 606/606/606 597/597/597 596/596/596
f 595/595/595 604/604/604 608/608/608
f 608/608/608 596/596/596 595/595/595

