mtllib material.mtl
usemtl Leg.FL_MAT
v -0.14853700 0.13852900 0.21911000
v -0.14853700 0.13852900 0.21911000
v -0.14853700 0.13852900 0.21911000
v -0.13903900 0.12902700 0.23768700
v -0.13903900 0.12902700 0.23768700
v -0.13903900 0.12902700 0.23768700
v -0.11903900 0.10902500 0.18893600
v -0.11903900 0.10902500 0.18893600
v -0.11903900 0.10902500 0.18893600
v -0.10954000 0.09952300 0.20751300
v -0.10954000 0.09952300 0.20751300
v -0.10954000 0.09952300 0.20751300
v -0.11571100 0.10804000 0.17349800
v -0.11571100 0.10804000 0.17349800
v -0.11571100 0.10804000 0.17349800
v -0.10686100 0.09846900 0.19237200
v -0.10686100 0.09846900 0.19237200
v -0.10686100 0.09846900 0.19237200
v -0.08632800 0.07865100 0.14344100
v -0.08632800 0.07865100 0.14344100
v -0.08632800 0.07865100 0.14344100
v -0.07689700 0.06850000 0.16172200
v -0.07689700 0.06850000 0.16172200
v -0.07689700 0.06850000 0.16172200
v -0.07773800 0.06771800 0.14346400
v -0.07773800 0.06771800 0.14346400
v -0.07773800 0.06771800 0.14346400
v -0.06824000 0.05821500 0.16204100
v -0.06824000 0.05821500 0.16204100
v -0.06824000 0.05821500 0.16204100
v -0.06686800 0.05684600 0.13234400
v -0.06686800 0.05684600 0.13234400
v -0.05737000 0.04734300 0.15092100
v -0.05737000 0.04734300 0.15092100
v -0.11783000 0.10781800 0.17446800
v -0.11783000 0.10781800 0.17446800
v -0.11783000 0.10781800 0.17446800
v -0.08655000 0.07653200 0.14247100
v -0.08655000 0.07653200 0.14247100
v -0.08655000 0.07653200 0.14247100
v -0.11246200 0.10947200 0.16572400
v -0.11246200 0.10947200 0.16572400
v -0.11246200 0.10947200 0.16572400
v -0.11337000 0.11038000 0.17349800
v -0.11337000 0.11038000 0.17349800
v -0.11337000 0.11038000 0.17349800
v -0.08398700 0.08099100 0.14344100
v -0.08398700 0.08099100 0.14344100
v -0.08398700 0.08099100 0.14344100
v -0.09016800 0.08717400 0.14277100
v -0.09016800 0.08717400 0.14277100
v -0.09016800 0.08717400 0.14277100
v -0.11480300 0.10713200 0.16572400
v -0.11480300 0.10713200 0.16572400
v -0.11480300 0.10713200 0.16572400
v -0.09250900 0.08483400 0.14277100
v -0.09250900 0.08483400 0.14277100
v -0.09250900 0.08483400 0.14277100
v -0.09857700 0.09558500 0.15137300
v -0.09857700 0.09558500 0.15137300
v -0.09857700 0.09558500 0.15137300
v -0.10091800 0.09324500 0.15137200
v -0.10091800 0.09324500 0.15137200
v -0.10091800 0.09324500 0.15137200
v -0.09963000 0.09663900 0.13975800
v -0.09963000 0.09663900 0.13975800
v -0.09963000 0.09663900 0.13975800
v -0.09395300 0.09096100 0.13536800
v -0.09395300 0.09096100 0.13536800
v -0.09395300 0.09096100 0.13536800
v -0.10197100 0.09429800 0.13975800
v -0.10197100 0.09429800 0.13975800
v -0.10197100 0.09429800 0.13975800
v -0.09629400 0.08862100 0.13536700
v -0.09629400 0.08862100 0.13536700
v -0.09629400 0.08862100 0.13536700
v -0.10833200 0.09831500 0.19304500
v -0.10833200 0.09831500 0.19304500
v -0.10833200 0.09831500 0.19304500
v -0.10380400 0.10152500 0.19237200
v -0.10380400 0.10152500 0.19237200
v -0.10380400 0.10152500 0.19237200
v -0.07705200 0.06703000 0.16104800
v -0.07705200 0.06703000 0.16104800
v -0.07705200 0.06703000 0.16104800
v -0.07384100 0.07155600 0.16172200
v -0.07384100 0.07155600 0.16172200
v -0.07384100 0.07155600 0.16172200
v -0.07492100 0.07145100 0.16679200
v -0.07492100 0.07145100 0.16679200
v -0.07492100 0.07145100 0.16679200
v -0.10084000 0.09737400 0.19330400
v -0.10084000 0.09737400 0.19330400
v -0.10084000 0.09737400 0.19330400
v -0.10271100 0.09550400 0.19330400
v -0.10271100 0.09550400 0.19330400
v -0.10271100 0.09550400 0.19330400
v -0.07679200 0.06958100 0.16679200
v -0.07679200 0.06958100 0.16679200
v -0.07679200 0.06958100 0.16679200
v -0.14385500 0.14321000 0.21911100
v -0.14385500 0.14321000 0.21911100
v -0.13435700 0.13370700 0.23768800
v -0.13435700 0.13370700 0.23768800
v -0.11435700 0.11370600 0.18893700
v -0.11435700 0.11370600 0.18893700
v -0.10485800 0.10420300 0.20751400
v -0.10485800 0.10420300 0.20751400
v -0.13917300 0.14789100 0.21911100
v -0.13917300 0.14789100 0.21911100
v -0.13917300 0.14789100 0.21911100
v -0.12967500 0.13838800 0.23768800
v -0.12967500 0.13838800 0.23768800
v -0.12967500 0.13838800 0.23768800
v -0.10967500 0.11838700 0.18893700
v -0.10967500 0.11838700 0.18893700
v -0.10967500 0.11838700 0.18893700
v -0.10017700 0.10888400 0.20751400
v -0.10017700 0.10888400 0.20751400
v -0.10017700 0.10888400 0.20751400
v -0.10365000 0.10299600 0.19304500
v -0.10365000 0.10299600 0.19304500
v -0.11314800 0.11249900 0.17446800
v -0.11314800 0.11249900 0.17446800
v -0.10868900 0.11506100 0.17349900
v -0.10868900 0.11506100 0.17349900
v -0.10868900 0.11506100 0.17349900
v -0.09912200 0.10620600 0.19237200
v -0.09912200 0.10620600 0.19237200
v -0.09912200 0.10620600 0.19237200
v -0.07237000 0.07171000 0.16104900
v -0.07237000 0.07171000 0.16104900
v -0.08186800 0.08121300 0.14247200
v -0.08186800 0.08121300 0.14247200
v -0.07930500 0.08567200 0.14344200
v -0.07930500 0.08567200 0.14344200
v -0.07930500 0.08567200 0.14344200
v -0.06915900 0.07623700 0.16172200
v -0.06915900 0.07623700 0.16172200
v -0.06915900 0.07623700 0.16172200
v -0.06355800 0.06289600 0.16204100
v -0.06355800 0.06289600 0.16204100
v -0.07305600 0.07239800 0.14346400
v -0.07305600 0.07239800 0.14346400
v -0.06837400 0.07707900 0.14346500
v -0.06837400 0.07707900 0.14346500
v -0.06837400 0.07707900 0.14346500
v -0.05887600 0.06757600 0.16204200
v -0.05887600 0.06757600 0.16204200
v -0.05887600 0.06757600 0.16204200
v -0.05268800 0.05202300 0.15092200
v -0.06218600 0.06152600 0.13234500
v -0.05750400 0.06620700 0.13234500
v -0.05750400 0.06620700 0.13234500
v -0.04800600 0.05670400 0.15092200
v -0.04800600 0.05670400 0.15092200
v -0.10846600 0.11717900 0.17446800
v -0.10846600 0.11717900 0.17446800
v -0.10846600 0.11717900 0.17446800
v -0.07718600 0.08589300 0.14247200
v -0.07718600 0.08589300 0.14247200
v -0.07718600 0.08589300 0.14247200
v -0.11012100 0.11181200 0.16572400
v -0.11012100 0.11181200 0.16572400
v -0.11012100 0.11181200 0.16572400
v -0.11103000 0.11272000 0.17349800
v -0.11103000 0.11272000 0.17349800
v -0.11103000 0.11272000 0.17349800
v -0.08164600 0.08333100 0.14344200
v -0.08164600 0.08333100 0.14344200
v -0.08164600 0.08333100 0.14344200
v -0.08782700 0.08951400 0.14277100
v -0.08782700 0.08951400 0.14277100
v -0.08782700 0.08951400 0.14277100
v -0.10778000 0.11415200 0.16572400
v -0.10778000 0.11415200 0.16572400
v -0.10778000 0.11415200 0.16572400
v -0.08548600 0.09185500 0.14277100
v -0.08548600 0.09185500 0.14277100
v -0.08548600 0.09185500 0.14277100
v -0.09623700 0.09792500 0.15137300
v -0.09623700 0.09792500 0.15137300
v -0.09623700 0.09792500 0.15137300
v -0.09389600 0.10026600 0.15137300
v -0.09389600 0.10026600 0.15137300
v -0.09389600 0.10026600 0.15137300
v -0.09728900 0.09897900 0.13975800
v -0.09728900 0.09897900 0.13975800
v -0.09728900 0.09897900 0.13975800
v -0.09161200 0.09330100 0.13536800
v -0.09161200 0.09330100 0.13536800
v -0.09161200 0.09330100 0.13536800
v -0.09494800 0.10131900 0.13975800
v -0.09494800 0.10131900 0.13975800
v -0.09494800 0.10131900 0.13975800
v -0.08927100 0.09564200 0.13536800
v -0.08927100 0.09564200 0.13536800
v -0.08927100 0.09564200 0.13536800
v -0.09896800 0.10767600 0.19304600
v -0.09896800 0.10767600 0.19304600
v -0.09896800 0.10767600 0.19304600
v -0.10217900 0.10315000 0.19237200
v -0.10217900 0.10315000 0.19237200
v -0.10217900 0.10315000 0.19237200
v -0.06768800 0.07639100 0.16104900
v -0.06768800 0.07639100 0.16104900
v -0.06768800 0.07639100 0.16104900
v -0.07221600 0.07318100 0.16172200
v -0.07221600 0.07318100 0.16172200
v -0.07221600 0.07318100 0.16172200
v -0.07211100 0.07426100 0.16679300
v -0.07211100 0.07426100 0.16679300
v -0.07211100 0.07426100 0.16679300
v -0.09802900 0.10018400 0.19330500
v -0.09802900 0.10018400 0.19330500
v -0.09802900 0.10018400 0.19330500
v -0.09615800 0.10205500 0.19330500
v -0.09615800 0.10205500 0.19330500
v -0.09615800 0.10205500 0.19330500
v -0.07024000 0.07613200 0.16679300
v -0.07024000 0.07613200 0.16679300
v -0.07024000 0.07613200 0.16679300
vn -0.70720000 -0.70700000 -0.00010000
vn -0.57290000 0.57300000 0.58600000
vn -0.41430000 0.41450000 -0.81030000
vn -0.70720000 -0.70700000 -0.00010000
vn -0.57290000 0.57300000 0.58600000
vn 0.41430000 -0.41450000 0.81030000
vn -0.70720000 -0.70700000 -0.00010000
vn -0.41430000 0.41450000 -0.81030000
vn -0.70210000 0.70230000 -0.11730000
vn 0.41430000 -0.41450000 0.81030000
vn -0.70720000 -0.70700000 -0.00010000
vn 0.70210000 -0.70230000 0.11730000
vn -0.41430000 0.41450000 -0.81030000
vn -0.70720000 -0.70700000 -0.00010000
vn -0.69750000 0.69780000 -0.16300000
vn 0.41430000 -0.41450000 0.81030000
vn -0.12890000 0.12880000 0.98330000
vn -0.59830000 -0.78110000 0.17880000
vn -0.41430000 0.41450000 -0.81030000
vn -0.70720000 -0.70700000 -0.00010000
vn 0.05410000 -0.05400000 -0.99710000
vn 0.70050000 -0.70080000 0.13480000
vn -0.59830000 -0.78110000 0.17880000
vn 0.41430000 -0.41450000 0.81030000
vn -0.41430000 0.41450000 -0.81030000
vn -0.70720000 -0.70700000 -0.00010000
vn 0.05620000 -0.05610000 -0.99680000
vn 0.41430000 -0.41450000 0.81030000
vn -0.05620000 0.05610000 0.99680000
vn -0.70720000 -0.70700000 -0.00010000
vn -0.70720000 -0.70700000 -0.00010000
vn -0.41430000 0.41450000 -0.81030000
vn -0.70720000 -0.70700000 -0.00010000
vn 0.41430000 -0.41450000 0.81030000
vn -0.41430000 0.41450000 -0.81030000
vn -0.70720000 -0.70700000 -0.00010000
vn -0.70210000 0.70230000 -0.11730000
vn -0.70720000 -0.70700000 -0.00010000
vn 0.05620000 -0.05610000 -0.99680000
vn -0.41430000 0.41450000 -0.81030000
vn -0.41710000 0.41730000 -0.80740000
vn -0.69750000 0.69780000 -0.16300000
vn 0.70720000 0.70700000 0.00010000
vn -0.41430000 0.41450000 -0.81030000
vn 0.70720000 0.70700000 0.00010000
vn -0.69750000 0.69780000 -0.16300000
vn -0.41430000 0.41450000 -0.81030000
vn 0.70720000 0.70700000 0.00010000
vn 0.05410000 -0.05400000 -0.99710000
vn 0.05410000 -0.05400000 -0.99710000
vn 0.57290000 -0.57300000 -0.58600000
vn 0.70720000 0.70700000 0.00010000
vn -0.70720000 -0.70700000 -0.00010000
vn -0.41710000 0.41730000 -0.80740000
vn -0.69750000 0.69780000 -0.16300000
vn 0.05410000 -0.05400000 -0.99710000
vn 0.57290000 -0.57300000 -0.58600000
vn -0.70720000 -0.70700000 -0.00010000
vn 0.70720000 0.70700000 0.00010000
vn -0.70130000 0.70150000 0.12720000
vn -0.41710000 0.41730000 -0.80740000
vn -0.41710000 0.41730000 -0.80740000
vn -0.70130000 0.70150000 0.12720000
vn -0.70720000 -0.70700000 -0.00010000
vn 0.70720000 0.70700000 0.00010000
vn -0.70130000 0.70150000 0.12720000
vn -0.33920000 0.33940000 -0.87740000
vn -0.33920000 0.33940000 -0.87740000
vn 0.57290000 -0.57300000 -0.58600000
vn 0.70720000 0.70700000 0.00010000
vn -0.70130000 0.70150000 0.12720000
vn -0.33920000 0.33940000 -0.87740000
vn -0.70720000 -0.70700000 -0.00010000
vn 0.57290000 -0.57300000 -0.58600000
vn -0.33920000 0.33940000 -0.87740000
vn -0.70720000 -0.70700000 -0.00010000
vn 0.70210000 -0.70230000 0.11730000
vn -0.70720000 -0.70700000 -0.00010000
vn 0.41430000 -0.41450000 0.81030000
vn -0.12890000 0.12880000 0.98330000
vn 0.78120000 0.59810000 0.17900000
vn 0.41430000 -0.41450000 0.81030000
vn -0.05620000 0.05610000 0.99680000
vn 0.41430000 -0.41450000 0.81030000
vn -0.70720000 -0.70700000 -0.00010000
vn 0.78120000 0.59810000 0.17900000
vn 0.70050000 -0.70080000 0.13480000
vn 0.41430000 -0.41450000 0.81030000
vn 0.41430000 -0.41450000 0.81030000
vn 0.78120000 0.59810000 0.17900000
vn 0.70050000 -0.70080000 0.13480000
vn 0.41430000 -0.41450000 0.81030000
vn -0.12890000 0.12880000 0.98330000
vn 0.78120000 0.59810000 0.17900000
vn 0.41430000 -0.41450000 0.81030000
vn -0.12890000 0.12880000 0.98330000
vn -0.59830000 -0.78110000 0.17880000
vn -0.59830000 -0.78110000 0.17880000
vn 0.70050000 -0.70080000 0.13480000
vn 0.41430000 -0.41450000 0.81030000
vn -0.41430000 0.41450000 -0.81030000
vn -0.57290000 0.57300000 0.58600000
vn -0.57290000 0.57300000 0.58600000
vn 0.41430000 -0.41450000 0.81030000
vn -0.70210000 0.70230000 -0.11730000
vn -0.41430000 0.41450000 -0.81030000
vn 0.70210000 -0.70230000 0.11730000
vn 0.41430000 -0.41450000 0.81030000
vn 0.70720000 0.70700000 0.00010000
vn -0.41430000 0.41450000 -0.81030000
vn -0.57290000 0.57300000 0.58600000
vn 0.41430000 -0.41450000 0.81030000
vn 0.70720000 0.70700000 0.00010000
vn -0.57290000 0.57300000 0.58600000
vn -0.70210000 0.70230000 -0.11730000
vn 0.70720000 0.70700000 0.00010000
vn -0.41430000 0.41450000 -0.81030000
vn 0.70720000 0.70700000 0.00010000
vn 0.70210000 -0.70230000 0.11730000
vn 0.41430000 -0.41450000 0.81030000
vn 0.41430000 -0.41450000 0.81030000
vn 0.70210000 -0.70230000 0.11730000
vn -0.41430000 0.41450000 -0.81030000
vn -0.70210000 0.70230000 -0.11730000
vn 0.70720000 0.70700000 0.00010000
vn -0.41430000 0.41450000 -0.81030000
vn -0.69750000 0.69780000 -0.16300000
vn 0.41430000 -0.41450000 0.81030000
vn 0.78120000 0.59810000 0.17900000
vn -0.12890000 0.12880000 0.98330000
vn -0.05620000 0.05610000 0.99680000
vn 0.41430000 -0.41450000 0.81030000
vn -0.41430000 0.41450000 -0.81030000
vn 0.05620000 -0.05610000 -0.99680000
vn 0.70720000 0.70700000 0.00010000
vn -0.41430000 0.41450000 -0.81030000
vn 0.05410000 -0.05400000 -0.99710000
vn 0.41430000 -0.41450000 0.81030000
vn 0.78120000 0.59810000 0.17900000
vn 0.70050000 -0.70080000 0.13480000
vn 0.41430000 -0.41450000 0.81030000
vn -0.05620000 0.05610000 0.99680000
vn 0.05620000 -0.05610000 -0.99680000
vn -0.41430000 0.41450000 -0.81030000
vn -0.41430000 0.41450000 -0.81030000
vn 0.05620000 -0.05610000 -0.99680000
vn 0.70720000 0.70700000 0.00010000
vn 0.70720000 0.70700000 0.00010000
vn -0.05620000 0.05610000 0.99680000
vn 0.41430000 -0.41450000 0.81030000
vn 0.41430000 -0.41450000 0.81030000
vn -0.41430000 0.41450000 -0.81030000
vn 0.70720000 0.70700000 0.00010000
vn -0.41430000 0.41450000 -0.81030000
vn 0.41430000 -0.41450000 0.81030000
vn 0.70720000 0.70700000 0.00010000
vn -0.70210000 0.70230000 -0.11730000
vn -0.41430000 0.41450000 -0.81030000
vn 0.70720000 0.70700000 0.00010000
vn -0.41430000 0.41450000 -0.81030000
vn 0.70720000 0.70700000 0.00010000
vn 0.05620000 -0.05610000 -0.99680000
vn -0.69750000 0.69780000 -0.16300000
vn -0.41710000 0.41730000 -0.80740000
vn -0.70720000 -0.70700000 -0.00010000
vn -0.70720000 -0.70700000 -0.00010000
vn -0.41430000 0.41450000 -0.81030000
vn -0.69750000 0.69780000 -0.16300000
vn 0.05410000 -0.05400000 -0.99710000
vn -0.41430000 0.41450000 -0.81030000
vn -0.70720000 -0.70700000 -0.00010000
vn -0.70720000 -0.70700000 -0.00010000
vn 0.05410000 -0.05400000 -0.99710000
vn 0.57290000 -0.57300000 -0.58600000
vn 0.70720000 0.70700000 0.00010000
vn -0.41710000 0.41730000 -0.80740000
vn -0.69750000 0.69780000 -0.16300000
vn 0.05410000 -0.05400000 -0.99710000
vn 0.70720000 0.70700000 0.00010000
vn 0.57290000 -0.57300000 -0.58600000
vn -0.70720000 -0.70700000 -0.00010000
vn -0.70130000 0.70150000 0.12720000
vn -0.41710000 0.41730000 -0.80740000
vn -0.41710000 0.41730000 -0.80740000
vn -0.70130000 0.70150000 0.12720000
vn 0.70720000 0.70700000 0.00010000
vn -0.33920000 0.33940000 -0.87740000
vn -0.70130000 0.70150000 0.12720000
vn -0.70720000 -0.70700000 -0.00010000
vn 0.57290000 -0.57300000 -0.58600000
vn -0.70720000 -0.70700000 -0.00010000
vn -0.33920000 0.33940000 -0.87740000
vn 0.70720000 0.70700000 0.00010000
vn -0.70130000 0.70150000 0.12720000
vn -0.33920000 0.33940000 -0.87740000
vn 0.57290000 -0.57300000 -0.58600000
vn -0.33920000 0.33940000 -0.87740000
vn 0.70720000 0.70700000 0.00010000
vn 0.70720000 0.70700000 0.00010000
vn 0.70210000 -0.70230000 0.11730000
vn 0.41430000 -0.41450000 0.81030000
vn -0.12890000 0.12880000 0.98330000
vn -0.59830000 -0.78110000 0.17880000
vn 0.41430000 -0.41450000 0.81030000
vn 0.41430000 -0.41450000 0.81030000
vn -0.05620000 0.05610000 0.99680000
vn 0.70720000 0.70700000 0.00010000
vn -0.59830000 -0.78110000 0.17880000
vn 0.41430000 -0.41450000 0.81030000
vn 0.70050000 -0.70080000 0.13480000
vn 0.70050000 -0.70080000 0.13480000
vn 0.41430000 -0.41450000 0.81030000
vn -0.59830000 -0.78110000 0.17880000
vn -0.12890000 0.12880000 0.98330000
vn 0.41430000 -0.41450000 0.81030000
vn -0.59830000 -0.78110000 0.17880000
vn -0.12890000 0.12880000 0.98330000
vn 0.41430000 -0.41450000 0.81030000
vn 0.78120000 0.59810000 0.17900000
vn 0.41430000 -0.41450000 0.81030000
vn 0.78120000 0.59810000 0.17900000
vn 0.70050000 -0.70080000 0.13480000
vt 0.58705200 0.15097000
vt 0.93934800 0.38543400
vt 0.42640400 0.86744600
vt 0.60950000 0.15159700
vt 0.93934800 0.36710000
vt 0.88750800 0.05053800
vt 0.58847000 0.10066400
vt 0.42640400 0.90820900
vt 0.06063600 0.95119500
vt 0.88750800 0.00977500
vt 0.61091800 0.10129100
vt 0.76475300 0.40463800
vt 0.80407900 0.17056600
vt 0.84896400 0.33091800
vt 0.96845400 0.05228400
vt 0.81686700 0.74198200
vt 0.81686700 0.74198200
vt 0.90467300 0.41121300
vt 0.80407900 0.21117000
vt 0.84896400 0.28078800
vt 0.80407900 0.21117000
vt 0.46466700 0.97934200
vt 0.90467300 0.46233200
vt 0.81686700 0.78338800
vt 0.80245800 0.22466300
vt 0.58794700 0.02831300
vt 0.80245800 0.22466300
vt 0.81799300 0.79648100
vt 0.81799300 0.79648100
vt 0.61039500 0.02894000
vt 0.58847000 0.00977500
vt 0.80245800 0.23968500
vt 0.61091800 0.01040200
vt 0.81799300 0.81150200
vt 0.80245800 0.16925500
vt 0.57824200 0.09073300
vt 0.06063600 0.93707600
vt 0.57974600 0.03738900
vt 0.80245800 0.21248000
vt 0.80245800 0.21248000
vt 0.96155000 0.45543000
vt 0.97169700 0.05986600
vt 0.83545100 0.41668300
vt 0.80732100 0.17056600
vt 0.84088300 0.41121300
vt 0.97169700 0.05228500
vt 0.80732100 0.21117000
vt 0.84088300 0.46134400
vt 0.80732100 0.21117000
vt 0.80732100 0.20262300
vt 0.97774100 0.85892700
vt 0.83533200 0.45480300
vt 0.84353100 0.32544900
vt 0.95830800 0.45543000
vt 0.96845400 0.05986500
vt 0.80407900 0.20262300
vt 0.97449900 0.85892100
vt 0.84341300 0.28732900
vt 0.83533200 0.44045600
vt 0.95737000 0.64283500
vt 0.96155000 0.47461600
vt 0.95830800 0.47461600
vt 0.96061200 0.64283400
vt 0.84341300 0.30167600
vt 0.82525900 0.44592900
vt 0.95737000 0.63146300
vt 0.95363000 0.95858800
vt 0.95363000 0.96643300
vt 0.97774100 0.85176800
vt 0.82638300 0.45480300
vt 0.96061200 0.63146200
vt 0.95038700 0.95858800
vt 0.83333900 0.29620300
vt 0.97449900 0.85176300
vt 0.95038700 0.96643300
vt 0.83446300 0.28733000
vt 0.76475300 0.41880300
vt 0.60069100 0.09136100
vt 0.81799300 0.74107300
vt 0.81263300 0.74198200
vt 0.39841100 0.65202700
vt 0.81263300 0.74198200
vt 0.81799300 0.78429700
vt 0.81799300 0.78429700
vt 0.60219400 0.03801700
vt 0.39841100 0.60090600
vt 0.46043200 0.97934200
vt 0.81263300 0.78338800
vt 0.81345400 0.78271700
vt 0.39477200 0.60436200
vt 0.46125500 0.97437700
vt 0.81345400 0.74690100
vt 0.81345400 0.74690100
vt 0.39477200 0.64858200
vt 0.81604600 0.74690100
vt 0.81604600 0.74690100
vt 0.90103600 0.41465600
vt 0.90103600 0.45887400
vt 0.46384700 0.97437700
vt 0.81604600 0.78271700
vt 0.43288900 0.86744600
vt 0.94583300 0.38542400
vt 0.94583300 0.36708900
vt 0.89399300 0.05053800
vt 0.05415100 0.95119300
vt 0.43288900 0.90820900
vt 0.75826800 0.40464000
vt 0.89399300 0.00977500
vt 0.01860500 0.43910600
vt 0.43937400 0.86744600
vt 0.95231800 0.38541400
vt 0.90047800 0.05053800
vt 0.04105300 0.43847800
vt 0.95231800 0.36707900
vt 0.04766600 0.95119100
vt 0.02002300 0.48941300
vt 0.43937400 0.90820900
vt 0.04247100 0.48878500
vt 0.75178300 0.40464100
vt 0.90047800 0.00977500
vt 0.81150800 0.74107300
vt 0.75826800 0.41880500
vt 0.80894300 0.16925500
vt 0.05415100 0.93707500
vt 0.18136200 0.78957600
vt 0.81380600 0.17056600
vt 0.31136400 0.97035700
vt 0.80614800 0.74198200
vt 0.53122300 0.65465700
vt 0.80614800 0.74198200
vt 0.81150800 0.78429700
vt 0.81150800 0.78429700
vt 0.80894300 0.21248000
vt 0.80894300 0.21248000
vt 0.18136200 0.83970800
vt 0.81380600 0.21117000
vt 0.81380600 0.21117000
vt 0.80614800 0.78338800
vt 0.53122300 0.60353600
vt 0.80222700 0.97844100
vt 0.81150800 0.79648100
vt 0.81150800 0.79648100
vt 0.80894300 0.22466300
vt 0.80894300 0.22466300
vt 0.81542800 0.22466300
vt 0.81542800 0.22466300
vt 0.01950000 0.56176600
vt 0.04194800 0.56113800
vt 0.80502200 0.79648100
vt 0.80502200 0.79648100
vt 0.81150800 0.81150200
vt 0.80894300 0.23968500
vt 0.02002300 0.58030500
vt 0.81542800 0.23968500
vt 0.80502200 0.81150200
vt 0.04247100 0.57967700
vt 0.04766600 0.93707300
vt 0.81542800 0.16925500
vt 0.00979600 0.49934400
vt 0.81542800 0.21248000
vt 0.01129900 0.55268900
vt 0.81542800 0.21248000
vt 0.31460700 0.96277700
vt 0.95830800 0.41121300
vt 0.05520300 0.84138500
vt 0.06063600 0.84685500
vt 0.81056400 0.17056600
vt 0.31460700 0.97035800
vt 0.81056400 0.21117000
vt 0.81056400 0.21117000
vt 0.06063600 0.79672500
vt 0.05508500 0.80326600
vt 0.81056400 0.20262300
vt 0.39868700 0.97543800
vt 0.17593000 0.79504700
vt 0.96155000 0.41121300
vt 0.31136400 0.96277500
vt 0.81380600 0.20262300
vt 0.17581100 0.83316700
vt 0.40193000 0.97544300
vt 0.05508500 0.81761200
vt 0.93777800 0.64283400
vt 0.95830800 0.43039900
vt 0.96155000 0.43039900
vt 0.93453600 0.64283500
vt 0.17581100 0.81882000
vt 0.27942200 0.95814400
vt 0.93777800 0.63146200
vt 0.04501100 0.81214000
vt 0.39868700 0.96828000
vt 0.04613500 0.80326700
vt 0.27942200 0.96598900
vt 0.16573800 0.82429300
vt 0.93453600 0.63146300
vt 0.28266500 0.95814400
vt 0.40193000 0.96828500
vt 0.28266500 0.96598900
vt 0.16686200 0.83316600
vt 0.03224400 0.49871600
vt 0.75178300 0.41880600
vt 0.80502200 0.74107300
vt 0.81038200 0.74198200
vt 0.90305400 0.08035700
vt 0.81038200 0.74198200
vt 0.80502200 0.78429700
vt 0.80502200 0.78429700
vt 0.03374700 0.55206100
vt 0.90305400 0.13147600
vt 0.81038200 0.78338800
vt 0.80646200 0.97844100
vt 0.80564200 0.97347500
vt 0.80956100 0.78271700
vt 0.89941700 0.12801800
vt 0.80956100 0.74690100
vt 0.80956100 0.74690100
vt 0.89941700 0.08379900
vt 0.80696900 0.74690100
vt 0.80696900 0.74690100
vt 0.52758500 0.65121200
vt 0.80696900 0.78271700
vt 0.52758500 0.60699200
vt 0.80305000 0.97347500
f 18/18/18 23/23/23 98/98/98
f 98/98/98 97/97/97 18/18/18
f 107/107/107 12/12/12 77/77/77
f 77/77/77 122/122/122 107/107/107
f 7/7/7 11/11/11 4/4/4
f 4/4/4 1/1/1 7/7/7
f 2/2/2 5/5/5 103/103/103
f 103/103/103 102/102/102 2/2/2
f 106/106/106 8/8/8 3/3/3
f 3/3/3 101/101/101 106/106/106
f 10/10/10 108/108/108 104/104/104
f 104/104/104 6/6/6 10/10/10
f 11/11/11 7/7/7 36/36/36
f 36/36/36 78/78/78 11/11/11
f 9/9/9 105/105/105 124/124/124
f 124/124/124 37/37/37 9/9/9
f 131/131/131 83/83/83 29/29/29
f 29/29/29 142/142/142 131/131/131
f 78/78/78 36/36/36 38/38/38
f 38/38/38 85/85/85 78/78/78
f 45/45/45 48/48/48 52/52/52
f 45/45/45 52/52/52 59/59/59
f 45/45/45 59/59/59 43/43/43
f 25/25/25 144/144/144 152/152/152
f 152/152/152 32/32/32 25/25/25
f 85/85/85 38/38/38 26/26/26
f 26/26/26 30/30/30 85/85/85
f 39/39/39 134/134/134 143/143/143
f 143/143/143 27/27/27 39/39/39
f 141/141/141 28/28/28 34/34/34
f 34/34/34 151/151/151 141/141/141
f 30/30/30 26/26/26 31/31/31
f 31/31/31 33/33/33 30/30/30
f 13/13/13 19/19/19 40/40/40
f 40/40/40 35/35/35 13/13/13
f 44/44/44 13/13/13 35/35/35
f 35/35/35 123/123/123 44/44/44
f 19/19/19 47/47/47 133/133/133
f 133/133/133 40/40/40 19/19/19
f 47/47/47 44/44/44 123/123/123
f 123/123/123 133/133/133 47/47/47
f 58/58/58 64/64/64 73/73/73
f 73/73/73 76/76/76 58/58/58
f 15/15/15 46/46/46 42/42/42
f 42/42/42 55/55/55 15/15/15
f 49/49/49 21/21/21 56/56/56
f 56/56/56 50/50/50 49/49/49
f 20/20/20 14/14/14 53/53/53
f 20/20/20 53/53/53 64/64/64
f 20/20/20 64/64/64 58/58/58
f 54/54/54 41/41/41 61/61/61
f 61/61/61 62/62/62 54/54/54
f 72/72/72 67/67/67 68/68/68
f 68/68/68 75/75/75 72/72/72
f 63/63/63 60/60/60 66/66/66
f 66/66/66 71/71/71 63/63/63
f 59/59/59 52/52/52 70/70/70
f 70/70/70 65/65/65 59/59/59
f 51/51/51 57/57/57 74/74/74
f 74/74/74 69/69/69 51/51/51
f 16/16/16 82/82/82 121/121/121
f 121/121/121 79/79/79 16/16/16
f 88/88/88 24/24/24 84/84/84
f 84/84/84 132/132/132 88/88/88
f 24/24/24 16/16/16 79/79/79
f 79/79/79 84/84/84 24/24/24
f 82/82/82 88/88/88 132/132/132
f 132/132/132 121/121/121 82/82/82
f 92/92/92 95/95/95 100/100/100
f 100/100/100 89/89/89 92/92/92
f 80/80/80 17/17/17 96/96/96
f 96/96/96 93/93/93 80/80/80
f 86/86/86 81/81/81 94/94/94
f 94/94/94 90/90/90 86/86/86
f 22/22/22 87/87/87 91/91/91
f 91/91/91 99/99/99 22/22/22
f 129/129/129 219/219/219 221/221/221
f 221/221/221 139/139/139 129/129/129
f 107/107/107 122/122/122 200/200/200
f 200/200/200 119/119/119 107/107/107
f 116/116/116 109/109/109 113/113/113
f 113/113/113 118/118/118 116/116/116
f 111/111/111 102/102/102 103/103/103
f 103/103/103 114/114/114 111/111/111
f 106/106/106 101/101/101 110/110/110
f 110/110/110 117/117/117 106/106/106
f 120/120/120 112/112/112 104/104/104
f 104/104/104 108/108/108 120/120/120
f 118/118/118 199/199/199 159/159/159
f 159/159/159 116/116/116 118/118/118
f 115/115/115 157/157/157 124/124/124
f 124/124/124 105/105/105 115/115/115
f 131/131/131 142/142/142 149/149/149
f 149/149/149 206/206/206 131/131/131
f 199/199/199 207/207/207 161/161/161
f 161/161/161 159/159/159 199/199/199
f 166/166/166 165/165/165 181/181/181
f 166/166/166 181/181/181 172/172/172
f 166/166/166 172/172/172 171/171/171
f 145/145/145 154/154/154 152/152/152
f 152/152/152 144/144/144 145/145/145
f 207/207/207 148/148/148 147/147/147
f 147/147/147 161/161/161 207/207/207
f 162/162/162 146/146/146 143/143/143
f 143/143/143 134/134/134 162/162/162
f 141/141/141 151/151/151 155/155/155
f 155/155/155 150/150/150 141/141/141
f 148/148/148 156/156/156 153/153/153
f 153/153/153 147/147/147 148/148/148
f 126/126/126 158/158/158 160/160/160
f 160/160/160 136/136/136 126/126/126
f 167/167/167 123/123/123 158/158/158
f 158/158/158 126/126/126 167/167/167
f 136/136/136 160/160/160 133/133/133
f 133/133/133 170/170/170 136/136/136
f 170/170/170 133/133/133 123/123/123
f 123/123/123 167/167/167 170/170/170
f 179/179/179 198/198/198 193/193/193
f 193/193/193 186/186/186 179/179/179
f 127/127/127 177/177/177 163/163/163
f 163/163/163 168/168/168 127/127/127
f 169/169/169 173/173/173 178/178/178
f 178/178/178 137/137/137 169/169/169
f 135/135/135 179/179/179 186/186/186
f 135/135/135 186/186/186 175/175/175
f 135/135/135 175/175/175 125/125/125
f 176/176/176 184/184/184 183/183/183
f 183/183/183 164/164/164 176/176/176
f 195/195/195 197/197/197 192/192/192
f 192/192/192 187/187/187 195/195/195
f 185/185/185 194/194/194 188/188/188
f 188/188/188 182/182/182 185/185/185
f 181/181/181 189/189/189 191/191/191
f 191/191/191 172/172/172 181/181/181
f 174/174/174 190/190/190 196/196/196
f 196/196/196 180/180/180 174/174/174
f 128/128/128 201/201/201 121/121/121
f 121/121/121 204/204/204 128/128/128
f 209/209/209 132/132/132 205/205/205
f 205/205/205 138/138/138 209/209/209
f 138/138/138 205/205/205 201/201/201
f 201/201/201 128/128/128 138/138/138
f 204/204/204 121/121/121 132/132/132
f 132/132/132 209/209/209 204/204/204
f 215/215/215 212/212/212 220/220/220
f 220/220/220 218/218/218 215/215/215
f 202/202/202 214/214/214 217/217/217
f 217/217/217 130/130/130 202/202/202
f 208/208/208 213/213/213 216/216/216
f 216/216/216 203/203/203 208/208/208
f 140/140/140 222/222/222 211/211/211
f 211/211/211 210/210/210 140/140/140

