mtllib material.mtl
usemtl Leg.BL_MAT
v -0.13952000 -0.14959300 0.21783600
v -0.13952000 -0.14959300 0.21783600
v -0.13952000 -0.14959300 0.21783600
v -0.13014700 -0.14022800 0.23654700
v -0.13014700 -0.14022800 0.23654700
v -0.13014700 -0.14022800 0.23654700
v -0.10980300 -0.11988500 0.18808000
v -0.10980300 -0.11988500 0.18808000
v -0.10980300 -0.11988500 0.18808000
v -0.10043000 -0.11052000 0.20679000
v -0.10043000 -0.11052000 0.20679000
v -0.10043000 -0.11052000 0.20679000
v -0.10870800 -0.11644900 0.17267300
v -0.10870800 -0.11644900 0.17267300
v -0.10870800 -0.11644900 0.17267300
v -0.09927000 -0.10773400 0.19167600
v -0.09927000 -0.10773400 0.19167600
v -0.09927000 -0.10773400 0.19167600
v -0.07910600 -0.08685700 0.14303300
v -0.07910600 -0.08685700 0.14303300
v -0.07910600 -0.08685700 0.14303300
v -0.06908300 -0.07755800 0.16145000
v -0.06908300 -0.07755800 0.16145000
v -0.06908300 -0.07755800 0.16145000
v -0.06817300 -0.07826900 0.14319300
v -0.06817300 -0.07826900 0.14319300
v -0.06817300 -0.07826900 0.14319300
v -0.05880000 -0.06890400 0.16190300
v -0.05880000 -0.06890400 0.16190300
v -0.05880000 -0.06890400 0.16190300
v -0.05722200 -0.06732100 0.13222700
v -0.05722200 -0.06732100 0.13222700
v -0.04784900 -0.05795700 0.15093800
v -0.04784900 -0.05795700 0.15093800
v -0.10849300 -0.11857400 0.17362900
v -0.10849300 -0.11857400 0.17362900
v -0.10849300 -0.11857400 0.17362900
v -0.07698100 -0.08707200 0.14207600
v -0.07698100 -0.08707200 0.14207600
v -0.07698100 -0.08707200 0.14207600
v -0.11008600 -0.11314400 0.16491300
v -0.11008600 -0.11314400 0.16491300
v -0.11008600 -0.11314400 0.16491300
v -0.11104800 -0.11410700 0.17267300
v -0.11104800 -0.11410700 0.17267300
v -0.11104800 -0.11410700 0.17267300
v -0.08144600 -0.08451500 0.14303300
v -0.08144600 -0.08451500 0.14303300
v -0.08144600 -0.08451500 0.14303300
v -0.08762500 -0.09069100 0.14227500
v -0.08762500 -0.09069100 0.14227500
v -0.08762500 -0.09069100 0.14227500
v -0.10774500 -0.11548500 0.16491200
v -0.10774500 -0.11548500 0.16491200
v -0.10774500 -0.11548500 0.16491200
v -0.08528500 -0.09303200 0.14227500
v -0.08528500 -0.09303200 0.14227500
v -0.08528500 -0.09303200 0.14227500
v -0.09609700 -0.09916000 0.15075800
v -0.09609700 -0.09916000 0.15075800
v -0.09609700 -0.09916000 0.15075800
v -0.09375700 -0.10150100 0.15075700
v -0.09375700 -0.10150100 0.15075700
v -0.09375700 -0.10150100 0.15075700
v -0.09706900 -0.10012900 0.13912900
v -0.09706900 -0.10012900 0.13912900
v -0.09706900 -0.10012900 0.13912900
v -0.09136000 -0.09442300 0.13481900
v -0.09136000 -0.09442300 0.13481900
v -0.09136000 -0.09442300 0.13481900
v -0.09472900 -0.10247100 0.13912800
v -0.09472900 -0.10247100 0.13912800
v -0.09472900 -0.10247100 0.13912800
v -0.08902000 -0.09676400 0.13481900
v -0.08902000 -0.09676400 0.13481900
v -0.08902000 -0.09676400 0.13481900
v -0.09912100 -0.10920900 0.19234000
v -0.09912100 -0.10920900 0.19234000
v -0.09912100 -0.10920900 0.19234000
v -0.10232500 -0.10467600 0.19167600
v -0.10232500 -0.10467600 0.19167600
v -0.10232500 -0.10467600 0.19167600
v -0.06760800 -0.07770700 0.16078600
v -0.06760800 -0.07770700 0.16078600
v -0.06760800 -0.07770700 0.16078600
v -0.07213900 -0.07450000 0.16145100
v -0.07213900 -0.07450000 0.16145100
v -0.07213900 -0.07450000 0.16145100
v -0.07207000 -0.07561700 0.16651400
v -0.07207000 -0.07561700 0.16651400
v -0.07207000 -0.07561700 0.16651400
v -0.09818100 -0.10172000 0.19265900
v -0.09818100 -0.10172000 0.19265900
v -0.09818100 -0.10172000 0.19265900
v -0.09631000 -0.10359100 0.19265900
v -0.09631000 -0.10359100 0.19265900
v -0.09631000 -0.10359100 0.19265900
v -0.07019900 -0.07748800 0.16651400
v -0.07019900 -0.07748800 0.16651400
v -0.07019900 -0.07748800 0.16651400
v -0.14420000 -0.14491000 0.21783700
v -0.14420000 -0.14491000 0.21783700
v -0.13482700 -0.13554600 0.23654700
v -0.13482700 -0.13554600 0.23654700
v -0.11448300 -0.11520300 0.18808100
v -0.11448300 -0.11520300 0.18808100
v -0.10511000 -0.10583800 0.20679100
v -0.10511000 -0.10583800 0.20679100
v -0.14888000 -0.14022800 0.21783800
v -0.14888000 -0.14022800 0.21783800
v -0.14888000 -0.14022800 0.21783800
v -0.13950700 -0.13086300 0.23654800
v -0.13950700 -0.13086300 0.23654800
v -0.13950700 -0.13086300 0.23654800
v -0.11916300 -0.11052000 0.18808200
v -0.11916300 -0.11052000 0.18808200
v -0.11916300 -0.11052000 0.18808200
v -0.10979000 -0.10115500 0.20679200
v -0.10979000 -0.10115500 0.20679200
v -0.10979000 -0.10115500 0.20679200
v -0.10380100 -0.10452700 0.19234000
v -0.10380100 -0.10452700 0.19234000
v -0.11317300 -0.11389200 0.17363000
v -0.11317300 -0.11389200 0.17363000
v -0.11572800 -0.10942500 0.17267400
v -0.11572800 -0.10942500 0.17267400
v -0.11572800 -0.10942500 0.17267400
v -0.10700500 -0.09999400 0.19167700
v -0.10700500 -0.09999400 0.19167700
v -0.10700500 -0.09999400 0.19167700
v -0.07228800 -0.07302500 0.16078700
v -0.07228800 -0.07302500 0.16078700
v -0.08166100 -0.08239000 0.14207700
v -0.08166100 -0.08239000 0.14207700
v -0.08612600 -0.07983300 0.14303400
v -0.08612600 -0.07983300 0.14303400
v -0.08612600 -0.07983300 0.14303400
v -0.07681900 -0.06981800 0.16145200
v -0.07681900 -0.06981800 0.16145200
v -0.07681900 -0.06981800 0.16145200
v -0.06348000 -0.06422200 0.16190400
v -0.06348000 -0.06422200 0.16190400
v -0.07285300 -0.07358700 0.14319400
v -0.07285300 -0.07358700 0.14319400
v -0.07753300 -0.06890400 0.14319400
v -0.07753300 -0.06890400 0.14319400
v -0.07753300 -0.06890400 0.14319400
v -0.06816000 -0.05953900 0.16190500
v -0.06816000 -0.05953900 0.16190500
v -0.06816000 -0.05953900 0.16190500
v -0.05252900 -0.05327400 0.15093900
v -0.06190200 -0.06263900 0.13222800
v -0.06658200 -0.05795700 0.13222900
v -0.06658200 -0.05795700 0.13222900
v -0.05720900 -0.04859200 0.15093900
v -0.05720900 -0.04859200 0.15093900
v -0.11785300 -0.10920900 0.17363100
v -0.11785300 -0.10920900 0.17363100
v -0.11785300 -0.10920900 0.17363100
v -0.08634100 -0.07770700 0.14207800
v -0.08634100 -0.07770700 0.14207800
v -0.08634100 -0.07770700 0.14207800
v -0.11242500 -0.11080200 0.16491300
v -0.11242500 -0.11080200 0.16491300
v -0.11242500 -0.11080200 0.16491300
v -0.11338800 -0.11176600 0.17267400
v -0.11338800 -0.11176600 0.17267400
v -0.11338800 -0.11176600 0.17267400
v -0.08378600 -0.08217400 0.14303300
v -0.08378600 -0.08217400 0.14303300
v -0.08378600 -0.08217400 0.14303300
v -0.08996500 -0.08835000 0.14227600
v -0.08996500 -0.08835000 0.14227600
v -0.08996500 -0.08835000 0.14227600
v -0.11476600 -0.10846100 0.16491300
v -0.11476600 -0.10846100 0.16491300
v -0.11476600 -0.10846100 0.16491300
v -0.09230500 -0.08600800 0.14227600
v -0.09230500 -0.08600800 0.14227600
v -0.09230500 -0.08600800 0.14227600
v -0.09843700 -0.09681900 0.15075800
v -0.09843700 -0.09681900 0.15075800
v -0.09843700 -0.09681900 0.15075800
v -0.10077700 -0.09447700 0.15075900
v -0.10077700 -0.09447700 0.15075900
v -0.10077700 -0.09447700 0.15075900
v -0.09940900 -0.09778800 0.13912900
v -0.09940900 -0.09778800 0.13912900
v -0.09940900 -0.09778800 0.13912900
v -0.09370000 -0.09208200 0.13481900
v -0.09370000 -0.09208200 0.13481900
v -0.09370000 -0.09208200 0.13481900
v -0.10174900 -0.09544700 0.13913000
v -0.10174900 -0.09544700 0.13913000
v -0.10174900 -0.09544700 0.13913000
v -0.09604000 -0.08974000 0.13482000
v -0.09604000 -0.08974000 0.13482000
v -0.09604000 -0.08974000 0.13482000
v -0.10848100 -0.09984400 0.19234100
v -0.10848100 -0.09984400 0.19234100
v -0.10848100 -0.09984400 0.19234100
v -0.10395000 -0.10305100 0.19167700
v -0.10395000 -0.10305100 0.19167700
v -0.10395000 -0.10305100 0.19167700
v -0.07696800 -0.06834300 0.16078800
v -0.07696800 -0.06834300 0.16078800
v -0.07696800 -0.06834300 0.16078800
v -0.07376300 -0.07287500 0.16145100
v -0.07376300 -0.07287500 0.16145100
v -0.07376300 -0.07287500 0.16145100
v -0.07487900 -0.07280600 0.16651500
v -0.07487900 -0.07280600 0.16651500
v -0.07487900 -0.07280600 0.16651500
v -0.10099000 -0.09890800 0.19266000
v -0.10099000 -0.09890800 0.19266000
v -0.10099000 -0.09890800 0.19266000
v -0.10286100 -0.09703700 0.19266000
v -0.10286100 -0.09703700 0.19266000
v -0.10286100 -0.09703700 0.19266000
v -0.07675000 -0.07093500 0.16651500
v -0.07675000 -0.07093500 0.16651500
v -0.07675000 -0.07093500 0.16651500
vn 0.70690000 -0.70730000 -0.00010000
vn -0.57720000 -0.57700000 0.57790000
vn -0.40880000 -0.40850000 -0.81610000
vn 0.70690000 -0.70730000 -0.00010000
vn -0.57720000 -0.57700000 0.57790000
vn 0.40880000 0.40850000 0.81610000
vn 0.70690000 -0.70730000 -0.00010000
vn -0.40880000 -0.40850000 -0.81610000
vn -0.70160000 -0.70120000 -0.12720000
vn 0.40880000 0.40850000 0.81610000
vn 0.70690000 -0.70730000 -0.00010000
vn 0.70160000 0.70120000 0.12720000
vn -0.40880000 -0.40850000 -0.81610000
vn 0.70690000 -0.70730000 -0.00010000
vn -0.69670000 -0.69630000 -0.17290000
vn 0.40880000 0.40850000 0.81610000
vn -0.13580000 -0.13590000 0.98140000
vn 0.77970000 -0.59970000 0.18010000
vn -0.40880000 -0.40850000 -0.81610000
vn 0.70690000 -0.70730000 -0.00010000
vn 0.06100000 0.06120000 -0.99630000
vn 0.69990000 0.69950000 0.14470000
vn 0.77970000 -0.59970000 0.18010000
vn 0.40880000 0.40850000 0.81610000
vn -0.40880000 -0.40850000 -0.81610000
vn 0.70690000 -0.70730000 -0.00010000
vn 0.06310000 0.06320000 -0.99600000
vn 0.40880000 0.40850000 0.81610000
vn -0.06310000 -0.06320000 0.99600000
vn 0.70690000 -0.70730000 -0.00010000
vn 0.70690000 -0.70730000 -0.00010000
vn -0.40880000 -0.40850000 -0.81610000
vn 0.70690000 -0.70730000 -0.00010000
vn 0.40880000 0.40850000 0.81610000
vn -0.40880000 -0.40850000 -0.81610000
vn 0.70690000 -0.70730000 -0.00010000
vn -0.70160000 -0.70120000 -0.12720000
vn 0.70690000 -0.70730000 -0.00010000
vn 0.06310000 0.06320000 -0.99600000
vn -0.40880000 -0.40850000 -0.81610000
vn -0.41170000 -0.41130000 -0.81320000
vn -0.69670000 -0.69630000 -0.17290000
vn -0.70690000 0.70730000 0.00010000
vn -0.40880000 -0.40850000 -0.81610000
vn -0.70690000 0.70730000 0.00010000
vn -0.69670000 -0.69630000 -0.17290000
vn -0.40880000 -0.40850000 -0.81610000
vn -0.70690000 0.70730000 0.00010000
vn 0.06100000 0.06120000 -0.99630000
vn 0.06100000 0.06120000 -0.99630000
vn 0.57720000 0.57700000 -0.57790000
vn -0.70690000 0.70730000 0.00010000
vn 0.70690000 -0.70730000 -0.00010000
vn -0.41170000 -0.41130000 -0.81320000
vn -0.69670000 -0.69630000 -0.17290000
vn 0.06100000 0.06120000 -0.99630000
vn 0.57720000 0.57700000 -0.57790000
vn 0.70690000 -0.70730000 -0.00010000
vn -0.70690000 0.70730000 0.00010000
vn -0.70240000 -0.70210000 0.11730000
vn -0.41170000 -0.41130000 -0.81320000
vn -0.41170000 -0.41130000 -0.81320000
vn -0.70240000 -0.70210000 0.11730000
vn 0.70690000 -0.70730000 -0.00010000
vn -0.70690000 0.70730000 0.00010000
vn -0.70240000 -0.70210000 0.11730000
vn -0.33320000 -0.33290000 -0.88210000
vn -0.33320000 -0.33290000 -0.88210000
vn 0.57720000 0.57700000 -0.57790000
vn -0.70690000 0.70730000 0.00010000
vn -0.70240000 -0.70210000 0.11730000
vn -0.33320000 -0.33290000 -0.88210000
vn 0.70690000 -0.70730000 -0.00010000
vn 0.57720000 0.57700000 -0.57790000
vn -0.33320000 -0.33290000 -0.88210000
vn 0.70690000 -0.70730000 -0.00010000
vn 0.70160000 0.70120000 0.12720000
vn 0.70690000 -0.70730000 -0.00010000
vn 0.40880000 0.40850000 0.81610000
vn -0.13580000 -0.13590000 0.98140000
vn -0.59920000 0.78000000 0.18030000
vn 0.40880000 0.40850000 0.81610000
vn -0.06310000 -0.06320000 0.99600000
vn 0.40880000 0.40850000 0.81610000
vn 0.70690000 -0.70730000 -0.00010000
vn -0.59920000 0.78000000 0.18030000
vn 0.69990000 0.69950000 0.14470000
vn 0.40880000 0.40850000 0.81610000
vn 0.40880000 0.40850000 0.81610000
vn -0.59920000 0.78000000 0.18030000
vn 0.69990000 0.69950000 0.14470000
vn 0.40880000 0.40850000 0.81610000
vn -0.13580000 -0.13590000 0.98140000
vn -0.59920000 0.78000000 0.18030000
vn 0.40880000 0.40850000 0.81610000
vn -0.13580000 -0.13590000 0.98140000
vn 0.77970000 -0.59970000 0.18010000
vn 0.77970000 -0.59970000 0.18010000
vn 0.69990000 0.69950000 0.14470000
vn 0.40880000 0.40850000 0.81610000
vn -0.40880000 -0.40850000 -0.81610000
vn -0.57720000 -0.57700000 0.57790000
vn -0.57720000 -0.57700000 0.57790000
vn 0.40880000 0.40850000 0.81610000
vn -0.70160000 -0.70120000 -0.12720000
vn -0.40880000 -0.40850000 -0.81610000
vn 0.70160000 0.70120000 0.12720000
vn 0.40880000 0.40850000 0.81610000
vn -0.70690000 0.70730000 0.00010000
vn -0.40880000 -0.40850000 -0.81610000
vn -0.57720000 -0.57700000 0.57790000
vn 0.40880000 0.40850000 0.81610000
vn -0.70690000 0.70730000 0.00010000
vn -0.57720000 -0.57700000 0.57790000
vn -0.70160000 -0.70120000 -0.12720000
vn -0.70690000 0.70730000 0.00010000
vn -0.40880000 -0.40850000 -0.81610000
vn -0.70690000 0.70730000 0.00010000
vn 0.70160000 0.70120000 0.12720000
vn 0.40880000 0.40850000 0.81610000
vn 0.40880000 0.40850000 0.81610000
vn 0.70160000 0.70120000 0.12720000
vn -0.40880000 -0.40850000 -0.81610000
vn -0.70160000 -0.70120000 -0.12720000
vn -0.70690000 0.70730000 0.00010000
vn -0.40880000 -0.40850000 -0.81610000
vn -0.69670000 -0.69630000 -0.17290000
vn 0.40880000 0.40850000 0.81610000
vn -0.59920000 0.78000000 0.18030000
vn -0.13580000 -0.13590000 0.98140000
vn -0.06310000 -0.06320000 0.99600000
vn 0.40880000 0.40850000 0.81610000
vn -0.40880000 -0.40850000 -0.81610000
vn 0.06310000 0.06320000 -0.99600000
vn -0.70690000 0.70730000 0.00010000
vn -0.40880000 -0.40850000 -0.81610000
vn 0.06100000 0.06120000 -0.99630000
vn 0.40880000 0.40850000 0.81610000
vn -0.59920000 0.78000000 0.18030000
vn 0.69990000 0.69950000 0.14470000
vn 0.40880000 0.40850000 0.81610000
vn -0.06310000 -0.06320000 0.99600000
vn 0.06310000 0.06320000 -0.99600000
vn -0.40880000 -0.40850000 -0.81610000
vn -0.40880000 -0.40850000 -0.81610000
vn 0.06310000 0.06320000 -0.99600000
vn -0.70690000 0.70730000 0.00010000
vn -0.70690000 0.70730000 0.00010000
vn -0.06310000 -0.06320000 0.99600000
vn 0.40880000 0.40850000 0.81610000
vn 0.40880000 0.40850000 0.81610000
vn -0.40880000 -0.40850000 -0.81610000
vn -0.70690000 0.70730000 0.00010000
vn -0.40880000 -0.40850000 -0.81610000
vn 0.40880000 0.40850000 0.81610000
vn -0.70690000 0.70730000 0.00010000
vn -0.70160000 -0.70120000 -0.12720000
vn -0.40880000 -0.40850000 -0.81610000
vn -0.70690000 0.70730000 0.00010000
vn -0.40880000 -0.40850000 -0.81610000
vn -0.70690000 0.70730000 0.00010000
vn 0.06310000 0.06320000 -0.99600000
vn -0.69670000 -0.69630000 -0.17290000
vn -0.41170000 -0.41130000 -0.81320000
vn 0.70690000 -0.70730000 -0.00010000
vn 0.70690000 -0.70730000 -0.00010000
vn -0.40880000 -0.40850000 -0.81610000
vn -0.69670000 -0.69630000 -0.17290000
vn 0.06100000 0.06120000 -0.99630000
vn -0.40880000 -0.40850000 -0.81610000
vn 0.70690000 -0.70730000 -0.00010000
vn 0.70690000 -0.70730000 -0.00010000
vn 0.06100000 0.06120000 -0.99630000
vn 0.57720000 0.57700000 -0.57790000
vn -0.70690000 0.70730000 0.00010000
vn -0.41170000 -0.41130000 -0.81320000
vn -0.69670000 -0.69630000 -0.17290000
vn 0.06100000 0.06120000 -0.99630000
vn -0.70690000 0.70730000 0.00010000
vn 0.57720000 0.57700000 -0.57790000
vn 0.70690000 -0.70730000 -0.00010000
vn -0.70240000 -0.70210000 0.11730000
vn -0.41170000 -0.41130000 -0.81320000
vn -0.41170000 -0.41130000 -0.81320000
vn -0.70240000 -0.70210000 0.11730000
vn -0.70690000 0.70730000 0.00010000
vn -0.33320000 -0.33290000 -0.88210000
vn -0.70240000 -0.70210000 0.11730000
vn 0.70690000 -0.70730000 -0.00010000
vn 0.57720000 0.57700000 -0.57790000
vn 0.70690000 -0.70730000 -0.00010000
vn -0.33320000 -0.33290000 -0.88210000
vn -0.70690000 0.70730000 0.00010000
vn -0.70240000 -0.70210000 0.11730000
vn -0.33320000 -0.33290000 -0.88210000
vn 0.57720000 0.57700000 -0.57790000
vn -0.33320000 -0.33290000 -0.88210000
vn -0.70690000 0.70730000 0.00010000
vn -0.70690000 0.70730000 0.00010000
vn 0.70160000 0.70120000 0.12720000
vn 0.40880000 0.40850000 0.81610000
vn -0.13580000 -0.13590000 0.98140000
vn 0.77970000 -0.59970000 0.18010000
vn 0.40880000 0.40850000 0.81610000
vn 0.40880000 0.40850000 0.81610000
vn -0.06310000 -0.06320000 0.99600000
vn -0.70690000 0.70730000 0.00010000
vn 0.77970000 -0.59970000 0.18010000
vn 0.40880000 0.40850000 0.81610000
vn 0.69990000 0.69950000 0.14470000
vn 0.69990000 0.69950000 0.14470000
vn 0.40880000 0.40850000 0.81610000
vn 0.77970000 -0.59970000 0.18010000
vn -0.13580000 -0.13590000 0.98140000
vn 0.40880000 0.40850000 0.81610000
vn 0.77970000 -0.59970000 0.18010000
vn -0.13580000 -0.13590000 0.98140000
vn 0.40880000 0.40850000 0.81610000
vn -0.59920000 0.78000000 0.18030000
vn 0.40880000 0.40850000 0.81610000
vn -0.59920000 0.78000000 0.18030000
vn 0.69990000 0.69950000 0.14470000
vt 0.55376700 0.58335900
vt 0.81519700 0.93557400
vt 0.33220500 0.86864200
vt 0.57621600 0.58398700
vt 0.81519700 0.95390700
vt 0.88009600 0.78183600
vt 0.55518500 0.53305400
vt 0.33220500 0.90940500
vt 0.62669000 0.95719700
vt 0.88009600 0.74107300
vt 0.57763400 0.53368100
vt 0.87097300 0.63524100
vt 0.81212600 0.34990800
vt 0.29504600 0.84977800
vt 0.97148500 0.51138300
vt 0.79382300 0.48073300
vt 0.79382300 0.48073300
vt 0.91409100 0.22158000
vt 0.81212600 0.30930300
vt 0.29504600 0.79964900
vt 0.81212600 0.30930300
vt 0.97571900 0.54348000
vt 0.91409100 0.27270000
vt 0.79382300 0.43932700
vt 0.81374800 0.29581000
vt 0.55466300 0.46070300
vt 0.81374800 0.29581000
vt 0.79269800 0.42623400
vt 0.79269800 0.42623400
vt 0.57711100 0.46133000
vt 0.55518500 0.44216500
vt 0.81374800 0.28078800
vt 0.57763400 0.44279200
vt 0.79269800 0.41121300
vt 0.81374800 0.35121800
vt 0.54495800 0.52312300
vt 0.62669000 0.94307900
vt 0.54646100 0.46977900
vt 0.81374800 0.30799300
vt 0.81374800 0.30799300
vt 0.14625300 0.65039200
vt 0.97472700 0.51896600
vt 0.65968300 0.79969600
vt 0.80888400 0.34990800
vt 0.66511500 0.79422600
vt 0.97472800 0.51138500
vt 0.80888400 0.30930300
vt 0.66511500 0.84435700
vt 0.80888400 0.30930300
vt 0.80888400 0.31785000
vt 0.04766600 0.97074400
vt 0.65956400 0.83781700
vt 0.28961300 0.84430900
vt 0.14301000 0.65039200
vt 0.97148500 0.51896500
vt 0.81212600 0.31785000
vt 0.05090800 0.97074900
vt 0.28949500 0.80618900
vt 0.65956400 0.82347000
vt 0.96252300 0.19961000
vt 0.14625300 0.66957800
vt 0.14301000 0.66957800
vt 0.96576600 0.19960900
vt 0.28949500 0.82053600
vt 0.64949100 0.82894200
vt 0.96252300 0.18823800
vt 0.96914600 0.88966600
vt 0.96914600 0.89751100
vt 0.04766600 0.97790200
vt 0.65061500 0.83781600
vt 0.96576600 0.18823800
vt 0.96590300 0.88966600
vt 0.27942200 0.81506300
vt 0.05090800 0.97790700
vt 0.96590300 0.89751100
vt 0.28054600 0.80619000
vt 0.87097300 0.64940600
vt 0.56740600 0.52375100
vt 0.79269800 0.48164200
vt 0.79805700 0.48073300
vt 0.05984400 0.65097500
vt 0.79805700 0.48073300
vt 0.79269800 0.43841800
vt 0.79269800 0.43841800
vt 0.56891000 0.47040700
vt 0.05984400 0.59985400
vt 0.97148500 0.54348000
vt 0.79805700 0.43932700
vt 0.79723600 0.43999800
vt 0.05620500 0.60331000
vt 0.97230800 0.53851500
vt 0.79723600 0.47581400
vt 0.79723600 0.47581400
vt 0.05620500 0.64752900
vt 0.79464400 0.47581400
vt 0.79464400 0.47581400
vt 0.91045400 0.22502300
vt 0.91045400 0.26924100
vt 0.97489900 0.53851500
vt 0.79464400 0.43999800
vt 0.33869000 0.86864200
vt 0.80871200 0.93558300
vt 0.80871200 0.95391700
vt 0.88658100 0.78183600
vt 0.62020500 0.95719600
vt 0.33869000 0.90940500
vt 0.86448800 0.63524200
vt 0.88658100 0.74107300
vt 0.28237400 0.43426600
vt 0.34517500 0.86864200
vt 0.80222700 0.93559200
vt 0.89306600 0.78183600
vt 0.30482200 0.43363800
vt 0.80222700 0.95392600
vt 0.61372000 0.95719400
vt 0.28379200 0.48457300
vt 0.34517500 0.90940500
vt 0.30623900 0.48394500
vt 0.85800300 0.63524300
vt 0.89306600 0.74107300
vt 0.79918300 0.48164200
vt 0.86448800 0.64940700
vt 0.80726300 0.35121800
vt 0.62020500 0.94307700
vt 0.76637300 0.79523200
vt 0.80239900 0.34990800
vt 0.97110700 0.01735600
vt 0.80454200 0.48073300
vt 0.16191500 0.37357300
vt 0.80454200 0.48073300
vt 0.79918300 0.43841800
vt 0.79918300 0.43841800
vt 0.80726300 0.30799300
vt 0.80726300 0.30799300
vt 0.76637300 0.84536300
vt 0.80239900 0.30930300
vt 0.80239900 0.30930300
vt 0.80454200 0.43932700
vt 0.16191500 0.32245300
vt 0.09069400 0.97717400
vt 0.79918300 0.42623400
vt 0.79918300 0.42623400
vt 0.80726300 0.29581000
vt 0.80726300 0.29581000
vt 0.80077700 0.29581000
vt 0.80077700 0.29581000
vt 0.28326900 0.55692600
vt 0.30571700 0.55629800
vt 0.80566800 0.42623400
vt 0.80566800 0.42623400
vt 0.79918300 0.41121300
vt 0.80726300 0.28078800
vt 0.28379200 0.57546500
vt 0.80077700 0.28078800
vt 0.80566800 0.41121300
vt 0.30623900 0.57483700
vt 0.61372000 0.94307500
vt 0.80077800 0.35121800
vt 0.27356500 0.49450400
vt 0.80077800 0.30799300
vt 0.27506800 0.54784900
vt 0.80077800 0.30799300
vt 0.97435000 0.00977600
vt 0.77767000 0.23136100
vt 0.34239600 0.84362300
vt 0.34782900 0.84909300
vt 0.80564100 0.34990800
vt 0.97435000 0.01735700
vt 0.80564100 0.30930300
vt 0.80564100 0.30930300
vt 0.34782900 0.79896300
vt 0.34227800 0.80550400
vt 0.80564100 0.31785000
vt 0.97756500 0.92611700
vt 0.76094000 0.80070200
vt 0.78091300 0.23136100
vt 0.97110700 0.00977500
vt 0.80239900 0.31785000
vt 0.76082200 0.83882200
vt 0.98080800 0.92612200
vt 0.34227800 0.81985000
vt 0.68353500 0.95579200
vt 0.77767000 0.25054800
vt 0.78091300 0.25054800
vt 0.68677700 0.95579200
vt 0.76082200 0.82447500
vt 0.91751900 0.95859800
vt 0.68353500 0.96716400
vt 0.33220500 0.81437800
vt 0.97756500 0.91895900
vt 0.33332900 0.80550500
vt 0.91751900 0.96644200
vt 0.75074900 0.82994800
vt 0.68677700 0.96716300
vt 0.92076100 0.95859800
vt 0.98080800 0.91896400
vt 0.92076100 0.96644200
vt 0.75187300 0.83882200
vt 0.29601200 0.49387600
vt 0.85800300 0.64940900
vt 0.80566800 0.48164200
vt 0.80030800 0.48073300
vt 0.91170100 0.71350300
vt 0.80030800 0.48073300
vt 0.80566800 0.43841800
vt 0.80566800 0.43841800
vt 0.29751600 0.54722100
vt 0.91170100 0.66238400
vt 0.80030800 0.43932700
vt 0.09492800 0.97717400
vt 0.09410800 0.97220900
vt 0.80112900 0.43999800
vt 0.91533800 0.66584200
vt 0.80112900 0.47581400
vt 0.80112900 0.47581400
vt 0.91533800 0.71006000
vt 0.80372100 0.47581400
vt 0.80372100 0.47581400
vt 0.15827600 0.37012800
vt 0.80372100 0.43999800
vt 0.15827600 0.32590800
vt 0.09151700 0.97220900
f 18/18/18 23/23/23 98/98/98
f 98/98/98 97/97/97 18/18/18
f 107/107/107 12/12/12 77/77/77
f 77/77/77 122/122/122 107/107/107
f 7/7/7 11/11/11 4/4/4
f 4/4/4 1/1/1 7/7/7
f 2/2/2 5/5/5 103/103/103
f 103/103/103 102/102/102 2/2/2
f 106/106/106 8/8/8 3/3/3
f 3/3/3 101/101/101 106/106/106
f 10/10/10 108/108/108 104/104/104
f 104/104/104 6/6/6 10/10/10
f 11/11/11 7/7/7 36/36/36
f 36/36/36 78/78/78 11/11/11
f 9/9/9 105/105/105 124/124/124
f 124/124/124 37/37/37 9/9/9
f 131/131/131 83/83/83 29/29/29
f 29/29/29 142/142/142 131/131/131
f 78/78/78 36/36/36 38/38/38
f 38/38/38 85/85/85 78/78/78
f 45/45/45 48/48/48 52/52/52
f 45/45/45 52/52/52 59/59/59
f 45/45/45 59/59/59 43/43/43
f 25/25/25 144/144/144 152/152/152
f 152/152/152 32/32/32 25/25/25
f 85/85/85 38/38/38 26/26/26
f 26/26/26 30/30/30 85/85/85
f 39/39/39 134/134/134 143/143/143
f 143/143/143 27/27/27 39/39/39
f 141/141/141 28/28/28 34/34/34
f 34/34/34 151/151/151 141/141/141
f 30/30/30 26/26/26 31/31/31
f 31/31/31 33/33/33 30/30/30
f 13/13/13 19/19/19 40/40/40
f 40/40/40 35/35/35 13/13/13
f 44/44/44 13/13/13 35/35/35
f 35/35/35 123/123/123 44/44/44
f 19/19/19 47/47/47 133/133/133
f 133/133/133 40/40/40 19/19/19
f 47/47/47 44/44/44 123/123/123
f 123/123/123 133/133/133 47/47/47
f 58/58/58 64/64/64 73/73/73
f 73/73/73 76/76/76 58/58/58
f 15/15/15 46/46/46 42/42/42
f 42/42/42 55/55/55 15/15/15
f 49/49/49 21/21/21 56/56/56
f 56/56/56 50/50/50 49/49/49
f 20/20/20 14/14/14 53/53/53
f 20/20/20 53/53/53 64/64/64
f 20/20/20 64/64/64 58/58/58
f 54/54/54 41/41/41 61/61/61
f 61/61/61 62/62/62 54/54/54
f 72/72/72 67/67/67 68/68/68
f 68/68/68 75/75/75 72/72/72
f 63/63/63 60/60/60 66/66/66
f 66/66/66 71/71/71 63/63/63
f 59/59/59 52/52/52 70/70/70
f 70/70/70 65/65/65 59/59/59
f 51/51/51 57/57/57 74/74/74
f 74/74/74 69/69/69 51/51/51
f 16/16/16 82/82/82 121/121/121
f 121/121/121 79/79/79 16/16/16
f 88/88/88 24/24/24 84/84/84
f 84/84/84 132/132/132 88/88/88
f 24/24/24 16/16/16 79/79/79
f 79/79/79 84/84/84 24/24/24
f 82/82/82 88/88/88 132/132/132
f 132/132/132 121/121/121 82/82/82
f 92/92/92 95/95/95 100/100/100
f 100/100/100 89/89/89 92/92/92
f 80/80/80 17/17/17 96/96/96
f 96/96/96 93/93/93 80/80/80
f 86/86/86 81/81/81 94/94/94
f 94/94/94 90/90/90 86/86/86
f 22/22/22 87/87/87 91/91/91
f 91/91/91 99/99/99 22/22/22
f 129/129/129 219/219/219 221/221/221
f 221/221/221 139/139/139 129/129/129
f 107/107/107 122/122/122 200/200/200
f 200/200/200 119/119/119 107/107/107
f 116/116/116 109/109/109 113/113/113
f 113/113/113 118/118/118 116/116/116
f 111/111/111 102/102/102 103/103/103
f 103/103/103 114/114/114 111/111/111
f 106/106/106 101/101/101 110/110/110
f 110/110/110 117/117/117 106/106/106
f 120/120/120 112/112/112 104/104/104
f 104/104/104 108/108/108 120/120/120
f 118/118/118 199/199/199 159/159/159
f 159/159/159 116/116/116 118/118/118
f 115/115/115 157/157/157 124/124/124
f 124/124/124 105/105/105 115/115/115
f 131/131/131 142/142/142 149/149/149
f 149/149/149 206/206/206 131/131/131
f 199/199/199 207/207/207 161/161/161
f 161/161/161 159/159/159 199/199/199
f 166/166/166 165/165/165 181/181/181
f 166/166/166 181/181/181 172/172/172
f 166/166/166 172/172/172 171/171/171
f 145/145/145 154/154/154 152/152/152
f 152/152/152 144/144/144 145/145/145
f 207/207/207 148/148/148 147/147/147
f 147/147/147 161/161/161 207/207/207
f 162/162/162 146/146/146 143/143/143
f 143/143/143 134/134/134 162/162/162
f 141/141/141 151/151/151 155/155/155
f 155/155/155 150/150/150 141/141/141
f 148/148/148 156/156/156 153/153/153
f 153/153/153 147/147/147 148/148/148
f 126/126/126 158/158/158 160/160/160
f 160/160/160 136/136/136 126/126/126
f 167/167/167 123/123/123 158/158/158
f 158/158/158 126/126/126 167/167/167
f 136/136/136 160/160/160 133/133/133
f 133/133/133 170/170/170 136/136/136
f 170/170/170 133/133/133 123/123/123
f 123/123/123 167/167/167 170/170/170
f 179/179/179 198/198/198 193/193/193
f 193/193/193 186/186/186 179/179/179
f 127/127/127 177/177/177 163/163/163
f 163/163/163 168/168/168 127/127/127
f 169/169/169 173/173/173 178/178/178
f 178/178/178 137/137/137 169/169/169
f 135/135/135 179/179/179 186/186/186
f 135/135/135 186/186/186 175/175/175
f 135/135/135 175/175/175 125/125/125
f 176/176/176 184/184/184 183/183/183
f 183/183/183 164/164/164 176/176/176
f 195/195/195 197/197/197 192/192/192
f 192/192/192 187/187/187 195/195/195
f 185/185/185 194/194/194 188/188/188
f 188/188/188 182/182/182 185/185/185
f 181/181/181 189/189/189 191/191/191
f 191/191/191 172/172/172 181/181/181
f 174/174/174 190/190/190 196/196/196
f 196/196/196 180/180/180 174/174/174
f 128/128/128 201/201/201 121/121/121
f 121/121/121 204/204/204 128/128/128
f 209/209/209 132/132/132 205/205/205
f 205/205/205 138/138/138 209/209/209
f 138/138/138 205/205/205 201/201/201
f 201/201/201 128/128/128 138/138/138
f 204/204/204 121/121/121 132/132/132
f 132/132/132 209/209/209 204/204/204
f 215/215/215 212/212/212 220/220/220
f 220/220/220 218/218/218 215/215/215
f 202/202/202 214/214/214 217/217/217
f 217/217/217 130/130/130 202/202/202
f 208/208/208 213/213/213 216/216/216
f 216/216/216 203/203/203 208/208/208
f 140/140/140 222/222/222 211/211/211
f 211/211/211 210/210/210 140/140/140

