mtllib material.mtl
usemtl Leg.FL.001_MAT
v -0.13537700 0.12314000 0.23980400
v -0.13537700 0.12314000 0.23980400
v -0.13537700 0.12314000 0.23980400
v -0.13315900 0.12092200 0.23349800
v -0.13315900 0.12092200 0.23349800
v -0.13281600 0.12057900 0.22647100
v -0.13281600 0.12057900 0.22647100
v -0.13440000 0.12216400 0.21979400
v -0.13440000 0.12216400 0.21979400
v -0.13767000 0.12543600 0.21448300
v -0.13767000 0.12543600 0.21448300
v -0.13767000 0.12543600 0.21448300
v -0.14212800 0.12989500 0.21134600
v -0.14212800 0.12989500 0.21134600
v -0.14709600 0.13486400 0.21086100
v -0.14709600 0.13486400 0.21086100
v -0.15181600 0.13958700 0.21310200
v -0.15181600 0.13958700 0.21310200
v -0.15557200 0.14334300 0.21772700
v -0.15557200 0.14334300 0.21772700
v -0.15557200 0.14334300 0.21772700
v -0.15779000 0.14556100 0.22403300
v -0.15779000 0.14556100 0.22403300
v -0.15813300 0.14590300 0.23106000
v -0.15813300 0.14590300 0.23106000
v -0.15654900 0.14431800 0.23773700
v -0.15654900 0.14431800 0.23773700
v -0.15327900 0.14104700 0.24304800
v -0.15327900 0.14104700 0.24304800
v -0.15327900 0.14104700 0.24304800
v -0.14882100 0.13658700 0.24618500
v -0.14882100 0.13658700 0.24618500
v -0.14385300 0.13161800 0.24667000
v -0.14385300 0.13161800 0.24667000
v -0.13913200 0.12689600 0.24442900
v -0.13913200 0.12689600 0.24442900
v -0.13451700 0.12241900 0.23294900
v -0.13451700 0.12241900 0.23294900
v -0.13451700 0.12241900 0.23294900
v -0.13647800 0.12438000 0.23852400
v -0.13647800 0.12438000 0.23852400
v -0.13421300 0.12211600 0.22673700
v -0.13421300 0.12211600 0.22673700
v -0.13421300 0.12211600 0.22673700
v -0.13561400 0.12351800 0.22083400
v -0.13561400 0.12351800 0.22083400
v -0.13850500 0.12641000 0.21613900
v -0.13850500 0.12641000 0.21613900
v -0.14244600 0.13035300 0.21336500
v -0.14244600 0.13035300 0.21336500
v -0.14244600 0.13035300 0.21336500
v -0.14683800 0.13474600 0.21293700
v -0.14683800 0.13474600 0.21293700
v -0.14683800 0.13474600 0.21293700
v -0.15101200 0.13892000 0.21491800
v -0.15101200 0.13892000 0.21491800
v -0.15433200 0.14224100 0.21900700
v -0.15433200 0.14224100 0.21900700
v -0.15629300 0.14420200 0.22458200
v -0.15629300 0.14420200 0.22458200
v -0.15629300 0.14420200 0.22458200
v -0.15659600 0.14450500 0.23079400
v -0.15659600 0.14450500 0.23079400
v -0.15659600 0.14450500 0.23079400
v -0.15519600 0.14310400 0.23669700
v -0.15519600 0.14310400 0.23669700
v -0.15230500 0.14021100 0.24139200
v -0.15230500 0.14021100 0.24139200
v -0.14836300 0.13626900 0.24416600
v -0.14836300 0.13626900 0.24416600
v -0.14836300 0.13626900 0.24416600
v -0.14397200 0.13187600 0.24459500
v -0.14397200 0.13187600 0.24459500
v -0.14397200 0.13187600 0.24459500
v -0.13979800 0.12770100 0.24261300
v -0.13979800 0.12770100 0.24261300
v -0.13616200 0.12237500 0.23264200
v -0.13616200 0.12237500 0.23264200
v -0.13616200 0.12237500 0.23264200
v -0.13797900 0.12419200 0.23780700
v -0.13797900 0.12419200 0.23780700
v -0.13588100 0.12209400 0.22688600
v -0.13588100 0.12209400 0.22688600
v -0.13588100 0.12209400 0.22688600
v -0.13717800 0.12339200 0.22141700
v -0.13717800 0.12339200 0.22141700
v -0.13985700 0.12607200 0.21706600
v -0.13985700 0.12607200 0.21706600
v -0.14350900 0.12972500 0.21449700
v -0.14350900 0.12972500 0.21449700
v -0.14350900 0.12972500 0.21449700
v -0.14757800 0.13379600 0.21409900
v -0.14757800 0.13379600 0.21409900
v -0.14757800 0.13379600 0.21409900
v -0.15144500 0.13766300 0.21593500
v -0.15144500 0.13766300 0.21593500
v -0.15452100 0.14074000 0.21972400
v -0.15452100 0.14074000 0.21972400
v -0.15633800 0.14255700 0.22488900
v -0.15633800 0.14255700 0.22488900
v -0.15633800 0.14255700 0.22488900
v -0.15661900 0.14283800 0.23064500
v -0.15661900 0.14283800 0.23064500
v -0.15661900 0.14283800 0.23064500
v -0.15532100 0.14153900 0.23611400
v -0.15532100 0.14153900 0.23611400
v -0.15264300 0.13886000 0.24046500
v -0.15264300 0.13886000 0.24046500
v -0.14899100 0.13520700 0.24303400
v -0.14899100 0.13520700 0.24303400
v -0.14899100 0.13520700 0.24303400
v -0.14492200 0.13113600 0.24343200
v -0.14492200 0.13113600 0.24343200
v -0.14492200 0.13113600 0.24343200
v -0.14105500 0.12726800 0.24159600
v -0.14105500 0.12726800 0.24159600
v -0.13277800 0.12573800 0.23980400
v -0.13277800 0.12573800 0.23980400
v -0.13055900 0.12352000 0.23349800
v -0.13021600 0.12317800 0.22647200
v -0.13180000 0.12476300 0.21979400
v -0.13507000 0.12803400 0.21448300
v -0.13507000 0.12803400 0.21448300
v -0.13952900 0.13249400 0.21134600
v -0.14449600 0.13746300 0.21086100
v -0.14449600 0.13746300 0.21086100
v -0.14449600 0.13746300 0.21086100
v -0.14921700 0.14218500 0.21310200
v -0.14921700 0.14218500 0.21310200
v -0.15297300 0.14594100 0.21772700
v -0.15297300 0.14594100 0.21772700
v -0.15297300 0.14594100 0.21772700
v -0.15519100 0.14815900 0.22403300
v -0.15519100 0.14815900 0.22403300
v -0.15553400 0.14850200 0.23106000
v -0.15553400 0.14850200 0.23106000
v -0.15395000 0.14691700 0.23773700
v -0.15395000 0.14691700 0.23773700
v -0.15395000 0.14691700 0.23773700
v -0.15068000 0.14364500 0.24304800
v -0.15068000 0.14364500 0.24304800
v -0.14622200 0.13918600 0.24618500
v -0.14125400 0.13421700 0.24667000
v -0.13653300 0.12949400 0.24443000
v -0.17106600 0.16262500 0.19390300
v -0.17106600 0.16262500 0.19390300
v -0.17106600 0.16262500 0.19390300
v -0.17222700 0.16378500 0.20216100
v -0.17222700 0.16378500 0.20216100
v -0.17553400 0.16709200 0.20916200
v -0.17553400 0.16709200 0.20916200
v -0.17553400 0.16709200 0.20916200
v -0.17417300 0.15951800 0.19390200
v -0.17417300 0.15951800 0.19390200
v -0.17533500 0.16068100 0.18564500
v -0.17533500 0.16068100 0.18564500
v -0.17864300 0.16399000 0.17864400
v -0.17864300 0.16399000 0.17864400
v -0.17864300 0.16399000 0.17864400
v -0.18359300 0.16894200 0.17396800
v -0.18359300 0.16894200 0.17396800
v -0.18943100 0.17478200 0.17232600
v -0.18943100 0.17478200 0.17232600
v -0.19527000 0.18062200 0.17397000
v -0.19527000 0.18062200 0.17397000
v -0.20021900 0.18557200 0.17864900
v -0.20021900 0.18557200 0.17864900
v -0.20021900 0.18557200 0.17864900
v -0.20352600 0.18887900 0.18565100
v -0.20352600 0.18887900 0.18565100
v -0.20468700 0.19004000 0.19390900
v -0.20468700 0.19004000 0.19390900
v -0.20352500 0.18887700 0.20216700
v -0.20352500 0.18887700 0.20216700
v -0.20021700 0.18556800 0.20916700
v -0.20021700 0.18556800 0.20916700
v -0.20021700 0.18556800 0.20916700
v -0.19526700 0.18061600 0.21384300
v -0.19526700 0.18061600 0.21384300
v -0.18942900 0.17477600 0.21548500
v -0.18942900 0.17477600 0.21548500
v -0.18359000 0.16893600 0.21384100
v -0.18359000 0.16893600 0.21384100
v -0.17864100 0.16398600 0.20916200
v -0.17864100 0.16398600 0.20916200
v -0.17864100 0.16398600 0.20916200
v -0.17533400 0.16067800 0.20216000
v -0.17533400 0.16067800 0.20216000
v -0.17688600 0.16239800 0.18660200
v -0.17688600 0.16239800 0.18660200
v -0.17688600 0.16239800 0.18660200
v -0.17585900 0.16137000 0.19390300
v -0.17585900 0.16137000 0.19390300
v -0.17981000 0.16532400 0.18041400
v -0.17981000 0.16532400 0.18041400
v -0.18418600 0.16970200 0.17627900
v -0.18418600 0.16970200 0.17627900
v -0.18418600 0.16970200 0.17627900
v -0.18934800 0.17486500 0.17482800
v -0.18934800 0.17486500 0.17482800
v -0.19451000 0.18002800 0.17628100
v -0.19451000 0.18002800 0.17628100
v -0.19451000 0.18002800 0.17628100
v -0.19888500 0.18440400 0.18041800
v -0.19888500 0.18440400 0.18041800
v -0.20180900 0.18732800 0.18660800
v -0.20180900 0.18732800 0.18660800
v -0.20180900 0.18732800 0.18660800
v -0.20283500 0.18835400 0.19390900
v -0.20283500 0.18835400 0.19390900
v -0.20180800 0.18732600 0.20120900
v -0.20180800 0.18732600 0.20120900
v -0.20180800 0.18732600 0.20120900
v -0.19888300 0.18440000 0.20739700
v -0.19888300 0.18440000 0.20739700
v -0.19450700 0.18002200 0.21153200
v -0.19450700 0.18002200 0.21153200
v -0.19450700 0.18002200 0.21153200
v -0.18934600 0.17485900 0.21298300
v -0.18934600 0.17485900 0.21298300
v -0.18418400 0.16969600 0.21153000
v -0.18418400 0.16969600 0.21153000
v -0.18418400 0.16969600 0.21153000
v -0.17980900 0.16532000 0.20739300
v -0.17980900 0.16532000 0.20739300
v -0.17688500 0.16239600 0.20120300
v -0.17688500 0.16239600 0.20120300
v -0.17688500 0.16239600 0.20120300
v -0.17881200 0.16230400 0.18713900
v -0.17881200 0.16230400 0.18713900
v -0.17881200 0.16230400 0.18713900
v -0.17786000 0.16135200 0.19390300
v -0.17786000 0.16135200 0.19390300
v -0.18152100 0.16501500 0.18140500
v -0.18152100 0.16501500 0.18140500
v -0.18557600 0.16907100 0.17757400
v -0.18557600 0.16907100 0.17757400
v -0.18557600 0.16907100 0.17757400
v -0.19035800 0.17385500 0.17623000
v -0.19035800 0.17385500 0.17623000
v -0.19514000 0.17863800 0.17757600
v -0.19514000 0.17863800 0.17757600
v -0.19514000 0.17863800 0.17757600
v -0.19919500 0.18269300 0.18140900
v -0.19919500 0.18269300 0.18140900
v -0.20190300 0.18540200 0.18714400
v -0.20190300 0.18540200 0.18714400
v -0.20190300 0.18540200 0.18714400
v -0.20285400 0.18635300 0.19390800
v -0.20285400 0.18635300 0.19390800
v -0.20190200 0.18540000 0.20067200
v -0.20190200 0.18540000 0.20067200
v -0.20190200 0.18540000 0.20067200
v -0.19919300 0.18268900 0.20640600
v -0.19919300 0.18268900 0.20640600
v -0.19513800 0.17863300 0.21023700
v -0.19513800 0.17863300 0.21023700
v -0.19513800 0.17863300 0.21023700
v -0.19035600 0.17384900 0.21158100
v -0.19035600 0.17384900 0.21158100
v -0.18557400 0.16906600 0.21023500
v -0.18557400 0.16906600 0.21023500
v -0.18557400 0.16906600 0.21023500
v -0.18151900 0.16501100 0.20640200
v -0.18151900 0.16501100 0.20640200
v -0.17881100 0.16230200 0.20066700
v -0.17881100 0.16230200 0.20066700
v -0.17881100 0.16230200 0.20066700
v -0.17222800 0.16378700 0.18564500
v -0.17553600 0.16709700 0.17864500
v -0.17553600 0.16709700 0.17864500
v -0.18048500 0.17204800 0.17396800
v -0.18632400 0.17788900 0.17232700
v -0.19216200 0.18372900 0.17397100
v -0.19711200 0.18867900 0.17864900
v -0.19711200 0.18867900 0.17864900
v -0.20041800 0.19198600 0.18565100
v -0.20157900 0.19314600 0.19390900
v -0.20041700 0.19198300 0.20216700
v -0.19711000 0.18867400 0.20916700
v -0.19711000 0.18867400 0.20916700
v -0.19216000 0.18372200 0.21384400
v -0.18632100 0.17788200 0.21548500
v -0.18048300 0.17204200 0.21384100
v -0.18048300 0.17204200 0.21384100
v -0.18048300 0.17204200 0.21384100
v -0.12915200 0.12936300 0.23980400
v -0.12915200 0.12936300 0.23980400
v -0.12292800 0.13558600 0.23980500
v -0.12292800 0.13558600 0.23980500
v -0.12292800 0.13558600 0.23980500
v -0.12693400 0.12714500 0.23349800
v -0.12070900 0.13336800 0.23349900
v -0.12070900 0.13336800 0.23349900
v -0.12659100 0.12680200 0.22647200
v -0.12036600 0.13302500 0.22647200
v -0.12036600 0.13302500 0.22647200
v -0.12817500 0.12838700 0.21979500
v -0.12195000 0.13461000 0.21979500
v -0.12195000 0.13461000 0.21979500
v -0.13144500 0.13165800 0.21448300
v -0.13144500 0.13165800 0.21448300
v -0.12522000 0.13788100 0.21448400
v -0.12522000 0.13788100 0.21448400
v -0.12522000 0.13788100 0.21448400
v -0.13590300 0.13611800 0.21134600
v -0.12967900 0.14234100 0.21134700
v -0.12967900 0.14234100 0.21134700
v -0.14087100 0.14108700 0.21086100
v -0.14087100 0.14108700 0.21086100
v -0.13464600 0.14731000 0.21086200
v -0.13464600 0.14731000 0.21086200
v -0.13936700 0.15203200 0.21310300
v -0.13936700 0.15203200 0.21310300
v -0.14312300 0.15578800 0.21772800
v -0.14312300 0.15578800 0.21772800
v -0.14312300 0.15578800 0.21772800
v -0.14534100 0.15800600 0.22403400
v -0.14534100 0.15800600 0.22403400
v -0.14568400 0.15834900 0.23106100
v -0.14568400 0.15834900 0.23106100
v -0.15032500 0.15054100 0.23773700
v -0.15032500 0.15054100 0.23773700
v -0.14410000 0.15676400 0.23773800
v -0.14410000 0.15676400 0.23773800
v -0.14705500 0.14727000 0.24304900
v -0.14705500 0.14727000 0.24304900
v -0.14083000 0.15349300 0.24304900
v -0.14083000 0.15349300 0.24304900
v -0.14083000 0.15349300 0.24304900
v -0.14259600 0.14281000 0.24618600
v -0.13637200 0.14903300 0.24618600
v -0.13637200 0.14903300 0.24618600
v -0.13762900 0.13784100 0.24667100
v -0.13140400 0.14406400 0.24667100
v -0.13140400 0.14406400 0.24667100
v -0.13290800 0.13311900 0.24443000
v -0.12668300 0.13934200 0.24443000
v -0.12668300 0.13934200 0.24443000
v -0.12220700 0.13472600 0.23295000
v -0.12220700 0.13472600 0.23295000
v -0.12220700 0.13472600 0.23295000
v -0.12416800 0.13668700 0.23852500
v -0.12416800 0.13668700 0.23852500
v -0.12190300 0.13442300 0.22673800
v -0.12190300 0.13442300 0.22673800
v -0.12190300 0.13442300 0.22673800
v -0.12330400 0.13582500 0.22083500
v -0.12330400 0.13582500 0.22083500
v -0.12619500 0.13871700 0.21614000
v -0.12619500 0.13871700 0.21614000
v -0.13013600 0.14265900 0.21336600
v -0.13013600 0.14265900 0.21336600
v -0.13013600 0.14265900 0.21336600
v -0.13452800 0.14705300 0.21293800
v -0.13452800 0.14705300 0.21293800
v -0.13452800 0.14705300 0.21293800
v -0.13870200 0.15122700 0.21491900
v -0.13870200 0.15122700 0.21491900
v -0.14202200 0.15454800 0.21900800
v -0.14202200 0.15454800 0.21900800
v -0.14398300 0.15650900 0.22458300
v -0.14398300 0.15650900 0.22458300
v -0.14398300 0.15650900 0.22458300
v -0.14428600 0.15681200 0.23079500
v -0.14428600 0.15681200 0.23079500
v -0.14428600 0.15681200 0.23079500
v -0.14288600 0.15541000 0.23669800
v -0.14288600 0.15541000 0.23669800
v -0.13999500 0.15251800 0.24139400
v -0.13999500 0.15251800 0.24139400
v -0.13605300 0.14857600 0.24416700
v -0.13605300 0.14857600 0.24416700
v -0.13605300 0.14857600 0.24416700
v -0.13166100 0.14418200 0.24459600
v -0.13166100 0.14418200 0.24459600
v -0.13166100 0.14418200 0.24459600
v -0.12748800 0.14000800 0.24261500
v -0.12748800 0.14000800 0.24261500
v -0.12216200 0.13637100 0.23264300
v -0.12216200 0.13637100 0.23264300
v -0.12216200 0.13637100 0.23264300
v -0.12397900 0.13818800 0.23780800
v -0.12397900 0.13818800 0.23780800
v -0.12188100 0.13609000 0.22688800
v -0.12188100 0.13609000 0.22688800
v -0.12188100 0.13609000 0.22688800
v -0.12317800 0.13738900 0.22141800
v -0.12317800 0.13738900 0.22141800
v -0.12585700 0.14006900 0.21706700
v -0.12585700 0.14006900 0.21706700
v -0.12950800 0.14372200 0.21449800
v -0.12950800 0.14372200 0.21449800
v -0.12950800 0.14372200 0.21449800
v -0.13357800 0.14779200 0.21410100
v -0.13357800 0.14779200 0.21410100
v -0.13357800 0.14779200 0.21410100
v -0.13744500 0.15166000 0.21593600
v -0.13744500 0.15166000 0.21593600
v -0.14052100 0.15473600 0.21972500
v -0.14052100 0.15473600 0.21972500
v -0.14233800 0.15655300 0.22489000
v -0.14233800 0.15655300 0.22489000
v -0.14233800 0.15655300 0.22489000
v -0.14261900 0.15683400 0.23064600
v -0.14261900 0.15683400 0.23064600
v -0.14261900 0.15683400 0.23064600
v -0.14132100 0.15553600 0.23611500
v -0.14132100 0.15553600 0.23611500
v -0.13864300 0.15285600 0.24046600
v -0.13864300 0.15285600 0.24046600
v -0.13499100 0.14920300 0.24303600
v -0.13499100 0.14920300 0.24303600
v -0.13499100 0.14920300 0.24303600
v -0.13092200 0.14513300 0.24343300
v -0.13092200 0.14513300 0.24343300
v -0.13092200 0.14513300 0.24343300
v -0.12705500 0.14126500 0.24159700
v -0.12705500 0.14126500 0.24159700
v -0.12552700 0.13298700 0.23980500
v -0.12552700 0.13298700 0.23980500
v -0.12330900 0.13076900 0.23349900
v -0.12296600 0.13042600 0.22647200
v -0.12455000 0.13201100 0.21979500
v -0.12782000 0.13528300 0.21448400
v -0.12782000 0.13528300 0.21448400
v -0.13227800 0.13974300 0.21134700
v -0.13724600 0.14471200 0.21086200
v -0.13724600 0.14471200 0.21086200
v -0.13724600 0.14471200 0.21086200
v -0.14196600 0.14943400 0.21310300
v -0.14196600 0.14943400 0.21310300
v -0.14572200 0.15319000 0.21772800
v -0.14572200 0.15319000 0.21772800
v -0.14572200 0.15319000 0.21772800
v -0.14794000 0.15540800 0.22403400
v -0.14794000 0.15540800 0.22403400
v -0.14828300 0.15575100 0.23106100
v -0.14828300 0.15575100 0.23106100
v -0.14669900 0.15416600 0.23773800
v -0.14669900 0.15416600 0.23773800
v -0.14669900 0.15416600 0.23773800
v -0.14342900 0.15089400 0.24304900
v -0.14342900 0.15089400 0.24304900
v -0.13897100 0.14643400 0.24618600
v -0.13400300 0.14146500 0.24667100
v -0.12928200 0.13674300 0.24443000
v -0.16239800 0.17129000 0.19390300
v -0.16239800 0.17129000 0.19390300
v -0.16239800 0.17129000 0.19390300
v -0.16355900 0.17245000 0.20216200
v -0.16355900 0.17245000 0.20216200
v -0.16686600 0.17575700 0.20916300
v -0.16686600 0.17575700 0.20916300
v -0.16686600 0.17575700 0.20916300
v -0.16673200 0.16695700 0.19390300
v -0.16673200 0.16695700 0.19390300
v -0.15929100 0.17439600 0.19390400
v -0.15929100 0.17439600 0.19390400
v -0.16789400 0.16812000 0.18564500
v -0.16045300 0.17555900 0.18564600
v -0.16045300 0.17555900 0.18564600
v -0.17120200 0.17142900 0.17864500
v -0.17120200 0.17142900 0.17864500
v -0.16376000 0.17886900 0.17864600
v -0.16376000 0.17886900 0.17864600
v -0.16376000 0.17886900 0.17864600
v -0.17615200 0.17638100 0.17396800
v -0.16871000 0.18382000 0.17396900
v -0.16871000 0.18382000 0.17396900
v -0.18199000 0.18222100 0.17232700
v -0.17454900 0.18966100 0.17232800
v -0.17454900 0.18966100 0.17232800
v -0.18782800 0.18806100 0.17397100
v -0.18038700 0.19550000 0.17397200
v -0.18038700 0.19550000 0.17397200
v -0.19277800 0.19301100 0.17865000
v -0.19277800 0.19301100 0.17865000
v -0.18533700 0.20045100 0.17865100
v -0.18533700 0.20045100 0.17865100
v -0.18533700 0.20045100 0.17865100
v -0.18864300 0.20375800 0.18565200
v -0.18864300 0.20375800 0.18565200
v -0.18980400 0.20491800 0.19391000
v -0.18980400 0.20491800 0.19391000
v -0.18864200 0.20375500 0.20216800
v -0.18864200 0.20375500 0.20216800
v -0.18533500 0.20044600 0.20916800
v -0.18533500 0.20044600 0.20916800
v -0.18533500 0.20044600 0.20916800
v -0.18782600 0.18805500 0.21384400
v -0.18038500 0.19549400 0.21384500
v -0.18038500 0.19549400 0.21384500
v -0.18198700 0.18221500 0.21548500
v -0.17454600 0.18965400 0.21548600
v -0.17454600 0.18965400 0.21548600
v -0.17614900 0.17637500 0.21384100
v -0.17614900 0.17637500 0.21384100
v -0.16870800 0.18381400 0.21384200
v -0.16870800 0.18381400 0.21384200
v -0.16375900 0.17886400 0.20916300
v -0.16375900 0.17886400 0.20916300
v -0.16375900 0.17886400 0.20916300
v -0.16045200 0.17555700 0.20216200
v -0.16045200 0.17555700 0.20216200
v -0.16217000 0.17711100 0.18660400
v -0.16217000 0.17711100 0.18660400
v -0.16217000 0.17711100 0.18660400
v -0.16114300 0.17608300 0.19390400
v -0.16114300 0.17608300 0.19390400
v -0.16509400 0.18003600 0.18041500
v -0.16509400 0.18003600 0.18041500
v -0.16947000 0.18441400 0.17628000
v -0.16947000 0.18441400 0.17628000
v -0.16947000 0.18441400 0.17628000
v -0.17463200 0.18957700 0.17482900
v -0.17463200 0.18957700 0.17482900
v -0.17979300 0.19474000 0.17628300
v -0.17979300 0.19474000 0.17628300
v -0.17979300 0.19474000 0.17628300
v -0.18416900 0.19911600 0.18041900
v -0.18416900 0.19911600 0.18041900
v -0.18709200 0.20204000 0.18660900
v -0.18709200 0.20204000 0.18660900
v -0.18709200 0.20204000 0.18660900
v -0.18811900 0.20306600 0.19391000
v -0.18811900 0.20306600 0.19391000
v -0.18709100 0.20203800 0.20121000
v -0.18709100 0.20203800 0.20121000
v -0.18709100 0.20203800 0.20121000
v -0.18416700 0.19911200 0.20739900
v -0.18416700 0.19911200 0.20739900
v -0.17979100 0.19473400 0.21153300
v -0.17979100 0.19473400 0.21153300
v -0.17979100 0.19473400 0.21153300
v -0.17462900 0.18957100 0.21298400
v -0.17462900 0.18957100 0.21298400
v -0.16946800 0.18440800 0.21153100
v -0.16946800 0.18440800 0.21153100
v -0.16946800 0.18440800 0.21153100
v -0.16509200 0.18003200 0.20739500
v -0.16509200 0.18003200 0.20739500
v -0.16216900 0.17710800 0.20120500
v -0.16216900 0.17710800 0.20120500
v -0.16216900 0.17710800 0.20120500
v -0.16207500 0.17903600 0.18714000
v -0.16207500 0.17903600 0.18714000
v -0.16207500 0.17903600 0.18714000
v -0.16112300 0.17808400 0.19390400
v -0.16112300 0.17808400 0.19390400
v -0.16478500 0.18174700 0.18140600
v -0.16478500 0.18174700 0.18140600
v -0.16883900 0.18580300 0.17757600
v -0.16883900 0.18580300 0.17757600
v -0.16883900 0.18580300 0.17757600
v -0.17362200 0.19058700 0.17623100
v -0.17362200 0.19058700 0.17623100
v -0.17840400 0.19537000 0.17757800
v -0.17840400 0.19537000 0.17757800
v -0.17840400 0.19537000 0.17757800
v -0.18245800 0.19942500 0.18141000
v -0.18245800 0.19942500 0.18141000
v -0.18516700 0.20213400 0.18714500
v -0.18516700 0.20213400 0.18714500
v -0.18516700 0.20213400 0.18714500
v -0.18611700 0.20308400 0.19391000
v -0.18611700 0.20308400 0.19391000
v -0.18516600 0.20213200 0.20067400
v -0.18516600 0.20213200 0.20067400
v -0.18516600 0.20213200 0.20067400
v -0.18245600 0.19942100 0.20640800
v -0.18245600 0.19942100 0.20640800
v -0.17840200 0.19536500 0.21023800
v -0.17840200 0.19536500 0.21023800
v -0.17840200 0.19536500 0.21023800
v -0.17361900 0.19058100 0.21158300
v -0.17361900 0.19058100 0.21158300
v -0.16883700 0.18579800 0.21023600
v -0.16883700 0.18579800 0.21023600
v -0.16883700 0.18579800 0.21023600
v -0.16478300 0.18174300 0.20640400
v -0.16478300 0.18174300 0.20640400
v -0.16207400 0.17903400 0.20066900
v -0.16207400 0.17903400 0.20066900
v -0.16207400 0.17903400 0.20066900
v -0.16356000 0.17245300 0.18564600
v -0.16686800 0.17576200 0.17864600
v -0.16686800 0.17576200 0.17864600
v -0.17181800 0.18071400 0.17396900
v -0.17765600 0.18655400 0.17232800
v -0.18349500 0.19239400 0.17397100
v -0.18844400 0.19734400 0.17865000
v -0.18844400 0.19734400 0.17865000
v -0.19175100 0.20065100 0.18565200
v -0.19291100 0.20181200 0.19391000
v -0.19175000 0.20064900 0.20216800
v -0.18844200 0.19733900 0.20916800
v -0.18844200 0.19733900 0.20916800
v -0.18349200 0.19238800 0.21384400
v -0.17765300 0.18654700 0.21548600
v -0.17181500 0.18070800 0.21384200
v -0.17181500 0.18070800 0.21384200
v -0.17181500 0.18070800 0.21384200
v -0.19724500 0.19747900 0.19391000
v -0.19608500 0.19631900 0.18565100
v -0.19277600 0.19300700 0.20916700
v -0.19277600 0.19300700 0.20916700
v -0.19608300 0.19631600 0.20216700
vn 0.55940000 -0.55960000 0.61150000
vn 0.55940000 -0.55960000 0.61150000
vn -0.73270000 -0.68000000 -0.02880000
vn 0.68230000 -0.68250000 0.26220000
vn -0.73840000 -0.67420000 -0.01240000
vn -0.73930000 -0.67330000 0.00590000
vn 0.70130000 -0.70150000 -0.12710000
vn 0.61350000 -0.61370000 -0.49700000
vn -0.73520000 -0.67740000 0.02330000
vn 0.43240000 -0.43240000 -0.79120000
vn 0.43240000 -0.43240000 -0.79120000
vn -0.72670000 -0.68590000 0.03710000
vn -0.71510000 -0.69750000 0.04520000
vn 0.18540000 -0.18540000 -0.96500000
vn -0.08980000 0.08990000 -0.99190000
vn -0.70220000 -0.71040000 0.04650000
vn -0.68990000 -0.72270000 0.04060000
vn -0.35130000 0.35150000 -0.86780000
vn -0.55940000 0.55960000 -0.61150000
vn -0.55940000 0.55960000 -0.61150000
vn -0.68020000 -0.73250000 0.02860000
vn -0.68230000 0.68250000 -0.26220000
vn -0.67440000 -0.73820000 0.01220000
vn -0.67350000 -0.73910000 -0.00600000
vn -0.70130000 0.70150000 0.12710000
vn -0.67760000 -0.73500000 -0.02340000
vn -0.61350000 0.61370000 0.49700000
vn -0.68610000 -0.72650000 -0.03720000
vn -0.43240000 0.43240000 0.79120000
vn -0.43240000 0.43240000 0.79120000
vn -0.69770000 -0.71490000 -0.04530000
vn -0.18540000 0.18540000 0.96500000
vn 0.08980000 -0.08990000 0.99190000
vn -0.71060000 -0.70200000 -0.04660000
vn 0.35130000 -0.35150000 0.86780000
vn -0.72290000 -0.68970000 -0.04080000
vn -0.00830000 -0.98230000 0.18710000
vn -0.73840000 -0.67420000 -0.01240000
vn -0.00830000 -0.98230000 0.18710000
vn -0.09600000 -0.89460000 0.43640000
vn -0.73270000 -0.68000000 -0.02880000
vn 0.00520000 -0.99590000 -0.09080000
vn -0.73930000 -0.67330000 0.00590000
vn 0.00520000 -0.99590000 -0.09080000
vn -0.05740000 -0.93320000 -0.35480000
vn -0.73520000 -0.67740000 0.02330000
vn -0.72670000 -0.68590000 0.03710000
vn -0.18670000 -0.80380000 -0.56480000
vn -0.36300000 -0.62750000 -0.68880000
vn -0.71510000 -0.69750000 0.04520000
vn -0.36300000 -0.62750000 -0.68880000
vn -0.55940000 -0.43100000 -0.70800000
vn -0.55940000 -0.43100000 -0.70800000
vn -0.70220000 -0.71040000 0.04650000
vn -0.68990000 -0.72270000 0.04060000
vn -0.74610000 -0.24430000 -0.61940000
vn -0.68020000 -0.73250000 0.02860000
vn -0.89460000 -0.09580000 -0.43650000
vn -0.98230000 -0.00810000 -0.18720000
vn -0.67440000 -0.73820000 0.01220000
vn -0.98230000 -0.00810000 -0.18720000
vn -0.67350000 -0.73910000 -0.00600000
vn -0.99590000 0.00550000 0.09070000
vn -0.99590000 0.00550000 0.09070000
vn -0.93320000 -0.05720000 0.35470000
vn -0.67760000 -0.73500000 -0.02340000
vn -0.68610000 -0.72650000 -0.03720000
vn -0.80390000 -0.18650000 0.56470000
vn -0.62770000 -0.36290000 0.68870000
vn -0.62770000 -0.36290000 0.68870000
vn -0.69770000 -0.71490000 -0.04530000
vn -0.43120000 -0.55940000 0.70790000
vn -0.43120000 -0.55940000 0.70790000
vn -0.71060000 -0.70200000 -0.04660000
vn -0.24450000 -0.74610000 0.61930000
vn -0.72290000 -0.68970000 -0.04080000
vn -0.70720000 -0.70700000 -0.00010000
vn -0.00830000 -0.98230000 0.18710000
vn -0.00830000 -0.98230000 0.18710000
vn -0.70720000 -0.70700000 -0.00010000
vn -0.09600000 -0.89460000 0.43640000
vn 0.00520000 -0.99590000 -0.09080000
vn 0.00520000 -0.99590000 -0.09080000
vn -0.70720000 -0.70700000 -0.00010000
vn -0.70720000 -0.70700000 -0.00010000
vn -0.05740000 -0.93320000 -0.35480000
vn -0.70720000 -0.70700000 -0.00010000
vn -0.18670000 -0.80380000 -0.56480000
vn -0.36300000 -0.62750000 -0.68880000
vn -0.36300000 -0.62750000 -0.68880000
vn -0.70720000 -0.70700000 -0.00010000
vn -0.70720000 -0.70700000 -0.00010000
vn -0.55940000 -0.43100000 -0.70800000
vn -0.55940000 -0.43100000 -0.70800000
vn -0.74610000 -0.24430000 -0.61940000
vn -0.70720000 -0.70700000 -0.00010000
vn -0.89460000 -0.09580000 -0.43650000
vn -0.70720000 -0.70700000 -0.00010000
vn -0.98230000 -0.00810000 -0.18720000
vn -0.70720000 -0.70700000 -0.00010000
vn -0.98230000 -0.00810000 -0.18720000
vn -0.70720000 -0.70700000 -0.00010000
vn -0.99590000 0.00550000 0.09070000
vn -0.99590000 0.00550000 0.09070000
vn -0.93320000 -0.05720000 0.35470000
vn -0.70720000 -0.70700000 -0.00010000
vn -0.70720000 -0.70700000 -0.00010000
vn -0.80390000 -0.18650000 0.56470000
vn -0.70720000 -0.70700000 -0.00010000
vn -0.62770000 -0.36290000 0.68870000
vn -0.62770000 -0.36290000 0.68870000
vn -0.70720000 -0.70700000 -0.00010000
vn -0.43120000 -0.55940000 0.70790000
vn -0.43120000 -0.55940000 0.70790000
vn -0.70720000 -0.70700000 -0.00010000
vn -0.24450000 -0.74610000 0.61930000
vn 0.55940000 -0.55960000 0.61150000
vn 0.55940000 -0.55960000 0.61150000
vn 0.68230000 -0.68250000 0.26220000
vn 0.70130000 -0.70150000 -0.12710000
vn 0.61350000 -0.61370000 -0.49700000
vn 0.43240000 -0.43240000 -0.79120000
vn 0.43240000 -0.43240000 -0.79120000
vn 0.18540000 -0.18540000 -0.96500000
vn 0.29740000 -0.29740000 -0.90720000
vn -0.69860000 -0.71470000 0.03420000
vn -0.04320000 0.04330000 -0.99810000
vn -0.35130000 0.35150000 -0.86780000
vn -0.69480000 -0.71870000 0.02700000
vn -0.68760000 -0.72590000 0.01530000
vn -0.55940000 0.55960000 -0.61150000
vn -0.55940000 0.55960000 -0.61150000
vn -0.68230000 0.68250000 -0.26220000
vn -0.68860000 -0.72500000 0.01580000
vn -0.68460000 -0.72890000 -0.00280000
vn -0.70130000 0.70150000 0.12710000
vn -0.58890000 0.58910000 0.55330000
vn -0.68190000 -0.73140000 -0.01190000
vn -0.38710000 0.38710000 0.83680000
vn -0.43240000 0.43240000 0.79120000
vn -0.43240000 0.43240000 0.79120000
vn -0.18540000 0.18540000 0.96500000
vn 0.08980000 -0.08990000 0.99190000
vn 0.35130000 -0.35150000 0.86780000
vn -0.68910000 -0.72450000 0.01640000
vn 0.70550000 -0.70560000 -0.06630000
vn 0.29740000 -0.29740000 -0.90720000
vn -0.68760000 -0.72590000 0.01530000
vn 0.65320000 -0.65340000 0.38250000
vn -0.68870000 -0.72490000 0.01580000
vn 0.50000000 -0.50020000 0.70700000
vn 0.50000000 -0.50020000 0.70700000
vn -0.73960000 -0.67300000 -0.00010000
vn 0.70700000 -0.70720000 -0.00020000
vn 0.65320000 -0.65330000 -0.38280000
vn -0.73710000 -0.67560000 0.01790000
vn -0.72990000 -0.68280000 0.03310000
vn 0.49990000 -0.50000000 -0.70720000
vn 0.49990000 -0.50000000 -0.70720000
vn 0.27050000 -0.27050000 -0.92390000
vn -0.71910000 -0.69350000 0.04330000
vn -0.70640000 -0.70620000 0.04690000
vn -0.00010000 0.00020000 -1.00000000
vn -0.27060000 0.27080000 -0.92380000
vn -0.69370000 -0.71890000 0.04330000
vn -0.50000000 0.50020000 -0.70700000
vn -0.50000000 0.50020000 -0.70700000
vn -0.68300000 -0.72970000 0.03310000
vn -0.67580000 -0.73690000 0.01790000
vn -0.65320000 0.65340000 -0.38250000
vn -0.70700000 0.70720000 0.00020000
vn -0.67330000 -0.73940000 -0.00010000
vn -0.67580000 -0.73690000 -0.01800000
vn -0.65320000 0.65330000 0.38280000
vn -0.49990000 0.50000000 0.70720000
vn -0.68300000 -0.72970000 -0.03320000
vn -0.49990000 0.50000000 0.70720000
vn -0.69370000 -0.71890000 -0.04340000
vn -0.27050000 0.27050000 0.92390000
vn -0.70640000 -0.70620000 -0.04700000
vn 0.00010000 -0.00020000 1.00000000
vn -0.71910000 -0.69350000 -0.04340000
vn 0.27060000 -0.27080000 0.92380000
vn 0.50000000 -0.50020000 0.70700000
vn -0.72990000 -0.68280000 -0.03320000
vn 0.50000000 -0.50020000 0.70700000
vn 0.65320000 -0.65340000 0.38250000
vn -0.73710000 -0.67560000 -0.01800000
vn -0.02910000 -0.96150000 -0.27330000
vn -0.73710000 -0.67560000 0.01790000
vn -0.02910000 -0.96150000 -0.27330000
vn 0.00930000 -1.00000000 -0.00020000
vn -0.73960000 -0.67300000 -0.00010000
vn -0.13850000 -0.85200000 -0.50480000
vn -0.72990000 -0.68280000 0.03310000
vn -0.71910000 -0.69350000 0.04330000
vn -0.30220000 -0.68820000 -0.65950000
vn -0.30220000 -0.68820000 -0.65950000
vn -0.49540000 -0.49510000 -0.71380000
vn -0.70640000 -0.70620000 0.04690000
vn -0.69370000 -0.71890000 0.04330000
vn -0.68850000 -0.30190000 -0.65940000
vn -0.68850000 -0.30190000 -0.65940000
vn -0.68300000 -0.72970000 0.03310000
vn -0.85220000 -0.13820000 -0.50470000
vn -0.67580000 -0.73690000 0.01790000
vn -0.96160000 -0.02880000 -0.27310000
vn -0.96160000 -0.02880000 -0.27310000
vn -1.00000000 0.00960000 0.00010000
vn -0.67330000 -0.73940000 -0.00010000
vn -0.67580000 -0.73690000 -0.01800000
vn -0.96150000 -0.02890000 0.27320000
vn -0.96150000 -0.02890000 0.27320000
vn -0.68300000 -0.72970000 -0.03320000
vn -0.85210000 -0.13830000 0.50470000
vn -0.69370000 -0.71890000 -0.04340000
vn -0.68840000 -0.30210000 0.65940000
vn -0.68840000 -0.30210000 0.65940000
vn -0.49530000 -0.49530000 0.71370000
vn -0.70640000 -0.70620000 -0.04700000
vn -0.71910000 -0.69350000 -0.04340000
vn -0.30220000 -0.68850000 0.65930000
vn -0.30220000 -0.68850000 0.65930000
vn -0.72990000 -0.68280000 -0.03320000
vn -0.13850000 -0.85220000 0.50460000
vn -0.02910000 -0.96160000 0.27300000
vn -0.02910000 -0.96160000 0.27300000
vn -0.73710000 -0.67560000 -0.01800000
vn -0.02910000 -0.96150000 -0.27330000
vn -0.02910000 -0.96150000 -0.27330000
vn -0.70720000 -0.70700000 -0.00010000
vn -0.70720000 -0.70700000 -0.00010000
vn 0.00930000 -1.00000000 -0.00020000
vn -0.13850000 -0.85200000 -0.50480000
vn -0.70720000 -0.70700000 -0.00010000
vn -0.30220000 -0.68820000 -0.65950000
vn -0.30220000 -0.68820000 -0.65950000
vn -0.70720000 -0.70700000 -0.00010000
vn -0.70720000 -0.70700000 -0.00010000
vn -0.49540000 -0.49510000 -0.71380000
vn -0.68850000 -0.30190000 -0.65940000
vn -0.70720000 -0.70700000 -0.00010000
vn -0.68850000 -0.30190000 -0.65940000
vn -0.70720000 -0.70700000 -0.00010000
vn -0.85220000 -0.13820000 -0.50470000
vn -0.96160000 -0.02880000 -0.27310000
vn -0.70720000 -0.70700000 -0.00010000
vn -0.96160000 -0.02880000 -0.27310000
vn -0.70720000 -0.70700000 -0.00010000
vn -1.00000000 0.00960000 0.00010000
vn -0.96150000 -0.02890000 0.27320000
vn -0.70720000 -0.70700000 -0.00010000
vn -0.96150000 -0.02890000 0.27320000
vn -0.85210000 -0.13830000 0.50470000
vn -0.70720000 -0.70700000 -0.00010000
vn -0.68840000 -0.30210000 0.65940000
vn -0.70720000 -0.70700000 -0.00010000
vn -0.68840000 -0.30210000 0.65940000
vn -0.70720000 -0.70700000 -0.00010000
vn -0.49530000 -0.49530000 0.71370000
vn -0.30220000 -0.68850000 0.65930000
vn -0.70720000 -0.70700000 -0.00010000
vn -0.30220000 -0.68850000 0.65930000
vn -0.13850000 -0.85220000 0.50460000
vn -0.70720000 -0.70700000 -0.00010000
vn -0.70720000 -0.70700000 -0.00010000
vn -0.02910000 -0.96160000 0.27300000
vn -0.02910000 -0.96160000 0.27300000
vn 0.65320000 -0.65330000 -0.38280000
vn 0.49990000 -0.50000000 -0.70720000
vn 0.49990000 -0.50000000 -0.70720000
vn 0.27050000 -0.27050000 -0.92390000
vn -0.00010000 0.00020000 -1.00000000
vn -0.27060000 0.27080000 -0.92380000
vn -0.50000000 0.50020000 -0.70700000
vn -0.50000000 0.50020000 -0.70700000
vn -0.65320000 0.65340000 -0.38250000
vn -0.70700000 0.70720000 0.00020000
vn -0.65320000 0.65330000 0.38280000
vn -0.49990000 0.50000000 0.70720000
vn -0.49990000 0.50000000 0.70720000
vn -0.27050000 0.27050000 0.92390000
vn 0.00010000 -0.00020000 1.00000000
vn -0.68900000 -0.72460000 0.01280000
vn -0.38710000 0.38710000 0.83680000
vn 0.22680000 -0.22700000 0.94710000
vn 0.55940000 -0.55960000 0.61150000
vn 0.55940000 -0.55960000 0.61150000
vn 0.68020000 0.73250000 -0.02860000
vn 0.55940000 -0.55960000 0.61150000
vn 0.55940000 -0.55960000 0.61150000
vn 0.68230000 -0.68250000 0.26220000
vn 0.68230000 -0.68250000 0.26220000
vn 0.67440000 0.73830000 -0.01220000
vn 0.70130000 -0.70150000 -0.12710000
vn 0.70130000 -0.70150000 -0.12710000
vn 0.67350000 0.73910000 0.00600000
vn 0.61350000 -0.61370000 -0.49700000
vn 0.67760000 0.73500000 0.02340000
vn 0.61350000 -0.61370000 -0.49700000
vn 0.43240000 -0.43240000 -0.79120000
vn 0.43240000 -0.43240000 -0.79120000
vn 0.43240000 -0.43240000 -0.79120000
vn 0.43240000 -0.43240000 -0.79120000
vn 0.68610000 0.72650000 0.03720000
vn 0.18540000 -0.18540000 -0.96500000
vn 0.69770000 0.71490000 0.04530000
vn 0.18540000 -0.18540000 -0.96500000
vn 0.04870000 -0.04870000 -0.99760000
vn 0.29740000 -0.29740000 -0.90720000
vn -0.08980000 0.08990000 -0.99190000
vn 0.71060000 0.70200000 0.04660000
vn 0.72290000 0.68970000 0.04080000
vn -0.35130000 0.35150000 -0.86780000
vn 0.73270000 0.68000000 0.02880000
vn -0.55940000 0.55960000 -0.61150000
vn -0.55940000 0.55960000 -0.61150000
vn 0.73840000 0.67420000 0.01240000
vn -0.68230000 0.68250000 -0.26220000
vn -0.70130000 0.70150000 0.12710000
vn 0.73930000 0.67330000 -0.00590000
vn -0.38710000 0.38710000 0.83680000
vn -0.53320000 0.53330000 0.65670000
vn 0.73520000 0.67740000 -0.02330000
vn -0.61350000 0.61370000 0.49700000
vn -0.43240000 0.43240000 0.79120000
vn -0.43240000 0.43240000 0.79120000
vn -0.43240000 0.43240000 0.79120000
vn 0.72670000 0.68590000 -0.03710000
vn -0.43240000 0.43240000 0.79120000
vn -0.18540000 0.18540000 0.96500000
vn 0.71510000 0.69750000 -0.04520000
vn -0.18540000 0.18540000 0.96500000
vn 0.08980000 -0.08990000 0.99190000
vn 0.08980000 -0.08990000 0.99190000
vn 0.70220000 0.71040000 -0.04650000
vn 0.35130000 -0.35150000 0.86780000
vn 0.68990000 0.72270000 -0.04060000
vn 0.35130000 -0.35150000 0.86780000
vn 0.67440000 0.73830000 -0.01220000
vn 0.98230000 0.00800000 0.18720000
vn 0.98230000 0.00800000 0.18720000
vn 0.68020000 0.73250000 -0.02860000
vn 0.89460000 0.09580000 0.43650000
vn 0.99590000 -0.00550000 -0.09070000
vn 0.67350000 0.73910000 0.00600000
vn 0.99590000 -0.00550000 -0.09070000
vn 0.93320000 0.05720000 -0.35470000
vn 0.67760000 0.73500000 0.02340000
vn 0.80390000 0.18650000 -0.56470000
vn 0.68610000 0.72650000 0.03720000
vn 0.62760000 0.36290000 -0.68870000
vn 0.62760000 0.36290000 -0.68870000
vn 0.69770000 0.71490000 0.04530000
vn 0.43120000 0.55940000 -0.70790000
vn 0.71060000 0.70200000 0.04660000
vn 0.43120000 0.55940000 -0.70790000
vn 0.24450000 0.74610000 -0.61930000
vn 0.72290000 0.68970000 0.04080000
vn 0.73270000 0.68000000 0.02880000
vn 0.09600000 0.89460000 -0.43640000
vn 0.73840000 0.67420000 0.01240000
vn 0.00830000 0.98230000 -0.18710000
vn 0.00830000 0.98230000 -0.18710000
vn -0.00520000 0.99590000 0.09080000
vn -0.00520000 0.99590000 0.09080000
vn 0.73930000 0.67330000 -0.00590000
vn 0.73520000 0.67740000 -0.02330000
vn 0.05740000 0.93320000 0.35480000
vn 0.72670000 0.68590000 -0.03710000
vn 0.18670000 0.80380000 0.56480000
vn 0.71510000 0.69750000 -0.04520000
vn 0.36300000 0.62750000 0.68890000
vn 0.36300000 0.62750000 0.68890000
vn 0.70220000 0.71040000 -0.04650000
vn 0.55940000 0.43100000 0.70800000
vn 0.55940000 0.43100000 0.70800000
vn 0.68990000 0.72270000 -0.04060000
vn 0.74610000 0.24430000 0.61940000
vn 0.70720000 0.70700000 0.00010000
vn 0.98230000 0.00800000 0.18720000
vn 0.98230000 0.00800000 0.18720000
vn 0.70720000 0.70700000 0.00010000
vn 0.89460000 0.09580000 0.43650000
vn 0.99590000 -0.00550000 -0.09070000
vn 0.99590000 -0.00550000 -0.09070000
vn 0.70720000 0.70700000 0.00010000
vn 0.70720000 0.70700000 0.00010000
vn 0.93320000 0.05720000 -0.35470000
vn 0.80390000 0.18650000 -0.56470000
vn 0.70720000 0.70700000 0.00010000
vn 0.62770000 0.36290000 -0.68870000
vn 0.70720000 0.70700000 0.00010000
vn 0.62770000 0.36290000 -0.68870000
vn 0.70720000 0.70700000 0.00010000
vn 0.43120000 0.55940000 -0.70790000
vn 0.43120000 0.55940000 -0.70790000
vn 0.70720000 0.70700000 0.00010000
vn 0.24450000 0.74610000 -0.61930000
vn 0.09600000 0.89460000 -0.43640000
vn 0.70720000 0.70700000 0.00010000
vn 0.00830000 0.98230000 -0.18710000
vn 0.00830000 0.98230000 -0.18710000
vn 0.70720000 0.70700000 0.00010000
vn -0.00520000 0.99590000 0.09080000
vn -0.00520000 0.99590000 0.09080000
vn 0.70720000 0.70700000 0.00010000
vn 0.05740000 0.93320000 0.35480000
vn 0.70720000 0.70700000 0.00010000
vn 0.70720000 0.70700000 0.00010000
vn 0.18670000 0.80380000 0.56480000
vn 0.36300000 0.62750000 0.68890000
vn 0.70720000 0.70700000 0.00010000
vn 0.36300000 0.62750000 0.68890000
vn 0.70720000 0.70700000 0.00010000
vn 0.55940000 0.43100000 0.70800000
vn 0.55940000 0.43100000 0.70800000
vn 0.70720000 0.70700000 0.00010000
vn 0.74610000 0.24430000 0.61940000
vn 0.55940000 -0.55960000 0.61150000
vn 0.55940000 -0.55960000 0.61150000
vn 0.68230000 -0.68250000 0.26220000
vn 0.70130000 -0.70150000 -0.12710000
vn 0.61350000 -0.61370000 -0.49700000
vn 0.43240000 -0.43240000 -0.79120000
vn 0.43240000 -0.43240000 -0.79120000
vn 0.18540000 -0.18540000 -0.96500000
vn -0.04320000 0.04330000 -0.99810000
vn 0.29740000 -0.29740000 -0.90720000
vn 0.71490000 0.69840000 0.03430000
vn -0.35130000 0.35150000 -0.86780000
vn 0.71890000 0.69460000 0.02710000
vn 0.72610000 0.68740000 0.01540000
vn -0.55940000 0.55960000 -0.61150000
vn -0.55940000 0.55960000 -0.61150000
vn -0.68230000 0.68250000 -0.26220000
vn 0.72510000 0.68840000 0.01590000
vn 0.72910000 0.68440000 -0.00260000
vn -0.70130000 0.70150000 0.12710000
vn -0.38710000 0.38710000 0.83680000
vn 0.73160000 0.68170000 -0.01170000
vn -0.58890000 0.58910000 0.55330000
vn -0.43240000 0.43240000 0.79120000
vn -0.43240000 0.43240000 0.79120000
vn -0.18540000 0.18540000 0.96500000
vn 0.08980000 -0.08990000 0.99190000
vn 0.35130000 -0.35150000 0.86780000
vn 0.72470000 0.68890000 0.01650000
vn 0.70550000 -0.70560000 -0.06630000
vn 0.29740000 -0.29740000 -0.90720000
vn 0.65320000 -0.65340000 0.38250000
vn 0.72610000 0.68740000 0.01540000
vn 0.50000000 -0.50020000 0.70700000
vn 0.72510000 0.68850000 0.01590000
vn 0.50000000 -0.50020000 0.70700000
vn 0.29740000 -0.29740000 -0.90720000
vn 0.69340000 -0.69360000 -0.19520000
vn 0.70700000 -0.70720000 -0.00020000
vn 0.67330000 0.73940000 0.00010000
vn 0.65320000 -0.65330000 -0.38280000
vn 0.67580000 0.73690000 0.01800000
vn 0.65320000 -0.65330000 -0.38280000
vn 0.49990000 -0.50000000 -0.70720000
vn 0.49990000 -0.50000000 -0.70720000
vn 0.49990000 -0.50000000 -0.70720000
vn 0.49990000 -0.50000000 -0.70720000
vn 0.68300000 0.72970000 0.03320000
vn 0.27050000 -0.27050000 -0.92390000
vn 0.27050000 -0.27050000 -0.92390000
vn 0.69370000 0.71890000 0.04340000
vn -0.00010000 0.00020000 -1.00000000
vn -0.00010000 0.00020000 -1.00000000
vn 0.70640000 0.70620000 0.04700000
vn -0.27060000 0.27080000 -0.92380000
vn 0.71910000 0.69350000 0.04340000
vn -0.27060000 0.27080000 -0.92380000
vn -0.50000000 0.50020000 -0.70700000
vn -0.50000000 0.50020000 -0.70700000
vn -0.50000000 0.50020000 -0.70700000
vn -0.50000000 0.50020000 -0.70700000
vn 0.72990000 0.68280000 0.03320000
vn 0.73710000 0.67560000 0.01800000
vn -0.65320000 0.65340000 -0.38250000
vn -0.70700000 0.70720000 0.00020000
vn 0.73960000 0.67300000 0.00010000
vn 0.73710000 0.67560000 -0.01790000
vn -0.65320000 0.65330000 0.38280000
vn 0.72990000 0.68280000 -0.03310000
vn -0.49990000 0.50000000 0.70720000
vn -0.49990000 0.50000000 0.70720000
vn -0.27050000 0.27050000 0.92390000
vn -0.27050000 0.27050000 0.92390000
vn 0.71910000 0.69350000 -0.04330000
vn 0.00010000 -0.00020000 1.00000000
vn 0.70640000 0.70620000 -0.04690000
vn 0.00010000 -0.00020000 1.00000000
vn 0.13800000 -0.13810000 0.98080000
vn -0.38710000 0.38710000 0.83680000
vn 0.27060000 -0.27080000 0.92380000
vn 0.69370000 0.71890000 -0.04330000
vn 0.68300000 0.72970000 -0.03310000
vn 0.50000000 -0.50020000 0.70700000
vn 0.50000000 -0.50020000 0.70700000
vn 0.65320000 -0.65340000 0.38250000
vn 0.67580000 0.73690000 -0.01790000
vn 0.67580000 0.73690000 0.01800000
vn 0.96150000 0.02890000 -0.27320000
vn 0.96150000 0.02890000 -0.27320000
vn 0.67330000 0.73940000 0.00010000
vn 1.00000000 -0.00960000 -0.00010000
vn 0.85210000 0.13830000 -0.50470000
vn 0.68300000 0.72970000 0.03320000
vn 0.68840000 0.30210000 -0.65940000
vn 0.69370000 0.71890000 0.04340000
vn 0.68840000 0.30210000 -0.65940000
vn 0.49530000 0.49530000 -0.71370000
vn 0.70640000 0.70620000 0.04700000
vn 0.30220000 0.68850000 -0.65930000
vn 0.30220000 0.68850000 -0.65930000
vn 0.71910000 0.69350000 0.04340000
vn 0.72990000 0.68280000 0.03320000
vn 0.13850000 0.85220000 -0.50460000
vn 0.02910000 0.96160000 -0.27300000
vn 0.02910000 0.96160000 -0.27300000
vn 0.73710000 0.67560000 0.01800000
vn -0.00930000 1.00000000 0.00020000
vn 0.73960000 0.67300000 0.00010000
vn 0.02910000 0.96150000 0.27330000
vn 0.02910000 0.96150000 0.27330000
vn 0.73710000 0.67560000 -0.01790000
vn 0.72990000 0.68280000 -0.03310000
vn 0.13850000 0.85200000 0.50480000
vn 0.30220000 0.68830000 0.65950000
vn 0.30220000 0.68830000 0.65950000
vn 0.71910000 0.69350000 -0.04330000
vn 0.70640000 0.70620000 -0.04690000
vn 0.49540000 0.49510000 0.71380000
vn 0.68850000 0.30190000 0.65940000
vn 0.68850000 0.30190000 0.65940000
vn 0.69370000 0.71890000 -0.04330000
vn 0.85220000 0.13820000 0.50470000
vn 0.68300000 0.72970000 -0.03310000
vn 0.67580000 0.73690000 -0.01790000
vn 0.96160000 0.02880000 0.27310000
vn 0.96160000 0.02880000 0.27310000
vn 0.70720000 0.70700000 0.00010000
vn 0.96150000 0.02890000 -0.27320000
vn 0.96150000 0.02890000 -0.27320000
vn 1.00000000 -0.00960000 -0.00010000
vn 0.70720000 0.70700000 0.00010000
vn 0.85210000 0.13830000 -0.50470000
vn 0.70720000 0.70700000 0.00010000
vn 0.70720000 0.70700000 0.00010000
vn 0.68840000 0.30210000 -0.65940000
vn 0.68840000 0.30210000 -0.65940000
vn 0.70720000 0.70700000 0.00010000
vn 0.49530000 0.49530000 -0.71370000
vn 0.30220000 0.68850000 -0.65930000
vn 0.70720000 0.70700000 0.00010000
vn 0.30220000 0.68850000 -0.65930000
vn 0.13850000 0.85220000 -0.50460000
vn 0.70720000 0.70700000 0.00010000
vn 0.70720000 0.70700000 0.00010000
vn 0.02910000 0.96160000 -0.27300000
vn 0.02910000 0.96160000 -0.27300000
vn 0.70720000 0.70700000 0.00010000
vn -0.00930000 1.00000000 0.00020000
vn 0.02910000 0.96150000 0.27330000
vn 0.70720000 0.70700000 0.00010000
vn 0.02910000 0.96150000 0.27330000
vn 0.13850000 0.85200000 0.50480000
vn 0.70720000 0.70700000 0.00010000
vn 0.30220000 0.68830000 0.65950000
vn 0.70720000 0.70700000 0.00010000
vn 0.30220000 0.68830000 0.65950000
vn 0.49540000 0.49510000 0.71380000
vn 0.70720000 0.70700000 0.00010000
vn 0.70720000 0.70700000 0.00010000
vn 0.68850000 0.30190000 0.65940000
vn 0.68850000 0.30190000 0.65940000
vn 0.85220000 0.13820000 0.50470000
vn 0.70720000 0.70700000 0.00010000
vn 0.70720000 0.70700000 0.00010000
vn 0.96160000 0.02880000 0.27310000
vn 0.96160000 0.02880000 0.27310000
vn 0.65320000 -0.65330000 -0.38280000
vn 0.49990000 -0.50000000 -0.70720000
vn 0.49990000 -0.50000000 -0.70720000
vn 0.27050000 -0.27050000 -0.92390000
vn -0.00010000 0.00020000 -1.00000000
vn -0.27060000 0.27080000 -0.92380000
vn -0.50000000 0.50020000 -0.70700000
vn -0.50000000 0.50020000 -0.70700000
vn -0.65320000 0.65340000 -0.38250000
vn -0.70700000 0.70720000 0.00020000
vn -0.65320000 0.65330000 0.38280000
vn -0.49990000 0.50000000 0.70720000
vn -0.49990000 0.50000000 0.70720000
vn -0.27050000 0.27050000 0.92390000
vn 0.00010000 -0.00020000 1.00000000
vn 0.72480000 0.68880000 0.01290000
vn 0.22680000 -0.22700000 0.94710000
vn -0.38710000 0.38710000 0.83680000
vn -0.70700000 0.70720000 0.00020000
vn -0.65320000 0.65340000 -0.38250000
vn -0.49990000 0.50000000 0.70720000
vn -0.49990000 0.50000000 0.70720000
vn -0.65320000 0.65330000 0.38280000
vt 0.16574600 0.93333600
vt 0.83758400 0.90430800
vt 0.37552700 0.74743800
vt 0.16575300 0.92713000
vt 0.36915400 0.74480400
vt 0.36225500 0.74480400
vt 0.16575400 0.92025600
vt 0.16574900 0.91376100
vt 0.35588100 0.74743900
vt 0.16573800 0.90863300
vt 0.08195800 0.82232100
vt 0.35100300 0.75230700
vt 0.34836300 0.75866700
vt 0.08195800 0.81615800
vt 0.08195800 0.80929000
vt 0.34836300 0.76555100
vt 0.35100300 0.77191200
vt 0.08195800 0.80276300
vt 0.08195800 0.79757100
vt 0.08196700 0.91898800
vt 0.35588100 0.77678000
vt 0.08195900 0.91286900
vt 0.36225500 0.77941400
vt 0.36915400 0.77941400
vt 0.08195800 0.90600800
vt 0.37552700 0.77677900
vt 0.08196300 0.89945100
vt 0.38040500 0.77191100
vt 0.08197300 0.89419600
vt 0.83758400 0.92905900
vt 0.38304500 0.76555100
vt 0.83758400 0.92289500
vt 0.83758400 0.91602700
vt 0.38304500 0.75866600
vt 0.83758400 0.90950000
vt 0.38040500 0.75230600
vt 0.40681300 0.72258200
vt 0.36875500 0.74681000
vt 0.36875500 0.74681000
vt 0.37439000 0.74913900
vt 0.37439000 0.74913900
vt 0.36265600 0.74681000
vt 0.36265600 0.74681000
vt 0.40681300 0.71650500
vt 0.35702200 0.74913900
vt 0.35702200 0.74913900
vt 0.35270900 0.75344300
vt 0.35270900 0.75344300
vt 0.98385000 0.12516400
vt 0.35037500 0.75906600
vt 0.35037500 0.75906600
vt 0.35037500 0.76515200
vt 0.98385000 0.11909200
vt 0.35037500 0.76515200
vt 0.35270900 0.77077500
vt 0.35270900 0.77077500
vt 0.35702100 0.77507900
vt 0.35702100 0.77507900
vt 0.77974600 0.98413400
vt 0.36265600 0.77740800
vt 0.36265600 0.77740800
vt 0.36875500 0.77740800
vt 0.77974600 0.99019900
vt 0.36875500 0.77740800
vt 0.37439000 0.77507900
vt 0.37439000 0.77507900
vt 0.37870200 0.77077500
vt 0.37870200 0.77077500
vt 0.38103600 0.76515200
vt 0.98659400 0.70227700
vt 0.38103600 0.76515200
vt 0.98659400 0.69620500
vt 0.38103600 0.75906600
vt 0.38103600 0.75906600
vt 0.37870200 0.75344300
vt 0.37870200 0.75344300
vt 0.36851400 0.74793300
vt 0.36851400 0.74793300
vt 0.40564000 0.72229700
vt 0.37373500 0.75009100
vt 0.37373500 0.75009100
vt 0.36286400 0.74793300
vt 0.40564000 0.71666600
vt 0.36286400 0.74793300
vt 0.35764300 0.75009100
vt 0.35764300 0.75009100
vt 0.35364700 0.75407900
vt 0.35364700 0.75407900
vt 0.35148500 0.75928800
vt 0.98268000 0.12486300
vt 0.35148500 0.75928800
vt 0.35148500 0.76492800
vt 0.98268000 0.11923800
vt 0.35148500 0.76492800
vt 0.35364700 0.77013700
vt 0.35364700 0.77013700
vt 0.35764300 0.77412500
vt 0.35764300 0.77412500
vt 0.78091400 0.98445000
vt 0.36286400 0.77628300
vt 0.36286400 0.77628300
vt 0.36851400 0.77628300
vt 0.36851400 0.77628300
vt 0.78091400 0.99007000
vt 0.37373500 0.77412500
vt 0.37373500 0.77412500
vt 0.37773100 0.77013700
vt 0.37773100 0.77013700
vt 0.37989300 0.76492700
vt 0.37989300 0.76492700
vt 0.98542400 0.70197600
vt 0.37989300 0.75928800
vt 0.37989300 0.75928800
vt 0.98542400 0.69635000
vt 0.37773100 0.75407800
vt 0.37773100 0.75407800
vt 0.84118400 0.90430800
vt 0.16934700 0.93333600
vt 0.16935300 0.92713000
vt 0.16935400 0.92025600
vt 0.16934900 0.91376100
vt 0.16933900 0.90863300
vt 0.08555900 0.82232100
vt 0.08555900 0.81615800
vt 0.08555900 0.80929000
vt 0.78118500 0.38508900
vt 0.08555900 0.80929000
vt 0.08555900 0.80276300
vt 0.77630700 0.38022100
vt 0.76993300 0.37758700
vt 0.08556700 0.91898800
vt 0.08555900 0.79757100
vt 0.08556000 0.91286900
vt 0.76303400 0.37758700
vt 0.75666100 0.38022100
vt 0.08555900 0.90600800
vt 0.08556300 0.89945100
vt 0.75178300 0.38508900
vt 0.71686300 0.35902500
vt 0.84118400 0.92905900
vt 0.08557300 0.89419600
vt 0.84118400 0.92289500
vt 0.84118400 0.91602700
vt 0.84118400 0.90950000
vt 0.78011000 0.34569000
vt 0.71354100 0.24636200
vt 0.08457700 0.77353800
vt 0.77215200 0.34784800
vt 0.71354500 0.23826900
vt 0.76397200 0.34680400
vt 0.71588100 0.38788300
vt 0.71355500 0.23136200
vt 0.23113600 0.64556300
vt 0.71784500 0.24636200
vt 0.71784900 0.25441100
vt 0.22351600 0.64871300
vt 0.21768500 0.65453200
vt 0.48745600 0.89727200
vt 0.71785900 0.26118800
vt 0.48745600 0.89042900
vt 0.21452900 0.66213600
vt 0.21452900 0.67036500
vt 0.48745600 0.88235700
vt 0.48745600 0.87428500
vt 0.21768500 0.67796900
vt 0.48745600 0.86744200
vt 0.73746400 0.26118800
vt 0.22351600 0.68378800
vt 0.23113600 0.68693800
vt 0.73745400 0.25441000
vt 0.73745100 0.24636200
vt 0.23938300 0.68693800
vt 0.24700200 0.68378900
vt 0.73745400 0.23826800
vt 0.71157700 0.41771200
vt 0.25283300 0.67796900
vt 0.73746400 0.23136100
vt 0.25598900 0.67036600
vt 0.71157700 0.41086900
vt 0.25598900 0.66213600
vt 0.71157700 0.40279700
vt 0.25283300 0.65453200
vt 0.71157700 0.39472600
vt 0.71785900 0.23136200
vt 0.24700200 0.64871300
vt 0.71157700 0.38788300
vt 0.71784900 0.23826900
vt 0.23938300 0.64556300
vt 0.32583400 0.25818200
vt 0.22487900 0.65074600
vt 0.22487900 0.65074600
vt 0.32583100 0.25106700
vt 0.23161500 0.64796100
vt 0.21972400 0.65589100
vt 0.21972400 0.65589100
vt 0.21693400 0.66261200
vt 0.21693400 0.66261200
vt 0.96583200 0.71047700
vt 0.96583200 0.70334100
vt 0.21693400 0.66988800
vt 0.21972400 0.67661000
vt 0.96583200 0.69620500
vt 0.21972400 0.67661000
vt 0.22487900 0.68175500
vt 0.22487900 0.68175500
vt 0.23161500 0.68454000
vt 0.23161500 0.68454000
vt 0.96797900 0.78227000
vt 0.96797600 0.77515500
vt 0.23890600 0.68454000
vt 0.24564200 0.68175500
vt 0.96797900 0.76800000
vt 0.24564200 0.68175500
vt 0.25079800 0.67661100
vt 0.25079800 0.67661100
vt 0.25358800 0.66988900
vt 0.25358800 0.66988900
vt 0.89056500 0.63524100
vt 0.89056500 0.64237700
vt 0.25358800 0.66261300
vt 0.25079800 0.65589100
vt 0.89056500 0.64951300
vt 0.25079800 0.65589100
vt 0.24564200 0.65074600
vt 0.24564200 0.65074600
vt 0.32583400 0.24391100
vt 0.23890600 0.64796100
vt 0.23890600 0.64796100
vt 0.22562200 0.65188600
vt 0.32723600 0.25764000
vt 0.22562200 0.65188600
vt 0.23186300 0.64930600
vt 0.32723300 0.25104700
vt 0.22084500 0.65665300
vt 0.22084500 0.65665300
vt 0.21826000 0.66288100
vt 0.96443300 0.70995300
vt 0.21826000 0.66288100
vt 0.21826000 0.66962200
vt 0.96443300 0.70334100
vt 0.96443300 0.69672900
vt 0.22084500 0.67585000
vt 0.22084500 0.67585000
vt 0.22562200 0.68061700
vt 0.22562200 0.68061700
vt 0.23186300 0.68319700
vt 0.23186300 0.68319700
vt 0.96658300 0.78172800
vt 0.23861800 0.68319700
vt 0.96658000 0.77513600
vt 0.24486000 0.68061700
vt 0.24486000 0.68061700
vt 0.96658300 0.76850600
vt 0.24963600 0.67585100
vt 0.24963600 0.67585100
vt 0.89196400 0.63576500
vt 0.25222100 0.66962200
vt 0.25222100 0.66962200
vt 0.25222100 0.66288100
vt 0.89196400 0.64237700
vt 0.24963600 0.65665300
vt 0.24963600 0.65665300
vt 0.89196400 0.64898800
vt 0.24486000 0.65188600
vt 0.24486000 0.65188600
vt 0.23861800 0.64930600
vt 0.32723600 0.24441800
vt 0.23861800 0.64930600
vt 0.71354500 0.25441100
vt 0.71355500 0.26118800
vt 0.49176000 0.89727200
vt 0.49176000 0.89042900
vt 0.49176000 0.88235700
vt 0.49176000 0.87428500
vt 0.74176900 0.26118800
vt 0.49176000 0.86744200
vt 0.74175800 0.25441000
vt 0.74175500 0.24636200
vt 0.74175800 0.23826800
vt 0.71588100 0.41771200
vt 0.74176900 0.23136100
vt 0.71588100 0.41086900
vt 0.71588100 0.40279700
vt 0.75681400 0.34271500
vt 0.71588100 0.39472600
vt 0.71588100 0.39472600
vt 0.84620600 0.90430800
vt 0.17436800 0.93333600
vt 0.67665800 0.74270400
vt 0.18299000 0.93333600
vt 0.85482800 0.90430800
vt 0.17437500 0.92713000
vt 0.18299700 0.92713000
vt 0.68153600 0.74757200
vt 0.17437600 0.92025600
vt 0.18299800 0.92025600
vt 0.68417700 0.75393100
vt 0.17437100 0.91376100
vt 0.68417700 0.76081500
vt 0.18299300 0.91376100
vt 0.17436000 0.90863300
vt 0.09058000 0.82232100
vt 0.18298200 0.90863300
vt 0.09920200 0.82232100
vt 0.68153600 0.76717500
vt 0.09058000 0.81615800
vt 0.67665800 0.77204200
vt 0.09920200 0.81615800
vt 0.09058000 0.80929000
vt 0.09058000 0.80929000
vt 0.09920200 0.80929000
vt 0.67028400 0.77467700
vt 0.66338400 0.77467700
vt 0.09920200 0.80276300
vt 0.65701000 0.77204300
vt 0.09921000 0.91898800
vt 0.09920200 0.79757100
vt 0.65213200 0.76717600
vt 0.09920300 0.91286900
vt 0.09920200 0.90600800
vt 0.64949100 0.76081600
vt 0.72188400 0.35902500
vt 0.09058500 0.89945100
vt 0.64949100 0.75393200
vt 0.09920700 0.89945100
vt 0.84620600 0.92905900
vt 0.09059500 0.89419600
vt 0.85482800 0.92905900
vt 0.65213200 0.74757300
vt 0.09921700 0.89419600
vt 0.84620600 0.92289500
vt 0.65701000 0.74270500
vt 0.85482800 0.92289500
vt 0.84620600 0.91602700
vt 0.85482800 0.91602700
vt 0.66338400 0.74007000
vt 0.84620600 0.90950000
vt 0.67028400 0.74007000
vt 0.85482800 0.90950000
vt 0.67983200 0.74870600
vt 0.98114200 0.46854200
vt 0.67983200 0.74870600
vt 0.67551900 0.74440300
vt 0.67551900 0.74440300
vt 0.98114200 0.46246500
vt 0.68216600 0.75432900
vt 0.68216600 0.75432900
vt 0.68216600 0.76041400
vt 0.68216600 0.76041400
vt 0.67983200 0.76603700
vt 0.67983200 0.76603700
vt 0.67551900 0.77034000
vt 0.98233000 0.08642800
vt 0.67551900 0.77034000
vt 0.66988300 0.77266900
vt 0.66988300 0.77266900
vt 0.98233000 0.08035700
vt 0.66378400 0.77267000
vt 0.66378400 0.77267000
vt 0.65814900 0.77034100
vt 0.65814900 0.77034100
vt 0.65383600 0.76603800
vt 0.65383600 0.76603800
vt 0.98903100 0.56934200
vt 0.98903100 0.56327700
vt 0.65150200 0.76041600
vt 0.65150200 0.76041600
vt 0.65150200 0.75433000
vt 0.65150200 0.75433000
vt 0.65383600 0.74870700
vt 0.65383600 0.74870700
vt 0.65814900 0.74440400
vt 0.65814900 0.74440400
vt 0.98542400 0.67665600
vt 0.66378400 0.74207500
vt 0.66378400 0.74207500
vt 0.98542400 0.67058400
vt 0.66988300 0.74207500
vt 0.66988300 0.74207500
vt 0.67888000 0.74936000
vt 0.67888000 0.74936000
vt 0.98231000 0.46825700
vt 0.67488400 0.74537300
vt 0.67488400 0.74537300
vt 0.98231000 0.46262700
vt 0.68104200 0.75456900
vt 0.68104200 0.75456900
vt 0.68104200 0.76020700
vt 0.68104200 0.76020700
vt 0.67888000 0.76541700
vt 0.67888000 0.76541700
vt 0.98350000 0.08612800
vt 0.67488400 0.76940400
vt 0.67488400 0.76940400
vt 0.66966200 0.77156200
vt 0.66966200 0.77156200
vt 0.98350000 0.08050200
vt 0.66401100 0.77156200
vt 0.66401100 0.77156200
vt 0.65879000 0.76940500
vt 0.65879000 0.76940500
vt 0.99020400 0.56902600
vt 0.65479400 0.76541800
vt 0.65479400 0.76541800
vt 0.99020400 0.56340700
vt 0.65263100 0.76020800
vt 0.65263100 0.76020800
vt 0.65263100 0.75457000
vt 0.65263100 0.75457000
vt 0.65479400 0.74936000
vt 0.65479400 0.74936000
vt 0.65879000 0.74537300
vt 0.65879000 0.74537300
vt 0.98659400 0.67635500
vt 0.66401100 0.74321500
vt 0.98659400 0.67073000
vt 0.66401100 0.74321500
vt 0.66966200 0.74321500
vt 0.66966200 0.74321500
vt 0.17939000 0.93333600
vt 0.85122800 0.90430800
vt 0.17939700 0.92713000
vt 0.17939700 0.92025600
vt 0.17939200 0.91376100
vt 0.17938200 0.90863300
vt 0.09560200 0.82232100
vt 0.09560200 0.81615800
vt 0.09560200 0.80929000
vt 0.09560200 0.80929000
vt 0.75178300 0.32316500
vt 0.09560200 0.80276300
vt 0.75666200 0.31829800
vt 0.76303600 0.31566300
vt 0.09560200 0.79757100
vt 0.09561000 0.91898800
vt 0.09560300 0.91286900
vt 0.76993500 0.31566300
vt 0.77630800 0.31829800
vt 0.09560200 0.90600800
vt 0.72690600 0.35902500
vt 0.78118600 0.32316500
vt 0.09560600 0.89945100
vt 0.09561600 0.89419600
vt 0.85122800 0.92905900
vt 0.85122800 0.92289500
vt 0.85122800 0.91602700
vt 0.85122800 0.90950000
vt 0.75286100 0.28376300
vt 0.70153500 0.24636200
vt 0.09658300 0.77353800
vt 0.70153900 0.23826800
vt 0.76082000 0.28592200
vt 0.72788800 0.38788300
vt 0.76900000 0.28487700
vt 0.70154900 0.23136100
vt 0.09058000 0.77353800
vt 0.70753800 0.24636200
vt 0.69723100 0.24636200
vt 0.50406300 0.68268400
vt 0.70754200 0.25441000
vt 0.51231000 0.68268400
vt 0.69723500 0.25441000
vt 0.49776300 0.89727200
vt 0.70755200 0.26118800
vt 0.69724500 0.26118800
vt 0.50807000 0.89727200
vt 0.51992900 0.68583300
vt 0.49776300 0.89042900
vt 0.50807000 0.89042900
vt 0.52576000 0.69165300
vt 0.49776300 0.88235700
vt 0.50807000 0.88235700
vt 0.52891600 0.69925600
vt 0.49776300 0.87428500
vt 0.52891600 0.70748600
vt 0.50807000 0.87428500
vt 0.74777200 0.26118800
vt 0.49776300 0.86744200
vt 0.75807900 0.26118800
vt 0.50807000 0.86744200
vt 0.52576000 0.71508900
vt 0.51992900 0.72090900
vt 0.75806900 0.25441100
vt 0.75806500 0.24636200
vt 0.51231000 0.72405800
vt 0.50406300 0.72405800
vt 0.75806900 0.23826900
vt 0.49644400 0.72090900
vt 0.73219200 0.41771200
vt 0.75807900 0.23136200
vt 0.72188400 0.41086900
vt 0.73219200 0.41086900
vt 0.49061200 0.71508900
vt 0.72188400 0.40279700
vt 0.48745600 0.70748600
vt 0.73219200 0.40279700
vt 0.72188400 0.39472600
vt 0.72188400 0.39472600
vt 0.73219200 0.39472600
vt 0.48745600 0.69925600
vt 0.49061200 0.69165200
vt 0.73219200 0.38788300
vt 0.69724500 0.23136100
vt 0.69723500 0.23826800
vt 0.49644400 0.68583300
vt 0.51183000 0.68508200
vt 0.51183000 0.68508200
vt 0.14533000 0.96461100
vt 0.50453900 0.68508200
vt 0.14532700 0.95749600
vt 0.51856600 0.68786600
vt 0.51856600 0.68786600
vt 0.52372100 0.69301100
vt 0.52372100 0.69301100
vt 0.96458500 0.25544300
vt 0.96458500 0.26257900
vt 0.52651200 0.69973300
vt 0.52651200 0.70700900
vt 0.96458500 0.26971500
vt 0.52651200 0.70700900
vt 0.52372200 0.71373100
vt 0.52372200 0.71373100
vt 0.51856600 0.71887600
vt 0.32583400 0.22436200
vt 0.51856600 0.71887600
vt 0.32583100 0.21724700
vt 0.51183000 0.72166000
vt 0.50453900 0.72166000
vt 0.32583400 0.21009100
vt 0.50453900 0.72166000
vt 0.49780300 0.71887600
vt 0.49780300 0.71887600
vt 0.49264800 0.71373100
vt 0.31460700 0.92895400
vt 0.49264800 0.71373100
vt 0.48985800 0.70700900
vt 0.31460700 0.93609000
vt 0.48985800 0.69973300
vt 0.31460700 0.94322600
vt 0.48985800 0.69973300
vt 0.49264800 0.69301100
vt 0.49264800 0.69301100
vt 0.49780300 0.68786600
vt 0.49780300 0.68786600
vt 0.14533000 0.95034000
vt 0.51158200 0.68642400
vt 0.51158200 0.68642400
vt 0.14393400 0.96406900
vt 0.14393100 0.95747600
vt 0.50482700 0.68642400
vt 0.51782300 0.68900400
vt 0.51782300 0.68900400
vt 0.52260000 0.69377100
vt 0.52260000 0.69377100
vt 0.96318600 0.25596700
vt 0.52518500 0.69999900
vt 0.96318600 0.26257900
vt 0.52518500 0.70674100
vt 0.52518500 0.70674100
vt 0.96318600 0.26919100
vt 0.52260000 0.71296900
vt 0.52260000 0.71296900
vt 0.51782300 0.71773600
vt 0.51782300 0.71773600
vt 0.32723600 0.22382000
vt 0.51158200 0.72031500
vt 0.32723300 0.21722700
vt 0.32723600 0.21059800
vt 0.50482700 0.72031500
vt 0.50482700 0.72031500
vt 0.49858600 0.71773500
vt 0.49858600 0.71773500
vt 0.49380900 0.71296900
vt 0.49380900 0.71296900
vt 0.31320700 0.92947900
vt 0.31320700 0.93609000
vt 0.49122400 0.70674000
vt 0.49122400 0.69999900
vt 0.31320700 0.94270200
vt 0.49122400 0.69999900
vt 0.49380900 0.69377100
vt 0.49380900 0.69377100
vt 0.49858600 0.68900400
vt 0.49858600 0.68900400
vt 0.14393400 0.95084700
vt 0.70153900 0.25441000
vt 0.50376600 0.89727200
vt 0.70154900 0.26118800
vt 0.50376600 0.89042900
vt 0.50376600 0.88235700
vt 0.50376600 0.87428500
vt 0.50376600 0.86744200
vt 0.75377500 0.26118800
vt 0.75376400 0.25441100
vt 0.75376100 0.24636200
vt 0.75376400 0.23826900
vt 0.72788800 0.41771200
vt 0.75377500 0.23136200
vt 0.72788800 0.41086900
vt 0.72788800 0.40279700
vt 0.77615800 0.28078800
vt 0.72788800 0.39472600
vt 0.72788800 0.39472600
vt 0.74775800 0.24636200
vt 0.74776100 0.25441000
vt 0.72188400 0.41771200
vt 0.74777200 0.23136200
vt 0.74776100 0.23826800
f 118/118/118 1/1/1 4/4/4
f 4/4/4 119/119/119 118/118/118
f 119/119/119 4/4/4 7/7/7
f 7/7/7 120/120/120 119/119/119
f 120/120/120 7/7/7 8/8/8
f 8/8/8 121/121/121 120/120/120
f 121/121/121 8/8/8 10/10/10
f 10/10/10 122/122/122 121/121/121
f 123/123/123 11/11/11 14/14/14
f 14/14/14 124/124/124 123/123/123
f 124/124/124 14/14/14 15/15/15
f 15/15/15 127/127/127 124/124/124
f 127/127/127 15/15/15 18/18/18
f 18/18/18 128/128/128 127/127/127
f 128/128/128 18/18/18 19/19/19
f 19/19/19 132/132/132 128/128/128
f 131/131/131 20/20/20 22/22/22
f 22/22/22 133/133/133 131/131/131
f 133/133/133 22/22/22 25/25/25
f 25/25/25 136/136/136 133/133/133
f 136/136/136 25/25/25 27/27/27
f 27/27/27 137/137/137 136/136/136
f 137/137/137 27/27/27 29/29/29
f 29/29/29 141/141/141 137/137/137
f 140/140/140 30/30/30 32/32/32
f 32/32/32 142/142/142 140/140/140
f 142/142/142 32/32/32 33/33/33
f 33/33/33 143/143/143 142/142/142
f 36/36/36 34/34/34 74/74/74
f 74/74/74 76/76/76 36/36/36
f 143/143/143 33/33/33 35/35/35
f 35/35/35 144/144/144 143/143/143
f 144/144/144 35/35/35 2/2/2
f 2/2/2 117/117/117 144/144/144
f 337/337/337 144/144/144 117/117/117
f 117/117/117 287/287/287 337/337/337
f 68/68/68 65/65/65 105/105/105
f 105/105/105 108/108/108 68/68/68
f 9/9/9 6/6/6 43/43/43
f 43/43/43 46/46/46 9/9/9
f 21/21/21 17/17/17 55/55/55
f 55/55/55 57/57/57 21/21/21
f 5/5/5 3/3/3 41/41/41
f 41/41/41 38/38/38 5/5/5
f 31/31/31 28/28/28 67/67/67
f 67/67/67 71/71/71 31/31/31
f 16/16/16 13/13/13 50/50/50
f 50/50/50 54/54/54 16/16/16
f 26/26/26 24/24/24 62/62/62
f 62/62/62 66/66/66 26/26/26
f 3/3/3 36/36/36 76/76/76
f 76/76/76 41/41/41 3/3/3
f 12/12/12 9/9/9 46/46/46
f 46/46/46 47/47/47 12/12/12
f 23/23/23 21/21/21 57/57/57
f 57/57/57 60/60/60 23/23/23
f 34/34/34 31/31/31 71/71/71
f 71/71/71 74/74/74 34/34/34
f 6/6/6 5/5/5 38/38/38
f 38/38/38 43/43/43 6/6/6
f 17/17/17 16/16/16 54/54/54
f 54/54/54 55/55/55 17/17/17
f 28/28/28 26/26/26 66/66/66
f 66/66/66 67/67/67 28/28/28
f 13/13/13 12/12/12 47/47/47
f 47/47/47 50/50/50 13/13/13
f 24/24/24 23/23/23 60/60/60
f 60/60/60 62/62/62 24/24/24
f 77/77/77 80/80/80 115/115/115
f 77/77/77 115/115/115 112/112/112
f 77/77/77 112/112/112 109/109/109
f 77/77/77 109/109/109 107/107/107
f 77/77/77 107/107/107 106/106/106
f 77/77/77 106/106/106 102/102/102
f 77/77/77 102/102/102 100/100/100
f 77/77/77 100/100/100 98/98/98
f 77/77/77 98/98/98 96/96/96
f 77/77/77 96/96/96 92/92/92
f 77/77/77 92/92/92 91/91/91
f 77/77/77 91/91/91 87/87/87
f 77/77/77 87/87/87 85/85/85
f 77/77/77 85/85/85 84/84/84
f 51/51/51 48/48/48 88/88/88
f 88/88/88 89/89/89 51/51/51
f 69/69/69 68/68/68 108/108/108
f 108/108/108 110/110/110 69/69/69
f 53/53/53 49/49/49 90/90/90
f 90/90/90 93/93/93 53/53/53
f 72/72/72 70/70/70 111/111/111
f 111/111/111 114/114/114 72/72/72
f 56/56/56 52/52/52 94/94/94
f 94/94/94 95/95/95 56/56/56
f 75/75/75 73/73/73 113/113/113
f 113/113/113 116/116/116 75/75/75
f 58/58/58 56/56/56 95/95/95
f 95/95/95 97/97/97 58/58/58
f 39/39/39 40/40/40 81/81/81
f 81/81/81 78/78/78 39/39/39
f 40/40/40 75/75/75 116/116/116
f 116/116/116 81/81/81 40/40/40
f 61/61/61 58/58/58 97/97/97
f 97/97/97 101/101/101 61/61/61
f 44/44/44 37/37/37 79/79/79
f 79/79/79 83/83/83 44/44/44
f 63/63/63 59/59/59 99/99/99
f 99/99/99 104/104/104 63/63/63
f 45/45/45 42/42/42 82/82/82
f 82/82/82 86/86/86 45/45/45
f 65/65/65 64/64/64 103/103/103
f 103/103/103 105/105/105 65/65/65
f 48/48/48 45/45/45 86/86/86
f 86/86/86 88/88/88 48/48/48
f 334/334/334 143/143/143 144/144/144
f 144/144/144 337/337/337 334/334/334
f 331/331/331 142/142/142 143/143/143
f 143/143/143 334/334/334 331/331/331
f 326/326/326 140/140/140 142/142/142
f 142/142/142 331/331/331 326/326/326
f 323/323/323 137/137/137 141/141/141
f 141/141/141 327/327/327 323/323/323
f 134/134/134 135/135/135 284/284/284
f 284/284/284 150/150/150 134/134/134
f 310/310/310 125/125/125 147/147/147
f 147/147/147 456/456/456 310/310/310
f 126/126/126 129/129/129 145/145/145
f 135/135/135 138/138/138 284/284/284
f 129/129/129 130/130/130 148/148/148
f 148/148/148 145/145/145 129/129/129
f 306/306/306 124/124/124 127/127/127
f 127/127/127 309/309/309 306/306/306
f 302/302/302 123/123/123 124/124/124
f 124/124/124 306/306/306 302/302/302
f 298/298/298 121/121/121 122/122/122
f 122/122/122 301/301/301 298/298/298
f 295/295/295 120/120/120 121/121/121
f 121/121/121 298/298/298 295/295/295
f 292/292/292 119/119/119 120/120/120
f 120/120/120 295/295/295 292/292/292
f 288/288/288 118/118/118 119/119/119
f 119/119/119 292/292/292 288/288/288
f 130/130/130 134/134/134 150/150/150
f 150/150/150 148/148/148 130/130/130
f 139/139/139 322/322/322 498/498/498
f 498/498/498 285/285/285 139/139/139
f 146/146/146 154/154/154 155/155/155
f 155/155/155 269/269/269 146/146/146
f 269/269/269 155/155/155 159/159/159
f 159/159/159 270/270/270 269/269/269
f 271/271/271 158/158/158 160/160/160
f 160/160/160 272/272/272 271/271/271
f 272/272/272 160/160/160 163/163/163
f 163/163/163 273/273/273 272/272/272
f 273/273/273 163/163/163 164/164/164
f 164/164/164 274/274/274 273/273/273
f 274/274/274 164/164/164 166/166/166
f 166/166/166 276/276/276 274/274/274
f 275/275/275 167/167/167 170/170/170
f 170/170/170 277/277/277 275/275/275
f 277/277/277 170/170/170 171/171/171
f 171/171/171 278/278/278 277/277/277
f 278/278/278 171/171/171 174/174/174
f 174/174/174 279/279/279 278/278/278
f 279/279/279 174/174/174 177/177/177
f 177/177/177 281/281/281 279/279/279
f 280/280/280 175/175/175 179/179/179
f 179/179/179 282/282/282 280/280/280
f 282/282/282 179/179/179 181/181/181
f 181/181/181 283/283/283 282/282/282
f 283/283/283 181/181/181 183/183/183
f 183/183/183 286/286/286 283/283/283
f 286/286/286 183/183/183 186/186/186
f 186/186/186 151/151/151 286/286/286
f 188/188/188 185/185/185 224/224/224
f 224/224/224 228/228/228 188/188/188
f 152/152/152 184/184/184 187/187/187
f 187/187/187 149/149/149 152/152/152
f 149/149/149 187/187/187 154/154/154
f 154/154/154 146/146/146 149/149/149
f 219/219/219 218/218/218 256/256/256
f 256/256/256 260/260/260 219/219/219
f 161/161/161 157/157/157 195/195/195
f 195/195/195 196/196/196 161/161/161
f 172/172/172 169/169/169 206/206/206
f 206/206/206 210/210/210 172/172/172
f 156/156/156 153/153/153 193/193/193
f 193/193/193 190/190/190 156/156/156
f 182/182/182 180/180/180 220/220/220
f 220/220/220 221/221/221 182/182/182
f 168/168/168 165/165/165 201/201/201
f 201/201/201 204/204/204 168/168/168
f 178/178/178 176/176/176 214/214/214
f 214/214/214 216/216/216 178/178/178
f 153/153/153 188/188/188 228/228/228
f 228/228/228 193/193/193 153/153/153
f 162/162/162 161/161/161 196/196/196
f 196/196/196 200/200/200 162/162/162
f 173/173/173 172/172/172 210/210/210
f 210/210/210 211/211/211 173/173/173
f 185/185/185 182/182/182 221/221/221
f 221/221/221 224/224/224 185/185/185
f 157/157/157 156/156/156 190/190/190
f 190/190/190 195/195/195 157/157/157
f 169/169/169 168/168/168 204/204/204
f 204/204/204 206/206/206 169/169/169
f 180/180/180 178/178/178 216/216/216
f 216/216/216 220/220/220 180/180/180
f 165/165/165 162/162/162 200/200/200
f 200/200/200 201/201/201 165/165/165
f 176/176/176 173/173/173 211/211/211
f 211/211/211 214/214/214 176/176/176
f 231/231/231 232/232/232 266/266/266
f 231/231/231 266/266/266 265/265/265
f 231/231/231 265/265/265 262/262/262
f 231/231/231 262/262/262 259/259/259
f 231/231/231 259/259/259 257/257/257
f 231/231/231 257/257/257 255/255/255
f 231/231/231 255/255/255 252/252/252
f 231/231/231 252/252/252 249/249/249
f 231/231/231 249/249/249 247/247/247
f 231/231/231 247/247/247 244/244/244
f 231/231/231 244/244/244 242/242/242
f 231/231/231 242/242/242 239/239/239
f 231/231/231 239/239/239 238/238/238
f 231/231/231 238/238/238 235/235/235
f 202/202/202 199/199/199 240/240/240
f 240/240/240 241/241/241 202/202/202
f 222/222/222 219/219/219 260/260/260
f 260/260/260 263/263/263 222/222/222
f 205/205/205 203/203/203 243/243/243
f 243/243/243 245/245/245 205/205/205
f 225/225/225 223/223/223 261/261/261
f 261/261/261 264/264/264 225/225/225
f 207/207/207 205/205/205 245/245/245
f 245/245/245 246/246/246 207/207/207
f 227/227/227 225/225/225 264/264/264
f 264/264/264 268/268/268 227/227/227
f 209/209/209 208/208/208 248/248/248
f 248/248/248 250/250/250 209/209/209
f 189/189/189 192/192/192 233/233/233
f 233/233/233 230/230/230 189/189/189
f 192/192/192 226/226/226 267/267/267
f 267/267/267 233/233/233 192/192/192
f 212/212/212 209/209/209 250/250/250
f 250/250/250 253/253/253 212/212/212
f 194/194/194 191/191/191 229/229/229
f 229/229/229 234/234/234 194/194/194
f 215/215/215 213/213/213 251/251/251
f 251/251/251 254/254/254 215/215/215
f 197/197/197 194/194/194 234/234/234
f 234/234/234 236/236/236 197/197/197
f 217/217/217 215/215/215 254/254/254
f 254/254/254 258/258/258 217/217/217
f 199/199/199 198/198/198 237/237/237
f 237/237/237 240/240/240 199/199/199
f 494/494/494 283/283/283 286/286/286
f 286/286/286 497/497/497 494/494/494
f 491/491/491 282/282/282 283/283/283
f 283/283/283 494/494/494 491/491/491
f 277/277/277 278/278/278 604/604/604
f 604/604/604 605/605/605 277/277/277
f 474/474/474 274/274/274 276/276/276
f 276/276/276 478/478/478 474/474/474
f 471/471/471 273/273/273 274/274/274
f 274/274/274 474/474/474 471/471/471
f 468/468/468 272/272/272 273/273/273
f 273/273/273 471/471/471 468/468/468
f 463/463/463 271/271/271 272/272/272
f 272/272/272 468/468/468 463/463/463
f 460/460/460 269/269/269 270/270/270
f 270/270/270 464/464/464 460/460/460
f 457/457/457 146/146/146 269/269/269
f 269/269/269 460/460/460 457/457/457
f 275/275/275 277/277/277 605/605/605
f 605/605/605 477/477/477 275/275/275
f 491/491/491 606/606/606 280/280/280
f 280/280/280 282/282/282 491/491/491
f 279/279/279 281/281/281 607/607/607
f 607/607/607 608/608/608 279/279/279
f 278/278/278 279/279/279 608/608/608
f 608/608/608 604/604/604 278/278/278
f 420/420/420 422/422/422 293/293/293
f 293/293/293 290/290/290 420/420/420
f 422/422/422 423/423/423 296/296/296
f 296/296/296 293/293/293 422/422/422
f 423/423/423 424/424/424 300/300/300
f 300/300/300 296/296/296 423/423/423
f 424/424/424 425/425/425 303/303/303
f 303/303/303 300/300/300 424/424/424
f 426/426/426 427/427/427 308/308/308
f 308/308/308 304/304/304 426/426/426
f 427/427/427 428/428/428 311/311/311
f 311/311/311 308/308/308 427/427/427
f 428/428/428 431/431/431 314/314/314
f 314/314/314 311/311/311 428/428/428
f 431/431/431 434/434/434 317/317/317
f 317/317/317 314/314/314 431/431/431
f 435/435/435 436/436/436 319/319/319
f 319/319/319 316/316/316 435/435/435
f 436/436/436 439/439/439 320/320/320
f 320/320/320 319/319/319 436/436/436
f 439/439/439 442/442/442 325/325/325
f 325/325/325 320/320/320 439/439/439
f 442/442/442 443/443/443 330/330/330
f 330/330/330 325/325/325 442/442/442
f 444/444/444 445/445/445 333/333/333
f 333/333/333 328/328/328 444/444/444
f 445/445/445 446/446/446 335/335/335
f 335/335/335 333/333/333 445/445/445
f 338/338/338 378/378/378 375/375/375
f 375/375/375 336/336/336 338/338/338
f 446/446/446 447/447/447 339/339/339
f 339/339/339 335/335/335 446/446/446
f 447/447/447 421/421/421 291/291/291
f 291/291/291 339/339/339 447/447/447
f 337/337/337 287/287/287 421/421/421
f 421/421/421 447/447/447 337/337/337
f 371/371/371 411/411/411 408/408/408
f 408/408/408 369/369/369 371/371/371
f 299/299/299 349/349/349 346/346/346
f 346/346/346 297/297/297 299/299/299
f 315/315/315 360/360/360 359/359/359
f 359/359/359 313/313/313 315/315/315
f 294/294/294 340/340/340 343/343/343
f 343/343/343 289/289/289 294/294/294
f 332/332/332 372/372/372 370/370/370
f 370/370/370 329/329/329 332/332/332
f 312/312/312 356/356/356 354/354/354
f 354/354/354 307/307/307 312/312/312
f 324/324/324 368/368/368 367/367/367
f 367/367/367 321/321/321 324/324/324
f 289/289/289 343/343/343 378/378/378
f 378/378/378 338/338/338 289/289/289
f 305/305/305 351/351/351 349/349/349
f 349/349/349 299/299/299 305/305/305
f 318/318/318 362/362/362 360/360/360
f 360/360/360 315/315/315 318/318/318
f 336/336/336 375/375/375 372/372/372
f 372/372/372 332/332/332 336/336/336
f 297/297/297 346/346/346 340/340/340
f 340/340/340 294/294/294 297/297/297
f 313/313/313 359/359/359 356/356/356
f 356/356/356 312/312/312 313/313/313
f 329/329/329 370/370/370 368/368/368
f 368/368/368 324/324/324 329/329/329
f 307/307/307 354/354/354 351/351/351
f 351/351/351 305/305/305 307/307/307
f 321/321/321 367/367/367 362/362/362
f 362/362/362 318/318/318 321/321/321
f 380/380/380 387/387/387 388/388/388
f 380/380/380 388/388/388 391/391/391
f 380/380/380 391/391/391 393/393/393
f 380/380/380 393/393/393 395/395/395
f 380/380/380 395/395/395 398/398/398
f 380/380/380 398/398/398 401/401/401
f 380/380/380 401/401/401 404/404/404
f 380/380/380 404/404/404 407/407/407
f 380/380/380 407/407/407 409/409/409
f 380/380/380 409/409/409 410/410/410
f 380/380/380 410/410/410 413/413/413
f 380/380/380 413/413/413 415/415/415
f 380/380/380 415/415/415 418/418/418
f 380/380/380 418/418/418 383/383/383
f 352/352/352 394/394/394 390/390/390
f 390/390/390 350/350/350 352/352/352
f 373/373/373 412/412/412 411/411/411
f 411/411/411 371/371/371 373/373/373
f 357/357/357 397/397/397 392/392/392
f 392/392/392 353/353/353 357/357/357
f 377/377/377 416/416/416 414/414/414
f 414/414/414 374/374/374 377/377/377
f 358/358/358 399/399/399 396/396/396
f 396/396/396 355/355/355 358/358/358
f 379/379/379 419/419/419 417/417/417
f 417/417/417 376/376/376 379/379/379
f 361/361/361 400/400/400 399/399/399
f 399/399/399 358/358/358 361/361/361
f 342/342/342 381/381/381 384/384/384
f 384/384/384 344/344/344 342/342/342
f 344/344/344 384/384/384 419/419/419
f 419/419/419 379/379/379 344/344/344
f 363/363/363 403/403/403 400/400/400
f 400/400/400 361/361/361 363/363/363
f 345/345/345 385/385/385 382/382/382
f 382/382/382 341/341/341 345/345/345
f 365/365/365 405/405/405 402/402/402
f 402/402/402 364/364/364 365/365/365
f 348/348/348 389/389/389 386/386/386
f 386/386/386 347/347/347 348/348/348
f 369/369/369 408/408/408 406/406/406
f 406/406/406 366/366/366 369/369/369
f 350/350/350 390/390/390 389/389/389
f 389/389/389 348/348/348 350/350/350
f 334/334/334 337/337/337 447/447/447
f 447/447/447 446/446/446 334/334/334
f 331/331/331 334/334/334 446/446/446
f 446/446/446 445/445/445 331/331/331
f 326/326/326 331/331/331 445/445/445
f 445/445/445 444/444/444 326/326/326
f 323/323/323 327/327/327 443/443/443
f 443/443/443 442/442/442 323/323/323
f 437/437/437 454/454/454 601/601/601
f 601/601/601 438/438/438 437/437/437
f 310/310/310 456/456/456 450/450/450
f 450/450/450 429/429/429 310/310/310
f 430/430/430 448/448/448 432/432/432
f 438/438/438 601/601/601 441/441/441
f 432/432/432 448/448/448 452/452/452
f 452/452/452 433/433/433 432/432/432
f 306/306/306 309/309/309 428/428/428
f 428/428/428 427/427/427 306/306/306
f 302/302/302 306/306/306 427/427/427
f 427/427/427 426/426/426 302/302/302
f 298/298/298 301/301/301 425/425/425
f 425/425/425 424/424/424 298/298/298
f 295/295/295 298/298/298 424/424/424
f 424/424/424 423/423/423 295/295/295
f 292/292/292 295/295/295 423/423/423
f 423/423/423 422/422/422 292/292/292
f 288/288/288 292/292/292 422/422/422
f 422/422/422 420/420/420 288/288/288
f 433/433/433 452/452/452 454/454/454
f 454/454/454 437/437/437 433/433/433
f 440/440/440 603/603/603 498/498/498
f 498/498/498 322/322/322 440/440/440
f 449/449/449 586/586/586 462/462/462
f 462/462/462 458/458/458 449/449/449
f 586/586/586 588/588/588 465/465/465
f 465/465/465 462/462/462 586/586/586
f 587/587/587 589/589/589 469/469/469
f 469/469/469 466/466/466 587/587/587
f 589/589/589 590/590/590 472/472/472
f 472/472/472 469/469/469 589/589/589
f 590/590/590 591/591/591 476/476/476
f 476/476/476 472/472/472 590/590/590
f 591/591/591 592/592/592 480/480/480
f 480/480/480 476/476/476 591/591/591
f 593/593/593 594/594/594 483/483/483
f 483/483/483 479/479/479 593/593/593
f 594/594/594 595/595/595 484/484/484
f 484/484/484 483/483/483 594/594/594
f 595/595/595 596/596/596 487/487/487
f 487/487/487 484/484/484 595/595/595
f 596/596/596 598/598/598 490/490/490
f 490/490/490 487/487/487 596/596/596
f 597/597/597 599/599/599 492/492/492
f 492/492/492 489/489/489 597/597/597
f 599/599/599 600/600/600 496/496/496
f 496/496/496 492/492/492 599/599/599
f 600/600/600 602/602/602 499/499/499
f 499/499/499 496/496/496 600/600/600
f 602/602/602 453/453/453 502/502/502
f 502/502/502 499/499/499 602/602/602
f 505/505/505 543/543/543 542/542/542
f 542/542/542 501/501/501 505/505/505
f 455/455/455 451/451/451 504/504/504
f 504/504/504 503/503/503 455/455/455
f 451/451/451 449/449/449 458/458/458
f 458/458/458 504/504/504 451/451/451
f 537/537/537 576/576/576 575/575/575
f 575/575/575 534/534/534 537/537/537
f 470/470/470 514/514/514 512/512/512
f 512/512/512 467/467/467 470/470/470
f 485/485/485 527/527/527 525/525/525
f 525/525/525 482/482/482 485/485/485
f 461/461/461 506/506/506 509/509/509
f 509/509/509 459/459/459 461/461/461
f 500/500/500 540/540/540 536/536/536
f 536/536/536 495/495/495 500/500/500
f 481/481/481 521/521/521 520/520/520
f 520/520/520 475/475/475 481/481/481
f 493/493/493 535/535/535 531/531/531
f 531/531/531 488/488/488 493/493/493
f 459/459/459 509/509/509 543/543/543
f 543/543/543 505/505/505 459/459/459
f 473/473/473 517/517/517 514/514/514
f 514/514/514 470/470/470 473/473/473
f 486/486/486 530/530/530 527/527/527
f 527/527/527 485/485/485 486/486/486
f 501/501/501 542/542/542 540/540/540
f 540/540/540 500/500/500 501/501/501
f 467/467/467 512/512/512 506/506/506
f 506/506/506 461/461/461 467/467/467
f 482/482/482 525/525/525 521/521/521
f 521/521/521 481/481/481 482/482/482
f 495/495/495 536/536/536 535/535/535
f 535/535/535 493/493/493 495/495/495
f 475/475/475 520/520/520 517/517/517
f 517/517/517 473/473/473 475/475/475
f 488/488/488 531/531/531 530/530/530
f 530/530/530 486/486/486 488/488/488
f 546/546/546 552/552/552 553/553/553
f 546/546/546 553/553/553 556/556/556
f 546/546/546 556/556/556 559/559/559
f 546/546/546 559/559/559 562/562/562
f 546/546/546 562/562/562 563/563/563
f 546/546/546 563/563/563 566/566/566
f 546/546/546 566/566/566 569/569/569
f 546/546/546 569/569/569 572/572/572
f 546/546/546 572/572/572 574/574/574
f 546/546/546 574/574/574 577/577/577
f 546/546/546 577/577/577 578/578/578
f 546/546/546 578/578/578 582/582/582
f 546/546/546 582/582/582 583/583/583
f 546/546/546 583/583/583 550/550/550
f 519/519/519 560/560/560 557/557/557
f 557/557/557 516/516/516 519/519/519
f 539/539/539 579/579/579 576/576/576
f 576/576/576 537/537/537 539/539/539
f 522/522/522 561/561/561 558/558/558
f 558/558/558 518/518/518 522/522/522
f 541/541/541 581/581/581 580/580/580
f 580/580/580 538/538/538 541/541/541
f 523/523/523 564/564/564 561/561/561
f 561/561/561 522/522/522 523/523/523
f 544/544/544 584/584/584 581/581/581
f 581/581/581 541/541/541 544/544/544
f 526/526/526 567/567/567 565/565/565
f 565/565/565 524/524/524 526/526/526
f 508/508/508 548/548/548 549/549/549
f 549/549/549 510/510/510 508/508/508
f 510/510/510 549/549/549 585/585/585
f 585/585/585 545/545/545 510/510/510
f 529/529/529 568/568/568 567/567/567
f 567/567/567 526/526/526 529/529/529
f 511/511/511 551/551/551 547/547/547
f 547/547/547 507/507/507 511/511/511
f 532/532/532 571/571/571 570/570/570
f 570/570/570 528/528/528 532/532/532
f 513/513/513 554/554/554 551/551/551
f 551/551/551 511/511/511 513/513/513
f 533/533/533 573/573/573 571/571/571
f 571/571/571 532/532/532 533/533/533
f 516/516/516 557/557/557 555/555/555
f 555/555/555 515/515/515 516/516/516
f 494/494/494 497/497/497 602/602/602
f 602/602/602 600/600/600 494/494/494
f 491/491/491 494/494/494 600/600/600
f 600/600/600 599/599/599 491/491/491
f 594/594/594 605/605/605 604/604/604
f 604/604/604 595/595/595 594/594/594
f 474/474/474 478/478/478 592/592/592
f 592/592/592 591/591/591 474/474/474
f 471/471/471 474/474/474 591/591/591
f 591/591/591 590/590/590 471/471/471
f 468/468/468 471/471/471 590/590/590
f 590/590/590 589/589/589 468/468/468
f 463/463/463 468/468/468 589/589/589
f 589/589/589 587/587/587 463/463/463
f 460/460/460 464/464/464 588/588/588
f 588/588/588 586/586/586 460/460/460
f 457/457/457 460/460/460 586/586/586
f 586/586/586 449/449/449 457/457/457
f 593/593/593 477/477/477 605/605/605
f 605/605/605 594/594/594 593/593/593
f 491/491/491 599/599/599 597/597/597
f 597/597/597 606/606/606 491/491/491
f 596/596/596 608/608/608 607/607/607
f 607/607/607 598/598/598 596/596/596
f 595/595/595 604/604/604 608/608/608
f 608/608/608 596/596/596 595/595/595

