mtllib material.mtl
usemtl Leg.BR_MAT
v 0.14863300 -0.13941400 0.21922400
v 0.14863300 -0.13941400 0.21922400
v 0.14863300 -0.13941400 0.21922400
v 0.13913000 -0.12991500 0.23780100
v 0.13913000 -0.12991500 0.23780100
v 0.13913000 -0.12991500 0.23780100
v 0.11912900 -0.10991500 0.18905000
v 0.11912900 -0.10991500 0.18905000
v 0.11912900 -0.10991500 0.18905000
v 0.10962600 -0.10041700 0.20762700
v 0.10962600 -0.10041700 0.20762700
v 0.10962600 -0.10041700 0.20762700
v 0.11580300 -0.10892900 0.17361200
v 0.11580300 -0.10892900 0.17361200
v 0.11580300 -0.10892900 0.17361200
v 0.10694800 -0.09936300 0.19248600
v 0.10694800 -0.09936300 0.19248600
v 0.10694800 -0.09936300 0.19248600
v 0.08641400 -0.07954500 0.14355500
v 0.08641400 -0.07954500 0.14355500
v 0.08641400 -0.07954500 0.14355500
v 0.07697900 -0.06939900 0.16183600
v 0.07697900 -0.06939900 0.16183600
v 0.07697900 -0.06939900 0.16183600
v 0.07782100 -0.06861500 0.14357800
v 0.07782100 -0.06861500 0.14357800
v 0.07782100 -0.06861500 0.14357800
v 0.06831900 -0.05911700 0.16215500
v 0.06831900 -0.05911700 0.16215500
v 0.06831900 -0.05911700 0.16215500
v 0.06694900 -0.05774400 0.13245800
v 0.06694900 -0.05774400 0.13245800
v 0.05744600 -0.04824600 0.15103600
v 0.05744600 -0.04824600 0.15103600
v 0.11792100 -0.10870700 0.17458200
v 0.11792100 -0.10870700 0.17458200
v 0.11792100 -0.10870700 0.17458200
v 0.08663600 -0.07742700 0.14258500
v 0.08663600 -0.07742700 0.14258500
v 0.08663600 -0.07742700 0.14258500
v 0.11255400 -0.11036100 0.16583700
v 0.11255400 -0.11036100 0.16583700
v 0.11255400 -0.11036100 0.16583700
v 0.11346300 -0.11127000 0.17361100
v 0.11346300 -0.11127000 0.17361100
v 0.11346300 -0.11127000 0.17361100
v 0.08407400 -0.08188600 0.14355500
v 0.08407400 -0.08188600 0.14355500
v 0.08407400 -0.08188600 0.14355500
v 0.09025700 -0.08806800 0.14288400
v 0.09025700 -0.08806800 0.14288400
v 0.09025700 -0.08806800 0.14288400
v 0.11489500 -0.10802000 0.16583800
v 0.11489500 -0.10802000 0.16583800
v 0.11489500 -0.10802000 0.16583800
v 0.09259700 -0.08572700 0.14288400
v 0.09259700 -0.08572700 0.14288400
v 0.09259700 -0.08572700 0.14288400
v 0.09866700 -0.09647700 0.15148600
v 0.09866700 -0.09647700 0.15148600
v 0.09866700 -0.09647700 0.15148600
v 0.10100800 -0.09413600 0.15148600
v 0.10100800 -0.09413600 0.15148600
v 0.10100800 -0.09413600 0.15148600
v 0.09972100 -0.09752900 0.13987100
v 0.09972100 -0.09752900 0.13987100
v 0.09972100 -0.09752900 0.13987100
v 0.09404400 -0.09185300 0.13548100
v 0.09404400 -0.09185300 0.13548100
v 0.09404400 -0.09185300 0.13548100
v 0.10206100 -0.09518800 0.13987100
v 0.10206100 -0.09518800 0.13987100
v 0.10206100 -0.09518800 0.13987100
v 0.09638400 -0.08951200 0.13548100
v 0.09638400 -0.08951200 0.13548100
v 0.09638400 -0.08951200 0.13548100
v 0.10841900 -0.09920800 0.19315900
v 0.10841900 -0.09920800 0.19315900
v 0.10841900 -0.09920800 0.19315900
v 0.10389200 -0.10242000 0.19248500
v 0.10389200 -0.10242000 0.19248500
v 0.10389200 -0.10242000 0.19248500
v 0.07713300 -0.06792800 0.16116200
v 0.07713300 -0.06792800 0.16116200
v 0.07713300 -0.06792800 0.16116200
v 0.07392300 -0.07245600 0.16183500
v 0.07392300 -0.07245600 0.16183500
v 0.07392300 -0.07245600 0.16183500
v 0.07500300 -0.07235100 0.16690600
v 0.07500300 -0.07235100 0.16690600
v 0.07500300 -0.07235100 0.16690600
v 0.10092700 -0.09826900 0.19341800
v 0.10092700 -0.09826900 0.19341800
v 0.10092700 -0.09826900 0.19341800
v 0.10279700 -0.09639800 0.19341800
v 0.10279700 -0.09639800 0.19341800
v 0.10279700 -0.09639800 0.19341800
v 0.07687400 -0.07048000 0.16690600
v 0.07687400 -0.07048000 0.16690600
v 0.07687400 -0.07048000 0.16690600
v 0.14395200 -0.14409600 0.21922400
v 0.14395200 -0.14409600 0.21922400
v 0.13445000 -0.13459700 0.23780100
v 0.13445000 -0.13459700 0.23780100
v 0.11444800 -0.11459700 0.18905000
v 0.11444800 -0.11459700 0.18905000
v 0.10494600 -0.10509900 0.20762700
v 0.10494600 -0.10509900 0.20762700
v 0.13927200 -0.14877700 0.21922300
v 0.13927200 -0.14877700 0.21922300
v 0.13927200 -0.14877700 0.21922300
v 0.12976900 -0.13927900 0.23780100
v 0.12976900 -0.13927900 0.23780100
v 0.12976900 -0.13927900 0.23780100
v 0.10976800 -0.11927900 0.18904900
v 0.10976800 -0.11927900 0.18904900
v 0.10976800 -0.11927900 0.18904900
v 0.10026500 -0.10978100 0.20762600
v 0.10026500 -0.10978100 0.20762600
v 0.10026500 -0.10978100 0.20762600
v 0.10373800 -0.10389000 0.19315800
v 0.10373800 -0.10389000 0.19315800
v 0.11324100 -0.11338900 0.17458100
v 0.11324100 -0.11338900 0.17458100
v 0.10878200 -0.11595200 0.17361100
v 0.10878200 -0.11595200 0.17361100
v 0.10878200 -0.11595200 0.17361100
v 0.09921200 -0.10710100 0.19248500
v 0.09921200 -0.10710100 0.19248500
v 0.09921200 -0.10710100 0.19248500
v 0.07245200 -0.07261000 0.16116200
v 0.07245200 -0.07261000 0.16116200
v 0.08195500 -0.08210900 0.14258500
v 0.08195500 -0.08210900 0.14258500
v 0.07939300 -0.08656800 0.14355400
v 0.07939300 -0.08656800 0.14355400
v 0.07939300 -0.08656800 0.14355400
v 0.06924200 -0.07713800 0.16183500
v 0.06924200 -0.07713800 0.16183500
v 0.06924200 -0.07713800 0.16183500
v 0.06363800 -0.06379800 0.16215400
v 0.06363800 -0.06379800 0.16215400
v 0.07314100 -0.07329700 0.14357700
v 0.07314100 -0.07329700 0.14357700
v 0.06846000 -0.07797900 0.14357700
v 0.06846000 -0.07797900 0.14357700
v 0.06846000 -0.07797900 0.14357700
v 0.05895800 -0.06848000 0.16215400
v 0.05895800 -0.06848000 0.16215400
v 0.05895800 -0.06848000 0.16215400
v 0.05276600 -0.05292800 0.15103500
v 0.06226800 -0.06242600 0.13245800
v 0.05758800 -0.06710800 0.13245700
v 0.05758800 -0.06710800 0.13245700
v 0.04808500 -0.05761000 0.15103500
v 0.04808500 -0.05761000 0.15103500
v 0.10856000 -0.11807000 0.17458100
v 0.10856000 -0.11807000 0.17458100
v 0.10856000 -0.11807000 0.17458100
v 0.07727500 -0.08679000 0.14258400
v 0.07727500 -0.08679000 0.14258400
v 0.07727500 -0.08679000 0.14258400
v 0.11021400 -0.11270200 0.16583700
v 0.11021400 -0.11270200 0.16583700
v 0.11021400 -0.11270200 0.16583700
v 0.11112200 -0.11361100 0.17361100
v 0.11112200 -0.11361100 0.17361100
v 0.11112200 -0.11361100 0.17361100
v 0.08173300 -0.08422700 0.14355500
v 0.08173300 -0.08422700 0.14355500
v 0.08173300 -0.08422700 0.14355500
v 0.08791700 -0.09040900 0.14288400
v 0.08791700 -0.09040900 0.14288400
v 0.08791700 -0.09040900 0.14288400
v 0.10787400 -0.11504300 0.16583700
v 0.10787400 -0.11504300 0.16583700
v 0.10787400 -0.11504300 0.16583700
v 0.08557600 -0.09275000 0.14288400
v 0.08557600 -0.09275000 0.14288400
v 0.08557600 -0.09275000 0.14288400
v 0.09632700 -0.09881800 0.15148600
v 0.09632700 -0.09881800 0.15148600
v 0.09632700 -0.09881800 0.15148600
v 0.09398700 -0.10115900 0.15148600
v 0.09398700 -0.10115900 0.15148600
v 0.09398700 -0.10115900 0.15148600
v 0.09738100 -0.09987000 0.13987100
v 0.09738100 -0.09987000 0.13987100
v 0.09738100 -0.09987000 0.13987100
v 0.09170300 -0.09419400 0.13548100
v 0.09170300 -0.09419400 0.13548100
v 0.09170300 -0.09419400 0.13548100
v 0.09504000 -0.10221100 0.13987100
v 0.09504000 -0.10221100 0.13987100
v 0.09504000 -0.10221100 0.13987100
v 0.08936300 -0.09653500 0.13548100
v 0.08936300 -0.09653500 0.13548100
v 0.08936300 -0.09653500 0.13548100
v 0.09905800 -0.10857200 0.19315800
v 0.09905800 -0.10857200 0.19315800
v 0.09905800 -0.10857200 0.19315800
v 0.10226800 -0.10404500 0.19248500
v 0.10226800 -0.10404500 0.19248500
v 0.10226800 -0.10404500 0.19248500
v 0.06777200 -0.07729200 0.16116200
v 0.06777200 -0.07729200 0.16116200
v 0.06777200 -0.07729200 0.16116200
v 0.07229900 -0.07408100 0.16183500
v 0.07229900 -0.07408100 0.16183500
v 0.07229900 -0.07408100 0.16183500
v 0.07219300 -0.07516200 0.16690500
v 0.07219300 -0.07516200 0.16690500
v 0.07219300 -0.07516200 0.16690500
v 0.09811700 -0.10108000 0.19341800
v 0.09811700 -0.10108000 0.19341800
v 0.09811700 -0.10108000 0.19341800
v 0.09624600 -0.10295100 0.19341700
v 0.09624600 -0.10295100 0.19341700
v 0.09624600 -0.10295100 0.19341700
v 0.07032300 -0.07703300 0.16690500
v 0.07032300 -0.07703300 0.16690500
v 0.07032300 -0.07703300 0.16690500
vn 0.70700000 0.70720000 0.00010000
vn 0.57300000 -0.57290000 0.58600000
vn 0.41450000 -0.41430000 -0.81030000
vn 0.70700000 0.70720000 0.00010000
vn 0.57300000 -0.57290000 0.58600000
vn -0.41450000 0.41430000 0.81030000
vn 0.70700000 0.70720000 0.00010000
vn 0.41450000 -0.41430000 -0.81030000
vn 0.70230000 -0.70210000 -0.11730000
vn -0.41450000 0.41430000 0.81030000
vn 0.70700000 0.70720000 0.00010000
vn -0.70230000 0.70210000 0.11730000
vn 0.41450000 -0.41430000 -0.81030000
vn 0.70700000 0.70720000 0.00010000
vn 0.69770000 -0.69750000 -0.16300000
vn -0.41450000 0.41430000 0.81030000
vn 0.12880000 -0.12890000 0.98330000
vn 0.59810000 0.78120000 0.17900000
vn 0.41450000 -0.41430000 -0.81030000
vn 0.70700000 0.70720000 0.00010000
vn -0.05400000 0.05410000 -0.99710000
vn -0.70080000 0.70050000 0.13480000
vn 0.59810000 0.78120000 0.17900000
vn -0.41450000 0.41430000 0.81030000
vn 0.41450000 -0.41430000 -0.81030000
vn 0.70700000 0.70720000 0.00010000
vn -0.05610000 0.05620000 -0.99680000
vn -0.41450000 0.41430000 0.81030000
vn 0.05610000 -0.05620000 0.99680000
vn 0.70700000 0.70720000 0.00010000
vn 0.70700000 0.70720000 0.00010000
vn 0.41450000 -0.41430000 -0.81030000
vn 0.70700000 0.70720000 0.00010000
vn -0.41450000 0.41430000 0.81030000
vn 0.41450000 -0.41430000 -0.81030000
vn 0.70700000 0.70720000 0.00010000
vn 0.70230000 -0.70210000 -0.11730000
vn 0.70700000 0.70720000 0.00010000
vn -0.05610000 0.05620000 -0.99680000
vn 0.41450000 -0.41430000 -0.81030000
vn 0.41730000 -0.41710000 -0.80740000
vn 0.69770000 -0.69750000 -0.16300000
vn -0.70700000 -0.70720000 -0.00010000
vn 0.41450000 -0.41430000 -0.81030000
vn -0.70700000 -0.70720000 -0.00010000
vn 0.69770000 -0.69750000 -0.16300000
vn 0.41450000 -0.41430000 -0.81030000
vn -0.70700000 -0.70720000 -0.00010000
vn -0.05400000 0.05410000 -0.99710000
vn -0.05400000 0.05410000 -0.99710000
vn -0.57300000 0.57290000 -0.58600000
vn -0.70700000 -0.70720000 -0.00010000
vn 0.70700000 0.70720000 0.00010000
vn 0.41730000 -0.41710000 -0.80740000
vn 0.69770000 -0.69750000 -0.16300000
vn -0.05400000 0.05410000 -0.99710000
vn -0.57300000 0.57290000 -0.58600000
vn 0.70700000 0.70720000 0.00010000
vn -0.70700000 -0.70720000 -0.00010000
vn 0.70150000 -0.70130000 0.12720000
vn 0.41730000 -0.41710000 -0.80740000
vn 0.41730000 -0.41710000 -0.80740000
vn 0.70150000 -0.70130000 0.12720000
vn 0.70700000 0.70720000 0.00010000
vn -0.70700000 -0.70720000 -0.00010000
vn 0.70150000 -0.70130000 0.12720000
vn 0.33930000 -0.33920000 -0.87740000
vn 0.33930000 -0.33920000 -0.87740000
vn -0.57300000 0.57290000 -0.58600000
vn -0.70700000 -0.70720000 -0.00010000
vn 0.70150000 -0.70130000 0.12720000
vn 0.33930000 -0.33920000 -0.87740000
vn 0.70700000 0.70720000 0.00010000
vn -0.57300000 0.57290000 -0.58600000
vn 0.33930000 -0.33920000 -0.87740000
vn 0.70700000 0.70720000 0.00010000
vn -0.70230000 0.70210000 0.11730000
vn 0.70700000 0.70720000 0.00010000
vn -0.41450000 0.41430000 0.81030000
vn 0.12880000 -0.12890000 0.98330000
vn -0.78110000 -0.59830000 0.17880000
vn -0.41450000 0.41430000 0.81030000
vn 0.05610000 -0.05620000 0.99680000
vn -0.41450000 0.41430000 0.81030000
vn 0.70700000 0.70720000 0.00010000
vn -0.78110000 -0.59830000 0.17880000
vn -0.70080000 0.70050000 0.13480000
vn -0.41450000 0.41430000 0.81030000
vn -0.41450000 0.41430000 0.81030000
vn -0.70080000 0.70050000 0.13480000
vn -0.78110000 -0.59830000 0.17880000
vn -0.41450000 0.41430000 0.81030000
vn 0.12880000 -0.12890000 0.98330000
vn -0.78110000 -0.59830000 0.17880000
vn -0.41450000 0.41430000 0.81030000
vn 0.12880000 -0.12890000 0.98330000
vn 0.59810000 0.78120000 0.17900000
vn 0.59810000 0.78120000 0.17900000
vn -0.70080000 0.70050000 0.13480000
vn -0.41450000 0.41430000 0.81030000
vn 0.41450000 -0.41430000 -0.81030000
vn 0.57300000 -0.57290000 0.58600000
vn 0.57300000 -0.57290000 0.58600000
vn -0.41450000 0.41430000 0.81030000
vn 0.70230000 -0.70210000 -0.11730000
vn 0.41450000 -0.41430000 -0.81030000
vn -0.70230000 0.70210000 0.11730000
vn -0.41450000 0.41430000 0.81030000
vn -0.70700000 -0.70720000 -0.00010000
vn 0.41450000 -0.41430000 -0.81030000
vn 0.57300000 -0.57290000 0.58600000
vn -0.41450000 0.41430000 0.81030000
vn -0.70700000 -0.70720000 -0.00010000
vn 0.57300000 -0.57290000 0.58600000
vn 0.70230000 -0.70210000 -0.11730000
vn -0.70700000 -0.70720000 -0.00010000
vn 0.41450000 -0.41430000 -0.81030000
vn -0.70700000 -0.70720000 -0.00010000
vn -0.70230000 0.70210000 0.11730000
vn -0.41450000 0.41430000 0.81030000
vn -0.41450000 0.41430000 0.81030000
vn -0.70230000 0.70210000 0.11730000
vn 0.41450000 -0.41430000 -0.81030000
vn 0.70230000 -0.70210000 -0.11730000
vn -0.70700000 -0.70720000 -0.00010000
vn 0.41450000 -0.41430000 -0.81030000
vn 0.69770000 -0.69750000 -0.16300000
vn -0.41450000 0.41430000 0.81030000
vn 0.12880000 -0.12890000 0.98330000
vn -0.78110000 -0.59830000 0.17880000
vn 0.05610000 -0.05620000 0.99680000
vn -0.41450000 0.41430000 0.81030000
vn 0.41450000 -0.41430000 -0.81030000
vn -0.05610000 0.05620000 -0.99680000
vn -0.70700000 -0.70720000 -0.00010000
vn 0.41450000 -0.41430000 -0.81030000
vn -0.05400000 0.05410000 -0.99710000
vn -0.41450000 0.41430000 0.81030000
vn -0.78110000 -0.59830000 0.17880000
vn -0.70080000 0.70060000 0.13480000
vn -0.41450000 0.41430000 0.81030000
vn 0.05610000 -0.05620000 0.99680000
vn -0.05610000 0.05620000 -0.99680000
vn 0.41450000 -0.41430000 -0.81030000
vn 0.41450000 -0.41430000 -0.81030000
vn -0.05610000 0.05620000 -0.99680000
vn -0.70700000 -0.70720000 -0.00010000
vn -0.70700000 -0.70720000 -0.00010000
vn 0.05610000 -0.05620000 0.99680000
vn -0.41450000 0.41430000 0.81030000
vn -0.41450000 0.41430000 0.81030000
vn 0.41450000 -0.41430000 -0.81030000
vn -0.70700000 -0.70720000 -0.00010000
vn 0.41450000 -0.41430000 -0.81030000
vn -0.41450000 0.41430000 0.81030000
vn -0.70700000 -0.70720000 -0.00010000
vn 0.70230000 -0.70210000 -0.11730000
vn 0.41450000 -0.41430000 -0.81030000
vn -0.70700000 -0.70720000 -0.00010000
vn 0.41450000 -0.41430000 -0.81030000
vn -0.70700000 -0.70720000 -0.00010000
vn -0.05610000 0.05620000 -0.99680000
vn 0.41730000 -0.41710000 -0.80740000
vn 0.69770000 -0.69750000 -0.16300000
vn 0.70700000 0.70720000 0.00010000
vn 0.70700000 0.70720000 0.00010000
vn 0.41450000 -0.41430000 -0.81030000
vn 0.69770000 -0.69750000 -0.16300000
vn -0.05400000 0.05410000 -0.99710000
vn 0.41450000 -0.41430000 -0.81030000
vn 0.70700000 0.70720000 0.00010000
vn 0.70700000 0.70720000 0.00010000
vn -0.57300000 0.57290000 -0.58600000
vn -0.05400000 0.05410000 -0.99710000
vn 0.41730000 -0.41710000 -0.80740000
vn -0.70700000 -0.70720000 -0.00010000
vn 0.69770000 -0.69750000 -0.16300000
vn -0.70700000 -0.70720000 -0.00010000
vn -0.57300000 0.57290000 -0.58600000
vn -0.05400000 0.05410000 -0.99710000
vn 0.70700000 0.70720000 0.00010000
vn 0.70150000 -0.70130000 0.12720000
vn 0.41730000 -0.41710000 -0.80740000
vn -0.70700000 -0.70720000 -0.00010000
vn 0.41730000 -0.41710000 -0.80740000
vn 0.70150000 -0.70130000 0.12720000
vn 0.70150000 -0.70130000 0.12720000
vn 0.33940000 -0.33920000 -0.87740000
vn 0.70700000 0.70720000 0.00010000
vn 0.33940000 -0.33920000 -0.87740000
vn 0.70700000 0.70720000 0.00010000
vn -0.57300000 0.57290000 -0.58600000
vn 0.33940000 -0.33920000 -0.87740000
vn 0.70150000 -0.70130000 0.12720000
vn -0.70700000 -0.70720000 -0.00010000
vn -0.57300000 0.57290000 -0.58600000
vn -0.70700000 -0.70720000 -0.00010000
vn 0.33940000 -0.33920000 -0.87740000
vn -0.70700000 -0.70720000 -0.00010000
vn -0.70230000 0.70210000 0.11730000
vn -0.41450000 0.41430000 0.81030000
vn 0.12880000 -0.12890000 0.98330000
vn 0.59810000 0.78120000 0.17900000
vn -0.41450000 0.41430000 0.81030000
vn -0.41450000 0.41430000 0.81030000
vn 0.05610000 -0.05620000 0.99680000
vn -0.70700000 -0.70720000 -0.00010000
vn 0.59810000 0.78120000 0.17900000
vn -0.41450000 0.41430000 0.81030000
vn -0.70080000 0.70060000 0.13480000
vn -0.70080000 0.70060000 0.13480000
vn -0.41450000 0.41430000 0.81030000
vn 0.59810000 0.78120000 0.17900000
vn 0.12880000 -0.12890000 0.98330000
vn -0.41450000 0.41430000 0.81030000
vn 0.59810000 0.78120000 0.17900000
vn -0.78110000 -0.59830000 0.17880000
vn -0.41450000 0.41430000 0.81030000
vn 0.12880000 -0.12890000 0.98330000
vn -0.41450000 0.41430000 0.81030000
vn -0.78110000 -0.59830000 0.17880000
vn -0.70080000 0.70060000 0.13480000
vt 0.60603300 0.42198300
vt 0.95231800 0.32917500
vt 0.37773600 0.90940500
vt 0.62848200 0.42261100
vt 0.95231800 0.34751000
vt 0.90085600 0.51138300
vt 0.60745100 0.37167700
vt 0.37773600 0.86864200
vt 0.09492800 0.95266000
vt 0.90085600 0.55214600
vt 0.62990000 0.37230500
vt 0.76936700 0.14868400
vt 0.71216400 0.75869300
vt 0.50308100 0.84789300
vt 0.53321000 0.97158200
vt 0.61768700 0.82532800
vt 0.61768700 0.82532800
vt 0.40627400 0.81547400
vt 0.71216400 0.79929700
vt 0.50308100 0.79776300
vt 0.71216400 0.79929700
vt 0.98372800 0.83206400
vt 0.40627400 0.86659300
vt 0.61768700 0.78392200
vt 0.71054300 0.81279100
vt 0.60692900 0.29932600
vt 0.71054300 0.81279100
vt 0.61656200 0.77083000
vt 0.61656200 0.77083000
vt 0.62937700 0.29995400
vt 0.60745100 0.28078800
vt 0.71054300 0.82781200
vt 0.62990000 0.28141600
vt 0.61656200 0.75580800
vt 0.71054300 0.75738300
vt 0.59722400 0.36174700
vt 0.09492800 0.93854100
vt 0.59872800 0.30840300
vt 0.71054300 0.80060800
vt 0.71054300 0.80060800
vt 0.71378600 0.94420600
vt 0.52996700 0.96400000
vt 0.83297800 0.58723500
vt 0.71540700 0.75869300
vt 0.83841100 0.58176500
vt 0.52996700 0.97158100
vt 0.71540700 0.79929700
vt 0.83841100 0.63189600
vt 0.71540700 0.79929700
vt 0.71540700 0.79075100
vt 0.97646400 0.96575200
vt 0.83286000 0.62535500
vt 0.49764800 0.84242300
vt 0.71054300 0.94420600
vt 0.53321000 0.96400100
vt 0.71216400 0.79075100
vt 0.97322100 0.96574600
vt 0.49752900 0.80430400
vt 0.83286000 0.61100900
vt 0.65072400 0.24986700
vt 0.71378600 0.96339300
vt 0.71054300 0.96339300
vt 0.64748100 0.24986800
vt 0.49752900 0.81865100
vt 0.82278700 0.61648100
vt 0.65072400 0.26123800
vt 0.66070100 0.96534400
vt 0.66070100 0.95749900
vt 0.97646400 0.95859300
vt 0.82391100 0.62535500
vt 0.64748100 0.26123900
vt 0.66394300 0.96534400
vt 0.48745600 0.81317800
vt 0.97322100 0.95858800
vt 0.66394300 0.95749900
vt 0.48858000 0.80430500
vt 0.76936700 0.13451900
vt 0.61967300 0.36237500
vt 0.61656200 0.82623800
vt 0.62192200 0.82532800
vt 0.46525900 0.84888700
vt 0.62192200 0.82532800
vt 0.61656200 0.78301300
vt 0.61656200 0.78301300
vt 0.62117600 0.30903100
vt 0.46525900 0.79776700
vt 0.97949400 0.83206400
vt 0.62192200 0.78392200
vt 0.62110000 0.78459400
vt 0.98031700 0.82709900
vt 0.46162000 0.80122200
vt 0.62110000 0.82041000
vt 0.62110000 0.82041000
vt 0.46162000 0.84544200
vt 0.61850900 0.82041000
vt 0.61850900 0.82041000
vt 0.40263700 0.81891600
vt 0.40263700 0.86313500
vt 0.98290800 0.82709900
vt 0.61850900 0.78459400
vt 0.37125100 0.90940500
vt 0.94583300 0.32918500
vt 0.94583300 0.34752000
vt 0.89437100 0.51138300
vt 0.08844300 0.95265800
vt 0.37125100 0.86864200
vt 0.77585200 0.14868300
vt 0.89437100 0.55214600
vt 0.50150100 0.28141700
vt 0.36476600 0.90940500
vt 0.93934800 0.32919600
vt 0.88788600 0.51138300
vt 0.52394800 0.28078800
vt 0.93934800 0.34753000
vt 0.08195800 0.95265600
vt 0.50291800 0.33172400
vt 0.36476600 0.86864200
vt 0.52536600 0.33109600
vt 0.78233700 0.14868100
vt 0.88788600 0.55214600
vt 0.62304700 0.82623800
vt 0.77585200 0.13451700
vt 0.71702800 0.75738300
vt 0.08844300 0.93854000
vt 0.23015300 0.77704600
vt 0.72189200 0.75869300
vt 0.01303800 0.96493700
vt 0.62840700 0.82532800
vt 0.62840700 0.82532800
vt 0.40627500 0.79592500
vt 0.62304700 0.78301300
vt 0.62304700 0.78301300
vt 0.71702800 0.80060800
vt 0.71702800 0.80060800
vt 0.23015300 0.82717700
vt 0.72189200 0.79929700
vt 0.72189200 0.79929700
vt 0.62840700 0.78392200
vt 0.40627500 0.74480400
vt 0.97949400 0.80755000
vt 0.62304700 0.77083000
vt 0.62304700 0.77083000
vt 0.71702800 0.81279100
vt 0.71702800 0.81279100
vt 0.72351300 0.81279100
vt 0.72351300 0.81279100
vt 0.50239600 0.40407700
vt 0.52484400 0.40344900
vt 0.62953200 0.77083000
vt 0.62953200 0.77083000
vt 0.62304700 0.75580800
vt 0.71702800 0.82781200
vt 0.50291800 0.42261500
vt 0.72351300 0.82781200
vt 0.62953200 0.75580800
vt 0.52536600 0.42198700
vt 0.08195800 0.93853800
vt 0.72351300 0.75738300
vt 0.49269200 0.34165500
vt 0.72351300 0.80060800
vt 0.49419500 0.39500000
vt 0.72351300 0.80060800
vt 0.95949500 0.08035700
vt 0.00979600 0.97251700
vt 0.43659600 0.84242700
vt 0.44202900 0.84789700
vt 0.71865000 0.75869300
vt 0.00979600 0.96493600
vt 0.71865000 0.79929700
vt 0.71865000 0.79929700
vt 0.44202900 0.79776700
vt 0.43647800 0.80430700
vt 0.42640400 0.97454500
vt 0.71865000 0.79075100
vt 0.96273800 0.08035700
vt 0.22472000 0.78251600
vt 0.01303800 0.97251800
vt 0.22460200 0.82063600
vt 0.42964700 0.97455000
vt 0.72189200 0.79075100
vt 0.43647800 0.81865400
vt 0.62464700 0.24986800
vt 0.95949500 0.09954300
vt 0.22460200 0.80628900
vt 0.96273800 0.09954300
vt 0.62789000 0.24986700
vt 0.62464700 0.26123900
vt 0.76015400 0.96635300
vt 0.42640400 0.81318100
vt 0.76015400 0.95850800
vt 0.42752800 0.80430800
vt 0.42640400 0.96738600
vt 0.75691200 0.96635300
vt 0.62789000 0.26123800
vt 0.21452900 0.81176200
vt 0.42964700 0.96739200
vt 0.21565300 0.82063600
vt 0.75691200 0.95850800
vt 0.51513900 0.34102600
vt 0.78233700 0.13451600
vt 0.62953200 0.82623800
vt 0.62417200 0.82532800
vt 0.25983000 0.79964900
vt 0.62417200 0.82532800
vt 0.62953200 0.78301300
vt 0.62953200 0.78301300
vt 0.51664300 0.39437200
vt 0.25983000 0.85076800
vt 0.62417200 0.78392200
vt 0.98372800 0.80755000
vt 0.98290800 0.80258400
vt 0.62499400 0.78459400
vt 0.25619300 0.84731000
vt 0.62499400 0.82041000
vt 0.62499400 0.82041000
vt 0.25619300 0.80309100
vt 0.40263700 0.79247900
vt 0.62758500 0.82041000
vt 0.62758500 0.82041000
vt 0.62758500 0.78459400
vt 0.40263700 0.74826000
vt 0.98031700 0.80258400
f 18/18/18 23/23/23 98/98/98
f 98/98/98 97/97/97 18/18/18
f 107/107/107 12/12/12 77/77/77
f 77/77/77 122/122/122 107/107/107
f 7/7/7 11/11/11 4/4/4
f 4/4/4 1/1/1 7/7/7
f 2/2/2 5/5/5 103/103/103
f 103/103/103 102/102/102 2/2/2
f 106/106/106 8/8/8 3/3/3
f 3/3/3 101/101/101 106/106/106
f 10/10/10 108/108/108 104/104/104
f 104/104/104 6/6/6 10/10/10
f 11/11/11 7/7/7 36/36/36
f 36/36/36 78/78/78 11/11/11
f 9/9/9 105/105/105 124/124/124
f 124/124/124 37/37/37 9/9/9
f 131/131/131 83/83/83 29/29/29
f 29/29/29 142/142/142 131/131/131
f 78/78/78 36/36/36 38/38/38
f 38/38/38 85/85/85 78/78/78
f 45/45/45 48/48/48 52/52/52
f 45/45/45 52/52/52 59/59/59
f 45/45/45 59/59/59 43/43/43
f 25/25/25 144/144/144 152/152/152
f 152/152/152 32/32/32 25/25/25
f 85/85/85 38/38/38 26/26/26
f 26/26/26 30/30/30 85/85/85
f 39/39/39 134/134/134 143/143/143
f 143/143/143 27/27/27 39/39/39
f 141/141/141 28/28/28 34/34/34
f 34/34/34 151/151/151 141/141/141
f 30/30/30 26/26/26 31/31/31
f 31/31/31 33/33/33 30/30/30
f 13/13/13 19/19/19 40/40/40
f 40/40/40 35/35/35 13/13/13
f 44/44/44 13/13/13 35/35/35
f 35/35/35 123/123/123 44/44/44
f 19/19/19 47/47/47 133/133/133
f 133/133/133 40/40/40 19/19/19
f 47/47/47 44/44/44 123/123/123
f 123/123/123 133/133/133 47/47/47
f 58/58/58 64/64/64 73/73/73
f 73/73/73 76/76/76 58/58/58
f 15/15/15 46/46/46 42/42/42
f 42/42/42 55/55/55 15/15/15
f 49/49/49 21/21/21 56/56/56
f 56/56/56 50/50/50 49/49/49
f 20/20/20 14/14/14 53/53/53
f 20/20/20 53/53/53 64/64/64
f 20/20/20 64/64/64 58/58/58
f 54/54/54 41/41/41 61/61/61
f 61/61/61 62/62/62 54/54/54
f 72/72/72 67/67/67 68/68/68
f 68/68/68 75/75/75 72/72/72
f 63/63/63 60/60/60 66/66/66
f 66/66/66 71/71/71 63/63/63
f 59/59/59 52/52/52 70/70/70
f 70/70/70 65/65/65 59/59/59
f 51/51/51 57/57/57 74/74/74
f 74/74/74 69/69/69 51/51/51
f 16/16/16 82/82/82 121/121/121
f 121/121/121 79/79/79 16/16/16
f 88/88/88 24/24/24 84/84/84
f 84/84/84 132/132/132 88/88/88
f 24/24/24 16/16/16 79/79/79
f 79/79/79 84/84/84 24/24/24
f 82/82/82 88/88/88 132/132/132
f 132/132/132 121/121/121 82/82/82
f 92/92/92 95/95/95 100/100/100
f 100/100/100 89/89/89 92/92/92
f 80/80/80 17/17/17 96/96/96
f 96/96/96 93/93/93 80/80/80
f 86/86/86 81/81/81 94/94/94
f 94/94/94 91/91/91 86/86/86
f 22/22/22 87/87/87 90/90/90
f 90/90/90 99/99/99 22/22/22
f 130/130/130 217/217/217 221/221/221
f 221/221/221 139/139/139 130/130/130
f 107/107/107 122/122/122 200/200/200
f 200/200/200 119/119/119 107/107/107
f 116/116/116 109/109/109 113/113/113
f 113/113/113 118/118/118 116/116/116
f 111/111/111 102/102/102 103/103/103
f 103/103/103 114/114/114 111/111/111
f 106/106/106 101/101/101 110/110/110
f 110/110/110 117/117/117 106/106/106
f 120/120/120 112/112/112 104/104/104
f 104/104/104 108/108/108 120/120/120
f 118/118/118 199/199/199 159/159/159
f 159/159/159 116/116/116 118/118/118
f 115/115/115 157/157/157 124/124/124
f 124/124/124 105/105/105 115/115/115
f 131/131/131 142/142/142 149/149/149
f 149/149/149 206/206/206 131/131/131
f 199/199/199 207/207/207 161/161/161
f 161/161/161 159/159/159 199/199/199
f 166/166/166 165/165/165 181/181/181
f 166/166/166 181/181/181 172/172/172
f 166/166/166 172/172/172 171/171/171
f 145/145/145 154/154/154 152/152/152
f 152/152/152 144/144/144 145/145/145
f 207/207/207 148/148/148 147/147/147
f 147/147/147 161/161/161 207/207/207
f 162/162/162 146/146/146 143/143/143
f 143/143/143 134/134/134 162/162/162
f 141/141/141 151/151/151 155/155/155
f 155/155/155 150/150/150 141/141/141
f 148/148/148 156/156/156 153/153/153
f 153/153/153 147/147/147 148/148/148
f 126/126/126 158/158/158 160/160/160
f 160/160/160 136/136/136 126/126/126
f 167/167/167 123/123/123 158/158/158
f 158/158/158 126/126/126 167/167/167
f 136/136/136 160/160/160 133/133/133
f 133/133/133 170/170/170 136/136/136
f 170/170/170 133/133/133 123/123/123
f 123/123/123 167/167/167 170/170/170
f 178/178/178 197/197/197 195/195/195
f 195/195/195 184/184/184 178/178/178
f 127/127/127 177/177/177 164/164/164
f 164/164/164 168/168/168 127/127/127
f 169/169/169 174/174/174 180/180/180
f 180/180/180 137/137/137 169/169/169
f 135/135/135 178/178/178 184/184/184
f 135/135/135 184/184/184 176/176/176
f 135/135/135 176/176/176 125/125/125
f 175/175/175 185/185/185 183/183/183
f 183/183/183 163/163/163 175/175/175
f 193/193/193 198/198/198 190/190/190
f 190/190/190 188/188/188 193/193/193
f 186/186/186 194/194/194 187/187/187
f 187/187/187 182/182/182 186/186/186
f 181/181/181 189/189/189 191/191/191
f 191/191/191 172/172/172 181/181/181
f 173/173/173 192/192/192 196/196/196
f 196/196/196 179/179/179 173/173/173
f 128/128/128 201/201/201 121/121/121
f 121/121/121 204/204/204 128/128/128
f 209/209/209 132/132/132 205/205/205
f 205/205/205 138/138/138 209/209/209
f 138/138/138 205/205/205 201/201/201
f 201/201/201 128/128/128 138/138/138
f 204/204/204 121/121/121 132/132/132
f 132/132/132 209/209/209 204/204/204
f 215/215/215 212/212/212 220/220/220
f 220/220/220 218/218/218 215/215/215
f 202/202/202 214/214/214 219/219/219
f 219/219/219 129/129/129 202/202/202
f 208/208/208 213/213/213 216/216/216
f 216/216/216 203/203/203 208/208/208
f 140/140/140 222/222/222 211/211/211
f 211/211/211 210/210/210 140/140/140

