mtllib material.mtl
usemtl Leg.BL.001_MAT
v -0.12422300 -0.13653000 0.23865300
v -0.12422300 -0.13653000 0.23865300
v -0.12422300 -0.13653000 0.23865300
v -0.12198800 -0.13429400 0.23235900
v -0.12198800 -0.13429400 0.23235900
v -0.12162500 -0.13393100 0.22533500
v -0.12162500 -0.13393100 0.22533500
v -0.12319200 -0.13549600 0.21864900
v -0.12319200 -0.13549600 0.21864900
v -0.12644900 -0.13875000 0.21331900
v -0.12644900 -0.13875000 0.21331900
v -0.12644900 -0.13875000 0.21331900
v -0.13090100 -0.14319900 0.21015700
v -0.13090100 -0.14319900 0.21015700
v -0.13586900 -0.14816500 0.20964400
v -0.13586900 -0.14816500 0.20964400
v -0.14059800 -0.15289200 0.21185900
v -0.14059800 -0.15289200 0.21185900
v -0.14436700 -0.15666000 0.21646300
v -0.14436700 -0.15666000 0.21646300
v -0.14436700 -0.15666000 0.21646300
v -0.14660300 -0.15889600 0.22275700
v -0.14660300 -0.15889600 0.22275700
v -0.14696500 -0.15925900 0.22978100
v -0.14696500 -0.15925900 0.22978100
v -0.14539800 -0.15769400 0.23646700
v -0.14539800 -0.15769400 0.23646700
v -0.14214100 -0.15443900 0.24179700
v -0.14214100 -0.15443900 0.24179700
v -0.14214100 -0.15443900 0.24179700
v -0.13769000 -0.14999100 0.24495900
v -0.13769000 -0.14999100 0.24495900
v -0.13272100 -0.14502500 0.24547100
v -0.13272100 -0.14502500 0.24547100
v -0.12799300 -0.14029800 0.24325700
v -0.12799300 -0.14029800 0.24325700
v -0.12348400 -0.13565100 0.23180300
v -0.12348400 -0.13565100 0.23180300
v -0.12348400 -0.13565100 0.23180300
v -0.12546000 -0.13762700 0.23736600
v -0.12546000 -0.13762700 0.23736600
v -0.12316400 -0.13533000 0.22559200
v -0.12316400 -0.13533000 0.22559200
v -0.12316400 -0.13533000 0.22559200
v -0.12454900 -0.13671300 0.21968100
v -0.12454900 -0.13671300 0.21968100
v -0.12742800 -0.13959000 0.21497000
v -0.12742800 -0.13959000 0.21497000
v -0.13136400 -0.14352300 0.21217400
v -0.13136400 -0.14352300 0.21217400
v -0.13136400 -0.14352300 0.21217400
v -0.13575600 -0.14791300 0.21172100
v -0.13575600 -0.14791300 0.21172100
v -0.13575600 -0.14791300 0.21172100
v -0.13993700 -0.15209200 0.21367900
v -0.13993700 -0.15209200 0.21367900
v -0.14326900 -0.15542300 0.21774900
v -0.14326900 -0.15542300 0.21774900
v -0.14524600 -0.15740000 0.22331300
v -0.14524600 -0.15740000 0.22331300
v -0.14524600 -0.15740000 0.22331300
v -0.14556600 -0.15772100 0.22952300
v -0.14556600 -0.15772100 0.22952300
v -0.14556600 -0.15772100 0.22952300
v -0.14418100 -0.15633800 0.23543400
v -0.14418100 -0.15633800 0.23543400
v -0.14130100 -0.15346000 0.24014600
v -0.14130100 -0.15346000 0.24014600
v -0.13736600 -0.14952700 0.24294100
v -0.13736600 -0.14952700 0.24294100
v -0.13736600 -0.14952700 0.24294100
v -0.13297300 -0.14513700 0.24339500
v -0.13297300 -0.14513700 0.24339500
v -0.13297300 -0.14513700 0.24339500
v -0.12879300 -0.14095900 0.24143700
v -0.12879300 -0.14095900 0.24143700
v -0.12343900 -0.13729500 0.23149100
v -0.12343900 -0.13729500 0.23149100
v -0.12343900 -0.13729500 0.23149100
v -0.12527000 -0.13912600 0.23664600
v -0.12527000 -0.13912600 0.23664600
v -0.12314200 -0.13699700 0.22573700
v -0.12314200 -0.13699700 0.22573700
v -0.12314200 -0.13699700 0.22573700
v -0.12442500 -0.13827900 0.22026000
v -0.12442500 -0.13827900 0.22026000
v -0.12709300 -0.14094500 0.21589400
v -0.12709300 -0.14094500 0.21589400
v -0.13074000 -0.14458900 0.21330400
v -0.13074000 -0.14458900 0.21330400
v -0.13074000 -0.14458900 0.21330400
v -0.13480900 -0.14865700 0.21288400
v -0.13480900 -0.14865700 0.21288400
v -0.13480900 -0.14865700 0.21288400
v -0.13868300 -0.15252800 0.21469800
v -0.13868300 -0.15252800 0.21469800
v -0.14177000 -0.15561500 0.21847000
v -0.14177000 -0.15561500 0.21847000
v -0.14360200 -0.15744600 0.22362500
v -0.14360200 -0.15744600 0.22362500
v -0.14360200 -0.15744600 0.22362500
v -0.14389800 -0.15774400 0.22937900
v -0.14389800 -0.15774400 0.22937900
v -0.14389800 -0.15774400 0.22937900
v -0.14261500 -0.15646200 0.23485500
v -0.14261500 -0.15646200 0.23485500
v -0.13994700 -0.15379600 0.23922100
v -0.13994700 -0.15379600 0.23922100
v -0.13630000 -0.15015200 0.24181100
v -0.13630000 -0.15015200 0.24181100
v -0.13630000 -0.15015200 0.24181100
v -0.13223100 -0.14608400 0.24223100
v -0.13223100 -0.14608400 0.24223100
v -0.13223100 -0.14608400 0.24223100
v -0.12835700 -0.14221300 0.24041700
v -0.12835700 -0.14221300 0.24041700
v -0.12682200 -0.13393100 0.23865300
v -0.12682200 -0.13393100 0.23865300
v -0.12458600 -0.13169500 0.23236000
v -0.12422400 -0.13133200 0.22533500
v -0.12579000 -0.13289600 0.21864900
v -0.12904800 -0.13615100 0.21331900
v -0.12904800 -0.13615100 0.21331900
v -0.13349900 -0.14060000 0.21015800
v -0.13846800 -0.14556500 0.20964500
v -0.13846800 -0.14556500 0.20964500
v -0.13846800 -0.14556500 0.20964500
v -0.14319600 -0.15029200 0.21185900
v -0.14319600 -0.15029200 0.21185900
v -0.14696500 -0.15406000 0.21646400
v -0.14696500 -0.15406000 0.21646400
v -0.14696500 -0.15406000 0.21646400
v -0.14920100 -0.15629600 0.22275700
v -0.14920100 -0.15629600 0.22275700
v -0.14956300 -0.15665900 0.22978200
v -0.14956300 -0.15665900 0.22978200
v -0.14799700 -0.15509400 0.23646800
v -0.14799700 -0.15509400 0.23646800
v -0.14799700 -0.15509400 0.23646800
v -0.14473900 -0.15184000 0.24179700
v -0.14473900 -0.15184000 0.24179700
v -0.14028800 -0.14739100 0.24495900
v -0.13531900 -0.14242500 0.24547200
v -0.13059100 -0.13769900 0.24325800
v -0.16358500 -0.17208400 0.19254100
v -0.16358500 -0.17208400 0.19254100
v -0.16358500 -0.17208400 0.19254100
v -0.16476900 -0.17326800 0.20079300
v -0.16476900 -0.17326800 0.20079300
v -0.16809500 -0.17659400 0.20777600
v -0.16809500 -0.17659400 0.20777600
v -0.16809500 -0.17659400 0.20777600
v -0.16047900 -0.17519100 0.19254100
v -0.16047900 -0.17519100 0.19254100
v -0.16161900 -0.17633000 0.18427700
v -0.16161900 -0.17633000 0.18427700
v -0.16491000 -0.17961700 0.17725800
v -0.16491000 -0.17961700 0.17725800
v -0.16491000 -0.17961700 0.17725800
v -0.16984900 -0.18455300 0.17255400
v -0.16984900 -0.18455300 0.17255400
v -0.17568600 -0.19038600 0.17088000
v -0.17568600 -0.19038600 0.17088000
v -0.18153100 -0.19622800 0.17249100
v -0.18153100 -0.19622800 0.17249100
v -0.18649400 -0.20119000 0.17714200
v -0.18649400 -0.20119000 0.17714200
v -0.18649400 -0.20119000 0.17714200
v -0.18982100 -0.20451700 0.18412500
v -0.18982100 -0.20451700 0.18412500
v -0.19100400 -0.20570100 0.19237700
v -0.19100400 -0.20570100 0.19237700
v -0.18986400 -0.20456300 0.20064100
v -0.18986400 -0.20456300 0.20064100
v -0.18657400 -0.20127500 0.20765900
v -0.18657400 -0.20127500 0.20765900
v -0.18657400 -0.20127500 0.20765900
v -0.18163400 -0.19633900 0.21236400
v -0.18163400 -0.19633900 0.21236400
v -0.17579800 -0.19050600 0.21403800
v -0.17579800 -0.19050600 0.21403800
v -0.16995300 -0.18466400 0.21242600
v -0.16995300 -0.18466400 0.21242600
v -0.16498900 -0.17970200 0.20777500
v -0.16498900 -0.17970200 0.20777500
v -0.16498900 -0.17970200 0.20777500
v -0.16166300 -0.17637600 0.20079300
v -0.16166300 -0.17637600 0.20079300
v -0.16334000 -0.17788300 0.18522500
v -0.16334000 -0.17788300 0.18522500
v -0.16334000 -0.17788300 0.18522500
v -0.16233200 -0.17687700 0.19253100
v -0.16233200 -0.17687700 0.19253100
v -0.16624900 -0.18078900 0.17902000
v -0.16624900 -0.18078900 0.17902000
v -0.17061500 -0.18515300 0.17486100
v -0.17061500 -0.18515300 0.17486100
v -0.17061500 -0.18515300 0.17486100
v -0.17577500 -0.19031000 0.17338100
v -0.17577500 -0.19031000 0.17338100
v -0.18094300 -0.19547500 0.17480600
v -0.18094300 -0.19547500 0.17480600
v -0.18094300 -0.19547500 0.17480600
v -0.18533100 -0.19986200 0.17891800
v -0.18533100 -0.19986200 0.17891800
v -0.18827200 -0.20280200 0.18509100
v -0.18827200 -0.20280200 0.18509100
v -0.18827200 -0.20280200 0.18509100
v -0.18931800 -0.20384900 0.19238600
v -0.18931800 -0.20384900 0.19238600
v -0.18831000 -0.20284300 0.19969200
v -0.18831000 -0.20284300 0.19969200
v -0.18831000 -0.20284300 0.19969200
v -0.18540100 -0.19993700 0.20589700
v -0.18540100 -0.19993700 0.20589700
v -0.18103400 -0.19557300 0.21005600
v -0.18103400 -0.19557300 0.21005600
v -0.18103400 -0.19557300 0.21005600
v -0.17587400 -0.19041600 0.21153600
v -0.17587400 -0.19041600 0.21153600
v -0.17070700 -0.18525100 0.21011200
v -0.17070700 -0.18525100 0.21011200
v -0.17070700 -0.18525100 0.21011200
v -0.16631900 -0.18086400 0.20600000
v -0.16631900 -0.18086400 0.20600000
v -0.16337800 -0.17792400 0.19982600
v -0.16337800 -0.17792400 0.19982600
v -0.16337800 -0.17792400 0.19982600
v -0.16324700 -0.17981000 0.18575700
v -0.16324700 -0.17981000 0.18575700
v -0.16324700 -0.17981000 0.18575700
v -0.16231300 -0.17887800 0.19252600
v -0.16231300 -0.17887800 0.19252600
v -0.16594200 -0.18250300 0.18000700
v -0.16594200 -0.18250300 0.18000700
v -0.16998800 -0.18654600 0.17615400
v -0.16998800 -0.18654600 0.17615400
v -0.16998800 -0.18654600 0.17615400
v -0.17476900 -0.19132400 0.17478300
v -0.17476900 -0.19132400 0.17478300
v -0.17955700 -0.19611000 0.17610300
v -0.17955700 -0.19611000 0.17610300
v -0.17955700 -0.19611000 0.17610300
v -0.18362300 -0.20017400 0.17991200
v -0.18362300 -0.20017400 0.17991200
v -0.18634800 -0.20289900 0.18563200
v -0.18634800 -0.20289900 0.18563200
v -0.18634800 -0.20289900 0.18563200
v -0.18731700 -0.20386900 0.19239100
v -0.18731700 -0.20386900 0.19239100
v -0.18638300 -0.20293600 0.19916100
v -0.18638300 -0.20293600 0.19916100
v -0.18638300 -0.20293600 0.19916100
v -0.18368800 -0.20024400 0.20491000
v -0.18368800 -0.20024400 0.20491000
v -0.17964200 -0.19620000 0.20876300
v -0.17964200 -0.19620000 0.20876300
v -0.17964200 -0.19620000 0.20876300
v -0.17486100 -0.19142200 0.21013400
v -0.17486100 -0.19142200 0.21013400
v -0.17007300 -0.18663700 0.20881500
v -0.17007300 -0.18663700 0.20881500
v -0.17007300 -0.18663700 0.20881500
v -0.16600700 -0.18257200 0.20500500
v -0.16600700 -0.18257200 0.20500500
v -0.16328200 -0.17984800 0.19928500
v -0.16328200 -0.17984800 0.19928500
v -0.16328200 -0.17984800 0.19928500
v -0.16472600 -0.17322200 0.18427700
v -0.16801600 -0.17650900 0.17725900
v -0.16801600 -0.17650900 0.17725900
v -0.17295500 -0.18144500 0.17255400
v -0.17879200 -0.18727800 0.17088000
v -0.18463700 -0.19312100 0.17249200
v -0.18960000 -0.19808300 0.17714300
v -0.18960000 -0.19808300 0.17714300
v -0.19292700 -0.20140900 0.18412600
v -0.19411000 -0.20259300 0.19237700
v -0.19297000 -0.20145500 0.20064100
v -0.18968000 -0.19816800 0.20766000
v -0.18968000 -0.19816800 0.20766000
v -0.18474000 -0.19323200 0.21236400
v -0.17890400 -0.18739800 0.21403800
v -0.17305900 -0.18155600 0.21242700
v -0.17305900 -0.18155600 0.21242700
v -0.17305900 -0.18155600 0.21242700
v -0.13044500 -0.13030500 0.23865400
v -0.13044500 -0.13030500 0.23865400
v -0.13666800 -0.12407900 0.23865500
v -0.13666800 -0.12407900 0.23865500
v -0.13666800 -0.12407900 0.23865500
v -0.12821000 -0.12806900 0.23236000
v -0.13443200 -0.12184400 0.23236100
v -0.13443200 -0.12184400 0.23236100
v -0.12784800 -0.12770600 0.22533600
v -0.13407000 -0.12148000 0.22533700
v -0.13407000 -0.12148000 0.22533700
v -0.12941400 -0.12927100 0.21865000
v -0.13563700 -0.12304500 0.21865100
v -0.13563700 -0.12304500 0.21865100
v -0.13267100 -0.13252500 0.21332000
v -0.13267100 -0.13252500 0.21332000
v -0.13889400 -0.12630000 0.21332100
v -0.13889400 -0.12630000 0.21332100
v -0.13889400 -0.12630000 0.21332100
v -0.13712300 -0.13697400 0.21015800
v -0.14334500 -0.13074900 0.21015900
v -0.14334500 -0.13074900 0.21015900
v -0.14209100 -0.14194000 0.20964500
v -0.14209100 -0.14194000 0.20964500
v -0.14831400 -0.13571400 0.20964700
v -0.14831400 -0.13571400 0.20964700
v -0.15304200 -0.14044100 0.21186100
v -0.15304200 -0.14044100 0.21186100
v -0.15681200 -0.14420900 0.21646500
v -0.15681200 -0.14420900 0.21646500
v -0.15681200 -0.14420900 0.21646500
v -0.15904700 -0.14644500 0.22275900
v -0.15904700 -0.14644500 0.22275900
v -0.15940900 -0.14680800 0.22978300
v -0.15940900 -0.14680800 0.22978300
v -0.15162100 -0.15146800 0.23646800
v -0.15162100 -0.15146800 0.23646800
v -0.15784300 -0.14524300 0.23646900
v -0.15784300 -0.14524300 0.23646900
v -0.14836300 -0.14821400 0.24179800
v -0.14836300 -0.14821400 0.24179800
v -0.15458500 -0.14198900 0.24179900
v -0.15458500 -0.14198900 0.24179900
v -0.15458500 -0.14198900 0.24179900
v -0.14391200 -0.14376500 0.24496000
v -0.15013400 -0.13754000 0.24496100
v -0.15013400 -0.13754000 0.24496100
v -0.13894300 -0.13879900 0.24547300
v -0.14516600 -0.13257400 0.24547400
v -0.14516600 -0.13257400 0.24547400
v -0.13421500 -0.13407300 0.24325800
v -0.14043700 -0.12784700 0.24325900
v -0.14043700 -0.12784700 0.24325900
v -0.13578900 -0.12333900 0.23180500
v -0.13578900 -0.12333900 0.23180500
v -0.13578900 -0.12333900 0.23180500
v -0.13776600 -0.12531600 0.23736900
v -0.13776600 -0.12531600 0.23736900
v -0.13546900 -0.12301800 0.22559500
v -0.13546900 -0.12301800 0.22559500
v -0.13546900 -0.12301800 0.22559500
v -0.13685400 -0.12440100 0.21968400
v -0.13685400 -0.12440100 0.21968400
v -0.13973400 -0.12727900 0.21497200
v -0.13973400 -0.12727900 0.21497200
v -0.14366900 -0.13121200 0.21217700
v -0.14366900 -0.13121200 0.21217700
v -0.14366900 -0.13121200 0.21217700
v -0.14806200 -0.13560200 0.21172300
v -0.14806200 -0.13560200 0.21172300
v -0.14806200 -0.13560200 0.21172300
v -0.15224200 -0.13978100 0.21368100
v -0.15224200 -0.13978100 0.21368100
v -0.15557400 -0.14311200 0.21775200
v -0.15557400 -0.14311200 0.21775200
v -0.15755100 -0.14508800 0.22331500
v -0.15755100 -0.14508800 0.22331500
v -0.15755100 -0.14508800 0.22331500
v -0.15787100 -0.14540900 0.22952600
v -0.15787100 -0.14540900 0.22952600
v -0.15787100 -0.14540900 0.22952600
v -0.15648600 -0.14402600 0.23543600
v -0.15648600 -0.14402600 0.23543600
v -0.15360600 -0.14114900 0.24014800
v -0.15360600 -0.14114900 0.24014800
v -0.14967100 -0.13721600 0.24294400
v -0.14967100 -0.13721600 0.24294400
v -0.14967100 -0.13721600 0.24294400
v -0.14527800 -0.13282600 0.24339700
v -0.14527800 -0.13282600 0.24339700
v -0.14527800 -0.13282600 0.24339700
v -0.14109800 -0.12864700 0.24143900
v -0.14109800 -0.12864700 0.24143900
v -0.13743300 -0.12329300 0.23149300
v -0.13743300 -0.12329300 0.23149300
v -0.13743300 -0.12329300 0.23149300
v -0.13926500 -0.12512400 0.23664800
v -0.13926500 -0.12512400 0.23664800
v -0.13713700 -0.12299500 0.22573900
v -0.13713700 -0.12299500 0.22573900
v -0.13713700 -0.12299500 0.22573900
v -0.13842000 -0.12427700 0.22026200
v -0.13842000 -0.12427700 0.22026200
v -0.14108800 -0.12694300 0.21589700
v -0.14108800 -0.12694300 0.21589700
v -0.14473400 -0.13058700 0.21330700
v -0.14473400 -0.13058700 0.21330700
v -0.14473400 -0.13058700 0.21330700
v -0.14880400 -0.13465500 0.21288700
v -0.14880400 -0.13465500 0.21288700
v -0.14880400 -0.13465500 0.21288700
v -0.15267700 -0.13852600 0.21470100
v -0.15267700 -0.13852600 0.21470100
v -0.15576500 -0.14161300 0.21847200
v -0.15576500 -0.14161300 0.21847200
v -0.15759600 -0.14344400 0.22362700
v -0.15759600 -0.14344400 0.22362700
v -0.15759600 -0.14344400 0.22362700
v -0.15789300 -0.14374200 0.22938100
v -0.15789300 -0.14374200 0.22938100
v -0.15789300 -0.14374200 0.22938100
v -0.15660900 -0.14246000 0.23485800
v -0.15660900 -0.14246000 0.23485800
v -0.15394200 -0.13979400 0.23922400
v -0.15394200 -0.13979400 0.23922400
v -0.15029500 -0.13615000 0.24181400
v -0.15029500 -0.13615000 0.24181400
v -0.15029500 -0.13615000 0.24181400
v -0.14622500 -0.13208300 0.24223400
v -0.14622500 -0.13208300 0.24223400
v -0.14622500 -0.13208300 0.24223400
v -0.14235200 -0.12821100 0.24042000
v -0.14235200 -0.12821100 0.24042000
v -0.13406900 -0.12667900 0.23865400
v -0.13406900 -0.12667900 0.23865400
v -0.13183400 -0.12444300 0.23236100
v -0.13147100 -0.12408000 0.22533600
v -0.13303800 -0.12564500 0.21865000
v -0.13629500 -0.12889900 0.21332100
v -0.13629500 -0.12889900 0.21332100
v -0.14074700 -0.13334800 0.21015900
v -0.14571500 -0.13831400 0.20964600
v -0.14571500 -0.13831400 0.20964600
v -0.14571500 -0.13831400 0.20964600
v -0.15044400 -0.14304000 0.21186000
v -0.15044400 -0.14304000 0.21186000
v -0.15421300 -0.14680900 0.21646500
v -0.15421300 -0.14680900 0.21646500
v -0.15421300 -0.14680900 0.21646500
v -0.15644900 -0.14904400 0.22275800
v -0.15644900 -0.14904400 0.22275800
v -0.15681100 -0.14940800 0.22978300
v -0.15681100 -0.14940800 0.22978300
v -0.15524400 -0.14784300 0.23646900
v -0.15524400 -0.14784300 0.23646900
v -0.15524400 -0.14784300 0.23646900
v -0.15198700 -0.14458800 0.24179800
v -0.15198700 -0.14458800 0.24179800
v -0.14753600 -0.14013900 0.24496000
v -0.14256700 -0.13517400 0.24547300
v -0.13783900 -0.13044700 0.24325900
v -0.17225000 -0.16341500 0.19254300
v -0.17225000 -0.16341500 0.19254300
v -0.17225000 -0.16341500 0.19254300
v -0.17343300 -0.16459900 0.20079500
v -0.17343300 -0.16459900 0.20079500
v -0.17676000 -0.16792500 0.20777800
v -0.17676000 -0.16792500 0.20777800
v -0.17676000 -0.16792500 0.20777800
v -0.16791700 -0.16774900 0.19254200
v -0.16791700 -0.16774900 0.19254200
v -0.17535600 -0.16030700 0.19254300
v -0.17535600 -0.16030700 0.19254300
v -0.16905800 -0.16888800 0.18427800
v -0.17649600 -0.16144500 0.18427900
v -0.17649600 -0.16144500 0.18427900
v -0.17234800 -0.17217500 0.17726000
v -0.17234800 -0.17217500 0.17726000
v -0.17978600 -0.16473300 0.17726100
v -0.17978600 -0.16473300 0.17726100
v -0.17978600 -0.16473300 0.17726100
v -0.17728700 -0.17711100 0.17255500
v -0.18472600 -0.16966900 0.17255600
v -0.18472600 -0.16966900 0.17255600
v -0.18312400 -0.18294400 0.17088100
v -0.19056200 -0.17550200 0.17088200
v -0.19056200 -0.17550200 0.17088200
v -0.18896900 -0.18878600 0.17249200
v -0.19640700 -0.18134400 0.17249400
v -0.19640700 -0.18134400 0.17249400
v -0.19393200 -0.19374800 0.17714300
v -0.19393200 -0.19374800 0.17714300
v -0.20137100 -0.18630600 0.17714500
v -0.20137100 -0.18630600 0.17714500
v -0.20137100 -0.18630600 0.17714500
v -0.20469800 -0.18963200 0.18412800
v -0.20469800 -0.18963200 0.18412800
v -0.20588100 -0.19081700 0.19237900
v -0.20588100 -0.19081700 0.19237900
v -0.20474100 -0.18967800 0.20064300
v -0.20474100 -0.18967800 0.20064300
v -0.20145000 -0.18639100 0.20766200
v -0.20145000 -0.18639100 0.20766200
v -0.20145000 -0.18639100 0.20766200
v -0.18907300 -0.18889700 0.21236500
v -0.19651100 -0.18145500 0.21236600
v -0.19651100 -0.18145500 0.21236600
v -0.18323600 -0.18306400 0.21403900
v -0.19067400 -0.17562200 0.21404000
v -0.19067400 -0.17562200 0.21404000
v -0.17739100 -0.17722200 0.21242800
v -0.17739100 -0.17722200 0.21242800
v -0.18482900 -0.16978000 0.21242900
v -0.18482900 -0.16978000 0.21242900
v -0.17986600 -0.16481800 0.20777800
v -0.17986600 -0.16481800 0.20777800
v -0.17986600 -0.16481800 0.20777800
v -0.17653900 -0.16149100 0.20079500
v -0.17653900 -0.16149100 0.20079500
v -0.17805000 -0.16316500 0.18522800
v -0.17805000 -0.16316500 0.18522800
v -0.17805000 -0.16316500 0.18522800
v -0.17704200 -0.16215900 0.19253400
v -0.17704200 -0.16215900 0.19253400
v -0.18095900 -0.16607100 0.17902300
v -0.18095900 -0.16607100 0.17902300
v -0.18532600 -0.17043500 0.17486400
v -0.18532600 -0.17043500 0.17486400
v -0.18532600 -0.17043500 0.17486400
v -0.19048600 -0.17559200 0.17338400
v -0.19048600 -0.17559200 0.17338400
v -0.19565300 -0.18075700 0.17480800
v -0.19565300 -0.18075700 0.17480800
v -0.19565300 -0.18075700 0.17480800
v -0.20004100 -0.18514400 0.17892000
v -0.20004100 -0.18514400 0.17892000
v -0.20298200 -0.18808400 0.18509400
v -0.20298200 -0.18808400 0.18509400
v -0.20298200 -0.18808400 0.18509400
v -0.20402800 -0.18913100 0.19238900
v -0.20402800 -0.18913100 0.19238900
v -0.20302000 -0.18812500 0.19969500
v -0.20302000 -0.18812500 0.19969500
v -0.20302000 -0.18812500 0.19969500
v -0.20011100 -0.18521900 0.20590000
v -0.20011100 -0.18521900 0.20590000
v -0.19574500 -0.18085500 0.21005900
v -0.19574500 -0.18085500 0.21005900
v -0.19574500 -0.18085500 0.21005900
v -0.19058500 -0.17569800 0.21153900
v -0.19058500 -0.17569800 0.21153900
v -0.18541700 -0.17053300 0.21011400
v -0.18541700 -0.17053300 0.21011400
v -0.18541700 -0.17053300 0.21011400
v -0.18102900 -0.16614600 0.20600200
v -0.18102900 -0.16614600 0.20600200
v -0.17808800 -0.16320600 0.19982900
v -0.17808800 -0.16320600 0.19982900
v -0.17808800 -0.16320600 0.19982900
v -0.17997700 -0.16307200 0.18575900
v -0.17997700 -0.16307200 0.18575900
v -0.17997700 -0.16307200 0.18575900
v -0.17904300 -0.16213900 0.19252900
v -0.17904300 -0.16213900 0.19252900
v -0.18267200 -0.16576400 0.18001000
v -0.18267200 -0.16576400 0.18001000
v -0.18671800 -0.16980800 0.17615700
v -0.18671800 -0.16980800 0.17615700
v -0.18671800 -0.16980800 0.17615700
v -0.19149900 -0.17458600 0.17478600
v -0.19149900 -0.17458600 0.17478600
v -0.19628700 -0.17937100 0.17610600
v -0.19628700 -0.17937100 0.17610600
v -0.19628700 -0.17937100 0.17610600
v -0.20035300 -0.18343600 0.17991500
v -0.20035300 -0.18343600 0.17991500
v -0.20307800 -0.18616000 0.18563500
v -0.20307800 -0.18616000 0.18563500
v -0.20307800 -0.18616000 0.18563500
v -0.20404700 -0.18713000 0.19239400
v -0.20404700 -0.18713000 0.19239400
v -0.20311300 -0.18619800 0.19916400
v -0.20311300 -0.18619800 0.19916400
v -0.20311300 -0.18619800 0.19916400
v -0.20041800 -0.18350500 0.20491300
v -0.20041800 -0.18350500 0.20491300
v -0.19637200 -0.17946200 0.20876600
v -0.19637200 -0.17946200 0.20876600
v -0.19637200 -0.17946200 0.20876600
v -0.19159100 -0.17468400 0.21013700
v -0.19159100 -0.17468400 0.21013700
v -0.18680300 -0.16989800 0.20881800
v -0.18680300 -0.16989800 0.20881800
v -0.18680300 -0.16989800 0.20881800
v -0.18273700 -0.16583400 0.20500800
v -0.18273700 -0.16583400 0.20500800
v -0.18001200 -0.16310900 0.19928800
v -0.18001200 -0.16310900 0.19928800
v -0.18001200 -0.16310900 0.19928800
v -0.17339000 -0.16455300 0.18427900
v -0.17668000 -0.16784000 0.17726000
v -0.17668000 -0.16784000 0.17726000
v -0.18162000 -0.17277600 0.17255600
v -0.18745600 -0.17861000 0.17088200
v -0.19330100 -0.18445200 0.17249300
v -0.19826500 -0.18941400 0.17714400
v -0.19826500 -0.18941400 0.17714400
v -0.20159100 -0.19274000 0.18412700
v -0.20277500 -0.19392400 0.19237900
v -0.20163400 -0.19278600 0.20064300
v -0.19834400 -0.18949900 0.20766100
v -0.19834400 -0.18949900 0.20766100
v -0.19340500 -0.18456300 0.21236600
v -0.18756800 -0.17873000 0.21404000
v -0.18172300 -0.17288700 0.21242900
v -0.18172300 -0.17288700 0.21242900
v -0.18172300 -0.17288700 0.21242900
v -0.19844300 -0.19825900 0.19237800
v -0.19725900 -0.19707500 0.18412600
v -0.19401200 -0.19383300 0.20766100
v -0.19401200 -0.19383300 0.20766100
v -0.19730200 -0.19712000 0.20064200
vn 0.55800000 0.55760000 0.61460000
vn 0.55800000 0.55760000 0.61460000
vn 0.68000000 -0.73270000 -0.02900000
vn 0.68180000 0.68140000 0.26600000
vn 0.67420000 -0.73850000 -0.01260000
vn 0.67320000 -0.73940000 0.00570000
vn 0.70190000 0.70160000 -0.12320000
vn 0.61510000 0.61490000 -0.49360000
vn 0.67730000 -0.73540000 0.02300000
vn 0.43470000 0.43460000 -0.78880000
vn 0.43470000 0.43460000 -0.78880000
vn 0.68580000 -0.72690000 0.03690000
vn 0.18800000 0.18810000 -0.96400000
vn 0.69730000 -0.71530000 0.04510000
vn -0.08720000 -0.08700000 -0.99240000
vn 0.71020000 -0.70240000 0.04640000
vn 0.72250000 -0.69010000 0.04070000
vn -0.34920000 -0.34880000 -0.86970000
vn -0.55800000 -0.55760000 -0.61460000
vn 0.73230000 -0.68030000 0.02870000
vn -0.55800000 -0.55760000 -0.61460000
vn 0.73810000 -0.67450000 0.01240000
vn -0.68180000 -0.68140000 -0.26600000
vn -0.70190000 -0.70160000 0.12320000
vn 0.73910000 -0.67360000 -0.00590000
vn 0.73500000 -0.67770000 -0.02330000
vn -0.61510000 -0.61490000 0.49360000
vn -0.43460000 -0.43460000 0.78880000
vn -0.43460000 -0.43460000 0.78880000
vn 0.72650000 -0.68610000 -0.03710000
vn 0.71500000 -0.69770000 -0.04540000
vn -0.18800000 -0.18810000 0.96400000
vn 0.08720000 0.08700000 0.99240000
vn 0.70210000 -0.71060000 -0.04670000
vn 0.34920000 0.34880000 0.86970000
vn 0.68980000 -0.72290000 -0.04090000
vn 0.98180000 -0.00900000 0.18980000
vn 0.98180000 -0.00900000 0.18980000
vn 0.67420000 -0.73850000 -0.01260000
vn 0.68000000 -0.73270000 -0.02900000
vn 0.89340000 -0.09740000 0.43860000
vn 0.67320000 -0.73940000 0.00570000
vn 0.99610000 0.00540000 -0.08800000
vn 0.99610000 0.00540000 -0.08800000
vn 0.93420000 -0.05650000 -0.35240000
vn 0.67730000 -0.73540000 0.02300000
vn 0.68580000 -0.72690000 0.03690000
vn 0.80540000 -0.18520000 -0.56310000
vn 0.62930000 -0.36110000 -0.68810000
vn 0.62930000 -0.36110000 -0.68810000
vn 0.69730000 -0.71530000 0.04510000
vn 0.71020000 -0.70240000 0.04640000
vn 0.43290000 -0.55750000 -0.70840000
vn 0.43290000 -0.55750000 -0.70840000
vn 0.24590000 -0.74440000 -0.62090000
vn 0.72250000 -0.69010000 0.04070000
vn 0.73230000 -0.68030000 0.02870000
vn 0.09690000 -0.89340000 -0.43880000
vn 0.00850000 -0.98180000 -0.18990000
vn 0.00850000 -0.98180000 -0.18990000
vn 0.73810000 -0.67450000 0.01240000
vn -0.00590000 -0.99610000 0.08780000
vn 0.73910000 -0.67360000 -0.00590000
vn -0.00590000 -0.99610000 0.08780000
vn 0.05610000 -0.93420000 0.35220000
vn 0.73500000 -0.67770000 -0.02330000
vn 0.18490000 -0.80560000 0.56290000
vn 0.72650000 -0.68610000 -0.03710000
vn 0.36090000 -0.62960000 0.68800000
vn 0.36090000 -0.62960000 0.68800000
vn 0.71500000 -0.69770000 -0.04540000
vn 0.55740000 -0.43330000 0.70820000
vn 0.55740000 -0.43330000 0.70820000
vn 0.70210000 -0.71060000 -0.04670000
vn 0.68980000 -0.72290000 -0.04090000
vn 0.74430000 -0.24640000 0.62070000
vn 0.98180000 -0.00900000 0.18980000
vn 0.70690000 -0.70730000 -0.00010000
vn 0.98180000 -0.00900000 0.18980000
vn 0.89340000 -0.09740000 0.43860000
vn 0.70690000 -0.70730000 -0.00010000
vn 0.70690000 -0.70730000 -0.00010000
vn 0.99610000 0.00540000 -0.08800000
vn 0.99610000 0.00540000 -0.08800000
vn 0.93420000 -0.05650000 -0.35240000
vn 0.70690000 -0.70730000 -0.00010000
vn 0.80540000 -0.18520000 -0.56310000
vn 0.70690000 -0.70730000 -0.00010000
vn 0.62930000 -0.36110000 -0.68810000
vn 0.62930000 -0.36110000 -0.68810000
vn 0.70690000 -0.70730000 -0.00010000
vn 0.43290000 -0.55750000 -0.70840000
vn 0.43290000 -0.55750000 -0.70840000
vn 0.70690000 -0.70730000 -0.00010000
vn 0.24590000 -0.74440000 -0.62090000
vn 0.70690000 -0.70730000 -0.00010000
vn 0.70690000 -0.70730000 -0.00010000
vn 0.09690000 -0.89340000 -0.43880000
vn 0.00850000 -0.98180000 -0.18990000
vn 0.00850000 -0.98180000 -0.18990000
vn 0.70690000 -0.70730000 -0.00010000
vn -0.00590000 -0.99610000 0.08780000
vn -0.00590000 -0.99610000 0.08780000
vn 0.70690000 -0.70730000 -0.00010000
vn 0.05610000 -0.93420000 0.35220000
vn 0.70690000 -0.70730000 -0.00010000
vn 0.18490000 -0.80560000 0.56290000
vn 0.70690000 -0.70730000 -0.00010000
vn 0.36090000 -0.62960000 0.68800000
vn 0.36090000 -0.62960000 0.68800000
vn 0.70690000 -0.70730000 -0.00010000
vn 0.55740000 -0.43330000 0.70820000
vn 0.70690000 -0.70730000 -0.00010000
vn 0.55740000 -0.43330000 0.70820000
vn 0.74430000 -0.24640000 0.62070000
vn 0.70690000 -0.70730000 -0.00010000
vn 0.55800000 0.55760000 0.61460000
vn 0.55800000 0.55760000 0.61460000
vn 0.68180000 0.68140000 0.26600000
vn 0.70190000 0.70160000 -0.12320000
vn 0.61510000 0.61490000 -0.49360000
vn 0.43470000 0.43460000 -0.78880000
vn 0.43470000 0.43460000 -0.78880000
vn 0.18800000 0.18810000 -0.96400000
vn -0.04060000 -0.04040000 -0.99840000
vn 0.29990000 0.30000000 -0.90560000
vn 0.71450000 -0.69880000 0.03420000
vn 0.71860000 -0.69500000 0.02700000
vn -0.34920000 -0.34880000 -0.86970000
vn -0.55800000 -0.55760000 -0.61460000
vn -0.55800000 -0.55760000 -0.61460000
vn 0.72580000 -0.68770000 0.01530000
vn -0.68180000 -0.68140000 -0.26600000
vn 0.72480000 -0.68870000 0.01590000
vn 0.72890000 -0.68460000 -0.00270000
vn -0.70190000 -0.70160000 0.12320000
vn -0.59060000 -0.59040000 0.55000000
vn -0.38950000 -0.38940000 0.83470000
vn 0.73130000 -0.68190000 -0.01180000
vn -0.43470000 -0.43460000 0.78880000
vn -0.43470000 -0.43460000 0.78880000
vn -0.18800000 -0.18810000 0.96400000
vn 0.08720000 0.08700000 0.99240000
vn 0.34920000 0.34880000 0.86970000
vn 0.72440000 -0.68920000 0.01640000
vn 0.29990000 0.30000000 -0.90560000
vn 0.70590000 0.70560000 -0.06240000
vn 0.65240000 0.65200000 0.38620000
vn 0.72580000 -0.68770000 0.01530000
vn 0.49830000 0.49790000 0.70980000
vn 0.49830000 0.49790000 0.70980000
vn 0.72480000 -0.68880000 0.01580000
vn 0.70730000 0.70690000 0.00380000
vn 0.67300000 -0.73970000 -0.00030000
vn 0.67540000 -0.73720000 0.01770000
vn 0.65440000 0.65420000 -0.37920000
vn 0.68260000 -0.73010000 0.03290000
vn 0.50200000 0.50180000 -0.70440000
vn 0.50200000 0.50180000 -0.70440000
vn 0.69330000 -0.71930000 0.04320000
vn 0.27310000 0.27310000 -0.92240000
vn 0.70600000 -0.70660000 0.04680000
vn 0.00260000 0.00280000 -1.00000000
vn 0.71870000 -0.69390000 0.04330000
vn -0.26830000 -0.26800000 -0.92530000
vn -0.49830000 -0.49790000 -0.70980000
vn -0.49830000 -0.49790000 -0.70980000
vn 0.72950000 -0.68320000 0.03320000
vn 0.73680000 -0.67590000 0.01800000
vn -0.65240000 -0.65200000 -0.38620000
vn 0.73930000 -0.67330000 0.00010000
vn -0.70730000 -0.70690000 -0.00380000
vn -0.65440000 -0.65420000 0.37920000
vn 0.73680000 -0.67580000 -0.01790000
vn -0.50200000 -0.50180000 0.70440000
vn 0.72970000 -0.68300000 -0.03320000
vn -0.50200000 -0.50180000 0.70440000
vn 0.71900000 -0.69370000 -0.04340000
vn -0.27310000 -0.27310000 0.92240000
vn -0.00260000 -0.00280000 1.00000000
vn 0.70630000 -0.70640000 -0.04700000
vn 0.69360000 -0.71910000 -0.04350000
vn 0.26830000 0.26800000 0.92530000
vn 0.49830000 0.49790000 0.70980000
vn 0.68280000 -0.72990000 -0.03340000
vn 0.49830000 0.49790000 0.70980000
vn 0.67550000 -0.73710000 -0.01820000
vn 0.65240000 0.65200000 0.38620000
vn 0.96220000 -0.02850000 -0.27070000
vn 0.67540000 -0.73720000 0.01770000
vn 0.96220000 -0.02850000 -0.27070000
vn 1.00000000 0.00920000 0.00260000
vn 0.67300000 -0.73970000 -0.00030000
vn 0.85340000 -0.13720000 -0.50290000
vn 0.68260000 -0.73010000 0.03290000
vn 0.69330000 -0.71930000 0.04320000
vn 0.69000000 -0.30040000 -0.65850000
vn 0.69000000 -0.30040000 -0.65850000
vn 0.49700000 -0.49340000 -0.71390000
vn 0.70600000 -0.70660000 0.04680000
vn 0.71870000 -0.69390000 0.04330000
vn 0.30360000 -0.68660000 -0.66060000
vn 0.30360000 -0.68660000 -0.66060000
vn 0.72950000 -0.68320000 0.03320000
vn 0.13950000 -0.85080000 -0.50670000
vn 0.73680000 -0.67590000 0.01800000
vn 0.02940000 -0.96080000 -0.27570000
vn 0.02940000 -0.96080000 -0.27570000
vn -0.00970000 -0.99990000 -0.00280000
vn 0.73930000 -0.67330000 0.00010000
vn 0.73680000 -0.67580000 -0.01790000
vn 0.02800000 -0.96230000 0.27050000
vn 0.02800000 -0.96230000 0.27050000
vn 0.72970000 -0.68300000 -0.03320000
vn 0.13680000 -0.85360000 0.50270000
vn 0.30020000 -0.69030000 0.65830000
vn 0.30020000 -0.69030000 0.65830000
vn 0.71900000 -0.69370000 -0.04340000
vn 0.49330000 -0.49740000 0.71370000
vn 0.70630000 -0.70640000 -0.04700000
vn 0.68660000 -0.30410000 0.66040000
vn 0.68660000 -0.30410000 0.66040000
vn 0.69360000 -0.71910000 -0.04350000
vn 0.85080000 -0.14000000 0.50650000
vn 0.68280000 -0.72990000 -0.03340000
vn 0.96080000 -0.03000000 0.27560000
vn 0.96080000 -0.03000000 0.27560000
vn 0.67550000 -0.73710000 -0.01820000
vn 0.70690000 -0.70730000 -0.00010000
vn 0.96220000 -0.02850000 -0.27070000
vn 0.96220000 -0.02850000 -0.27070000
vn 1.00000000 0.00920000 0.00260000
vn 0.70690000 -0.70730000 -0.00010000
vn 0.70690000 -0.70730000 -0.00010000
vn 0.85340000 -0.13720000 -0.50290000
vn 0.69000000 -0.30050000 -0.65850000
vn 0.69000000 -0.30050000 -0.65850000
vn 0.70690000 -0.70730000 -0.00010000
vn 0.49700000 -0.49340000 -0.71380000
vn 0.70690000 -0.70730000 -0.00010000
vn 0.30360000 -0.68660000 -0.66060000
vn 0.30360000 -0.68660000 -0.66060000
vn 0.70690000 -0.70730000 -0.00010000
vn 0.70690000 -0.70730000 -0.00010000
vn 0.13950000 -0.85080000 -0.50670000
vn 0.02940000 -0.96080000 -0.27570000
vn 0.02940000 -0.96080000 -0.27570000
vn 0.70690000 -0.70730000 -0.00010000
vn 0.70690000 -0.70730000 -0.00010000
vn -0.00970000 -0.99990000 -0.00280000
vn 0.70690000 -0.70730000 -0.00010000
vn 0.02800000 -0.96230000 0.27050000
vn 0.02800000 -0.96230000 0.27050000
vn 0.13680000 -0.85360000 0.50270000
vn 0.70690000 -0.70730000 -0.00010000
vn 0.30020000 -0.69030000 0.65830000
vn 0.30020000 -0.69030000 0.65830000
vn 0.70690000 -0.70730000 -0.00010000
vn 0.70690000 -0.70730000 -0.00010000
vn 0.49330000 -0.49740000 0.71370000
vn 0.68660000 -0.30410000 0.66040000
vn 0.70690000 -0.70730000 -0.00010000
vn 0.68660000 -0.30410000 0.66040000
vn 0.85080000 -0.14000000 0.50650000
vn 0.70690000 -0.70730000 -0.00010000
vn 0.96080000 -0.03000000 0.27560000
vn 0.70690000 -0.70730000 -0.00010000
vn 0.96080000 -0.03000000 0.27560000
vn 0.65440000 0.65420000 -0.37920000
vn 0.50200000 0.50180000 -0.70440000
vn 0.50200000 0.50180000 -0.70440000
vn 0.27310000 0.27310000 -0.92240000
vn 0.00260000 0.00280000 -1.00000000
vn -0.26830000 -0.26800000 -0.92530000
vn -0.49830000 -0.49790000 -0.70980000
vn -0.49830000 -0.49790000 -0.70980000
vn -0.65240000 -0.65200000 -0.38620000
vn -0.70730000 -0.70690000 -0.00380000
vn -0.65440000 -0.65420000 0.37920000
vn -0.50200000 -0.50180000 0.70440000
vn -0.50200000 -0.50180000 0.70440000
vn -0.27310000 -0.27310000 0.92240000
vn -0.00260000 -0.00280000 1.00000000
vn 0.22440000 0.22410000 0.94840000
vn -0.38950000 -0.38940000 0.83470000
vn 0.72450000 -0.68910000 0.01280000
vn 0.55800000 0.55760000 0.61460000
vn 0.55800000 0.55760000 0.61460000
vn 0.55800000 0.55760000 0.61460000
vn 0.55800000 0.55760000 0.61460000
vn -0.73230000 0.68030000 -0.02870000
vn 0.68180000 0.68140000 0.26600000
vn 0.68180000 0.68140000 0.26600000
vn -0.73810000 0.67450000 -0.01240000
vn 0.70190000 0.70160000 -0.12320000
vn -0.73910000 0.67360000 0.00590000
vn 0.70190000 0.70160000 -0.12320000
vn 0.61510000 0.61490000 -0.49360000
vn -0.73500000 0.67770000 0.02330000
vn 0.61510000 0.61490000 -0.49360000
vn 0.43470000 0.43460000 -0.78880000
vn 0.43470000 0.43460000 -0.78880000
vn 0.43460000 0.43460000 -0.78880000
vn -0.72650000 0.68610000 0.03710000
vn 0.43460000 0.43460000 -0.78880000
vn 0.18800000 0.18810000 -0.96400000
vn 0.18800000 0.18810000 -0.96400000
vn -0.71500000 0.69770000 0.04540000
vn 0.05140000 0.05160000 -0.99730000
vn 0.29990000 0.30000000 -0.90560000
vn -0.08720000 -0.08700000 -0.99240000
vn -0.70210000 0.71060000 0.04670000
vn -0.34920000 -0.34880000 -0.86970000
vn -0.68980000 0.72290000 0.04090000
vn -0.55800000 -0.55760000 -0.61460000
vn -0.55800000 -0.55760000 -0.61460000
vn -0.68000000 0.73270000 0.02900000
vn -0.67420000 0.73850000 0.01260000
vn -0.68180000 -0.68140000 -0.26600000
vn -0.70190000 -0.70160000 0.12320000
vn -0.67320000 0.73940000 -0.00570000
vn -0.38950000 -0.38940000 0.83470000
vn -0.53520000 -0.53500000 0.65370000
vn -0.67730000 0.73540000 -0.02300000
vn -0.61510000 -0.61490000 0.49360000
vn -0.43470000 -0.43460000 0.78880000
vn -0.43470000 -0.43460000 0.78880000
vn -0.43460000 -0.43460000 0.78880000
vn -0.68580000 0.72690000 -0.03690000
vn -0.43460000 -0.43460000 0.78880000
vn -0.18800000 -0.18810000 0.96400000
vn -0.69730000 0.71530000 -0.04510000
vn -0.18800000 -0.18810000 0.96400000
vn 0.08720000 0.08700000 0.99240000
vn 0.08720000 0.08700000 0.99240000
vn -0.71020000 0.70240000 -0.04640000
vn 0.34920000 0.34880000 0.86970000
vn 0.34920000 0.34880000 0.86970000
vn -0.72250000 0.69010000 -0.04070000
vn -0.00850000 0.98180000 0.18990000
vn -0.00850000 0.98180000 0.18990000
vn -0.73810000 0.67450000 -0.01240000
vn -0.09690000 0.89340000 0.43880000
vn -0.73230000 0.68030000 -0.02870000
vn -0.73910000 0.67360000 0.00590000
vn 0.00590000 0.99610000 -0.08780000
vn 0.00590000 0.99610000 -0.08780000
vn -0.05610000 0.93420000 -0.35220000
vn -0.73500000 0.67770000 0.02330000
vn -0.18490000 0.80560000 -0.56290000
vn -0.72650000 0.68610000 0.03710000
vn -0.36090000 0.62960000 -0.68800000
vn -0.36090000 0.62960000 -0.68800000
vn -0.71500000 0.69770000 0.04540000
vn -0.55740000 0.43330000 -0.70820000
vn -0.55740000 0.43330000 -0.70820000
vn -0.70210000 0.71060000 0.04670000
vn -0.68980000 0.72290000 0.04090000
vn -0.74430000 0.24640000 -0.62070000
vn -0.89340000 0.09740000 -0.43860000
vn -0.68000000 0.73270000 0.02900000
vn -0.98180000 0.00900000 -0.18980000
vn -0.98180000 0.00900000 -0.18980000
vn -0.67420000 0.73850000 0.01260000
vn -0.67320000 0.73940000 -0.00570000
vn -0.99610000 -0.00540000 0.08800000
vn -0.99610000 -0.00540000 0.08800000
vn -0.93420000 0.05650000 0.35240000
vn -0.67730000 0.73540000 -0.02300000
vn -0.80540000 0.18520000 0.56310000
vn -0.68580000 0.72690000 -0.03690000
vn -0.62930000 0.36110000 0.68810000
vn -0.62930000 0.36110000 0.68810000
vn -0.69730000 0.71530000 -0.04510000
vn -0.71020000 0.70240000 -0.04640000
vn -0.43290000 0.55750000 0.70840000
vn -0.43290000 0.55750000 0.70840000
vn -0.24590000 0.74440000 0.62090000
vn -0.72250000 0.69010000 -0.04070000
vn -0.00850000 0.98180000 0.18990000
vn -0.70690000 0.70730000 0.00010000
vn -0.00850000 0.98180000 0.18990000
vn -0.09690000 0.89340000 0.43880000
vn -0.70690000 0.70730000 0.00010000
vn 0.00590000 0.99610000 -0.08780000
vn 0.00590000 0.99610000 -0.08780000
vn -0.70690000 0.70730000 0.00010000
vn -0.70690000 0.70730000 0.00010000
vn -0.05610000 0.93420000 -0.35220000
vn -0.70690000 0.70730000 0.00010000
vn -0.18490000 0.80560000 -0.56290000
vn -0.36090000 0.62960000 -0.68800000
vn -0.70690000 0.70730000 0.00010000
vn -0.36090000 0.62960000 -0.68800000
vn -0.55740000 0.43330000 -0.70820000
vn -0.55740000 0.43330000 -0.70820000
vn -0.70690000 0.70730000 0.00010000
vn -0.70690000 0.70730000 0.00010000
vn -0.74430000 0.24640000 -0.62070000
vn -0.89340000 0.09740000 -0.43860000
vn -0.70690000 0.70730000 0.00010000
vn -0.70690000 0.70730000 0.00010000
vn -0.98180000 0.00900000 -0.18980000
vn -0.98180000 0.00900000 -0.18980000
vn -0.99610000 -0.00540000 0.08800000
vn -0.70690000 0.70730000 0.00010000
vn -0.99610000 -0.00540000 0.08800000
vn -0.70690000 0.70730000 0.00010000
vn -0.93420000 0.05650000 0.35240000
vn -0.80540000 0.18520000 0.56310000
vn -0.70690000 0.70730000 0.00010000
vn -0.62930000 0.36110000 0.68810000
vn -0.70690000 0.70730000 0.00010000
vn -0.62930000 0.36110000 0.68810000
vn -0.43290000 0.55750000 0.70840000
vn -0.70690000 0.70730000 0.00010000
vn -0.43290000 0.55750000 0.70840000
vn -0.24590000 0.74440000 0.62090000
vn -0.70690000 0.70730000 0.00010000
vn 0.55800000 0.55760000 0.61460000
vn 0.55800000 0.55760000 0.61460000
vn 0.68180000 0.68140000 0.26600000
vn 0.70190000 0.70160000 -0.12320000
vn 0.61510000 0.61490000 -0.49360000
vn 0.43470000 0.43460000 -0.78880000
vn 0.43470000 0.43460000 -0.78880000
vn 0.18800000 0.18810000 -0.96400000
vn -0.69840000 0.71490000 0.03440000
vn 0.29990000 0.30000000 -0.90560000
vn -0.04060000 -0.04040000 -0.99840000
vn -0.69460000 0.71890000 0.02720000
vn -0.34920000 -0.34880000 -0.86970000
vn -0.55800000 -0.55760000 -0.61460000
vn -0.68730000 0.72620000 0.01560000
vn -0.55800000 -0.55760000 -0.61460000
vn -0.68180000 -0.68140000 -0.26600000
vn -0.68840000 0.72520000 0.01610000
vn -0.68430000 0.72920000 -0.00250000
vn -0.70190000 -0.70160000 0.12320000
vn -0.59060000 -0.59040000 0.55000000
vn -0.68160000 0.73170000 -0.01150000
vn -0.38950000 -0.38940000 0.83470000
vn -0.43470000 -0.43460000 0.78880000
vn -0.43470000 -0.43460000 0.78880000
vn -0.18800000 -0.18810000 0.96400000
vn 0.08720000 0.08700000 0.99240000
vn 0.34920000 0.34880000 0.86970000
vn -0.68880000 0.72470000 0.01670000
vn 0.70590000 0.70560000 -0.06240000
vn 0.29990000 0.30000000 -0.90560000
vn 0.65240000 0.65200000 0.38620000
vn -0.68730000 0.72620000 0.01560000
vn 0.49830000 0.49790000 0.70980000
vn -0.68840000 0.72510000 0.01610000
vn 0.49830000 0.49790000 0.70980000
vn 0.69420000 0.69390000 -0.19140000
vn 0.29990000 0.30000000 -0.90560000
vn 0.70730000 0.70690000 0.00380000
vn -0.73930000 0.67330000 -0.00010000
vn 0.65440000 0.65420000 -0.37920000
vn -0.73690000 0.67580000 0.01790000
vn 0.65440000 0.65420000 -0.37920000
vn 0.50200000 0.50180000 -0.70440000
vn 0.50200000 0.50180000 -0.70440000
vn 0.50200000 0.50180000 -0.70440000
vn -0.72970000 0.68300000 0.03320000
vn 0.50200000 0.50180000 -0.70440000
vn 0.27310000 0.27310000 -0.92240000
vn -0.71900000 0.69370000 0.04340000
vn 0.27310000 0.27310000 -0.92240000
vn 0.00260000 0.00280000 -1.00000000
vn -0.70630000 0.70640000 0.04700000
vn 0.00260000 0.00280000 -1.00000000
vn -0.26830000 -0.26800000 -0.92530000
vn -0.26830000 -0.26800000 -0.92530000
vn -0.69360000 0.71910000 0.04350000
vn -0.49830000 -0.49790000 -0.70980000
vn -0.49830000 -0.49790000 -0.70980000
vn -0.49830000 -0.49790000 -0.70980000
vn -0.49830000 -0.49790000 -0.70980000
vn -0.68280000 0.72990000 0.03340000
vn -0.65250000 -0.65200000 -0.38620000
vn -0.67550000 0.73710000 0.01820000
vn -0.70730000 -0.70690000 -0.00380000
vn -0.67300000 0.73970000 0.00030000
vn -0.65440000 -0.65420000 0.37920000
vn -0.67540000 0.73720000 -0.01770000
vn -0.68260000 0.73010000 -0.03290000
vn -0.50200000 -0.50180000 0.70440000
vn -0.50200000 -0.50180000 0.70440000
vn -0.27310000 -0.27310000 0.92240000
vn -0.27310000 -0.27310000 0.92240000
vn -0.69330000 0.71930000 -0.04320000
vn -0.00260000 -0.00280000 1.00000000
vn -0.70600000 0.70660000 -0.04680000
vn -0.00260000 -0.00280000 1.00000000
vn 0.13540000 0.13520000 0.98150000
vn -0.38950000 -0.38940000 0.83470000
vn 0.26830000 0.26800000 0.92530000
vn -0.71870000 0.69390000 -0.04330000
vn 0.49830000 0.49790000 0.70980000
vn 0.49830000 0.49790000 0.70980000
vn -0.72950000 0.68310000 -0.03320000
vn 0.65240000 0.65200000 0.38620000
vn -0.73680000 0.67590000 -0.01800000
vn -0.02800000 0.96230000 -0.27050000
vn -0.73690000 0.67580000 0.01790000
vn -0.02800000 0.96230000 -0.27050000
vn -0.73930000 0.67330000 -0.00010000
vn 0.00970000 0.99990000 0.00280000
vn -0.72970000 0.68300000 0.03320000
vn -0.13680000 0.85360000 -0.50270000
vn -0.30020000 0.69030000 -0.65830000
vn -0.71900000 0.69370000 0.04340000
vn -0.30020000 0.69030000 -0.65830000
vn -0.49330000 0.49740000 -0.71370000
vn -0.70630000 0.70640000 0.04700000
vn -0.68660000 0.30410000 -0.66040000
vn -0.68660000 0.30410000 -0.66040000
vn -0.69360000 0.71910000 0.04350000
vn -0.85080000 0.14000000 -0.50650000
vn -0.68280000 0.72990000 0.03340000
vn -0.67550000 0.73710000 0.01820000
vn -0.96080000 0.03000000 -0.27560000
vn -0.96080000 0.03000000 -0.27560000
vn -1.00000000 -0.00920000 -0.00260000
vn -0.67300000 0.73970000 0.00030000
vn -0.67540000 0.73720000 -0.01770000
vn -0.96220000 0.02850000 0.27070000
vn -0.96220000 0.02850000 0.27070000
vn -0.85340000 0.13720000 0.50290000
vn -0.68260000 0.73010000 -0.03290000
vn -0.69330000 0.71930000 -0.04320000
vn -0.69000000 0.30040000 0.65850000
vn -0.69000000 0.30040000 0.65850000
vn -0.49700000 0.49340000 0.71380000
vn -0.70600000 0.70660000 -0.04680000
vn -0.30360000 0.68660000 0.66060000
vn -0.30360000 0.68660000 0.66060000
vn -0.71870000 0.69390000 -0.04330000
vn -0.72950000 0.68310000 -0.03320000
vn -0.13950000 0.85080000 0.50670000
vn -0.73680000 0.67590000 -0.01800000
vn -0.02940000 0.96080000 0.27570000
vn -0.02940000 0.96080000 0.27570000
vn -0.02800000 0.96230000 -0.27050000
vn -0.02800000 0.96230000 -0.27050000
vn -0.70690000 0.70730000 0.00010000
vn 0.00970000 0.99990000 0.00280000
vn -0.70690000 0.70730000 0.00010000
vn -0.70690000 0.70730000 0.00010000
vn -0.13680000 0.85360000 -0.50270000
vn -0.30020000 0.69030000 -0.65830000
vn -0.30020000 0.69030000 -0.65830000
vn -0.70690000 0.70730000 0.00010000
vn -0.49330000 0.49740000 -0.71370000
vn -0.70690000 0.70730000 0.00010000
vn -0.68660000 0.30410000 -0.66040000
vn -0.70690000 0.70730000 0.00010000
vn -0.68660000 0.30410000 -0.66040000
vn -0.85080000 0.14000000 -0.50650000
vn -0.70690000 0.70730000 0.00010000
vn -0.70690000 0.70730000 0.00010000
vn -0.96080000 0.03000000 -0.27560000
vn -0.96080000 0.03000000 -0.27560000
vn -0.70690000 0.70730000 0.00010000
vn -1.00000000 -0.00920000 -0.00260000
vn -0.96220000 0.02850000 0.27070000
vn -0.96220000 0.02850000 0.27070000
vn -0.70690000 0.70730000 0.00010000
vn -0.70690000 0.70730000 0.00010000
vn -0.85340000 0.13720000 0.50290000
vn -0.69000000 0.30040000 0.65850000
vn -0.70690000 0.70730000 0.00010000
vn -0.69000000 0.30040000 0.65850000
vn -0.49700000 0.49340000 0.71380000
vn -0.70690000 0.70730000 0.00010000
vn -0.30360000 0.68660000 0.66060000
vn -0.70690000 0.70730000 0.00010000
vn -0.30360000 0.68660000 0.66060000
vn -0.70690000 0.70730000 0.00010000
vn -0.13950000 0.85080000 0.50670000
vn -0.70690000 0.70730000 0.00010000
vn -0.02940000 0.96080000 0.27570000
vn -0.02940000 0.96080000 0.27570000
vn 0.65440000 0.65420000 -0.37920000
vn 0.50200000 0.50180000 -0.70440000
vn 0.50200000 0.50180000 -0.70440000
vn 0.27310000 0.27310000 -0.92240000
vn 0.00260000 0.00280000 -1.00000000
vn -0.26830000 -0.26800000 -0.92530000
vn -0.49830000 -0.49790000 -0.70980000
vn -0.49830000 -0.49790000 -0.70980000
vn -0.65240000 -0.65200000 -0.38620000
vn -0.70730000 -0.70690000 -0.00380000
vn -0.65440000 -0.65420000 0.37920000
vn -0.50200000 -0.50180000 0.70440000
vn -0.50200000 -0.50180000 0.70440000
vn -0.27310000 -0.27310000 0.92240000
vn -0.00260000 -0.00280000 1.00000000
vn -0.68880000 0.72490000 0.01310000
vn -0.38950000 -0.38940000 0.83470000
vn 0.22440000 0.22410000 0.94840000
vn -0.70730000 -0.70690000 -0.00380000
vn -0.65240000 -0.65200000 -0.38620000
vn -0.50200000 -0.50180000 0.70440000
vn -0.50200000 -0.50180000 0.70440000
vn -0.65440000 -0.65420000 0.37920000
vt 0.13799100 0.93079100
vt 0.92265300 0.10506000
vt 0.79653100 0.08299100
vt 0.92265900 0.09885400
vt 0.79015700 0.08035700
vt 0.78325900 0.08035700
vt 0.92266000 0.09198000
vt 0.92265500 0.08548400
vt 0.77688500 0.08299100
vt 0.82709700 0.00977500
vt 0.92264600 0.08035700
vt 0.77200700 0.08785900
vt 0.82709700 0.01593800
vt 0.76936700 0.09422000
vt 0.82709700 0.02280600
vt 0.76936700 0.10110400
vt 0.77200700 0.10746400
vt 0.82709700 0.02933300
vt 0.21453700 0.92406500
vt 0.77688500 0.11233200
vt 0.82709700 0.03452500
vt 0.78325900 0.11496700
vt 0.21453000 0.91794500
vt 0.21452900 0.91108400
vt 0.79015700 0.11496700
vt 0.79653100 0.11233200
vt 0.21453300 0.90452700
vt 0.21454200 0.89927200
vt 0.13799100 0.90604100
vt 0.80140900 0.10746400
vt 0.80404900 0.10110400
vt 0.13799100 0.91220400
vt 0.13799100 0.91907200
vt 0.80404900 0.09421900
vt 0.13799100 0.92559900
vt 0.80140900 0.08785900
vt 0.78975900 0.08236300
vt 0.69088300 0.86998400
vt 0.78975900 0.08236300
vt 0.79539300 0.08469200
vt 0.79539300 0.08469200
vt 0.78366000 0.08236300
vt 0.78366000 0.08236300
vt 0.69088300 0.86390700
vt 0.77802500 0.08469200
vt 0.77802500 0.08469200
vt 0.77371300 0.08899600
vt 0.77371300 0.08899600
vt 0.98757100 0.74237900
vt 0.77137900 0.09461900
vt 0.77137900 0.09461900
vt 0.77137900 0.10070500
vt 0.98757100 0.74845100
vt 0.77137900 0.10070500
vt 0.77371300 0.10632800
vt 0.77371300 0.10632800
vt 0.77802500 0.11063200
vt 0.77802500 0.11063200
vt 0.48862400 0.98991900
vt 0.78366000 0.11296100
vt 0.78366000 0.11296100
vt 0.78975900 0.11296100
vt 0.78975900 0.11296100
vt 0.48862400 0.98385400
vt 0.79539300 0.11063100
vt 0.79539300 0.11063100
vt 0.79970600 0.10632800
vt 0.79970600 0.10632800
vt 0.80204000 0.10070500
vt 0.98874100 0.77407200
vt 0.80204000 0.10070500
vt 0.98874100 0.76800000
vt 0.80204000 0.09461800
vt 0.80204000 0.09461800
vt 0.79970600 0.08899500
vt 0.79970600 0.08899500
vt 0.78951800 0.08348500
vt 0.78951800 0.08348500
vt 0.68971000 0.86969900
vt 0.79473900 0.08564300
vt 0.79473900 0.08564300
vt 0.78386700 0.08348500
vt 0.68971000 0.86406800
vt 0.78386700 0.08348500
vt 0.77864700 0.08564400
vt 0.77864700 0.08564400
vt 0.77465100 0.08963100
vt 0.77465100 0.08963100
vt 0.98874100 0.74267900
vt 0.77248800 0.09484100
vt 0.77248800 0.09484100
vt 0.77248800 0.10048000
vt 0.98874100 0.74830500
vt 0.77248800 0.10048000
vt 0.77465100 0.10569000
vt 0.77465100 0.10569000
vt 0.77864700 0.10967700
vt 0.77864700 0.10967700
vt 0.78386700 0.11183500
vt 0.48745600 0.98960300
vt 0.78386700 0.11183500
vt 0.78951800 0.11183500
vt 0.48745600 0.98398300
vt 0.78951800 0.11183500
vt 0.79473900 0.10967700
vt 0.79473900 0.10967700
vt 0.79873400 0.10569000
vt 0.79873400 0.10569000
vt 0.98757100 0.77377100
vt 0.80089700 0.10048000
vt 0.80089700 0.10048000
vt 0.80089700 0.09484100
vt 0.80089700 0.09484100
vt 0.98757100 0.76814500
vt 0.79873400 0.08963100
vt 0.79873400 0.08963100
vt 0.92625300 0.10506000
vt 0.13439100 0.93079100
vt 0.92625900 0.09885400
vt 0.92626000 0.09198000
vt 0.92625600 0.08548400
vt 0.92624600 0.08035700
vt 0.82349700 0.00977500
vt 0.82349700 0.01593800
vt 0.82349700 0.02280600
vt 0.82349700 0.02280600
vt 0.78286600 0.21163000
vt 0.77798700 0.20676200
vt 0.82349700 0.02933300
vt 0.21813700 0.92406500
vt 0.82349700 0.03452500
vt 0.77161400 0.20412700
vt 0.21813000 0.91794500
vt 0.76471500 0.20412700
vt 0.75834200 0.20676200
vt 0.21812900 0.91108400
vt 0.21813400 0.90452700
vt 0.71686300 0.28078800
vt 0.75346400 0.21163000
vt 0.21814300 0.89927200
vt 0.13439100 0.90604100
vt 0.13439100 0.91220400
vt 0.13439100 0.91907200
vt 0.13439100 0.92559900
vt 0.78179100 0.17223000
vt 0.82447800 0.05855800
vt 0.89221100 0.36546900
vt 0.89221400 0.35737500
vt 0.77383300 0.17438900
vt 0.71588100 0.30964600
vt 0.89222400 0.35046800
vt 0.76565300 0.17334400
vt 0.89651500 0.36546900
vt 0.66609800 0.67914600
vt 0.65847900 0.68229600
vt 0.89651800 0.37351700
vt 0.65264700 0.68811500
vt 0.89652800 0.38029400
vt 0.77136300 0.86491200
vt 0.64949100 0.69571900
vt 0.77136300 0.87175500
vt 0.64949100 0.70394800
vt 0.77136300 0.87982700
vt 0.65264700 0.71155200
vt 0.77136300 0.88789900
vt 0.16575100 0.88908300
vt 0.77136300 0.89474200
vt 0.65847900 0.71737100
vt 0.66609800 0.72052100
vt 0.16574200 0.88230500
vt 0.67434500 0.72052100
vt 0.16573800 0.87425700
vt 0.16574200 0.86616300
vt 0.68196400 0.71737200
vt 0.16575100 0.85925700
vt 0.68779600 0.71155200
vt 0.71157700 0.33947600
vt 0.69095200 0.70394900
vt 0.71157700 0.33263300
vt 0.71157700 0.32456100
vt 0.69095200 0.69571900
vt 0.68779600 0.68811500
vt 0.71157700 0.31648900
vt 0.89652800 0.35046800
vt 0.68196400 0.68229600
vt 0.71157700 0.30964600
vt 0.67434500 0.67914600
vt 0.89651800 0.35737500
vt 0.32583400 0.32582100
vt 0.65984200 0.68432900
vt 0.65984200 0.68432900
vt 0.32583100 0.31870600
vt 0.66657800 0.68154500
vt 0.65468600 0.68947400
vt 0.65468600 0.68947400
vt 0.65189600 0.69619600
vt 0.32583100 0.48065100
vt 0.65189600 0.69619600
vt 0.32583100 0.48778700
vt 0.65189600 0.70347100
vt 0.65468600 0.71019400
vt 0.65468600 0.71019400
vt 0.32583100 0.49492300
vt 0.65984200 0.71533800
vt 0.65984200 0.71533800
vt 0.66657800 0.71812300
vt 0.66657800 0.71812300
vt 0.18299800 0.96715600
vt 0.18299500 0.96004100
vt 0.67386900 0.71812300
vt 0.68060500 0.71533900
vt 0.18299800 0.95288600
vt 0.68060500 0.71533900
vt 0.68576000 0.71019400
vt 0.68576000 0.71019400
vt 0.32723000 0.52874500
vt 0.68855000 0.70347200
vt 0.68855000 0.70347200
vt 0.32723000 0.52160900
vt 0.68855000 0.69619600
vt 0.32723000 0.51447300
vt 0.68576000 0.68947400
vt 0.68576000 0.68947400
vt 0.68060500 0.68432900
vt 0.68060500 0.68432900
vt 0.67386900 0.68154500
vt 0.32583400 0.31155100
vt 0.67386900 0.68154500
vt 0.66058400 0.68546900
vt 0.66058400 0.68546900
vt 0.32723600 0.32527900
vt 0.32723300 0.31868700
vt 0.66682500 0.68288900
vt 0.65580800 0.69023600
vt 0.65580800 0.69023600
vt 0.32723000 0.48117600
vt 0.65322300 0.69646400
vt 0.65322300 0.69646400
vt 0.32723000 0.48778700
vt 0.65322300 0.70320500
vt 0.32723000 0.49439900
vt 0.65580800 0.70943300
vt 0.65580800 0.70943300
vt 0.66058400 0.71420000
vt 0.66058400 0.71420000
vt 0.66682600 0.71678000
vt 0.18160100 0.96661400
vt 0.66682600 0.71678000
vt 0.67358100 0.71678000
vt 0.18159800 0.96002200
vt 0.67982200 0.71420000
vt 0.67982200 0.71420000
vt 0.18160100 0.95339200
vt 0.68459900 0.70943300
vt 0.68459900 0.70943300
vt 0.68718400 0.70320500
vt 0.32583100 0.52822000
vt 0.68718400 0.70320500
vt 0.68718400 0.69646400
vt 0.32583100 0.52160900
vt 0.32583100 0.51499700
vt 0.68459900 0.69023600
vt 0.68459900 0.69023600
vt 0.67982200 0.68546900
vt 0.67982200 0.68546900
vt 0.32723600 0.31205700
vt 0.67358100 0.68288900
vt 0.67358100 0.68288900
vt 0.89221400 0.37351700
vt 0.76705900 0.86491200
vt 0.89222400 0.38029400
vt 0.76705900 0.87175500
vt 0.76705900 0.87982700
vt 0.76705900 0.88789900
vt 0.17005500 0.88908300
vt 0.76705900 0.89474200
vt 0.17004600 0.88230600
vt 0.17004200 0.87425700
vt 0.17004600 0.86616400
vt 0.71588100 0.33947600
vt 0.17005500 0.85925700
vt 0.71588100 0.33263300
vt 0.71588100 0.32456100
vt 0.71588100 0.31648900
vt 0.71588100 0.31648900
vt 0.75849500 0.16925500
vt 0.12936900 0.93079100
vt 0.93127500 0.10506000
vt 0.12074700 0.93079100
vt 0.93989700 0.10506000
vt 0.49497500 0.77558000
vt 0.93128100 0.09885400
vt 0.93990300 0.09885400
vt 0.49009600 0.77071300
vt 0.93128200 0.09198000
vt 0.48745600 0.76435300
vt 0.93990400 0.09198000
vt 0.93127700 0.08548400
vt 0.48745600 0.75746900
vt 0.93989900 0.08548400
vt 0.81847500 0.00977500
vt 0.93126800 0.08035700
vt 0.80985300 0.00977500
vt 0.49009600 0.75111000
vt 0.93989000 0.08035700
vt 0.81847500 0.01593800
vt 0.80985300 0.01593800
vt 0.49497500 0.74624200
vt 0.81847500 0.02280600
vt 0.81847500 0.02280600
vt 0.80985300 0.02280600
vt 0.50134900 0.74360800
vt 0.80985300 0.02933300
vt 0.50824800 0.74360700
vt 0.23178100 0.92406400
vt 0.80985300 0.03452500
vt 0.51462300 0.74624100
vt 0.51950100 0.75110900
vt 0.23177400 0.91794500
vt 0.23177300 0.91108400
vt 0.52214100 0.75746800
vt 0.72188400 0.28078800
vt 0.22315500 0.90452700
vt 0.52214100 0.76435200
vt 0.23177700 0.90452700
vt 0.12936900 0.90604100
vt 0.22316400 0.89927200
vt 0.23178600 0.89927200
vt 0.51950100 0.77071200
vt 0.12074700 0.90604100
vt 0.12936900 0.91220400
vt 0.51462300 0.77557900
vt 0.12074700 0.91220400
vt 0.12936900 0.91907200
vt 0.12074700 0.91907200
vt 0.50824800 0.77821400
vt 0.12936900 0.92559900
vt 0.12074700 0.92559900
vt 0.50134900 0.77821400
vt 0.98137200 0.63146200
vt 0.49180100 0.76957800
vt 0.49180100 0.76957800
vt 0.49611400 0.77388100
vt 0.49611400 0.77388100
vt 0.48946700 0.76395500
vt 0.48946700 0.76395500
vt 0.98137200 0.63753900
vt 0.48946700 0.75787000
vt 0.48946700 0.75787000
vt 0.49180100 0.75224700
vt 0.49180100 0.75224700
vt 0.98534700 0.28106400
vt 0.49611400 0.74794400
vt 0.49611400 0.74794400
vt 0.50174900 0.74561500
vt 0.98534700 0.28713600
vt 0.50174900 0.74561500
vt 0.50784900 0.74561500
vt 0.50784900 0.74561500
vt 0.51348400 0.74794300
vt 0.51348400 0.74794300
vt 0.84117700 0.98247100
vt 0.51779700 0.75224600
vt 0.51779700 0.75224600
vt 0.52013100 0.75786900
vt 0.52013100 0.75786900
vt 0.84117700 0.98853600
vt 0.52013100 0.76395400
vt 0.52013100 0.76395400
vt 0.51779700 0.76957700
vt 0.51779700 0.76957700
vt 0.73454800 0.97806900
vt 0.51348400 0.77388000
vt 0.51348400 0.77388000
vt 0.50784900 0.77620900
vt 0.50784900 0.77620900
vt 0.73454800 0.98414100
vt 0.50174900 0.77621000
vt 0.50174900 0.77621000
vt 0.98020400 0.63174700
vt 0.49275300 0.76892500
vt 0.49275300 0.76892500
vt 0.49674900 0.77291200
vt 0.49674900 0.77291200
vt 0.49059100 0.76371500
vt 0.98020400 0.63737800
vt 0.49059100 0.76371500
vt 0.49059100 0.75807700
vt 0.49059100 0.75807700
vt 0.49275300 0.75286700
vt 0.49275300 0.75286700
vt 0.49674900 0.74888000
vt 0.49674900 0.74888000
vt 0.98417600 0.28136500
vt 0.98417600 0.28699000
vt 0.50197100 0.74672200
vt 0.50197100 0.74672200
vt 0.50762200 0.74672200
vt 0.50762200 0.74672200
vt 0.51284300 0.74888000
vt 0.51284300 0.74888000
vt 0.51683900 0.75286700
vt 0.51683900 0.75286700
vt 0.84000400 0.98278700
vt 0.84000400 0.98840600
vt 0.51900200 0.75807600
vt 0.51900200 0.75807600
vt 0.51900200 0.76371400
vt 0.51900200 0.76371400
vt 0.51683900 0.76892400
vt 0.51683900 0.76892400
vt 0.51284300 0.77291100
vt 0.51284300 0.77291100
vt 0.73337700 0.97837000
vt 0.50762200 0.77506900
vt 0.50762200 0.77506900
vt 0.73337700 0.98399600
vt 0.50197000 0.77506900
vt 0.50197000 0.77506900
vt 0.12434700 0.93079100
vt 0.93629700 0.10506000
vt 0.93630300 0.09885400
vt 0.93630300 0.09198000
vt 0.93629900 0.08548400
vt 0.93628900 0.08035700
vt 0.81345300 0.00977500
vt 0.81345300 0.01593800
vt 0.75074900 0.72152300
vt 0.81345300 0.02280600
vt 0.81345300 0.02280600
vt 0.75562800 0.71665600
vt 0.81345300 0.02933300
vt 0.22818000 0.92406400
vt 0.76200200 0.71402100
vt 0.81345300 0.03452500
vt 0.22817400 0.91794500
vt 0.76890100 0.71402100
vt 0.77527400 0.71665600
vt 0.22817200 0.91108400
vt 0.22817700 0.90452700
vt 0.78015200 0.72152400
vt 0.72690600 0.28078800
vt 0.12434700 0.90604100
vt 0.22818600 0.89927200
vt 0.12434700 0.91220400
vt 0.12434700 0.91907200
vt 0.12434700 0.92559900
vt 0.75182700 0.68212100
vt 0.88020500 0.36546800
vt 0.81247200 0.05855800
vt 0.88020800 0.35737500
vt 0.75978600 0.68428000
vt 0.72788800 0.30964600
vt 0.76796600 0.68323500
vt 0.88021800 0.35046800
vt 0.88620800 0.36546900
vt 0.81847500 0.05855800
vt 0.87590100 0.36546800
vt 0.45125800 0.72405800
vt 0.88621100 0.37351700
vt 0.44301100 0.72405800
vt 0.87590400 0.37351600
vt 0.76105600 0.86491200
vt 0.88622100 0.38029400
vt 0.75074900 0.86491200
vt 0.43539200 0.72090900
vt 0.87591400 0.38029400
vt 0.76105600 0.87175500
vt 0.42956000 0.71508900
vt 0.75074900 0.87175500
vt 0.76105600 0.87982700
vt 0.42640400 0.70748600
vt 0.75074900 0.87982700
vt 0.76105600 0.88789900
vt 0.75074900 0.88789900
vt 0.42640400 0.69925600
vt 0.17605800 0.88908400
vt 0.76105600 0.89474200
vt 0.18636500 0.88908400
vt 0.75074900 0.89474200
vt 0.42956000 0.69165200
vt 0.18635600 0.88230600
vt 0.43539200 0.68583300
vt 0.18635300 0.87425800
vt 0.44301100 0.68268400
vt 0.18635600 0.86616400
vt 0.45125800 0.68268400
vt 0.45887700 0.68583300
vt 0.18636500 0.85925700
vt 0.73219200 0.33947600
vt 0.72188400 0.33263300
vt 0.73219200 0.33263300
vt 0.46470900 0.69165300
vt 0.72188400 0.32456100
vt 0.46786500 0.69925600
vt 0.73219200 0.32456100
vt 0.72188400 0.31648900
vt 0.72188400 0.31648900
vt 0.73219200 0.31648900
vt 0.46786500 0.70748600
vt 0.87591400 0.35046700
vt 0.73219200 0.30964600
vt 0.46470900 0.71508900
vt 0.87590400 0.35737500
vt 0.45887700 0.72090900
vt 0.96944000 0.57754800
vt 0.44349100 0.72166000
vt 0.44349100 0.72166000
vt 0.45078100 0.72166000
vt 0.96943700 0.57043300
vt 0.43675500 0.71887500
vt 0.43675500 0.71887500
vt 0.43159900 0.71373100
vt 0.43159900 0.71373100
vt 0.25913600 0.70648700
vt 0.25913600 0.71362300
vt 0.42880900 0.70700900
vt 0.25913600 0.72075900
vt 0.42880900 0.69973300
vt 0.42880900 0.69973300
vt 0.43159900 0.69301100
vt 0.43159900 0.69301100
vt 0.43675500 0.68786600
vt 0.43675500 0.68786600
vt 0.32583400 0.35964100
vt 0.32583100 0.35252600
vt 0.44349100 0.68508200
vt 0.45078100 0.68508200
vt 0.32583400 0.34537100
vt 0.45078100 0.68508200
vt 0.45751700 0.68786600
vt 0.45751700 0.68786600
vt 0.46267300 0.69301100
vt 0.46267300 0.69301100
vt 0.32583100 0.59638700
vt 0.32583100 0.58925100
vt 0.46546300 0.69973300
vt 0.32583100 0.58211500
vt 0.46546300 0.70700900
vt 0.46546300 0.70700900
vt 0.46267300 0.71373100
vt 0.46267300 0.71373100
vt 0.45751700 0.71887600
vt 0.45751700 0.71887600
vt 0.96944000 0.56327700
vt 0.96804300 0.57700600
vt 0.44373800 0.72031700
vt 0.44373800 0.72031700
vt 0.96804000 0.57041300
vt 0.45049400 0.72031700
vt 0.43749700 0.71773700
vt 0.43749700 0.71773700
vt 0.25773600 0.70701100
vt 0.43272100 0.71297000
vt 0.43272100 0.71297000
vt 0.25773600 0.71362300
vt 0.43013600 0.70674200
vt 0.43013600 0.70000100
vt 0.43013600 0.70000100
vt 0.25773600 0.72023500
vt 0.43272100 0.69377300
vt 0.43272100 0.69377300
vt 0.43749700 0.68900600
vt 0.43749700 0.68900600
vt 0.32723600 0.35909900
vt 0.44373800 0.68642600
vt 0.32723300 0.35250700
vt 0.32723600 0.34587700
vt 0.45049400 0.68642600
vt 0.45049400 0.68642600
vt 0.45673500 0.68900600
vt 0.45673500 0.68900600
vt 0.32723000 0.59586300
vt 0.46151100 0.69377300
vt 0.46151100 0.69377300
vt 0.32723000 0.58925100
vt 0.46409700 0.70000100
vt 0.32723000 0.58263900
vt 0.46409700 0.70674200
vt 0.46409700 0.70674200
vt 0.46151100 0.71297100
vt 0.46151100 0.71297100
vt 0.45673500 0.71773700
vt 0.96804300 0.56378300
vt 0.45673500 0.71773700
vt 0.88020800 0.37351700
vt 0.75505300 0.86491200
vt 0.88021800 0.38029400
vt 0.75505300 0.87175500
vt 0.75505300 0.87982700
vt 0.75505300 0.88789900
vt 0.18206100 0.88908400
vt 0.75505300 0.89474200
vt 0.18205200 0.88230600
vt 0.18204900 0.87425800
vt 0.18205200 0.86616400
vt 0.18206100 0.85925700
vt 0.72788800 0.33947600
vt 0.72788800 0.33263300
vt 0.72788800 0.32456100
vt 0.77512400 0.67914600
vt 0.72788800 0.31648900
vt 0.72788800 0.31648900
vt 0.17604600 0.87425700
vt 0.17604900 0.88230600
vt 0.72188400 0.33947600
vt 0.17605800 0.85925700
vt 0.17604900 0.86616400
f 117/117/117 2/2/2 4/4/4
f 4/4/4 119/119/119 117/117/117
f 119/119/119 4/4/4 7/7/7
f 7/7/7 120/120/120 119/119/119
f 120/120/120 7/7/7 8/8/8
f 8/8/8 121/121/121 120/120/120
f 121/121/121 8/8/8 11/11/11
f 11/11/11 122/122/122 121/121/121
f 123/123/123 10/10/10 13/13/13
f 13/13/13 124/124/124 123/123/123
f 124/124/124 13/13/13 15/15/15
f 15/15/15 125/125/125 124/124/124
f 125/125/125 15/15/15 18/18/18
f 18/18/18 129/129/129 125/125/125
f 129/129/129 18/18/18 21/21/21
f 21/21/21 131/131/131 129/129/129
f 130/130/130 19/19/19 23/23/23
f 23/23/23 133/133/133 130/130/130
f 133/133/133 23/23/23 24/24/24
f 24/24/24 136/136/136 133/133/133
f 136/136/136 24/24/24 27/27/27
f 27/27/27 137/137/137 136/136/136
f 137/137/137 27/27/27 28/28/28
f 28/28/28 140/140/140 137/137/137
f 141/141/141 29/29/29 32/32/32
f 32/32/32 142/142/142 141/141/141
f 142/142/142 32/32/32 33/33/33
f 33/33/33 143/143/143 142/142/142
f 36/36/36 34/34/34 74/74/74
f 74/74/74 75/75/75 36/36/36
f 143/143/143 33/33/33 35/35/35
f 35/35/35 144/144/144 143/143/143
f 144/144/144 35/35/35 1/1/1
f 1/1/1 118/118/118 144/144/144
f 337/337/337 144/144/144 118/118/118
f 118/118/118 287/287/287 337/337/337
f 67/67/67 65/65/65 105/105/105
f 105/105/105 107/107/107 67/67/67
f 9/9/9 6/6/6 42/42/42
f 42/42/42 46/46/46 9/9/9
f 20/20/20 17/17/17 56/56/56
f 56/56/56 57/57/57 20/20/20
f 5/5/5 3/3/3 40/40/40
f 40/40/40 39/39/39 5/5/5
f 31/31/31 30/30/30 68/68/68
f 68/68/68 71/71/71 31/31/31
f 16/16/16 14/14/14 51/51/51
f 51/51/51 52/52/52 16/16/16
f 26/26/26 25/25/25 63/63/63
f 63/63/63 66/66/66 26/26/26
f 3/3/3 36/36/36 75/75/75
f 75/75/75 40/40/40 3/3/3
f 12/12/12 9/9/9 46/46/46
f 46/46/46 47/47/47 12/12/12
f 22/22/22 20/20/20 57/57/57
f 57/57/57 61/61/61 22/22/22
f 34/34/34 31/31/31 71/71/71
f 71/71/71 74/74/74 34/34/34
f 6/6/6 5/5/5 39/39/39
f 39/39/39 42/42/42 6/6/6
f 17/17/17 16/16/16 52/52/52
f 52/52/52 56/56/56 17/17/17
f 30/30/30 26/26/26 66/66/66
f 66/66/66 68/68/68 30/30/30
f 14/14/14 12/12/12 47/47/47
f 47/47/47 51/51/51 14/14/14
f 25/25/25 22/22/22 61/61/61
f 61/61/61 63/63/63 25/25/25
f 78/78/78 81/81/81 116/116/116
f 78/78/78 116/116/116 113/113/113
f 78/78/78 113/113/113 111/111/111
f 78/78/78 111/111/111 108/108/108
f 78/78/78 108/108/108 106/106/106
f 78/78/78 106/106/106 104/104/104
f 78/78/78 104/104/104 101/101/101
f 78/78/78 101/101/101 97/97/97
f 78/78/78 97/97/97 96/96/96
f 78/78/78 96/96/96 94/94/94
f 78/78/78 94/94/94 91/91/91
f 78/78/78 91/91/91 88/88/88
f 78/78/78 88/88/88 86/86/86
f 78/78/78 86/86/86 82/82/82
f 50/50/50 48/48/48 87/87/87
f 87/87/87 90/90/90 50/50/50
f 69/69/69 67/67/67 107/107/107
f 107/107/107 110/110/110 69/69/69
f 53/53/53 49/49/49 89/89/89
f 89/89/89 93/93/93 53/53/53
f 72/72/72 70/70/70 109/109/109
f 109/109/109 114/114/114 72/72/72
f 55/55/55 54/54/54 92/92/92
f 92/92/92 95/95/95 55/55/55
f 76/76/76 73/73/73 112/112/112
f 112/112/112 115/115/115 76/76/76
f 58/58/58 55/55/55 95/95/95
f 95/95/95 98/98/98 58/58/58
f 37/37/37 41/41/41 80/80/80
f 80/80/80 77/77/77 37/37/37
f 41/41/41 76/76/76 115/115/115
f 115/115/115 80/80/80 41/41/41
f 60/60/60 58/58/58 98/98/98
f 98/98/98 99/99/99 60/60/60
f 44/44/44 38/38/38 79/79/79
f 79/79/79 83/83/83 44/44/44
f 64/64/64 59/59/59 100/100/100
f 100/100/100 103/103/103 64/64/64
f 45/45/45 43/43/43 84/84/84
f 84/84/84 85/85/85 45/45/45
f 65/65/65 62/62/62 102/102/102
f 102/102/102 105/105/105 65/65/65
f 48/48/48 45/45/45 85/85/85
f 85/85/85 87/87/87 48/48/48
f 334/334/334 143/143/143 144/144/144
f 144/144/144 337/337/337 334/334/334
f 331/331/331 142/142/142 143/143/143
f 143/143/143 334/334/334 331/331/331
f 326/326/326 141/141/141 142/142/142
f 142/142/142 331/331/331 326/326/326
f 323/323/323 137/137/137 140/140/140
f 140/140/140 327/327/327 323/323/323
f 134/134/134 135/135/135 286/286/286
f 286/286/286 152/152/152 134/134/134
f 310/310/310 126/126/126 146/146/146
f 146/146/146 457/457/457 310/310/310
f 127/127/127 128/128/128 145/145/145
f 135/135/135 139/139/139 286/286/286
f 128/128/128 132/132/132 149/149/149
f 149/149/149 145/145/145 128/128/128
f 306/306/306 124/124/124 125/125/125
f 125/125/125 309/309/309 306/306/306
f 301/301/301 123/123/123 124/124/124
f 124/124/124 306/306/306 301/301/301
f 298/298/298 121/121/121 122/122/122
f 122/122/122 302/302/302 298/298/298
f 295/295/295 120/120/120 121/121/121
f 121/121/121 298/298/298 295/295/295
f 292/292/292 119/119/119 120/120/120
f 120/120/120 295/295/295 292/292/292
f 288/288/288 117/117/117 119/119/119
f 119/119/119 292/292/292 288/288/288
f 132/132/132 134/134/134 152/152/152
f 152/152/152 149/149/149 132/132/132
f 138/138/138 322/322/322 498/498/498
f 498/498/498 285/285/285 138/138/138
f 147/147/147 153/153/153 156/156/156
f 156/156/156 269/269/269 147/147/147
f 269/269/269 156/156/156 158/158/158
f 158/158/158 271/271/271 269/269/269
f 270/270/270 159/159/159 161/161/161
f 161/161/161 272/272/272 270/270/270
f 272/272/272 161/161/161 163/163/163
f 163/163/163 273/273/273 272/272/272
f 273/273/273 163/163/163 165/165/165
f 165/165/165 274/274/274 273/273/273
f 274/274/274 165/165/165 167/167/167
f 167/167/167 276/276/276 274/274/274
f 275/275/275 166/166/166 170/170/170
f 170/170/170 277/277/277 275/275/275
f 277/277/277 170/170/170 172/172/172
f 172/172/172 278/278/278 277/277/277
f 278/278/278 172/172/172 173/173/173
f 173/173/173 279/279/279 278/278/278
f 279/279/279 173/173/173 175/175/175
f 175/175/175 281/281/281 279/279/279
f 280/280/280 177/177/177 179/179/179
f 179/179/179 282/282/282 280/280/280
f 282/282/282 179/179/179 180/180/180
f 180/180/180 283/283/283 282/282/282
f 283/283/283 180/180/180 183/183/183
f 183/183/183 284/284/284 283/283/283
f 284/284/284 183/183/183 186/186/186
f 186/186/186 150/150/150 284/284/284
f 187/187/187 185/185/185 225/225/225
f 225/225/225 228/228/228 187/187/187
f 151/151/151 184/184/184 188/188/188
f 188/188/188 148/148/148 151/151/151
f 148/148/148 188/188/188 153/153/153
f 153/153/153 147/147/147 148/148/148
f 219/219/219 216/216/216 257/257/257
f 257/257/257 260/260/260 219/219/219
f 160/160/160 157/157/157 195/195/195
f 195/195/195 196/196/196 160/160/160
f 171/171/171 169/169/169 206/206/206
f 206/206/206 210/210/210 171/171/171
f 155/155/155 154/154/154 193/193/193
f 193/193/193 190/190/190 155/155/155
f 182/182/182 181/181/181 220/220/220
f 220/220/220 223/223/223 182/182/182
f 168/168/168 164/164/164 201/201/201
f 201/201/201 204/204/204 168/168/168
f 178/178/178 176/176/176 214/214/214
f 214/214/214 218/218/218 178/178/178
f 154/154/154 187/187/187 228/228/228
f 228/228/228 193/193/193 154/154/154
f 162/162/162 160/160/160 196/196/196
f 196/196/196 200/200/200 162/162/162
f 174/174/174 171/171/171 210/210/210
f 210/210/210 211/211/211 174/174/174
f 185/185/185 182/182/182 223/223/223
f 223/223/223 225/225/225 185/185/185
f 157/157/157 155/155/155 190/190/190
f 190/190/190 195/195/195 157/157/157
f 169/169/169 168/168/168 204/204/204
f 204/204/204 206/206/206 169/169/169
f 181/181/181 178/178/178 218/218/218
f 218/218/218 220/220/220 181/181/181
f 164/164/164 162/162/162 200/200/200
f 200/200/200 201/201/201 164/164/164
f 176/176/176 174/174/174 211/211/211
f 211/211/211 214/214/214 176/176/176
f 229/229/229 233/233/233 267/267/267
f 229/229/229 267/267/267 265/265/265
f 229/229/229 265/265/265 262/262/262
f 229/229/229 262/262/262 259/259/259
f 229/229/229 259/259/259 258/258/258
f 229/229/229 258/258/258 255/255/255
f 229/229/229 255/255/255 251/251/251
f 229/229/229 251/251/251 249/249/249
f 229/229/229 249/249/249 248/248/248
f 229/229/229 248/248/248 244/244/244
f 229/229/229 244/244/244 243/243/243
f 229/229/229 243/243/243 240/240/240
f 229/229/229 240/240/240 238/238/238
f 229/229/229 238/238/238 234/234/234
f 203/203/203 199/199/199 239/239/239
f 239/239/239 241/241/241 203/203/203
f 221/221/221 219/219/219 260/260/260
f 260/260/260 261/261/261 221/221/221
f 205/205/205 202/202/202 242/242/242
f 242/242/242 245/245/245 205/205/205
f 224/224/224 222/222/222 263/263/263
f 263/263/263 264/264/264 224/224/224
f 207/207/207 205/205/205 245/245/245
f 245/245/245 246/246/246 207/207/207
f 226/226/226 224/224/224 264/264/264
f 264/264/264 268/268/268 226/226/226
f 209/209/209 208/208/208 247/247/247
f 247/247/247 250/250/250 209/209/209
f 189/189/189 192/192/192 232/232/232
f 232/232/232 231/231/231 189/189/189
f 192/192/192 227/227/227 266/266/266
f 266/266/266 232/232/232 192/192/192
f 212/212/212 209/209/209 250/250/250
f 250/250/250 253/253/253 212/212/212
f 194/194/194 191/191/191 230/230/230
f 230/230/230 235/235/235 194/194/194
f 215/215/215 213/213/213 252/252/252
f 252/252/252 254/254/254 215/215/215
f 198/198/198 194/194/194 235/235/235
f 235/235/235 237/237/237 198/198/198
f 217/217/217 215/215/215 254/254/254
f 254/254/254 256/256/256 217/217/217
f 199/199/199 197/197/197 236/236/236
f 236/236/236 239/239/239 199/199/199
f 494/494/494 283/283/283 284/284/284
f 284/284/284 497/497/497 494/494/494
f 491/491/491 282/282/282 283/283/283
f 283/283/283 494/494/494 491/491/491
f 277/277/277 278/278/278 604/604/604
f 604/604/604 605/605/605 277/277/277
f 474/474/474 274/274/274 276/276/276
f 276/276/276 478/478/478 474/474/474
f 471/471/471 273/273/273 274/274/274
f 274/274/274 474/474/474 471/471/471
f 468/468/468 272/272/272 273/273/273
f 273/273/273 471/471/471 468/468/468
f 463/463/463 270/270/270 272/272/272
f 272/272/272 468/468/468 463/463/463
f 460/460/460 269/269/269 271/271/271
f 271/271/271 464/464/464 460/460/460
f 456/456/456 147/147/147 269/269/269
f 269/269/269 460/460/460 456/456/456
f 275/275/275 277/277/277 605/605/605
f 605/605/605 477/477/477 275/275/275
f 491/491/491 606/606/606 280/280/280
f 280/280/280 282/282/282 491/491/491
f 279/279/279 281/281/281 607/607/607
f 607/607/607 608/608/608 279/279/279
f 278/278/278 279/279/279 608/608/608
f 608/608/608 604/604/604 278/278/278
f 421/421/421 422/422/422 293/293/293
f 293/293/293 290/290/290 421/421/421
f 422/422/422 423/423/423 297/297/297
f 297/297/297 293/293/293 422/422/422
f 423/423/423 424/424/424 300/300/300
f 300/300/300 297/297/297 423/423/423
f 424/424/424 425/425/425 305/305/305
f 305/305/305 300/300/300 424/424/424
f 426/426/426 427/427/427 307/307/307
f 307/307/307 303/303/303 426/426/426
f 427/427/427 430/430/430 311/311/311
f 311/311/311 307/307/307 427/427/427
f 430/430/430 432/432/432 313/313/313
f 313/313/313 311/311/311 430/430/430
f 432/432/432 435/435/435 316/316/316
f 316/316/316 313/313/313 432/432/432
f 433/433/433 436/436/436 319/319/319
f 319/319/319 315/315/315 433/433/433
f 436/436/436 439/439/439 320/320/320
f 320/320/320 319/319/319 436/436/436
f 439/439/439 440/440/440 325/325/325
f 325/325/325 320/320/320 439/439/439
f 440/440/440 444/444/444 328/328/328
f 328/328/328 325/325/325 440/440/440
f 443/443/443 445/445/445 333/333/333
f 333/333/333 330/330/330 443/443/443
f 445/445/445 446/446/446 335/335/335
f 335/335/335 333/333/333 445/445/445
f 339/339/339 379/379/379 375/375/375
f 375/375/375 336/336/336 339/339/339
f 446/446/446 447/447/447 338/338/338
f 338/338/338 335/335/335 446/446/446
f 447/447/447 420/420/420 289/289/289
f 289/289/289 338/338/338 447/447/447
f 337/337/337 287/287/287 420/420/420
f 420/420/420 447/447/447 337/337/337
f 370/370/370 410/410/410 409/409/409
f 409/409/409 368/368/368 370/370/370
f 299/299/299 349/349/349 345/345/345
f 345/345/345 296/296/296 299/299/299
f 317/317/317 361/361/361 358/358/358
f 358/358/358 314/314/314 317/317/317
f 294/294/294 342/342/342 344/344/344
f 344/344/344 291/291/291 294/294/294
f 332/332/332 374/374/374 371/371/371
f 371/371/371 329/329/329 332/332/332
f 312/312/312 357/357/357 354/354/354
f 354/354/354 308/308/308 312/312/312
f 324/324/324 369/369/369 365/365/365
f 365/365/365 321/321/321 324/324/324
f 291/291/291 344/344/344 379/379/379
f 379/379/379 339/339/339 291/291/291
f 304/304/304 351/351/351 349/349/349
f 349/349/349 299/299/299 304/304/304
f 318/318/318 364/364/364 361/361/361
f 361/361/361 317/317/317 318/318/318
f 336/336/336 375/375/375 374/374/374
f 374/374/374 332/332/332 336/336/336
f 296/296/296 345/345/345 342/342/342
f 342/342/342 294/294/294 296/296/296
f 314/314/314 358/358/358 357/357/357
f 357/357/357 312/312/312 314/314/314
f 329/329/329 371/371/371 369/369/369
f 369/369/369 324/324/324 329/329/329
f 308/308/308 354/354/354 351/351/351
f 351/351/351 304/304/304 308/308/308
f 321/321/321 365/365/365 364/364/364
f 364/364/364 318/318/318 321/321/321
f 381/381/381 387/387/387 388/388/388
f 381/381/381 388/388/388 390/390/390
f 381/381/381 390/390/390 393/393/393
f 381/381/381 393/393/393 397/397/397
f 381/381/381 397/397/397 398/398/398
f 381/381/381 398/398/398 401/401/401
f 381/381/381 401/401/401 402/402/402
f 381/381/381 402/402/402 406/406/406
f 381/381/381 406/406/406 408/408/408
f 381/381/381 408/408/408 411/411/411
f 381/381/381 411/411/411 413/413/413
f 381/381/381 413/413/413 416/416/416
f 381/381/381 416/416/416 419/419/419
f 381/381/381 419/419/419 384/384/384
f 353/353/353 392/392/392 391/391/391
f 391/391/391 350/350/350 353/353/353
f 373/373/373 412/412/412 410/410/410
f 410/410/410 370/370/370 373/373/373
f 356/356/356 395/395/395 394/394/394
f 394/394/394 352/352/352 356/356/356
f 377/377/377 417/417/417 414/414/414
f 414/414/414 372/372/372 377/377/377
f 359/359/359 399/399/399 396/396/396
f 396/396/396 355/355/355 359/359/359
f 378/378/378 418/418/418 415/415/415
f 415/415/415 376/376/376 378/378/378
f 360/360/360 400/400/400 399/399/399
f 399/399/399 359/359/359 360/360/360
f 341/341/341 382/382/382 383/383/383
f 383/383/383 343/343/343 341/341/341
f 343/343/343 383/383/383 418/418/418
f 418/418/418 378/378/378 343/343/343
f 363/363/363 403/403/403 400/400/400
f 400/400/400 360/360/360 363/363/363
f 347/347/347 386/386/386 380/380/380
f 380/380/380 340/340/340 347/347/347
f 367/367/367 405/405/405 404/404/404
f 404/404/404 362/362/362 367/367/367
f 348/348/348 389/389/389 385/385/385
f 385/385/385 346/346/346 348/348/348
f 368/368/368 409/409/409 407/407/407
f 407/407/407 366/366/366 368/368/368
f 350/350/350 391/391/391 389/389/389
f 389/389/389 348/348/348 350/350/350
f 334/334/334 337/337/337 447/447/447
f 447/447/447 446/446/446 334/334/334
f 331/331/331 334/334/334 446/446/446
f 446/446/446 445/445/445 331/331/331
f 326/326/326 331/331/331 445/445/445
f 445/445/445 443/443/443 326/326/326
f 323/323/323 327/327/327 444/444/444
f 444/444/444 440/440/440 323/323/323
f 437/437/437 454/454/454 601/601/601
f 601/601/601 438/438/438 437/437/437
f 310/310/310 457/457/457 450/450/450
f 450/450/450 429/429/429 310/310/310
f 428/428/428 448/448/448 431/431/431
f 438/438/438 601/601/601 441/441/441
f 431/431/431 448/448/448 452/452/452
f 452/452/452 434/434/434 431/431/431
f 306/306/306 309/309/309 430/430/430
f 430/430/430 427/427/427 306/306/306
f 301/301/301 306/306/306 427/427/427
f 427/427/427 426/426/426 301/301/301
f 298/298/298 302/302/302 425/425/425
f 425/425/425 424/424/424 298/298/298
f 295/295/295 298/298/298 424/424/424
f 424/424/424 423/423/423 295/295/295
f 292/292/292 295/295/295 423/423/423
f 423/423/423 422/422/422 292/292/292
f 288/288/288 292/292/292 422/422/422
f 422/422/422 421/421/421 288/288/288
f 434/434/434 452/452/452 454/454/454
f 454/454/454 437/437/437 434/434/434
f 442/442/442 602/602/602 498/498/498
f 498/498/498 322/322/322 442/442/442
f 449/449/449 586/586/586 462/462/462
f 462/462/462 458/458/458 449/449/449
f 586/586/586 588/588/588 467/467/467
f 467/467/467 462/462/462 586/586/586
f 587/587/587 589/589/589 470/470/470
f 470/470/470 465/465/465 587/587/587
f 589/589/589 590/590/590 473/473/473
f 473/473/473 470/470/470 589/589/589
f 590/590/590 591/591/591 475/475/475
f 475/475/475 473/473/473 590/590/590
f 591/591/591 593/593/593 480/480/480
f 480/480/480 475/475/475 591/591/591
f 592/592/592 594/594/594 482/482/482
f 482/482/482 479/479/479 592/592/592
f 594/594/594 595/595/595 484/484/484
f 484/484/484 482/482/482 594/594/594
f 595/595/595 596/596/596 486/486/486
f 486/486/486 484/484/484 595/595/595
f 596/596/596 597/597/597 489/489/489
f 489/489/489 486/486/486 596/596/596
f 598/598/598 599/599/599 492/492/492
f 492/492/492 490/490/490 598/598/598
f 599/599/599 600/600/600 496/496/496
f 496/496/496 492/492/492 599/599/599
f 600/600/600 603/603/603 499/499/499
f 499/499/499 496/496/496 600/600/600
f 603/603/603 453/453/453 502/502/502
f 502/502/502 499/499/499 603/603/603
f 505/505/505 543/543/543 541/541/541
f 541/541/541 503/503/503 505/505/505
f 455/455/455 451/451/451 504/504/504
f 504/504/504 501/501/501 455/455/455
f 451/451/451 449/449/449 458/458/458
f 458/458/458 504/504/504 451/451/451
f 536/536/536 576/576/576 573/573/573
f 573/573/573 535/535/535 536/536/536
f 469/469/469 514/514/514 511/511/511
f 511/511/511 466/466/466 469/469/469
f 485/485/485 527/527/527 523/523/523
f 523/523/523 483/483/483 485/485/485
f 461/461/461 507/507/507 509/509/509
f 509/509/509 459/459/459 461/461/461
f 500/500/500 540/540/540 537/537/537
f 537/537/537 495/495/495 500/500/500
f 481/481/481 522/522/522 520/520/520
f 520/520/520 476/476/476 481/481/481
f 493/493/493 533/533/533 532/532/532
f 532/532/532 488/488/488 493/493/493
f 459/459/459 509/509/509 543/543/543
f 543/543/543 505/505/505 459/459/459
f 472/472/472 517/517/517 514/514/514
f 514/514/514 469/469/469 472/472/472
f 487/487/487 528/528/528 527/527/527
f 527/527/527 485/485/485 487/487/487
f 503/503/503 541/541/541 540/540/540
f 540/540/540 500/500/500 503/503/503
f 466/466/466 511/511/511 507/507/507
f 507/507/507 461/461/461 466/466/466
f 483/483/483 523/523/523 522/522/522
f 522/522/522 481/481/481 483/483/483
f 495/495/495 537/537/537 533/533/533
f 533/533/533 493/493/493 495/495/495
f 476/476/476 520/520/520 517/517/517
f 517/517/517 472/472/472 476/476/476
f 488/488/488 532/532/532 528/528/528
f 528/528/528 487/487/487 488/488/488
f 548/548/548 551/551/551 555/555/555
f 548/548/548 555/555/555 557/557/557
f 548/548/548 557/557/557 559/559/559
f 548/548/548 559/559/559 562/562/562
f 548/548/548 562/562/562 563/563/563
f 548/548/548 563/563/563 566/566/566
f 548/548/548 566/566/566 570/570/570
f 548/548/548 570/570/570 571/571/571
f 548/548/548 571/571/571 574/574/574
f 548/548/548 574/574/574 577/577/577
f 548/548/548 577/577/577 579/579/579
f 548/548/548 579/579/579 581/581/581
f 548/548/548 581/581/581 583/583/583
f 548/548/548 583/583/583 550/550/550
f 518/518/518 560/560/560 556/556/556
f 556/556/556 516/516/516 518/518/518
f 538/538/538 578/578/578 576/576/576
f 576/576/576 536/536/536 538/538/538
f 521/521/521 561/561/561 558/558/558
f 558/558/558 519/519/519 521/521/521
f 542/542/542 582/582/582 580/580/580
f 580/580/580 539/539/539 542/542/542
f 524/524/524 564/564/564 561/561/561
f 561/561/561 521/521/521 524/524/524
f 544/544/544 585/585/585 582/582/582
f 582/582/582 542/542/542 544/544/544
f 526/526/526 567/567/567 565/565/565
f 565/565/565 525/525/525 526/526/526
f 506/506/506 546/546/546 549/549/549
f 549/549/549 510/510/510 506/506/506
f 510/510/510 549/549/549 584/584/584
f 584/584/584 545/545/545 510/510/510
f 529/529/529 568/568/568 567/567/567
f 567/567/567 526/526/526 529/529/529
f 512/512/512 552/552/552 547/547/547
f 547/547/547 508/508/508 512/512/512
f 531/531/531 572/572/572 569/569/569
f 569/569/569 530/530/530 531/531/531
f 513/513/513 554/554/554 552/552/552
f 552/552/552 512/512/512 513/513/513
f 534/534/534 575/575/575 572/572/572
f 572/572/572 531/531/531 534/534/534
f 516/516/516 556/556/556 553/553/553
f 553/553/553 515/515/515 516/516/516
f 494/494/494 497/497/497 603/603/603
f 603/603/603 600/600/600 494/494/494
f 491/491/491 494/494/494 600/600/600
f 600/600/600 599/599/599 491/491/491
f 594/594/594 605/605/605 604/604/604
f 604/604/604 595/595/595 594/594/594
f 474/474/474 478/478/478 593/593/593
f 593/593/593 591/591/591 474/474/474
f 471/471/471 474/474/474 591/591/591
f 591/591/591 590/590/590 471/471/471
f 468/468/468 471/471/471 590/590/590
f 590/590/590 589/589/589 468/468/468
f 463/463/463 468/468/468 589/589/589
f 589/589/589 587/587/587 463/463/463
f 460/460/460 464/464/464 588/588/588
f 588/588/588 586/586/586 460/460/460
f 456/456/456 460/460/460 586/586/586
f 586/586/586 449/449/449 456/456/456
f 592/592/592 477/477/477 605/605/605
f 605/605/605 594/594/594 592/592/592
f 491/491/491 599/599/599 598/598/598
f 598/598/598 606/606/606 491/491/491
f 596/596/596 608/608/608 607/607/607
f 607/607/607 597/597/597 596/596/596
f 595/595/595 604/604/604 608/608/608
f 608/608/608 596/596/596 595/595/595

