mtllib material.mtl
usemtl Leg.FR_MAT
v 0.13956600 0.14872000 0.21795300
v 0.13956600 0.14872000 0.21795300
v 0.13956600 0.14872000 0.21795300
v 0.13020100 0.13934700 0.23666300
v 0.13020100 0.13934700 0.23666300
v 0.13020100 0.13934700 0.23666300
v 0.10985800 0.11900200 0.18819600
v 0.10985800 0.11900200 0.18819600
v 0.10985800 0.11900200 0.18819600
v 0.10049300 0.10962900 0.20690700
v 0.10049300 0.10962900 0.20690700
v 0.10049300 0.10962900 0.20690700
v 0.10876300 0.11556800 0.17278900
v 0.10876300 0.11556800 0.17278900
v 0.10876300 0.11556800 0.17278900
v 0.09933200 0.10684500 0.19179200
v 0.09933200 0.10684500 0.19179200
v 0.09933200 0.10684500 0.19179200
v 0.07917000 0.08596600 0.14314800
v 0.07917000 0.08596600 0.14314800
v 0.07917000 0.08596600 0.14314800
v 0.06915600 0.07665900 0.16156600
v 0.06915600 0.07665900 0.16156600
v 0.06915600 0.07665900 0.16156600
v 0.06824200 0.07737300 0.14330900
v 0.06824200 0.07737300 0.14330900
v 0.06824200 0.07737300 0.14330900
v 0.05887700 0.06800000 0.16201900
v 0.05887700 0.06800000 0.16201900
v 0.05887700 0.06800000 0.16201900
v 0.05729400 0.06642200 0.13234400
v 0.05729400 0.06642200 0.13234400
v 0.04792900 0.05704900 0.15105400
v 0.04792900 0.05704900 0.15105400
v 0.10854700 0.11769300 0.17374600
v 0.10854700 0.11769300 0.17374600
v 0.10854700 0.11769300 0.17374600
v 0.07704500 0.08618100 0.14219200
v 0.07704500 0.08618100 0.14219200
v 0.07704500 0.08618100 0.14219200
v 0.11014000 0.11226500 0.16502800
v 0.11014000 0.11226500 0.16502800
v 0.11014000 0.11226500 0.16502800
v 0.11110400 0.11322800 0.17278800
v 0.11110400 0.11322800 0.17278800
v 0.11110400 0.11322800 0.17278800
v 0.08151200 0.08362600 0.14314800
v 0.08151200 0.08362600 0.14314800
v 0.08151200 0.08362600 0.14314800
v 0.08768700 0.08980500 0.14239000
v 0.08768700 0.08980500 0.14239000
v 0.08768700 0.08980500 0.14239000
v 0.10779900 0.11460500 0.16502800
v 0.10779900 0.11460500 0.16502800
v 0.10779900 0.11460500 0.16502800
v 0.08534600 0.09214500 0.14239100
v 0.08534600 0.09214500 0.14239100
v 0.08534600 0.09214500 0.14239100
v 0.09615600 0.09827700 0.15087300
v 0.09615600 0.09827700 0.15087300
v 0.09615600 0.09827700 0.15087300
v 0.09381500 0.10061700 0.15087300
v 0.09381500 0.10061700 0.15087300
v 0.09381500 0.10061700 0.15087300
v 0.09712600 0.09924900 0.13924400
v 0.09712600 0.09924900 0.13924400
v 0.09712600 0.09924900 0.13924400
v 0.09141900 0.09354000 0.13493400
v 0.09141900 0.09354000 0.13493400
v 0.09141900 0.09354000 0.13493400
v 0.09478500 0.10158900 0.13924400
v 0.09478500 0.10158900 0.13924400
v 0.09478500 0.10158900 0.13924400
v 0.08907800 0.09588000 0.13493400
v 0.08907800 0.09588000 0.13493400
v 0.08907800 0.09588000 0.13493400
v 0.09918200 0.10832000 0.19245600
v 0.09918200 0.10832000 0.19245600
v 0.09918200 0.10832000 0.19245600
v 0.10238900 0.10378900 0.19179100
v 0.10238900 0.10378900 0.19179100
v 0.10238900 0.10378900 0.19179100
v 0.06768000 0.07680800 0.16090300
v 0.06768000 0.07680800 0.16090300
v 0.06768000 0.07680800 0.16090300
v 0.07221300 0.07360300 0.16156600
v 0.07221300 0.07360300 0.16156600
v 0.07221300 0.07360300 0.16156600
v 0.07214400 0.07471900 0.16662900
v 0.07214400 0.07471900 0.16662900
v 0.07214400 0.07471900 0.16662900
v 0.09824600 0.10083000 0.19277400
v 0.09824600 0.10083000 0.19277400
v 0.09824600 0.10083000 0.19277400
v 0.09637500 0.10270000 0.19277400
v 0.09637500 0.10270000 0.19277400
v 0.09637500 0.10270000 0.19277400
v 0.07027300 0.07658900 0.16662900
v 0.07027300 0.07658900 0.16662900
v 0.07027300 0.07658900 0.16662900
v 0.14424800 0.14404000 0.21795200
v 0.14424800 0.14404000 0.21795200
v 0.13488300 0.13466700 0.23666200
v 0.13488300 0.13466700 0.23666200
v 0.11454000 0.11432200 0.18819500
v 0.11454000 0.11432200 0.18819500
v 0.10517500 0.10494900 0.20690600
v 0.10517500 0.10494900 0.20690600
v 0.14893000 0.13936000 0.21795100
v 0.14893000 0.13936000 0.21795100
v 0.14893000 0.13936000 0.21795100
v 0.13956600 0.12998700 0.23666100
v 0.13956600 0.12998700 0.23666100
v 0.13956600 0.12998700 0.23666100
v 0.11922300 0.10964200 0.18819500
v 0.11922300 0.10964200 0.18819500
v 0.11922300 0.10964200 0.18819500
v 0.10985800 0.10026900 0.20690500
v 0.10985800 0.10026900 0.20690500
v 0.10985800 0.10026900 0.20690500
v 0.10386400 0.10364000 0.19245500
v 0.10386400 0.10364000 0.19245500
v 0.11322900 0.11301300 0.17374500
v 0.11322900 0.11301300 0.17374500
v 0.11578600 0.10854800 0.17278800
v 0.11578600 0.10854800 0.17278800
v 0.11578600 0.10854800 0.17278800
v 0.10707100 0.09910900 0.19179000
v 0.10707100 0.09910900 0.19179000
v 0.10707100 0.09910900 0.19179000
v 0.07236300 0.07212800 0.16090200
v 0.07236300 0.07212800 0.16090200
v 0.08172700 0.08150100 0.14219100
v 0.08172700 0.08150100 0.14219100
v 0.08619400 0.07894600 0.14314700
v 0.08619400 0.07894600 0.14314700
v 0.08619400 0.07894600 0.14314700
v 0.07689500 0.06892300 0.16156500
v 0.07689500 0.06892300 0.16156500
v 0.07689500 0.06892300 0.16156500
v 0.06355900 0.06332000 0.16201800
v 0.06355900 0.06332000 0.16201800
v 0.07292400 0.07269300 0.14330800
v 0.07292400 0.07269300 0.14330800
v 0.07760700 0.06801300 0.14330700
v 0.07760700 0.06801300 0.14330700
v 0.07760700 0.06801300 0.14330700
v 0.06824200 0.05864000 0.16201800
v 0.06824200 0.05864000 0.16201800
v 0.06824200 0.05864000 0.16201800
v 0.05261200 0.05236900 0.15105300
v 0.06197700 0.06174200 0.13234300
v 0.06665900 0.05706200 0.13234200
v 0.06665900 0.05706200 0.13234200
v 0.05729400 0.04768900 0.15105200
v 0.05729400 0.04768900 0.15105200
v 0.11791200 0.10833300 0.17374400
v 0.11791200 0.10833300 0.17374400
v 0.11791200 0.10833300 0.17374400
v 0.08641000 0.07682100 0.14219100
v 0.08641000 0.07682100 0.14219100
v 0.08641000 0.07682100 0.14219100
v 0.11248100 0.10992500 0.16502700
v 0.11248100 0.10992500 0.16502700
v 0.11248100 0.10992500 0.16502700
v 0.11344500 0.11088800 0.17278800
v 0.11344500 0.11088800 0.17278800
v 0.11344500 0.11088800 0.17278800
v 0.08385300 0.08128600 0.14314800
v 0.08385300 0.08128600 0.14314800
v 0.08385300 0.08128600 0.14314800
v 0.09002800 0.08746500 0.14239000
v 0.09002800 0.08746500 0.14239000
v 0.09002800 0.08746500 0.14239000
v 0.11482300 0.10758500 0.16502700
v 0.11482300 0.10758500 0.16502700
v 0.11482300 0.10758500 0.16502700
v 0.09237000 0.08512500 0.14238900
v 0.09237000 0.08512500 0.14238900
v 0.09237000 0.08512500 0.14238900
v 0.09849700 0.09593700 0.15087200
v 0.09849700 0.09593700 0.15087200
v 0.09849700 0.09593700 0.15087200
v 0.10083900 0.09359700 0.15087200
v 0.10083900 0.09359700 0.15087200
v 0.10083900 0.09359700 0.15087200
v 0.09946700 0.09690900 0.13924300
v 0.09946700 0.09690900 0.13924300
v 0.09946700 0.09690900 0.13924300
v 0.09376000 0.09120000 0.13493400
v 0.09376000 0.09120000 0.13493400
v 0.09376000 0.09120000 0.13493400
v 0.10180800 0.09456900 0.13924300
v 0.10180800 0.09456900 0.13924300
v 0.10180800 0.09456900 0.13924300
v 0.09610200 0.08886000 0.13493300
v 0.09610200 0.08886000 0.13493300
v 0.09610200 0.08886000 0.13493300
v 0.10854700 0.09896000 0.19245400
v 0.10854700 0.09896000 0.19245400
v 0.10854700 0.09896000 0.19245400
v 0.10401400 0.10216500 0.19179100
v 0.10401400 0.10216500 0.19179100
v 0.10401400 0.10216500 0.19179100
v 0.07704500 0.06744800 0.16090100
v 0.07704500 0.06744800 0.16090100
v 0.07704500 0.06744800 0.16090100
v 0.07383800 0.07197900 0.16156500
v 0.07383800 0.07197900 0.16156500
v 0.07383800 0.07197900 0.16156500
v 0.07495500 0.07190900 0.16662900
v 0.07495500 0.07190900 0.16662900
v 0.07495500 0.07190900 0.16662900
v 0.10105700 0.09802000 0.19277400
v 0.10105700 0.09802000 0.19277400
v 0.10105700 0.09802000 0.19277400
v 0.10292800 0.09615000 0.19277300
v 0.10292800 0.09615000 0.19277300
v 0.10292800 0.09615000 0.19277300
v 0.07682600 0.07003900 0.16662800
v 0.07682600 0.07003900 0.16662800
v 0.07682600 0.07003900 0.16662800
vn -0.70730000 0.70690000 0.00010000
vn 0.57700000 0.57720000 0.57790000
vn 0.40850000 0.40880000 -0.81610000
vn -0.70730000 0.70690000 0.00010000
vn 0.57700000 0.57720000 0.57790000
vn -0.40850000 -0.40880000 0.81610000
vn -0.70730000 0.70690000 0.00010000
vn 0.40850000 0.40880000 -0.81610000
vn 0.70120000 0.70160000 -0.12720000
vn -0.40850000 -0.40880000 0.81610000
vn -0.70730000 0.70690000 0.00010000
vn -0.70120000 -0.70160000 0.12720000
vn 0.40850000 0.40880000 -0.81610000
vn -0.70730000 0.70690000 0.00010000
vn 0.69630000 0.69670000 -0.17290000
vn -0.40850000 -0.40880000 0.81610000
vn 0.13590000 0.13580000 0.98140000
vn -0.78000000 0.59920000 0.18030000
vn 0.40850000 0.40880000 -0.81610000
vn -0.70730000 0.70690000 0.00010000
vn -0.06120000 -0.06100000 -0.99630000
vn -0.69950000 -0.69990000 0.14470000
vn -0.78000000 0.59920000 0.18030000
vn -0.40850000 -0.40880000 0.81610000
vn 0.40850000 0.40880000 -0.81610000
vn -0.70730000 0.70690000 0.00010000
vn -0.06320000 -0.06310000 -0.99600000
vn -0.40850000 -0.40880000 0.81610000
vn 0.06320000 0.06310000 0.99600000
vn -0.70730000 0.70690000 0.00010000
vn -0.70730000 0.70690000 0.00010000
vn 0.40850000 0.40880000 -0.81610000
vn -0.70730000 0.70690000 0.00010000
vn -0.40850000 -0.40880000 0.81610000
vn 0.40850000 0.40880000 -0.81610000
vn -0.70730000 0.70690000 0.00010000
vn 0.70120000 0.70160000 -0.12720000
vn -0.70730000 0.70690000 0.00010000
vn -0.06320000 -0.06310000 -0.99600000
vn 0.40850000 0.40880000 -0.81610000
vn 0.41130000 0.41170000 -0.81320000
vn 0.69630000 0.69670000 -0.17290000
vn 0.70730000 -0.70690000 -0.00010000
vn 0.40850000 0.40880000 -0.81610000
vn 0.70730000 -0.70690000 -0.00010000
vn 0.69630000 0.69670000 -0.17290000
vn 0.40850000 0.40880000 -0.81610000
vn 0.70730000 -0.70690000 -0.00010000
vn -0.06120000 -0.06100000 -0.99630000
vn -0.06120000 -0.06100000 -0.99630000
vn -0.57700000 -0.57720000 -0.57790000
vn 0.70730000 -0.70690000 -0.00010000
vn -0.70730000 0.70690000 0.00010000
vn 0.41130000 0.41170000 -0.81320000
vn 0.69630000 0.69670000 -0.17290000
vn -0.06120000 -0.06100000 -0.99630000
vn -0.57700000 -0.57720000 -0.57790000
vn -0.70730000 0.70690000 0.00010000
vn 0.70730000 -0.70690000 -0.00010000
vn 0.70210000 0.70240000 0.11730000
vn 0.41130000 0.41170000 -0.81320000
vn 0.41130000 0.41170000 -0.81320000
vn 0.70210000 0.70240000 0.11730000
vn -0.70730000 0.70690000 0.00010000
vn 0.70730000 -0.70690000 -0.00010000
vn 0.70210000 0.70240000 0.11730000
vn 0.33290000 0.33320000 -0.88210000
vn 0.33290000 0.33320000 -0.88210000
vn -0.57700000 -0.57720000 -0.57790000
vn 0.70730000 -0.70690000 -0.00010000
vn 0.70210000 0.70240000 0.11730000
vn 0.33290000 0.33320000 -0.88210000
vn -0.70730000 0.70690000 0.00010000
vn -0.57700000 -0.57720000 -0.57790000
vn 0.33290000 0.33320000 -0.88210000
vn -0.70730000 0.70690000 0.00010000
vn -0.70120000 -0.70160000 0.12720000
vn -0.70730000 0.70690000 0.00010000
vn -0.40850000 -0.40880000 0.81610000
vn 0.13590000 0.13580000 0.98140000
vn 0.59970000 -0.77970000 0.18010000
vn -0.40850000 -0.40880000 0.81610000
vn 0.06320000 0.06310000 0.99600000
vn -0.40850000 -0.40880000 0.81610000
vn -0.70730000 0.70690000 0.00010000
vn 0.59970000 -0.77970000 0.18010000
vn -0.69950000 -0.69990000 0.14470000
vn -0.40850000 -0.40880000 0.81610000
vn -0.40850000 -0.40880000 0.81610000
vn 0.59970000 -0.77970000 0.18010000
vn -0.69950000 -0.69990000 0.14470000
vn -0.40850000 -0.40880000 0.81610000
vn 0.13590000 0.13580000 0.98140000
vn 0.59970000 -0.77970000 0.18010000
vn -0.40850000 -0.40880000 0.81610000
vn 0.13590000 0.13580000 0.98140000
vn -0.78000000 0.59920000 0.18030000
vn -0.78000000 0.59920000 0.18030000
vn -0.69950000 -0.69990000 0.14470000
vn -0.40850000 -0.40880000 0.81610000
vn 0.40850000 0.40880000 -0.81610000
vn 0.57700000 0.57720000 0.57790000
vn 0.57700000 0.57720000 0.57790000
vn -0.40850000 -0.40880000 0.81610000
vn 0.70120000 0.70160000 -0.12720000
vn 0.40850000 0.40880000 -0.81610000
vn -0.70120000 -0.70160000 0.12720000
vn -0.40850000 -0.40880000 0.81610000
vn 0.70730000 -0.70690000 -0.00010000
vn 0.40850000 0.40880000 -0.81610000
vn 0.57700000 0.57720000 0.57790000
vn -0.40850000 -0.40880000 0.81610000
vn 0.70730000 -0.70690000 -0.00010000
vn 0.57700000 0.57720000 0.57790000
vn 0.70120000 0.70160000 -0.12720000
vn 0.70730000 -0.70690000 -0.00010000
vn 0.40850000 0.40880000 -0.81610000
vn 0.70730000 -0.70690000 -0.00010000
vn -0.70120000 -0.70160000 0.12720000
vn -0.40850000 -0.40880000 0.81610000
vn -0.40850000 -0.40880000 0.81610000
vn -0.70120000 -0.70160000 0.12720000
vn 0.40850000 0.40880000 -0.81610000
vn 0.70120000 0.70160000 -0.12720000
vn 0.70730000 -0.70690000 -0.00010000
vn 0.40850000 0.40880000 -0.81610000
vn 0.69630000 0.69670000 -0.17290000
vn -0.40850000 -0.40880000 0.81610000
vn 0.59970000 -0.77970000 0.18010000
vn 0.13590000 0.13580000 0.98140000
vn 0.06320000 0.06310000 0.99600000
vn -0.40850000 -0.40880000 0.81610000
vn 0.40850000 0.40880000 -0.81610000
vn -0.06320000 -0.06310000 -0.99600000
vn 0.70730000 -0.70690000 -0.00010000
vn 0.40850000 0.40880000 -0.81610000
vn -0.06120000 -0.06100000 -0.99630000
vn -0.40850000 -0.40880000 0.81610000
vn 0.59970000 -0.77970000 0.18010000
vn -0.69950000 -0.69990000 0.14470000
vn -0.40850000 -0.40880000 0.81610000
vn 0.06320000 0.06310000 0.99600000
vn -0.06320000 -0.06310000 -0.99600000
vn 0.40850000 0.40880000 -0.81610000
vn 0.40850000 0.40880000 -0.81610000
vn -0.06320000 -0.06310000 -0.99600000
vn 0.70730000 -0.70690000 -0.00010000
vn 0.70730000 -0.70690000 -0.00010000
vn 0.06320000 0.06310000 0.99600000
vn -0.40850000 -0.40880000 0.81610000
vn -0.40850000 -0.40880000 0.81610000
vn 0.40850000 0.40880000 -0.81610000
vn 0.70730000 -0.70690000 -0.00010000
vn 0.40850000 0.40880000 -0.81610000
vn -0.40850000 -0.40880000 0.81610000
vn 0.70730000 -0.70690000 -0.00010000
vn 0.70120000 0.70160000 -0.12720000
vn 0.40850000 0.40880000 -0.81610000
vn 0.70730000 -0.70690000 -0.00010000
vn 0.40850000 0.40880000 -0.81610000
vn 0.70730000 -0.70690000 -0.00010000
vn -0.06320000 -0.06310000 -0.99600000
vn 0.69630000 0.69670000 -0.17290000
vn 0.41130000 0.41170000 -0.81320000
vn -0.70730000 0.70690000 0.00010000
vn -0.70730000 0.70690000 0.00010000
vn 0.40850000 0.40880000 -0.81610000
vn 0.69630000 0.69670000 -0.17290000
vn -0.06120000 -0.06100000 -0.99630000
vn 0.40850000 0.40880000 -0.81610000
vn -0.70730000 0.70690000 0.00010000
vn -0.70730000 0.70690000 0.00010000
vn -0.06120000 -0.06100000 -0.99630000
vn -0.57700000 -0.57720000 -0.57790000
vn 0.70730000 -0.70690000 -0.00010000
vn 0.41130000 0.41170000 -0.81320000
vn 0.69630000 0.69670000 -0.17290000
vn -0.06120000 -0.06100000 -0.99630000
vn 0.70730000 -0.70690000 -0.00010000
vn -0.57700000 -0.57720000 -0.57790000
vn -0.70730000 0.70690000 0.00010000
vn 0.70210000 0.70240000 0.11730000
vn 0.41130000 0.41170000 -0.81320000
vn 0.41130000 0.41170000 -0.81320000
vn 0.70210000 0.70240000 0.11730000
vn 0.70730000 -0.70690000 -0.00010000
vn 0.33290000 0.33320000 -0.88210000
vn 0.70210000 0.70240000 0.11730000
vn -0.70730000 0.70690000 0.00010000
vn -0.57700000 -0.57720000 -0.57790000
vn -0.70730000 0.70690000 0.00010000
vn 0.33290000 0.33320000 -0.88210000
vn 0.70730000 -0.70690000 -0.00010000
vn 0.70210000 0.70240000 0.11730000
vn 0.33290000 0.33320000 -0.88210000
vn -0.57700000 -0.57720000 -0.57790000
vn 0.33290000 0.33320000 -0.88210000
vn 0.70730000 -0.70690000 -0.00010000
vn 0.70730000 -0.70690000 -0.00010000
vn -0.70120000 -0.70160000 0.12720000
vn -0.40850000 -0.40880000 0.81610000
vn 0.13590000 0.13580000 0.98140000
vn -0.78000000 0.59920000 0.18030000
vn -0.40850000 -0.40880000 0.81610000
vn -0.40850000 -0.40880000 0.81610000
vn 0.06320000 0.06310000 0.99600000
vn 0.70730000 -0.70690000 -0.00010000
vn -0.78000000 0.59920000 0.18030000
vn -0.40850000 -0.40880000 0.81610000
vn -0.69950000 -0.69990000 0.14470000
vn -0.69950000 -0.69990000 0.14470000
vn -0.40850000 -0.40880000 0.81610000
vn -0.78000000 0.59920000 0.18030000
vn 0.13590000 0.13580000 0.98140000
vn -0.40850000 -0.40880000 0.81610000
vn -0.78000000 0.59920000 0.18030000
vn 0.13590000 0.13580000 0.98140000
vn -0.40850000 -0.40880000 0.81610000
vn 0.59970000 -0.77970000 0.18010000
vn -0.40850000 -0.40880000 0.81610000
vn 0.59970000 -0.77970000 0.18010000
vn -0.69950000 -0.69990000 0.14470000
vt 0.60603300 0.58336000
vt 0.95490700 0.85176300
vt 0.54293700 0.89529900
vt 0.62848200 0.58398700
vt 0.95490700 0.87009800
vt 0.89211000 0.67274000
vt 0.60745100 0.53305400
vt 0.54293700 0.85453600
vt 0.22749900 0.95773500
vt 0.89211000 0.71350300
vt 0.62990000 0.53368100
vt 0.87182600 0.13371100
vt 0.14209800 0.78043500
vt 0.85064400 0.21938500
vt 0.97515200 0.37466200
vt 0.80207000 0.58267500
vt 0.80207000 0.58267500
vt 0.06063600 0.86640400
vt 0.14209800 0.73983100
vt 0.85064400 0.16925500
vt 0.14209800 0.73983100
vt 0.61795400 0.98171200
vt 0.06063600 0.91752300
vt 0.80207000 0.62408000
vt 0.14371900 0.72633700
vt 0.60692900 0.46070300
vt 0.14371900 0.72633700
vt 0.80319600 0.63717300
vt 0.80319600 0.63717300
vt 0.62937700 0.46133000
vt 0.60745100 0.44216500
vt 0.14371900 0.71131600
vt 0.62990000 0.44279200
vt 0.80319600 0.65219400
vt 0.14371900 0.78174500
vt 0.59722400 0.52312400
vt 0.22749900 0.94361700
vt 0.59872800 0.46978000
vt 0.14371900 0.73852000
vt 0.14371900 0.73852000
vt 0.46367500 0.93564100
vt 0.97190900 0.36707900
vt 0.83383200 0.08582700
vt 0.13885500 0.78043500
vt 0.83926500 0.08035700
vt 0.97190900 0.37466000
vt 0.13885500 0.73983100
vt 0.83926500 0.13048800
vt 0.13885500 0.73983100
vt 0.13885500 0.74837700
vt 0.34617100 0.97574600
vt 0.83371400 0.12394700
vt 0.84521100 0.21391500
vt 0.46043200 0.93564100
vt 0.97515200 0.36708000
vt 0.14209800 0.74837700
vt 0.34292900 0.97574100
vt 0.84509200 0.17579600
vt 0.83371400 0.10960000
vt 0.91494400 0.63146200
vt 0.46367500 0.95482800
vt 0.46043200 0.95482800
vt 0.91170100 0.63146300
vt 0.84509200 0.19014300
vt 0.82364000 0.11507300
vt 0.91494400 0.64283400
vt 0.94486600 0.56173700
vt 0.94486600 0.55389200
vt 0.34617100 0.96858800
vt 0.82476400 0.12394600
vt 0.91170100 0.64283500
vt 0.94810900 0.56173700
vt 0.83501900 0.18467000
vt 0.34292900 0.96858300
vt 0.94810900 0.55389200
vt 0.83614300 0.17579700
vt 0.87182600 0.14787600
vt 0.61967300 0.52375100
vt 0.80319600 0.58176500
vt 0.79783600 0.58267500
vt 0.16191500 0.23223400
vt 0.79783600 0.58267500
vt 0.80319600 0.62499000
vt 0.80319600 0.62499000
vt 0.62117600 0.47040700
vt 0.16191500 0.18111300
vt 0.61372000 0.98171200
vt 0.79783600 0.62408000
vt 0.79865700 0.62340900
vt 0.15827600 0.18456800
vt 0.61454200 0.97674700
vt 0.79865700 0.58759300
vt 0.79865700 0.58759300
vt 0.15827600 0.22878800
vt 0.80124900 0.58759300
vt 0.80124900 0.58759300
vt 0.05699900 0.86984700
vt 0.05699900 0.91406500
vt 0.61713400 0.97674700
vt 0.80124900 0.62340900
vt 0.53645200 0.89529900
vt 0.94842200 0.85177200
vt 0.94842200 0.87010700
vt 0.88562500 0.67274000
vt 0.22101400 0.95773400
vt 0.53645200 0.85453600
vt 0.86534100 0.13371200
vt 0.88562500 0.71350300
vt 0.55376700 0.28141700
vt 0.52996700 0.89529900
vt 0.94193700 0.85178100
vt 0.87914000 0.67274000
vt 0.57621500 0.28078800
vt 0.94193700 0.87011700
vt 0.21452900 0.95773200
vt 0.55518500 0.33172400
vt 0.52996700 0.85453600
vt 0.57763300 0.33109600
vt 0.85885600 0.13371400
vt 0.87914000 0.71350300
vt 0.79671100 0.58176500
vt 0.86534100 0.14787800
vt 0.13723400 0.78174500
vt 0.22101400 0.94361500
vt 0.02542000 0.79672500
vt 0.13237000 0.78043500
vt 0.97515200 0.32917600
vt 0.79135100 0.58267500
vt 0.16191500 0.30290400
vt 0.79135100 0.58267500
vt 0.79671100 0.62499000
vt 0.79671100 0.62499000
vt 0.13723400 0.73852000
vt 0.13723400 0.73852000
vt 0.02542000 0.84685600
vt 0.13237000 0.73983100
vt 0.13237000 0.73983100
vt 0.79135100 0.62408000
vt 0.16191500 0.25178300
vt 0.25224400 0.98210700
vt 0.79671000 0.63717300
vt 0.79671000 0.63717300
vt 0.13723400 0.72633700
vt 0.13723400 0.72633700
vt 0.13074900 0.72633700
vt 0.13074900 0.72633700
vt 0.55466200 0.40407700
vt 0.57711000 0.40344900
vt 0.79022600 0.63717300
vt 0.79022600 0.63717300
vt 0.79671100 0.65219400
vt 0.13723400 0.71131600
vt 0.55518500 0.42261600
vt 0.13074900 0.71131600
vt 0.79022600 0.65219400
vt 0.57763300 0.42198800
vt 0.21452900 0.94361400
vt 0.13074900 0.78174500
vt 0.54495800 0.34165500
vt 0.13074900 0.73852000
vt 0.54646100 0.39500000
vt 0.13074900 0.73852000
vt 0.97190900 0.33675600
vt 0.95990200 0.82177100
vt 0.37761200 0.84362300
vt 0.38304500 0.84909300
vt 0.13561200 0.78043500
vt 0.97190900 0.32917500
vt 0.13561200 0.73983100
vt 0.13561200 0.73983100
vt 0.38304500 0.79896300
vt 0.37749400 0.80550400
vt 0.13561200 0.74837700
vt 0.36576300 0.97574100
vt 0.01998700 0.80219500
vt 0.95666000 0.82177100
vt 0.97515200 0.33675800
vt 0.13237000 0.74837700
vt 0.01986900 0.84031600
vt 0.36900600 0.97574600
vt 0.37749400 0.81985000
vt 0.67355800 0.26123800
vt 0.95990200 0.80258400
vt 0.95666000 0.80258400
vt 0.67031500 0.26123900
vt 0.01986900 0.82596900
vt 0.49069900 0.96430500
vt 0.67355800 0.24986700
vt 0.36742100 0.81437800
vt 0.36576300 0.96858300
vt 0.36854500 0.80550500
vt 0.49069900 0.95646000
vt 0.00979600 0.83144200
vt 0.67031500 0.24986800
vt 0.48745600 0.96430500
vt 0.36900600 0.96858800
vt 0.48745600 0.95646000
vt 0.01092000 0.84031500
vt 0.56740600 0.34102600
vt 0.85885600 0.14787900
vt 0.79022600 0.58176500
vt 0.79558500 0.58267500
vt 0.91975600 0.32917500
vt 0.79558500 0.58267500
vt 0.79022600 0.62499000
vt 0.79022600 0.62499000
vt 0.56890900 0.39437200
vt 0.91975600 0.38029500
vt 0.79558500 0.62408000
vt 0.25647800 0.98210700
vt 0.25565800 0.97714200
vt 0.79476400 0.62340900
vt 0.91611900 0.37683600
vt 0.79476400 0.58759300
vt 0.79476400 0.58759300
vt 0.91611900 0.33261800
vt 0.79217200 0.58759300
vt 0.79217200 0.58759300
vt 0.15827600 0.29945800
vt 0.79217200 0.62340900
vt 0.15827600 0.25523800
vt 0.25306600 0.97714200
f 18/18/18 23/23/23 98/98/98
f 98/98/98 97/97/97 18/18/18
f 107/107/107 12/12/12 77/77/77
f 77/77/77 122/122/122 107/107/107
f 7/7/7 11/11/11 4/4/4
f 4/4/4 1/1/1 7/7/7
f 2/2/2 5/5/5 103/103/103
f 103/103/103 102/102/102 2/2/2
f 106/106/106 8/8/8 3/3/3
f 3/3/3 101/101/101 106/106/106
f 10/10/10 108/108/108 104/104/104
f 104/104/104 6/6/6 10/10/10
f 11/11/11 7/7/7 36/36/36
f 36/36/36 78/78/78 11/11/11
f 9/9/9 105/105/105 124/124/124
f 124/124/124 37/37/37 9/9/9
f 131/131/131 83/83/83 29/29/29
f 29/29/29 142/142/142 131/131/131
f 78/78/78 36/36/36 38/38/38
f 38/38/38 85/85/85 78/78/78
f 45/45/45 48/48/48 52/52/52
f 45/45/45 52/52/52 59/59/59
f 45/45/45 59/59/59 43/43/43
f 25/25/25 144/144/144 152/152/152
f 152/152/152 32/32/32 25/25/25
f 85/85/85 38/38/38 26/26/26
f 26/26/26 30/30/30 85/85/85
f 39/39/39 134/134/134 143/143/143
f 143/143/143 27/27/27 39/39/39
f 141/141/141 28/28/28 34/34/34
f 34/34/34 151/151/151 141/141/141
f 30/30/30 26/26/26 31/31/31
f 31/31/31 33/33/33 30/30/30
f 13/13/13 19/19/19 40/40/40
f 40/40/40 35/35/35 13/13/13
f 44/44/44 13/13/13 35/35/35
f 35/35/35 123/123/123 44/44/44
f 19/19/19 47/47/47 133/133/133
f 133/133/133 40/40/40 19/19/19
f 47/47/47 44/44/44 123/123/123
f 123/123/123 133/133/133 47/47/47
f 58/58/58 64/64/64 73/73/73
f 73/73/73 76/76/76 58/58/58
f 15/15/15 46/46/46 42/42/42
f 42/42/42 55/55/55 15/15/15
f 49/49/49 21/21/21 56/56/56
f 56/56/56 50/50/50 49/49/49
f 20/20/20 14/14/14 53/53/53
f 20/20/20 53/53/53 64/64/64
f 20/20/20 64/64/64 58/58/58
f 54/54/54 41/41/41 61/61/61
f 61/61/61 62/62/62 54/54/54
f 72/72/72 67/67/67 68/68/68
f 68/68/68 75/75/75 72/72/72
f 63/63/63 60/60/60 66/66/66
f 66/66/66 71/71/71 63/63/63
f 59/59/59 52/52/52 70/70/70
f 70/70/70 65/65/65 59/59/59
f 51/51/51 57/57/57 74/74/74
f 74/74/74 69/69/69 51/51/51
f 16/16/16 82/82/82 121/121/121
f 121/121/121 79/79/79 16/16/16
f 88/88/88 24/24/24 84/84/84
f 84/84/84 132/132/132 88/88/88
f 24/24/24 16/16/16 79/79/79
f 79/79/79 84/84/84 24/24/24
f 82/82/82 88/88/88 132/132/132
f 132/132/132 121/121/121 82/82/82
f 92/92/92 95/95/95 100/100/100
f 100/100/100 89/89/89 92/92/92
f 80/80/80 17/17/17 96/96/96
f 96/96/96 93/93/93 80/80/80
f 86/86/86 81/81/81 94/94/94
f 94/94/94 90/90/90 86/86/86
f 22/22/22 87/87/87 91/91/91
f 91/91/91 99/99/99 22/22/22
f 129/129/129 219/219/219 221/221/221
f 221/221/221 139/139/139 129/129/129
f 107/107/107 122/122/122 200/200/200
f 200/200/200 119/119/119 107/107/107
f 116/116/116 109/109/109 113/113/113
f 113/113/113 118/118/118 116/116/116
f 111/111/111 102/102/102 103/103/103
f 103/103/103 114/114/114 111/111/111
f 106/106/106 101/101/101 110/110/110
f 110/110/110 117/117/117 106/106/106
f 120/120/120 112/112/112 104/104/104
f 104/104/104 108/108/108 120/120/120
f 118/118/118 199/199/199 159/159/159
f 159/159/159 116/116/116 118/118/118
f 115/115/115 157/157/157 124/124/124
f 124/124/124 105/105/105 115/115/115
f 131/131/131 142/142/142 149/149/149
f 149/149/149 206/206/206 131/131/131
f 199/199/199 207/207/207 161/161/161
f 161/161/161 159/159/159 199/199/199
f 166/166/166 165/165/165 181/181/181
f 166/166/166 181/181/181 172/172/172
f 166/166/166 172/172/172 171/171/171
f 145/145/145 154/154/154 152/152/152
f 152/152/152 144/144/144 145/145/145
f 207/207/207 148/148/148 147/147/147
f 147/147/147 161/161/161 207/207/207
f 162/162/162 146/146/146 143/143/143
f 143/143/143 134/134/134 162/162/162
f 141/141/141 151/151/151 155/155/155
f 155/155/155 150/150/150 141/141/141
f 148/148/148 156/156/156 153/153/153
f 153/153/153 147/147/147 148/148/148
f 126/126/126 158/158/158 160/160/160
f 160/160/160 136/136/136 126/126/126
f 167/167/167 123/123/123 158/158/158
f 158/158/158 126/126/126 167/167/167
f 136/136/136 160/160/160 133/133/133
f 133/133/133 170/170/170 136/136/136
f 170/170/170 133/133/133 123/123/123
f 123/123/123 167/167/167 170/170/170
f 179/179/179 198/198/198 193/193/193
f 193/193/193 186/186/186 179/179/179
f 127/127/127 177/177/177 163/163/163
f 163/163/163 168/168/168 127/127/127
f 169/169/169 173/173/173 178/178/178
f 178/178/178 137/137/137 169/169/169
f 135/135/135 179/179/179 186/186/186
f 135/135/135 186/186/186 175/175/175
f 135/135/135 175/175/175 125/125/125
f 176/176/176 184/184/184 183/183/183
f 183/183/183 164/164/164 176/176/176
f 195/195/195 197/197/197 192/192/192
f 192/192/192 187/187/187 195/195/195
f 185/185/185 194/194/194 188/188/188
f 188/188/188 182/182/182 185/185/185
f 181/181/181 189/189/189 191/191/191
f 191/191/191 172/172/172 181/181/181
f 174/174/174 190/190/190 196/196/196
f 196/196/196 180/180/180 174/174/174
f 128/128/128 201/201/201 121/121/121
f 121/121/121 204/204/204 128/128/128
f 209/209/209 132/132/132 205/205/205
f 205/205/205 138/138/138 209/209/209
f 138/138/138 205/205/205 201/201/201
f 201/201/201 128/128/128 138/138/138
f 204/204/204 121/121/121 132/132/132
f 132/132/132 209/209/209 204/204/204
f 215/215/215 212/212/212 220/220/220
f 220/220/220 218/218/218 215/215/215
f 202/202/202 214/214/214 217/217/217
f 217/217/217 130/130/130 202/202/202
f 208/208/208 213/213/213 216/216/216
f 216/216/216 203/203/203 208/208/208
f 140/140/140 222/222/222 211/211/211
f 211/211/211 210/210/210 140/140/140

