mtllib material.mtl
usemtl Leg.BR.002_MAT
v 0.19819100 -0.19207500 0.16450900
v 0.19819100 -0.19207500 0.16450900
v 0.19819100 -0.19207500 0.16450900
v 0.20189000 -0.18837500 0.16450900
v 0.20189000 -0.18837500 0.16450900
v 0.20189000 -0.18837500 0.16450900
v 0.20267700 -0.19612900 0.16947400
v 0.20267700 -0.19612900 0.16947400
v 0.20267700 -0.19612900 0.16947400
v 0.20616000 -0.19264400 0.16947500
v 0.20616000 -0.19264400 0.16947500
v 0.20616000 -0.19264400 0.16947500
v 0.20577700 -0.19908400 0.17470200
v 0.20577700 -0.19908400 0.17470200
v 0.20918800 -0.19567100 0.17470300
v 0.20918800 -0.19567100 0.17470300
v 0.20813300 -0.20122500 0.18066500
v 0.20813300 -0.20122500 0.18066500
v 0.21143700 -0.19792000 0.18066600
v 0.21143700 -0.19792000 0.18066600
v 0.20962300 -0.20250000 0.18713400
v 0.20962300 -0.20250000 0.18713400
v 0.21281900 -0.19930300 0.18713400
v 0.21281900 -0.19930300 0.18713400
v 0.21019800 -0.20285200 0.19386000
v 0.21019800 -0.20285200 0.19386000
v 0.21328300 -0.19976700 0.19386000
v 0.21328300 -0.19976700 0.19386000
v 0.20995800 -0.20214600 0.20058500
v 0.20995800 -0.20214600 0.20058500
v 0.21280900 -0.19929400 0.20058500
v 0.21280900 -0.19929400 0.20058500
v 0.20873800 -0.20058300 0.20704900
v 0.20873800 -0.20058300 0.20704900
v 0.21141700 -0.19790300 0.20705000
v 0.21141700 -0.19790300 0.20705000
v 0.20648100 -0.19832700 0.21300600
v 0.20648100 -0.19832700 0.21300600
v 0.20916000 -0.19564700 0.21300600
v 0.20916000 -0.19564700 0.21300600
v 0.20353100 -0.19520600 0.21822600
v 0.20353100 -0.19520600 0.21822600
v 0.20353100 -0.19520600 0.21822600
v 0.20612400 -0.19261200 0.21822600
v 0.20612400 -0.19261200 0.21822600
v 0.20612400 -0.19261200 0.21822600
v 0.20000600 -0.19133700 0.22250800
v 0.20000600 -0.19133700 0.22250800
v 0.20242700 -0.18891600 0.22250800
v 0.20242700 -0.18891600 0.22250800
v 0.19590600 -0.18700500 0.22568700
v 0.19590600 -0.18700500 0.22568700
v 0.19821000 -0.18470100 0.22568800
v 0.19821000 -0.18470100 0.22568800
v 0.19350900 -0.18450500 0.22764600
v 0.19350900 -0.18450500 0.22764600
v 0.19350900 -0.18450500 0.22764600
v 0.19350900 -0.18450500 0.22764600
v 0.19576100 -0.18225300 0.22764600
v 0.19576100 -0.18225300 0.22764600
v 0.19576100 -0.18225300 0.22764600
v 0.19538100 -0.18186700 0.17178100
v 0.19538100 -0.18186700 0.17178100
v 0.19538100 -0.18186700 0.17178100
v 0.19829800 -0.18478400 0.17399100
v 0.19829800 -0.18478400 0.17399100
v 0.20085400 -0.18734000 0.17696300
v 0.20085400 -0.18734000 0.17696300
v 0.20085400 -0.18734000 0.17696300
v 0.20295100 -0.18943600 0.18058300
v 0.20295100 -0.18943600 0.18058300
v 0.20450800 -0.19099300 0.18471300
v 0.20450800 -0.19099300 0.18471300
v 0.20546500 -0.19195100 0.18919200
v 0.20546500 -0.19195100 0.18919200
v 0.20578600 -0.19227200 0.19385000
v 0.20578600 -0.19227200 0.19385000
v 0.20545800 -0.19194500 0.19850700
v 0.20545800 -0.19194500 0.19850700
v 0.20449400 -0.19098100 0.20298300
v 0.20449400 -0.19098100 0.20298300
v 0.20293100 -0.18941900 0.20710800
v 0.20293100 -0.18941900 0.20710800
v 0.20082900 -0.18731800 0.21072300
v 0.20082900 -0.18731800 0.21072300
v 0.20082900 -0.18731800 0.21072300
v 0.19826900 -0.18475800 0.21368800
v 0.19826900 -0.18475800 0.21368800
v 0.19534800 -0.18183900 0.21589000
v 0.19534800 -0.18183900 0.21589000
v 0.19218000 -0.17867200 0.21724400
v 0.19218000 -0.17867200 0.21724400
v 0.19218000 -0.17867200 0.21724400
v 0.26094000 -0.25844500 0.08143800
v 0.26094000 -0.25844500 0.08143800
v 0.25152400 -0.25044300 0.00391400
v 0.25152400 -0.25044300 0.00391400
v 0.25152400 -0.25044300 0.00391400
v 0.26168000 -0.25997600 0.05237300
v 0.26168000 -0.25997600 0.05237300
v 0.25844000 -0.25719700 0.02690700
v 0.25844000 -0.25719700 0.02690700
v 0.25593200 -0.25225400 0.11455400
v 0.25593200 -0.25225400 0.11455400
v 0.24817800 -0.24340100 0.14045500
v 0.24817800 -0.24340100 0.14045500
v 0.23806000 -0.23213500 0.16477600
v 0.23806000 -0.23213500 0.16477600
v 0.22585100 -0.21882100 0.18638900
v 0.22585100 -0.21882100 0.18638900
v 0.21131600 -0.20238900 0.22737700
v 0.21131600 -0.20238900 0.22737700
v 0.21131600 -0.20238900 0.22737700
v 0.19928600 -0.18987000 0.23592300
v 0.19928600 -0.18987000 0.23592300
v 0.19928600 -0.18987000 0.23592300
v 0.19354400 -0.18446700 0.23073300
v 0.19354400 -0.18446700 0.23073300
v 0.19354400 -0.18446700 0.23073300
v 0.25103300 -0.24979800 0.02844300
v 0.25103300 -0.24979800 0.02844300
v 0.24957000 -0.24792500 0.05180300
v 0.24957000 -0.24792500 0.05180300
v 0.24521400 -0.24288500 0.07671500
v 0.24521400 -0.24288500 0.07671500
v 0.23660400 -0.23326700 0.10356900
v 0.23660400 -0.23326700 0.10356900
v 0.22470800 -0.22016500 0.12908900
v 0.22470800 -0.22016500 0.12908900
v 0.21287000 -0.20728100 0.14784900
v 0.21287000 -0.20728100 0.14784900
v 0.21287000 -0.20728100 0.14784900
v 0.20455600 -0.19832000 0.15816500
v 0.20455600 -0.19832000 0.15816500
v 0.20073600 -0.19668100 0.18919200
v 0.20073600 -0.19668100 0.18919200
v 0.20105700 -0.19700200 0.19384900
v 0.20105700 -0.19700200 0.19384900
v 0.19822200 -0.19416600 0.18058300
v 0.19822200 -0.19416600 0.18058300
v 0.19822200 -0.19416600 0.18058300
v 0.19820200 -0.19414900 0.20710800
v 0.19820200 -0.19414900 0.20710800
v 0.19610000 -0.19204800 0.21072300
v 0.19610000 -0.19204800 0.21072300
v 0.19610000 -0.19204800 0.21072300
v 0.19610000 -0.19204800 0.21072300
v 0.20073000 -0.19667500 0.19850600
v 0.20073000 -0.19667500 0.19850600
v 0.19977900 -0.19572300 0.18471200
v 0.19977900 -0.19572300 0.18471200
v 0.19976600 -0.19571200 0.20298300
v 0.19976600 -0.19571200 0.20298300
v 0.19656300 -0.19250900 0.19013400
v 0.19656300 -0.19250900 0.19013400
v 0.19458500 -0.19053300 0.20411600
v 0.19458500 -0.19053300 0.20411600
v 0.19681300 -0.19275900 0.19376900
v 0.19681300 -0.19275900 0.19376900
v 0.19460100 -0.19054600 0.18341600
v 0.19460100 -0.19054600 0.18341600
v 0.19460100 -0.19054600 0.18341600
v 0.19294500 -0.18889300 0.20693600
v 0.19294500 -0.18889300 0.20693600
v 0.19294500 -0.18889300 0.20693600
v 0.19655800 -0.19250400 0.19740300
v 0.19655800 -0.19250400 0.19740300
v 0.19581600 -0.19176100 0.18663800
v 0.19581600 -0.19176100 0.18663800
v 0.19580500 -0.19175200 0.20089700
v 0.19580500 -0.19175200 0.20089700
v 0.19106600 -0.19920200 0.16450800
v 0.19106600 -0.19920200 0.16450800
v 0.19106600 -0.19920200 0.16450800
v 0.18736700 -0.20290200 0.16450800
v 0.18736700 -0.20290200 0.16450800
v 0.18736700 -0.20290200 0.16450800
v 0.19512100 -0.20368700 0.16947400
v 0.19512100 -0.20368700 0.16947400
v 0.19512100 -0.20368700 0.16947400
v 0.19163700 -0.20717200 0.16947300
v 0.19163700 -0.20717200 0.16947300
v 0.19163700 -0.20717200 0.16947300
v 0.19807700 -0.20678600 0.17470200
v 0.19807700 -0.20678600 0.17470200
v 0.19466500 -0.21019900 0.17470100
v 0.19466500 -0.21019900 0.17470100
v 0.20021700 -0.20914200 0.18066500
v 0.20021700 -0.20914200 0.18066500
v 0.19691300 -0.21244700 0.18066400
v 0.19691300 -0.21244700 0.18066400
v 0.20149200 -0.21063300 0.18713300
v 0.20149200 -0.21063300 0.18713300
v 0.19829600 -0.21383000 0.18713300
v 0.19829600 -0.21383000 0.18713300
v 0.20184400 -0.21120800 0.19385900
v 0.20184400 -0.21120800 0.19385900
v 0.19875900 -0.21429400 0.19385900
v 0.19875900 -0.21429400 0.19385900
v 0.20113700 -0.21096900 0.20058400
v 0.20113700 -0.21096900 0.20058400
v 0.19828600 -0.21382200 0.20058300
v 0.19828600 -0.21382200 0.20058300
v 0.19957300 -0.20975100 0.20704900
v 0.19957300 -0.20975100 0.20704900
v 0.19689400 -0.21243000 0.20704800
v 0.19689400 -0.21243000 0.20704800
v 0.19731600 -0.20749400 0.21300500
v 0.19731600 -0.20749400 0.21300500
v 0.19463700 -0.21017400 0.21300500
v 0.19463700 -0.21017400 0.21300500
v 0.19419400 -0.20454600 0.21822500
v 0.19419400 -0.20454600 0.21822500
v 0.19419400 -0.20454600 0.21822500
v 0.19160100 -0.20714000 0.21822500
v 0.19160100 -0.20714000 0.21822500
v 0.19160100 -0.20714000 0.21822500
v 0.19032400 -0.20102300 0.22250700
v 0.19032400 -0.20102300 0.22250700
v 0.18790300 -0.20344400 0.22250700
v 0.18790300 -0.20344400 0.22250700
v 0.18599000 -0.19692400 0.22568700
v 0.18599000 -0.19692400 0.22568700
v 0.18368600 -0.19922800 0.22568600
v 0.18368600 -0.19922800 0.22568600
v 0.18348900 -0.19452800 0.22764500
v 0.18348900 -0.19452800 0.22764500
v 0.18348900 -0.19452800 0.22764500
v 0.18348900 -0.19452800 0.22764500
v 0.18123800 -0.19678000 0.22764500
v 0.18123800 -0.19678000 0.22764500
v 0.18123800 -0.19678000 0.22764500
v 0.18085700 -0.19639500 0.17177900
v 0.18085700 -0.19639500 0.17177900
v 0.18085700 -0.19639500 0.17177900
v 0.18377400 -0.19931200 0.17398900
v 0.18377400 -0.19931200 0.17398900
v 0.18633000 -0.20186700 0.17696200
v 0.18633000 -0.20186700 0.17696200
v 0.18633000 -0.20186700 0.17696200
v 0.18842700 -0.20396400 0.18058200
v 0.18842700 -0.20396400 0.18058200
v 0.18998400 -0.20552100 0.18471100
v 0.18998400 -0.20552100 0.18471100
v 0.19094200 -0.20647800 0.18919100
v 0.19094200 -0.20647800 0.18919100
v 0.19126300 -0.20680000 0.19384900
v 0.19126300 -0.20680000 0.19384900
v 0.19093500 -0.20647200 0.19850500
v 0.19093500 -0.20647200 0.19850500
v 0.18997100 -0.20550900 0.20298200
v 0.18997100 -0.20550900 0.20298200
v 0.18840800 -0.20394700 0.20710700
v 0.18840800 -0.20394700 0.20710700
v 0.18630500 -0.20184500 0.21072200
v 0.18630500 -0.20184500 0.21072200
v 0.18630500 -0.20184500 0.21072200
v 0.18374500 -0.19928600 0.21368700
v 0.18374500 -0.19928600 0.21368700
v 0.18082500 -0.19636600 0.21588900
v 0.18082500 -0.19636600 0.21588900
v 0.17765700 -0.19319900 0.21724300
v 0.17765700 -0.19319900 0.21724300
v 0.17765700 -0.19319900 0.21724300
v 0.25746100 -0.26192500 0.08143800
v 0.25746100 -0.26192500 0.08143800
v 0.24946300 -0.25250400 0.00391400
v 0.24946300 -0.25250400 0.00391400
v 0.24946300 -0.25250400 0.00391400
v 0.25899500 -0.26266100 0.05237200
v 0.25899500 -0.26266100 0.05237200
v 0.25621800 -0.25942000 0.02690600
v 0.25621800 -0.25942000 0.02690600
v 0.25126600 -0.25692200 0.11455300
v 0.25126600 -0.25692200 0.11455300
v 0.24240900 -0.24917200 0.14045400
v 0.24240900 -0.24917200 0.14045400
v 0.23113700 -0.23906000 0.16477500
v 0.23113700 -0.23906000 0.16477500
v 0.21781800 -0.22685700 0.18638900
v 0.21781800 -0.22685700 0.18638900
v 0.20137800 -0.21233000 0.22737700
v 0.20137800 -0.21233000 0.22737700
v 0.20137800 -0.21233000 0.22737700
v 0.18885500 -0.20030400 0.23592200
v 0.18885500 -0.20030400 0.23592200
v 0.18885500 -0.20030400 0.23592200
v 0.18345000 -0.19456300 0.23073200
v 0.18345000 -0.19456300 0.23073200
v 0.18345000 -0.19456300 0.23073200
v 0.24881600 -0.25201500 0.02844300
v 0.24881600 -0.25201500 0.02844300
v 0.24694100 -0.25055500 0.05180200
v 0.24694100 -0.25055500 0.05180200
v 0.24189700 -0.24620300 0.07671500
v 0.24189700 -0.24620300 0.07671500
v 0.23227400 -0.23759800 0.10356900
v 0.23227400 -0.23759800 0.10356900
v 0.21916700 -0.22570800 0.12908800
v 0.21916700 -0.22570800 0.12908800
v 0.20627800 -0.21387500 0.14784800
v 0.20627800 -0.21387500 0.14784800
v 0.20627800 -0.21387500 0.14784800
v 0.19731400 -0.20556400 0.15816400
v 0.19731400 -0.20556400 0.15816400
v 0.19462900 -0.19563800 0.16450900
v 0.18849700 -0.18951500 0.23073200
v 0.18849700 -0.18951500 0.23073200
v 0.24992500 -0.25090700 0.02844300
v 0.24825500 -0.24924000 0.05180200
v 0.24529300 -0.24628700 0.14045500
v 0.25359900 -0.25458800 0.11455400
v 0.24355600 -0.24454400 0.07671500
v 0.23459900 -0.23559700 0.16477500
v 0.23443900 -0.23543200 0.10356900
v 0.22183500 -0.22283900 0.18638900
v 0.22193800 -0.22293700 0.12908900
v 0.20634700 -0.20735900 0.22737700
v 0.20634700 -0.20735900 0.22737700
v 0.25920100 -0.26018500 0.08143800
v 0.20957400 -0.21057800 0.14784900
v 0.20957400 -0.21057800 0.14784900
v 0.19407100 -0.19508700 0.23592200
v 0.19407100 -0.19508700 0.23592200
v 0.26033800 -0.26131900 0.05237300
v 0.20093500 -0.20194200 0.15816400
v 0.25732900 -0.25830900 0.02690600
v 0.25049400 -0.25147300 0.00391400
v 0.25049400 -0.25147300 0.00391400
v 0.18849900 -0.18951700 0.22764500
v 0.18849900 -0.18951700 0.22764500
v 0.18491800 -0.18593600 0.21724400
v 0.18491800 -0.18593600 0.21724400
v 0.18811900 -0.18913100 0.17178000
v 0.18811900 -0.18913100 0.17178000
v 0.19103600 -0.19204800 0.17399000
v 0.19359200 -0.19460300 0.17696200
v 0.19359200 -0.19460300 0.17696200
v 0.19568900 -0.19670000 0.18058300
v 0.19568900 -0.19670000 0.18058300
v 0.19356700 -0.19458200 0.21072200
v 0.19356700 -0.19458200 0.21072200
v 0.19100700 -0.19202200 0.21368800
v 0.18808600 -0.18910300 0.21589000
v 0.19567100 -0.20174800 0.18919100
v 0.19567100 -0.20174800 0.18919100
v 0.19599200 -0.20206900 0.19384900
v 0.19599200 -0.20206900 0.19384900
v 0.19315600 -0.19923400 0.18058200
v 0.19315600 -0.19923400 0.18058200
v 0.19315600 -0.19923400 0.18058200
v 0.19313700 -0.19921600 0.20710800
v 0.19313700 -0.19921600 0.20710800
v 0.19103400 -0.19711500 0.21072200
v 0.19103400 -0.19711500 0.21072200
v 0.19103400 -0.19711500 0.21072200
v 0.19103400 -0.19711500 0.21072200
v 0.19566400 -0.20174200 0.19850600
v 0.19566400 -0.20174200 0.19850600
v 0.19471300 -0.20079100 0.18471200
v 0.19471300 -0.20079100 0.18471200
v 0.19470000 -0.20077900 0.20298300
v 0.19470000 -0.20077900 0.20298300
v 0.19328300 -0.19429500 0.18663800
v 0.19206800 -0.19308000 0.18341600
v 0.19206800 -0.19308000 0.18341600
v 0.19403000 -0.19504200 0.19013400
v 0.19428000 -0.19529300 0.19376900
v 0.19402500 -0.19503800 0.19740300
v 0.19327200 -0.19428600 0.20089600
v 0.19205200 -0.19306700 0.20411500
v 0.19041200 -0.19142700 0.20693600
v 0.19041200 -0.19142700 0.20693600
v 0.19149700 -0.19757600 0.19013400
v 0.19149700 -0.19757600 0.19013400
v 0.18952000 -0.19560000 0.20411500
v 0.18952000 -0.19560000 0.20411500
v 0.19174800 -0.19782700 0.19376800
v 0.19174800 -0.19782700 0.19376800
v 0.18953500 -0.19561400 0.18341500
v 0.18953500 -0.19561400 0.18341500
v 0.18953500 -0.19561400 0.18341500
v 0.18787900 -0.19396000 0.20693600
v 0.18787900 -0.19396000 0.20693600
v 0.18787900 -0.19396000 0.20693600
v 0.19149200 -0.19757100 0.19740200
v 0.19149200 -0.19757100 0.19740200
v 0.19075000 -0.19682900 0.18663800
v 0.19075000 -0.19682900 0.18663800
v 0.19073900 -0.19681900 0.20089600
v 0.19073900 -0.19681900 0.20089600
vn 0.44920000 -0.44900000 -0.77240000
vn 0.70590000 0.70800000 -0.02230000
vn -0.42900000 0.42890000 -0.79500000
vn 0.70700000 0.70720000 0.00010000
vn 0.44920000 -0.44900000 -0.77240000
vn -0.43840000 0.43830000 -0.78470000
vn 0.49980000 -0.49950000 -0.70760000
vn 0.49980000 -0.49950000 -0.70760000
vn 0.70590000 0.70800000 -0.02230000
vn 0.50060000 -0.50040000 -0.70640000
vn 0.70700000 0.70720000 0.00010000
vn 0.50060000 -0.50040000 -0.70640000
vn 0.70590000 0.70800000 -0.02230000
vn 0.58800000 -0.58780000 -0.55570000
vn 0.58840000 -0.58820000 -0.55480000
vn 0.70700000 0.70720000 0.00010000
vn 0.70590000 0.70800000 -0.02230000
vn 0.65330000 -0.65310000 -0.38310000
vn 0.65370000 -0.65340000 -0.38180000
vn 0.70700000 0.70720000 0.00010000
vn 0.70590000 0.70800000 -0.02230000
vn 0.69360000 -0.69340000 -0.19550000
vn 0.70700000 0.70720000 0.00010000
vn 0.69380000 -0.69360000 -0.19410000
vn 0.70640000 0.70720000 -0.02910000
vn 0.70720000 -0.70700000 -0.00130000
vn 0.70700000 0.70720000 0.00010000
vn 0.70720000 -0.70700000 0.00100000
vn 0.70680000 0.70670000 -0.03380000
vn 0.69380000 -0.69370000 0.19350000
vn 0.70700000 0.70720000 0.00010000
vn 0.69350000 -0.69330000 0.19610000
vn 0.65340000 -0.65320000 0.38260000
vn 0.70680000 0.70670000 -0.03380000
vn 0.70700000 0.70720000 0.00010000
vn 0.65310000 -0.65290000 0.38360000
vn 0.58780000 -0.58770000 0.55590000
vn 0.70680000 0.70670000 -0.03380000
vn 0.58760000 -0.58750000 0.55640000
vn 0.70700000 0.70720000 0.00010000
vn 0.50040000 -0.50030000 0.70660000
vn 0.50040000 -0.50030000 0.70660000
vn 0.70680000 0.70670000 -0.03380000
vn 0.49950000 -0.49950000 0.70780000
vn 0.70700000 0.70720000 0.00010000
vn 0.49950000 -0.49950000 0.70780000
vn 0.39340000 -0.39340000 0.83100000
vn 0.70690000 0.70630000 -0.03620000
vn 0.70700000 0.70720000 0.00010000
vn 0.39230000 -0.39230000 0.83200000
vn 0.70700000 0.70620000 -0.03720000
vn 0.34030000 -0.34030000 0.87650000
vn 0.70700000 0.70720000 0.00010000
vn 0.34050000 -0.34040000 0.87650000
vn -0.70720000 0.70700000 -0.00100000
vn -0.63590000 0.63560000 0.43780000
vn 0.34810000 -0.34810000 0.87040000
vn 0.70700000 0.70620000 -0.03720000
vn -0.63590000 0.63560000 0.43780000
vn 0.70700000 0.70720000 0.00010000
vn 0.34810000 -0.34810000 0.87040000
vn 0.70700000 0.70720000 0.00010000
vn -0.43840000 0.43830000 -0.78470000
vn -0.33400000 0.33390000 0.88150000
vn -0.39350000 0.39330000 0.83090000
vn 0.70700000 0.70720000 0.00010000
vn -0.50060000 0.50040000 0.70640000
vn -0.50060000 0.50040000 0.70640000
vn 0.70700000 0.70720000 0.00010000
vn 0.70700000 0.70720000 0.00010000
vn -0.58840000 0.58820000 0.55480000
vn 0.70700000 0.70720000 0.00010000
vn -0.65370000 0.65340000 0.38180000
vn -0.69380000 0.69360000 0.19410000
vn 0.70700000 0.70720000 0.00010000
vn 0.70700000 0.70720000 0.00010000
vn -0.70720000 0.70700000 -0.00100000
vn 0.70700000 0.70720000 0.00010000
vn -0.69350000 0.69330000 -0.19600000
vn 0.70700000 0.70720000 0.00010000
vn -0.65310000 0.65290000 -0.38360000
vn 0.70700000 0.70720000 0.00010000
vn -0.58760000 0.58750000 -0.55640000
vn 0.70700000 0.70720000 0.00010000
vn -0.49950000 0.49950000 -0.70780000
vn -0.49950000 0.49950000 -0.70780000
vn 0.70700000 0.70720000 0.00010000
vn -0.39230000 0.39230000 -0.83200000
vn -0.27000000 0.27000000 -0.92430000
vn 0.70700000 0.70720000 0.00010000
vn -0.63590000 0.63560000 0.43780000
vn 0.70700000 0.70720000 0.00010000
vn -0.20460000 0.20460000 -0.95720000
vn 0.69970000 -0.69950000 0.14570000
vn 0.70680000 0.70710000 -0.02270000
vn -0.12830000 0.12840000 -0.98340000
vn -0.12830000 0.12840000 -0.98340000
vn 0.70630000 0.70790000 -0.00450000
vn 0.70580000 0.70820000 -0.01630000
vn 0.70620000 -0.70600000 -0.05410000
vn 0.70590000 0.70830000 -0.00890000
vn 0.67950000 -0.67920000 -0.27750000
vn 0.70860000 0.70500000 -0.02750000
vn 0.66860000 -0.66850000 0.32570000
vn 0.62330000 -0.62310000 0.47250000
vn 0.71060000 0.70300000 -0.03000000
vn 0.71220000 0.70130000 -0.03060000
vn 0.57260000 -0.57250000 0.58690000
vn 0.70930000 0.70430000 -0.02850000
vn 0.58710000 -0.58700000 0.55750000
vn 0.62370000 -0.62360000 0.47120000
vn 0.31230000 -0.31230000 0.89720000
vn 0.70680000 0.70650000 -0.03480000
vn 0.31230000 -0.31230000 0.89720000
vn -0.38900000 0.38880000 0.83520000
vn 0.70700000 0.70620000 -0.03720000
vn -0.38900000 0.38880000 0.83520000
vn -0.70720000 0.70700000 -0.00100000
vn 0.70700000 0.70620000 -0.03720000
vn 0.70590000 0.70830000 -0.00900000
vn -0.70560000 0.70540000 -0.06680000
vn 0.70580000 0.70820000 -0.01640000
vn -0.69560000 0.69540000 -0.18040000
vn -0.66300000 0.66290000 -0.34790000
vn 0.70680000 0.70700000 -0.02280000
vn 0.70870000 0.70500000 -0.02760000
vn -0.61090000 0.61080000 -0.50380000
vn -0.55020000 0.55010000 -0.62820000
vn 0.71090000 0.70270000 -0.03020000
vn -0.48710000 0.48700000 -0.72490000
vn 0.71250000 0.70110000 -0.03060000
vn -0.48710000 0.48700000 -0.72490000
vn 0.70910000 0.70460000 -0.02600000
vn -0.43330000 0.43330000 -0.79030000
vn 0.70700000 0.70720000 0.00010000
vn -0.69380000 0.69360000 0.19410000
vn -0.70720000 0.70700000 -0.00100000
vn 0.70700000 0.70720000 0.00010000
vn -0.34230000 0.34230000 -0.87500000
vn 0.70700000 0.70720000 0.00010000
vn -0.57520000 0.57500000 0.58180000
vn -0.58760000 0.58750000 -0.55640000
vn 0.70700000 0.70720000 0.00010000
vn -0.45760000 0.45740000 0.76250000
vn 0.70700000 0.70720000 0.00010000
vn -0.48290000 0.48280000 -0.73060000
vn -0.48290000 0.48280000 -0.73060000
vn -0.69350000 0.69330000 -0.19600000
vn 0.70700000 0.70720000 0.00010000
vn -0.65370000 0.65340000 0.38180000
vn 0.70700000 0.70720000 0.00010000
vn 0.70700000 0.70720000 0.00010000
vn -0.65310000 0.65290000 -0.38360000
vn 0.70700000 0.70720000 0.00010000
vn -0.69380000 0.69360000 0.19410000
vn 0.70700000 0.70720000 0.00010000
vn -0.58760000 0.58750000 -0.55640000
vn 0.70700000 0.70720000 0.00010000
vn -0.70720000 0.70700000 -0.00100000
vn -0.62400000 0.62380000 0.47050000
vn -0.34230000 0.34230000 -0.87500000
vn 0.70700000 0.70720000 0.00010000
vn -0.54620000 0.54610000 -0.63520000
vn 0.70700000 0.70720000 0.00010000
vn -0.45760000 0.45740000 0.76250000
vn 0.70700000 0.70720000 0.00010000
vn -0.69350000 0.69330000 -0.19600000
vn 0.70700000 0.70720000 0.00010000
vn -0.65370000 0.65340000 0.38180000
vn -0.65310000 0.65290000 -0.38360000
vn 0.70700000 0.70720000 0.00010000
vn 0.44920000 -0.44900000 -0.77240000
vn -0.42900000 0.42890000 -0.79500000
vn -0.70780000 -0.70610000 -0.02250000
vn -0.70700000 -0.70720000 -0.00010000
vn 0.44920000 -0.44900000 -0.77240000
vn -0.43840000 0.43830000 -0.78470000
vn 0.49980000 -0.49950000 -0.70760000
vn 0.49980000 -0.49950000 -0.70760000
vn -0.70780000 -0.70610000 -0.02250000
vn -0.70700000 -0.70720000 -0.00010000
vn 0.50060000 -0.50040000 -0.70640000
vn 0.50060000 -0.50040000 -0.70640000
vn -0.70780000 -0.70610000 -0.02250000
vn 0.58800000 -0.58780000 -0.55570000
vn 0.58840000 -0.58820000 -0.55480000
vn -0.70700000 -0.70720000 -0.00010000
vn -0.70780000 -0.70610000 -0.02250000
vn 0.65330000 -0.65310000 -0.38310000
vn 0.65370000 -0.65340000 -0.38180000
vn -0.70700000 -0.70720000 -0.00010000
vn 0.69360000 -0.69340000 -0.19550000
vn -0.70780000 -0.70610000 -0.02250000
vn -0.70700000 -0.70720000 -0.00010000
vn 0.69380000 -0.69350000 -0.19410000
vn 0.70720000 -0.70700000 -0.00130000
vn -0.70700000 -0.70660000 -0.02930000
vn -0.70700000 -0.70720000 -0.00010000
vn 0.70720000 -0.70700000 0.00100000
vn 0.69380000 -0.69370000 0.19350000
vn -0.70650000 -0.70690000 -0.03390000
vn -0.70700000 -0.70720000 -0.00010000
vn 0.69350000 -0.69330000 0.19610000
vn 0.65340000 -0.65320000 0.38260000
vn -0.70650000 -0.70690000 -0.03390000
vn -0.70700000 -0.70720000 -0.00010000
vn 0.65310000 -0.65290000 0.38360000
vn 0.58780000 -0.58770000 0.55590000
vn -0.70650000 -0.70690000 -0.03390000
vn -0.70700000 -0.70720000 -0.00010000
vn 0.58760000 -0.58750000 0.55640000
vn 0.50040000 -0.50030000 0.70660000
vn -0.70650000 -0.70690000 -0.03390000
vn 0.50040000 -0.50030000 0.70660000
vn -0.70700000 -0.70720000 -0.00010000
vn 0.49950000 -0.49950000 0.70780000
vn 0.49950000 -0.49950000 0.70780000
vn 0.39340000 -0.39340000 0.83100000
vn -0.70610000 -0.70710000 -0.03630000
vn -0.70700000 -0.70720000 -0.00010000
vn 0.39230000 -0.39230000 0.83200000
vn -0.70600000 -0.70720000 -0.03730000
vn 0.34030000 -0.34030000 0.87650000
vn -0.70700000 -0.70720000 -0.00010000
vn 0.34050000 -0.34040000 0.87650000
vn -0.63590000 0.63560000 0.43770000
vn -0.70600000 -0.70720000 -0.03730000
vn -0.70720000 0.70700000 -0.00100000
vn 0.34810000 -0.34810000 0.87040000
vn 0.34810000 -0.34810000 0.87040000
vn -0.63590000 0.63560000 0.43770000
vn -0.70700000 -0.70720000 -0.00010000
vn -0.33400000 0.33380000 0.88150000
vn -0.70700000 -0.70720000 -0.00010000
vn -0.43840000 0.43830000 -0.78470000
vn -0.39350000 0.39330000 0.83090000
vn -0.70700000 -0.70720000 -0.00010000
vn -0.50060000 0.50040000 0.70640000
vn -0.50060000 0.50040000 0.70640000
vn -0.70700000 -0.70720000 -0.00010000
vn -0.58840000 0.58820000 0.55480000
vn -0.70700000 -0.70720000 -0.00010000
vn -0.65370000 0.65340000 0.38180000
vn -0.70700000 -0.70720000 -0.00010000
vn -0.69380000 0.69360000 0.19410000
vn -0.70700000 -0.70720000 -0.00010000
vn -0.70700000 -0.70720000 -0.00010000
vn -0.70720000 0.70700000 -0.00100000
vn -0.70700000 -0.70720000 -0.00010000
vn -0.69350000 0.69330000 -0.19600000
vn -0.65310000 0.65290000 -0.38360000
vn -0.70700000 -0.70720000 -0.00010000
vn -0.58760000 0.58750000 -0.55640000
vn -0.70700000 -0.70720000 -0.00010000
vn -0.49950000 0.49950000 -0.70780000
vn -0.49950000 0.49950000 -0.70780000
vn -0.70700000 -0.70720000 -0.00010000
vn -0.39230000 0.39230000 -0.83200000
vn -0.70700000 -0.70720000 -0.00010000
vn -0.27000000 0.27000000 -0.92430000
vn -0.70700000 -0.70720000 -0.00010000
vn -0.70700000 -0.70720000 -0.00010000
vn -0.20460000 0.20460000 -0.95720000
vn -0.63590000 0.63570000 0.43780000
vn -0.70690000 -0.70700000 -0.02280000
vn 0.69970000 -0.69950000 0.14570000
vn -0.12830000 0.12840000 -0.98340000
vn -0.70770000 -0.70650000 -0.00460000
vn -0.12830000 0.12840000 -0.98340000
vn 0.70620000 -0.70600000 -0.05410000
vn -0.70800000 -0.70600000 -0.01640000
vn -0.70810000 -0.70610000 -0.00900000
vn 0.67940000 -0.67920000 -0.27750000
vn 0.66860000 -0.66850000 0.32570000
vn -0.70480000 -0.70880000 -0.02760000
vn -0.70280000 -0.71080000 -0.03010000
vn 0.62330000 -0.62310000 0.47250000
vn 0.57260000 -0.57250000 0.58690000
vn -0.70110000 -0.71240000 -0.03080000
vn -0.70410000 -0.70950000 -0.02870000
vn 0.58710000 -0.58700000 0.55750000
vn 0.62380000 -0.62360000 0.47120000
vn -0.70630000 -0.70700000 -0.03490000
vn 0.31230000 -0.31230000 0.89720000
vn -0.38900000 0.38880000 0.83520000
vn -0.70600000 -0.70720000 -0.03730000
vn 0.31230000 -0.31230000 0.89720000
vn -0.70720000 0.70700000 -0.00100000
vn -0.70600000 -0.70720000 -0.03730000
vn -0.38900000 0.38880000 0.83520000
vn -0.70810000 -0.70610000 -0.00920000
vn -0.70560000 0.70540000 -0.06680000
vn -0.70800000 -0.70600000 -0.01650000
vn -0.69560000 0.69540000 -0.18040000
vn -0.66300000 0.66290000 -0.34790000
vn -0.70680000 -0.70700000 -0.02290000
vn -0.70480000 -0.70890000 -0.02770000
vn -0.61090000 0.61080000 -0.50370000
vn -0.70250000 -0.71110000 -0.03040000
vn -0.55020000 0.55010000 -0.62820000
vn -0.48710000 0.48700000 -0.72490000
vn -0.48710000 0.48700000 -0.72490000
vn -0.70090000 -0.71260000 -0.03070000
vn -0.43330000 0.43330000 -0.79030000
vn -0.70440000 -0.70930000 -0.02610000
vn -0.42430000 0.42420000 -0.80000000
vn -0.70720000 0.70700000 -0.00100000
vn -0.38900000 0.38880000 0.83520000
vn -0.70560000 0.70540000 -0.06660000
vn -0.69570000 0.69550000 -0.17960000
vn 0.62370000 -0.62350000 0.47150000
vn 0.66900000 -0.66880000 0.32420000
vn -0.66330000 0.66320000 -0.34670000
vn 0.57310000 -0.57300000 0.58590000
vn -0.61140000 0.61120000 -0.50260000
vn 0.58640000 -0.58630000 0.55900000
vn -0.55080000 0.55070000 -0.62720000
vn 0.31230000 -0.31230000 0.89720000
vn 0.62380000 -0.62360000 0.47120000
vn 0.69980000 -0.69960000 0.14450000
vn -0.48770000 0.48760000 -0.72420000
vn -0.48770000 0.48760000 -0.72420000
vn 0.31230000 -0.31230000 0.89720000
vn -0.38900000 0.38880000 0.83520000
vn 0.70610000 -0.70590000 -0.05520000
vn -0.43350000 0.43340000 -0.79010000
vn 0.67930000 -0.67910000 -0.27810000
vn -0.12840000 0.12850000 -0.98340000
vn -0.12840000 0.12850000 -0.98340000
vn -0.63590000 0.63570000 0.43780000
vn -0.70720000 0.70700000 -0.00100000
vn -0.20460000 0.20460000 -0.95720000
vn -0.63590000 0.63570000 0.43780000
vn -0.43840000 0.43830000 -0.78470000
vn -0.33400000 0.33390000 0.88150000
vn -0.39350000 0.39330000 0.83090000
vn -0.50060000 0.50040000 0.70640000
vn -0.50060000 0.50040000 0.70640000
vn -0.34230000 0.34230000 -0.87500000
vn -0.54710000 0.54690000 0.63360000
vn -0.45760000 0.45740000 0.76250000
vn -0.44810000 0.44800000 -0.77360000
vn -0.39230000 0.39230000 -0.83200000
vn -0.27000000 0.27000000 -0.92430000
vn -0.69380000 0.69360000 0.19410000
vn -0.70700000 -0.70720000 -0.00010000
vn -0.70700000 -0.70720000 -0.00010000
vn -0.70720000 0.70700000 -0.00100000
vn -0.57520000 0.57500000 0.58180000
vn -0.34230000 0.34230000 -0.87500000
vn -0.70700000 -0.70720000 -0.00010000
vn -0.70700000 -0.70720000 -0.00010000
vn -0.58760000 0.58750000 -0.55640000
vn -0.45760000 0.45740000 0.76250000
vn -0.48290000 0.48280000 -0.73060000
vn -0.48290000 0.48280000 -0.73060000
vn -0.70700000 -0.70720000 -0.00010000
vn -0.70700000 -0.70720000 -0.00010000
vn -0.69350000 0.69330000 -0.19600000
vn -0.65370000 0.65340000 0.38180000
vn -0.70700000 -0.70720000 -0.00010000
vn -0.70700000 -0.70720000 -0.00010000
vn -0.65310000 0.65290000 -0.38360000
vn -0.65370000 0.65340000 0.38180000
vn -0.34230000 0.34230000 -0.87500000
vn -0.62400000 0.62380000 0.47050000
vn -0.69380000 0.69350000 0.19410000
vn -0.70720000 0.70700000 -0.00100000
vn -0.69350000 0.69330000 -0.19600000
vn -0.65310000 0.65290000 -0.38360000
vn -0.58760000 0.58750000 -0.55640000
vn -0.54620000 0.54610000 -0.63520000
vn -0.45760000 0.45740000 0.76250000
vn -0.69380000 0.69350000 0.19410000
vn -0.70700000 -0.70720000 -0.00010000
vn -0.58760000 0.58750000 -0.55640000
vn -0.70700000 -0.70720000 -0.00010000
vn -0.70700000 -0.70720000 -0.00010000
vn -0.70720000 0.70700000 -0.00100000
vn -0.62400000 0.62380000 0.47050000
vn -0.70700000 -0.70720000 -0.00010000
vn -0.34230000 0.34230000 -0.87500000
vn -0.45760000 0.45740000 0.76250000
vn -0.70700000 -0.70720000 -0.00010000
vn -0.54620000 0.54610000 -0.63520000
vn -0.69350000 0.69330000 -0.19600000
vn -0.70700000 -0.70720000 -0.00010000
vn -0.70700000 -0.70720000 -0.00010000
vn -0.65370000 0.65340000 0.38180000
vn -0.65310000 0.65290000 -0.38360000
vn -0.70700000 -0.70720000 -0.00010000
vt 0.89509300 0.81157400
vt 0.06236700 0.35599100
vt 0.89509300 0.81157400
vt 0.02834600 0.59985400
vt 0.90021800 0.81157400
vt 0.90021800 0.81157400
vt 0.68470700 0.79422600
vt 0.89539100 0.81748100
vt 0.05491500 0.35773600
vt 0.68953400 0.79423500
vt 0.02197900 0.60409800
vt 0.90021800 0.81748100
vt 0.04889100 0.36047200
vt 0.68480600 0.79927300
vt 0.68953400 0.79928200
vt 0.01729800 0.60876900
vt 0.04351900 0.36432700
vt 0.68495200 0.80505400
vt 0.68953000 0.80506200
vt 0.01362100 0.61426000
vt 0.03900400 0.36915400
vt 0.68509400 0.81134700
vt 0.01108700 0.62036200
vt 0.68952300 0.81135600
vt 0.03552000 0.37476700
vt 0.68523700 0.81791100
vt 0.00979600 0.62684000
vt 0.68951200 0.81791900
vt 0.03320300 0.38094900
vt 0.68554700 0.82449400
vt 0.00979600 0.63344500
vt 0.68949800 0.82450200
vt 0.68577000 0.83084200
vt 0.03213900 0.38746500
vt 0.01108700 0.63992200
vt 0.68948200 0.83084900
vt 0.68575200 0.83671100
vt 0.03236800 0.39406600
vt 0.68946400 0.83671800
vt 0.01362100 0.64602500
vt 0.68585200 0.84187600
vt 0.96318600 0.22158000
vt 0.03388400 0.40049400
vt 0.96677800 0.22158000
vt 0.01729800 0.65151600
vt 0.68944500 0.84188300
vt 0.96342500 0.22668600
vt 0.03663000 0.40650300
vt 0.02197900 0.65618700
vt 0.96677800 0.22668600
vt 0.04049700 0.41186300
vt 0.96358600 0.23251200
vt 0.02748300 0.65985700
vt 0.96677800 0.23251200
vt 0.49048000 0.91993400
vt 0.49048000 0.91993400
vt 0.96365800 0.23589400
vt 0.04269300 0.41507400
vt 0.49048000 0.91682100
vt 0.03066800 0.66209600
vt 0.96677800 0.23589400
vt 0.03661300 0.60781700
vt 0.90021800 0.80258400
vt 0.15432800 0.41320200
vt 0.15837100 0.41320200
vt 0.03237800 0.60956700
vt 0.71055900 0.84736100
vt 0.16191500 0.41320200
vt 0.02856700 0.61210800
vt 0.02532500 0.61534100
vt 0.71055200 0.85093800
vt 0.02277800 0.61914400
vt 0.71054700 0.85500200
vt 0.71054400 0.85939700
vt 0.02102400 0.62337000
vt 0.02013000 0.62785600
vt 0.71054300 0.86395600
vt 0.02013000 0.63243000
vt 0.71054400 0.86850100
vt 0.02102400 0.63691500
vt 0.71054700 0.87285900
vt 0.02277800 0.64114100
vt 0.71055200 0.87686200
vt 0.02532500 0.64494400
vt 0.71055900 0.88035700
vt 0.80077700 0.39084600
vt 0.02856700 0.64817900
vt 0.80432100 0.39084600
vt 0.80836400 0.39084600
vt 0.03237800 0.65072000
vt 0.50073300 0.91683200
vt 0.03661300 0.65247000
vt 0.81275100 0.39084600
vt 0.50214500 0.51775100
vt 0.01802400 0.24377000
vt 0.68122500 0.51965900
vt 0.50113200 0.44216500
vt 0.06236700 0.18111300
vt 0.02917700 0.21759500
vt 0.50159700 0.48932000
vt 0.04392800 0.19710300
vt 0.50126600 0.46449400
vt 0.01067000 0.27621800
vt 0.50295100 0.55023300
vt 0.50369000 0.57572100
vt 0.00979600 0.30399100
vt 0.01257500 0.33183500
vt 0.50445800 0.59971400
vt 0.01909700 0.35856800
vt 0.50518800 0.62110400
vt 0.50646100 0.66148700
vt 0.93837500 0.41121300
vt 0.02062800 0.40394700
vt 0.93871600 0.42817200
vt 0.93871600 0.42817200
vt 0.03219200 0.41892900
vt 0.93848300 0.43588100
vt 0.48745600 0.91988400
vt 0.04136200 0.41778100
vt 0.05246500 0.20296900
vt 0.68111900 0.54362300
vt 0.04443900 0.22446800
vt 0.68084000 0.56642400
vt 0.68037800 0.59068800
vt 0.03950900 0.24917700
vt 0.03923100 0.27828100
vt 0.67970600 0.61676800
vt 0.67890600 0.64148300
vt 0.04373700 0.30827900
vt 0.89472400 0.83221400
vt 0.05099500 0.33226600
vt 0.67821700 0.65959400
vt 0.05727400 0.34657900
vt 0.89517400 0.82028400
vt 0.93582400 0.67041200
vt 0.71709600 0.85939800
vt 0.71709500 0.86395600
vt 0.93493000 0.67489800
vt 0.82525900 0.48789700
vt 0.94012500 0.66238400
vt 0.71710400 0.85093800
vt 0.71710400 0.87686300
vt 0.93757800 0.68818300
vt 0.94631100 0.89666900
vt 0.94012500 0.69198700
vt 0.71711100 0.88035700
vt 0.80077700 0.38430800
vt 0.71709600 0.86850100
vt 0.93493000 0.67947200
vt 0.71709900 0.85500200
vt 0.93757800 0.66618700
vt 0.93582400 0.68395800
vt 0.71709900 0.87285900
vt 0.94148500 0.67190000
vt 0.39924700 0.89274400
vt 0.94285400 0.68576800
vt 0.39925000 0.90637300
vt 0.94078700 0.67540100
vt 0.39924600 0.89630100
vt 0.39925500 0.88614200
vt 0.83027200 0.48789700
vt 0.94484200 0.66563500
vt 0.39925500 0.90910000
vt 0.94484200 0.68873600
vt 0.94193700 0.89666900
vt 0.94078700 0.67897000
vt 0.39924600 0.89984800
vt 0.94285400 0.66860200
vt 0.39925000 0.88931400
vt 0.39924700 0.90324900
vt 0.94148500 0.68247100
vt 0.88522100 0.81157400
vt 0.88522100 0.81157400
vt 0.13453100 0.24404800
vt 0.43467100 0.60089200
vt 0.88009500 0.81157400
vt 0.88009500 0.81157400
vt 0.92234500 0.85176300
vt 0.88492200 0.81748100
vt 0.12707800 0.24230300
vt 0.44103900 0.60513700
vt 0.88009500 0.81748100
vt 0.91751900 0.85176300
vt 0.12105400 0.23956700
vt 0.92225500 0.85680900
vt 0.91752800 0.85680900
vt 0.44571900 0.60980800
vt 0.11568100 0.23571200
vt 0.92211300 0.86259000
vt 0.91753500 0.86259000
vt 0.44939700 0.61529900
vt 0.92196800 0.86888300
vt 0.11116600 0.23088400
vt 0.45193000 0.62140100
vt 0.91754000 0.86888300
vt 0.92181600 0.87544700
vt 0.10768200 0.22527100
vt 0.45322200 0.62787900
vt 0.91754100 0.87544700
vt 0.92149100 0.88202900
vt 0.10536400 0.21909000
vt 0.45322200 0.63448400
vt 0.91754000 0.88202900
vt 0.92124800 0.88837700
vt 0.10429900 0.21257400
vt 0.45193000 0.64096200
vt 0.91753600 0.88837700
vt 0.92124100 0.89424500
vt 0.10452900 0.20597300
vt 0.44939700 0.64706400
vt 0.91752900 0.89424500
vt 0.91045400 0.30656200
vt 0.10604500 0.19954500
vt 0.92111300 0.89941000
vt 0.44572000 0.65255500
vt 0.91752000 0.89941000
vt 0.91404600 0.30656200
vt 0.91069300 0.30145600
vt 0.10879000 0.19353800
vt 0.44103900 0.65722600
vt 0.91404600 0.30145600
vt 0.11265700 0.18817900
vt 0.91085500 0.29563100
vt 0.43553400 0.66089500
vt 0.91404600 0.29563100
vt 0.49048000 0.93378700
vt 0.11485400 0.18496800
vt 0.49048000 0.93378700
vt 0.91092700 0.29224900
vt 0.91404600 0.29224900
vt 0.49048000 0.93690000
vt 0.43235000 0.66313400
vt 0.15432800 0.39312300
vt 0.42640400 0.60885500
vt 0.88009500 0.80258400
vt 0.15837100 0.39312300
vt 0.43064000 0.61060500
vt 0.16191500 0.39312300
vt 0.73068100 0.84736200
vt 0.43445100 0.61314600
vt 0.73067500 0.85093800
vt 0.43769300 0.61638000
vt 0.73067000 0.85500300
vt 0.44023900 0.62018300
vt 0.73066700 0.85939800
vt 0.44199400 0.62440900
vt 0.44288800 0.62889500
vt 0.73066600 0.86395600
vt 0.44288800 0.63346800
vt 0.73066700 0.86850200
vt 0.73067000 0.87286000
vt 0.44199400 0.63795400
vt 0.73067500 0.87686300
vt 0.44023900 0.64218000
vt 0.73068100 0.88035800
vt 0.80077700 0.37076700
vt 0.43769300 0.64598300
vt 0.80432100 0.37076700
vt 0.43445100 0.64921700
vt 0.80836400 0.37076700
vt 0.43064000 0.65175800
vt 0.42640400 0.65350800
vt 0.81275100 0.37076700
vt 0.50073300 0.93691100
vt 0.09018800 0.35625800
vt 0.49732500 0.51775100
vt 0.49827800 0.44216500
vt 0.13453100 0.41891700
vt 0.68408000 0.51965900
vt 0.49787800 0.48932000
vt 0.10134200 0.38243300
vt 0.11609300 0.40292500
vt 0.49818800 0.46449400
vt 0.49648600 0.55023300
vt 0.08283300 0.32381100
vt 0.08195800 0.29604000
vt 0.49569700 0.57572100
vt 0.49486500 0.59971400
vt 0.08473700 0.26819800
vt 0.09125700 0.24146700
vt 0.49405700 0.62110400
vt 0.49269200 0.66148700
vt 0.09278700 0.19609200
vt 0.92460600 0.41121300
vt 0.92426400 0.42817200
vt 0.10435100 0.18111300
vt 0.92426400 0.42817200
vt 0.48745600 0.93383800
vt 0.11352200 0.18226100
vt 0.92449800 0.43588100
vt 0.12463100 0.39706100
vt 0.68419000 0.54362300
vt 0.11660500 0.37556100
vt 0.68448200 0.56642400
vt 0.68497400 0.59068800
vt 0.11167400 0.35085300
vt 0.11139600 0.32175100
vt 0.68570400 0.61676800
vt 0.11590100 0.29175600
vt 0.68658300 0.64148300
vt 0.88559000 0.83221400
vt 0.68735000 0.65959400
vt 0.12315800 0.26777100
vt 0.88514000 0.82028400
vt 0.12943700 0.25346000
vt 0.89015700 0.81157400
vt 0.48745600 0.92686100
vt 0.93149000 0.43588100
vt 0.68265500 0.54362300
vt 0.68266100 0.56642400
vt 0.49969400 0.57572100
vt 0.49971800 0.55023300
vt 0.68267600 0.59068800
vt 0.49966100 0.59971400
vt 0.68270500 0.61676800
vt 0.49962300 0.62110400
vt 0.68274500 0.64148300
vt 0.93149000 0.41121300
vt 0.49957600 0.66148700
vt 0.49973500 0.51775100
vt 0.68278300 0.65959400
vt 0.89015700 0.83221400
vt 0.93149000 0.42817200
vt 0.93149000 0.42817200
vt 0.49973700 0.48932000
vt 0.89015700 0.82028400
vt 0.49972700 0.46449400
vt 0.49970500 0.44216500
vt 0.68265200 0.51965900
vt 0.49048000 0.92686100
vt 0.49048000 0.92686100
vt 0.81275100 0.38080700
vt 0.50073300 0.92687100
vt 0.89015700 0.80258400
vt 0.15432800 0.40316200
vt 0.15837100 0.40316200
vt 0.16191500 0.40316200
vt 0.72062000 0.84736200
vt 0.82525900 0.48439500
vt 0.72061300 0.85093800
vt 0.94631100 0.89316800
vt 0.80077700 0.38080700
vt 0.80432100 0.38080700
vt 0.80836400 0.38080700
vt 0.72411500 0.85939800
vt 0.01069000 0.93735800
vt 0.00979600 0.93287200
vt 0.72411400 0.86395600
vt 0.72412300 0.85093800
vt 0.82525900 0.48089300
vt 0.01499100 0.94538700
vt 0.01244400 0.91958700
vt 0.72412300 0.87686300
vt 0.94631100 0.88966600
vt 0.80077700 0.37730500
vt 0.72412900 0.88035700
vt 0.01499100 0.91578400
vt 0.00979600 0.92829900
vt 0.72411500 0.86850100
vt 0.72411800 0.85500200
vt 0.01244400 0.94158400
vt 0.01069000 0.92381300
vt 0.72411800 0.87285900
vt 0.40276000 0.88931500
vt 0.83027200 0.48439500
vt 0.40276400 0.88614300
vt 0.40275700 0.89274500
vt 0.40275500 0.89630200
vt 0.40275500 0.89984900
vt 0.40275700 0.90325000
vt 0.40276000 0.90637400
vt 0.40276400 0.90910100
vt 0.94193700 0.89316800
vt 0.40626600 0.89274600
vt 0.01635100 0.93587100
vt 0.40626900 0.90637500
vt 0.01772000 0.92200300
vt 0.01565300 0.93237000
vt 0.40626400 0.89630300
vt 0.40627400 0.88614400
vt 0.01970800 0.94213600
vt 0.83027200 0.48089300
vt 0.94193700 0.88966600
vt 0.01970800 0.91903500
vt 0.40627400 0.90910200
vt 0.40626400 0.89985000
vt 0.01565300 0.92880100
vt 0.01772000 0.93916800
vt 0.40626900 0.88931600
vt 0.40626600 0.90325100
vt 0.01635100 0.92530000
f 1/1/1 5/5/5 12/12/12
f 12/12/12 8/8/8 1/1/1
f 7/7/7 10/10/10 15/15/15
f 15/15/15 14/14/14 7/7/7
f 14/14/14 15/15/15 19/19/19
f 19/19/19 18/18/18 14/14/14
f 18/18/18 19/19/19 24/24/24
f 24/24/24 22/22/22 18/18/18
f 22/22/22 24/24/24 28/28/28
f 28/28/28 26/26/26 22/22/22
f 26/26/26 28/28/28 32/32/32
f 32/32/32 30/30/30 26/26/26
f 30/30/30 32/32/32 36/36/36
f 36/36/36 33/33/33 30/30/30
f 33/33/33 36/36/36 39/39/39
f 39/39/39 37/37/37 33/33/33
f 37/37/37 39/39/39 46/46/46
f 46/46/46 41/41/41 37/37/37
f 42/42/42 44/44/44 50/50/50
f 50/50/50 47/47/47 42/42/42
f 47/47/47 50/50/50 54/54/54
f 54/54/54 52/52/52 47/47/47
f 52/52/52 54/54/54 61/61/61
f 61/61/61 57/57/57 52/52/52
f 23/23/23 20/20/20 72/72/72
f 72/72/72 75/75/75 23/23/23
f 62/62/62 66/66/66 4/4/4
f 45/45/45 40/40/40 82/82/82
f 82/82/82 84/84/84 45/45/45
f 27/27/27 23/23/23 75/75/75
f 75/75/75 76/76/76 27/27/27
f 11/11/11 4/4/4 66/66/66
f 66/66/66 69/69/69 11/11/11
f 49/49/49 45/45/45 84/84/84
f 84/84/84 87/87/87 49/49/49
f 31/31/31 27/27/27 76/76/76
f 76/76/76 78/78/78 31/31/31
f 16/16/16 11/11/11 69/69/69
f 69/69/69 70/70/70 16/16/16
f 53/53/53 49/49/49 87/87/87
f 87/87/87 90/90/90 53/53/53
f 35/35/35 31/31/31 78/78/78
f 78/78/78 80/80/80 35/35/35
f 20/20/20 16/16/16 70/70/70
f 70/70/70 72/72/72 20/20/20
f 60/60/60 53/53/53 90/90/90
f 90/90/90 92/92/92 60/60/60
f 40/40/40 35/35/35 80/80/80
f 80/80/80 82/82/82 40/40/40
f 2/2/2 9/9/9 13/13/13
f 2/2/2 13/13/13 17/17/17
f 2/2/2 17/17/17 21/21/21
f 2/2/2 21/21/21 25/25/25
f 2/2/2 25/25/25 109/109/109
f 2/2/2 109/109/109 133/133/133
f 306/306/306 3/3/3 134/134/134
f 134/134/134 326/326/326 306/306/306
f 98/98/98 120/120/120 101/101/101
f 101/101/101 120/120/120 122/122/122
f 122/122/122 99/99/99 101/101/101
f 99/99/99 122/122/122 125/125/125
f 125/125/125 95/95/95 99/99/99
f 95/95/95 125/125/125 126/126/126
f 126/126/126 103/103/103 95/95/95
f 103/103/103 126/126/126 129/129/129
f 129/129/129 106/106/106 103/103/103
f 106/106/106 129/129/129 131/131/131
f 131/131/131 107/107/107 106/106/106
f 107/107/107 131/131/131 133/133/133
f 133/133/133 109/109/109 107/107/107
f 25/25/25 29/29/29 34/34/34
f 25/25/25 34/34/34 38/38/38
f 25/25/25 38/38/38 43/43/43
f 25/25/25 43/43/43 48/48/48
f 25/25/25 48/48/48 113/113/113
f 25/25/25 113/113/113 109/109/109
f 51/51/51 58/58/58 119/119/119
f 51/51/51 119/119/119 116/116/116
f 51/51/51 116/116/116 113/113/113
f 51/51/51 113/113/113 48/48/48
f 102/102/102 100/100/100 325/325/325
f 325/325/325 327/327/327 102/102/102
f 121/121/121 96/96/96 329/329/329
f 329/329/329 309/309/309 121/121/121
f 97/97/97 102/102/102 327/327/327
f 327/327/327 328/328/328 97/97/97
f 115/115/115 117/117/117 308/308/308
f 308/308/308 324/324/324 115/115/115
f 134/134/134 130/130/130 322/322/322
f 322/322/322 326/326/326 134/134/134
f 100/100/100 94/94/94 320/320/320
f 320/320/320 325/325/325 100/100/100
f 112/112/112 114/114/114 323/323/323
f 323/323/323 318/318/318 112/112/112
f 132/132/132 128/128/128 317/317/317
f 317/317/317 321/321/321 132/132/132
f 94/94/94 104/104/104 312/312/312
f 312/312/312 320/320/320 94/94/94
f 110/110/110 111/111/111 319/319/319
f 319/319/319 316/316/316 110/110/110
f 128/128/128 127/127/127 315/315/315
f 315/315/315 317/317/317 128/128/128
f 108/108/108 110/110/110 316/316/316
f 316/316/316 314/314/314 108/108/108
f 127/127/127 124/124/124 313/313/313
f 313/313/313 315/315/315 127/127/127
f 105/105/105 108/108/108 314/314/314
f 314/314/314 311/311/311 105/105/105
f 124/124/124 123/123/123 310/310/310
f 310/310/310 313/313/313 124/124/124
f 104/104/104 105/105/105 311/311/311
f 311/311/311 312/312/312 104/104/104
f 123/123/123 121/121/121 309/309/309
f 309/309/309 310/310/310 123/123/123
f 56/56/56 59/59/59 91/91/91
f 56/56/56 91/91/91 333/333/333
f 333/333/333 330/330/330 56/56/56
f 55/55/55 331/331/331 307/307/307
f 307/307/307 118/118/118 55/55/55
f 306/306/306 334/334/334 3/3/3
f 3/3/3 334/334/334 63/63/63
f 63/63/63 6/6/6 3/3/3
f 341/341/341 144/144/144 165/165/165
f 165/165/165 373/373/373 341/341/341
f 71/71/71 67/67/67 338/338/338
f 71/71/71 338/338/338 340/340/340
f 71/71/71 340/340/340 141/141/141
f 151/151/151 140/140/140 162/162/162
f 162/162/162 168/168/168 151/151/151
f 152/152/152 149/149/149 166/166/166
f 166/166/166 171/171/171 152/152/152
f 139/139/139 339/339/339 365/365/365
f 365/365/365 161/161/161 139/139/139
f 88/88/88 86/86/86 147/147/147
f 88/88/88 147/147/147 342/342/342
f 88/88/88 342/342/342 343/343/343
f 135/135/135 151/151/151 168/168/168
f 168/168/168 154/154/154 135/135/135
f 143/143/143 152/152/152 171/171/171
f 171/171/171 156/156/156 143/143/143
f 89/89/89 88/88/88 343/343/343
f 343/343/343 344/344/344 89/89/89
f 68/68/68 65/65/65 336/336/336
f 336/336/336 337/337/337 68/68/68
f 138/138/138 135/135/135 154/154/154
f 154/154/154 158/158/158 138/138/138
f 65/65/65 64/64/64 335/335/335
f 335/335/335 336/336/336 65/65/65
f 93/93/93 89/89/89 344/344/344
f 344/344/344 332/332/332 93/93/93
f 83/83/83 81/81/81 153/153/153
f 153/153/153 142/142/142 83/83/83
f 74/74/74 73/73/73 150/150/150
f 150/150/150 136/136/136 74/74/74
f 81/81/81 79/79/79 148/148/148
f 148/148/148 153/153/153 81/81/81
f 73/73/73 71/71/71 141/141/141
f 141/141/141 150/150/150 73/73/73
f 79/79/79 77/77/77 137/137/137
f 137/137/137 148/148/148 79/79/79
f 85/85/85 83/83/83 142/142/142
f 142/142/142 146/146/146 85/85/85
f 77/77/77 74/74/74 136/136/136
f 136/136/136 137/137/137 77/77/77
f 159/159/159 155/155/155 367/367/367
f 367/367/367 368/368/368 159/159/159
f 163/163/163 157/157/157 371/371/371
f 371/371/371 372/372/372 163/163/163
f 167/167/167 159/159/159 368/368/368
f 368/368/368 369/369/369 167/167/167
f 169/169/169 160/160/160 366/366/366
f 366/366/366 364/364/364 169/169/169
f 170/170/170 167/167/167 369/369/369
f 369/369/369 370/370/370 170/170/170
f 155/155/155 169/169/169 364/364/364
f 364/364/364 367/367/367 155/155/155
f 157/157/157 170/170/170 370/370/370
f 370/370/370 371/371/371 157/157/157
f 149/149/149 138/138/138 158/158/158
f 158/158/158 166/166/166 149/149/149
f 145/145/145 143/143/143 156/156/156
f 156/156/156 164/164/164 145/145/145
f 172/172/172 179/179/179 182/182/182
f 182/182/182 176/176/176 172/172/172
f 178/178/178 185/185/185 186/186/186
f 186/186/186 183/183/183 178/178/178
f 185/185/185 189/189/189 190/190/190
f 190/190/190 186/186/186 185/185/185
f 189/189/189 192/192/192 195/195/195
f 195/195/195 190/190/190 189/189/189
f 192/192/192 196/196/196 199/199/199
f 199/199/199 195/195/195 192/192/192
f 196/196/196 200/200/200 203/203/203
f 203/203/203 199/199/199 196/196/196
f 200/200/200 204/204/204 207/207/207
f 207/207/207 203/203/203 200/200/200
f 204/204/204 208/208/208 211/211/211
f 211/211/211 207/207/207 204/204/204
f 208/208/208 214/214/214 216/216/216
f 216/216/216 211/211/211 208/208/208
f 212/212/212 218/218/218 221/221/221
f 221/221/221 217/217/217 212/212/212
f 218/218/218 223/223/223 225/225/225
f 225/225/225 221/221/221 218/218/218
f 223/223/223 229/229/229 230/230/230
f 230/230/230 225/225/225 223/223/223
f 194/194/194 246/246/246 244/244/244
f 244/244/244 191/191/191 194/194/194
f 234/234/234 175/175/175 237/237/237
f 215/215/215 257/257/257 254/254/254
f 254/254/254 210/210/210 215/215/215
f 198/198/198 247/247/247 246/246/246
f 246/246/246 194/194/194 198/198/198
f 181/181/181 240/240/240 237/237/237
f 237/237/237 175/175/175 181/181/181
f 220/220/220 259/259/259 257/257/257
f 257/257/257 215/215/215 220/220/220
f 202/202/202 249/249/249 247/247/247
f 247/247/247 198/198/198 202/202/202
f 187/187/187 242/242/242 240/240/240
f 240/240/240 181/181/181 187/187/187
f 224/224/224 261/261/261 259/259/259
f 259/259/259 220/220/220 224/224/224
f 206/206/206 252/252/252 249/249/249
f 249/249/249 202/202/202 206/206/206
f 191/191/191 244/244/244 242/242/242
f 242/242/242 187/187/187 191/191/191
f 232/232/232 262/262/262 261/261/261
f 261/261/261 224/224/224 232/232/232
f 210/210/210 254/254/254 252/252/252
f 252/252/252 206/206/206 210/210/210
f 174/174/174 305/305/305 280/280/280
f 174/174/174 280/280/280 197/197/197
f 174/174/174 197/197/197 193/193/193
f 174/174/174 193/193/193 188/188/188
f 174/174/174 188/188/188 184/184/184
f 174/174/174 184/184/184 180/180/180
f 306/306/306 326/326/326 304/304/304
f 304/304/304 173/173/173 306/306/306
f 268/268/268 272/272/272 291/291/291
f 272/272/272 271/271/271 293/293/293
f 293/293/293 291/291/291 272/272/272
f 271/271/271 265/265/265 296/296/296
f 296/296/296 293/293/293 271/271/271
f 265/265/265 275/275/275 297/297/297
f 297/297/297 296/296/296 265/265/265
f 275/275/275 276/276/276 299/299/299
f 299/299/299 297/297/297 275/275/275
f 276/276/276 279/279/279 303/303/303
f 303/303/303 299/299/299 276/276/276
f 279/279/279 280/280/280 305/305/305
f 305/305/305 303/303/303 279/279/279
f 197/197/197 280/280/280 283/283/283
f 197/197/197 283/283/283 219/219/219
f 197/197/197 219/219/219 213/213/213
f 197/197/197 213/213/213 209/209/209
f 197/197/197 209/209/209 205/205/205
f 197/197/197 205/205/205 201/201/201
f 222/222/222 219/219/219 283/283/283
f 222/222/222 283/283/283 286/286/286
f 222/222/222 286/286/286 289/289/289
f 222/222/222 289/289/289 227/227/227
f 273/273/273 327/327/327 325/325/325
f 325/325/325 270/270/270 273/273/273
f 292/292/292 309/309/309 329/329/329
f 329/329/329 269/269/269 292/292/292
f 267/267/267 328/328/328 327/327/327
f 327/327/327 273/273/273 267/267/267
f 285/285/285 324/324/324 308/308/308
f 308/308/308 290/290/290 285/285/285
f 304/304/304 326/326/326 322/322/322
f 322/322/322 301/301/301 304/304/304
f 270/270/270 325/325/325 320/320/320
f 320/320/320 266/266/266 270/270/270
f 284/284/284 318/318/318 323/323/323
f 323/323/323 287/287/287 284/284/284
f 302/302/302 321/321/321 317/317/317
f 317/317/317 300/300/300 302/302/302
f 266/266/266 320/320/320 312/312/312
f 312/312/312 274/274/274 266/266/266
f 281/281/281 316/316/316 319/319/319
f 319/319/319 282/282/282 281/281/281
f 300/300/300 317/317/317 315/315/315
f 315/315/315 298/298/298 300/300/300
f 278/278/278 314/314/314 316/316/316
f 316/316/316 281/281/281 278/278/278
f 298/298/298 315/315/315 313/313/313
f 313/313/313 295/295/295 298/298/298
f 277/277/277 311/311/311 314/314/314
f 314/314/314 278/278/278 277/277/277
f 295/295/295 313/313/313 310/310/310
f 310/310/310 294/294/294 295/295/295
f 274/274/274 312/312/312 311/311/311
f 311/311/311 277/277/277 274/274/274
f 294/294/294 310/310/310 309/309/309
f 309/309/309 292/292/292 294/294/294
f 226/226/226 264/264/264 231/231/231
f 226/226/226 330/330/330 333/333/333
f 333/333/333 264/264/264 226/226/226
f 228/228/228 288/288/288 307/307/307
f 307/307/307 331/331/331 228/228/228
f 306/306/306 173/173/173 334/334/334
f 173/173/173 177/177/177 235/235/235
f 235/235/235 334/334/334 173/173/173
f 341/341/341 373/373/373 383/383/383
f 383/383/383 354/354/354 341/341/341
f 241/241/241 349/349/349 340/340/340
f 241/241/241 340/340/340 338/338/338
f 241/241/241 338/338/338 239/239/239
f 361/361/361 388/388/388 381/381/381
f 381/381/381 351/351/351 361/361/361
f 362/362/362 391/391/391 387/387/387
f 387/387/387 358/358/358 362/362/362
f 350/350/350 382/382/382 365/365/365
f 365/365/365 339/339/339 350/350/350
f 258/258/258 343/343/343 342/342/342
f 258/258/258 342/342/342 355/355/355
f 258/258/258 355/355/355 256/256/256
f 346/346/346 375/375/375 388/388/388
f 388/388/388 361/361/361 346/346/346
f 352/352/352 377/377/377 391/391/391
f 391/391/391 362/362/362 352/352/352
f 260/260/260 344/344/344 343/343/343
f 343/343/343 258/258/258 260/260/260
f 238/238/238 337/337/337 336/336/336
f 336/336/336 236/236/236 238/238/238
f 347/347/347 378/378/378 375/375/375
f 375/375/375 346/346/346 347/347/347
f 236/236/236 336/336/336 335/335/335
f 335/335/335 233/233/233 236/236/236
f 263/263/263 332/332/332 344/344/344
f 344/344/344 260/260/260 263/263/263
f 253/253/253 353/353/353 363/363/363
f 363/363/363 251/251/251 253/253/253
f 245/245/245 345/345/345 360/360/360
f 360/360/360 243/243/243 245/245/245
f 251/251/251 363/363/363 359/359/359
f 359/359/359 250/250/250 251/251/251
f 243/243/243 360/360/360 349/349/349
f 349/349/349 241/241/241 243/243/243
f 250/250/250 359/359/359 348/348/348
f 348/348/348 248/248/248 250/250/250
f 255/255/255 356/356/356 353/353/353
f 353/353/353 253/253/253 255/255/255
f 248/248/248 348/348/348 345/345/345
f 345/345/345 245/245/245 248/248/248
f 379/379/379 368/368/368 367/367/367
f 367/367/367 374/374/374 379/379/379
f 385/385/385 372/372/372 371/371/371
f 371/371/371 376/376/376 385/385/385
f 386/386/386 369/369/369 368/368/368
f 368/368/368 379/379/379 386/386/386
f 389/389/389 364/364/364 366/366/366
f 366/366/366 380/380/380 389/389/389
f 390/390/390 370/370/370 369/369/369
f 369/369/369 386/386/386 390/390/390
f 374/374/374 367/367/367 364/364/364
f 364/364/364 389/389/389 374/374/374
f 376/376/376 371/371/371 370/370/370
f 370/370/370 390/390/390 376/376/376
f 358/358/358 387/387/387 378/378/378
f 378/378/378 347/347/347 358/358/358
f 357/357/357 384/384/384 377/377/377
f 377/377/377 352/352/352 357/357/357

