mtllib material.mtl
usemtl Leg.FL.002_MAT
v -0.19807600 0.19120900 0.16439600
v -0.19807600 0.19120900 0.16439600
v -0.19807600 0.19120900 0.16439600
v -0.20177600 0.18751000 0.16439600
v -0.20177600 0.18751000 0.16439600
v -0.20177600 0.18751000 0.16439600
v -0.20256100 0.19526400 0.16936200
v -0.20256100 0.19526400 0.16936200
v -0.20256100 0.19526400 0.16936200
v -0.20604600 0.19178000 0.16936100
v -0.20604600 0.19178000 0.16936100
v -0.20604600 0.19178000 0.16936100
v -0.20566000 0.19822000 0.17459000
v -0.20566000 0.19822000 0.17459000
v -0.20907300 0.19480800 0.17458900
v -0.20907300 0.19480800 0.17458900
v -0.20801700 0.20036100 0.18055200
v -0.20801700 0.20036100 0.18055200
v -0.21132200 0.19705700 0.18055200
v -0.21132200 0.19705700 0.18055200
v -0.20950700 0.20163600 0.18702100
v -0.20950700 0.20163600 0.18702100
v -0.21270400 0.19843900 0.18702100
v -0.21270400 0.19843900 0.18702100
v -0.21008200 0.20198800 0.19374700
v -0.21008200 0.20198800 0.19374700
v -0.21316800 0.19890300 0.19374700
v -0.21316800 0.19890300 0.19374700
v -0.20984300 0.20128100 0.20047200
v -0.20984300 0.20128100 0.20047200
v -0.21269600 0.19842900 0.20047100
v -0.21269600 0.19842900 0.20047100
v -0.20862500 0.19971600 0.20693600
v -0.20862500 0.19971600 0.20693600
v -0.21130500 0.19703700 0.20693600
v -0.21130500 0.19703700 0.20693600
v -0.20636900 0.19745900 0.21289300
v -0.20636900 0.19745900 0.21289300
v -0.20904800 0.19478000 0.21289300
v -0.20904800 0.19478000 0.21289300
v -0.20342000 0.19433700 0.21811300
v -0.20342000 0.19433700 0.21811300
v -0.20342000 0.19433700 0.21811300
v -0.20601400 0.19174400 0.21811200
v -0.20601400 0.19174400 0.21811200
v -0.20601400 0.19174400 0.21811200
v -0.19989700 0.19046700 0.22239500
v -0.19989700 0.19046700 0.22239500
v -0.20231800 0.18804700 0.22239400
v -0.20231800 0.18804700 0.22239400
v -0.19579800 0.18613300 0.22557400
v -0.19579800 0.18613300 0.22557400
v -0.19810200 0.18383000 0.22557400
v -0.19810200 0.18383000 0.22557400
v -0.19340200 0.18363300 0.22753300
v -0.19340200 0.18363300 0.22753300
v -0.19340200 0.18363300 0.22753300
v -0.19340200 0.18363300 0.22753300
v -0.19565500 0.18138100 0.22753200
v -0.19565500 0.18138100 0.22753200
v -0.19565500 0.18138100 0.22753200
v -0.19526900 0.18100100 0.17166700
v -0.19526900 0.18100100 0.17166700
v -0.19526900 0.18100100 0.17166700
v -0.19818600 0.18391800 0.17387700
v -0.19818600 0.18391800 0.17387700
v -0.20074100 0.18647400 0.17684900
v -0.20074100 0.18647400 0.17684900
v -0.20074100 0.18647400 0.17684900
v -0.20283800 0.18857100 0.18047000
v -0.20283800 0.18857100 0.18047000
v -0.20439500 0.19012800 0.18459900
v -0.20439500 0.19012800 0.18459900
v -0.20535200 0.19108500 0.18907900
v -0.20535200 0.19108500 0.18907900
v -0.20567400 0.19140600 0.19373600
v -0.20567400 0.19140600 0.19373600
v -0.20534600 0.19107800 0.19839300
v -0.20534600 0.19107800 0.19839300
v -0.20438300 0.19011400 0.20287000
v -0.20438300 0.19011400 0.20287000
v -0.20282100 0.18855100 0.20699500
v -0.20282100 0.18855100 0.20699500
v -0.20071900 0.18644900 0.21061000
v -0.20071900 0.18644900 0.21061000
v -0.20071900 0.18644900 0.21061000
v -0.19816000 0.18388800 0.21357500
v -0.19816000 0.18388800 0.21357500
v -0.19524100 0.18096800 0.21577700
v -0.19524100 0.18096800 0.21577700
v -0.19207400 0.17780000 0.21713100
v -0.19207400 0.17780000 0.21713100
v -0.19207400 0.17780000 0.21713100
v -0.26079900 0.25760500 0.08132600
v -0.26079900 0.25760500 0.08132600
v -0.25137800 0.24960700 0.00380100
v -0.25137800 0.24960700 0.00380100
v -0.25137800 0.24960700 0.00380100
v -0.26153500 0.25913900 0.05226000
v -0.26153500 0.25913900 0.05226000
v -0.25829400 0.25636100 0.02679400
v -0.25829400 0.25636100 0.02679400
v -0.25579600 0.25140900 0.11444100
v -0.25579600 0.25140900 0.11444100
v -0.24804600 0.24255200 0.14034200
v -0.24804600 0.24255200 0.14034200
v -0.23793400 0.23128000 0.16466300
v -0.23793400 0.23128000 0.16466300
v -0.22573100 0.21796100 0.18627600
v -0.22573100 0.21796100 0.18627600
v -0.21120400 0.20152200 0.22726400
v -0.21120400 0.20152200 0.22726400
v -0.21120400 0.20152200 0.22726400
v -0.19917800 0.18899900 0.23581000
v -0.19917800 0.18899900 0.23581000
v -0.19917800 0.18899900 0.23581000
v -0.19343700 0.18359400 0.23062000
v -0.19343700 0.18359400 0.23062000
v -0.19343700 0.18359400 0.23062000
v -0.25088900 0.24896000 0.02833100
v -0.25088900 0.24896000 0.02833100
v -0.24942900 0.24708400 0.05169000
v -0.24942900 0.24708400 0.05169000
v -0.24507700 0.24204000 0.07660300
v -0.24507700 0.24204000 0.07660300
v -0.23647200 0.23241800 0.10345600
v -0.23647200 0.23241800 0.10345600
v -0.22458200 0.21931000 0.12897600
v -0.22458200 0.21931000 0.12897600
v -0.21274900 0.20642100 0.14773600
v -0.21274900 0.20642100 0.14773600
v -0.21274900 0.20642100 0.14773600
v -0.20443800 0.19745700 0.15805200
v -0.20443800 0.19745700 0.15805200
v -0.20062200 0.19581400 0.18907900
v -0.20062200 0.19581400 0.18907900
v -0.20094300 0.19613500 0.19373700
v -0.20094300 0.19613500 0.19373700
v -0.19810800 0.19330000 0.18047000
v -0.19810800 0.19330000 0.18047000
v -0.19810800 0.19330000 0.18047000
v -0.19809100 0.19328000 0.20699500
v -0.19809100 0.19328000 0.20699500
v -0.19598900 0.19117800 0.21061000
v -0.19598900 0.19117800 0.21061000
v -0.19598900 0.19117800 0.21061000
v -0.19598900 0.19117800 0.21061000
v -0.20061600 0.19580700 0.19839400
v -0.20061600 0.19580700 0.19839400
v -0.19966500 0.19485700 0.18460000
v -0.19966500 0.19485700 0.18460000
v -0.19965300 0.19484300 0.20287000
v -0.19965300 0.19484300 0.20287000
v -0.19645000 0.19164000 0.19002100
v -0.19645000 0.19164000 0.19002100
v -0.19447400 0.18966300 0.20400300
v -0.19447400 0.18966300 0.20400300
v -0.19670100 0.19189100 0.19365600
v -0.19670100 0.19189100 0.19365600
v -0.19448800 0.18967800 0.18330300
v -0.19448800 0.18967800 0.18330300
v -0.19448800 0.18967800 0.18330300
v -0.19283400 0.18802200 0.20682400
v -0.19283400 0.18802200 0.20682400
v -0.19283400 0.18802200 0.20682400
v -0.19644500 0.19163500 0.19729000
v -0.19644500 0.19163500 0.19729000
v -0.19570300 0.19089300 0.18652600
v -0.19570300 0.19089300 0.18652600
v -0.19569300 0.19088300 0.20078400
v -0.19569300 0.19088300 0.20078400
v -0.19094900 0.19833500 0.16439700
v -0.19094900 0.19833500 0.16439700
v -0.19094900 0.19833500 0.16439700
v -0.18724900 0.20203400 0.16439700
v -0.18724900 0.20203400 0.16439700
v -0.18724900 0.20203400 0.16439700
v -0.19500300 0.20282000 0.16936200
v -0.19500300 0.20282000 0.16936200
v -0.19500300 0.20282000 0.16936200
v -0.19151800 0.20630400 0.16936300
v -0.19151800 0.20630400 0.16936300
v -0.19151800 0.20630400 0.16936300
v -0.19795800 0.20592000 0.17459000
v -0.19795800 0.20592000 0.17459000
v -0.19454600 0.20933200 0.17459100
v -0.19454600 0.20933200 0.17459100
v -0.20009900 0.20827600 0.18055300
v -0.20009900 0.20827600 0.18055300
v -0.19679400 0.21158000 0.18055400
v -0.19679400 0.21158000 0.18055400
v -0.20137400 0.20976600 0.18702200
v -0.20137400 0.20976600 0.18702200
v -0.19817700 0.21296300 0.18702200
v -0.19817700 0.21296300 0.18702200
v -0.20172700 0.21034100 0.19374800
v -0.20172700 0.21034100 0.19374800
v -0.19864100 0.21342600 0.19374800
v -0.19864100 0.21342600 0.19374800
v -0.20102000 0.21010100 0.20047200
v -0.20102000 0.21010100 0.20047200
v -0.19816800 0.21295300 0.20047300
v -0.19816800 0.21295300 0.20047300
v -0.19945700 0.20888200 0.20693700
v -0.19945700 0.20888200 0.20693700
v -0.19677700 0.21156100 0.20693800
v -0.19677700 0.21156100 0.20693800
v -0.19720100 0.20662400 0.21289400
v -0.19720100 0.20662400 0.21289400
v -0.19452100 0.20930300 0.21289400
v -0.19452100 0.20930300 0.21289400
v -0.19408000 0.20367500 0.21811400
v -0.19408000 0.20367500 0.21811400
v -0.19408000 0.20367500 0.21811400
v -0.19148600 0.20626800 0.21811400
v -0.19148600 0.20626800 0.21811400
v -0.19148600 0.20626800 0.21811400
v -0.19021100 0.20015000 0.22239600
v -0.19021100 0.20015000 0.22239600
v -0.18779000 0.20257000 0.22239600
v -0.18779000 0.20257000 0.22239600
v -0.18587900 0.19604900 0.22557500
v -0.18587900 0.19604900 0.22557500
v -0.18357500 0.19835300 0.22557600
v -0.18357500 0.19835300 0.22557600
v -0.18337900 0.19365300 0.22753400
v -0.18337900 0.19365300 0.22753400
v -0.18337900 0.19365300 0.22753400
v -0.18337900 0.19365300 0.22753400
v -0.18112700 0.19590500 0.22753400
v -0.18112700 0.19590500 0.22753400
v -0.18112700 0.19590500 0.22753400
v -0.18074100 0.19552400 0.17166800
v -0.18074100 0.19552400 0.17166800
v -0.18074100 0.19552400 0.17166800
v -0.18365800 0.19844100 0.17387800
v -0.18365800 0.19844100 0.17387800
v -0.18621400 0.20099700 0.17685100
v -0.18621400 0.20099700 0.17685100
v -0.18621400 0.20099700 0.17685100
v -0.18831000 0.20309400 0.18047100
v -0.18831000 0.20309400 0.18047100
v -0.18986700 0.20465100 0.18460100
v -0.18986700 0.20465100 0.18460100
v -0.19082500 0.20560900 0.18908000
v -0.19082500 0.20560900 0.18908000
v -0.19114600 0.20593000 0.19373800
v -0.19114600 0.20593000 0.19373800
v -0.19081900 0.20560200 0.19839400
v -0.19081900 0.20560200 0.19839400
v -0.18985500 0.20463800 0.20287100
v -0.18985500 0.20463800 0.20287100
v -0.18829300 0.20307500 0.20699600
v -0.18829300 0.20307500 0.20699600
v -0.18619200 0.20097200 0.21061100
v -0.18619200 0.20097200 0.21061100
v -0.18619200 0.20097200 0.21061100
v -0.18363200 0.19841200 0.21357600
v -0.18363200 0.19841200 0.21357600
v -0.18071300 0.19549200 0.21577800
v -0.18071300 0.19549200 0.21577800
v -0.17754600 0.19232400 0.21713200
v -0.17754600 0.19232400 0.21713200
v -0.17754600 0.19232400 0.21713200
v -0.25731900 0.26108300 0.08132600
v -0.25731900 0.26108300 0.08132600
v -0.24931700 0.25166700 0.00380100
v -0.24931700 0.25166700 0.00380100
v -0.24931700 0.25166700 0.00380100
v -0.25885000 0.26182300 0.05226000
v -0.25885000 0.26182300 0.05226000
v -0.25607100 0.25858300 0.02679400
v -0.25607100 0.25858300 0.02679400
v -0.25112800 0.25607500 0.11444200
v -0.25112800 0.25607500 0.11444200
v -0.24227500 0.24832100 0.14034300
v -0.24227500 0.24832100 0.14034300
v -0.23100900 0.23820400 0.16466300
v -0.23100900 0.23820400 0.16466300
v -0.21769500 0.22599500 0.18627700
v -0.21769500 0.22599500 0.18627700
v -0.20126300 0.21145900 0.22726500
v -0.20126300 0.21145900 0.22726500
v -0.20126300 0.21145900 0.22726500
v -0.18874400 0.19942900 0.23581100
v -0.18874400 0.19942900 0.23581100
v -0.18874400 0.19942900 0.23581100
v -0.18334100 0.19368700 0.23062100
v -0.18334100 0.19368700 0.23062100
v -0.18334100 0.19368700 0.23062100
v -0.24867200 0.25117600 0.02833100
v -0.24867200 0.25117600 0.02833100
v -0.24679900 0.24971300 0.05169000
v -0.24679900 0.24971300 0.05169000
v -0.24175900 0.24535800 0.07660300
v -0.24175900 0.24535800 0.07660300
v -0.23214100 0.23674700 0.10345700
v -0.23214100 0.23674700 0.10345700
v -0.21903900 0.22485200 0.12897700
v -0.21903900 0.22485200 0.12897700
v -0.20615500 0.21301300 0.14773700
v -0.20615500 0.21301300 0.14773700
v -0.20615500 0.21301300 0.14773700
v -0.19719400 0.20469900 0.15805200
v -0.19719400 0.20469900 0.15805200
v -0.19451200 0.19477200 0.16439700
v -0.18838900 0.18864100 0.23062000
v -0.18838900 0.18864100 0.23062000
v -0.24978100 0.25006800 0.02833100
v -0.24811400 0.24839800 0.05169000
v -0.24516100 0.24543700 0.14034300
v -0.25346200 0.25374200 0.11444100
v -0.24341800 0.24369900 0.07660300
v -0.23447200 0.23474200 0.16466300
v -0.23430600 0.23458200 0.10345700
v -0.22171300 0.22197800 0.18627700
v -0.22181100 0.22208100 0.12897600
v -0.20623300 0.20649000 0.22726500
v -0.20623300 0.20649000 0.22726500
v -0.25905900 0.25934400 0.08132600
v -0.20945200 0.20971700 0.14773700
v -0.20945200 0.20971700 0.14773700
v -0.19396100 0.19421400 0.23581000
v -0.19396100 0.19421400 0.23581000
v -0.26019300 0.26048100 0.05226000
v -0.20081600 0.20107800 0.15805200
v -0.25718200 0.25747200 0.02679400
v -0.25034700 0.25063700 0.00380100
v -0.25034700 0.25063700 0.00380100
v -0.18839100 0.18864300 0.22753300
v -0.18839100 0.18864300 0.22753300
v -0.18481000 0.18506200 0.21713100
v -0.18481000 0.18506200 0.21713100
v -0.18800500 0.18826200 0.17166800
v -0.18800500 0.18826200 0.17166800
v -0.19092200 0.19117900 0.17387800
v -0.19347700 0.19373600 0.17685000
v -0.19347700 0.19373600 0.17685000
v -0.19557400 0.19583200 0.18047100
v -0.19557400 0.19583200 0.18047100
v -0.19345600 0.19371100 0.21061000
v -0.19345600 0.19371100 0.21061000
v -0.19089600 0.19115000 0.21357500
v -0.18797700 0.18823000 0.21577700
v -0.19555500 0.20088000 0.18908000
v -0.19555500 0.20088000 0.18908000
v -0.19587600 0.20120100 0.19373700
v -0.19587600 0.20120100 0.19373700
v -0.19304000 0.19836500 0.18047100
v -0.19304000 0.19836500 0.18047100
v -0.19304000 0.19836500 0.18047100
v -0.19302300 0.19834600 0.20699600
v -0.19302300 0.19834600 0.20699600
v -0.19092200 0.19624400 0.21061000
v -0.19092200 0.19624400 0.21061000
v -0.19092200 0.19624400 0.21061000
v -0.19092200 0.19624400 0.21061000
v -0.19554900 0.20087300 0.19839400
v -0.19554900 0.20087300 0.19839400
v -0.19459700 0.19992200 0.18460000
v -0.19459700 0.19992200 0.18460000
v -0.19458600 0.19990900 0.20287100
v -0.19458600 0.19990900 0.20287100
v -0.19316900 0.19342600 0.18652600
v -0.19195400 0.19221100 0.18330300
v -0.19195400 0.19221100 0.18330300
v -0.19391600 0.19417300 0.19002200
v -0.19416700 0.19442400 0.19365600
v -0.19391200 0.19416800 0.19729100
v -0.19316000 0.19341600 0.20078400
v -0.19194100 0.19219600 0.20400300
v -0.19030100 0.19055500 0.20682400
v -0.19030100 0.19055500 0.20682400
v -0.19138300 0.19670600 0.19002200
v -0.19138300 0.19670600 0.19002200
v -0.18940700 0.19472900 0.20400400
v -0.18940700 0.19472900 0.20400400
v -0.19163300 0.19695700 0.19365700
v -0.19163300 0.19695700 0.19365700
v -0.18942000 0.19474400 0.18330400
v -0.18942000 0.19474400 0.18330400
v -0.18942000 0.19474400 0.18330400
v -0.18776700 0.19308800 0.20682400
v -0.18776700 0.19308800 0.20682400
v -0.18776700 0.19308800 0.20682400
v -0.19137800 0.19670100 0.19729100
v -0.19137800 0.19670100 0.19729100
v -0.19063500 0.19595900 0.18652600
v -0.19063500 0.19595900 0.18652600
v -0.19062600 0.19594900 0.20078400
v -0.19062600 0.19594900 0.20078400
vn -0.44900000 0.44920000 -0.77240000
vn 0.42890000 -0.42900000 -0.79500000
vn -0.70610000 -0.70780000 -0.02250000
vn -0.70720000 -0.70700000 -0.00010000
vn 0.43830000 -0.43840000 -0.78470000
vn -0.44900000 0.44920000 -0.77240000
vn -0.49950000 0.49980000 -0.70760000
vn -0.49950000 0.49980000 -0.70760000
vn -0.70610000 -0.70780000 -0.02250000
vn -0.70720000 -0.70700000 -0.00010000
vn -0.50040000 0.50060000 -0.70640000
vn -0.50040000 0.50060000 -0.70640000
vn -0.58780000 0.58800000 -0.55570000
vn -0.70610000 -0.70780000 -0.02250000
vn -0.58820000 0.58840000 -0.55480000
vn -0.70720000 -0.70700000 -0.00010000
vn -0.70610000 -0.70780000 -0.02250000
vn -0.65310000 0.65330000 -0.38310000
vn -0.70720000 -0.70700000 -0.00010000
vn -0.65340000 0.65370000 -0.38180000
vn -0.69340000 0.69360000 -0.19550000
vn -0.70610000 -0.70780000 -0.02250000
vn -0.69360000 0.69380000 -0.19410000
vn -0.70720000 -0.70700000 -0.00010000
vn -0.70660000 -0.70700000 -0.02930000
vn -0.70700000 0.70720000 -0.00130000
vn -0.70720000 -0.70700000 -0.00010000
vn -0.70700000 0.70720000 0.00100000
vn -0.69370000 0.69380000 0.19350000
vn -0.70690000 -0.70650000 -0.03390000
vn -0.69330000 0.69350000 0.19610000
vn -0.70720000 -0.70700000 -0.00010000
vn -0.70690000 -0.70650000 -0.03390000
vn -0.65320000 0.65340000 0.38260000
vn -0.65290000 0.65310000 0.38360000
vn -0.70720000 -0.70700000 -0.00010000
vn -0.70690000 -0.70650000 -0.03390000
vn -0.58770000 0.58780000 0.55590000
vn -0.70720000 -0.70700000 -0.00010000
vn -0.58750000 0.58760000 0.55640000
vn -0.50030000 0.50040000 0.70660000
vn -0.50030000 0.50040000 0.70660000
vn -0.70690000 -0.70650000 -0.03390000
vn -0.49950000 0.49950000 0.70780000
vn -0.70720000 -0.70700000 -0.00010000
vn -0.49950000 0.49950000 0.70780000
vn -0.70710000 -0.70610000 -0.03630000
vn -0.39340000 0.39340000 0.83100000
vn -0.70720000 -0.70700000 -0.00010000
vn -0.39230000 0.39230000 0.83200000
vn -0.34030000 0.34040000 0.87650000
vn -0.70720000 -0.70600000 -0.03730000
vn -0.34040000 0.34050000 0.87650000
vn -0.70720000 -0.70700000 -0.00010000
vn 0.70700000 -0.70720000 -0.00100000
vn 0.63560000 -0.63590000 0.43780000
vn -0.70720000 -0.70600000 -0.03730000
vn -0.34810000 0.34810000 0.87040000
vn -0.34810000 0.34810000 0.87040000
vn 0.63570000 -0.63590000 0.43780000
vn -0.70720000 -0.70700000 -0.00010000
vn 0.43830000 -0.43840000 -0.78470000
vn 0.33390000 -0.33400000 0.88150000
vn -0.70720000 -0.70700000 -0.00010000
vn 0.39330000 -0.39350000 0.83090000
vn -0.70720000 -0.70700000 -0.00010000
vn 0.50040000 -0.50060000 0.70640000
vn -0.70720000 -0.70700000 -0.00010000
vn 0.50040000 -0.50060000 0.70640000
vn -0.70720000 -0.70700000 -0.00010000
vn 0.58820000 -0.58840000 0.55480000
vn 0.65340000 -0.65370000 0.38180000
vn -0.70720000 -0.70700000 -0.00010000
vn 0.69350000 -0.69380000 0.19410000
vn -0.70720000 -0.70700000 -0.00010000
vn 0.70700000 -0.70720000 -0.00100000
vn -0.70720000 -0.70700000 -0.00010000
vn -0.70720000 -0.70700000 -0.00010000
vn 0.69330000 -0.69350000 -0.19610000
vn 0.65290000 -0.65310000 -0.38360000
vn -0.70720000 -0.70700000 -0.00010000
vn -0.70720000 -0.70700000 -0.00010000
vn 0.58750000 -0.58760000 -0.55640000
vn 0.49950000 -0.49950000 -0.70780000
vn 0.49950000 -0.49950000 -0.70780000
vn -0.70720000 -0.70700000 -0.00010000
vn -0.70720000 -0.70700000 -0.00010000
vn 0.39230000 -0.39230000 -0.83200000
vn 0.27000000 -0.27000000 -0.92430000
vn -0.70720000 -0.70700000 -0.00010000
vn 0.20460000 -0.20460000 -0.95720000
vn 0.63560000 -0.63590000 0.43780000
vn -0.70720000 -0.70700000 -0.00010000
vn -0.69950000 0.69970000 0.14570000
vn -0.70700000 -0.70690000 -0.02280000
vn 0.12840000 -0.12830000 -0.98340000
vn -0.70650000 -0.70770000 -0.00460000
vn 0.12840000 -0.12830000 -0.98340000
vn -0.70600000 0.70620000 -0.05410000
vn -0.70600000 -0.70810000 -0.01640000
vn -0.70610000 -0.70810000 -0.00900000
vn -0.67920000 0.67950000 -0.27750000
vn -0.66850000 0.66860000 0.32570000
vn -0.70880000 -0.70480000 -0.02760000
vn -0.71080000 -0.70280000 -0.03010000
vn -0.62310000 0.62330000 0.47250000
vn -0.57250000 0.57260000 0.58690000
vn -0.71240000 -0.70110000 -0.03080000
vn -0.70950000 -0.70410000 -0.02870000
vn -0.58700000 0.58710000 0.55750000
vn -0.70700000 -0.70630000 -0.03490000
vn -0.31230000 0.31230000 0.89720000
vn -0.62360000 0.62380000 0.47120000
vn -0.31230000 0.31230000 0.89720000
vn -0.70720000 -0.70600000 -0.03730000
vn 0.38880000 -0.38900000 0.83520000
vn -0.70720000 -0.70600000 -0.03730000
vn 0.38880000 -0.38900000 0.83520000
vn 0.70700000 -0.70720000 -0.00100000
vn -0.70610000 -0.70810000 -0.00920000
vn 0.70540000 -0.70560000 -0.06680000
vn -0.70600000 -0.70800000 -0.01650000
vn 0.69540000 -0.69560000 -0.18040000
vn -0.70700000 -0.70680000 -0.02290000
vn 0.66290000 -0.66300000 -0.34790000
vn 0.61080000 -0.61090000 -0.50370000
vn -0.70890000 -0.70480000 -0.02770000
vn 0.55010000 -0.55020000 -0.62820000
vn -0.71110000 -0.70250000 -0.03040000
vn 0.48700000 -0.48710000 -0.72490000
vn -0.71260000 -0.70090000 -0.03070000
vn 0.48700000 -0.48710000 -0.72490000
vn -0.70930000 -0.70440000 -0.02610000
vn 0.43330000 -0.43330000 -0.79030000
vn -0.70720000 -0.70700000 -0.00010000
vn 0.69350000 -0.69380000 0.19410000
vn 0.70700000 -0.70720000 -0.00100000
vn -0.70720000 -0.70700000 -0.00010000
vn 0.57500000 -0.57520000 0.58180000
vn 0.34230000 -0.34230000 -0.87500000
vn -0.70720000 -0.70700000 -0.00010000
vn 0.58750000 -0.58760000 -0.55640000
vn -0.70720000 -0.70700000 -0.00010000
vn 0.48280000 -0.48290000 -0.73060000
vn 0.45740000 -0.45760000 0.76250000
vn 0.48280000 -0.48290000 -0.73060000
vn -0.70720000 -0.70700000 -0.00010000
vn 0.69330000 -0.69350000 -0.19610000
vn -0.70720000 -0.70700000 -0.00010000
vn -0.70720000 -0.70700000 -0.00010000
vn 0.65340000 -0.65370000 0.38180000
vn 0.65290000 -0.65310000 -0.38360000
vn -0.70720000 -0.70700000 -0.00010000
vn 0.69360000 -0.69380000 0.19410000
vn -0.70720000 -0.70700000 -0.00010000
vn 0.58750000 -0.58760000 -0.55640000
vn -0.70720000 -0.70700000 -0.00010000
vn -0.70720000 -0.70700000 -0.00010000
vn 0.70700000 -0.70720000 -0.00100000
vn 0.62380000 -0.62400000 0.47050000
vn 0.34230000 -0.34230000 -0.87500000
vn -0.70720000 -0.70700000 -0.00010000
vn 0.54610000 -0.54620000 -0.63520000
vn -0.70720000 -0.70700000 -0.00010000
vn 0.45740000 -0.45760000 0.76250000
vn 0.69330000 -0.69350000 -0.19610000
vn -0.70720000 -0.70700000 -0.00010000
vn 0.65340000 -0.65370000 0.38180000
vn -0.70720000 -0.70700000 -0.00010000
vn -0.70720000 -0.70700000 -0.00010000
vn 0.65290000 -0.65310000 -0.38360000
vn -0.44900000 0.44920000 -0.77240000
vn 0.70800000 0.70590000 -0.02230000
vn 0.42890000 -0.42900000 -0.79500000
vn -0.44900000 0.44920000 -0.77240000
vn 0.70720000 0.70700000 0.00010000
vn 0.43830000 -0.43840000 -0.78470000
vn -0.49950000 0.49980000 -0.70760000
vn 0.70800000 0.70590000 -0.02230000
vn -0.49950000 0.49980000 -0.70760000
vn -0.50040000 0.50060000 -0.70640000
vn -0.50040000 0.50060000 -0.70640000
vn 0.70720000 0.70700000 0.00010000
vn 0.70800000 0.70590000 -0.02230000
vn -0.58780000 0.58800000 -0.55570000
vn 0.70720000 0.70700000 0.00010000
vn -0.58820000 0.58840000 -0.55480000
vn 0.70800000 0.70590000 -0.02230000
vn -0.65310000 0.65330000 -0.38310000
vn -0.65340000 0.65370000 -0.38180000
vn 0.70720000 0.70700000 0.00010000
vn 0.70800000 0.70590000 -0.02230000
vn -0.69340000 0.69360000 -0.19550000
vn 0.70720000 0.70700000 0.00010000
vn -0.69350000 0.69380000 -0.19410000
vn -0.70700000 0.70720000 -0.00130000
vn 0.70720000 0.70640000 -0.02910000
vn -0.70700000 0.70720000 0.00100000
vn 0.70720000 0.70700000 0.00010000
vn -0.69370000 0.69380000 0.19350000
vn 0.70660000 0.70680000 -0.03380000
vn 0.70720000 0.70700000 0.00010000
vn -0.69330000 0.69350000 0.19600000
vn 0.70660000 0.70680000 -0.03380000
vn -0.65320000 0.65340000 0.38260000
vn 0.70720000 0.70700000 0.00010000
vn -0.65290000 0.65310000 0.38360000
vn -0.58770000 0.58780000 0.55590000
vn 0.70660000 0.70680000 -0.03380000
vn -0.58750000 0.58760000 0.55640000
vn 0.70720000 0.70700000 0.00010000
vn 0.70660000 0.70680000 -0.03380000
vn -0.50030000 0.50040000 0.70660000
vn -0.50030000 0.50040000 0.70660000
vn 0.70720000 0.70700000 0.00010000
vn -0.49950000 0.49950000 0.70780000
vn -0.49950000 0.49950000 0.70780000
vn -0.39340000 0.39340000 0.83100000
vn 0.70630000 0.70690000 -0.03620000
vn -0.39230000 0.39230000 0.83200000
vn 0.70720000 0.70700000 0.00010000
vn -0.34030000 0.34040000 0.87650000
vn 0.70620000 0.70700000 -0.03720000
vn 0.70720000 0.70700000 0.00010000
vn -0.34040000 0.34050000 0.87650000
vn 0.70620000 0.70700000 -0.03720000
vn -0.34810000 0.34810000 0.87040000
vn 0.70700000 -0.70720000 -0.00100000
vn 0.63560000 -0.63590000 0.43780000
vn -0.34810000 0.34810000 0.87040000
vn 0.70720000 0.70700000 0.00010000
vn 0.63570000 -0.63590000 0.43780000
vn 0.70720000 0.70700000 0.00010000
vn 0.43830000 -0.43840000 -0.78470000
vn 0.33390000 -0.33400000 0.88150000
vn 0.70720000 0.70700000 0.00010000
vn 0.39330000 -0.39350000 0.83090000
vn 0.50040000 -0.50060000 0.70640000
vn 0.50040000 -0.50060000 0.70640000
vn 0.70720000 0.70700000 0.00010000
vn 0.58820000 -0.58840000 0.55480000
vn 0.70720000 0.70700000 0.00010000
vn 0.70720000 0.70700000 0.00010000
vn 0.65340000 -0.65370000 0.38180000
vn 0.70720000 0.70700000 0.00010000
vn 0.69350000 -0.69380000 0.19410000
vn 0.70700000 -0.70720000 -0.00100000
vn 0.70720000 0.70700000 0.00010000
vn 0.69330000 -0.69350000 -0.19610000
vn 0.70720000 0.70700000 0.00010000
vn 0.65290000 -0.65310000 -0.38360000
vn 0.70720000 0.70700000 0.00010000
vn 0.58750000 -0.58760000 -0.55640000
vn 0.70720000 0.70700000 0.00010000
vn 0.70720000 0.70700000 0.00010000
vn 0.49950000 -0.49950000 -0.70780000
vn 0.49950000 -0.49950000 -0.70780000
vn 0.39230000 -0.39230000 -0.83200000
vn 0.70720000 0.70700000 0.00010000
vn 0.70720000 0.70700000 0.00010000
vn 0.27000000 -0.27000000 -0.92430000
vn 0.63560000 -0.63590000 0.43780000
vn 0.20460000 -0.20460000 -0.95720000
vn 0.70720000 0.70700000 0.00010000
vn -0.69950000 0.69970000 0.14570000
vn 0.70710000 0.70680000 -0.02270000
vn 0.12840000 -0.12830000 -0.98340000
vn 0.70790000 0.70630000 -0.00450000
vn 0.12840000 -0.12830000 -0.98340000
vn -0.70600000 0.70620000 -0.05410000
vn 0.70820000 0.70580000 -0.01630000
vn 0.70830000 0.70590000 -0.00890000
vn -0.67920000 0.67950000 -0.27750000
vn 0.70500000 0.70860000 -0.02750000
vn -0.66850000 0.66860000 0.32570000
vn 0.70300000 0.71060000 -0.03000000
vn -0.62310000 0.62330000 0.47250000
vn -0.57250000 0.57260000 0.58690000
vn 0.70130000 0.71220000 -0.03060000
vn -0.58700000 0.58710000 0.55750000
vn 0.70430000 0.70930000 -0.02850000
vn 0.70650000 0.70680000 -0.03480000
vn -0.31230000 0.31230000 0.89720000
vn -0.62360000 0.62380000 0.47120000
vn 0.70620000 0.70700000 -0.03720000
vn 0.38880000 -0.38900000 0.83520000
vn -0.31230000 0.31230000 0.89720000
vn 0.70700000 -0.70720000 -0.00100000
vn 0.38880000 -0.38900000 0.83520000
vn 0.70620000 0.70700000 -0.03720000
vn 0.70830000 0.70590000 -0.00900000
vn 0.70540000 -0.70560000 -0.06680000
vn 0.69540000 -0.69560000 -0.18040000
vn 0.70820000 0.70580000 -0.01640000
vn 0.66290000 -0.66300000 -0.34790000
vn 0.70700000 0.70680000 -0.02280000
vn 0.61080000 -0.61090000 -0.50370000
vn 0.70500000 0.70870000 -0.02760000
vn 0.70270000 0.71090000 -0.03020000
vn 0.55010000 -0.55020000 -0.62820000
vn 0.70110000 0.71250000 -0.03060000
vn 0.48700000 -0.48710000 -0.72490000
vn 0.48700000 -0.48710000 -0.72490000
vn 0.43330000 -0.43330000 -0.79030000
vn 0.70460000 0.70910000 -0.02600000
vn 0.42420000 -0.42430000 -0.80000000
vn 0.38880000 -0.38900000 0.83520000
vn 0.70700000 -0.70720000 -0.00100000
vn 0.70540000 -0.70560000 -0.06660000
vn 0.69550000 -0.69570000 -0.17960000
vn -0.62350000 0.62370000 0.47150000
vn -0.66880000 0.66900000 0.32420000
vn 0.66320000 -0.66330000 -0.34670000
vn -0.57300000 0.57310000 0.58590000
vn 0.61120000 -0.61140000 -0.50260000
vn -0.58630000 0.58640000 0.55900000
vn 0.55070000 -0.55080000 -0.62720000
vn -0.62360000 0.62380000 0.47120000
vn -0.31230000 0.31230000 0.89720000
vn -0.69960000 0.69980000 0.14440000
vn 0.48760000 -0.48770000 -0.72420000
vn 0.48760000 -0.48770000 -0.72420000
vn 0.38880000 -0.38900000 0.83520000
vn -0.31230000 0.31230000 0.89720000
vn -0.70590000 0.70610000 -0.05520000
vn 0.43340000 -0.43350000 -0.79010000
vn -0.67910000 0.67930000 -0.27810000
vn 0.12850000 -0.12840000 -0.98340000
vn 0.12850000 -0.12840000 -0.98340000
vn 0.63560000 -0.63590000 0.43780000
vn 0.70700000 -0.70720000 -0.00100000
vn 0.20460000 -0.20460000 -0.95720000
vn 0.63560000 -0.63590000 0.43780000
vn 0.43830000 -0.43840000 -0.78470000
vn 0.33390000 -0.33400000 0.88150000
vn 0.39330000 -0.39350000 0.83090000
vn 0.50040000 -0.50060000 0.70640000
vn 0.50040000 -0.50060000 0.70640000
vn 0.54690000 -0.54710000 0.63360000
vn 0.34230000 -0.34230000 -0.87500000
vn 0.44800000 -0.44810000 -0.77360000
vn 0.45740000 -0.45760000 0.76250000
vn 0.39230000 -0.39230000 -0.83200000
vn 0.27000000 -0.27000000 -0.92430000
vn 0.69350000 -0.69380000 0.19410000
vn 0.70720000 0.70700000 0.00010000
vn 0.70720000 0.70700000 0.00010000
vn 0.70700000 -0.70720000 -0.00100000
vn 0.57500000 -0.57520000 0.58180000
vn 0.34230000 -0.34230000 -0.87500000
vn 0.70720000 0.70700000 0.00010000
vn 0.70720000 0.70700000 0.00010000
vn 0.58750000 -0.58760000 -0.55640000
vn 0.48280000 -0.48290000 -0.73060000
vn 0.48280000 -0.48290000 -0.73060000
vn 0.45740000 -0.45760000 0.76250000
vn 0.70720000 0.70700000 0.00010000
vn 0.70720000 0.70700000 0.00010000
vn 0.69330000 -0.69350000 -0.19610000
vn 0.65340000 -0.65370000 0.38180000
vn 0.70720000 0.70700000 0.00010000
vn 0.70720000 0.70700000 0.00010000
vn 0.65290000 -0.65310000 -0.38360000
vn 0.65340000 -0.65370000 0.38180000
vn 0.34230000 -0.34230000 -0.87500000
vn 0.62380000 -0.62400000 0.47050000
vn 0.69360000 -0.69380000 0.19410000
vn 0.70700000 -0.70720000 -0.00100000
vn 0.69330000 -0.69350000 -0.19610000
vn 0.65290000 -0.65310000 -0.38360000
vn 0.58750000 -0.58760000 -0.55640000
vn 0.45740000 -0.45760000 0.76250000
vn 0.54610000 -0.54620000 -0.63520000
vn 0.70720000 0.70700000 0.00010000
vn 0.69350000 -0.69380000 0.19410000
vn 0.58750000 -0.58760000 -0.55640000
vn 0.70720000 0.70700000 0.00010000
vn 0.70720000 0.70700000 0.00010000
vn 0.70700000 -0.70720000 -0.00100000
vn 0.62380000 -0.62400000 0.47050000
vn 0.70720000 0.70700000 0.00010000
vn 0.34230000 -0.34230000 -0.87500000
vn 0.45740000 -0.45760000 0.76250000
vn 0.70720000 0.70700000 0.00010000
vn 0.54610000 -0.54620000 -0.63520000
vn 0.69330000 -0.69350000 -0.19610000
vn 0.70720000 0.70700000 0.00010000
vn 0.70720000 0.70700000 0.00010000
vn 0.65340000 -0.65370000 0.38180000
vn 0.65290000 -0.65310000 -0.38360000
vn 0.70720000 0.70700000 0.00010000
vt 0.80020000 0.90703500
vt 0.80020000 0.90703500
vt 0.40093600 0.18465400
vt 0.59678900 0.19899700
vt 0.79507500 0.90703500
vt 0.79507500 0.90703500
vt 0.79990100 0.90112800
vt 0.90860200 0.15437500
vt 0.39348400 0.18639900
vt 0.59042100 0.20324100
vt 0.91342800 0.15438400
vt 0.79507500 0.90112800
vt 0.90870100 0.15942100
vt 0.38746000 0.18913400
vt 0.91342800 0.15943000
vt 0.58574000 0.20791100
vt 0.38208800 0.19298900
vt 0.90884700 0.16520200
vt 0.58206300 0.21340300
vt 0.91342500 0.16521100
vt 0.90898800 0.17149600
vt 0.37757300 0.19781600
vt 0.91341700 0.17150400
vt 0.57952900 0.21950500
vt 0.37409000 0.20343000
vt 0.90913200 0.17806000
vt 0.57823800 0.22598300
vt 0.91340600 0.17806800
vt 0.90944200 0.18464300
vt 0.37177200 0.20961200
vt 0.91339300 0.18465000
vt 0.57823800 0.23258800
vt 0.37070800 0.21612800
vt 0.90966400 0.19099100
vt 0.91337600 0.19099800
vt 0.57952900 0.23906500
vt 0.37093700 0.22272900
vt 0.90964700 0.19685900
vt 0.58206300 0.24516800
vt 0.91335900 0.19686600
vt 0.90974700 0.20202400
vt 0.95949500 0.11909200
vt 0.37245300 0.22915700
vt 0.91334000 0.20203100
vt 0.58574000 0.25065900
vt 0.96308800 0.11909200
vt 0.37519900 0.23516600
vt 0.95973400 0.12419800
vt 0.59042100 0.25533000
vt 0.96308800 0.12419800
vt 0.95989600 0.13002400
vt 0.37906600 0.24052600
vt 0.96308800 0.13002400
vt 0.59592500 0.25900000
vt 0.84527300 0.25591100
vt 0.84527300 0.25591100
vt 0.38126300 0.24373600
vt 0.95996800 0.13340600
vt 0.96308800 0.13340600
vt 0.84527300 0.25902400
vt 0.59911000 0.26123900
vt 0.79507500 0.91602500
vt 0.40627400 0.92865100
vt 0.60505500 0.20695900
vt 0.40223100 0.92865100
vt 0.60082000 0.20871000
vt 0.21454400 0.84672600
vt 0.59700900 0.21125000
vt 0.39868700 0.92865100
vt 0.59376700 0.21448400
vt 0.21453800 0.85030300
vt 0.21453300 0.85436700
vt 0.59122000 0.21828700
vt 0.21453000 0.85876300
vt 0.58946600 0.22251300
vt 0.21452900 0.86332100
vt 0.58857200 0.22699900
vt 0.58857200 0.23157200
vt 0.21453000 0.86786600
vt 0.21453300 0.87222400
vt 0.58946600 0.23605800
vt 0.59122000 0.24028400
vt 0.21453800 0.87622700
vt 0.34617100 0.92895400
vt 0.21454400 0.87972200
vt 0.59376700 0.24408700
vt 0.59700900 0.24732200
vt 0.34262800 0.92895400
vt 0.33858500 0.92895400
vt 0.60082000 0.24986300
vt 0.33419800 0.92895400
vt 0.83501900 0.25901300
vt 0.60505500 0.25161300
vt 0.65894500 0.35637500
vt 0.35659300 0.07243200
vt 0.68586100 0.28078800
vt 0.40093600 0.00977500
vt 0.65793300 0.28078800
vt 0.65839700 0.32794400
vt 0.36774600 0.04625700
vt 0.38249700 0.02576500
vt 0.65806600 0.30311800
vt 0.65975100 0.38885700
vt 0.34923900 0.10488000
vt 0.34836500 0.13265300
vt 0.66049100 0.41434400
vt 0.66125800 0.43833700
vt 0.35114400 0.16049700
vt 0.35766600 0.18723100
vt 0.66198800 0.45972700
vt 0.35919700 0.23261000
vt 0.75725300 0.93895900
vt 0.66326000 0.50011000
vt 0.75691200 0.92200000
vt 0.37076100 0.24759100
vt 0.75691200 0.92200000
vt 0.37993100 0.24644400
vt 0.75714500 0.91429100
vt 0.84829600 0.25596200
vt 0.39103500 0.03163100
vt 0.68575500 0.30475200
vt 0.38300900 0.05313000
vt 0.68547500 0.32755300
vt 0.37807800 0.07783900
vt 0.68501300 0.35181700
vt 0.68434100 0.37789700
vt 0.37780000 0.10694300
vt 0.68354100 0.40261200
vt 0.38230600 0.13694100
vt 0.68285200 0.42072300
vt 0.38956400 0.16092800
vt 0.80056900 0.88639500
vt 0.39584300 0.17524100
vt 0.80011900 0.89832500
vt 0.93391400 0.16240300
vt 0.22108200 0.85876300
vt 0.22108100 0.86332100
vt 0.93302000 0.16688900
vt 0.22109000 0.85030300
vt 0.75216100 0.65221500
vt 0.93821500 0.15437500
vt 0.22109000 0.87622800
vt 0.93566900 0.18017400
vt 0.22109600 0.87972200
vt 0.92264600 0.12460900
vt 0.34617100 0.93549200
vt 0.93821500 0.18397700
vt 0.22108200 0.86786600
vt 0.93302000 0.17146300
vt 0.93566900 0.15817800
vt 0.22108500 0.85436700
vt 0.22108500 0.87222400
vt 0.93391400 0.17594900
vt 0.69056100 0.92964100
vt 0.93957500 0.16389100
vt 0.69055800 0.91601200
vt 0.94094400 0.17775900
vt 0.93887700 0.16739100
vt 0.69056300 0.92608400
vt 0.69055400 0.93624300
vt 0.74714800 0.65221500
vt 0.94293200 0.15762600
vt 0.69055400 0.91328400
vt 0.94293200 0.18072700
vt 0.92702000 0.12460900
vt 0.69056300 0.92253700
vt 0.93887700 0.17096100
vt 0.69055800 0.93307100
vt 0.94094400 0.16059300
vt 0.93957500 0.17446200
vt 0.69056100 0.91913600
vt 0.81007200 0.90703500
vt 0.40093700 0.33007500
vt 0.81007200 0.90703500
vt 0.81519700 0.90703500
vt 0.56936600 0.66577800
vt 0.81519700 0.90703500
vt 0.81037100 0.90112800
vt 0.39348400 0.32833000
vt 0.92007000 0.05742200
vt 0.92489700 0.05742200
vt 0.81519700 0.90112800
vt 0.56299800 0.66153300
vt 0.38746000 0.32559400
vt 0.92016000 0.05237600
vt 0.55831700 0.65686300
vt 0.92488700 0.05237600
vt 0.38208800 0.32173900
vt 0.92030200 0.04659500
vt 0.92488000 0.04659500
vt 0.55464000 0.65137100
vt 0.37757300 0.31691200
vt 0.92044700 0.04030100
vt 0.55210600 0.64526900
vt 0.92487500 0.04030100
vt 0.92059900 0.03373800
vt 0.37408900 0.31129900
vt 0.92487400 0.03373800
vt 0.55081500 0.63879200
vt 0.92092400 0.02715600
vt 0.37177100 0.30511700
vt 0.55081500 0.63218700
vt 0.92487500 0.02715600
vt 0.37070600 0.29860200
vt 0.92116700 0.02080800
vt 0.55210600 0.62570900
vt 0.92487900 0.02080800
vt 0.92117400 0.01493900
vt 0.37093600 0.29200100
vt 0.92488600 0.01493900
vt 0.55464000 0.61960700
vt 0.37245200 0.28557300
vt 0.87731300 0.95975500
vt 0.92130200 0.00977500
vt 0.55831700 0.61411500
vt 0.88090500 0.95975500
vt 0.92489500 0.00977500
vt 0.87755100 0.95464900
vt 0.37519700 0.27956600
vt 0.88090500 0.95464900
vt 0.56299800 0.60944500
vt 0.87771300 0.94882300
vt 0.37906400 0.27420600
vt 0.56850200 0.60577600
vt 0.88090500 0.94882300
vt 0.38126100 0.27099600
vt 0.87778500 0.94544100
vt 0.84527300 0.24205800
vt 0.84527300 0.24205800
vt 0.88090500 0.94544100
vt 0.57168700 0.60353600
vt 0.84527300 0.23894500
vt 0.57763200 0.65781600
vt 0.81519700 0.91602500
vt 0.40627400 0.94873100
vt 0.57339700 0.65606600
vt 0.40223100 0.94873100
vt 0.23466700 0.84672700
vt 0.39868700 0.94873100
vt 0.56958600 0.65352500
vt 0.23466100 0.85030400
vt 0.56634400 0.65029100
vt 0.56379700 0.64648800
vt 0.23465600 0.85436800
vt 0.56204300 0.64226200
vt 0.23465300 0.85876300
vt 0.23465200 0.86332100
vt 0.56114900 0.63777600
vt 0.23465300 0.86786700
vt 0.56114900 0.63320200
vt 0.23465600 0.87222500
vt 0.56204300 0.62871600
vt 0.23466100 0.87622800
vt 0.56379700 0.62449100
vt 0.56634400 0.62068800
vt 0.34617100 0.94903300
vt 0.23466700 0.87972300
vt 0.34262800 0.94903300
vt 0.56958600 0.61745400
vt 0.57339700 0.61491300
vt 0.33858500 0.94903300
vt 0.83501900 0.23893400
vt 0.33419800 0.94903300
vt 0.57763200 0.61316300
vt 0.65412500 0.35637500
vt 0.35659400 0.44228500
vt 0.65507800 0.28078800
vt 0.40093700 0.50494400
vt 0.68871500 0.28078800
vt 0.65467800 0.32794400
vt 0.36774800 0.46846000
vt 0.38249900 0.48895200
vt 0.65498800 0.30311800
vt 0.34924000 0.40983800
vt 0.65328600 0.38885700
vt 0.34836500 0.38206700
vt 0.65249700 0.41434400
vt 0.65166500 0.43833700
vt 0.35114300 0.35422600
vt 0.65085700 0.45972700
vt 0.35766400 0.32749500
vt 0.35919400 0.28212000
vt 0.77102200 0.93895900
vt 0.64949100 0.50011000
vt 0.37075800 0.26714100
vt 0.77136300 0.92200000
vt 0.77136300 0.92200000
vt 0.84829600 0.24200700
vt 0.77113000 0.91429100
vt 0.37992900 0.26828800
vt 0.39103700 0.48308700
vt 0.68882600 0.30475200
vt 0.68911700 0.32755300
vt 0.38301200 0.46158800
vt 0.68960900 0.35181700
vt 0.37808100 0.43688000
vt 0.69034000 0.37789700
vt 0.37780200 0.40777800
vt 0.38230800 0.37778300
vt 0.69121900 0.40261200
vt 0.38956500 0.35379800
vt 0.69198600 0.42072300
vt 0.80970300 0.88639500
vt 0.81015300 0.89832500
vt 0.39584300 0.33948800
vt 0.80513600 0.90703500
vt 0.76413800 0.91429100
vt 0.84829600 0.24898500
vt 0.68729000 0.30475200
vt 0.68729600 0.32755300
vt 0.65649400 0.41434400
vt 0.65651900 0.38885700
vt 0.68731100 0.35181700
vt 0.65646100 0.43833700
vt 0.68734000 0.37789700
vt 0.65642300 0.45972700
vt 0.68738000 0.40261200
vt 0.65637600 0.50011000
vt 0.76413800 0.93895900
vt 0.65653500 0.35637500
vt 0.80513600 0.88639500
vt 0.68741900 0.42072300
vt 0.76413800 0.92200000
vt 0.76413800 0.92200000
vt 0.65653700 0.32794400
vt 0.80513600 0.89832500
vt 0.65652700 0.30311800
vt 0.65650500 0.28078800
vt 0.68728800 0.28078800
vt 0.84527300 0.24898500
vt 0.84527300 0.24898500
vt 0.33419800 0.93899400
vt 0.83501900 0.24897400
vt 0.80513600 0.91602500
vt 0.40627400 0.93869100
vt 0.40223100 0.93869100
vt 0.39868700 0.93869100
vt 0.22460600 0.84672700
vt 0.22459900 0.85030300
vt 0.75216100 0.65571700
vt 0.34617100 0.93899400
vt 0.92264600 0.12811100
vt 0.34262800 0.93899400
vt 0.33858500 0.93899400
vt 0.22810100 0.85876300
vt 0.93943100 0.60333900
vt 0.93853700 0.59885300
vt 0.22810000 0.86332100
vt 0.22810900 0.85030300
vt 0.75216100 0.65921900
vt 0.94373200 0.61136800
vt 0.94118500 0.58556800
vt 0.22810900 0.87622800
vt 0.22811500 0.87972200
vt 0.34617100 0.94249600
vt 0.92264600 0.13161300
vt 0.94373200 0.58176500
vt 0.93853700 0.59427900
vt 0.22810100 0.86786700
vt 0.22810400 0.85436700
vt 0.94118500 0.60756500
vt 0.93943100 0.58979400
vt 0.22810400 0.87222500
vt 0.68704900 0.93307000
vt 0.74714800 0.65571700
vt 0.68704400 0.93624200
vt 0.68705200 0.92964000
vt 0.68705300 0.92608300
vt 0.68705300 0.92253600
vt 0.68705200 0.91913500
vt 0.68704900 0.91601100
vt 0.92702000 0.12811100
vt 0.68704400 0.91328400
vt 0.94509200 0.60185200
vt 0.68354200 0.92963900
vt 0.68353900 0.91601000
vt 0.94646100 0.58798300
vt 0.94439400 0.59835100
vt 0.68354400 0.92608200
vt 0.68353500 0.93624100
vt 0.94844900 0.60811700
vt 0.74714800 0.65921900
vt 0.92702000 0.13161300
vt 0.94844900 0.58501600
vt 0.68353500 0.91328300
vt 0.68354400 0.92253500
vt 0.94439400 0.59478200
vt 0.94646100 0.60514900
vt 0.68353900 0.93306900
vt 0.68354200 0.91913400
vt 0.94509200 0.59128100
f 1/1/1 6/6/6 12/12/12
f 12/12/12 7/7/7 1/1/1
f 8/8/8 11/11/11 15/15/15
f 15/15/15 13/13/13 8/8/8
f 13/13/13 15/15/15 20/20/20
f 20/20/20 18/18/18 13/13/13
f 18/18/18 20/20/20 23/23/23
f 23/23/23 21/21/21 18/18/18
f 21/21/21 23/23/23 28/28/28
f 28/28/28 26/26/26 21/21/21
f 26/26/26 28/28/28 31/31/31
f 31/31/31 29/29/29 26/26/26
f 29/29/29 31/31/31 35/35/35
f 35/35/35 34/34/34 29/29/29
f 34/34/34 35/35/35 40/40/40
f 40/40/40 38/38/38 34/34/34
f 38/38/38 40/40/40 44/44/44
f 44/44/44 41/41/41 38/38/38
f 42/42/42 46/46/46 50/50/50
f 50/50/50 48/48/48 42/42/42
f 48/48/48 50/50/50 53/53/53
f 53/53/53 51/51/51 48/48/48
f 51/51/51 53/53/53 59/59/59
f 59/59/59 58/58/58 51/51/51
f 24/24/24 19/19/19 73/73/73
f 73/73/73 75/75/75 24/24/24
f 64/64/64 66/66/66 4/4/4
f 45/45/45 39/39/39 82/82/82
f 82/82/82 86/86/86 45/45/45
f 27/27/27 24/24/24 75/75/75
f 75/75/75 77/77/77 27/27/27
f 10/10/10 4/4/4 66/66/66
f 66/66/66 68/68/68 10/10/10
f 49/49/49 45/45/45 86/86/86
f 86/86/86 87/87/87 49/49/49
f 32/32/32 27/27/27 77/77/77
f 77/77/77 78/78/78 32/32/32
f 16/16/16 10/10/10 68/68/68
f 68/68/68 70/70/70 16/16/16
f 54/54/54 49/49/49 87/87/87
f 87/87/87 90/90/90 54/54/54
f 36/36/36 32/32/32 78/78/78
f 78/78/78 81/81/81 36/36/36
f 19/19/19 16/16/16 70/70/70
f 70/70/70 73/73/73 19/19/19
f 61/61/61 54/54/54 90/90/90
f 90/90/90 93/93/93 61/61/61
f 39/39/39 36/36/36 81/81/81
f 81/81/81 82/82/82 39/39/39
f 3/3/3 9/9/9 14/14/14
f 3/3/3 14/14/14 17/17/17
f 3/3/3 17/17/17 22/22/22
f 3/3/3 22/22/22 25/25/25
f 3/3/3 25/25/25 109/109/109
f 3/3/3 109/109/109 133/133/133
f 306/306/306 2/2/2 134/134/134
f 134/134/134 326/326/326 306/306/306
f 97/97/97 120/120/120 101/101/101
f 101/101/101 120/120/120 122/122/122
f 122/122/122 100/100/100 101/101/101
f 100/100/100 122/122/122 124/124/124
f 124/124/124 95/95/95 100/100/100
f 95/95/95 124/124/124 127/127/127
f 127/127/127 104/104/104 95/95/95
f 104/104/104 127/127/127 129/129/129
f 129/129/129 105/105/105 104/104/104
f 105/105/105 129/129/129 131/131/131
f 131/131/131 108/108/108 105/105/105
f 108/108/108 131/131/131 133/133/133
f 133/133/133 109/109/109 108/108/108
f 25/25/25 30/30/30 33/33/33
f 25/25/25 33/33/33 37/37/37
f 25/25/25 37/37/37 43/43/43
f 25/25/25 43/43/43 47/47/47
f 25/25/25 47/47/47 111/111/111
f 25/25/25 111/111/111 109/109/109
f 52/52/52 57/57/57 117/117/117
f 52/52/52 117/117/117 115/115/115
f 52/52/52 115/115/115 111/111/111
f 52/52/52 111/111/111 47/47/47
f 102/102/102 99/99/99 325/325/325
f 325/325/325 327/327/327 102/102/102
f 121/121/121 96/96/96 329/329/329
f 329/329/329 309/309/309 121/121/121
f 98/98/98 102/102/102 327/327/327
f 327/327/327 328/328/328 98/98/98
f 116/116/116 118/118/118 307/307/307
f 307/307/307 323/323/323 116/116/116
f 134/134/134 132/132/132 321/321/321
f 321/321/321 326/326/326 134/134/134
f 99/99/99 94/94/94 320/320/320
f 320/320/320 325/325/325 99/99/99
f 112/112/112 114/114/114 324/324/324
f 324/324/324 319/319/319 112/112/112
f 130/130/130 128/128/128 317/317/317
f 317/317/317 322/322/322 130/130/130
f 94/94/94 103/103/103 312/312/312
f 312/312/312 320/320/320 94/94/94
f 110/110/110 113/113/113 318/318/318
f 318/318/318 316/316/316 110/110/110
f 128/128/128 126/126/126 315/315/315
f 315/315/315 317/317/317 128/128/128
f 107/107/107 110/110/110 316/316/316
f 316/316/316 314/314/314 107/107/107
f 126/126/126 125/125/125 313/313/313
f 313/313/313 315/315/315 126/126/126
f 106/106/106 107/107/107 314/314/314
f 314/314/314 311/311/311 106/106/106
f 125/125/125 123/123/123 310/310/310
f 310/310/310 313/313/313 125/125/125
f 103/103/103 106/106/106 311/311/311
f 311/311/311 312/312/312 103/103/103
f 123/123/123 121/121/121 309/309/309
f 309/309/309 310/310/310 123/123/123
f 56/56/56 60/60/60 92/92/92
f 56/56/56 92/92/92 333/333/333
f 333/333/333 330/330/330 56/56/56
f 55/55/55 331/331/331 308/308/308
f 308/308/308 119/119/119 55/55/55
f 306/306/306 334/334/334 2/2/2
f 2/2/2 334/334/334 62/62/62
f 62/62/62 5/5/5 2/2/2
f 342/342/342 145/145/145 165/165/165
f 165/165/165 372/372/372 342/342/342
f 71/71/71 67/67/67 338/338/338
f 71/71/71 338/338/338 339/339/339
f 71/71/71 339/339/339 139/139/139
f 150/150/150 141/141/141 162/162/162
f 162/162/162 169/169/169 150/150/150
f 153/153/153 149/149/149 167/167/167
f 167/167/167 170/170/170 153/153/153
f 140/140/140 340/340/340 365/365/365
f 365/365/365 161/161/161 140/140/140
f 88/88/88 84/84/84 146/146/146
f 88/88/88 146/146/146 341/341/341
f 88/88/88 341/341/341 343/343/343
f 135/135/135 150/150/150 169/169/169
f 169/169/169 155/155/155 135/135/135
f 143/143/143 153/153/153 170/170/170
f 170/170/170 157/157/157 143/143/143
f 89/89/89 88/88/88 343/343/343
f 343/343/343 344/344/344 89/89/89
f 69/69/69 65/65/65 336/336/336
f 336/336/336 337/337/337 69/69/69
f 138/138/138 135/135/135 155/155/155
f 155/155/155 158/158/158 138/138/138
f 65/65/65 63/63/63 335/335/335
f 335/335/335 336/336/336 65/65/65
f 91/91/91 89/89/89 344/344/344
f 344/344/344 332/332/332 91/91/91
f 83/83/83 80/80/80 152/152/152
f 152/152/152 142/142/142 83/83/83
f 74/74/74 72/72/72 151/151/151
f 151/151/151 136/136/136 74/74/74
f 80/80/80 79/79/79 148/148/148
f 148/148/148 152/152/152 80/80/80
f 72/72/72 71/71/71 139/139/139
f 139/139/139 151/151/151 72/72/72
f 79/79/79 76/76/76 137/137/137
f 137/137/137 148/148/148 79/79/79
f 85/85/85 83/83/83 142/142/142
f 142/142/142 144/144/144 85/85/85
f 76/76/76 74/74/74 136/136/136
f 136/136/136 137/137/137 76/76/76
f 159/159/159 154/154/154 367/367/367
f 367/367/367 368/368/368 159/159/159
f 163/163/163 156/156/156 371/371/371
f 371/371/371 373/373/373 163/163/163
f 166/166/166 159/159/159 368/368/368
f 368/368/368 369/369/369 166/166/166
f 168/168/168 160/160/160 366/366/366
f 366/366/366 364/364/364 168/168/168
f 171/171/171 166/166/166 369/369/369
f 369/369/369 370/370/370 171/171/171
f 154/154/154 168/168/168 364/364/364
f 364/364/364 367/367/367 154/154/154
f 156/156/156 171/171/171 370/370/370
f 370/370/370 371/371/371 156/156/156
f 149/149/149 138/138/138 158/158/158
f 158/158/158 167/167/167 149/149/149
f 147/147/147 143/143/143 157/157/157
f 157/157/157 164/164/164 147/147/147
f 172/172/172 178/178/178 182/182/182
f 182/182/182 175/175/175 172/172/172
f 180/180/180 185/185/185 187/187/187
f 187/187/187 181/181/181 180/180/180
f 185/185/185 189/189/189 190/190/190
f 190/190/190 187/187/187 185/185/185
f 189/189/189 193/193/193 195/195/195
f 195/195/195 190/190/190 189/189/189
f 193/193/193 196/196/196 198/198/198
f 198/198/198 195/195/195 193/193/193
f 196/196/196 200/200/200 203/203/203
f 203/203/203 198/198/198 196/196/196
f 200/200/200 205/205/205 207/207/207
f 207/207/207 203/203/203 200/200/200
f 205/205/205 208/208/208 210/210/210
f 210/210/210 207/207/207 205/205/205
f 208/208/208 214/214/214 217/217/217
f 217/217/217 210/210/210 208/208/208
f 213/213/213 218/218/218 220/220/220
f 220/220/220 216/216/216 213/213/213
f 218/218/218 222/222/222 225/225/225
f 225/225/225 220/220/220 218/218/218
f 222/222/222 227/227/227 230/230/230
f 230/230/230 225/225/225 222/222/222
f 194/194/194 245/245/245 243/243/243
f 243/243/243 191/191/191 194/194/194
f 233/233/233 176/176/176 236/236/236
f 215/215/215 255/255/255 254/254/254
f 254/254/254 211/211/211 215/215/215
f 199/199/199 248/248/248 245/245/245
f 245/245/245 194/194/194 199/199/199
f 183/183/183 240/240/240 236/236/236
f 236/236/236 176/176/176 183/183/183
f 221/221/221 259/259/259 255/255/255
f 255/255/255 215/215/215 221/221/221
f 202/202/202 250/250/250 248/248/248
f 248/248/248 199/199/199 202/202/202
f 186/186/186 242/242/242 240/240/240
f 240/240/240 183/183/183 186/186/186
f 224/224/224 260/260/260 259/259/259
f 259/259/259 221/221/221 224/224/224
f 206/206/206 252/252/252 250/250/250
f 250/250/250 202/202/202 206/206/206
f 191/191/191 243/243/243 242/242/242
f 242/242/242 186/186/186 191/191/191
f 231/231/231 264/264/264 260/260/260
f 260/260/260 224/224/224 231/231/231
f 211/211/211 254/254/254 252/252/252
f 252/252/252 206/206/206 211/211/211
f 173/173/173 305/305/305 281/281/281
f 173/173/173 281/281/281 197/197/197
f 173/173/173 197/197/197 192/192/192
f 173/173/173 192/192/192 188/188/188
f 173/173/173 188/188/188 184/184/184
f 173/173/173 184/184/184 179/179/179
f 306/306/306 326/326/326 304/304/304
f 304/304/304 174/174/174 306/306/306
f 268/268/268 272/272/272 291/291/291
f 272/272/272 271/271/271 294/294/294
f 294/294/294 291/291/291 272/272/272
f 271/271/271 266/266/266 296/296/296
f 296/296/296 294/294/294 271/271/271
f 266/266/266 274/274/274 298/298/298
f 298/298/298 296/296/296 266/266/266
f 274/274/274 276/276/276 299/299/299
f 299/299/299 298/298/298 274/274/274
f 276/276/276 279/279/279 301/301/301
f 301/301/301 299/299/299 276/276/276
f 279/279/279 281/281/281 305/305/305
f 305/305/305 301/301/301 279/279/279
f 197/197/197 281/281/281 282/282/282
f 197/197/197 282/282/282 219/219/219
f 197/197/197 219/219/219 212/212/212
f 197/197/197 212/212/212 209/209/209
f 197/197/197 209/209/209 204/204/204
f 197/197/197 204/204/204 201/201/201
f 223/223/223 219/219/219 282/282/282
f 223/223/223 282/282/282 285/285/285
f 223/223/223 285/285/285 290/290/290
f 223/223/223 290/290/290 226/226/226
f 273/273/273 327/327/327 325/325/325
f 325/325/325 270/270/270 273/273/273
f 292/292/292 309/309/309 329/329/329
f 329/329/329 269/269/269 292/292/292
f 267/267/267 328/328/328 327/327/327
f 327/327/327 273/273/273 267/267/267
f 286/286/286 323/323/323 307/307/307
f 307/307/307 289/289/289 286/286/286
f 304/304/304 326/326/326 321/321/321
f 321/321/321 303/303/303 304/304/304
f 270/270/270 325/325/325 320/320/320
f 320/320/320 265/265/265 270/270/270
f 283/283/283 319/319/319 324/324/324
f 324/324/324 287/287/287 283/283/283
f 302/302/302 322/322/322 317/317/317
f 317/317/317 300/300/300 302/302/302
f 265/265/265 320/320/320 312/312/312
f 312/312/312 275/275/275 265/265/265
f 280/280/280 316/316/316 318/318/318
f 318/318/318 284/284/284 280/280/280
f 300/300/300 317/317/317 315/315/315
f 315/315/315 297/297/297 300/300/300
f 278/278/278 314/314/314 316/316/316
f 316/316/316 280/280/280 278/278/278
f 297/297/297 315/315/315 313/313/313
f 313/313/313 295/295/295 297/297/297
f 277/277/277 311/311/311 314/314/314
f 314/314/314 278/278/278 277/277/277
f 295/295/295 313/313/313 310/310/310
f 310/310/310 293/293/293 295/295/295
f 275/275/275 312/312/312 311/311/311
f 311/311/311 277/277/277 275/275/275
f 293/293/293 310/310/310 309/309/309
f 309/309/309 292/292/292 293/293/293
f 229/229/229 262/262/262 232/232/232
f 229/229/229 330/330/330 333/333/333
f 333/333/333 262/262/262 229/229/229
f 228/228/228 288/288/288 308/308/308
f 308/308/308 331/331/331 228/228/228
f 306/306/306 174/174/174 334/334/334
f 174/174/174 177/177/177 234/234/234
f 234/234/234 334/334/334 174/174/174
f 342/342/342 372/372/372 383/383/383
f 383/383/383 356/356/356 342/342/342
f 241/241/241 349/349/349 339/339/339
f 241/241/241 339/339/339 338/338/338
f 241/241/241 338/338/338 238/238/238
f 361/361/361 388/388/388 381/381/381
f 381/381/381 351/351/351 361/361/361
f 362/362/362 391/391/391 387/387/387
f 387/387/387 358/358/358 362/362/362
f 350/350/350 382/382/382 365/365/365
f 365/365/365 340/340/340 350/350/350
f 258/258/258 343/343/343 341/341/341
f 258/258/258 341/341/341 355/355/355
f 258/258/258 355/355/355 256/256/256
f 346/346/346 374/374/374 388/388/388
f 388/388/388 361/361/361 346/346/346
f 352/352/352 377/377/377 391/391/391
f 391/391/391 362/362/362 352/352/352
f 261/261/261 344/344/344 343/343/343
f 343/343/343 258/258/258 261/261/261
f 239/239/239 337/337/337 336/336/336
f 336/336/336 237/237/237 239/239/239
f 347/347/347 378/378/378 374/374/374
f 374/374/374 346/346/346 347/347/347
f 237/237/237 336/336/336 335/335/335
f 335/335/335 235/235/235 237/237/237
f 263/263/263 332/332/332 344/344/344
f 344/344/344 261/261/261 263/263/263
f 253/253/253 353/353/353 363/363/363
f 363/363/363 251/251/251 253/253/253
f 246/246/246 345/345/345 360/360/360
f 360/360/360 244/244/244 246/246/246
f 251/251/251 363/363/363 359/359/359
f 359/359/359 249/249/249 251/251/251
f 244/244/244 360/360/360 349/349/349
f 349/349/349 241/241/241 244/244/244
f 249/249/249 359/359/359 348/348/348
f 348/348/348 247/247/247 249/249/249
f 257/257/257 354/354/354 353/353/353
f 353/353/353 253/253/253 257/257/257
f 247/247/247 348/348/348 345/345/345
f 345/345/345 246/246/246 247/247/247
f 379/379/379 368/368/368 367/367/367
f 367/367/367 375/375/375 379/379/379
f 385/385/385 373/373/373 371/371/371
f 371/371/371 376/376/376 385/385/385
f 386/386/386 369/369/369 368/368/368
f 368/368/368 379/379/379 386/386/386
f 389/389/389 364/364/364 366/366/366
f 366/366/366 380/380/380 389/389/389
f 390/390/390 370/370/370 369/369/369
f 369/369/369 386/386/386 390/390/390
f 375/375/375 367/367/367 364/364/364
f 364/364/364 389/389/389 375/375/375
f 376/376/376 371/371/371 370/370/370
f 370/370/370 390/390/390 376/376/376
f 358/358/358 387/387/387 378/378/378
f 378/378/378 347/347/347 358/358/358
f 357/357/357 384/384/384 377/377/377
f 377/377/377 352/352/352 357/357/357

