mtllib material.mtl
usemtl Leg.FR.002_MAT
v 0.19225800 0.19832700 0.16312800
v 0.19225800 0.19832700 0.16312800
v 0.19225800 0.19832700 0.16312800
v 0.18855700 0.20202500 0.16312900
v 0.18855700 0.20202500 0.16312900
v 0.18855700 0.20202500 0.16312900
v 0.19629800 0.20279900 0.16811700
v 0.19629800 0.20279900 0.16811700
v 0.19629800 0.20279900 0.16811700
v 0.19281300 0.20628200 0.16811700
v 0.19281300 0.20628200 0.16811700
v 0.19281300 0.20628200 0.16811700
v 0.19923900 0.20588400 0.17336200
v 0.19923900 0.20588400 0.17336200
v 0.19582600 0.20929600 0.17336200
v 0.19582600 0.20929600 0.17336200
v 0.20136300 0.20822400 0.17933700
v 0.20136300 0.20822400 0.17933700
v 0.19805800 0.21152800 0.17933700
v 0.19805800 0.21152800 0.17933700
v 0.20262100 0.20969700 0.18581300
v 0.20262100 0.20969700 0.18581300
v 0.19942300 0.21289300 0.18581400
v 0.19942300 0.21289300 0.18581400
v 0.20295500 0.21025300 0.19254100
v 0.20295500 0.21025300 0.19254100
v 0.19986900 0.21333700 0.19254200
v 0.19986900 0.21333700 0.19254200
v 0.20223100 0.20999400 0.19926300
v 0.20223100 0.20999400 0.19926300
v 0.19937800 0.21284500 0.19926400
v 0.19937800 0.21284500 0.19926400
v 0.20065000 0.20875600 0.20572100
v 0.20065000 0.20875600 0.20572100
v 0.19797000 0.21143500 0.20572100
v 0.19797000 0.21143500 0.20572100
v 0.19837800 0.20648200 0.21166500
v 0.19837800 0.20648200 0.21166500
v 0.19569800 0.20916100 0.21166500
v 0.19569800 0.20916100 0.21166500
v 0.19524400 0.20351800 0.21686800
v 0.19524400 0.20351800 0.21686800
v 0.19524400 0.20351800 0.21686800
v 0.19265000 0.20611000 0.21686800
v 0.19265000 0.20611000 0.21686800
v 0.19265000 0.20611000 0.21686800
v 0.19136400 0.19998000 0.22112900
v 0.19136400 0.19998000 0.22112900
v 0.18894200 0.20240000 0.22113000
v 0.18894200 0.20240000 0.22113000
v 0.18702300 0.19587000 0.22428600
v 0.18702300 0.19587000 0.22428600
v 0.18471900 0.19817400 0.22428600
v 0.18471900 0.19817400 0.22428600
v 0.18451900 0.19346800 0.22623100
v 0.18451900 0.19346800 0.22623100
v 0.18451900 0.19346800 0.22623100
v 0.18451900 0.19346800 0.22623100
v 0.18226600 0.19572000 0.22623100
v 0.18226600 0.19572000 0.22623100
v 0.18226600 0.19572000 0.22623100
v 0.18203100 0.19549500 0.17036400
v 0.18203100 0.19549500 0.17036400
v 0.18203100 0.19549500 0.17036400
v 0.18494200 0.19840600 0.17259000
v 0.18494200 0.19840600 0.17259000
v 0.18748900 0.20095400 0.17557700
v 0.18748900 0.20095400 0.17557700
v 0.18748900 0.20095400 0.17557700
v 0.18957500 0.20304100 0.17920800
v 0.18957500 0.20304100 0.17920800
v 0.19112100 0.20458700 0.18334600
v 0.19112100 0.20458700 0.18334600
v 0.19206600 0.20553200 0.18783100
v 0.19206600 0.20553200 0.18783100
v 0.19237500 0.20584000 0.19249000
v 0.19237500 0.20584000 0.19249000
v 0.19203500 0.20549900 0.19714500
v 0.19203500 0.20549900 0.19714500
v 0.19106000 0.20452300 0.20161700
v 0.19106000 0.20452300 0.20161700
v 0.18948700 0.20294800 0.20573300
v 0.18948700 0.20294800 0.20573300
v 0.18737600 0.20083500 0.20933600
v 0.18737600 0.20083500 0.20933600
v 0.18737600 0.20083500 0.20933600
v 0.18480900 0.19826600 0.21228700
v 0.18480900 0.19826600 0.21228700
v 0.18188400 0.19533900 0.21447300
v 0.18188400 0.19533900 0.21447300
v 0.17871400 0.19216700 0.21581000
v 0.17871400 0.19216700 0.21581000
v 0.17871400 0.19216700 0.21581000
v 0.25884500 0.26131400 0.08041200
v 0.25884500 0.26131400 0.08041200
v 0.25105300 0.25211300 0.00284000
v 0.25105300 0.25211300 0.00284000
v 0.25105300 0.25211300 0.00284000
v 0.26045400 0.26213500 0.05135300
v 0.26045400 0.26213500 0.05135300
v 0.25774500 0.25896600 0.02587000
v 0.25774500 0.25896600 0.02587000
v 0.25256500 0.25621300 0.11349700
v 0.25256500 0.25621300 0.11349700
v 0.24364300 0.24838600 0.13935200
v 0.24364300 0.24838600 0.13935200
v 0.23231200 0.23820000 0.16361400
v 0.23231200 0.23820000 0.16361400
v 0.21894200 0.22592900 0.18515700
v 0.21894200 0.22592900 0.18515700
v 0.20240100 0.21127700 0.22606000
v 0.20240100 0.21127700 0.22606000
v 0.20240100 0.21127700 0.22606000
v 0.18986100 0.19922200 0.23453800
v 0.18986100 0.19922200 0.23453800
v 0.18986100 0.19922200 0.23453800
v 0.18447200 0.19349400 0.22931800
v 0.18447200 0.19349400 0.22931800
v 0.18447200 0.19349400 0.22931800
v 0.25034200 0.25155400 0.02736600
v 0.25034200 0.25155400 0.02736600
v 0.24840600 0.25002500 0.05071700
v 0.24840600 0.25002500 0.05071700
v 0.24329900 0.24560000 0.07560300
v 0.24329900 0.24560000 0.07560300
v 0.23361000 0.23691400 0.10240700
v 0.23361000 0.23691400 0.10240700
v 0.22044100 0.22494500 0.12785800
v 0.22044100 0.22494500 0.12785800
v 0.20750800 0.21305400 0.14655000
v 0.20750800 0.21305400 0.14655000
v 0.20750800 0.21305400 0.14655000
v 0.19852000 0.20470900 0.15681800
v 0.19852000 0.20470900 0.15681800
v 0.19679700 0.20080400 0.18783000
v 0.19679700 0.20080400 0.18783000
v 0.19710600 0.20111200 0.19249000
v 0.19710600 0.20111200 0.19249000
v 0.19430600 0.19831300 0.17920800
v 0.19430600 0.19831300 0.17920800
v 0.19430600 0.19831300 0.17920800
v 0.19421700 0.19821900 0.20573200
v 0.19421700 0.19821900 0.20573200
v 0.19210700 0.19610700 0.20933500
v 0.19210700 0.19610700 0.20933500
v 0.19210700 0.19610700 0.20933500
v 0.19210700 0.19610700 0.20933500
v 0.19676600 0.20077100 0.19714400
v 0.19676600 0.20077100 0.19714400
v 0.19585200 0.19985900 0.18334500
v 0.19585200 0.19985900 0.18334500
v 0.19579100 0.19979400 0.20161600
v 0.19579100 0.19979400 0.20161600
v 0.19262300 0.19662700 0.18875000
v 0.19262300 0.19662700 0.18875000
v 0.19061000 0.19461000 0.20272000
v 0.19061000 0.19461000 0.20272000
v 0.19286400 0.19686700 0.19238600
v 0.19286400 0.19686700 0.19238600
v 0.19067900 0.19468300 0.18202100
v 0.19067900 0.19468300 0.18202100
v 0.19067900 0.19468300 0.18202100
v 0.18896300 0.19296200 0.20553200
v 0.18896300 0.19296200 0.20553200
v 0.18896300 0.19296200 0.20553200
v 0.19259900 0.19660100 0.19601800
v 0.19259900 0.19660100 0.19601800
v 0.19188500 0.19589000 0.18525000
v 0.19188500 0.19589000 0.18525000
v 0.19183800 0.19583900 0.19950800
v 0.19183800 0.19583900 0.19950800
v 0.19938600 0.19120200 0.16312700
v 0.19938600 0.19120200 0.16312700
v 0.19938600 0.19120200 0.16312700
v 0.20308700 0.18750300 0.16312600
v 0.20308700 0.18750300 0.16312600
v 0.20308700 0.18750300 0.16312600
v 0.20385700 0.19524400 0.16811600
v 0.20385700 0.19524400 0.16811600
v 0.20385700 0.19524400 0.16811600
v 0.20734200 0.19176000 0.16811500
v 0.20734200 0.19176000 0.16811500
v 0.20734200 0.19176000 0.16811500
v 0.20694200 0.19818500 0.17336000
v 0.20694200 0.19818500 0.17336000
v 0.21035500 0.19477400 0.17336000
v 0.21035500 0.19477400 0.17336000
v 0.20928200 0.20031000 0.17933500
v 0.20928200 0.20031000 0.17933500
v 0.21258700 0.19700600 0.17933500
v 0.21258700 0.19700600 0.17933500
v 0.21075500 0.20156700 0.18581200
v 0.21075500 0.20156700 0.18581200
v 0.21395200 0.19837100 0.18581100
v 0.21395200 0.19837100 0.18581100
v 0.21131200 0.20190000 0.19254000
v 0.21131200 0.20190000 0.19254000
v 0.21439800 0.19881500 0.19253900
v 0.21439800 0.19881500 0.19253900
v 0.21105500 0.20117400 0.19926200
v 0.21105500 0.20117400 0.19926200
v 0.21390700 0.19832300 0.19926100
v 0.21390700 0.19832300 0.19926100
v 0.20981900 0.19959200 0.20571900
v 0.20981900 0.19959200 0.20571900
v 0.21249900 0.19691300 0.20571800
v 0.21249900 0.19691300 0.20571800
v 0.20754700 0.19731800 0.21166300
v 0.20754700 0.19731800 0.21166300
v 0.21022700 0.19463900 0.21166300
v 0.21022700 0.19463900 0.21166300
v 0.20458500 0.19418100 0.21686600
v 0.20458500 0.19418100 0.21686600
v 0.20458500 0.19418100 0.21686600
v 0.20717900 0.19158800 0.21686600
v 0.20717900 0.19158800 0.21686600
v 0.20717900 0.19158800 0.21686600
v 0.20105000 0.19029900 0.22112800
v 0.20105000 0.19029900 0.22112800
v 0.20347200 0.18787800 0.22112700
v 0.20347200 0.18787800 0.22112700
v 0.19694300 0.18595500 0.22428400
v 0.19694300 0.18595500 0.22428400
v 0.19924800 0.18365200 0.22428400
v 0.19924800 0.18365200 0.22428400
v 0.19454300 0.18344900 0.22622900
v 0.19454300 0.18344900 0.22622900
v 0.19454300 0.18344900 0.22622900
v 0.19454300 0.18344900 0.22622900
v 0.19679500 0.18119800 0.22622900
v 0.19679500 0.18119800 0.22622900
v 0.19679500 0.18119800 0.22622900
v 0.19656100 0.18097300 0.17036200
v 0.19656100 0.18097300 0.17036200
v 0.19656100 0.18097300 0.17036200
v 0.19947100 0.18388400 0.17258800
v 0.19947100 0.18388400 0.17258800
v 0.20201800 0.18643200 0.17557400
v 0.20201800 0.18643200 0.17557400
v 0.20201800 0.18643200 0.17557400
v 0.20410500 0.18851900 0.17920600
v 0.20410500 0.18851900 0.17920600
v 0.20565000 0.19006500 0.18334400
v 0.20565000 0.19006500 0.18334400
v 0.20659600 0.19101000 0.18782800
v 0.20659600 0.19101000 0.18782800
v 0.20690500 0.19131800 0.19248800
v 0.20690500 0.19131800 0.19248800
v 0.20656500 0.19097700 0.19714300
v 0.20656500 0.19097700 0.19714300
v 0.20558900 0.19000100 0.20161400
v 0.20558900 0.19000100 0.20161400
v 0.20401600 0.18842600 0.20573100
v 0.20401600 0.18842600 0.20573100
v 0.20190500 0.18631300 0.20933400
v 0.20190500 0.18631300 0.20933400
v 0.20190500 0.18631300 0.20933400
v 0.19933800 0.18374400 0.21228500
v 0.19933800 0.18374400 0.21228500
v 0.19641300 0.18081700 0.21447100
v 0.19641300 0.18081700 0.21447100
v 0.19324300 0.17764500 0.21580700
v 0.19324300 0.17764500 0.21580700
v 0.19324300 0.17764500 0.21580700
v 0.26232500 0.25783600 0.08041200
v 0.26232500 0.25783600 0.08041200
v 0.25311400 0.25005300 0.00284000
v 0.25311400 0.25005300 0.00284000
v 0.25311400 0.25005300 0.00284000
v 0.26314000 0.25945100 0.05135200
v 0.26314000 0.25945100 0.05135200
v 0.25996700 0.25674400 0.02587000
v 0.25996700 0.25674400 0.02587000
v 0.25723300 0.25154700 0.11349600
v 0.25723300 0.25154700 0.11349600
v 0.24941500 0.24261700 0.13935100
v 0.24941500 0.24261700 0.13935100
v 0.23923900 0.23127700 0.16361300
v 0.23923900 0.23127700 0.16361300
v 0.22697800 0.21789600 0.18515600
v 0.22697800 0.21789600 0.18515600
v 0.21234300 0.20134100 0.22605900
v 0.21234300 0.20134100 0.22605900
v 0.21234300 0.20134100 0.22605900
v 0.20029500 0.18879300 0.23453700
v 0.20029500 0.18879300 0.23453700
v 0.20029500 0.18879300 0.23453700
v 0.19456900 0.18340200 0.22931600
v 0.19456900 0.18340200 0.22931600
v 0.19456900 0.18340200 0.22931600
v 0.25256000 0.24933800 0.02736600
v 0.25256000 0.24933800 0.02736600
v 0.25103600 0.24739700 0.05071600
v 0.25103600 0.24739700 0.05071600
v 0.24661800 0.24228300 0.07560300
v 0.24661800 0.24228300 0.07560300
v 0.23794100 0.23258500 0.10240600
v 0.23794100 0.23258500 0.10240600
v 0.22598400 0.21940500 0.12785700
v 0.22598400 0.21940500 0.12785700
v 0.21410200 0.20646200 0.14654900
v 0.21410200 0.20646200 0.14654900
v 0.21410200 0.20646200 0.14654900
v 0.20576500 0.19746900 0.15681700
v 0.20576500 0.19746900 0.15681700
v 0.19582200 0.19476400 0.16312700
v 0.18952000 0.18844800 0.22931700
v 0.18952000 0.18844800 0.22931700
v 0.25145100 0.25044600 0.02736600
v 0.24972100 0.24871100 0.05071600
v 0.24652900 0.24550200 0.13935200
v 0.25489900 0.25388000 0.11349600
v 0.24495800 0.24394200 0.07560300
v 0.23577500 0.23473800 0.16361300
v 0.23577600 0.23474900 0.10240700
v 0.22296000 0.22191200 0.18515700
v 0.22321300 0.22217500 0.12785700
v 0.20737200 0.20630900 0.22606000
v 0.20737200 0.20630900 0.22606000
v 0.26058500 0.25957500 0.08041200
v 0.21080500 0.20975800 0.14655000
v 0.21080500 0.20975800 0.14655000
v 0.19507800 0.19400700 0.23453800
v 0.19507800 0.19400700 0.23453800
v 0.26179700 0.26079300 0.05135300
v 0.20214200 0.20108900 0.15681800
v 0.25885600 0.25785500 0.02587000
v 0.25208300 0.25108300 0.00284000
v 0.25208300 0.25108300 0.00284000
v 0.18953100 0.18845900 0.22623000
v 0.18953100 0.18845900 0.22623000
v 0.18597800 0.18490600 0.21580900
v 0.18597800 0.18490600 0.21580900
v 0.18929600 0.18823400 0.17036300
v 0.18929600 0.18823400 0.17036300
v 0.19220600 0.19114500 0.17258900
v 0.19475400 0.19369300 0.17557500
v 0.19475400 0.19369300 0.17557500
v 0.19684000 0.19578000 0.17920700
v 0.19684000 0.19578000 0.17920700
v 0.19464100 0.19357400 0.20933500
v 0.19464100 0.19357400 0.20933500
v 0.19207300 0.19100500 0.21228600
v 0.18914800 0.18807800 0.21447200
v 0.20186500 0.19573800 0.18782900
v 0.20186500 0.19573800 0.18782900
v 0.20217400 0.19604600 0.19248900
v 0.20217400 0.19604600 0.19248900
v 0.19937400 0.19324800 0.17920700
v 0.19937400 0.19324800 0.17920700
v 0.19937400 0.19324800 0.17920700
v 0.19928500 0.19315400 0.20573200
v 0.19928500 0.19315400 0.20573200
v 0.19717400 0.19104200 0.20933500
v 0.19717400 0.19104200 0.20933500
v 0.19717400 0.19104200 0.20933500
v 0.19717400 0.19104200 0.20933500
v 0.20183400 0.19570600 0.19714400
v 0.20183400 0.19570600 0.19714400
v 0.20092000 0.19479300 0.18334500
v 0.20092000 0.19479300 0.18334500
v 0.20085900 0.19472900 0.20161500
v 0.20085900 0.19472900 0.20161500
v 0.19441900 0.19335700 0.18524900
v 0.19321300 0.19215100 0.18202000
v 0.19321300 0.19215100 0.18202000
v 0.19515700 0.19409400 0.18874900
v 0.19539800 0.19433500 0.19238500
v 0.19513300 0.19406900 0.19601800
v 0.19437100 0.19330700 0.19950700
v 0.19314400 0.19207800 0.20272000
v 0.19149600 0.19042900 0.20553100
v 0.19149600 0.19042900 0.20553100
v 0.19769100 0.19156200 0.18874900
v 0.19769100 0.19156200 0.18874900
v 0.19567800 0.18954500 0.20271900
v 0.19567800 0.18954500 0.20271900
v 0.19793200 0.19180200 0.19238500
v 0.19793200 0.19180200 0.19238500
v 0.19574700 0.18961800 0.18202000
v 0.19574700 0.18961800 0.18202000
v 0.19574700 0.18961800 0.18202000
v 0.19403000 0.18789700 0.20553100
v 0.19403000 0.18789700 0.20553100
v 0.19403000 0.18789700 0.20553100
v 0.19766600 0.19153600 0.19601700
v 0.19766600 0.19153600 0.19601700
v 0.19695300 0.19082400 0.18524900
v 0.19695300 0.19082400 0.18524900
v 0.19690500 0.19077400 0.19950700
v 0.19690500 0.19077400 0.19950700
vn -0.70800000 0.70590000 -0.02230000
vn 0.45100000 0.45140000 -0.76990000
vn -0.42670000 -0.42680000 -0.79730000
vn 0.45100000 0.45140000 -0.76990000
vn -0.43610000 -0.43620000 -0.78710000
vn -0.70730000 0.70690000 0.00010000
vn 0.50140000 0.50180000 -0.70490000
vn 0.50140000 0.50180000 -0.70490000
vn -0.70800000 0.70590000 -0.02230000
vn 0.50220000 0.50260000 -0.70370000
vn 0.50220000 0.50260000 -0.70370000
vn -0.70730000 0.70690000 0.00010000
vn -0.70800000 0.70590000 -0.02230000
vn 0.58920000 0.58960000 -0.55250000
vn 0.58960000 0.59000000 -0.55150000
vn -0.70730000 0.70690000 0.00010000
vn -0.70800000 0.70590000 -0.02230000
vn 0.65400000 0.65440000 -0.37950000
vn -0.70730000 0.70690000 0.00010000
vn 0.65440000 0.65480000 -0.37820000
vn 0.69380000 0.69420000 -0.19170000
vn -0.70800000 0.70590000 -0.02230000
vn 0.69400000 0.69440000 -0.19030000
vn -0.70730000 0.70690000 0.00010000
vn -0.70720000 0.70640000 -0.02910000
vn 0.70690000 0.70730000 0.00260000
vn 0.70690000 0.70730000 0.00490000
vn -0.70730000 0.70690000 0.00010000
vn -0.70660000 0.70680000 -0.03370000
vn 0.69310000 0.69340000 0.19730000
vn 0.69270000 0.69300000 0.19990000
vn -0.70730000 0.70690000 0.00010000
vn -0.70660000 0.70680000 -0.03370000
vn 0.65210000 0.65240000 0.38610000
vn -0.70730000 0.70690000 0.00010000
vn 0.65180000 0.65210000 0.38720000
vn 0.58610000 0.58630000 0.55910000
vn -0.70660000 0.70680000 -0.03370000
vn -0.70730000 0.70690000 0.00010000
vn 0.58590000 0.58610000 0.55960000
vn 0.49840000 0.49850000 0.70930000
vn 0.49840000 0.49850000 0.70930000
vn -0.70660000 0.70680000 -0.03370000
vn 0.49750000 0.49760000 0.71050000
vn -0.70730000 0.70690000 0.00010000
vn 0.49750000 0.49760000 0.71050000
vn 0.39110000 0.39110000 0.83310000
vn -0.70630000 0.70700000 -0.03610000
vn -0.70730000 0.70690000 0.00010000
vn 0.39000000 0.39000000 0.83420000
vn 0.33790000 0.33790000 0.87840000
vn -0.70620000 0.70700000 -0.03710000
vn -0.70730000 0.70690000 0.00010000
vn 0.33800000 0.33810000 0.87830000
vn 0.34570000 0.34570000 0.87230000
vn -0.63680000 -0.63720000 0.43430000
vn -0.70620000 0.70700000 -0.03710000
vn -0.70690000 -0.70730000 -0.00490000
vn -0.70730000 0.70690000 0.00010000
vn 0.34570000 0.34570000 0.87230000
vn -0.63680000 -0.63720000 0.43430000
vn -0.43610000 -0.43620000 -0.78710000
vn -0.70730000 0.70690000 0.00010000
vn -0.33620000 -0.33650000 0.87960000
vn -0.39550000 -0.39590000 0.82880000
vn -0.70730000 0.70690000 0.00010000
vn -0.50220000 -0.50260000 0.70370000
vn -0.70730000 0.70690000 0.00010000
vn -0.50220000 -0.50260000 0.70370000
vn -0.58960000 -0.59000000 0.55150000
vn -0.70730000 0.70690000 0.00010000
vn -0.70730000 0.70690000 0.00010000
vn -0.65440000 -0.65480000 0.37820000
vn -0.69400000 -0.69440000 0.19030000
vn -0.70730000 0.70690000 0.00010000
vn -0.70730000 0.70690000 0.00010000
vn -0.70690000 -0.70730000 -0.00490000
vn -0.70730000 0.70690000 0.00010000
vn -0.69270000 -0.69300000 -0.19990000
vn -0.65180000 -0.65210000 -0.38720000
vn -0.70730000 0.70690000 0.00010000
vn -0.70730000 0.70690000 0.00010000
vn -0.58590000 -0.58610000 -0.55960000
vn -0.49750000 -0.49760000 -0.71050000
vn -0.70730000 0.70690000 0.00010000
vn -0.49750000 -0.49760000 -0.71050000
vn -0.39000000 -0.39000000 -0.83420000
vn -0.70730000 0.70690000 0.00010000
vn -0.70730000 0.70690000 0.00010000
vn -0.26740000 -0.26740000 -0.92570000
vn -0.20200000 -0.20190000 -0.95830000
vn -0.70730000 0.70690000 0.00010000
vn -0.63680000 -0.63720000 0.43430000
vn -0.70710000 0.70680000 -0.02260000
vn 0.69900000 0.69930000 0.14950000
vn -0.12570000 -0.12560000 -0.98410000
vn -0.70800000 0.70620000 -0.00440000
vn -0.12570000 -0.12560000 -0.98410000
vn 0.70600000 0.70640000 -0.05020000
vn -0.70830000 0.70570000 -0.01620000
vn 0.67990000 0.68030000 -0.27370000
vn -0.70830000 0.70580000 -0.00880000
vn -0.70500000 0.70860000 -0.02740000
vn 0.66750000 0.66780000 0.32940000
vn 0.62180000 0.62200000 0.47590000
vn -0.70300000 0.71060000 -0.02990000
vn -0.70130000 0.71220000 -0.03050000
vn 0.57080000 0.57100000 0.59000000
vn -0.70430000 0.70930000 -0.02850000
vn 0.58540000 0.58560000 0.56070000
vn 0.62230000 0.62250000 0.47460000
vn -0.70650000 0.70690000 -0.03470000
vn 0.30980000 0.30980000 0.89890000
vn -0.39100000 -0.39140000 0.83300000
vn -0.70620000 0.70700000 -0.03710000
vn 0.30980000 0.30980000 0.89890000
vn -0.39100000 -0.39140000 0.83300000
vn -0.70690000 -0.70730000 -0.00490000
vn -0.70620000 0.70700000 -0.03710000
vn -0.70520000 -0.70550000 -0.07070000
vn -0.70830000 0.70580000 -0.00900000
vn -0.70830000 0.70570000 -0.01630000
vn -0.69480000 -0.69520000 -0.18420000
vn -0.70710000 0.70680000 -0.02270000
vn -0.66180000 -0.66210000 -0.35150000
vn -0.60930000 -0.60960000 -0.50710000
vn -0.70500000 0.70870000 -0.02750000
vn -0.54840000 -0.54850000 -0.63120000
vn -0.70270000 0.71090000 -0.03010000
vn -0.48500000 -0.48510000 -0.72760000
vn -0.48500000 -0.48510000 -0.72760000
vn -0.70110000 0.71250000 -0.03050000
vn -0.70460000 0.70910000 -0.02590000
vn -0.43110000 -0.43120000 -0.79260000
vn -0.69400000 -0.69440000 0.19030000
vn -0.70730000 0.70690000 0.00010000
vn -0.70690000 -0.70730000 -0.00490000
vn -0.70730000 0.70690000 0.00010000
vn -0.70730000 0.70690000 0.00010000
vn -0.33990000 -0.33990000 -0.87690000
vn -0.57650000 -0.57690000 0.57860000
vn -0.70730000 0.70690000 0.00010000
vn -0.58590000 -0.58610000 -0.55960000
vn -0.48080000 -0.48090000 -0.73320000
vn -0.48080000 -0.48090000 -0.73320000
vn -0.45940000 -0.45980000 0.76000000
vn -0.70730000 0.70690000 0.00010000
vn -0.70730000 0.70690000 0.00010000
vn -0.69270000 -0.69300000 -0.19990000
vn -0.65440000 -0.65480000 0.37820000
vn -0.70730000 0.70690000 0.00010000
vn -0.65180000 -0.65210000 -0.38720000
vn -0.70730000 0.70690000 0.00010000
vn -0.69400000 -0.69440000 0.19030000
vn -0.70730000 0.70690000 0.00010000
vn -0.70730000 0.70690000 0.00010000
vn -0.58590000 -0.58610000 -0.55960000
vn -0.70730000 0.70690000 0.00010000
vn -0.70690000 -0.70730000 -0.00490000
vn -0.33990000 -0.33990000 -0.87690000
vn -0.62500000 -0.62540000 0.46710000
vn -0.70730000 0.70690000 0.00010000
vn -0.45940000 -0.45980000 0.76000000
vn -0.54430000 -0.54450000 -0.63810000
vn -0.70730000 0.70690000 0.00010000
vn -0.70730000 0.70690000 0.00010000
vn -0.69270000 -0.69300000 -0.19990000
vn -0.65440000 -0.65480000 0.37820000
vn -0.70730000 0.70690000 0.00010000
vn -0.65180000 -0.65210000 -0.38720000
vn -0.70730000 0.70690000 0.00010000
vn -0.42670000 -0.42680000 -0.79730000
vn 0.70620000 -0.70760000 -0.02250000
vn 0.45110000 0.45140000 -0.76990000
vn 0.45110000 0.45140000 -0.76990000
vn 0.70730000 -0.70690000 -0.00010000
vn -0.43610000 -0.43620000 -0.78710000
vn 0.70620000 -0.70760000 -0.02250000
vn 0.50140000 0.50180000 -0.70490000
vn 0.50140000 0.50180000 -0.70490000
vn 0.70730000 -0.70690000 -0.00010000
vn 0.50220000 0.50260000 -0.70370000
vn 0.50220000 0.50260000 -0.70370000
vn 0.70620000 -0.70760000 -0.02250000
vn 0.58920000 0.58960000 -0.55250000
vn 0.58960000 0.59000000 -0.55150000
vn 0.70730000 -0.70690000 -0.00010000
vn 0.70620000 -0.70760000 -0.02250000
vn 0.65400000 0.65440000 -0.37950000
vn 0.65440000 0.65480000 -0.37820000
vn 0.70730000 -0.70690000 -0.00010000
vn 0.70620000 -0.70760000 -0.02250000
vn 0.69380000 0.69420000 -0.19170000
vn 0.69400000 0.69440000 -0.19030000
vn 0.70730000 -0.70690000 -0.00010000
vn 0.70680000 -0.70680000 -0.02930000
vn 0.70690000 0.70730000 0.00260000
vn 0.70690000 0.70730000 0.00490000
vn 0.70730000 -0.70690000 -0.00010000
vn 0.69310000 0.69340000 0.19730000
vn 0.70710000 -0.70630000 -0.03390000
vn 0.69270000 0.69300000 0.19990000
vn 0.70730000 -0.70690000 -0.00010000
vn 0.65210000 0.65240000 0.38610000
vn 0.70710000 -0.70630000 -0.03390000
vn 0.65180000 0.65210000 0.38720000
vn 0.70730000 -0.70690000 -0.00010000
vn 0.58610000 0.58630000 0.55910000
vn 0.70710000 -0.70630000 -0.03390000
vn 0.58590000 0.58610000 0.55960000
vn 0.70730000 -0.70690000 -0.00010000
vn 0.49840000 0.49850000 0.70930000
vn 0.70710000 -0.70630000 -0.03390000
vn 0.49840000 0.49850000 0.70930000
vn 0.70730000 -0.70690000 -0.00010000
vn 0.49750000 0.49760000 0.71050000
vn 0.49750000 0.49760000 0.71050000
vn 0.39110000 0.39110000 0.83310000
vn 0.70730000 -0.70600000 -0.03640000
vn 0.70730000 -0.70690000 -0.00010000
vn 0.39000000 0.39000000 0.83420000
vn 0.70740000 -0.70580000 -0.03740000
vn 0.33790000 0.33790000 0.87840000
vn 0.70730000 -0.70690000 -0.00010000
vn 0.33800000 0.33800000 0.87830000
vn 0.70740000 -0.70580000 -0.03740000
vn -0.63680000 -0.63720000 0.43430000
vn -0.70690000 -0.70730000 -0.00490000
vn 0.34570000 0.34570000 0.87230000
vn 0.34570000 0.34570000 0.87230000
vn -0.63680000 -0.63710000 0.43430000
vn 0.70730000 -0.70690000 -0.00010000
vn -0.43610000 -0.43620000 -0.78710000
vn 0.70730000 -0.70690000 -0.00010000
vn -0.33620000 -0.33650000 0.87960000
vn -0.39550000 -0.39590000 0.82880000
vn 0.70730000 -0.70690000 -0.00010000
vn 0.70730000 -0.70690000 -0.00010000
vn -0.50220000 -0.50260000 0.70370000
vn -0.50220000 -0.50260000 0.70370000
vn -0.58960000 -0.59000000 0.55150000
vn 0.70730000 -0.70690000 -0.00010000
vn -0.65440000 -0.65480000 0.37820000
vn 0.70730000 -0.70690000 -0.00010000
vn 0.70730000 -0.70690000 -0.00010000
vn -0.69400000 -0.69440000 0.19030000
vn -0.70690000 -0.70730000 -0.00490000
vn 0.70730000 -0.70690000 -0.00010000
vn 0.70730000 -0.70690000 -0.00010000
vn -0.69270000 -0.69300000 -0.19990000
vn 0.70730000 -0.70690000 -0.00010000
vn -0.65180000 -0.65210000 -0.38720000
vn 0.70730000 -0.70690000 -0.00010000
vn -0.58590000 -0.58610000 -0.55960000
vn 0.70730000 -0.70690000 -0.00010000
vn -0.49750000 -0.49760000 -0.71050000
vn -0.49750000 -0.49760000 -0.71050000
vn 0.70730000 -0.70690000 -0.00010000
vn -0.39000000 -0.39000000 -0.83420000
vn -0.26740000 -0.26740000 -0.92570000
vn 0.70730000 -0.70690000 -0.00010000
vn -0.63680000 -0.63720000 0.43430000
vn -0.20200000 -0.20190000 -0.95830000
vn 0.70730000 -0.70690000 -0.00010000
vn 0.69900000 0.69930000 0.14950000
vn 0.70710000 -0.70670000 -0.02290000
vn 0.70660000 -0.70760000 -0.00470000
vn -0.12570000 -0.12560000 -0.98410000
vn -0.12570000 -0.12560000 -0.98410000
vn 0.70600000 0.70640000 -0.05020000
vn 0.70610000 -0.70790000 -0.01640000
vn 0.70620000 -0.70800000 -0.00910000
vn 0.67990000 0.68030000 -0.27370000
vn 0.66750000 0.66780000 0.32940000
vn 0.70900000 -0.70470000 -0.02770000
vn 0.62180000 0.62200000 0.47590000
vn 0.71090000 -0.70260000 -0.03020000
vn 0.71260000 -0.70090000 -0.03080000
vn 0.57080000 0.57100000 0.59000000
vn 0.70960000 -0.70400000 -0.02870000
vn 0.58540000 0.58560000 0.56070000
vn 0.70720000 -0.70610000 -0.03500000
vn 0.30980000 0.30980000 0.89890000
vn 0.62230000 0.62250000 0.47460000
vn 0.30980000 0.30980000 0.89890000
vn 0.70740000 -0.70580000 -0.03740000
vn -0.39100000 -0.39140000 0.83300000
vn 0.70740000 -0.70580000 -0.03740000
vn -0.39100000 -0.39140000 0.83300000
vn -0.70690000 -0.70730000 -0.00490000
vn -0.70520000 -0.70550000 -0.07070000
vn 0.70620000 -0.70800000 -0.00920000
vn -0.69480000 -0.69520000 -0.18420000
vn 0.70610000 -0.70790000 -0.01650000
vn 0.70710000 -0.70670000 -0.02300000
vn -0.66180000 -0.66210000 -0.35150000
vn 0.70910000 -0.70460000 -0.02780000
vn -0.60930000 -0.60960000 -0.50710000
vn -0.54830000 -0.54850000 -0.63120000
vn 0.71120000 -0.70230000 -0.03040000
vn 0.71280000 -0.70070000 -0.03070000
vn -0.48500000 -0.48510000 -0.72760000
vn -0.48500000 -0.48510000 -0.72760000
vn -0.43110000 -0.43120000 -0.79260000
vn 0.70950000 -0.70430000 -0.02620000
vn -0.42200000 -0.42210000 -0.80230000
vn -0.39100000 -0.39140000 0.83300000
vn -0.70690000 -0.70730000 -0.00490000
vn -0.70520000 -0.70550000 -0.07050000
vn -0.69490000 -0.69530000 -0.18350000
vn 0.62220000 0.62240000 0.47490000
vn 0.66790000 0.66820000 0.32790000
vn -0.66220000 -0.66240000 -0.35030000
vn 0.57130000 0.57150000 0.58900000
vn -0.60980000 -0.61000000 -0.50600000
vn 0.58470000 0.58490000 0.56220000
vn -0.54890000 -0.54910000 -0.63020000
vn 0.30980000 0.30980000 0.89890000
vn 0.62230000 0.62250000 0.47460000
vn 0.69910000 0.69950000 0.14830000
vn -0.48560000 -0.48570000 -0.72680000
vn -0.48560000 -0.48570000 -0.72680000
vn -0.39100000 -0.39140000 0.83300000
vn 0.30980000 0.30980000 0.89890000
vn 0.70600000 0.70640000 -0.05130000
vn -0.43120000 -0.43130000 -0.79250000
vn 0.67980000 0.68020000 -0.27430000
vn -0.12580000 -0.12570000 -0.98410000
vn -0.12580000 -0.12570000 -0.98410000
vn -0.63670000 -0.63720000 0.43430000
vn -0.70690000 -0.70730000 -0.00490000
vn -0.20200000 -0.20190000 -0.95830000
vn -0.63670000 -0.63720000 0.43430000
vn -0.33620000 -0.33650000 0.87960000
vn -0.43610000 -0.43620000 -0.78710000
vn -0.39550000 -0.39590000 0.82880000
vn -0.50220000 -0.50260000 0.70370000
vn -0.50220000 -0.50260000 0.70370000
vn -0.54860000 -0.54900000 0.63060000
vn -0.33990000 -0.33990000 -0.87690000
vn -0.45940000 -0.45980000 0.76000000
vn -0.44590000 -0.44600000 -0.77610000
vn -0.39000000 -0.39000000 -0.83420000
vn -0.26740000 -0.26740000 -0.92570000
vn 0.70730000 -0.70690000 -0.00010000
vn -0.69400000 -0.69440000 0.19030000
vn 0.70730000 -0.70690000 -0.00010000
vn -0.70690000 -0.70730000 -0.00490000
vn -0.57650000 -0.57690000 0.57860000
vn -0.33990000 -0.33990000 -0.87690000
vn 0.70730000 -0.70690000 -0.00010000
vn -0.58590000 -0.58610000 -0.55960000
vn 0.70730000 -0.70690000 -0.00010000
vn 0.70730000 -0.70690000 -0.00010000
vn -0.48080000 -0.48090000 -0.73320000
vn -0.48080000 -0.48090000 -0.73320000
vn -0.45940000 -0.45980000 0.76000000
vn 0.70730000 -0.70690000 -0.00010000
vn -0.69270000 -0.69300000 -0.19990000
vn 0.70730000 -0.70690000 -0.00010000
vn -0.65440000 -0.65480000 0.37820000
vn 0.70730000 -0.70690000 -0.00010000
vn -0.65180000 -0.65210000 -0.38720000
vn -0.65440000 -0.65480000 0.37820000
vn -0.33990000 -0.33990000 -0.87690000
vn -0.62500000 -0.62540000 0.46710000
vn -0.69400000 -0.69440000 0.19030000
vn -0.70690000 -0.70730000 -0.00490000
vn -0.69270000 -0.69300000 -0.19990000
vn -0.65180000 -0.65210000 -0.38720000
vn -0.58590000 -0.58610000 -0.55960000
vn -0.45940000 -0.45980000 0.76000000
vn -0.54430000 -0.54450000 -0.63810000
vn -0.69400000 -0.69440000 0.19030000
vn 0.70730000 -0.70690000 -0.00010000
vn -0.58590000 -0.58610000 -0.55960000
vn 0.70730000 -0.70690000 -0.00010000
vn -0.70690000 -0.70730000 -0.00490000
vn 0.70730000 -0.70690000 -0.00010000
vn -0.62500000 -0.62540000 0.46710000
vn 0.70730000 -0.70690000 -0.00010000
vn -0.33990000 -0.33990000 -0.87690000
vn -0.45940000 -0.45980000 0.76000000
vn 0.70730000 -0.70690000 -0.00010000
vn -0.54430000 -0.54450000 -0.63810000
vn -0.69270000 -0.69300000 -0.19990000
vn 0.70730000 -0.70690000 -0.00010000
vn -0.65440000 -0.65480000 0.37820000
vn 0.70730000 -0.70690000 -0.00010000
vn 0.70730000 -0.70690000 -0.00010000
vn -0.65180000 -0.65210000 -0.38720000
vt 0.30623900 0.35115100
vt 0.28454700 0.88996700
vt 0.28454700 0.88996700
vt 0.27942200 0.88996700
vt 0.27942200 0.88996700
vt 0.36691400 0.60090600
vt 0.28424900 0.88406000
vt 0.46043200 0.86843700
vt 0.29878700 0.35289600
vt 0.27942200 0.88406000
vt 0.46525900 0.86844500
vt 0.36054700 0.60515100
vt 0.29276400 0.35563100
vt 0.46053200 0.87348300
vt 0.46525900 0.87349100
vt 0.35586600 0.60982100
vt 0.28739200 0.35948600
vt 0.46067800 0.87926400
vt 0.35218800 0.61531200
vt 0.46525500 0.87927200
vt 0.46082000 0.88555700
vt 0.28287700 0.36431300
vt 0.46524900 0.88556500
vt 0.34965500 0.62141400
vt 0.27939300 0.36992700
vt 0.46096400 0.89212100
vt 0.46523900 0.89212900
vt 0.34836300 0.62789200
vt 0.27707600 0.37610900
vt 0.46127500 0.89870400
vt 0.46522600 0.89871100
vt 0.34836300 0.63449700
vt 0.27601200 0.38262500
vt 0.46149900 0.90505200
vt 0.34965500 0.64097500
vt 0.46521100 0.90505800
vt 0.46148300 0.91092100
vt 0.27624100 0.38922600
vt 0.35218800 0.64707700
vt 0.46519500 0.91092700
vt 0.12074700 0.95034000
vt 0.46158500 0.91608600
vt 0.27775700 0.39565400
vt 0.12434000 0.95034000
vt 0.35586600 0.65256900
vt 0.46517700 0.91609200
vt 0.12098600 0.95544600
vt 0.28050200 0.40166300
vt 0.36054700 0.65723900
vt 0.12434000 0.95544600
vt 0.12114800 0.96127200
vt 0.28437000 0.40702300
vt 0.36605100 0.66090900
vt 0.12434000 0.96127200
vt 0.12122000 0.96465400
vt 0.92054200 0.92207200
vt 0.28656600 0.41023300
vt 0.92054200 0.92207200
vt 0.36923600 0.66314900
vt 0.12434000 0.96465400
vt 0.92054200 0.91895900
vt 0.27942200 0.89895700
vt 0.37518100 0.60886900
vt 0.95797400 0.91895900
vt 0.95393100 0.91895900
vt 0.37094600 0.61061900
vt 0.95038700 0.91895900
vt 0.36713400 0.61316000
vt 0.83759800 0.85176300
vt 0.83759200 0.85533900
vt 0.36389300 0.61639400
vt 0.36134600 0.62019700
vt 0.83758800 0.85940300
vt 0.83758500 0.86379900
vt 0.35959100 0.62442200
vt 0.35869700 0.62890800
vt 0.83758400 0.86835700
vt 0.35869700 0.63348200
vt 0.83758500 0.87290200
vt 0.83758800 0.87726000
vt 0.35959100 0.63796800
vt 0.36134600 0.64219400
vt 0.83759200 0.88126400
vt 0.37773600 0.92895400
vt 0.36389300 0.64599700
vt 0.83759800 0.88475800
vt 0.37419300 0.92895400
vt 0.36713400 0.64923100
vt 0.37094600 0.65177200
vt 0.37015000 0.92895400
vt 0.36576300 0.92895400
vt 0.37518100 0.65352300
vt 0.93079500 0.91896900
vt 0.26189600 0.23892900
vt 0.63995000 0.08536000
vt 0.65251000 0.51965900
vt 0.30623900 0.17627100
vt 0.63894100 0.00977500
vt 0.63940300 0.05692900
vt 0.27305000 0.21275300
vt 0.63907300 0.03210300
vt 0.28780100 0.19226200
vt 0.25454300 0.27137700
vt 0.64075800 0.11784300
vt 0.64149900 0.14333100
vt 0.25366900 0.29915000
vt 0.25644800 0.32699400
vt 0.64226900 0.16732400
vt 0.26296900 0.35372800
vt 0.64300200 0.18871600
vt 0.64427900 0.22910000
vt 0.26450100 0.39910700
vt 0.66360200 0.91328300
vt 0.66394300 0.93024200
vt 0.27606500 0.41408800
vt 0.66394300 0.93024200
vt 0.66371000 0.93795000
vt 0.91751900 0.92202200
vt 0.28523400 0.41294100
vt 0.65240400 0.54362300
vt 0.29633800 0.19812700
vt 0.28831200 0.21962700
vt 0.65212400 0.56642400
vt 0.28338200 0.24433600
vt 0.65166100 0.59068800
vt 0.65098700 0.61676900
vt 0.28310300 0.27344000
vt 0.65018400 0.64148500
vt 0.28761000 0.30343800
vt 0.64949100 0.65959700
vt 0.28491600 0.86932700
vt 0.29486800 0.32742500
vt 0.30114700 0.34173800
vt 0.28446700 0.88125800
vt 0.84413700 0.86379900
vt 0.93457700 0.27876100
vt 0.84413600 0.86835700
vt 0.93368200 0.28324600
vt 0.93887800 0.27073200
vt 0.57823800 0.17944800
vt 0.84414400 0.85533900
vt 0.93633100 0.29653200
vt 0.84414400 0.88126400
vt 0.84415000 0.88475900
vt 0.37773600 0.93549200
vt 0.94448800 0.05228400
vt 0.93887800 0.30033500
vt 0.93368200 0.28782000
vt 0.84413700 0.87290200
vt 0.84414000 0.85940300
vt 0.93633100 0.27453500
vt 0.84414000 0.87726100
vt 0.93457700 0.29230600
vt 0.94449000 0.01637600
vt 0.94023800 0.28024800
vt 0.94160700 0.29411700
vt 0.94449200 0.03000600
vt 0.93954000 0.28374900
vt 0.94448800 0.01993300
vt 0.58325100 0.17944800
vt 0.94449700 0.00977500
vt 0.94359400 0.27398300
vt 0.94886300 0.05228400
vt 0.94449700 0.03273300
vt 0.94359400 0.29708500
vt 0.93954000 0.28731800
vt 0.94448800 0.02348000
vt 0.94449200 0.01294600
vt 0.94160700 0.27695100
vt 0.94449000 0.02688200
vt 0.94023800 0.29081900
vt 0.29441900 0.88996700
vt 0.47310000 0.07271000
vt 0.29441900 0.88996700
vt 0.29954500 0.88996700
vt 0.18667000 0.70780500
vt 0.29954500 0.88996700
vt 0.46564700 0.07096400
vt 0.29471800 0.88406000
vt 0.92044800 0.55903100
vt 0.18030300 0.70356000
vt 0.29954500 0.88406000
vt 0.92527400 0.55903100
vt 0.45962300 0.06822800
vt 0.92053800 0.55398500
vt 0.92526600 0.55398500
vt 0.17562200 0.69889000
vt 0.45425000 0.06437300
vt 0.92068100 0.54820400
vt 0.92525900 0.54820400
vt 0.17194400 0.69339800
vt 0.44973500 0.05954600
vt 0.92082600 0.54191100
vt 0.92525500 0.54191100
vt 0.16941100 0.68729600
vt 0.44625100 0.05393300
vt 0.92097900 0.53534700
vt 0.92525300 0.53534700
vt 0.16812000 0.68081800
vt 0.92130400 0.52876500
vt 0.44393300 0.04775100
vt 0.92525500 0.52876500
vt 0.16812000 0.67421400
vt 0.92154600 0.52241700
vt 0.44286900 0.04123600
vt 0.92525800 0.52241700
vt 0.16941100 0.66773600
vt 0.92155300 0.51654800
vt 0.44309800 0.03463500
vt 0.92526500 0.51654800
vt 0.17194400 0.66163400
vt 0.92168000 0.51138300
vt 0.44461400 0.02820700
vt 0.83758400 0.96292200
vt 0.17562200 0.65614200
vt 0.92527300 0.51138300
vt 0.84117700 0.96292200
vt 0.83782300 0.95781600
vt 0.44735900 0.02220000
vt 0.18030300 0.65147200
vt 0.84117700 0.95781600
vt 0.45122600 0.01684000
vt 0.83798500 0.95199000
vt 0.18580700 0.64780300
vt 0.84117700 0.95199000
vt 0.45342300 0.01363000
vt 0.92054200 0.93592500
vt 0.92054200 0.93592500
vt 0.83805700 0.94860800
vt 0.84117700 0.94860800
vt 0.92054200 0.93903900
vt 0.18899200 0.64556300
vt 0.29954500 0.89895700
vt 0.19493700 0.69984300
vt 0.95797400 0.93903900
vt 0.95393100 0.93903900
vt 0.19070200 0.69809300
vt 0.18689100 0.69555200
vt 0.95038700 0.93903900
vt 0.85772100 0.85176300
vt 0.85771500 0.85534000
vt 0.18364900 0.69231800
vt 0.85771100 0.85940400
vt 0.18110200 0.68851500
vt 0.17934800 0.68428900
vt 0.85770800 0.86379900
vt 0.85770700 0.86835700
vt 0.17845400 0.67980300
vt 0.17845400 0.67522900
vt 0.85770800 0.87290300
vt 0.17934800 0.67074300
vt 0.85771100 0.87726100
vt 0.18110200 0.66651800
vt 0.85771500 0.88126400
vt 0.18364900 0.66271500
vt 0.85772100 0.88475900
vt 0.37773600 0.94903300
vt 0.18689000 0.65948100
vt 0.37419300 0.94903300
vt 0.37015000 0.94903300
vt 0.19070200 0.65694000
vt 0.93079500 0.93904800
vt 0.36576300 0.94903300
vt 0.19493700 0.65519000
vt 0.63513100 0.08536000
vt 0.42875700 0.18491800
vt 0.47310000 0.24757800
vt 0.65536500 0.51965900
vt 0.63608600 0.00977500
vt 0.63568300 0.05692900
vt 0.43991100 0.21109400
vt 0.45466200 0.23158600
vt 0.63599500 0.03210300
vt 0.63429300 0.11784300
vt 0.42140200 0.15247200
vt 0.63350600 0.14333100
vt 0.42052700 0.12470100
vt 0.42330600 0.09686000
vt 0.63267700 0.16732400
vt 0.42982700 0.07012900
vt 0.63187200 0.18871600
vt 0.43135600 0.02475400
vt 0.64983300 0.91328300
vt 0.63051000 0.22910000
vt 0.64949100 0.93024200
vt 0.44292000 0.00977500
vt 0.64949100 0.93024200
vt 0.45209100 0.01092300
vt 0.64972500 0.93795000
vt 0.91751900 0.93597600
vt 0.65547500 0.54362300
vt 0.46320000 0.22572100
vt 0.65576600 0.56642400
vt 0.45517400 0.20422200
vt 0.45024400 0.17951400
vt 0.65625700 0.59068800
vt 0.44996500 0.15041200
vt 0.65698500 0.61676900
vt 0.65786100 0.64148500
vt 0.45447000 0.12041700
vt 0.46172700 0.09643200
vt 0.65862500 0.65959700
vt 0.29405000 0.86932800
vt 0.29450000 0.88125800
vt 0.46800600 0.08212200
vt 0.28948300 0.88996700
vt 0.65671700 0.93795000
vt 0.91751900 0.92899900
vt 0.65394000 0.54362300
vt 0.65394500 0.56642400
vt 0.63750300 0.14333100
vt 0.63752600 0.11784300
vt 0.65395900 0.59068800
vt 0.63747300 0.16732400
vt 0.65398600 0.61676900
vt 0.63743700 0.18871600
vt 0.65402200 0.64148500
vt 0.65671700 0.91328300
vt 0.63739400 0.22910000
vt 0.63754100 0.08536000
vt 0.65405800 0.65959700
vt 0.28948300 0.86932800
vt 0.65671700 0.93024200
vt 0.65671700 0.93024200
vt 0.63754300 0.05692900
vt 0.28948300 0.88125800
vt 0.63753400 0.03210300
vt 0.63751300 0.00977500
vt 0.65393800 0.51965900
vt 0.92054200 0.92899900
vt 0.92054200 0.92899900
vt 0.36576300 0.93899400
vt 0.93079500 0.92900900
vt 0.95797400 0.92899900
vt 0.28948300 0.89895700
vt 0.95393100 0.92899900
vt 0.95038700 0.92899900
vt 0.84766000 0.85176300
vt 0.84765400 0.85533900
vt 0.57823800 0.17594600
vt 0.94448800 0.05578500
vt 0.37773600 0.93899400
vt 0.37419300 0.93899400
vt 0.37015000 0.93899400
vt 0.53086100 0.93642200
vt 0.85115600 0.86379900
vt 0.52996700 0.93193600
vt 0.85115500 0.86835700
vt 0.85116300 0.85534000
vt 0.57823800 0.17244400
vt 0.53516200 0.94445000
vt 0.85116300 0.88126400
vt 0.53261600 0.91865100
vt 0.53516200 0.91484800
vt 0.37773600 0.94249600
vt 0.85116900 0.88475900
vt 0.94448800 0.05928700
vt 0.52996700 0.92736200
vt 0.85115600 0.87290300
vt 0.53261600 0.94064700
vt 0.85115900 0.85940400
vt 0.53086100 0.92287600
vt 0.85115900 0.87726100
vt 0.94800200 0.01294700
vt 0.58325100 0.17594600
vt 0.94800600 0.00977500
vt 0.94799900 0.01637700
vt 0.94799800 0.01993400
vt 0.94799800 0.02348100
vt 0.94799900 0.02688200
vt 0.94800200 0.03000600
vt 0.94886300 0.05578500
vt 0.94800600 0.03273400
vt 0.95150800 0.01637800
vt 0.53652200 0.93493500
vt 0.95151100 0.03000700
vt 0.53789100 0.92106600
vt 0.95150700 0.01993500
vt 0.53582400 0.93143400
vt 0.95151500 0.00977600
vt 0.53987900 0.94120000
vt 0.58325100 0.17244400
vt 0.94886300 0.05928700
vt 0.53987900 0.91809900
vt 0.95151500 0.03273500
vt 0.95150700 0.02348200
vt 0.53582400 0.92786500
vt 0.95151100 0.01294800
vt 0.53789100 0.93823200
vt 0.53652200 0.92436400
vt 0.95150800 0.02688300
f 2/2/2 4/4/4 10/10/10
f 10/10/10 7/7/7 2/2/2
f 8/8/8 11/11/11 15/15/15
f 15/15/15 14/14/14 8/8/8
f 14/14/14 15/15/15 20/20/20
f 20/20/20 18/18/18 14/14/14
f 18/18/18 20/20/20 23/23/23
f 23/23/23 21/21/21 18/18/18
f 21/21/21 23/23/23 27/27/27
f 27/27/27 26/26/26 21/21/21
f 26/26/26 27/27/27 31/31/31
f 31/31/31 30/30/30 26/26/26
f 30/30/30 31/31/31 36/36/36
f 36/36/36 34/34/34 30/30/30
f 34/34/34 36/36/36 40/40/40
f 40/40/40 37/37/37 34/34/34
f 37/37/37 40/40/40 46/46/46
f 46/46/46 42/42/42 37/37/37
f 41/41/41 44/44/44 50/50/50
f 50/50/50 47/47/47 41/41/41
f 47/47/47 50/50/50 54/54/54
f 54/54/54 51/51/51 47/47/47
f 51/51/51 54/54/54 60/60/60
f 60/60/60 55/55/55 51/51/51
f 24/24/24 19/19/19 72/72/72
f 72/72/72 75/75/75 24/24/24
f 63/63/63 66/66/66 6/6/6
f 45/45/45 39/39/39 82/82/82
f 82/82/82 85/85/85 45/45/45
f 28/28/28 24/24/24 75/75/75
f 75/75/75 76/76/76 28/28/28
f 12/12/12 6/6/6 66/66/66
f 66/66/66 68/68/68 12/12/12
f 49/49/49 45/45/45 85/85/85
f 85/85/85 88/88/88 49/49/49
f 32/32/32 28/28/28 76/76/76
f 76/76/76 78/78/78 32/32/32
f 16/16/16 12/12/12 68/68/68
f 68/68/68 71/71/71 16/16/16
f 53/53/53 49/49/49 88/88/88
f 88/88/88 89/89/89 53/53/53
f 35/35/35 32/32/32 78/78/78
f 78/78/78 81/81/81 35/35/35
f 19/19/19 16/16/16 71/71/71
f 71/71/71 72/72/72 19/19/19
f 59/59/59 53/53/53 89/89/89
f 89/89/89 92/92/92 59/59/59
f 39/39/39 35/35/35 81/81/81
f 81/81/81 82/82/82 39/39/39
f 1/1/1 9/9/9 13/13/13
f 1/1/1 13/13/13 17/17/17
f 1/1/1 17/17/17 22/22/22
f 1/1/1 22/22/22 25/25/25
f 1/1/1 25/25/25 109/109/109
f 1/1/1 109/109/109 133/133/133
f 306/306/306 3/3/3 134/134/134
f 134/134/134 326/326/326 306/306/306
f 97/97/97 121/121/121 102/102/102
f 102/102/102 121/121/121 122/122/122
f 122/122/122 100/100/100 102/102/102
f 100/100/100 122/122/122 124/124/124
f 124/124/124 94/94/94 100/100/100
f 94/94/94 124/124/124 127/127/127
f 127/127/127 103/103/103 94/94/94
f 103/103/103 127/127/127 129/129/129
f 129/129/129 106/106/106 103/103/103
f 106/106/106 129/129/129 132/132/132
f 132/132/132 107/107/107 106/106/106
f 107/107/107 132/132/132 133/133/133
f 133/133/133 109/109/109 107/107/107
f 25/25/25 29/29/29 33/33/33
f 25/25/25 33/33/33 38/38/38
f 25/25/25 38/38/38 43/43/43
f 25/25/25 43/43/43 48/48/48
f 25/25/25 48/48/48 112/112/112
f 25/25/25 112/112/112 109/109/109
f 52/52/52 57/57/57 119/119/119
f 52/52/52 119/119/119 115/115/115
f 52/52/52 115/115/115 112/112/112
f 52/52/52 112/112/112 48/48/48
f 101/101/101 99/99/99 325/325/325
f 325/325/325 327/327/327 101/101/101
f 120/120/120 96/96/96 329/329/329
f 329/329/329 309/309/309 120/120/120
f 98/98/98 101/101/101 327/327/327
f 327/327/327 328/328/328 98/98/98
f 114/114/114 117/117/117 307/307/307
f 307/307/307 323/323/323 114/114/114
f 134/134/134 131/131/131 322/322/322
f 322/322/322 326/326/326 134/134/134
f 99/99/99 95/95/95 320/320/320
f 320/320/320 325/325/325 99/99/99
f 113/113/113 116/116/116 324/324/324
f 324/324/324 318/318/318 113/113/113
f 130/130/130 128/128/128 317/317/317
f 317/317/317 321/321/321 130/130/130
f 95/95/95 104/104/104 312/312/312
f 312/312/312 320/320/320 95/95/95
f 110/110/110 111/111/111 319/319/319
f 319/319/319 316/316/316 110/110/110
f 128/128/128 126/126/126 315/315/315
f 315/315/315 317/317/317 128/128/128
f 108/108/108 110/110/110 316/316/316
f 316/316/316 314/314/314 108/108/108
f 126/126/126 125/125/125 313/313/313
f 313/313/313 315/315/315 126/126/126
f 105/105/105 108/108/108 314/314/314
f 314/314/314 311/311/311 105/105/105
f 125/125/125 123/123/123 310/310/310
f 310/310/310 313/313/313 125/125/125
f 104/104/104 105/105/105 311/311/311
f 311/311/311 312/312/312 104/104/104
f 123/123/123 120/120/120 309/309/309
f 309/309/309 310/310/310 123/123/123
f 56/56/56 61/61/61 93/93/93
f 56/56/56 93/93/93 333/333/333
f 333/333/333 330/330/330 56/56/56
f 58/58/58 331/331/331 308/308/308
f 308/308/308 118/118/118 58/58/58
f 306/306/306 335/335/335 3/3/3
f 3/3/3 335/335/335 62/62/62
f 62/62/62 5/5/5 3/3/3
f 341/341/341 146/146/146 163/163/163
f 163/163/163 372/372/372 341/341/341
f 70/70/70 69/69/69 338/338/338
f 70/70/70 338/338/338 339/339/339
f 70/70/70 339/339/339 141/141/141
f 151/151/151 139/139/139 162/162/162
f 162/162/162 169/169/169 151/151/151
f 153/153/153 148/148/148 166/166/166
f 166/166/166 171/171/171 153/153/153
f 140/140/140 340/340/340 365/365/365
f 365/365/365 160/160/160 140/140/140
f 87/87/87 84/84/84 145/145/145
f 87/87/87 145/145/145 342/342/342
f 87/87/87 342/342/342 343/343/343
f 136/136/136 151/151/151 169/169/169
f 169/169/169 155/155/155 136/136/136
f 142/142/142 153/153/153 171/171/171
f 171/171/171 156/156/156 142/142/142
f 90/90/90 87/87/87 343/343/343
f 343/343/343 344/344/344 90/90/90
f 67/67/67 65/65/65 336/336/336
f 336/336/336 337/337/337 67/67/67
f 138/138/138 136/136/136 155/155/155
f 155/155/155 158/158/158 138/138/138
f 65/65/65 64/64/64 334/334/334
f 334/334/334 336/336/336 65/65/65
f 91/91/91 90/90/90 344/344/344
f 344/344/344 332/332/332 91/91/91
f 83/83/83 80/80/80 152/152/152
f 152/152/152 143/143/143 83/83/83
f 74/74/74 73/73/73 150/150/150
f 150/150/150 135/135/135 74/74/74
f 80/80/80 79/79/79 149/149/149
f 149/149/149 152/152/152 80/80/80
f 73/73/73 70/70/70 141/141/141
f 141/141/141 150/150/150 73/73/73
f 79/79/79 77/77/77 137/137/137
f 137/137/137 149/149/149 79/79/79
f 86/86/86 83/83/83 143/143/143
f 143/143/143 144/144/144 86/86/86
f 77/77/77 74/74/74 135/135/135
f 135/135/135 137/137/137 77/77/77
f 159/159/159 154/154/154 367/367/367
f 367/367/367 368/368/368 159/159/159
f 164/164/164 157/157/157 371/371/371
f 371/371/371 373/373/373 164/164/164
f 167/167/167 159/159/159 368/368/368
f 368/368/368 369/369/369 167/167/167
f 168/168/168 161/161/161 366/366/366
f 366/366/366 364/364/364 168/168/168
f 170/170/170 167/167/167 369/369/369
f 369/369/369 370/370/370 170/170/170
f 154/154/154 168/168/168 364/364/364
f 364/364/364 367/367/367 154/154/154
f 157/157/157 170/170/170 370/370/370
f 370/370/370 371/371/371 157/157/157
f 148/148/148 138/138/138 158/158/158
f 158/158/158 166/166/166 148/148/148
f 147/147/147 142/142/142 156/156/156
f 156/156/156 165/165/165 147/147/147
f 174/174/174 179/179/179 182/182/182
f 182/182/182 175/175/175 174/174/174
f 180/180/180 185/185/185 186/186/186
f 186/186/186 183/183/183 180/180/180
f 185/185/185 189/189/189 190/190/190
f 190/190/190 186/186/186 185/185/185
f 189/189/189 193/193/193 194/194/194
f 194/194/194 190/190/190 189/189/189
f 193/193/193 197/197/197 198/198/198
f 198/198/198 194/194/194 193/193/193
f 197/197/197 200/200/200 202/202/202
f 202/202/202 198/198/198 197/197/197
f 200/200/200 204/204/204 206/206/206
f 206/206/206 202/202/202 200/200/200
f 204/204/204 208/208/208 210/210/210
f 210/210/210 206/206/206 204/204/204
f 208/208/208 212/212/212 216/216/216
f 216/216/216 210/210/210 208/208/208
f 214/214/214 218/218/218 221/221/221
f 221/221/221 217/217/217 214/214/214
f 218/218/218 223/223/223 225/225/225
f 225/225/225 221/221/221 218/218/218
f 223/223/223 229/229/229 230/230/230
f 230/230/230 225/225/225 223/223/223
f 195/195/195 245/245/245 244/244/244
f 244/244/244 191/191/191 195/195/195
f 234/234/234 176/176/176 237/237/237
f 215/215/215 255/255/255 253/253/253
f 253/253/253 211/211/211 215/215/215
f 199/199/199 248/248/248 245/245/245
f 245/245/245 195/195/195 199/199/199
f 181/181/181 238/238/238 237/237/237
f 237/237/237 176/176/176 181/181/181
f 220/220/220 258/258/258 255/255/255
f 255/255/255 215/215/215 220/220/220
f 203/203/203 249/249/249 248/248/248
f 248/248/248 199/199/199 203/203/203
f 187/187/187 242/242/242 238/238/238
f 238/238/238 181/181/181 187/187/187
f 224/224/224 261/261/261 258/258/258
f 258/258/258 220/220/220 224/224/224
f 207/207/207 251/251/251 249/249/249
f 249/249/249 203/203/203 207/207/207
f 191/191/191 244/244/244 242/242/242
f 242/242/242 187/187/187 191/191/191
f 232/232/232 264/264/264 261/261/261
f 261/261/261 224/224/224 232/232/232
f 211/211/211 253/253/253 251/251/251
f 251/251/251 207/207/207 211/211/211
f 173/173/173 305/305/305 280/280/280
f 173/173/173 280/280/280 196/196/196
f 173/173/173 196/196/196 192/192/192
f 173/173/173 192/192/192 188/188/188
f 173/173/173 188/188/188 184/184/184
f 173/173/173 184/184/184 178/178/178
f 306/306/306 326/326/326 304/304/304
f 304/304/304 172/172/172 306/306/306
f 267/267/267 272/272/272 292/292/292
f 272/272/272 271/271/271 294/294/294
f 294/294/294 292/292/292 272/272/272
f 271/271/271 266/266/266 295/295/295
f 295/295/295 294/294/294 271/271/271
f 266/266/266 275/275/275 297/297/297
f 297/297/297 295/295/295 266/266/266
f 275/275/275 277/277/277 300/300/300
f 300/300/300 297/297/297 275/275/275
f 277/277/277 278/278/278 301/301/301
f 301/301/301 300/300/300 277/277/277
f 278/278/278 280/280/280 305/305/305
f 305/305/305 301/301/301 278/278/278
f 196/196/196 280/280/280 282/282/282
f 196/196/196 282/282/282 219/219/219
f 196/196/196 219/219/219 213/213/213
f 196/196/196 213/213/213 209/209/209
f 196/196/196 209/209/209 205/205/205
f 196/196/196 205/205/205 201/201/201
f 222/222/222 219/219/219 282/282/282
f 222/222/222 282/282/282 286/286/286
f 222/222/222 286/286/286 288/288/288
f 222/222/222 288/288/288 226/226/226
f 273/273/273 327/327/327 325/325/325
f 325/325/325 270/270/270 273/273/273
f 291/291/291 309/309/309 329/329/329
f 329/329/329 268/268/268 291/291/291
f 269/269/269 328/328/328 327/327/327
f 327/327/327 273/273/273 269/269/269
f 287/287/287 323/323/323 307/307/307
f 307/307/307 289/289/289 287/287/287
f 304/304/304 326/326/326 322/322/322
f 322/322/322 303/303/303 304/304/304
f 270/270/270 325/325/325 320/320/320
f 320/320/320 265/265/265 270/270/270
f 283/283/283 318/318/318 324/324/324
f 324/324/324 285/285/285 283/283/283
f 302/302/302 321/321/321 317/317/317
f 317/317/317 299/299/299 302/302/302
f 265/265/265 320/320/320 312/312/312
f 312/312/312 274/274/274 265/265/265
f 281/281/281 316/316/316 319/319/319
f 319/319/319 284/284/284 281/281/281
f 299/299/299 317/317/317 315/315/315
f 315/315/315 298/298/298 299/299/299
f 279/279/279 314/314/314 316/316/316
f 316/316/316 281/281/281 279/279/279
f 298/298/298 315/315/315 313/313/313
f 313/313/313 296/296/296 298/298/298
f 276/276/276 311/311/311 314/314/314
f 314/314/314 279/279/279 276/276/276
f 296/296/296 313/313/313 310/310/310
f 310/310/310 293/293/293 296/296/296
f 274/274/274 312/312/312 311/311/311
f 311/311/311 276/276/276 274/274/274
f 293/293/293 310/310/310 309/309/309
f 309/309/309 291/291/291 293/293/293
f 227/227/227 262/262/262 231/231/231
f 227/227/227 330/330/330 333/333/333
f 333/333/333 262/262/262 227/227/227
f 228/228/228 290/290/290 308/308/308
f 308/308/308 331/331/331 228/228/228
f 306/306/306 172/172/172 335/335/335
f 172/172/172 177/177/177 233/233/233
f 233/233/233 335/335/335 172/172/172
f 341/341/341 372/372/372 383/383/383
f 383/383/383 357/357/357 341/341/341
f 241/241/241 349/349/349 339/339/339
f 241/241/241 339/339/339 338/338/338
f 241/241/241 338/338/338 240/240/240
f 360/360/360 389/389/389 381/381/381
f 381/381/381 351/351/351 360/360/360
f 362/362/362 390/390/390 387/387/387
f 387/387/387 358/358/358 362/362/362
f 350/350/350 382/382/382 365/365/365
f 365/365/365 340/340/340 350/350/350
f 259/259/259 343/343/343 342/342/342
f 259/259/259 342/342/342 355/355/355
f 259/259/259 355/355/355 257/257/257
f 345/345/345 375/375/375 389/389/389
f 389/389/389 360/360/360 345/345/345
f 353/353/353 377/377/377 390/390/390
f 390/390/390 362/362/362 353/353/353
f 260/260/260 344/344/344 343/343/343
f 343/343/343 259/259/259 260/260/260
f 239/239/239 337/337/337 336/336/336
f 336/336/336 236/236/236 239/239/239
f 347/347/347 379/379/379 375/375/375
f 375/375/375 345/345/345 347/347/347
f 236/236/236 336/336/336 334/334/334
f 334/334/334 235/235/235 236/236/236
f 263/263/263 332/332/332 344/344/344
f 344/344/344 260/260/260 263/263/263
f 254/254/254 352/352/352 363/363/363
f 363/363/363 252/252/252 254/254/254
f 246/246/246 346/346/346 361/361/361
f 361/361/361 243/243/243 246/246/246
f 252/252/252 363/363/363 359/359/359
f 359/359/359 250/250/250 252/252/252
f 243/243/243 361/361/361 349/349/349
f 349/349/349 241/241/241 243/243/243
f 250/250/250 359/359/359 348/348/348
f 348/348/348 247/247/247 250/250/250
f 256/256/256 356/356/356 352/352/352
f 352/352/352 254/254/254 256/256/256
f 247/247/247 348/348/348 346/346/346
f 346/346/346 246/246/246 247/247/247
f 378/378/378 368/368/368 367/367/367
f 367/367/367 374/374/374 378/378/378
f 385/385/385 373/373/373 371/371/371
f 371/371/371 376/376/376 385/385/385
f 386/386/386 369/369/369 368/368/368
f 368/368/368 378/378/378 386/386/386
f 388/388/388 364/364/364 366/366/366
f 366/366/366 380/380/380 388/388/388
f 391/391/391 370/370/370 369/369/369
f 369/369/369 386/386/386 391/391/391
f 374/374/374 367/367/367 364/364/364
f 364/364/364 388/388/388 374/374/374
f 376/376/376 371/371/371 370/370/370
f 370/370/370 391/391/391 376/376/376
f 358/358/358 387/387/387 379/379/379
f 379/379/379 347/347/347 358/358/358
f 354/354/354 384/384/384 377/377/377
f 377/377/377 353/353/353 354/354/354

